M48
;DRILL file {KiCad (2017-03-04 revision f18196186)-makepkg} date 03/09/17 17:33:52
;FORMAT={-:-/ absolute / inch / decimal}
FMAT,2
INCH,TZ
T1C0.013
T2C0.039
T3C0.043
T4C0.060
T5C0.188
%
G90
G05
M72
T1
X4.15Y-4.62
X4.24Y-3.63
X4.29Y-4.085
X4.3Y-4.56
X4.53Y-3.75
X4.535Y-3.255
X4.7Y-3.4355
X5.29Y-3.74
X5.47Y-3.33
X5.96Y-3.725
X6.06Y-4.515
X6.115Y-4.675
X6.12Y-4.585
X6.38Y-4.75
T2
X3.8776Y-3.5683
X3.8776Y-4.3683
X3.975Y-3.7
X3.975Y-3.8
X3.975Y-3.9
X3.975Y-4.05
X3.975Y-4.15
X3.975Y-4.25
X3.9776Y-3.5683
X3.9776Y-4.3683
X4.0776Y-3.5683
X4.0776Y-4.3683
X4.165Y-3.7
X4.165Y-3.8
X4.165Y-3.9
X4.165Y-4.05
X4.165Y-4.15
X4.165Y-4.25
X4.1776Y-3.5683
X4.1776Y-4.3683
X4.2776Y-3.5683
X4.2776Y-4.3683
X4.36Y-3.7
X4.36Y-3.8
X4.36Y-3.9
X4.3776Y-3.5683
X4.3776Y-4.3683
X4.4776Y-3.5683
X4.4776Y-4.3683
X4.5776Y-3.5683
X4.5776Y-4.3683
X4.6776Y-3.5683
X4.6776Y-4.3683
X4.7776Y-3.5683
X4.7776Y-4.3683
X4.8776Y-3.5683
X4.8776Y-4.3683
X4.9776Y-3.5683
X4.9776Y-4.3683
X5.0776Y-3.5683
X5.0776Y-4.3683
X5.1776Y-3.5683
X5.1776Y-4.3683
X5.2776Y-3.5683
X5.2776Y-4.3683
X5.3776Y-3.5683
X5.3776Y-4.3683
X5.4776Y-3.5683
X5.4776Y-4.3683
X5.5776Y-3.5683
X5.5776Y-4.3683
X5.6776Y-3.5683
X5.6776Y-4.3683
X5.7776Y-3.5683
X5.7776Y-4.3683
X5.8776Y-3.5683
X5.8776Y-4.3683
X5.9776Y-3.5683
X5.9776Y-4.3683
X6.0776Y-3.5683
X6.0776Y-4.3683
X6.1776Y-3.5683
X6.1776Y-4.3683
X6.2776Y-3.5683
X6.2776Y-4.3683
X6.3776Y-3.5683
X6.3776Y-4.3683
X6.5Y-4.225
X6.5Y-4.325
T3
X6.525Y-3.675
X6.525Y-3.9309
X6.7022Y-3.675
X6.7022Y-3.9309
T4
X4.615Y-4.65
X4.615Y-4.88
X4.665Y-3.025
X4.665Y-3.255
X4.845Y-4.65
X4.845Y-4.88
X4.895Y-3.025
X4.895Y-3.255
X5.075Y-4.65
X5.075Y-4.88
X5.125Y-3.025
X5.125Y-3.255
X5.305Y-4.65
X5.305Y-4.88
X5.355Y-3.025
X5.355Y-3.255
X5.585Y-3.025
X5.585Y-3.255
X5.815Y-3.025
X5.815Y-3.255
X6.045Y-3.025
X6.045Y-3.255
X6.275Y-3.025
X6.275Y-3.255
T5
X3.948Y-4.765
X3.9535Y-3.14
X5.972Y-4.765
X6.9775Y-3.14
T0
M30
