  0
SECTION
  2
HEADER
  9
$ANGBASE
  50
0.0
  9
$ANGDIR
  70
  1
  9
$MEASUREMENT
  70
0
  0
ENDSEC
  0
SECTION
  2
TABLES
  0
TABLE
  2
LTYPE
  70
1
  0
LTYPE
  2
CONTINUOUS
  70
0
  3
Solid line
  72
65
  73
0
  40
0.0
  0
ENDTAB
  0
TABLE
  2
STYLE
  70
4
  0
STYLE
  2
KICAD
  70
0
  40
0
  41
1
  42
1
  50
0
  71
0
  3
isocp.shx
  0
STYLE
  2
KICADB
  70
0
  40
0
  41
1
  42
1
  50
0
  71
0
  3
isocp.shx
  0
STYLE
  2
KICADI
  70
0
  40
0
  41
1
  42
1
  50
15
  71
0
  3
isocp.shx
  0
STYLE
  2
KICADBI
  70
0
  40
0
  41
1
  42
1
  50
15
  71
0
  3
isocp.shx
  0
ENDTAB
  0
TABLE
  2
LAYER
  70
30
  0
LAYER
  2
BLACK
  70
0
  62
7
  6
CONTINUOUS
  0
LAYER
  2
GRAY1
  70
0
  62
251
  6
CONTINUOUS
  0
LAYER
  2
GRAY2
  70
0
  62
8
  6
CONTINUOUS
  0
LAYER
  2
GRAY3
  70
0
  62
9
  6
CONTINUOUS
  0
LAYER
  2
WHITE
  70
0
  62
7
  6
CONTINUOUS
  0
LAYER
  2
LYELLOW
  70
0
  62
51
  6
CONTINUOUS
  0
LAYER
  2
BLUE1
  70
0
  62
178
  6
CONTINUOUS
  0
LAYER
  2
GREEN1
  70
0
  62
98
  6
CONTINUOUS
  0
LAYER
  2
CYAN1
  70
0
  62
138
  6
CONTINUOUS
  0
LAYER
  2
RED1
  70
0
  62
18
  6
CONTINUOUS
  0
LAYER
  2
MAGENTA1
  70
0
  62
228
  6
CONTINUOUS
  0
LAYER
  2
BROWN1
  70
0
  62
58
  6
CONTINUOUS
  0
LAYER
  2
BLUE2
  70
0
  62
5
  6
CONTINUOUS
  0
LAYER
  2
GREEN2
  70
0
  62
3
  6
CONTINUOUS
  0
LAYER
  2
CYAN2
  70
0
  62
4
  6
CONTINUOUS
  0
LAYER
  2
RED2
  70
0
  62
1
  6
CONTINUOUS
  0
LAYER
  2
MAGENTA2
  70
0
  62
6
  6
CONTINUOUS
  0
LAYER
  2
BROWN2
  70
0
  62
54
  6
CONTINUOUS
  0
LAYER
  2
BLUE3
  70
0
  62
171
  6
CONTINUOUS
  0
LAYER
  2
GREEN3
  70
0
  62
91
  6
CONTINUOUS
  0
LAYER
  2
CYAN3
  70
0
  62
131
  6
CONTINUOUS
  0
LAYER
  2
RED3
  70
0
  62
11
  6
CONTINUOUS
  0
LAYER
  2
MAGENTA3
  70
0
  62
221
  6
CONTINUOUS
  0
LAYER
  2
YELLOW3
  70
0
  62
2
  6
CONTINUOUS
  0
LAYER
  2
BLUE4
  70
0
  62
5
  6
CONTINUOUS
  0
LAYER
  2
GREEN4
  70
0
  62
3
  6
CONTINUOUS
  0
LAYER
  2
CYAN4
  70
0
  62
4
  6
CONTINUOUS
  0
LAYER
  2
RED4
  70
0
  62
1
  6
CONTINUOUS
  0
LAYER
  2
MAGENTA4
  70
0
  62
6
  6
CONTINUOUS
  0
LAYER
  2
YELLOW4
  70
0
  62
2
  6
CONTINUOUS
  0
ENDTAB
  0
ENDSEC
  0
SECTION
  2
ENTITIES
0
LINE
8
Black
10
155.303
20
-110.773
11
155.619
21
-110.956
0
LINE
8
Black
10
155.619
20
-110.956
11
155.853
21
-111.235
0
LINE
8
Black
10
155.853
20
-111.235
11
155.978
21
-111.578
0
LINE
8
Black
10
155.978
20
-111.578
11
155.978
21
-111.942
0
LINE
8
Black
10
155.978
20
-111.942
11
155.853
21
-112.285
0
LINE
8
Black
10
155.853
20
-112.285
11
155.619
21
-112.564
0
LINE
8
Black
10
155.619
20
-112.564
11
155.303
21
-112.747
0
LINE
8
Black
10
155.303
20
-112.747
11
154.944
21
-112.81
0
LINE
8
Black
10
154.944
20
-112.81
11
154.936
21
-112.81
0
LINE
8
Black
10
154.936
20
-112.81
11
154.577
21
-112.747
0
LINE
8
Black
10
154.577
20
-112.747
11
154.261
21
-112.564
0
LINE
8
Black
10
154.261
20
-112.564
11
154.027
21
-112.285
0
LINE
8
Black
10
154.027
20
-112.285
11
153.902
21
-111.942
0
LINE
8
Black
10
153.902
20
-111.942
11
153.902
21
-111.578
0
LINE
8
Black
10
153.902
20
-111.578
11
154.027
21
-111.235
0
LINE
8
Black
10
154.027
20
-111.235
11
154.261
21
-110.956
0
LINE
8
Black
10
154.261
20
-110.956
11
154.577
21
-110.773
0
LINE
8
Black
10
154.577
20
-110.773
11
154.936
21
-110.71
0
LINE
8
Black
10
154.936
20
-110.71
11
154.944
21
-110.71
0
LINE
8
Black
10
154.944
20
-110.71
11
155.303
21
-110.773
0
LINE
8
Black
10
99.381
20
-109.608
11
99.6633
21
-109.771
0
LINE
8
Black
10
99.6633
20
-109.771
11
99.8728
21
-110.021
0
LINE
8
Black
10
99.8728
20
-110.021
11
99.9843
21
-110.327
0
LINE
8
Black
10
99.9843
20
-110.327
11
99.9843
21
-110.653
0
LINE
8
Black
10
99.9843
20
-110.653
11
99.8728
21
-110.959
0
LINE
8
Black
10
99.8728
20
-110.959
11
99.6633
21
-111.209
0
LINE
8
Black
10
99.6633
20
-111.209
11
99.381
21
-111.372
0
LINE
8
Black
10
99.381
20
-111.372
11
99.06
21
-111.429
0
LINE
8
Black
10
99.06
20
-111.429
11
98.739
21
-111.372
0
LINE
8
Black
10
98.739
20
-111.372
11
98.4567
21
-111.209
0
LINE
8
Black
10
98.4567
20
-111.209
11
98.2472
21
-110.959
0
LINE
8
Black
10
98.2472
20
-110.959
11
98.1357
21
-110.653
0
LINE
8
Black
10
98.1357
20
-110.653
11
98.1357
21
-110.327
0
LINE
8
Black
10
98.1357
20
-110.327
11
98.2472
21
-110.021
0
LINE
8
Black
10
98.2472
20
-110.021
11
98.4567
21
-109.771
0
LINE
8
Black
10
98.4567
20
-109.771
11
98.739
21
-109.608
0
LINE
8
Black
10
98.739
20
-109.608
11
99.06
21
-109.551
0
LINE
8
Black
10
99.06
20
-109.551
11
99.381
21
-109.608
0
LINE
8
Black
10
129.861
20
-109.608
11
130.143
21
-109.771
0
LINE
8
Black
10
130.143
20
-109.771
11
130.353
21
-110.021
0
LINE
8
Black
10
130.353
20
-110.021
11
130.464
21
-110.327
0
LINE
8
Black
10
130.464
20
-110.327
11
130.464
21
-110.653
0
LINE
8
Black
10
130.464
20
-110.653
11
130.353
21
-110.959
0
LINE
8
Black
10
130.353
20
-110.959
11
130.143
21
-111.209
0
LINE
8
Black
10
130.143
20
-111.209
11
129.861
21
-111.372
0
LINE
8
Black
10
129.861
20
-111.372
11
129.54
21
-111.429
0
LINE
8
Black
10
129.54
20
-111.429
11
129.219
21
-111.372
0
LINE
8
Black
10
129.219
20
-111.372
11
128.937
21
-111.209
0
LINE
8
Black
10
128.937
20
-111.209
11
128.727
21
-110.959
0
LINE
8
Black
10
128.727
20
-110.959
11
128.616
21
-110.653
0
LINE
8
Black
10
128.616
20
-110.653
11
128.616
21
-110.327
0
LINE
8
Black
10
128.616
20
-110.327
11
128.727
21
-110.021
0
LINE
8
Black
10
128.727
20
-110.021
11
128.937
21
-109.771
0
LINE
8
Black
10
128.937
20
-109.771
11
129.219
21
-109.608
0
LINE
8
Black
10
129.219
20
-109.608
11
129.54
21
-109.551
0
LINE
8
Black
10
129.54
20
-109.551
11
129.861
21
-109.608
0
LINE
8
Black
10
132.401
20
-109.608
11
132.683
21
-109.771
0
LINE
8
Black
10
132.683
20
-109.771
11
132.893
21
-110.021
0
LINE
8
Black
10
132.893
20
-110.021
11
133.004
21
-110.327
0
LINE
8
Black
10
133.004
20
-110.327
11
133.004
21
-110.653
0
LINE
8
Black
10
133.004
20
-110.653
11
132.893
21
-110.959
0
LINE
8
Black
10
132.893
20
-110.959
11
132.683
21
-111.209
0
LINE
8
Black
10
132.683
20
-111.209
11
132.401
21
-111.372
0
LINE
8
Black
10
132.401
20
-111.372
11
132.08
21
-111.429
0
LINE
8
Black
10
132.08
20
-111.429
11
131.759
21
-111.372
0
LINE
8
Black
10
131.759
20
-111.372
11
131.477
21
-111.209
0
LINE
8
Black
10
131.477
20
-111.209
11
131.267
21
-110.959
0
LINE
8
Black
10
131.267
20
-110.959
11
131.156
21
-110.653
0
LINE
8
Black
10
131.156
20
-110.653
11
131.156
21
-110.327
0
LINE
8
Black
10
131.156
20
-110.327
11
131.267
21
-110.021
0
LINE
8
Black
10
131.267
20
-110.021
11
131.477
21
-109.771
0
LINE
8
Black
10
131.477
20
-109.771
11
131.759
21
-109.608
0
LINE
8
Black
10
131.759
20
-109.608
11
132.08
21
-109.551
0
LINE
8
Black
10
132.08
20
-109.551
11
132.401
21
-109.608
0
LINE
8
Black
10
127.321
20
-109.608
11
127.603
21
-109.771
0
LINE
8
Black
10
127.603
20
-109.771
11
127.813
21
-110.021
0
LINE
8
Black
10
127.813
20
-110.021
11
127.924
21
-110.327
0
LINE
8
Black
10
127.924
20
-110.327
11
127.924
21
-110.653
0
LINE
8
Black
10
127.924
20
-110.653
11
127.813
21
-110.959
0
LINE
8
Black
10
127.813
20
-110.959
11
127.603
21
-111.209
0
LINE
8
Black
10
127.603
20
-111.209
11
127.321
21
-111.372
0
LINE
8
Black
10
127.321
20
-111.372
11
127
21
-111.429
0
LINE
8
Black
10
127
20
-111.429
11
126.679
21
-111.372
0
LINE
8
Black
10
126.679
20
-111.372
11
126.397
21
-111.209
0
LINE
8
Black
10
126.397
20
-111.209
11
126.187
21
-110.959
0
LINE
8
Black
10
126.187
20
-110.959
11
126.076
21
-110.653
0
LINE
8
Black
10
126.076
20
-110.653
11
126.076
21
-110.327
0
LINE
8
Black
10
126.076
20
-110.327
11
126.187
21
-110.021
0
LINE
8
Black
10
126.187
20
-110.021
11
126.397
21
-109.771
0
LINE
8
Black
10
126.397
20
-109.771
11
126.679
21
-109.608
0
LINE
8
Black
10
126.679
20
-109.608
11
127
21
-109.551
0
LINE
8
Black
10
127
20
-109.551
11
127.321
21
-109.608
0
LINE
8
Black
10
124.781
20
-109.608
11
125.063
21
-109.771
0
LINE
8
Black
10
125.063
20
-109.771
11
125.273
21
-110.021
0
LINE
8
Black
10
125.273
20
-110.021
11
125.384
21
-110.327
0
LINE
8
Black
10
125.384
20
-110.327
11
125.384
21
-110.653
0
LINE
8
Black
10
125.384
20
-110.653
11
125.273
21
-110.959
0
LINE
8
Black
10
125.273
20
-110.959
11
125.063
21
-111.209
0
LINE
8
Black
10
125.063
20
-111.209
11
124.781
21
-111.372
0
LINE
8
Black
10
124.781
20
-111.372
11
124.46
21
-111.429
0
LINE
8
Black
10
124.46
20
-111.429
11
124.139
21
-111.372
0
LINE
8
Black
10
124.139
20
-111.372
11
123.857
21
-111.209
0
LINE
8
Black
10
123.857
20
-111.209
11
123.647
21
-110.959
0
LINE
8
Black
10
123.647
20
-110.959
11
123.536
21
-110.653
0
LINE
8
Black
10
123.536
20
-110.653
11
123.536
21
-110.327
0
LINE
8
Black
10
123.536
20
-110.327
11
123.647
21
-110.021
0
LINE
8
Black
10
123.647
20
-110.021
11
123.857
21
-109.771
0
LINE
8
Black
10
123.857
20
-109.771
11
124.139
21
-109.608
0
LINE
8
Black
10
124.139
20
-109.608
11
124.46
21
-109.551
0
LINE
8
Black
10
124.46
20
-109.551
11
124.781
21
-109.608
0
LINE
8
Black
10
122.241
20
-109.608
11
122.523
21
-109.771
0
LINE
8
Black
10
122.523
20
-109.771
11
122.733
21
-110.021
0
LINE
8
Black
10
122.733
20
-110.021
11
122.844
21
-110.327
0
LINE
8
Black
10
122.844
20
-110.327
11
122.844
21
-110.653
0
LINE
8
Black
10
122.844
20
-110.653
11
122.733
21
-110.959
0
LINE
8
Black
10
122.733
20
-110.959
11
122.523
21
-111.209
0
LINE
8
Black
10
122.523
20
-111.209
11
122.241
21
-111.372
0
LINE
8
Black
10
122.241
20
-111.372
11
121.92
21
-111.429
0
LINE
8
Black
10
121.92
20
-111.429
11
121.599
21
-111.372
0
LINE
8
Black
10
121.599
20
-111.372
11
121.317
21
-111.209
0
LINE
8
Black
10
121.317
20
-111.209
11
121.107
21
-110.959
0
LINE
8
Black
10
121.107
20
-110.959
11
120.996
21
-110.653
0
LINE
8
Black
10
120.996
20
-110.653
11
120.996
21
-110.327
0
LINE
8
Black
10
120.996
20
-110.327
11
121.107
21
-110.021
0
LINE
8
Black
10
121.107
20
-110.021
11
121.317
21
-109.771
0
LINE
8
Black
10
121.317
20
-109.771
11
121.599
21
-109.608
0
LINE
8
Black
10
121.599
20
-109.608
11
121.92
21
-109.551
0
LINE
8
Black
10
121.92
20
-109.551
11
122.241
21
-109.608
0
LINE
8
Black
10
119.701
20
-109.608
11
119.983
21
-109.771
0
LINE
8
Black
10
119.983
20
-109.771
11
120.193
21
-110.021
0
LINE
8
Black
10
120.193
20
-110.021
11
120.304
21
-110.327
0
LINE
8
Black
10
120.304
20
-110.327
11
120.304
21
-110.653
0
LINE
8
Black
10
120.304
20
-110.653
11
120.193
21
-110.959
0
LINE
8
Black
10
120.193
20
-110.959
11
119.983
21
-111.209
0
LINE
8
Black
10
119.983
20
-111.209
11
119.701
21
-111.372
0
LINE
8
Black
10
119.701
20
-111.372
11
119.38
21
-111.429
0
LINE
8
Black
10
119.38
20
-111.429
11
119.059
21
-111.372
0
LINE
8
Black
10
119.059
20
-111.372
11
118.777
21
-111.209
0
LINE
8
Black
10
118.777
20
-111.209
11
118.567
21
-110.959
0
LINE
8
Black
10
118.567
20
-110.959
11
118.456
21
-110.653
0
LINE
8
Black
10
118.456
20
-110.653
11
118.456
21
-110.327
0
LINE
8
Black
10
118.456
20
-110.327
11
118.567
21
-110.021
0
LINE
8
Black
10
118.567
20
-110.021
11
118.777
21
-109.771
0
LINE
8
Black
10
118.777
20
-109.771
11
119.059
21
-109.608
0
LINE
8
Black
10
119.059
20
-109.608
11
119.38
21
-109.551
0
LINE
8
Black
10
119.38
20
-109.551
11
119.701
21
-109.608
0
LINE
8
Black
10
117.161
20
-109.608
11
117.443
21
-109.771
0
LINE
8
Black
10
117.443
20
-109.771
11
117.653
21
-110.021
0
LINE
8
Black
10
117.653
20
-110.021
11
117.764
21
-110.327
0
LINE
8
Black
10
117.764
20
-110.327
11
117.764
21
-110.653
0
LINE
8
Black
10
117.764
20
-110.653
11
117.653
21
-110.959
0
LINE
8
Black
10
117.653
20
-110.959
11
117.443
21
-111.209
0
LINE
8
Black
10
117.443
20
-111.209
11
117.161
21
-111.372
0
LINE
8
Black
10
117.161
20
-111.372
11
116.84
21
-111.429
0
LINE
8
Black
10
116.84
20
-111.429
11
116.519
21
-111.372
0
LINE
8
Black
10
116.519
20
-111.372
11
116.237
21
-111.209
0
LINE
8
Black
10
116.237
20
-111.209
11
116.027
21
-110.959
0
LINE
8
Black
10
116.027
20
-110.959
11
115.916
21
-110.653
0
LINE
8
Black
10
115.916
20
-110.653
11
115.916
21
-110.327
0
LINE
8
Black
10
115.916
20
-110.327
11
116.027
21
-110.021
0
LINE
8
Black
10
116.027
20
-110.021
11
116.237
21
-109.771
0
LINE
8
Black
10
116.237
20
-109.771
11
116.519
21
-109.608
0
LINE
8
Black
10
116.519
20
-109.608
11
116.84
21
-109.551
0
LINE
8
Black
10
116.84
20
-109.551
11
117.161
21
-109.608
0
LINE
8
Black
10
114.621
20
-109.608
11
114.903
21
-109.771
0
LINE
8
Black
10
114.903
20
-109.771
11
115.113
21
-110.021
0
LINE
8
Black
10
115.113
20
-110.021
11
115.224
21
-110.327
0
LINE
8
Black
10
115.224
20
-110.327
11
115.224
21
-110.653
0
LINE
8
Black
10
115.224
20
-110.653
11
115.113
21
-110.959
0
LINE
8
Black
10
115.113
20
-110.959
11
114.903
21
-111.209
0
LINE
8
Black
10
114.903
20
-111.209
11
114.621
21
-111.372
0
LINE
8
Black
10
114.621
20
-111.372
11
114.3
21
-111.429
0
LINE
8
Black
10
114.3
20
-111.429
11
113.979
21
-111.372
0
LINE
8
Black
10
113.979
20
-111.372
11
113.697
21
-111.209
0
LINE
8
Black
10
113.697
20
-111.209
11
113.487
21
-110.959
0
LINE
8
Black
10
113.487
20
-110.959
11
113.376
21
-110.653
0
LINE
8
Black
10
113.376
20
-110.653
11
113.376
21
-110.327
0
LINE
8
Black
10
113.376
20
-110.327
11
113.487
21
-110.021
0
LINE
8
Black
10
113.487
20
-110.021
11
113.697
21
-109.771
0
LINE
8
Black
10
113.697
20
-109.771
11
113.979
21
-109.608
0
LINE
8
Black
10
113.979
20
-109.608
11
114.3
21
-109.551
0
LINE
8
Black
10
114.3
20
-109.551
11
114.621
21
-109.608
0
LINE
8
Black
10
112.081
20
-109.608
11
112.363
21
-109.771
0
LINE
8
Black
10
112.363
20
-109.771
11
112.573
21
-110.021
0
LINE
8
Black
10
112.573
20
-110.021
11
112.684
21
-110.327
0
LINE
8
Black
10
112.684
20
-110.327
11
112.684
21
-110.653
0
LINE
8
Black
10
112.684
20
-110.653
11
112.573
21
-110.959
0
LINE
8
Black
10
112.573
20
-110.959
11
112.363
21
-111.209
0
LINE
8
Black
10
112.363
20
-111.209
11
112.081
21
-111.372
0
LINE
8
Black
10
112.081
20
-111.372
11
111.76
21
-111.429
0
LINE
8
Black
10
111.76
20
-111.429
11
111.439
21
-111.372
0
LINE
8
Black
10
111.439
20
-111.372
11
111.157
21
-111.209
0
LINE
8
Black
10
111.157
20
-111.209
11
110.947
21
-110.959
0
LINE
8
Black
10
110.947
20
-110.959
11
110.836
21
-110.653
0
LINE
8
Black
10
110.836
20
-110.653
11
110.836
21
-110.327
0
LINE
8
Black
10
110.836
20
-110.327
11
110.947
21
-110.021
0
LINE
8
Black
10
110.947
20
-110.021
11
111.157
21
-109.771
0
LINE
8
Black
10
111.157
20
-109.771
11
111.439
21
-109.608
0
LINE
8
Black
10
111.439
20
-109.608
11
111.76
21
-109.551
0
LINE
8
Black
10
111.76
20
-109.551
11
112.081
21
-109.608
0
LINE
8
Black
10
109.541
20
-109.608
11
109.823
21
-109.771
0
LINE
8
Black
10
109.823
20
-109.771
11
110.033
21
-110.021
0
LINE
8
Black
10
110.033
20
-110.021
11
110.144
21
-110.327
0
LINE
8
Black
10
110.144
20
-110.327
11
110.144
21
-110.653
0
LINE
8
Black
10
110.144
20
-110.653
11
110.033
21
-110.959
0
LINE
8
Black
10
110.033
20
-110.959
11
109.823
21
-111.209
0
LINE
8
Black
10
109.823
20
-111.209
11
109.541
21
-111.372
0
LINE
8
Black
10
109.541
20
-111.372
11
109.22
21
-111.429
0
LINE
8
Black
10
109.22
20
-111.429
11
108.899
21
-111.372
0
LINE
8
Black
10
108.899
20
-111.372
11
108.617
21
-111.209
0
LINE
8
Black
10
108.617
20
-111.209
11
108.407
21
-110.959
0
LINE
8
Black
10
108.407
20
-110.959
11
108.296
21
-110.653
0
LINE
8
Black
10
108.296
20
-110.653
11
108.296
21
-110.327
0
LINE
8
Black
10
108.296
20
-110.327
11
108.407
21
-110.021
0
LINE
8
Black
10
108.407
20
-110.021
11
108.617
21
-109.771
0
LINE
8
Black
10
108.617
20
-109.771
11
108.899
21
-109.608
0
LINE
8
Black
10
108.899
20
-109.608
11
109.22
21
-109.551
0
LINE
8
Black
10
109.22
20
-109.551
11
109.541
21
-109.608
0
LINE
8
Black
10
107.001
20
-109.608
11
107.283
21
-109.771
0
LINE
8
Black
10
107.283
20
-109.771
11
107.493
21
-110.021
0
LINE
8
Black
10
107.493
20
-110.021
11
107.604
21
-110.327
0
LINE
8
Black
10
107.604
20
-110.327
11
107.604
21
-110.653
0
LINE
8
Black
10
107.604
20
-110.653
11
107.493
21
-110.959
0
LINE
8
Black
10
107.493
20
-110.959
11
107.283
21
-111.209
0
LINE
8
Black
10
107.283
20
-111.209
11
107.001
21
-111.372
0
LINE
8
Black
10
107.001
20
-111.372
11
106.68
21
-111.429
0
LINE
8
Black
10
106.68
20
-111.429
11
106.359
21
-111.372
0
LINE
8
Black
10
106.359
20
-111.372
11
106.077
21
-111.209
0
LINE
8
Black
10
106.077
20
-111.209
11
105.867
21
-110.959
0
LINE
8
Black
10
105.867
20
-110.959
11
105.756
21
-110.653
0
LINE
8
Black
10
105.756
20
-110.653
11
105.756
21
-110.327
0
LINE
8
Black
10
105.756
20
-110.327
11
105.867
21
-110.021
0
LINE
8
Black
10
105.867
20
-110.021
11
106.077
21
-109.771
0
LINE
8
Black
10
106.077
20
-109.771
11
106.359
21
-109.608
0
LINE
8
Black
10
106.359
20
-109.608
11
106.68
21
-109.551
0
LINE
8
Black
10
106.68
20
-109.551
11
107.001
21
-109.608
0
LINE
8
Black
10
104.461
20
-109.608
11
104.743
21
-109.771
0
LINE
8
Black
10
104.743
20
-109.771
11
104.953
21
-110.021
0
LINE
8
Black
10
104.953
20
-110.021
11
105.064
21
-110.327
0
LINE
8
Black
10
105.064
20
-110.327
11
105.064
21
-110.653
0
LINE
8
Black
10
105.064
20
-110.653
11
104.953
21
-110.959
0
LINE
8
Black
10
104.953
20
-110.959
11
104.743
21
-111.209
0
LINE
8
Black
10
104.743
20
-111.209
11
104.461
21
-111.372
0
LINE
8
Black
10
104.461
20
-111.372
11
104.14
21
-111.429
0
LINE
8
Black
10
104.14
20
-111.429
11
103.819
21
-111.372
0
LINE
8
Black
10
103.819
20
-111.372
11
103.537
21
-111.209
0
LINE
8
Black
10
103.537
20
-111.209
11
103.327
21
-110.959
0
LINE
8
Black
10
103.327
20
-110.959
11
103.216
21
-110.653
0
LINE
8
Black
10
103.216
20
-110.653
11
103.216
21
-110.327
0
LINE
8
Black
10
103.216
20
-110.327
11
103.327
21
-110.021
0
LINE
8
Black
10
103.327
20
-110.021
11
103.537
21
-109.771
0
LINE
8
Black
10
103.537
20
-109.771
11
103.819
21
-109.608
0
LINE
8
Black
10
103.819
20
-109.608
11
104.14
21
-109.551
0
LINE
8
Black
10
104.14
20
-109.551
11
104.461
21
-109.608
0
LINE
8
Black
10
101.921
20
-109.608
11
102.203
21
-109.771
0
LINE
8
Black
10
102.203
20
-109.771
11
102.413
21
-110.021
0
LINE
8
Black
10
102.413
20
-110.021
11
102.524
21
-110.327
0
LINE
8
Black
10
102.524
20
-110.327
11
102.524
21
-110.653
0
LINE
8
Black
10
102.524
20
-110.653
11
102.413
21
-110.959
0
LINE
8
Black
10
102.413
20
-110.959
11
102.203
21
-111.209
0
LINE
8
Black
10
102.203
20
-111.209
11
101.921
21
-111.372
0
LINE
8
Black
10
101.921
20
-111.372
11
101.6
21
-111.429
0
LINE
8
Black
10
101.6
20
-111.429
11
101.279
21
-111.372
0
LINE
8
Black
10
101.279
20
-111.372
11
100.997
21
-111.209
0
LINE
8
Black
10
100.997
20
-111.209
11
100.787
21
-110.959
0
LINE
8
Black
10
100.787
20
-110.959
11
100.676
21
-110.653
0
LINE
8
Black
10
100.676
20
-110.653
11
100.676
21
-110.327
0
LINE
8
Black
10
100.676
20
-110.327
11
100.787
21
-110.021
0
LINE
8
Black
10
100.787
20
-110.021
11
100.997
21
-109.771
0
LINE
8
Black
10
100.997
20
-109.771
11
101.279
21
-109.608
0
LINE
8
Black
10
101.279
20
-109.608
11
101.6
21
-109.551
0
LINE
8
Black
10
101.6
20
-109.551
11
101.921
21
-109.608
0
LINE
8
Black
10
138.01
20
-110.885
11
136.31
21
-110.885
0
LINE
8
Black
10
136.31
20
-110.885
11
136.31
21
-108.985
0
LINE
8
Black
10
136.31
20
-108.985
11
138.01
21
-108.985
0
LINE
8
Black
10
138.01
20
-108.985
11
138.01
21
-110.885
0
LINE
8
Black
10
155.99
20
-110.27
11
153.89
21
-110.27
0
LINE
8
Black
10
153.89
20
-110.27
11
153.89
21
-108.17
0
LINE
8
Black
10
153.89
20
-108.17
11
155.99
21
-108.17
0
LINE
8
Black
10
155.99
20
-108.17
11
155.99
21
-110.27
0
LINE
8
Black
10
104.461
20
-107.068
11
104.743
21
-107.231
0
LINE
8
Black
10
104.743
20
-107.231
11
104.953
21
-107.481
0
LINE
8
Black
10
104.953
20
-107.481
11
105.064
21
-107.787
0
LINE
8
Black
10
105.064
20
-107.787
11
105.064
21
-108.113
0
LINE
8
Black
10
105.064
20
-108.113
11
104.953
21
-108.419
0
LINE
8
Black
10
104.953
20
-108.419
11
104.743
21
-108.669
0
LINE
8
Black
10
104.743
20
-108.669
11
104.461
21
-108.832
0
LINE
8
Black
10
104.461
20
-108.832
11
104.14
21
-108.889
0
LINE
8
Black
10
104.14
20
-108.889
11
103.819
21
-108.832
0
LINE
8
Black
10
103.819
20
-108.832
11
103.537
21
-108.669
0
LINE
8
Black
10
103.537
20
-108.669
11
103.327
21
-108.419
0
LINE
8
Black
10
103.327
20
-108.419
11
103.216
21
-108.113
0
LINE
8
Black
10
103.216
20
-108.113
11
103.216
21
-107.787
0
LINE
8
Black
10
103.216
20
-107.787
11
103.327
21
-107.481
0
LINE
8
Black
10
103.327
20
-107.481
11
103.537
21
-107.231
0
LINE
8
Black
10
103.537
20
-107.231
11
103.819
21
-107.068
0
LINE
8
Black
10
103.819
20
-107.068
11
104.14
21
-107.011
0
LINE
8
Black
10
104.14
20
-107.011
11
104.461
21
-107.068
0
LINE
8
Black
10
129.861
20
-107.068
11
130.143
21
-107.231
0
LINE
8
Black
10
130.143
20
-107.231
11
130.353
21
-107.481
0
LINE
8
Black
10
130.353
20
-107.481
11
130.464
21
-107.787
0
LINE
8
Black
10
130.464
20
-107.787
11
130.464
21
-108.113
0
LINE
8
Black
10
130.464
20
-108.113
11
130.353
21
-108.419
0
LINE
8
Black
10
130.353
20
-108.419
11
130.143
21
-108.669
0
LINE
8
Black
10
130.143
20
-108.669
11
129.861
21
-108.832
0
LINE
8
Black
10
129.861
20
-108.832
11
129.54
21
-108.889
0
LINE
8
Black
10
129.54
20
-108.889
11
129.219
21
-108.832
0
LINE
8
Black
10
129.219
20
-108.832
11
128.937
21
-108.669
0
LINE
8
Black
10
128.937
20
-108.669
11
128.727
21
-108.419
0
LINE
8
Black
10
128.727
20
-108.419
11
128.616
21
-108.113
0
LINE
8
Black
10
128.616
20
-108.113
11
128.616
21
-107.787
0
LINE
8
Black
10
128.616
20
-107.787
11
128.727
21
-107.481
0
LINE
8
Black
10
128.727
20
-107.481
11
128.937
21
-107.231
0
LINE
8
Black
10
128.937
20
-107.231
11
129.219
21
-107.068
0
LINE
8
Black
10
129.219
20
-107.068
11
129.54
21
-107.011
0
LINE
8
Black
10
129.54
20
-107.011
11
129.861
21
-107.068
0
LINE
8
Black
10
132.401
20
-107.068
11
132.683
21
-107.231
0
LINE
8
Black
10
132.683
20
-107.231
11
132.893
21
-107.481
0
LINE
8
Black
10
132.893
20
-107.481
11
133.004
21
-107.787
0
LINE
8
Black
10
133.004
20
-107.787
11
133.004
21
-108.113
0
LINE
8
Black
10
133.004
20
-108.113
11
132.893
21
-108.419
0
LINE
8
Black
10
132.893
20
-108.419
11
132.683
21
-108.669
0
LINE
8
Black
10
132.683
20
-108.669
11
132.401
21
-108.832
0
LINE
8
Black
10
132.401
20
-108.832
11
132.08
21
-108.889
0
LINE
8
Black
10
132.08
20
-108.889
11
131.759
21
-108.832
0
LINE
8
Black
10
131.759
20
-108.832
11
131.477
21
-108.669
0
LINE
8
Black
10
131.477
20
-108.669
11
131.267
21
-108.419
0
LINE
8
Black
10
131.267
20
-108.419
11
131.156
21
-108.113
0
LINE
8
Black
10
131.156
20
-108.113
11
131.156
21
-107.787
0
LINE
8
Black
10
131.156
20
-107.787
11
131.267
21
-107.481
0
LINE
8
Black
10
131.267
20
-107.481
11
131.477
21
-107.231
0
LINE
8
Black
10
131.477
20
-107.231
11
131.759
21
-107.068
0
LINE
8
Black
10
131.759
20
-107.068
11
132.08
21
-107.011
0
LINE
8
Black
10
132.08
20
-107.011
11
132.401
21
-107.068
0
LINE
8
Black
10
127.321
20
-107.068
11
127.603
21
-107.231
0
LINE
8
Black
10
127.603
20
-107.231
11
127.813
21
-107.481
0
LINE
8
Black
10
127.813
20
-107.481
11
127.924
21
-107.787
0
LINE
8
Black
10
127.924
20
-107.787
11
127.924
21
-108.113
0
LINE
8
Black
10
127.924
20
-108.113
11
127.813
21
-108.419
0
LINE
8
Black
10
127.813
20
-108.419
11
127.603
21
-108.669
0
LINE
8
Black
10
127.603
20
-108.669
11
127.321
21
-108.832
0
LINE
8
Black
10
127.321
20
-108.832
11
127
21
-108.889
0
LINE
8
Black
10
127
20
-108.889
11
126.679
21
-108.832
0
LINE
8
Black
10
126.679
20
-108.832
11
126.397
21
-108.669
0
LINE
8
Black
10
126.397
20
-108.669
11
126.187
21
-108.419
0
LINE
8
Black
10
126.187
20
-108.419
11
126.076
21
-108.113
0
LINE
8
Black
10
126.076
20
-108.113
11
126.076
21
-107.787
0
LINE
8
Black
10
126.076
20
-107.787
11
126.187
21
-107.481
0
LINE
8
Black
10
126.187
20
-107.481
11
126.397
21
-107.231
0
LINE
8
Black
10
126.397
20
-107.231
11
126.679
21
-107.068
0
LINE
8
Black
10
126.679
20
-107.068
11
127
21
-107.011
0
LINE
8
Black
10
127
20
-107.011
11
127.321
21
-107.068
0
LINE
8
Black
10
124.781
20
-107.068
11
125.063
21
-107.231
0
LINE
8
Black
10
125.063
20
-107.231
11
125.273
21
-107.481
0
LINE
8
Black
10
125.273
20
-107.481
11
125.384
21
-107.787
0
LINE
8
Black
10
125.384
20
-107.787
11
125.384
21
-108.113
0
LINE
8
Black
10
125.384
20
-108.113
11
125.273
21
-108.419
0
LINE
8
Black
10
125.273
20
-108.419
11
125.063
21
-108.669
0
LINE
8
Black
10
125.063
20
-108.669
11
124.781
21
-108.832
0
LINE
8
Black
10
124.781
20
-108.832
11
124.46
21
-108.889
0
LINE
8
Black
10
124.46
20
-108.889
11
124.139
21
-108.832
0
LINE
8
Black
10
124.139
20
-108.832
11
123.857
21
-108.669
0
LINE
8
Black
10
123.857
20
-108.669
11
123.647
21
-108.419
0
LINE
8
Black
10
123.647
20
-108.419
11
123.536
21
-108.113
0
LINE
8
Black
10
123.536
20
-108.113
11
123.536
21
-107.787
0
LINE
8
Black
10
123.536
20
-107.787
11
123.647
21
-107.481
0
LINE
8
Black
10
123.647
20
-107.481
11
123.857
21
-107.231
0
LINE
8
Black
10
123.857
20
-107.231
11
124.139
21
-107.068
0
LINE
8
Black
10
124.139
20
-107.068
11
124.46
21
-107.011
0
LINE
8
Black
10
124.46
20
-107.011
11
124.781
21
-107.068
0
LINE
8
Black
10
122.241
20
-107.068
11
122.523
21
-107.231
0
LINE
8
Black
10
122.523
20
-107.231
11
122.733
21
-107.481
0
LINE
8
Black
10
122.733
20
-107.481
11
122.844
21
-107.787
0
LINE
8
Black
10
122.844
20
-107.787
11
122.844
21
-108.113
0
LINE
8
Black
10
122.844
20
-108.113
11
122.733
21
-108.419
0
LINE
8
Black
10
122.733
20
-108.419
11
122.523
21
-108.669
0
LINE
8
Black
10
122.523
20
-108.669
11
122.241
21
-108.832
0
LINE
8
Black
10
122.241
20
-108.832
11
121.92
21
-108.889
0
LINE
8
Black
10
121.92
20
-108.889
11
121.599
21
-108.832
0
LINE
8
Black
10
121.599
20
-108.832
11
121.317
21
-108.669
0
LINE
8
Black
10
121.317
20
-108.669
11
121.107
21
-108.419
0
LINE
8
Black
10
121.107
20
-108.419
11
120.996
21
-108.113
0
LINE
8
Black
10
120.996
20
-108.113
11
120.996
21
-107.787
0
LINE
8
Black
10
120.996
20
-107.787
11
121.107
21
-107.481
0
LINE
8
Black
10
121.107
20
-107.481
11
121.317
21
-107.231
0
LINE
8
Black
10
121.317
20
-107.231
11
121.599
21
-107.068
0
LINE
8
Black
10
121.599
20
-107.068
11
121.92
21
-107.011
0
LINE
8
Black
10
121.92
20
-107.011
11
122.241
21
-107.068
0
LINE
8
Black
10
119.701
20
-107.068
11
119.983
21
-107.231
0
LINE
8
Black
10
119.983
20
-107.231
11
120.193
21
-107.481
0
LINE
8
Black
10
120.193
20
-107.481
11
120.304
21
-107.787
0
LINE
8
Black
10
120.304
20
-107.787
11
120.304
21
-108.113
0
LINE
8
Black
10
120.304
20
-108.113
11
120.193
21
-108.419
0
LINE
8
Black
10
120.193
20
-108.419
11
119.983
21
-108.669
0
LINE
8
Black
10
119.983
20
-108.669
11
119.701
21
-108.832
0
LINE
8
Black
10
119.701
20
-108.832
11
119.38
21
-108.889
0
LINE
8
Black
10
119.38
20
-108.889
11
119.059
21
-108.832
0
LINE
8
Black
10
119.059
20
-108.832
11
118.777
21
-108.669
0
LINE
8
Black
10
118.777
20
-108.669
11
118.567
21
-108.419
0
LINE
8
Black
10
118.567
20
-108.419
11
118.456
21
-108.113
0
LINE
8
Black
10
118.456
20
-108.113
11
118.456
21
-107.787
0
LINE
8
Black
10
118.456
20
-107.787
11
118.567
21
-107.481
0
LINE
8
Black
10
118.567
20
-107.481
11
118.777
21
-107.231
0
LINE
8
Black
10
118.777
20
-107.231
11
119.059
21
-107.068
0
LINE
8
Black
10
119.059
20
-107.068
11
119.38
21
-107.011
0
LINE
8
Black
10
119.38
20
-107.011
11
119.701
21
-107.068
0
LINE
8
Black
10
117.161
20
-107.068
11
117.443
21
-107.231
0
LINE
8
Black
10
117.443
20
-107.231
11
117.653
21
-107.481
0
LINE
8
Black
10
117.653
20
-107.481
11
117.764
21
-107.787
0
LINE
8
Black
10
117.764
20
-107.787
11
117.764
21
-108.113
0
LINE
8
Black
10
117.764
20
-108.113
11
117.653
21
-108.419
0
LINE
8
Black
10
117.653
20
-108.419
11
117.443
21
-108.669
0
LINE
8
Black
10
117.443
20
-108.669
11
117.161
21
-108.832
0
LINE
8
Black
10
117.161
20
-108.832
11
116.84
21
-108.889
0
LINE
8
Black
10
116.84
20
-108.889
11
116.519
21
-108.832
0
LINE
8
Black
10
116.519
20
-108.832
11
116.237
21
-108.669
0
LINE
8
Black
10
116.237
20
-108.669
11
116.027
21
-108.419
0
LINE
8
Black
10
116.027
20
-108.419
11
115.916
21
-108.113
0
LINE
8
Black
10
115.916
20
-108.113
11
115.916
21
-107.787
0
LINE
8
Black
10
115.916
20
-107.787
11
116.027
21
-107.481
0
LINE
8
Black
10
116.027
20
-107.481
11
116.237
21
-107.231
0
LINE
8
Black
10
116.237
20
-107.231
11
116.519
21
-107.068
0
LINE
8
Black
10
116.519
20
-107.068
11
116.84
21
-107.011
0
LINE
8
Black
10
116.84
20
-107.011
11
117.161
21
-107.068
0
LINE
8
Black
10
114.621
20
-107.068
11
114.903
21
-107.231
0
LINE
8
Black
10
114.903
20
-107.231
11
115.113
21
-107.481
0
LINE
8
Black
10
115.113
20
-107.481
11
115.224
21
-107.787
0
LINE
8
Black
10
115.224
20
-107.787
11
115.224
21
-108.113
0
LINE
8
Black
10
115.224
20
-108.113
11
115.113
21
-108.419
0
LINE
8
Black
10
115.113
20
-108.419
11
114.903
21
-108.669
0
LINE
8
Black
10
114.903
20
-108.669
11
114.621
21
-108.832
0
LINE
8
Black
10
114.621
20
-108.832
11
114.3
21
-108.889
0
LINE
8
Black
10
114.3
20
-108.889
11
113.979
21
-108.832
0
LINE
8
Black
10
113.979
20
-108.832
11
113.697
21
-108.669
0
LINE
8
Black
10
113.697
20
-108.669
11
113.487
21
-108.419
0
LINE
8
Black
10
113.487
20
-108.419
11
113.376
21
-108.113
0
LINE
8
Black
10
113.376
20
-108.113
11
113.376
21
-107.787
0
LINE
8
Black
10
113.376
20
-107.787
11
113.487
21
-107.481
0
LINE
8
Black
10
113.487
20
-107.481
11
113.697
21
-107.231
0
LINE
8
Black
10
113.697
20
-107.231
11
113.979
21
-107.068
0
LINE
8
Black
10
113.979
20
-107.068
11
114.3
21
-107.011
0
LINE
8
Black
10
114.3
20
-107.011
11
114.621
21
-107.068
0
LINE
8
Black
10
112.081
20
-107.068
11
112.363
21
-107.231
0
LINE
8
Black
10
112.363
20
-107.231
11
112.573
21
-107.481
0
LINE
8
Black
10
112.573
20
-107.481
11
112.684
21
-107.787
0
LINE
8
Black
10
112.684
20
-107.787
11
112.684
21
-108.113
0
LINE
8
Black
10
112.684
20
-108.113
11
112.573
21
-108.419
0
LINE
8
Black
10
112.573
20
-108.419
11
112.363
21
-108.669
0
LINE
8
Black
10
112.363
20
-108.669
11
112.081
21
-108.832
0
LINE
8
Black
10
112.081
20
-108.832
11
111.76
21
-108.889
0
LINE
8
Black
10
111.76
20
-108.889
11
111.439
21
-108.832
0
LINE
8
Black
10
111.439
20
-108.832
11
111.157
21
-108.669
0
LINE
8
Black
10
111.157
20
-108.669
11
110.947
21
-108.419
0
LINE
8
Black
10
110.947
20
-108.419
11
110.836
21
-108.113
0
LINE
8
Black
10
110.836
20
-108.113
11
110.836
21
-107.787
0
LINE
8
Black
10
110.836
20
-107.787
11
110.947
21
-107.481
0
LINE
8
Black
10
110.947
20
-107.481
11
111.157
21
-107.231
0
LINE
8
Black
10
111.157
20
-107.231
11
111.439
21
-107.068
0
LINE
8
Black
10
111.439
20
-107.068
11
111.76
21
-107.011
0
LINE
8
Black
10
111.76
20
-107.011
11
112.081
21
-107.068
0
LINE
8
Black
10
109.541
20
-107.068
11
109.823
21
-107.231
0
LINE
8
Black
10
109.823
20
-107.231
11
110.033
21
-107.481
0
LINE
8
Black
10
110.033
20
-107.481
11
110.144
21
-107.787
0
LINE
8
Black
10
110.144
20
-107.787
11
110.144
21
-108.113
0
LINE
8
Black
10
110.144
20
-108.113
11
110.033
21
-108.419
0
LINE
8
Black
10
110.033
20
-108.419
11
109.823
21
-108.669
0
LINE
8
Black
10
109.823
20
-108.669
11
109.541
21
-108.832
0
LINE
8
Black
10
109.541
20
-108.832
11
109.22
21
-108.889
0
LINE
8
Black
10
109.22
20
-108.889
11
108.899
21
-108.832
0
LINE
8
Black
10
108.899
20
-108.832
11
108.617
21
-108.669
0
LINE
8
Black
10
108.617
20
-108.669
11
108.407
21
-108.419
0
LINE
8
Black
10
108.407
20
-108.419
11
108.296
21
-108.113
0
LINE
8
Black
10
108.296
20
-108.113
11
108.296
21
-107.787
0
LINE
8
Black
10
108.296
20
-107.787
11
108.407
21
-107.481
0
LINE
8
Black
10
108.407
20
-107.481
11
108.617
21
-107.231
0
LINE
8
Black
10
108.617
20
-107.231
11
108.899
21
-107.068
0
LINE
8
Black
10
108.899
20
-107.068
11
109.22
21
-107.011
0
LINE
8
Black
10
109.22
20
-107.011
11
109.541
21
-107.068
0
LINE
8
Black
10
107.001
20
-107.068
11
107.283
21
-107.231
0
LINE
8
Black
10
107.283
20
-107.231
11
107.493
21
-107.481
0
LINE
8
Black
10
107.493
20
-107.481
11
107.604
21
-107.787
0
LINE
8
Black
10
107.604
20
-107.787
11
107.604
21
-108.113
0
LINE
8
Black
10
107.604
20
-108.113
11
107.493
21
-108.419
0
LINE
8
Black
10
107.493
20
-108.419
11
107.283
21
-108.669
0
LINE
8
Black
10
107.283
20
-108.669
11
107.001
21
-108.832
0
LINE
8
Black
10
107.001
20
-108.832
11
106.68
21
-108.889
0
LINE
8
Black
10
106.68
20
-108.889
11
106.359
21
-108.832
0
LINE
8
Black
10
106.359
20
-108.832
11
106.077
21
-108.669
0
LINE
8
Black
10
106.077
20
-108.669
11
105.867
21
-108.419
0
LINE
8
Black
10
105.867
20
-108.419
11
105.756
21
-108.113
0
LINE
8
Black
10
105.756
20
-108.113
11
105.756
21
-107.787
0
LINE
8
Black
10
105.756
20
-107.787
11
105.867
21
-107.481
0
LINE
8
Black
10
105.867
20
-107.481
11
106.077
21
-107.231
0
LINE
8
Black
10
106.077
20
-107.231
11
106.359
21
-107.068
0
LINE
8
Black
10
106.359
20
-107.068
11
106.68
21
-107.011
0
LINE
8
Black
10
106.68
20
-107.011
11
107.001
21
-107.068
0
LINE
8
Black
10
99.381
20
-107.068
11
99.6633
21
-107.231
0
LINE
8
Black
10
99.6633
20
-107.231
11
99.8728
21
-107.481
0
LINE
8
Black
10
99.8728
20
-107.481
11
99.9843
21
-107.787
0
LINE
8
Black
10
99.9843
20
-107.787
11
99.9843
21
-108.113
0
LINE
8
Black
10
99.9843
20
-108.113
11
99.8728
21
-108.419
0
LINE
8
Black
10
99.8728
20
-108.419
11
99.6633
21
-108.669
0
LINE
8
Black
10
99.6633
20
-108.669
11
99.381
21
-108.832
0
LINE
8
Black
10
99.381
20
-108.832
11
99.06
21
-108.889
0
LINE
8
Black
10
99.06
20
-108.889
11
98.739
21
-108.832
0
LINE
8
Black
10
98.739
20
-108.832
11
98.4567
21
-108.669
0
LINE
8
Black
10
98.4567
20
-108.669
11
98.2472
21
-108.419
0
LINE
8
Black
10
98.2472
20
-108.419
11
98.1357
21
-108.113
0
LINE
8
Black
10
98.1357
20
-108.113
11
98.1357
21
-107.787
0
LINE
8
Black
10
98.1357
20
-107.787
11
98.2472
21
-107.481
0
LINE
8
Black
10
98.2472
20
-107.481
11
98.4567
21
-107.231
0
LINE
8
Black
10
98.4567
20
-107.231
11
98.739
21
-107.068
0
LINE
8
Black
10
98.739
20
-107.068
11
99.06
21
-107.011
0
LINE
8
Black
10
99.06
20
-107.011
11
99.381
21
-107.068
0
LINE
8
Black
10
101.921
20
-107.068
11
102.203
21
-107.231
0
LINE
8
Black
10
102.203
20
-107.231
11
102.413
21
-107.481
0
LINE
8
Black
10
102.413
20
-107.481
11
102.524
21
-107.787
0
LINE
8
Black
10
102.524
20
-107.787
11
102.524
21
-108.113
0
LINE
8
Black
10
102.524
20
-108.113
11
102.413
21
-108.419
0
LINE
8
Black
10
102.413
20
-108.419
11
102.203
21
-108.669
0
LINE
8
Black
10
102.203
20
-108.669
11
101.921
21
-108.832
0
LINE
8
Black
10
101.921
20
-108.832
11
101.6
21
-108.889
0
LINE
8
Black
10
101.6
20
-108.889
11
101.279
21
-108.832
0
LINE
8
Black
10
101.279
20
-108.832
11
100.997
21
-108.669
0
LINE
8
Black
10
100.997
20
-108.669
11
100.787
21
-108.419
0
LINE
8
Black
10
100.787
20
-108.419
11
100.676
21
-108.113
0
LINE
8
Black
10
100.676
20
-108.113
11
100.676
21
-107.787
0
LINE
8
Black
10
100.676
20
-107.787
11
100.787
21
-107.481
0
LINE
8
Black
10
100.787
20
-107.481
11
100.997
21
-107.231
0
LINE
8
Black
10
100.997
20
-107.231
11
101.279
21
-107.068
0
LINE
8
Black
10
101.279
20
-107.068
11
101.6
21
-107.011
0
LINE
8
Black
10
101.6
20
-107.011
11
101.921
21
-107.068
0
LINE
8
Black
10
138.01
20
-108.185
11
136.31
21
-108.185
0
LINE
8
Black
10
136.31
20
-108.185
11
136.31
21
-106.285
0
LINE
8
Black
10
136.31
20
-106.285
11
138.01
21
-106.285
0
LINE
8
Black
10
138.01
20
-106.285
11
138.01
21
-108.185
0
LINE
8
Black
10
147.275
20
-106.755
11
144.875
21
-106.755
0
LINE
8
Black
10
144.875
20
-106.755
11
144.875
21
-104.855
0
LINE
8
Black
10
144.875
20
-104.855
11
147.275
21
-104.855
0
LINE
8
Black
10
147.275
20
-104.855
11
147.275
21
-106.755
0
LINE
8
Black
10
156.567
20
-104.278
11
156.929
21
-104.487
0
LINE
8
Black
10
156.929
20
-104.487
11
157.198
21
-104.808
0
LINE
8
Black
10
157.198
20
-104.808
11
157.341
21
-105.201
0
LINE
8
Black
10
157.341
20
-105.201
11
157.341
21
-105.619
0
LINE
8
Black
10
157.341
20
-105.619
11
157.198
21
-106.012
0
LINE
8
Black
10
157.198
20
-106.012
11
156.929
21
-106.333
0
LINE
8
Black
10
156.929
20
-106.333
11
156.567
21
-106.542
0
LINE
8
Black
10
156.567
20
-106.542
11
156.155
21
-106.615
0
LINE
8
Black
10
156.155
20
-106.615
11
155.743
21
-106.542
0
LINE
8
Black
10
155.743
20
-106.542
11
155.381
21
-106.333
0
LINE
8
Black
10
155.381
20
-106.333
11
155.112
21
-106.012
0
LINE
8
Black
10
155.112
20
-106.012
11
154.969
21
-105.619
0
LINE
8
Black
10
154.969
20
-105.619
11
154.969
21
-105.201
0
LINE
8
Black
10
154.969
20
-105.201
11
155.112
21
-104.808
0
LINE
8
Black
10
155.112
20
-104.808
11
155.381
21
-104.487
0
LINE
8
Black
10
155.381
20
-104.487
11
155.743
21
-104.278
0
LINE
8
Black
10
155.743
20
-104.278
11
156.155
21
-104.205
0
LINE
8
Black
10
156.155
20
-104.205
11
156.567
21
-104.278
0
LINE
8
Black
10
161.067
20
-104.278
11
161.429
21
-104.487
0
LINE
8
Black
10
161.429
20
-104.487
11
161.698
21
-104.808
0
LINE
8
Black
10
161.698
20
-104.808
11
161.841
21
-105.201
0
LINE
8
Black
10
161.841
20
-105.201
11
161.841
21
-105.619
0
LINE
8
Black
10
161.841
20
-105.619
11
161.698
21
-106.012
0
LINE
8
Black
10
161.698
20
-106.012
11
161.429
21
-106.333
0
LINE
8
Black
10
161.429
20
-106.333
11
161.067
21
-106.542
0
LINE
8
Black
10
161.067
20
-106.542
11
160.655
21
-106.615
0
LINE
8
Black
10
160.655
20
-106.615
11
160.243
21
-106.542
0
LINE
8
Black
10
160.243
20
-106.542
11
159.881
21
-106.333
0
LINE
8
Black
10
159.881
20
-106.333
11
159.612
21
-106.012
0
LINE
8
Black
10
159.612
20
-106.012
11
159.469
21
-105.619
0
LINE
8
Black
10
159.469
20
-105.619
11
159.469
21
-105.201
0
LINE
8
Black
10
159.469
20
-105.201
11
159.612
21
-104.808
0
LINE
8
Black
10
159.612
20
-104.808
11
159.881
21
-104.487
0
LINE
8
Black
10
159.881
20
-104.487
11
160.243
21
-104.278
0
LINE
8
Black
10
160.243
20
-104.278
11
160.655
21
-104.205
0
LINE
8
Black
10
160.655
20
-104.205
11
161.067
21
-104.278
0
LINE
8
Black
10
153.575
20
-105.605
11
151.175
21
-105.605
0
LINE
8
Black
10
151.175
20
-105.605
11
151.175
21
-101.405
0
LINE
8
Black
10
151.175
20
-101.405
11
153.575
21
-101.405
0
LINE
8
Black
10
153.575
20
-101.405
11
153.575
21
-105.605
0
LINE
8
Black
10
147.275
20
-104.455
11
144.875
21
-104.455
0
LINE
8
Black
10
144.875
20
-104.455
11
144.875
21
-102.555
0
LINE
8
Black
10
144.875
20
-102.555
11
147.275
21
-102.555
0
LINE
8
Black
10
147.275
20
-102.555
11
147.275
21
-104.455
0
LINE
8
Black
10
129.861
20
-100.568
11
130.143
21
-100.731
0
LINE
8
Black
10
130.143
20
-100.731
11
130.353
21
-100.981
0
LINE
8
Black
10
130.353
20
-100.981
11
130.464
21
-101.287
0
LINE
8
Black
10
130.464
20
-101.287
11
130.464
21
-101.613
0
LINE
8
Black
10
130.464
20
-101.613
11
130.353
21
-101.919
0
LINE
8
Black
10
130.353
20
-101.919
11
130.143
21
-102.169
0
LINE
8
Black
10
130.143
20
-102.169
11
129.861
21
-102.332
0
LINE
8
Black
10
129.861
20
-102.332
11
129.54
21
-102.389
0
LINE
8
Black
10
129.54
20
-102.389
11
129.219
21
-102.332
0
LINE
8
Black
10
129.219
20
-102.332
11
128.937
21
-102.169
0
LINE
8
Black
10
128.937
20
-102.169
11
128.727
21
-101.919
0
LINE
8
Black
10
128.727
20
-101.919
11
128.616
21
-101.613
0
LINE
8
Black
10
128.616
20
-101.613
11
128.616
21
-101.287
0
LINE
8
Black
10
128.616
20
-101.287
11
128.727
21
-100.981
0
LINE
8
Black
10
128.727
20
-100.981
11
128.937
21
-100.731
0
LINE
8
Black
10
128.937
20
-100.731
11
129.219
21
-100.568
0
LINE
8
Black
10
129.219
20
-100.568
11
129.54
21
-100.511
0
LINE
8
Black
10
129.54
20
-100.511
11
129.861
21
-100.568
0
LINE
8
Black
10
99.381
20
-100.568
11
99.6633
21
-100.731
0
LINE
8
Black
10
99.6633
20
-100.731
11
99.8728
21
-100.981
0
LINE
8
Black
10
99.8728
20
-100.981
11
99.9843
21
-101.287
0
LINE
8
Black
10
99.9843
20
-101.287
11
99.9843
21
-101.613
0
LINE
8
Black
10
99.9843
20
-101.613
11
99.8728
21
-101.919
0
LINE
8
Black
10
99.8728
20
-101.919
11
99.6633
21
-102.169
0
LINE
8
Black
10
99.6633
20
-102.169
11
99.381
21
-102.332
0
LINE
8
Black
10
99.381
20
-102.332
11
99.06
21
-102.389
0
LINE
8
Black
10
99.06
20
-102.389
11
98.739
21
-102.332
0
LINE
8
Black
10
98.739
20
-102.332
11
98.4567
21
-102.169
0
LINE
8
Black
10
98.4567
20
-102.169
11
98.2472
21
-101.919
0
LINE
8
Black
10
98.2472
20
-101.919
11
98.1357
21
-101.613
0
LINE
8
Black
10
98.1357
20
-101.613
11
98.1357
21
-101.287
0
LINE
8
Black
10
98.1357
20
-101.287
11
98.2472
21
-100.981
0
LINE
8
Black
10
98.2472
20
-100.981
11
98.4567
21
-100.731
0
LINE
8
Black
10
98.4567
20
-100.731
11
98.739
21
-100.568
0
LINE
8
Black
10
98.739
20
-100.568
11
99.06
21
-100.511
0
LINE
8
Black
10
99.06
20
-100.511
11
99.381
21
-100.568
0
LINE
8
Black
10
101.921
20
-100.568
11
102.203
21
-100.731
0
LINE
8
Black
10
102.203
20
-100.731
11
102.413
21
-100.981
0
LINE
8
Black
10
102.413
20
-100.981
11
102.524
21
-101.287
0
LINE
8
Black
10
102.524
20
-101.287
11
102.524
21
-101.613
0
LINE
8
Black
10
102.524
20
-101.613
11
102.413
21
-101.919
0
LINE
8
Black
10
102.413
20
-101.919
11
102.203
21
-102.169
0
LINE
8
Black
10
102.203
20
-102.169
11
101.921
21
-102.332
0
LINE
8
Black
10
101.921
20
-102.332
11
101.6
21
-102.389
0
LINE
8
Black
10
101.6
20
-102.389
11
101.279
21
-102.332
0
LINE
8
Black
10
101.279
20
-102.332
11
100.997
21
-102.169
0
LINE
8
Black
10
100.997
20
-102.169
11
100.787
21
-101.919
0
LINE
8
Black
10
100.787
20
-101.919
11
100.676
21
-101.613
0
LINE
8
Black
10
100.676
20
-101.613
11
100.676
21
-101.287
0
LINE
8
Black
10
100.676
20
-101.287
11
100.787
21
-100.981
0
LINE
8
Black
10
100.787
20
-100.981
11
100.997
21
-100.731
0
LINE
8
Black
10
100.997
20
-100.731
11
101.279
21
-100.568
0
LINE
8
Black
10
101.279
20
-100.568
11
101.6
21
-100.511
0
LINE
8
Black
10
101.6
20
-100.511
11
101.921
21
-100.568
0
LINE
8
Black
10
104.461
20
-100.568
11
104.743
21
-100.731
0
LINE
8
Black
10
104.743
20
-100.731
11
104.953
21
-100.981
0
LINE
8
Black
10
104.953
20
-100.981
11
105.064
21
-101.287
0
LINE
8
Black
10
105.064
20
-101.287
11
105.064
21
-101.613
0
LINE
8
Black
10
105.064
20
-101.613
11
104.953
21
-101.919
0
LINE
8
Black
10
104.953
20
-101.919
11
104.743
21
-102.169
0
LINE
8
Black
10
104.743
20
-102.169
11
104.461
21
-102.332
0
LINE
8
Black
10
104.461
20
-102.332
11
104.14
21
-102.389
0
LINE
8
Black
10
104.14
20
-102.389
11
103.819
21
-102.332
0
LINE
8
Black
10
103.819
20
-102.332
11
103.537
21
-102.169
0
LINE
8
Black
10
103.537
20
-102.169
11
103.327
21
-101.919
0
LINE
8
Black
10
103.327
20
-101.919
11
103.216
21
-101.613
0
LINE
8
Black
10
103.216
20
-101.613
11
103.216
21
-101.287
0
LINE
8
Black
10
103.216
20
-101.287
11
103.327
21
-100.981
0
LINE
8
Black
10
103.327
20
-100.981
11
103.537
21
-100.731
0
LINE
8
Black
10
103.537
20
-100.731
11
103.819
21
-100.568
0
LINE
8
Black
10
103.819
20
-100.568
11
104.14
21
-100.511
0
LINE
8
Black
10
104.14
20
-100.511
11
104.461
21
-100.568
0
LINE
8
Black
10
107.001
20
-100.568
11
107.283
21
-100.731
0
LINE
8
Black
10
107.283
20
-100.731
11
107.493
21
-100.981
0
LINE
8
Black
10
107.493
20
-100.981
11
107.604
21
-101.287
0
LINE
8
Black
10
107.604
20
-101.287
11
107.604
21
-101.613
0
LINE
8
Black
10
107.604
20
-101.613
11
107.493
21
-101.919
0
LINE
8
Black
10
107.493
20
-101.919
11
107.283
21
-102.169
0
LINE
8
Black
10
107.283
20
-102.169
11
107.001
21
-102.332
0
LINE
8
Black
10
107.001
20
-102.332
11
106.68
21
-102.389
0
LINE
8
Black
10
106.68
20
-102.389
11
106.359
21
-102.332
0
LINE
8
Black
10
106.359
20
-102.332
11
106.077
21
-102.169
0
LINE
8
Black
10
106.077
20
-102.169
11
105.867
21
-101.919
0
LINE
8
Black
10
105.867
20
-101.919
11
105.756
21
-101.613
0
LINE
8
Black
10
105.756
20
-101.613
11
105.756
21
-101.287
0
LINE
8
Black
10
105.756
20
-101.287
11
105.867
21
-100.981
0
LINE
8
Black
10
105.867
20
-100.981
11
106.077
21
-100.731
0
LINE
8
Black
10
106.077
20
-100.731
11
106.359
21
-100.568
0
LINE
8
Black
10
106.359
20
-100.568
11
106.68
21
-100.511
0
LINE
8
Black
10
106.68
20
-100.511
11
107.001
21
-100.568
0
LINE
8
Black
10
109.541
20
-100.568
11
109.823
21
-100.731
0
LINE
8
Black
10
109.823
20
-100.731
11
110.033
21
-100.981
0
LINE
8
Black
10
110.033
20
-100.981
11
110.144
21
-101.287
0
LINE
8
Black
10
110.144
20
-101.287
11
110.144
21
-101.613
0
LINE
8
Black
10
110.144
20
-101.613
11
110.033
21
-101.919
0
LINE
8
Black
10
110.033
20
-101.919
11
109.823
21
-102.169
0
LINE
8
Black
10
109.823
20
-102.169
11
109.541
21
-102.332
0
LINE
8
Black
10
109.541
20
-102.332
11
109.22
21
-102.389
0
LINE
8
Black
10
109.22
20
-102.389
11
108.899
21
-102.332
0
LINE
8
Black
10
108.899
20
-102.332
11
108.617
21
-102.169
0
LINE
8
Black
10
108.617
20
-102.169
11
108.407
21
-101.919
0
LINE
8
Black
10
108.407
20
-101.919
11
108.296
21
-101.613
0
LINE
8
Black
10
108.296
20
-101.613
11
108.296
21
-101.287
0
LINE
8
Black
10
108.296
20
-101.287
11
108.407
21
-100.981
0
LINE
8
Black
10
108.407
20
-100.981
11
108.617
21
-100.731
0
LINE
8
Black
10
108.617
20
-100.731
11
108.899
21
-100.568
0
LINE
8
Black
10
108.899
20
-100.568
11
109.22
21
-100.511
0
LINE
8
Black
10
109.22
20
-100.511
11
109.541
21
-100.568
0
LINE
8
Black
10
112.081
20
-100.568
11
112.363
21
-100.731
0
LINE
8
Black
10
112.363
20
-100.731
11
112.573
21
-100.981
0
LINE
8
Black
10
112.573
20
-100.981
11
112.684
21
-101.287
0
LINE
8
Black
10
112.684
20
-101.287
11
112.684
21
-101.613
0
LINE
8
Black
10
112.684
20
-101.613
11
112.573
21
-101.919
0
LINE
8
Black
10
112.573
20
-101.919
11
112.363
21
-102.169
0
LINE
8
Black
10
112.363
20
-102.169
11
112.081
21
-102.332
0
LINE
8
Black
10
112.081
20
-102.332
11
111.76
21
-102.389
0
LINE
8
Black
10
111.76
20
-102.389
11
111.439
21
-102.332
0
LINE
8
Black
10
111.439
20
-102.332
11
111.157
21
-102.169
0
LINE
8
Black
10
111.157
20
-102.169
11
110.947
21
-101.919
0
LINE
8
Black
10
110.947
20
-101.919
11
110.836
21
-101.613
0
LINE
8
Black
10
110.836
20
-101.613
11
110.836
21
-101.287
0
LINE
8
Black
10
110.836
20
-101.287
11
110.947
21
-100.981
0
LINE
8
Black
10
110.947
20
-100.981
11
111.157
21
-100.731
0
LINE
8
Black
10
111.157
20
-100.731
11
111.439
21
-100.568
0
LINE
8
Black
10
111.439
20
-100.568
11
111.76
21
-100.511
0
LINE
8
Black
10
111.76
20
-100.511
11
112.081
21
-100.568
0
LINE
8
Black
10
114.621
20
-100.568
11
114.903
21
-100.731
0
LINE
8
Black
10
114.903
20
-100.731
11
115.113
21
-100.981
0
LINE
8
Black
10
115.113
20
-100.981
11
115.224
21
-101.287
0
LINE
8
Black
10
115.224
20
-101.287
11
115.224
21
-101.613
0
LINE
8
Black
10
115.224
20
-101.613
11
115.113
21
-101.919
0
LINE
8
Black
10
115.113
20
-101.919
11
114.903
21
-102.169
0
LINE
8
Black
10
114.903
20
-102.169
11
114.621
21
-102.332
0
LINE
8
Black
10
114.621
20
-102.332
11
114.3
21
-102.389
0
LINE
8
Black
10
114.3
20
-102.389
11
113.979
21
-102.332
0
LINE
8
Black
10
113.979
20
-102.332
11
113.697
21
-102.169
0
LINE
8
Black
10
113.697
20
-102.169
11
113.487
21
-101.919
0
LINE
8
Black
10
113.487
20
-101.919
11
113.376
21
-101.613
0
LINE
8
Black
10
113.376
20
-101.613
11
113.376
21
-101.287
0
LINE
8
Black
10
113.376
20
-101.287
11
113.487
21
-100.981
0
LINE
8
Black
10
113.487
20
-100.981
11
113.697
21
-100.731
0
LINE
8
Black
10
113.697
20
-100.731
11
113.979
21
-100.568
0
LINE
8
Black
10
113.979
20
-100.568
11
114.3
21
-100.511
0
LINE
8
Black
10
114.3
20
-100.511
11
114.621
21
-100.568
0
LINE
8
Black
10
117.161
20
-100.568
11
117.443
21
-100.731
0
LINE
8
Black
10
117.443
20
-100.731
11
117.653
21
-100.981
0
LINE
8
Black
10
117.653
20
-100.981
11
117.764
21
-101.287
0
LINE
8
Black
10
117.764
20
-101.287
11
117.764
21
-101.613
0
LINE
8
Black
10
117.764
20
-101.613
11
117.653
21
-101.919
0
LINE
8
Black
10
117.653
20
-101.919
11
117.443
21
-102.169
0
LINE
8
Black
10
117.443
20
-102.169
11
117.161
21
-102.332
0
LINE
8
Black
10
117.161
20
-102.332
11
116.84
21
-102.389
0
LINE
8
Black
10
116.84
20
-102.389
11
116.519
21
-102.332
0
LINE
8
Black
10
116.519
20
-102.332
11
116.237
21
-102.169
0
LINE
8
Black
10
116.237
20
-102.169
11
116.027
21
-101.919
0
LINE
8
Black
10
116.027
20
-101.919
11
115.916
21
-101.613
0
LINE
8
Black
10
115.916
20
-101.613
11
115.916
21
-101.287
0
LINE
8
Black
10
115.916
20
-101.287
11
116.027
21
-100.981
0
LINE
8
Black
10
116.027
20
-100.981
11
116.237
21
-100.731
0
LINE
8
Black
10
116.237
20
-100.731
11
116.519
21
-100.568
0
LINE
8
Black
10
116.519
20
-100.568
11
116.84
21
-100.511
0
LINE
8
Black
10
116.84
20
-100.511
11
117.161
21
-100.568
0
LINE
8
Black
10
119.701
20
-100.568
11
119.983
21
-100.731
0
LINE
8
Black
10
119.983
20
-100.731
11
120.193
21
-100.981
0
LINE
8
Black
10
120.193
20
-100.981
11
120.304
21
-101.287
0
LINE
8
Black
10
120.304
20
-101.287
11
120.304
21
-101.613
0
LINE
8
Black
10
120.304
20
-101.613
11
120.193
21
-101.919
0
LINE
8
Black
10
120.193
20
-101.919
11
119.983
21
-102.169
0
LINE
8
Black
10
119.983
20
-102.169
11
119.701
21
-102.332
0
LINE
8
Black
10
119.701
20
-102.332
11
119.38
21
-102.389
0
LINE
8
Black
10
119.38
20
-102.389
11
119.059
21
-102.332
0
LINE
8
Black
10
119.059
20
-102.332
11
118.777
21
-102.169
0
LINE
8
Black
10
118.777
20
-102.169
11
118.567
21
-101.919
0
LINE
8
Black
10
118.567
20
-101.919
11
118.456
21
-101.613
0
LINE
8
Black
10
118.456
20
-101.613
11
118.456
21
-101.287
0
LINE
8
Black
10
118.456
20
-101.287
11
118.567
21
-100.981
0
LINE
8
Black
10
118.567
20
-100.981
11
118.777
21
-100.731
0
LINE
8
Black
10
118.777
20
-100.731
11
119.059
21
-100.568
0
LINE
8
Black
10
119.059
20
-100.568
11
119.38
21
-100.511
0
LINE
8
Black
10
119.38
20
-100.511
11
119.701
21
-100.568
0
LINE
8
Black
10
122.241
20
-100.568
11
122.523
21
-100.731
0
LINE
8
Black
10
122.523
20
-100.731
11
122.733
21
-100.981
0
LINE
8
Black
10
122.733
20
-100.981
11
122.844
21
-101.287
0
LINE
8
Black
10
122.844
20
-101.287
11
122.844
21
-101.613
0
LINE
8
Black
10
122.844
20
-101.613
11
122.733
21
-101.919
0
LINE
8
Black
10
122.733
20
-101.919
11
122.523
21
-102.169
0
LINE
8
Black
10
122.523
20
-102.169
11
122.241
21
-102.332
0
LINE
8
Black
10
122.241
20
-102.332
11
121.92
21
-102.389
0
LINE
8
Black
10
121.92
20
-102.389
11
121.599
21
-102.332
0
LINE
8
Black
10
121.599
20
-102.332
11
121.317
21
-102.169
0
LINE
8
Black
10
121.317
20
-102.169
11
121.107
21
-101.919
0
LINE
8
Black
10
121.107
20
-101.919
11
120.996
21
-101.613
0
LINE
8
Black
10
120.996
20
-101.613
11
120.996
21
-101.287
0
LINE
8
Black
10
120.996
20
-101.287
11
121.107
21
-100.981
0
LINE
8
Black
10
121.107
20
-100.981
11
121.317
21
-100.731
0
LINE
8
Black
10
121.317
20
-100.731
11
121.599
21
-100.568
0
LINE
8
Black
10
121.599
20
-100.568
11
121.92
21
-100.511
0
LINE
8
Black
10
121.92
20
-100.511
11
122.241
21
-100.568
0
LINE
8
Black
10
124.781
20
-100.568
11
125.063
21
-100.731
0
LINE
8
Black
10
125.063
20
-100.731
11
125.273
21
-100.981
0
LINE
8
Black
10
125.273
20
-100.981
11
125.384
21
-101.287
0
LINE
8
Black
10
125.384
20
-101.287
11
125.384
21
-101.613
0
LINE
8
Black
10
125.384
20
-101.613
11
125.273
21
-101.919
0
LINE
8
Black
10
125.273
20
-101.919
11
125.063
21
-102.169
0
LINE
8
Black
10
125.063
20
-102.169
11
124.781
21
-102.332
0
LINE
8
Black
10
124.781
20
-102.332
11
124.46
21
-102.389
0
LINE
8
Black
10
124.46
20
-102.389
11
124.139
21
-102.332
0
LINE
8
Black
10
124.139
20
-102.332
11
123.857
21
-102.169
0
LINE
8
Black
10
123.857
20
-102.169
11
123.647
21
-101.919
0
LINE
8
Black
10
123.647
20
-101.919
11
123.536
21
-101.613
0
LINE
8
Black
10
123.536
20
-101.613
11
123.536
21
-101.287
0
LINE
8
Black
10
123.536
20
-101.287
11
123.647
21
-100.981
0
LINE
8
Black
10
123.647
20
-100.981
11
123.857
21
-100.731
0
LINE
8
Black
10
123.857
20
-100.731
11
124.139
21
-100.568
0
LINE
8
Black
10
124.139
20
-100.568
11
124.46
21
-100.511
0
LINE
8
Black
10
124.46
20
-100.511
11
124.781
21
-100.568
0
LINE
8
Black
10
127.321
20
-100.568
11
127.603
21
-100.731
0
LINE
8
Black
10
127.603
20
-100.731
11
127.813
21
-100.981
0
LINE
8
Black
10
127.813
20
-100.981
11
127.924
21
-101.287
0
LINE
8
Black
10
127.924
20
-101.287
11
127.924
21
-101.613
0
LINE
8
Black
10
127.924
20
-101.613
11
127.813
21
-101.919
0
LINE
8
Black
10
127.813
20
-101.919
11
127.603
21
-102.169
0
LINE
8
Black
10
127.603
20
-102.169
11
127.321
21
-102.332
0
LINE
8
Black
10
127.321
20
-102.332
11
127
21
-102.389
0
LINE
8
Black
10
127
20
-102.389
11
126.679
21
-102.332
0
LINE
8
Black
10
126.679
20
-102.332
11
126.397
21
-102.169
0
LINE
8
Black
10
126.397
20
-102.169
11
126.187
21
-101.919
0
LINE
8
Black
10
126.187
20
-101.919
11
126.076
21
-101.613
0
LINE
8
Black
10
126.076
20
-101.613
11
126.076
21
-101.287
0
LINE
8
Black
10
126.076
20
-101.287
11
126.187
21
-100.981
0
LINE
8
Black
10
126.187
20
-100.981
11
126.397
21
-100.731
0
LINE
8
Black
10
126.397
20
-100.731
11
126.679
21
-100.568
0
LINE
8
Black
10
126.679
20
-100.568
11
127
21
-100.511
0
LINE
8
Black
10
127
20
-100.511
11
127.321
21
-100.568
0
LINE
8
Black
10
132.401
20
-100.568
11
132.683
21
-100.731
0
LINE
8
Black
10
132.683
20
-100.731
11
132.893
21
-100.981
0
LINE
8
Black
10
132.893
20
-100.981
11
133.004
21
-101.287
0
LINE
8
Black
10
133.004
20
-101.287
11
133.004
21
-101.613
0
LINE
8
Black
10
133.004
20
-101.613
11
132.893
21
-101.919
0
LINE
8
Black
10
132.893
20
-101.919
11
132.683
21
-102.169
0
LINE
8
Black
10
132.683
20
-102.169
11
132.401
21
-102.332
0
LINE
8
Black
10
132.401
20
-102.332
11
132.08
21
-102.389
0
LINE
8
Black
10
132.08
20
-102.389
11
131.759
21
-102.332
0
LINE
8
Black
10
131.759
20
-102.332
11
131.477
21
-102.169
0
LINE
8
Black
10
131.477
20
-102.169
11
131.267
21
-101.919
0
LINE
8
Black
10
131.267
20
-101.919
11
131.156
21
-101.613
0
LINE
8
Black
10
131.156
20
-101.613
11
131.156
21
-101.287
0
LINE
8
Black
10
131.156
20
-101.287
11
131.267
21
-100.981
0
LINE
8
Black
10
131.267
20
-100.981
11
131.477
21
-100.731
0
LINE
8
Black
10
131.477
20
-100.731
11
131.759
21
-100.568
0
LINE
8
Black
10
131.759
20
-100.568
11
132.08
21
-100.511
0
LINE
8
Black
10
132.08
20
-100.511
11
132.401
21
-100.568
0
LINE
8
Black
10
147.275
20
-102.155
11
144.875
21
-102.155
0
LINE
8
Black
10
144.875
20
-102.155
11
144.875
21
-100.255
0
LINE
8
Black
10
144.875
20
-100.255
11
147.275
21
-100.255
0
LINE
8
Black
10
147.275
20
-100.255
11
147.275
21
-102.155
0
LINE
8
Black
10
161.067
20
-97.7781
11
161.429
21
-97.9872
0
LINE
8
Black
10
161.429
20
-97.9872
11
161.698
21
-98.3077
0
LINE
8
Black
10
161.698
20
-98.3077
11
161.841
21
-98.7008
0
LINE
8
Black
10
161.841
20
-98.7008
11
161.841
21
-99.1192
0
LINE
8
Black
10
161.841
20
-99.1192
11
161.698
21
-99.5123
0
LINE
8
Black
10
161.698
20
-99.5123
11
161.429
21
-99.8328
0
LINE
8
Black
10
161.429
20
-99.8328
11
161.067
21
-100.042
0
LINE
8
Black
10
161.067
20
-100.042
11
160.655
21
-100.115
0
LINE
8
Black
10
160.655
20
-100.115
11
160.243
21
-100.042
0
LINE
8
Black
10
160.243
20
-100.042
11
159.881
21
-99.8328
0
LINE
8
Black
10
159.881
20
-99.8328
11
159.612
21
-99.5123
0
LINE
8
Black
10
159.612
20
-99.5123
11
159.469
21
-99.1192
0
LINE
8
Black
10
159.469
20
-99.1192
11
159.469
21
-98.7008
0
LINE
8
Black
10
159.469
20
-98.7008
11
159.612
21
-98.3077
0
LINE
8
Black
10
159.612
20
-98.3077
11
159.881
21
-97.9872
0
LINE
8
Black
10
159.881
20
-97.9872
11
160.243
21
-97.7781
0
LINE
8
Black
10
160.243
20
-97.7781
11
160.655
21
-97.7054
0
LINE
8
Black
10
160.655
20
-97.7054
11
161.067
21
-97.7781
0
LINE
8
Black
10
156.567
20
-97.7781
11
156.929
21
-97.9872
0
LINE
8
Black
10
156.929
20
-97.9872
11
157.198
21
-98.3077
0
LINE
8
Black
10
157.198
20
-98.3077
11
157.341
21
-98.7008
0
LINE
8
Black
10
157.341
20
-98.7008
11
157.341
21
-99.1192
0
LINE
8
Black
10
157.341
20
-99.1192
11
157.198
21
-99.5123
0
LINE
8
Black
10
157.198
20
-99.5123
11
156.929
21
-99.8328
0
LINE
8
Black
10
156.929
20
-99.8328
11
156.567
21
-100.042
0
LINE
8
Black
10
156.567
20
-100.042
11
156.155
21
-100.115
0
LINE
8
Black
10
156.155
20
-100.115
11
155.743
21
-100.042
0
LINE
8
Black
10
155.743
20
-100.042
11
155.381
21
-99.8328
0
LINE
8
Black
10
155.381
20
-99.8328
11
155.112
21
-99.5123
0
LINE
8
Black
10
155.112
20
-99.5123
11
154.969
21
-99.1192
0
LINE
8
Black
10
154.969
20
-99.1192
11
154.969
21
-98.7008
0
LINE
8
Black
10
154.969
20
-98.7008
11
155.112
21
-98.3077
0
LINE
8
Black
10
155.112
20
-98.3077
11
155.381
21
-97.9872
0
LINE
8
Black
10
155.381
20
-97.9872
11
155.743
21
-97.7781
0
LINE
8
Black
10
155.743
20
-97.7781
11
156.155
21
-97.7054
0
LINE
8
Black
10
156.155
20
-97.7054
11
156.567
21
-97.7781
0
LINE
8
Black
10
132.401
20
-98.028
11
132.683
21
-98.191
0
LINE
8
Black
10
132.683
20
-98.191
11
132.893
21
-98.4407
0
LINE
8
Black
10
132.893
20
-98.4407
11
133.004
21
-98.747
0
LINE
8
Black
10
133.004
20
-98.747
11
133.004
21
-99.073
0
LINE
8
Black
10
133.004
20
-99.073
11
132.893
21
-99.3793
0
LINE
8
Black
10
132.893
20
-99.3793
11
132.683
21
-99.629
0
LINE
8
Black
10
132.683
20
-99.629
11
132.401
21
-99.792
0
LINE
8
Black
10
132.401
20
-99.792
11
132.08
21
-99.8486
0
LINE
8
Black
10
132.08
20
-99.8486
11
131.759
21
-99.792
0
LINE
8
Black
10
131.759
20
-99.792
11
131.477
21
-99.629
0
LINE
8
Black
10
131.477
20
-99.629
11
131.267
21
-99.3793
0
LINE
8
Black
10
131.267
20
-99.3793
11
131.156
21
-99.073
0
LINE
8
Black
10
131.156
20
-99.073
11
131.156
21
-98.747
0
LINE
8
Black
10
131.156
20
-98.747
11
131.267
21
-98.4407
0
LINE
8
Black
10
131.267
20
-98.4407
11
131.477
21
-98.191
0
LINE
8
Black
10
131.477
20
-98.191
11
131.759
21
-98.028
0
LINE
8
Black
10
131.759
20
-98.028
11
132.08
21
-97.9714
0
LINE
8
Black
10
132.08
20
-97.9714
11
132.401
21
-98.028
0
LINE
8
Black
10
101.921
20
-98.028
11
102.203
21
-98.191
0
LINE
8
Black
10
102.203
20
-98.191
11
102.413
21
-98.4407
0
LINE
8
Black
10
102.413
20
-98.4407
11
102.524
21
-98.747
0
LINE
8
Black
10
102.524
20
-98.747
11
102.524
21
-99.073
0
LINE
8
Black
10
102.524
20
-99.073
11
102.413
21
-99.3793
0
LINE
8
Black
10
102.413
20
-99.3793
11
102.203
21
-99.629
0
LINE
8
Black
10
102.203
20
-99.629
11
101.921
21
-99.792
0
LINE
8
Black
10
101.921
20
-99.792
11
101.6
21
-99.8486
0
LINE
8
Black
10
101.6
20
-99.8486
11
101.279
21
-99.792
0
LINE
8
Black
10
101.279
20
-99.792
11
100.997
21
-99.629
0
LINE
8
Black
10
100.997
20
-99.629
11
100.787
21
-99.3793
0
LINE
8
Black
10
100.787
20
-99.3793
11
100.676
21
-99.073
0
LINE
8
Black
10
100.676
20
-99.073
11
100.676
21
-98.747
0
LINE
8
Black
10
100.676
20
-98.747
11
100.787
21
-98.4407
0
LINE
8
Black
10
100.787
20
-98.4407
11
100.997
21
-98.191
0
LINE
8
Black
10
100.997
20
-98.191
11
101.279
21
-98.028
0
LINE
8
Black
10
101.279
20
-98.028
11
101.6
21
-97.9714
0
LINE
8
Black
10
101.6
20
-97.9714
11
101.921
21
-98.028
0
LINE
8
Black
10
129.861
20
-98.028
11
130.143
21
-98.191
0
LINE
8
Black
10
130.143
20
-98.191
11
130.353
21
-98.4407
0
LINE
8
Black
10
130.353
20
-98.4407
11
130.464
21
-98.747
0
LINE
8
Black
10
130.464
20
-98.747
11
130.464
21
-99.073
0
LINE
8
Black
10
130.464
20
-99.073
11
130.353
21
-99.3793
0
LINE
8
Black
10
130.353
20
-99.3793
11
130.143
21
-99.629
0
LINE
8
Black
10
130.143
20
-99.629
11
129.861
21
-99.792
0
LINE
8
Black
10
129.861
20
-99.792
11
129.54
21
-99.8486
0
LINE
8
Black
10
129.54
20
-99.8486
11
129.219
21
-99.792
0
LINE
8
Black
10
129.219
20
-99.792
11
128.937
21
-99.629
0
LINE
8
Black
10
128.937
20
-99.629
11
128.727
21
-99.3793
0
LINE
8
Black
10
128.727
20
-99.3793
11
128.616
21
-99.073
0
LINE
8
Black
10
128.616
20
-99.073
11
128.616
21
-98.747
0
LINE
8
Black
10
128.616
20
-98.747
11
128.727
21
-98.4407
0
LINE
8
Black
10
128.727
20
-98.4407
11
128.937
21
-98.191
0
LINE
8
Black
10
128.937
20
-98.191
11
129.219
21
-98.028
0
LINE
8
Black
10
129.219
20
-98.028
11
129.54
21
-97.9714
0
LINE
8
Black
10
129.54
20
-97.9714
11
129.861
21
-98.028
0
LINE
8
Black
10
127.321
20
-98.028
11
127.603
21
-98.191
0
LINE
8
Black
10
127.603
20
-98.191
11
127.813
21
-98.4407
0
LINE
8
Black
10
127.813
20
-98.4407
11
127.924
21
-98.747
0
LINE
8
Black
10
127.924
20
-98.747
11
127.924
21
-99.073
0
LINE
8
Black
10
127.924
20
-99.073
11
127.813
21
-99.3793
0
LINE
8
Black
10
127.813
20
-99.3793
11
127.603
21
-99.629
0
LINE
8
Black
10
127.603
20
-99.629
11
127.321
21
-99.792
0
LINE
8
Black
10
127.321
20
-99.792
11
127
21
-99.8486
0
LINE
8
Black
10
127
20
-99.8486
11
126.679
21
-99.792
0
LINE
8
Black
10
126.679
20
-99.792
11
126.397
21
-99.629
0
LINE
8
Black
10
126.397
20
-99.629
11
126.187
21
-99.3793
0
LINE
8
Black
10
126.187
20
-99.3793
11
126.076
21
-99.073
0
LINE
8
Black
10
126.076
20
-99.073
11
126.076
21
-98.747
0
LINE
8
Black
10
126.076
20
-98.747
11
126.187
21
-98.4407
0
LINE
8
Black
10
126.187
20
-98.4407
11
126.397
21
-98.191
0
LINE
8
Black
10
126.397
20
-98.191
11
126.679
21
-98.028
0
LINE
8
Black
10
126.679
20
-98.028
11
127
21
-97.9714
0
LINE
8
Black
10
127
20
-97.9714
11
127.321
21
-98.028
0
LINE
8
Black
10
124.781
20
-98.028
11
125.063
21
-98.191
0
LINE
8
Black
10
125.063
20
-98.191
11
125.273
21
-98.4407
0
LINE
8
Black
10
125.273
20
-98.4407
11
125.384
21
-98.747
0
LINE
8
Black
10
125.384
20
-98.747
11
125.384
21
-99.073
0
LINE
8
Black
10
125.384
20
-99.073
11
125.273
21
-99.3793
0
LINE
8
Black
10
125.273
20
-99.3793
11
125.063
21
-99.629
0
LINE
8
Black
10
125.063
20
-99.629
11
124.781
21
-99.792
0
LINE
8
Black
10
124.781
20
-99.792
11
124.46
21
-99.8486
0
LINE
8
Black
10
124.46
20
-99.8486
11
124.139
21
-99.792
0
LINE
8
Black
10
124.139
20
-99.792
11
123.857
21
-99.629
0
LINE
8
Black
10
123.857
20
-99.629
11
123.647
21
-99.3793
0
LINE
8
Black
10
123.647
20
-99.3793
11
123.536
21
-99.073
0
LINE
8
Black
10
123.536
20
-99.073
11
123.536
21
-98.747
0
LINE
8
Black
10
123.536
20
-98.747
11
123.647
21
-98.4407
0
LINE
8
Black
10
123.647
20
-98.4407
11
123.857
21
-98.191
0
LINE
8
Black
10
123.857
20
-98.191
11
124.139
21
-98.028
0
LINE
8
Black
10
124.139
20
-98.028
11
124.46
21
-97.9714
0
LINE
8
Black
10
124.46
20
-97.9714
11
124.781
21
-98.028
0
LINE
8
Black
10
122.241
20
-98.028
11
122.523
21
-98.191
0
LINE
8
Black
10
122.523
20
-98.191
11
122.733
21
-98.4407
0
LINE
8
Black
10
122.733
20
-98.4407
11
122.844
21
-98.747
0
LINE
8
Black
10
122.844
20
-98.747
11
122.844
21
-99.073
0
LINE
8
Black
10
122.844
20
-99.073
11
122.733
21
-99.3793
0
LINE
8
Black
10
122.733
20
-99.3793
11
122.523
21
-99.629
0
LINE
8
Black
10
122.523
20
-99.629
11
122.241
21
-99.792
0
LINE
8
Black
10
122.241
20
-99.792
11
121.92
21
-99.8486
0
LINE
8
Black
10
121.92
20
-99.8486
11
121.599
21
-99.792
0
LINE
8
Black
10
121.599
20
-99.792
11
121.317
21
-99.629
0
LINE
8
Black
10
121.317
20
-99.629
11
121.107
21
-99.3793
0
LINE
8
Black
10
121.107
20
-99.3793
11
120.996
21
-99.073
0
LINE
8
Black
10
120.996
20
-99.073
11
120.996
21
-98.747
0
LINE
8
Black
10
120.996
20
-98.747
11
121.107
21
-98.4407
0
LINE
8
Black
10
121.107
20
-98.4407
11
121.317
21
-98.191
0
LINE
8
Black
10
121.317
20
-98.191
11
121.599
21
-98.028
0
LINE
8
Black
10
121.599
20
-98.028
11
121.92
21
-97.9714
0
LINE
8
Black
10
121.92
20
-97.9714
11
122.241
21
-98.028
0
LINE
8
Black
10
119.701
20
-98.028
11
119.983
21
-98.191
0
LINE
8
Black
10
119.983
20
-98.191
11
120.193
21
-98.4407
0
LINE
8
Black
10
120.193
20
-98.4407
11
120.304
21
-98.747
0
LINE
8
Black
10
120.304
20
-98.747
11
120.304
21
-99.073
0
LINE
8
Black
10
120.304
20
-99.073
11
120.193
21
-99.3793
0
LINE
8
Black
10
120.193
20
-99.3793
11
119.983
21
-99.629
0
LINE
8
Black
10
119.983
20
-99.629
11
119.701
21
-99.792
0
LINE
8
Black
10
119.701
20
-99.792
11
119.38
21
-99.8486
0
LINE
8
Black
10
119.38
20
-99.8486
11
119.059
21
-99.792
0
LINE
8
Black
10
119.059
20
-99.792
11
118.777
21
-99.629
0
LINE
8
Black
10
118.777
20
-99.629
11
118.567
21
-99.3793
0
LINE
8
Black
10
118.567
20
-99.3793
11
118.456
21
-99.073
0
LINE
8
Black
10
118.456
20
-99.073
11
118.456
21
-98.747
0
LINE
8
Black
10
118.456
20
-98.747
11
118.567
21
-98.4407
0
LINE
8
Black
10
118.567
20
-98.4407
11
118.777
21
-98.191
0
LINE
8
Black
10
118.777
20
-98.191
11
119.059
21
-98.028
0
LINE
8
Black
10
119.059
20
-98.028
11
119.38
21
-97.9714
0
LINE
8
Black
10
119.38
20
-97.9714
11
119.701
21
-98.028
0
LINE
8
Black
10
117.161
20
-98.028
11
117.443
21
-98.191
0
LINE
8
Black
10
117.443
20
-98.191
11
117.653
21
-98.4407
0
LINE
8
Black
10
117.653
20
-98.4407
11
117.764
21
-98.747
0
LINE
8
Black
10
117.764
20
-98.747
11
117.764
21
-99.073
0
LINE
8
Black
10
117.764
20
-99.073
11
117.653
21
-99.3793
0
LINE
8
Black
10
117.653
20
-99.3793
11
117.443
21
-99.629
0
LINE
8
Black
10
117.443
20
-99.629
11
117.161
21
-99.792
0
LINE
8
Black
10
117.161
20
-99.792
11
116.84
21
-99.8486
0
LINE
8
Black
10
116.84
20
-99.8486
11
116.519
21
-99.792
0
LINE
8
Black
10
116.519
20
-99.792
11
116.237
21
-99.629
0
LINE
8
Black
10
116.237
20
-99.629
11
116.027
21
-99.3793
0
LINE
8
Black
10
116.027
20
-99.3793
11
115.916
21
-99.073
0
LINE
8
Black
10
115.916
20
-99.073
11
115.916
21
-98.747
0
LINE
8
Black
10
115.916
20
-98.747
11
116.027
21
-98.4407
0
LINE
8
Black
10
116.027
20
-98.4407
11
116.237
21
-98.191
0
LINE
8
Black
10
116.237
20
-98.191
11
116.519
21
-98.028
0
LINE
8
Black
10
116.519
20
-98.028
11
116.84
21
-97.9714
0
LINE
8
Black
10
116.84
20
-97.9714
11
117.161
21
-98.028
0
LINE
8
Black
10
114.621
20
-98.028
11
114.903
21
-98.191
0
LINE
8
Black
10
114.903
20
-98.191
11
115.113
21
-98.4407
0
LINE
8
Black
10
115.113
20
-98.4407
11
115.224
21
-98.747
0
LINE
8
Black
10
115.224
20
-98.747
11
115.224
21
-99.073
0
LINE
8
Black
10
115.224
20
-99.073
11
115.113
21
-99.3793
0
LINE
8
Black
10
115.113
20
-99.3793
11
114.903
21
-99.629
0
LINE
8
Black
10
114.903
20
-99.629
11
114.621
21
-99.792
0
LINE
8
Black
10
114.621
20
-99.792
11
114.3
21
-99.8486
0
LINE
8
Black
10
114.3
20
-99.8486
11
113.979
21
-99.792
0
LINE
8
Black
10
113.979
20
-99.792
11
113.697
21
-99.629
0
LINE
8
Black
10
113.697
20
-99.629
11
113.487
21
-99.3793
0
LINE
8
Black
10
113.487
20
-99.3793
11
113.376
21
-99.073
0
LINE
8
Black
10
113.376
20
-99.073
11
113.376
21
-98.747
0
LINE
8
Black
10
113.376
20
-98.747
11
113.487
21
-98.4407
0
LINE
8
Black
10
113.487
20
-98.4407
11
113.697
21
-98.191
0
LINE
8
Black
10
113.697
20
-98.191
11
113.979
21
-98.028
0
LINE
8
Black
10
113.979
20
-98.028
11
114.3
21
-97.9714
0
LINE
8
Black
10
114.3
20
-97.9714
11
114.621
21
-98.028
0
LINE
8
Black
10
112.081
20
-98.028
11
112.363
21
-98.191
0
LINE
8
Black
10
112.363
20
-98.191
11
112.573
21
-98.4407
0
LINE
8
Black
10
112.573
20
-98.4407
11
112.684
21
-98.747
0
LINE
8
Black
10
112.684
20
-98.747
11
112.684
21
-99.073
0
LINE
8
Black
10
112.684
20
-99.073
11
112.573
21
-99.3793
0
LINE
8
Black
10
112.573
20
-99.3793
11
112.363
21
-99.629
0
LINE
8
Black
10
112.363
20
-99.629
11
112.081
21
-99.792
0
LINE
8
Black
10
112.081
20
-99.792
11
111.76
21
-99.8486
0
LINE
8
Black
10
111.76
20
-99.8486
11
111.439
21
-99.792
0
LINE
8
Black
10
111.439
20
-99.792
11
111.157
21
-99.629
0
LINE
8
Black
10
111.157
20
-99.629
11
110.947
21
-99.3793
0
LINE
8
Black
10
110.947
20
-99.3793
11
110.836
21
-99.073
0
LINE
8
Black
10
110.836
20
-99.073
11
110.836
21
-98.747
0
LINE
8
Black
10
110.836
20
-98.747
11
110.947
21
-98.4407
0
LINE
8
Black
10
110.947
20
-98.4407
11
111.157
21
-98.191
0
LINE
8
Black
10
111.157
20
-98.191
11
111.439
21
-98.028
0
LINE
8
Black
10
111.439
20
-98.028
11
111.76
21
-97.9714
0
LINE
8
Black
10
111.76
20
-97.9714
11
112.081
21
-98.028
0
LINE
8
Black
10
109.541
20
-98.028
11
109.823
21
-98.191
0
LINE
8
Black
10
109.823
20
-98.191
11
110.033
21
-98.4407
0
LINE
8
Black
10
110.033
20
-98.4407
11
110.144
21
-98.747
0
LINE
8
Black
10
110.144
20
-98.747
11
110.144
21
-99.073
0
LINE
8
Black
10
110.144
20
-99.073
11
110.033
21
-99.3793
0
LINE
8
Black
10
110.033
20
-99.3793
11
109.823
21
-99.629
0
LINE
8
Black
10
109.823
20
-99.629
11
109.541
21
-99.792
0
LINE
8
Black
10
109.541
20
-99.792
11
109.22
21
-99.8486
0
LINE
8
Black
10
109.22
20
-99.8486
11
108.899
21
-99.792
0
LINE
8
Black
10
108.899
20
-99.792
11
108.617
21
-99.629
0
LINE
8
Black
10
108.617
20
-99.629
11
108.407
21
-99.3793
0
LINE
8
Black
10
108.407
20
-99.3793
11
108.296
21
-99.073
0
LINE
8
Black
10
108.296
20
-99.073
11
108.296
21
-98.747
0
LINE
8
Black
10
108.296
20
-98.747
11
108.407
21
-98.4407
0
LINE
8
Black
10
108.407
20
-98.4407
11
108.617
21
-98.191
0
LINE
8
Black
10
108.617
20
-98.191
11
108.899
21
-98.028
0
LINE
8
Black
10
108.899
20
-98.028
11
109.22
21
-97.9714
0
LINE
8
Black
10
109.22
20
-97.9714
11
109.541
21
-98.028
0
LINE
8
Black
10
107.001
20
-98.028
11
107.283
21
-98.191
0
LINE
8
Black
10
107.283
20
-98.191
11
107.493
21
-98.4407
0
LINE
8
Black
10
107.493
20
-98.4407
11
107.604
21
-98.747
0
LINE
8
Black
10
107.604
20
-98.747
11
107.604
21
-99.073
0
LINE
8
Black
10
107.604
20
-99.073
11
107.493
21
-99.3793
0
LINE
8
Black
10
107.493
20
-99.3793
11
107.283
21
-99.629
0
LINE
8
Black
10
107.283
20
-99.629
11
107.001
21
-99.792
0
LINE
8
Black
10
107.001
20
-99.792
11
106.68
21
-99.8486
0
LINE
8
Black
10
106.68
20
-99.8486
11
106.359
21
-99.792
0
LINE
8
Black
10
106.359
20
-99.792
11
106.077
21
-99.629
0
LINE
8
Black
10
106.077
20
-99.629
11
105.867
21
-99.3793
0
LINE
8
Black
10
105.867
20
-99.3793
11
105.756
21
-99.073
0
LINE
8
Black
10
105.756
20
-99.073
11
105.756
21
-98.747
0
LINE
8
Black
10
105.756
20
-98.747
11
105.867
21
-98.4407
0
LINE
8
Black
10
105.867
20
-98.4407
11
106.077
21
-98.191
0
LINE
8
Black
10
106.077
20
-98.191
11
106.359
21
-98.028
0
LINE
8
Black
10
106.359
20
-98.028
11
106.68
21
-97.9714
0
LINE
8
Black
10
106.68
20
-97.9714
11
107.001
21
-98.028
0
LINE
8
Black
10
104.461
20
-98.028
11
104.743
21
-98.191
0
LINE
8
Black
10
104.743
20
-98.191
11
104.953
21
-98.4407
0
LINE
8
Black
10
104.953
20
-98.4407
11
105.064
21
-98.747
0
LINE
8
Black
10
105.064
20
-98.747
11
105.064
21
-99.073
0
LINE
8
Black
10
105.064
20
-99.073
11
104.953
21
-99.3793
0
LINE
8
Black
10
104.953
20
-99.3793
11
104.743
21
-99.629
0
LINE
8
Black
10
104.743
20
-99.629
11
104.461
21
-99.792
0
LINE
8
Black
10
104.461
20
-99.792
11
104.14
21
-99.8486
0
LINE
8
Black
10
104.14
20
-99.8486
11
103.819
21
-99.792
0
LINE
8
Black
10
103.819
20
-99.792
11
103.537
21
-99.629
0
LINE
8
Black
10
103.537
20
-99.629
11
103.327
21
-99.3793
0
LINE
8
Black
10
103.327
20
-99.3793
11
103.216
21
-99.073
0
LINE
8
Black
10
103.216
20
-99.073
11
103.216
21
-98.747
0
LINE
8
Black
10
103.216
20
-98.747
11
103.327
21
-98.4407
0
LINE
8
Black
10
103.327
20
-98.4407
11
103.537
21
-98.191
0
LINE
8
Black
10
103.537
20
-98.191
11
103.819
21
-98.028
0
LINE
8
Black
10
103.819
20
-98.028
11
104.14
21
-97.9714
0
LINE
8
Black
10
104.14
20
-97.9714
11
104.461
21
-98.028
0
LINE
8
Black
10
99.381
20
-98.028
11
99.6633
21
-98.191
0
LINE
8
Black
10
99.6633
20
-98.191
11
99.8728
21
-98.4407
0
LINE
8
Black
10
99.8728
20
-98.4407
11
99.9843
21
-98.747
0
LINE
8
Black
10
99.9843
20
-98.747
11
99.9843
21
-99.073
0
LINE
8
Black
10
99.9843
20
-99.073
11
99.8728
21
-99.3793
0
LINE
8
Black
10
99.8728
20
-99.3793
11
99.6633
21
-99.629
0
LINE
8
Black
10
99.6633
20
-99.629
11
99.381
21
-99.792
0
LINE
8
Black
10
99.381
20
-99.792
11
99.06
21
-99.8486
0
LINE
8
Black
10
99.06
20
-99.8486
11
98.739
21
-99.792
0
LINE
8
Black
10
98.739
20
-99.792
11
98.4567
21
-99.629
0
LINE
8
Black
10
98.4567
20
-99.629
11
98.2472
21
-99.3793
0
LINE
8
Black
10
98.2472
20
-99.3793
11
98.1357
21
-99.073
0
LINE
8
Black
10
98.1357
20
-99.073
11
98.1357
21
-98.747
0
LINE
8
Black
10
98.1357
20
-98.747
11
98.2472
21
-98.4407
0
LINE
8
Black
10
98.2472
20
-98.4407
11
98.4567
21
-98.191
0
LINE
8
Black
10
98.4567
20
-98.191
11
98.739
21
-98.028
0
LINE
8
Black
10
98.739
20
-98.028
11
99.06
21
-97.9714
0
LINE
8
Black
10
99.06
20
-97.9714
11
99.381
21
-98.028
0
LINE
8
Black
10
144.48
20
-99.25
11
142.58
21
-99.25
0
LINE
8
Black
10
142.58
20
-99.25
11
142.58
21
-97.6
0
LINE
8
Black
10
142.58
20
-97.6
11
144.48
21
-97.6
0
LINE
8
Black
10
144.48
20
-97.6
11
144.48
21
-99.25
0
LINE
8
Black
10
146.98
20
-99.25
11
145.08
21
-99.25
0
LINE
8
Black
10
145.08
20
-99.25
11
145.08
21
-97.6
0
LINE
8
Black
10
145.08
20
-97.6
11
146.98
21
-97.6
0
LINE
8
Black
10
146.98
20
-97.6
11
146.98
21
-99.25
0
LINE
8
Black
10
142.071
20
-93.3476
11
142.284
21
-93.5262
0
LINE
8
Black
10
142.284
20
-93.5262
11
142.423
21
-93.7668
0
LINE
8
Black
10
142.423
20
-93.7668
11
142.471
21
-94.0404
0
LINE
8
Black
10
142.471
20
-94.0404
11
142.471
21
-94.8496
0
LINE
8
Black
10
142.471
20
-94.8496
11
142.423
21
-95.1232
0
LINE
8
Black
10
142.423
20
-95.1232
11
142.284
21
-95.3638
0
LINE
8
Black
10
142.284
20
-95.3638
11
142.071
21
-95.5424
0
LINE
8
Black
10
142.071
20
-95.5424
11
141.81
21
-95.6374
0
LINE
8
Black
10
141.81
20
-95.6374
11
141.533
21
-95.6374
0
LINE
8
Black
10
141.533
20
-95.6374
11
141.272
21
-95.5424
0
LINE
8
Black
10
141.272
20
-95.5424
11
141.059
21
-95.3638
0
LINE
8
Black
10
141.059
20
-95.3638
11
140.92
21
-95.1232
0
LINE
8
Black
10
140.92
20
-95.1232
11
140.871
21
-94.8496
0
LINE
8
Black
10
140.871
20
-94.8496
11
140.871
21
-94.0404
0
LINE
8
Black
10
140.871
20
-94.0404
11
140.92
21
-93.7668
0
LINE
8
Black
10
140.92
20
-93.7668
11
141.059
21
-93.5262
0
LINE
8
Black
10
141.059
20
-93.5262
11
141.272
21
-93.3476
0
LINE
8
Black
10
141.272
20
-93.3476
11
141.533
21
-93.2526
0
LINE
8
Black
10
141.533
20
-93.2526
11
141.81
21
-93.2526
0
LINE
8
Black
10
141.81
20
-93.2526
11
142.071
21
-93.3476
0
LINE
8
Black
10
162.391
20
-93.3476
11
162.604
21
-93.5262
0
LINE
8
Black
10
162.604
20
-93.5262
11
162.743
21
-93.7668
0
LINE
8
Black
10
162.743
20
-93.7668
11
162.791
21
-94.0404
0
LINE
8
Black
10
162.791
20
-94.0404
11
162.791
21
-94.8496
0
LINE
8
Black
10
162.791
20
-94.8496
11
162.743
21
-95.1232
0
LINE
8
Black
10
162.743
20
-95.1232
11
162.604
21
-95.3638
0
LINE
8
Black
10
162.604
20
-95.3638
11
162.391
21
-95.5424
0
LINE
8
Black
10
162.391
20
-95.5424
11
162.13
21
-95.6374
0
LINE
8
Black
10
162.13
20
-95.6374
11
161.853
21
-95.6374
0
LINE
8
Black
10
161.853
20
-95.6374
11
161.591
21
-95.5424
0
LINE
8
Black
10
161.591
20
-95.5424
11
161.379
21
-95.3638
0
LINE
8
Black
10
161.379
20
-95.3638
11
161.24
21
-95.1232
0
LINE
8
Black
10
161.24
20
-95.1232
11
161.191
21
-94.8496
0
LINE
8
Black
10
161.191
20
-94.8496
11
161.191
21
-94.0404
0
LINE
8
Black
10
161.191
20
-94.0404
11
161.24
21
-93.7668
0
LINE
8
Black
10
161.24
20
-93.7668
11
161.379
21
-93.5262
0
LINE
8
Black
10
161.379
20
-93.5262
11
161.591
21
-93.3476
0
LINE
8
Black
10
161.591
20
-93.3476
11
161.853
21
-93.2526
0
LINE
8
Black
10
161.853
20
-93.2526
11
162.13
21
-93.2526
0
LINE
8
Black
10
162.13
20
-93.2526
11
162.391
21
-93.3476
0
LINE
8
Black
10
159.851
20
-93.3476
11
160.064
21
-93.5262
0
LINE
8
Black
10
160.064
20
-93.5262
11
160.203
21
-93.7668
0
LINE
8
Black
10
160.203
20
-93.7668
11
160.251
21
-94.0404
0
LINE
8
Black
10
160.251
20
-94.0404
11
160.251
21
-94.8496
0
LINE
8
Black
10
160.251
20
-94.8496
11
160.203
21
-95.1232
0
LINE
8
Black
10
160.203
20
-95.1232
11
160.064
21
-95.3638
0
LINE
8
Black
10
160.064
20
-95.3638
11
159.851
21
-95.5424
0
LINE
8
Black
10
159.851
20
-95.5424
11
159.59
21
-95.6374
0
LINE
8
Black
10
159.59
20
-95.6374
11
159.313
21
-95.6374
0
LINE
8
Black
10
159.313
20
-95.6374
11
159.052
21
-95.5424
0
LINE
8
Black
10
159.052
20
-95.5424
11
158.839
21
-95.3638
0
LINE
8
Black
10
158.839
20
-95.3638
11
158.7
21
-95.1232
0
LINE
8
Black
10
158.7
20
-95.1232
11
158.651
21
-94.8496
0
LINE
8
Black
10
158.651
20
-94.8496
11
158.651
21
-94.0404
0
LINE
8
Black
10
158.651
20
-94.0404
11
158.7
21
-93.7668
0
LINE
8
Black
10
158.7
20
-93.7668
11
158.839
21
-93.5262
0
LINE
8
Black
10
158.839
20
-93.5262
11
159.052
21
-93.3476
0
LINE
8
Black
10
159.052
20
-93.3476
11
159.313
21
-93.2526
0
LINE
8
Black
10
159.313
20
-93.2526
11
159.59
21
-93.2526
0
LINE
8
Black
10
159.59
20
-93.2526
11
159.851
21
-93.3476
0
LINE
8
Black
10
157.311
20
-93.3476
11
157.524
21
-93.5262
0
LINE
8
Black
10
157.524
20
-93.5262
11
157.663
21
-93.7668
0
LINE
8
Black
10
157.663
20
-93.7668
11
157.712
21
-94.0404
0
LINE
8
Black
10
157.712
20
-94.0404
11
157.712
21
-94.8496
0
LINE
8
Black
10
157.712
20
-94.8496
11
157.663
21
-95.1232
0
LINE
8
Black
10
157.663
20
-95.1232
11
157.524
21
-95.3638
0
LINE
8
Black
10
157.524
20
-95.3638
11
157.311
21
-95.5424
0
LINE
8
Black
10
157.311
20
-95.5424
11
157.05
21
-95.6374
0
LINE
8
Black
10
157.05
20
-95.6374
11
156.773
21
-95.6374
0
LINE
8
Black
10
156.773
20
-95.6374
11
156.511
21
-95.5424
0
LINE
8
Black
10
156.511
20
-95.5424
11
156.299
21
-95.3638
0
LINE
8
Black
10
156.299
20
-95.3638
11
156.16
21
-95.1232
0
LINE
8
Black
10
156.16
20
-95.1232
11
156.112
21
-94.8496
0
LINE
8
Black
10
156.112
20
-94.8496
11
156.112
21
-94.0404
0
LINE
8
Black
10
156.112
20
-94.0404
11
156.16
21
-93.7668
0
LINE
8
Black
10
156.16
20
-93.7668
11
156.299
21
-93.5262
0
LINE
8
Black
10
156.299
20
-93.5262
11
156.511
21
-93.3476
0
LINE
8
Black
10
156.511
20
-93.3476
11
156.773
21
-93.2526
0
LINE
8
Black
10
156.773
20
-93.2526
11
157.05
21
-93.2526
0
LINE
8
Black
10
157.05
20
-93.2526
11
157.311
21
-93.3476
0
LINE
8
Black
10
154.772
20
-93.3476
11
154.984
21
-93.5262
0
LINE
8
Black
10
154.984
20
-93.5262
11
155.123
21
-93.7668
0
LINE
8
Black
10
155.123
20
-93.7668
11
155.171
21
-94.0404
0
LINE
8
Black
10
155.171
20
-94.0404
11
155.171
21
-94.8496
0
LINE
8
Black
10
155.171
20
-94.8496
11
155.123
21
-95.1232
0
LINE
8
Black
10
155.123
20
-95.1232
11
154.984
21
-95.3638
0
LINE
8
Black
10
154.984
20
-95.3638
11
154.772
21
-95.5424
0
LINE
8
Black
10
154.772
20
-95.5424
11
154.51
21
-95.6374
0
LINE
8
Black
10
154.51
20
-95.6374
11
154.233
21
-95.6374
0
LINE
8
Black
10
154.233
20
-95.6374
11
153.971
21
-95.5424
0
LINE
8
Black
10
153.971
20
-95.5424
11
153.759
21
-95.3638
0
LINE
8
Black
10
153.759
20
-95.3638
11
153.62
21
-95.1232
0
LINE
8
Black
10
153.62
20
-95.1232
11
153.571
21
-94.8496
0
LINE
8
Black
10
153.571
20
-94.8496
11
153.571
21
-94.0404
0
LINE
8
Black
10
153.571
20
-94.0404
11
153.62
21
-93.7668
0
LINE
8
Black
10
153.62
20
-93.7668
11
153.759
21
-93.5262
0
LINE
8
Black
10
153.759
20
-93.5262
11
153.971
21
-93.3476
0
LINE
8
Black
10
153.971
20
-93.3476
11
154.233
21
-93.2526
0
LINE
8
Black
10
154.233
20
-93.2526
11
154.51
21
-93.2526
0
LINE
8
Black
10
154.51
20
-93.2526
11
154.772
21
-93.3476
0
LINE
8
Black
10
152.231
20
-93.3476
11
152.444
21
-93.5262
0
LINE
8
Black
10
152.444
20
-93.5262
11
152.583
21
-93.7668
0
LINE
8
Black
10
152.583
20
-93.7668
11
152.631
21
-94.0404
0
LINE
8
Black
10
152.631
20
-94.0404
11
152.631
21
-94.8496
0
LINE
8
Black
10
152.631
20
-94.8496
11
152.583
21
-95.1232
0
LINE
8
Black
10
152.583
20
-95.1232
11
152.444
21
-95.3638
0
LINE
8
Black
10
152.444
20
-95.3638
11
152.231
21
-95.5424
0
LINE
8
Black
10
152.231
20
-95.5424
11
151.97
21
-95.6374
0
LINE
8
Black
10
151.97
20
-95.6374
11
151.693
21
-95.6374
0
LINE
8
Black
10
151.693
20
-95.6374
11
151.431
21
-95.5424
0
LINE
8
Black
10
151.431
20
-95.5424
11
151.219
21
-95.3638
0
LINE
8
Black
10
151.219
20
-95.3638
11
151.08
21
-95.1232
0
LINE
8
Black
10
151.08
20
-95.1232
11
151.031
21
-94.8496
0
LINE
8
Black
10
151.031
20
-94.8496
11
151.031
21
-94.0404
0
LINE
8
Black
10
151.031
20
-94.0404
11
151.08
21
-93.7668
0
LINE
8
Black
10
151.08
20
-93.7668
11
151.219
21
-93.5262
0
LINE
8
Black
10
151.219
20
-93.5262
11
151.431
21
-93.3476
0
LINE
8
Black
10
151.431
20
-93.3476
11
151.693
21
-93.2526
0
LINE
8
Black
10
151.693
20
-93.2526
11
151.97
21
-93.2526
0
LINE
8
Black
10
151.97
20
-93.2526
11
152.231
21
-93.3476
0
LINE
8
Black
10
149.691
20
-93.3476
11
149.904
21
-93.5262
0
LINE
8
Black
10
149.904
20
-93.5262
11
150.043
21
-93.7668
0
LINE
8
Black
10
150.043
20
-93.7668
11
150.091
21
-94.0404
0
LINE
8
Black
10
150.091
20
-94.0404
11
150.091
21
-94.8496
0
LINE
8
Black
10
150.091
20
-94.8496
11
150.043
21
-95.1232
0
LINE
8
Black
10
150.043
20
-95.1232
11
149.904
21
-95.3638
0
LINE
8
Black
10
149.904
20
-95.3638
11
149.691
21
-95.5424
0
LINE
8
Black
10
149.691
20
-95.5424
11
149.43
21
-95.6374
0
LINE
8
Black
10
149.43
20
-95.6374
11
149.153
21
-95.6374
0
LINE
8
Black
10
149.153
20
-95.6374
11
148.891
21
-95.5424
0
LINE
8
Black
10
148.891
20
-95.5424
11
148.679
21
-95.3638
0
LINE
8
Black
10
148.679
20
-95.3638
11
148.54
21
-95.1232
0
LINE
8
Black
10
148.54
20
-95.1232
11
148.492
21
-94.8496
0
LINE
8
Black
10
148.492
20
-94.8496
11
148.492
21
-94.0404
0
LINE
8
Black
10
148.492
20
-94.0404
11
148.54
21
-93.7668
0
LINE
8
Black
10
148.54
20
-93.7668
11
148.679
21
-93.5262
0
LINE
8
Black
10
148.679
20
-93.5262
11
148.891
21
-93.3476
0
LINE
8
Black
10
148.891
20
-93.3476
11
149.153
21
-93.2526
0
LINE
8
Black
10
149.153
20
-93.2526
11
149.43
21
-93.2526
0
LINE
8
Black
10
149.43
20
-93.2526
11
149.691
21
-93.3476
0
LINE
8
Black
10
111.591
20
-93.3476
11
111.804
21
-93.5262
0
LINE
8
Black
10
111.804
20
-93.5262
11
111.943
21
-93.7668
0
LINE
8
Black
10
111.943
20
-93.7668
11
111.991
21
-94.0404
0
LINE
8
Black
10
111.991
20
-94.0404
11
111.991
21
-94.8496
0
LINE
8
Black
10
111.991
20
-94.8496
11
111.943
21
-95.1232
0
LINE
8
Black
10
111.943
20
-95.1232
11
111.804
21
-95.3638
0
LINE
8
Black
10
111.804
20
-95.3638
11
111.591
21
-95.5424
0
LINE
8
Black
10
111.591
20
-95.5424
11
111.33
21
-95.6374
0
LINE
8
Black
10
111.33
20
-95.6374
11
111.053
21
-95.6374
0
LINE
8
Black
10
111.053
20
-95.6374
11
110.791
21
-95.5424
0
LINE
8
Black
10
110.791
20
-95.5424
11
110.579
21
-95.3638
0
LINE
8
Black
10
110.579
20
-95.3638
11
110.44
21
-95.1232
0
LINE
8
Black
10
110.44
20
-95.1232
11
110.391
21
-94.8496
0
LINE
8
Black
10
110.391
20
-94.8496
11
110.391
21
-94.0404
0
LINE
8
Black
10
110.391
20
-94.0404
11
110.44
21
-93.7668
0
LINE
8
Black
10
110.44
20
-93.7668
11
110.579
21
-93.5262
0
LINE
8
Black
10
110.579
20
-93.5262
11
110.791
21
-93.3476
0
LINE
8
Black
10
110.791
20
-93.3476
11
111.053
21
-93.2526
0
LINE
8
Black
10
111.053
20
-93.2526
11
111.33
21
-93.2526
0
LINE
8
Black
10
111.33
20
-93.2526
11
111.591
21
-93.3476
0
LINE
8
Black
10
126.831
20
-93.3476
11
127.044
21
-93.5262
0
LINE
8
Black
10
127.044
20
-93.5262
11
127.183
21
-93.7668
0
LINE
8
Black
10
127.183
20
-93.7668
11
127.231
21
-94.0404
0
LINE
8
Black
10
127.231
20
-94.0404
11
127.231
21
-94.8496
0
LINE
8
Black
10
127.231
20
-94.8496
11
127.183
21
-95.1232
0
LINE
8
Black
10
127.183
20
-95.1232
11
127.044
21
-95.3638
0
LINE
8
Black
10
127.044
20
-95.3638
11
126.831
21
-95.5424
0
LINE
8
Black
10
126.831
20
-95.5424
11
126.57
21
-95.6374
0
LINE
8
Black
10
126.57
20
-95.6374
11
126.293
21
-95.6374
0
LINE
8
Black
10
126.293
20
-95.6374
11
126.031
21
-95.5424
0
LINE
8
Black
10
126.031
20
-95.5424
11
125.819
21
-95.3638
0
LINE
8
Black
10
125.819
20
-95.3638
11
125.68
21
-95.1232
0
LINE
8
Black
10
125.68
20
-95.1232
11
125.631
21
-94.8496
0
LINE
8
Black
10
125.631
20
-94.8496
11
125.631
21
-94.0404
0
LINE
8
Black
10
125.631
20
-94.0404
11
125.68
21
-93.7668
0
LINE
8
Black
10
125.68
20
-93.7668
11
125.819
21
-93.5262
0
LINE
8
Black
10
125.819
20
-93.5262
11
126.031
21
-93.3476
0
LINE
8
Black
10
126.031
20
-93.3476
11
126.293
21
-93.2526
0
LINE
8
Black
10
126.293
20
-93.2526
11
126.57
21
-93.2526
0
LINE
8
Black
10
126.57
20
-93.2526
11
126.831
21
-93.3476
0
LINE
8
Black
10
129.371
20
-93.3476
11
129.584
21
-93.5262
0
LINE
8
Black
10
129.584
20
-93.5262
11
129.723
21
-93.7668
0
LINE
8
Black
10
129.723
20
-93.7668
11
129.772
21
-94.0404
0
LINE
8
Black
10
129.772
20
-94.0404
11
129.772
21
-94.8496
0
LINE
8
Black
10
129.772
20
-94.8496
11
129.723
21
-95.1232
0
LINE
8
Black
10
129.723
20
-95.1232
11
129.584
21
-95.3638
0
LINE
8
Black
10
129.584
20
-95.3638
11
129.371
21
-95.5424
0
LINE
8
Black
10
129.371
20
-95.5424
11
129.11
21
-95.6374
0
LINE
8
Black
10
129.11
20
-95.6374
11
128.833
21
-95.6374
0
LINE
8
Black
10
128.833
20
-95.6374
11
128.571
21
-95.5424
0
LINE
8
Black
10
128.571
20
-95.5424
11
128.359
21
-95.3638
0
LINE
8
Black
10
128.359
20
-95.3638
11
128.22
21
-95.1232
0
LINE
8
Black
10
128.22
20
-95.1232
11
128.171
21
-94.8496
0
LINE
8
Black
10
128.171
20
-94.8496
11
128.171
21
-94.0404
0
LINE
8
Black
10
128.171
20
-94.0404
11
128.22
21
-93.7668
0
LINE
8
Black
10
128.22
20
-93.7668
11
128.359
21
-93.5262
0
LINE
8
Black
10
128.359
20
-93.5262
11
128.571
21
-93.3476
0
LINE
8
Black
10
128.571
20
-93.3476
11
128.833
21
-93.2526
0
LINE
8
Black
10
128.833
20
-93.2526
11
129.11
21
-93.2526
0
LINE
8
Black
10
129.11
20
-93.2526
11
129.371
21
-93.3476
0
LINE
8
Black
10
124.291
20
-93.3476
11
124.504
21
-93.5262
0
LINE
8
Black
10
124.504
20
-93.5262
11
124.643
21
-93.7668
0
LINE
8
Black
10
124.643
20
-93.7668
11
124.691
21
-94.0404
0
LINE
8
Black
10
124.691
20
-94.0404
11
124.691
21
-94.8496
0
LINE
8
Black
10
124.691
20
-94.8496
11
124.643
21
-95.1232
0
LINE
8
Black
10
124.643
20
-95.1232
11
124.504
21
-95.3638
0
LINE
8
Black
10
124.504
20
-95.3638
11
124.291
21
-95.5424
0
LINE
8
Black
10
124.291
20
-95.5424
11
124.03
21
-95.6374
0
LINE
8
Black
10
124.03
20
-95.6374
11
123.753
21
-95.6374
0
LINE
8
Black
10
123.753
20
-95.6374
11
123.491
21
-95.5424
0
LINE
8
Black
10
123.491
20
-95.5424
11
123.279
21
-95.3638
0
LINE
8
Black
10
123.279
20
-95.3638
11
123.14
21
-95.1232
0
LINE
8
Black
10
123.14
20
-95.1232
11
123.091
21
-94.8496
0
LINE
8
Black
10
123.091
20
-94.8496
11
123.091
21
-94.0404
0
LINE
8
Black
10
123.091
20
-94.0404
11
123.14
21
-93.7668
0
LINE
8
Black
10
123.14
20
-93.7668
11
123.279
21
-93.5262
0
LINE
8
Black
10
123.279
20
-93.5262
11
123.491
21
-93.3476
0
LINE
8
Black
10
123.491
20
-93.3476
11
123.753
21
-93.2526
0
LINE
8
Black
10
123.753
20
-93.2526
11
124.03
21
-93.2526
0
LINE
8
Black
10
124.03
20
-93.2526
11
124.291
21
-93.3476
0
LINE
8
Black
10
131.911
20
-93.3476
11
132.124
21
-93.5262
0
LINE
8
Black
10
132.124
20
-93.5262
11
132.263
21
-93.7668
0
LINE
8
Black
10
132.263
20
-93.7668
11
132.311
21
-94.0404
0
LINE
8
Black
10
132.311
20
-94.0404
11
132.311
21
-94.8496
0
LINE
8
Black
10
132.311
20
-94.8496
11
132.263
21
-95.1232
0
LINE
8
Black
10
132.263
20
-95.1232
11
132.124
21
-95.3638
0
LINE
8
Black
10
132.124
20
-95.3638
11
131.911
21
-95.5424
0
LINE
8
Black
10
131.911
20
-95.5424
11
131.65
21
-95.6374
0
LINE
8
Black
10
131.65
20
-95.6374
11
131.373
21
-95.6374
0
LINE
8
Black
10
131.373
20
-95.6374
11
131.112
21
-95.5424
0
LINE
8
Black
10
131.112
20
-95.5424
11
130.899
21
-95.3638
0
LINE
8
Black
10
130.899
20
-95.3638
11
130.76
21
-95.1232
0
LINE
8
Black
10
130.76
20
-95.1232
11
130.712
21
-94.8496
0
LINE
8
Black
10
130.712
20
-94.8496
11
130.712
21
-94.0404
0
LINE
8
Black
10
130.712
20
-94.0404
11
130.76
21
-93.7668
0
LINE
8
Black
10
130.76
20
-93.7668
11
130.899
21
-93.5262
0
LINE
8
Black
10
130.899
20
-93.5262
11
131.112
21
-93.3476
0
LINE
8
Black
10
131.112
20
-93.3476
11
131.373
21
-93.2526
0
LINE
8
Black
10
131.373
20
-93.2526
11
131.65
21
-93.2526
0
LINE
8
Black
10
131.65
20
-93.2526
11
131.911
21
-93.3476
0
LINE
8
Black
10
121.751
20
-93.3476
11
121.964
21
-93.5262
0
LINE
8
Black
10
121.964
20
-93.5262
11
122.103
21
-93.7668
0
LINE
8
Black
10
122.103
20
-93.7668
11
122.151
21
-94.0404
0
LINE
8
Black
10
122.151
20
-94.0404
11
122.151
21
-94.8496
0
LINE
8
Black
10
122.151
20
-94.8496
11
122.103
21
-95.1232
0
LINE
8
Black
10
122.103
20
-95.1232
11
121.964
21
-95.3638
0
LINE
8
Black
10
121.964
20
-95.3638
11
121.751
21
-95.5424
0
LINE
8
Black
10
121.751
20
-95.5424
11
121.49
21
-95.6374
0
LINE
8
Black
10
121.49
20
-95.6374
11
121.213
21
-95.6374
0
LINE
8
Black
10
121.213
20
-95.6374
11
120.951
21
-95.5424
0
LINE
8
Black
10
120.951
20
-95.5424
11
120.739
21
-95.3638
0
LINE
8
Black
10
120.739
20
-95.3638
11
120.6
21
-95.1232
0
LINE
8
Black
10
120.6
20
-95.1232
11
120.551
21
-94.8496
0
LINE
8
Black
10
120.551
20
-94.8496
11
120.551
21
-94.0404
0
LINE
8
Black
10
120.551
20
-94.0404
11
120.6
21
-93.7668
0
LINE
8
Black
10
120.6
20
-93.7668
11
120.739
21
-93.5262
0
LINE
8
Black
10
120.739
20
-93.5262
11
120.951
21
-93.3476
0
LINE
8
Black
10
120.951
20
-93.3476
11
121.213
21
-93.2526
0
LINE
8
Black
10
121.213
20
-93.2526
11
121.49
21
-93.2526
0
LINE
8
Black
10
121.49
20
-93.2526
11
121.751
21
-93.3476
0
LINE
8
Black
10
134.451
20
-93.3476
11
134.664
21
-93.5262
0
LINE
8
Black
10
134.664
20
-93.5262
11
134.803
21
-93.7668
0
LINE
8
Black
10
134.803
20
-93.7668
11
134.851
21
-94.0404
0
LINE
8
Black
10
134.851
20
-94.0404
11
134.851
21
-94.8496
0
LINE
8
Black
10
134.851
20
-94.8496
11
134.803
21
-95.1232
0
LINE
8
Black
10
134.803
20
-95.1232
11
134.664
21
-95.3638
0
LINE
8
Black
10
134.664
20
-95.3638
11
134.451
21
-95.5424
0
LINE
8
Black
10
134.451
20
-95.5424
11
134.19
21
-95.6374
0
LINE
8
Black
10
134.19
20
-95.6374
11
133.913
21
-95.6374
0
LINE
8
Black
10
133.913
20
-95.6374
11
133.651
21
-95.5424
0
LINE
8
Black
10
133.651
20
-95.5424
11
133.439
21
-95.3638
0
LINE
8
Black
10
133.439
20
-95.3638
11
133.3
21
-95.1232
0
LINE
8
Black
10
133.3
20
-95.1232
11
133.251
21
-94.8496
0
LINE
8
Black
10
133.251
20
-94.8496
11
133.251
21
-94.0404
0
LINE
8
Black
10
133.251
20
-94.0404
11
133.3
21
-93.7668
0
LINE
8
Black
10
133.3
20
-93.7668
11
133.439
21
-93.5262
0
LINE
8
Black
10
133.439
20
-93.5262
11
133.651
21
-93.3476
0
LINE
8
Black
10
133.651
20
-93.3476
11
133.913
21
-93.2526
0
LINE
8
Black
10
133.913
20
-93.2526
11
134.19
21
-93.2526
0
LINE
8
Black
10
134.19
20
-93.2526
11
134.451
21
-93.3476
0
LINE
8
Black
10
119.212
20
-93.3476
11
119.424
21
-93.5262
0
LINE
8
Black
10
119.424
20
-93.5262
11
119.563
21
-93.7668
0
LINE
8
Black
10
119.563
20
-93.7668
11
119.611
21
-94.0404
0
LINE
8
Black
10
119.611
20
-94.0404
11
119.611
21
-94.8496
0
LINE
8
Black
10
119.611
20
-94.8496
11
119.563
21
-95.1232
0
LINE
8
Black
10
119.563
20
-95.1232
11
119.424
21
-95.3638
0
LINE
8
Black
10
119.424
20
-95.3638
11
119.212
21
-95.5424
0
LINE
8
Black
10
119.212
20
-95.5424
11
118.95
21
-95.6374
0
LINE
8
Black
10
118.95
20
-95.6374
11
118.673
21
-95.6374
0
LINE
8
Black
10
118.673
20
-95.6374
11
118.411
21
-95.5424
0
LINE
8
Black
10
118.411
20
-95.5424
11
118.199
21
-95.3638
0
LINE
8
Black
10
118.199
20
-95.3638
11
118.06
21
-95.1232
0
LINE
8
Black
10
118.06
20
-95.1232
11
118.011
21
-94.8496
0
LINE
8
Black
10
118.011
20
-94.8496
11
118.011
21
-94.0404
0
LINE
8
Black
10
118.011
20
-94.0404
11
118.06
21
-93.7668
0
LINE
8
Black
10
118.06
20
-93.7668
11
118.199
21
-93.5262
0
LINE
8
Black
10
118.199
20
-93.5262
11
118.411
21
-93.3476
0
LINE
8
Black
10
118.411
20
-93.3476
11
118.673
21
-93.2526
0
LINE
8
Black
10
118.673
20
-93.2526
11
118.95
21
-93.2526
0
LINE
8
Black
10
118.95
20
-93.2526
11
119.212
21
-93.3476
0
LINE
8
Black
10
136.992
20
-93.3476
11
137.204
21
-93.5262
0
LINE
8
Black
10
137.204
20
-93.5262
11
137.343
21
-93.7668
0
LINE
8
Black
10
137.343
20
-93.7668
11
137.392
21
-94.0404
0
LINE
8
Black
10
137.392
20
-94.0404
11
137.392
21
-94.8496
0
LINE
8
Black
10
137.392
20
-94.8496
11
137.343
21
-95.1232
0
LINE
8
Black
10
137.343
20
-95.1232
11
137.204
21
-95.3638
0
LINE
8
Black
10
137.204
20
-95.3638
11
136.992
21
-95.5424
0
LINE
8
Black
10
136.992
20
-95.5424
11
136.73
21
-95.6374
0
LINE
8
Black
10
136.73
20
-95.6374
11
136.453
21
-95.6374
0
LINE
8
Black
10
136.453
20
-95.6374
11
136.191
21
-95.5424
0
LINE
8
Black
10
136.191
20
-95.5424
11
135.979
21
-95.3638
0
LINE
8
Black
10
135.979
20
-95.3638
11
135.84
21
-95.1232
0
LINE
8
Black
10
135.84
20
-95.1232
11
135.791
21
-94.8496
0
LINE
8
Black
10
135.791
20
-94.8496
11
135.791
21
-94.0404
0
LINE
8
Black
10
135.791
20
-94.0404
11
135.84
21
-93.7668
0
LINE
8
Black
10
135.84
20
-93.7668
11
135.979
21
-93.5262
0
LINE
8
Black
10
135.979
20
-93.5262
11
136.191
21
-93.3476
0
LINE
8
Black
10
136.191
20
-93.3476
11
136.453
21
-93.2526
0
LINE
8
Black
10
136.453
20
-93.2526
11
136.73
21
-93.2526
0
LINE
8
Black
10
136.73
20
-93.2526
11
136.992
21
-93.3476
0
LINE
8
Black
10
116.671
20
-93.3476
11
116.884
21
-93.5262
0
LINE
8
Black
10
116.884
20
-93.5262
11
117.023
21
-93.7668
0
LINE
8
Black
10
117.023
20
-93.7668
11
117.072
21
-94.0404
0
LINE
8
Black
10
117.072
20
-94.0404
11
117.072
21
-94.8496
0
LINE
8
Black
10
117.072
20
-94.8496
11
117.023
21
-95.1232
0
LINE
8
Black
10
117.023
20
-95.1232
11
116.884
21
-95.3638
0
LINE
8
Black
10
116.884
20
-95.3638
11
116.671
21
-95.5424
0
LINE
8
Black
10
116.671
20
-95.5424
11
116.41
21
-95.6374
0
LINE
8
Black
10
116.41
20
-95.6374
11
116.133
21
-95.6374
0
LINE
8
Black
10
116.133
20
-95.6374
11
115.871
21
-95.5424
0
LINE
8
Black
10
115.871
20
-95.5424
11
115.659
21
-95.3638
0
LINE
8
Black
10
115.659
20
-95.3638
11
115.52
21
-95.1232
0
LINE
8
Black
10
115.52
20
-95.1232
11
115.471
21
-94.8496
0
LINE
8
Black
10
115.471
20
-94.8496
11
115.471
21
-94.0404
0
LINE
8
Black
10
115.471
20
-94.0404
11
115.52
21
-93.7668
0
LINE
8
Black
10
115.52
20
-93.7668
11
115.659
21
-93.5262
0
LINE
8
Black
10
115.659
20
-93.5262
11
115.871
21
-93.3476
0
LINE
8
Black
10
115.871
20
-93.3476
11
116.133
21
-93.2526
0
LINE
8
Black
10
116.133
20
-93.2526
11
116.41
21
-93.2526
0
LINE
8
Black
10
116.41
20
-93.2526
11
116.671
21
-93.3476
0
LINE
8
Black
10
114.131
20
-93.3476
11
114.344
21
-93.5262
0
LINE
8
Black
10
114.344
20
-93.5262
11
114.483
21
-93.7668
0
LINE
8
Black
10
114.483
20
-93.7668
11
114.531
21
-94.0404
0
LINE
8
Black
10
114.531
20
-94.0404
11
114.531
21
-94.8496
0
LINE
8
Black
10
114.531
20
-94.8496
11
114.483
21
-95.1232
0
LINE
8
Black
10
114.483
20
-95.1232
11
114.344
21
-95.3638
0
LINE
8
Black
10
114.344
20
-95.3638
11
114.131
21
-95.5424
0
LINE
8
Black
10
114.131
20
-95.5424
11
113.87
21
-95.6374
0
LINE
8
Black
10
113.87
20
-95.6374
11
113.593
21
-95.6374
0
LINE
8
Black
10
113.593
20
-95.6374
11
113.331
21
-95.5424
0
LINE
8
Black
10
113.331
20
-95.5424
11
113.119
21
-95.3638
0
LINE
8
Black
10
113.119
20
-95.3638
11
112.98
21
-95.1232
0
LINE
8
Black
10
112.98
20
-95.1232
11
112.931
21
-94.8496
0
LINE
8
Black
10
112.931
20
-94.8496
11
112.931
21
-94.0404
0
LINE
8
Black
10
112.931
20
-94.0404
11
112.98
21
-93.7668
0
LINE
8
Black
10
112.98
20
-93.7668
11
113.119
21
-93.5262
0
LINE
8
Black
10
113.119
20
-93.5262
11
113.331
21
-93.3476
0
LINE
8
Black
10
113.331
20
-93.3476
11
113.593
21
-93.2526
0
LINE
8
Black
10
113.593
20
-93.2526
11
113.87
21
-93.2526
0
LINE
8
Black
10
113.87
20
-93.2526
11
114.131
21
-93.3476
0
LINE
8
Black
10
139.531
20
-93.3476
11
139.744
21
-93.5262
0
LINE
8
Black
10
139.744
20
-93.5262
11
139.883
21
-93.7668
0
LINE
8
Black
10
139.883
20
-93.7668
11
139.931
21
-94.0404
0
LINE
8
Black
10
139.931
20
-94.0404
11
139.931
21
-94.8496
0
LINE
8
Black
10
139.931
20
-94.8496
11
139.883
21
-95.1232
0
LINE
8
Black
10
139.883
20
-95.1232
11
139.744
21
-95.3638
0
LINE
8
Black
10
139.744
20
-95.3638
11
139.531
21
-95.5424
0
LINE
8
Black
10
139.531
20
-95.5424
11
139.27
21
-95.6374
0
LINE
8
Black
10
139.27
20
-95.6374
11
138.993
21
-95.6374
0
LINE
8
Black
10
138.993
20
-95.6374
11
138.731
21
-95.5424
0
LINE
8
Black
10
138.731
20
-95.5424
11
138.519
21
-95.3638
0
LINE
8
Black
10
138.519
20
-95.3638
11
138.38
21
-95.1232
0
LINE
8
Black
10
138.38
20
-95.1232
11
138.332
21
-94.8496
0
LINE
8
Black
10
138.332
20
-94.8496
11
138.332
21
-94.0404
0
LINE
8
Black
10
138.332
20
-94.0404
11
138.38
21
-93.7668
0
LINE
8
Black
10
138.38
20
-93.7668
11
138.519
21
-93.5262
0
LINE
8
Black
10
138.519
20
-93.5262
11
138.731
21
-93.3476
0
LINE
8
Black
10
138.731
20
-93.3476
11
138.993
21
-93.2526
0
LINE
8
Black
10
138.993
20
-93.2526
11
139.27
21
-93.2526
0
LINE
8
Black
10
139.27
20
-93.2526
11
139.531
21
-93.3476
0
LINE
8
Black
10
109.051
20
-93.3476
11
109.264
21
-93.5262
0
LINE
8
Black
10
109.264
20
-93.5262
11
109.403
21
-93.7668
0
LINE
8
Black
10
109.403
20
-93.7668
11
109.451
21
-94.0404
0
LINE
8
Black
10
109.451
20
-94.0404
11
109.451
21
-94.8496
0
LINE
8
Black
10
109.451
20
-94.8496
11
109.403
21
-95.1232
0
LINE
8
Black
10
109.403
20
-95.1232
11
109.264
21
-95.3638
0
LINE
8
Black
10
109.264
20
-95.3638
11
109.051
21
-95.5424
0
LINE
8
Black
10
109.051
20
-95.5424
11
108.79
21
-95.6374
0
LINE
8
Black
10
108.79
20
-95.6374
11
108.513
21
-95.6374
0
LINE
8
Black
10
108.513
20
-95.6374
11
108.251
21
-95.5424
0
LINE
8
Black
10
108.251
20
-95.5424
11
108.039
21
-95.3638
0
LINE
8
Black
10
108.039
20
-95.3638
11
107.9
21
-95.1232
0
LINE
8
Black
10
107.9
20
-95.1232
11
107.852
21
-94.8496
0
LINE
8
Black
10
107.852
20
-94.8496
11
107.852
21
-94.0404
0
LINE
8
Black
10
107.852
20
-94.0404
11
107.9
21
-93.7668
0
LINE
8
Black
10
107.9
20
-93.7668
11
108.039
21
-93.5262
0
LINE
8
Black
10
108.039
20
-93.5262
11
108.251
21
-93.3476
0
LINE
8
Black
10
108.251
20
-93.3476
11
108.513
21
-93.2526
0
LINE
8
Black
10
108.513
20
-93.2526
11
108.79
21
-93.2526
0
LINE
8
Black
10
108.79
20
-93.2526
11
109.051
21
-93.3476
0
LINE
8
Black
10
106.511
20
-93.3476
11
106.724
21
-93.5262
0
LINE
8
Black
10
106.724
20
-93.5262
11
106.863
21
-93.7668
0
LINE
8
Black
10
106.863
20
-93.7668
11
106.911
21
-94.0404
0
LINE
8
Black
10
106.911
20
-94.0404
11
106.911
21
-94.8496
0
LINE
8
Black
10
106.911
20
-94.8496
11
106.863
21
-95.1232
0
LINE
8
Black
10
106.863
20
-95.1232
11
106.724
21
-95.3638
0
LINE
8
Black
10
106.724
20
-95.3638
11
106.511
21
-95.5424
0
LINE
8
Black
10
106.511
20
-95.5424
11
106.25
21
-95.6374
0
LINE
8
Black
10
106.25
20
-95.6374
11
105.973
21
-95.6374
0
LINE
8
Black
10
105.973
20
-95.6374
11
105.712
21
-95.5424
0
LINE
8
Black
10
105.712
20
-95.5424
11
105.499
21
-95.3638
0
LINE
8
Black
10
105.499
20
-95.3638
11
105.36
21
-95.1232
0
LINE
8
Black
10
105.36
20
-95.1232
11
105.311
21
-94.8496
0
LINE
8
Black
10
105.311
20
-94.8496
11
105.311
21
-94.0404
0
LINE
8
Black
10
105.311
20
-94.0404
11
105.36
21
-93.7668
0
LINE
8
Black
10
105.36
20
-93.7668
11
105.499
21
-93.5262
0
LINE
8
Black
10
105.499
20
-93.5262
11
105.712
21
-93.3476
0
LINE
8
Black
10
105.712
20
-93.3476
11
105.973
21
-93.2526
0
LINE
8
Black
10
105.973
20
-93.2526
11
106.25
21
-93.2526
0
LINE
8
Black
10
106.25
20
-93.2526
11
106.511
21
-93.3476
0
LINE
8
Black
10
103.971
20
-93.3476
11
104.184
21
-93.5262
0
LINE
8
Black
10
104.184
20
-93.5262
11
104.323
21
-93.7668
0
LINE
8
Black
10
104.323
20
-93.7668
11
104.371
21
-94.0404
0
LINE
8
Black
10
104.371
20
-94.0404
11
104.371
21
-94.8496
0
LINE
8
Black
10
104.371
20
-94.8496
11
104.323
21
-95.1232
0
LINE
8
Black
10
104.323
20
-95.1232
11
104.184
21
-95.3638
0
LINE
8
Black
10
104.184
20
-95.3638
11
103.971
21
-95.5424
0
LINE
8
Black
10
103.971
20
-95.5424
11
103.71
21
-95.6374
0
LINE
8
Black
10
103.71
20
-95.6374
11
103.433
21
-95.6374
0
LINE
8
Black
10
103.433
20
-95.6374
11
103.171
21
-95.5424
0
LINE
8
Black
10
103.171
20
-95.5424
11
102.959
21
-95.3638
0
LINE
8
Black
10
102.959
20
-95.3638
11
102.82
21
-95.1232
0
LINE
8
Black
10
102.82
20
-95.1232
11
102.771
21
-94.8496
0
LINE
8
Black
10
102.771
20
-94.8496
11
102.771
21
-94.0404
0
LINE
8
Black
10
102.771
20
-94.0404
11
102.82
21
-93.7668
0
LINE
8
Black
10
102.82
20
-93.7668
11
102.959
21
-93.5262
0
LINE
8
Black
10
102.959
20
-93.5262
11
103.171
21
-93.3476
0
LINE
8
Black
10
103.171
20
-93.3476
11
103.433
21
-93.2526
0
LINE
8
Black
10
103.433
20
-93.2526
11
103.71
21
-93.2526
0
LINE
8
Black
10
103.71
20
-93.2526
11
103.971
21
-93.3476
0
LINE
8
Black
10
101.431
20
-93.3476
11
101.644
21
-93.5262
0
LINE
8
Black
10
101.644
20
-93.5262
11
101.783
21
-93.7668
0
LINE
8
Black
10
101.783
20
-93.7668
11
101.831
21
-94.0404
0
LINE
8
Black
10
101.831
20
-94.0404
11
101.831
21
-94.8496
0
LINE
8
Black
10
101.831
20
-94.8496
11
101.783
21
-95.1232
0
LINE
8
Black
10
101.783
20
-95.1232
11
101.644
21
-95.3638
0
LINE
8
Black
10
101.644
20
-95.3638
11
101.431
21
-95.5424
0
LINE
8
Black
10
101.431
20
-95.5424
11
101.17
21
-95.6374
0
LINE
8
Black
10
101.17
20
-95.6374
11
100.893
21
-95.6374
0
LINE
8
Black
10
100.893
20
-95.6374
11
100.631
21
-95.5424
0
LINE
8
Black
10
100.631
20
-95.5424
11
100.419
21
-95.3638
0
LINE
8
Black
10
100.419
20
-95.3638
11
100.28
21
-95.1232
0
LINE
8
Black
10
100.28
20
-95.1232
11
100.231
21
-94.8496
0
LINE
8
Black
10
100.231
20
-94.8496
11
100.231
21
-94.0404
0
LINE
8
Black
10
100.231
20
-94.0404
11
100.28
21
-93.7668
0
LINE
8
Black
10
100.28
20
-93.7668
11
100.419
21
-93.5262
0
LINE
8
Black
10
100.419
20
-93.5262
11
100.631
21
-93.3476
0
LINE
8
Black
10
100.631
20
-93.3476
11
100.893
21
-93.2526
0
LINE
8
Black
10
100.893
20
-93.2526
11
101.17
21
-93.2526
0
LINE
8
Black
10
101.17
20
-93.2526
11
101.431
21
-93.3476
0
LINE
8
Black
10
98.8915
20
-93.3476
11
99.1043
21
-93.5262
0
LINE
8
Black
10
99.1043
20
-93.5262
11
99.2433
21
-93.7668
0
LINE
8
Black
10
99.2433
20
-93.7668
11
99.2915
21
-94.0404
0
LINE
8
Black
10
99.2915
20
-94.0404
11
99.2915
21
-94.8496
0
LINE
8
Black
10
99.2915
20
-94.8496
11
99.2433
21
-95.1232
0
LINE
8
Black
10
99.2433
20
-95.1232
11
99.1043
21
-95.3638
0
LINE
8
Black
10
99.1043
20
-95.3638
11
98.8915
21
-95.5424
0
LINE
8
Black
10
98.8915
20
-95.5424
11
98.6304
21
-95.6374
0
LINE
8
Black
10
98.6304
20
-95.6374
11
98.3526
21
-95.6374
0
LINE
8
Black
10
98.3526
20
-95.6374
11
98.0915
21
-95.5424
0
LINE
8
Black
10
98.0915
20
-95.5424
11
97.8787
21
-95.3638
0
LINE
8
Black
10
97.8787
20
-95.3638
11
97.7397
21
-95.1232
0
LINE
8
Black
10
97.7397
20
-95.1232
11
97.6915
21
-94.8496
0
LINE
8
Black
10
97.6915
20
-94.8496
11
97.6915
21
-94.0404
0
LINE
8
Black
10
97.6915
20
-94.0404
11
97.7397
21
-93.7668
0
LINE
8
Black
10
97.7397
20
-93.7668
11
97.8787
21
-93.5262
0
LINE
8
Black
10
97.8787
20
-93.5262
11
98.0915
21
-93.3476
0
LINE
8
Black
10
98.0915
20
-93.3476
11
98.3526
21
-93.2526
0
LINE
8
Black
10
98.3526
20
-93.2526
11
98.6304
21
-93.2526
0
LINE
8
Black
10
98.6304
20
-93.2526
11
98.8915
21
-93.3476
0
LINE
8
Black
10
144.612
20
-93.3476
11
144.824
21
-93.5262
0
LINE
8
Black
10
144.824
20
-93.5262
11
144.963
21
-93.7668
0
LINE
8
Black
10
144.963
20
-93.7668
11
145.011
21
-94.0404
0
LINE
8
Black
10
145.011
20
-94.0404
11
145.011
21
-94.8496
0
LINE
8
Black
10
145.011
20
-94.8496
11
144.963
21
-95.1232
0
LINE
8
Black
10
144.963
20
-95.1232
11
144.824
21
-95.3638
0
LINE
8
Black
10
144.824
20
-95.3638
11
144.612
21
-95.5424
0
LINE
8
Black
10
144.612
20
-95.5424
11
144.35
21
-95.6374
0
LINE
8
Black
10
144.35
20
-95.6374
11
144.073
21
-95.6374
0
LINE
8
Black
10
144.073
20
-95.6374
11
143.811
21
-95.5424
0
LINE
8
Black
10
143.811
20
-95.5424
11
143.599
21
-95.3638
0
LINE
8
Black
10
143.599
20
-95.3638
11
143.46
21
-95.1232
0
LINE
8
Black
10
143.46
20
-95.1232
11
143.411
21
-94.8496
0
LINE
8
Black
10
143.411
20
-94.8496
11
143.411
21
-94.0404
0
LINE
8
Black
10
143.411
20
-94.0404
11
143.46
21
-93.7668
0
LINE
8
Black
10
143.46
20
-93.7668
11
143.599
21
-93.5262
0
LINE
8
Black
10
143.599
20
-93.5262
11
143.811
21
-93.3476
0
LINE
8
Black
10
143.811
20
-93.3476
11
144.073
21
-93.2526
0
LINE
8
Black
10
144.073
20
-93.2526
11
144.35
21
-93.2526
0
LINE
8
Black
10
144.35
20
-93.2526
11
144.612
21
-93.3476
0
LINE
8
Black
10
147.151
20
-93.3476
11
147.364
21
-93.5262
0
LINE
8
Black
10
147.364
20
-93.5262
11
147.503
21
-93.7668
0
LINE
8
Black
10
147.503
20
-93.7668
11
147.552
21
-94.0404
0
LINE
8
Black
10
147.552
20
-94.0404
11
147.552
21
-94.8496
0
LINE
8
Black
10
147.552
20
-94.8496
11
147.503
21
-95.1232
0
LINE
8
Black
10
147.503
20
-95.1232
11
147.364
21
-95.3638
0
LINE
8
Black
10
147.364
20
-95.3638
11
147.151
21
-95.5424
0
LINE
8
Black
10
147.151
20
-95.5424
11
146.89
21
-95.6374
0
LINE
8
Black
10
146.89
20
-95.6374
11
146.613
21
-95.6374
0
LINE
8
Black
10
146.613
20
-95.6374
11
146.351
21
-95.5424
0
LINE
8
Black
10
146.351
20
-95.5424
11
146.139
21
-95.3638
0
LINE
8
Black
10
146.139
20
-95.3638
11
146
21
-95.1232
0
LINE
8
Black
10
146
20
-95.1232
11
145.951
21
-94.8496
0
LINE
8
Black
10
145.951
20
-94.8496
11
145.951
21
-94.0404
0
LINE
8
Black
10
145.951
20
-94.0404
11
146
21
-93.7668
0
LINE
8
Black
10
146
20
-93.7668
11
146.139
21
-93.5262
0
LINE
8
Black
10
146.139
20
-93.5262
11
146.351
21
-93.3476
0
LINE
8
Black
10
146.351
20
-93.3476
11
146.613
21
-93.2526
0
LINE
8
Black
10
146.613
20
-93.2526
11
146.89
21
-93.2526
0
LINE
8
Black
10
146.89
20
-93.2526
11
147.151
21
-93.3476
0
LINE
8
Black
10
101.328
20
-90.4533
11
101.644
21
-90.6357
0
LINE
8
Black
10
101.644
20
-90.6357
11
101.878
21
-90.915
0
LINE
8
Black
10
101.878
20
-90.915
11
102.003
21
-91.2577
0
LINE
8
Black
10
102.003
20
-91.2577
11
102.003
21
-91.6223
0
LINE
8
Black
10
102.003
20
-91.6223
11
101.878
21
-91.965
0
LINE
8
Black
10
101.878
20
-91.965
11
101.644
21
-92.2443
0
LINE
8
Black
10
101.644
20
-92.2443
11
101.328
21
-92.4267
0
LINE
8
Black
10
101.328
20
-92.4267
11
100.969
21
-92.49
0
LINE
8
Black
10
100.969
20
-92.49
11
100.961
21
-92.49
0
LINE
8
Black
10
100.961
20
-92.49
11
100.602
21
-92.4267
0
LINE
8
Black
10
100.602
20
-92.4267
11
100.286
21
-92.2443
0
LINE
8
Black
10
100.286
20
-92.2443
11
100.052
21
-91.965
0
LINE
8
Black
10
100.052
20
-91.965
11
99.9269
21
-91.6223
0
LINE
8
Black
10
99.9269
20
-91.6223
11
99.9269
21
-91.2577
0
LINE
8
Black
10
99.9269
20
-91.2577
11
100.052
21
-90.915
0
LINE
8
Black
10
100.052
20
-90.915
11
100.286
21
-90.6357
0
LINE
8
Black
10
100.286
20
-90.6357
11
100.602
21
-90.4533
0
LINE
8
Black
10
100.602
20
-90.4533
11
100.961
21
-90.39
0
LINE
8
Black
10
100.961
20
-90.39
11
100.969
21
-90.39
0
LINE
8
Black
10
100.969
20
-90.39
11
101.328
21
-90.4533
0
LINE
8
Black
10
106.154
20
-90.4533
11
106.47
21
-90.6357
0
LINE
8
Black
10
106.47
20
-90.6357
11
106.704
21
-90.915
0
LINE
8
Black
10
106.704
20
-90.915
11
106.829
21
-91.2577
0
LINE
8
Black
10
106.829
20
-91.2577
11
106.829
21
-91.6223
0
LINE
8
Black
10
106.829
20
-91.6223
11
106.704
21
-91.965
0
LINE
8
Black
10
106.704
20
-91.965
11
106.47
21
-92.2443
0
LINE
8
Black
10
106.47
20
-92.2443
11
106.154
21
-92.4267
0
LINE
8
Black
10
106.154
20
-92.4267
11
105.795
21
-92.49
0
LINE
8
Black
10
105.795
20
-92.49
11
105.787
21
-92.49
0
LINE
8
Black
10
105.787
20
-92.49
11
105.428
21
-92.4267
0
LINE
8
Black
10
105.428
20
-92.4267
11
105.112
21
-92.2443
0
LINE
8
Black
10
105.112
20
-92.2443
11
104.878
21
-91.965
0
LINE
8
Black
10
104.878
20
-91.965
11
104.753
21
-91.6223
0
LINE
8
Black
10
104.753
20
-91.6223
11
104.753
21
-91.2577
0
LINE
8
Black
10
104.753
20
-91.2577
11
104.878
21
-90.915
0
LINE
8
Black
10
104.878
20
-90.915
11
105.112
21
-90.6357
0
LINE
8
Black
10
105.112
20
-90.6357
11
105.428
21
-90.4533
0
LINE
8
Black
10
105.428
20
-90.4533
11
105.787
21
-90.39
0
LINE
8
Black
10
105.787
20
-90.39
11
105.795
21
-90.39
0
LINE
8
Black
10
105.795
20
-90.39
11
106.154
21
-90.4533
0
LINE
8
Black
10
106.154
20
-87.9133
11
106.47
21
-88.0957
0
LINE
8
Black
10
106.47
20
-88.0957
11
106.704
21
-88.375
0
LINE
8
Black
10
106.704
20
-88.375
11
106.829
21
-88.7177
0
LINE
8
Black
10
106.829
20
-88.7177
11
106.829
21
-89.0823
0
LINE
8
Black
10
106.829
20
-89.0823
11
106.704
21
-89.425
0
LINE
8
Black
10
106.704
20
-89.425
11
106.47
21
-89.7043
0
LINE
8
Black
10
106.47
20
-89.7043
11
106.154
21
-89.8867
0
LINE
8
Black
10
106.154
20
-89.8867
11
105.795
21
-89.95
0
LINE
8
Black
10
105.795
20
-89.95
11
105.787
21
-89.95
0
LINE
8
Black
10
105.787
20
-89.95
11
105.428
21
-89.8867
0
LINE
8
Black
10
105.428
20
-89.8867
11
105.112
21
-89.7043
0
LINE
8
Black
10
105.112
20
-89.7043
11
104.878
21
-89.425
0
LINE
8
Black
10
104.878
20
-89.425
11
104.753
21
-89.0823
0
LINE
8
Black
10
104.753
20
-89.0823
11
104.753
21
-88.7177
0
LINE
8
Black
10
104.753
20
-88.7177
11
104.878
21
-88.375
0
LINE
8
Black
10
104.878
20
-88.375
11
105.112
21
-88.0957
0
LINE
8
Black
10
105.112
20
-88.0957
11
105.428
21
-87.9133
0
LINE
8
Black
10
105.428
20
-87.9133
11
105.787
21
-87.85
0
LINE
8
Black
10
105.787
20
-87.85
11
105.795
21
-87.85
0
LINE
8
Black
10
105.795
20
-87.85
11
106.154
21
-87.9133
0
LINE
8
Black
10
101.328
20
-87.9133
11
101.644
21
-88.0957
0
LINE
8
Black
10
101.644
20
-88.0957
11
101.878
21
-88.375
0
LINE
8
Black
10
101.878
20
-88.375
11
102.003
21
-88.7177
0
LINE
8
Black
10
102.003
20
-88.7177
11
102.003
21
-89.0823
0
LINE
8
Black
10
102.003
20
-89.0823
11
101.878
21
-89.425
0
LINE
8
Black
10
101.878
20
-89.425
11
101.644
21
-89.7043
0
LINE
8
Black
10
101.644
20
-89.7043
11
101.328
21
-89.8867
0
LINE
8
Black
10
101.328
20
-89.8867
11
100.969
21
-89.95
0
LINE
8
Black
10
100.969
20
-89.95
11
100.961
21
-89.95
0
LINE
8
Black
10
100.961
20
-89.95
11
100.602
21
-89.8867
0
LINE
8
Black
10
100.602
20
-89.8867
11
100.286
21
-89.7043
0
LINE
8
Black
10
100.286
20
-89.7043
11
100.052
21
-89.425
0
LINE
8
Black
10
100.052
20
-89.425
11
99.9269
21
-89.0823
0
LINE
8
Black
10
99.9269
20
-89.0823
11
99.9269
21
-88.7177
0
LINE
8
Black
10
99.9269
20
-88.7177
11
100.052
21
-88.375
0
LINE
8
Black
10
100.052
20
-88.375
11
100.286
21
-88.0957
0
LINE
8
Black
10
100.286
20
-88.0957
11
100.602
21
-87.9133
0
LINE
8
Black
10
100.602
20
-87.9133
11
100.961
21
-87.85
0
LINE
8
Black
10
100.961
20
-87.85
11
100.969
21
-87.85
0
LINE
8
Black
10
100.969
20
-87.85
11
101.328
21
-87.9133
0
LINE
8
Black
10
106.841
20
-87.41
11
104.741
21
-87.41
0
LINE
8
Black
10
104.741
20
-87.41
11
104.741
21
-85.31
0
LINE
8
Black
10
104.741
20
-85.31
11
106.841
21
-85.31
0
LINE
8
Black
10
106.841
20
-85.31
11
106.841
21
-87.41
0
LINE
8
Black
10
102.015
20
-87.41
11
99.915
21
-87.41
0
LINE
8
Black
10
99.915
20
-87.41
11
99.915
21
-85.31
0
LINE
8
Black
10
99.915
20
-85.31
11
102.015
21
-85.31
0
LINE
8
Black
10
102.015
20
-85.31
11
102.015
21
-87.41
0
LINE
8
Black
10
126.057
20
-85.655
11
117.782
21
-85.655
0
LINE
8
Black
10
117.782
20
-85.655
11
117.782
21
-83.255
0
LINE
8
Black
10
117.782
20
-83.255
11
126.057
21
-83.255
0
LINE
8
Black
10
126.057
20
-83.255
11
126.057
21
-85.655
0
LINE
8
Black
10
137.933
20
-85.655
11
129.657
21
-85.655
0
LINE
8
Black
10
129.657
20
-85.655
11
129.657
21
-83.255
0
LINE
8
Black
10
129.657
20
-83.255
11
137.933
21
-83.255
0
LINE
8
Black
10
137.933
20
-83.255
11
137.933
21
-85.655
0
LINE
8
Black
10
101.328
20
-81.5633
11
101.644
21
-81.7457
0
LINE
8
Black
10
101.644
20
-81.7457
11
101.878
21
-82.025
0
LINE
8
Black
10
101.878
20
-82.025
11
102.003
21
-82.3677
0
LINE
8
Black
10
102.003
20
-82.3677
11
102.003
21
-82.7323
0
LINE
8
Black
10
102.003
20
-82.7323
11
101.878
21
-83.075
0
LINE
8
Black
10
101.878
20
-83.075
11
101.644
21
-83.3543
0
LINE
8
Black
10
101.644
20
-83.3543
11
101.328
21
-83.5367
0
LINE
8
Black
10
101.328
20
-83.5367
11
100.969
21
-83.6
0
LINE
8
Black
10
100.969
20
-83.6
11
100.961
21
-83.6
0
LINE
8
Black
10
100.961
20
-83.6
11
100.602
21
-83.5367
0
LINE
8
Black
10
100.602
20
-83.5367
11
100.286
21
-83.3543
0
LINE
8
Black
10
100.286
20
-83.3543
11
100.052
21
-83.075
0
LINE
8
Black
10
100.052
20
-83.075
11
99.9269
21
-82.7323
0
LINE
8
Black
10
99.9269
20
-82.7323
11
99.9269
21
-82.3677
0
LINE
8
Black
10
99.9269
20
-82.3677
11
100.052
21
-82.025
0
LINE
8
Black
10
100.052
20
-82.025
11
100.286
21
-81.7457
0
LINE
8
Black
10
100.286
20
-81.7457
11
100.602
21
-81.5633
0
LINE
8
Black
10
100.602
20
-81.5633
11
100.961
21
-81.5
0
LINE
8
Black
10
100.961
20
-81.5
11
100.969
21
-81.5
0
LINE
8
Black
10
100.969
20
-81.5
11
101.328
21
-81.5633
0
LINE
8
Black
10
111.107
20
-81.5633
11
111.423
21
-81.7457
0
LINE
8
Black
10
111.423
20
-81.7457
11
111.657
21
-82.025
0
LINE
8
Black
10
111.657
20
-82.025
11
111.782
21
-82.3677
0
LINE
8
Black
10
111.782
20
-82.3677
11
111.782
21
-82.7323
0
LINE
8
Black
10
111.782
20
-82.7323
11
111.657
21
-83.075
0
LINE
8
Black
10
111.657
20
-83.075
11
111.423
21
-83.3543
0
LINE
8
Black
10
111.423
20
-83.3543
11
111.107
21
-83.5367
0
LINE
8
Black
10
111.107
20
-83.5367
11
110.748
21
-83.6
0
LINE
8
Black
10
110.748
20
-83.6
11
110.74
21
-83.6
0
LINE
8
Black
10
110.74
20
-83.6
11
110.381
21
-83.5367
0
LINE
8
Black
10
110.381
20
-83.5367
11
110.065
21
-83.3543
0
LINE
8
Black
10
110.065
20
-83.3543
11
109.831
21
-83.075
0
LINE
8
Black
10
109.831
20
-83.075
11
109.706
21
-82.7323
0
LINE
8
Black
10
109.706
20
-82.7323
11
109.706
21
-82.3677
0
LINE
8
Black
10
109.706
20
-82.3677
11
109.831
21
-82.025
0
LINE
8
Black
10
109.831
20
-82.025
11
110.065
21
-81.7457
0
LINE
8
Black
10
110.065
20
-81.7457
11
110.381
21
-81.5633
0
LINE
8
Black
10
110.381
20
-81.5633
11
110.74
21
-81.5
0
LINE
8
Black
10
110.74
20
-81.5
11
110.748
21
-81.5
0
LINE
8
Black
10
110.748
20
-81.5
11
111.107
21
-81.5633
0
LINE
8
Black
10
106.154
20
-81.5633
11
106.47
21
-81.7457
0
LINE
8
Black
10
106.47
20
-81.7457
11
106.704
21
-82.025
0
LINE
8
Black
10
106.704
20
-82.025
11
106.829
21
-82.3677
0
LINE
8
Black
10
106.829
20
-82.3677
11
106.829
21
-82.7323
0
LINE
8
Black
10
106.829
20
-82.7323
11
106.704
21
-83.075
0
LINE
8
Black
10
106.704
20
-83.075
11
106.47
21
-83.3543
0
LINE
8
Black
10
106.47
20
-83.3543
11
106.154
21
-83.5367
0
LINE
8
Black
10
106.154
20
-83.5367
11
105.795
21
-83.6
0
LINE
8
Black
10
105.795
20
-83.6
11
105.787
21
-83.6
0
LINE
8
Black
10
105.787
20
-83.6
11
105.428
21
-83.5367
0
LINE
8
Black
10
105.428
20
-83.5367
11
105.112
21
-83.3543
0
LINE
8
Black
10
105.112
20
-83.3543
11
104.878
21
-83.075
0
LINE
8
Black
10
104.878
20
-83.075
11
104.753
21
-82.7323
0
LINE
8
Black
10
104.753
20
-82.7323
11
104.753
21
-82.3677
0
LINE
8
Black
10
104.753
20
-82.3677
11
104.878
21
-82.025
0
LINE
8
Black
10
104.878
20
-82.025
11
105.112
21
-81.7457
0
LINE
8
Black
10
105.112
20
-81.7457
11
105.428
21
-81.5633
0
LINE
8
Black
10
105.428
20
-81.5633
11
105.787
21
-81.5
0
LINE
8
Black
10
105.787
20
-81.5
11
105.795
21
-81.5
0
LINE
8
Black
10
105.795
20
-81.5
11
106.154
21
-81.5633
0
LINE
8
Black
10
161.05
20
-82.765
11
159.15
21
-82.765
0
LINE
8
Black
10
159.15
20
-82.765
11
159.15
21
-81.065
0
LINE
8
Black
10
159.15
20
-81.065
11
161.05
21
-81.065
0
LINE
8
Black
10
161.05
20
-81.065
11
161.05
21
-82.765
0
LINE
8
Black
10
158.35
20
-82.765
11
156.45
21
-82.765
0
LINE
8
Black
10
156.45
20
-82.765
11
156.45
21
-81.065
0
LINE
8
Black
10
156.45
20
-81.065
11
158.35
21
-81.065
0
LINE
8
Black
10
158.35
20
-81.065
11
158.35
21
-82.765
0
LINE
8
Black
10
111.107
20
-79.0233
11
111.423
21
-79.2057
0
LINE
8
Black
10
111.423
20
-79.2057
11
111.657
21
-79.485
0
LINE
8
Black
10
111.657
20
-79.485
11
111.782
21
-79.8277
0
LINE
8
Black
10
111.782
20
-79.8277
11
111.782
21
-80.1923
0
LINE
8
Black
10
111.782
20
-80.1923
11
111.657
21
-80.535
0
LINE
8
Black
10
111.657
20
-80.535
11
111.423
21
-80.8143
0
LINE
8
Black
10
111.423
20
-80.8143
11
111.107
21
-80.9967
0
LINE
8
Black
10
111.107
20
-80.9967
11
110.748
21
-81.06
0
LINE
8
Black
10
110.748
20
-81.06
11
110.74
21
-81.06
0
LINE
8
Black
10
110.74
20
-81.06
11
110.381
21
-80.9967
0
LINE
8
Black
10
110.381
20
-80.9967
11
110.065
21
-80.8143
0
LINE
8
Black
10
110.065
20
-80.8143
11
109.831
21
-80.535
0
LINE
8
Black
10
109.831
20
-80.535
11
109.706
21
-80.1923
0
LINE
8
Black
10
109.706
20
-80.1923
11
109.706
21
-79.8277
0
LINE
8
Black
10
109.706
20
-79.8277
11
109.831
21
-79.485
0
LINE
8
Black
10
109.831
20
-79.485
11
110.065
21
-79.2057
0
LINE
8
Black
10
110.065
20
-79.2057
11
110.381
21
-79.0233
0
LINE
8
Black
10
110.381
20
-79.0233
11
110.74
21
-78.96
0
LINE
8
Black
10
110.74
20
-78.96
11
110.748
21
-78.96
0
LINE
8
Black
10
110.748
20
-78.96
11
111.107
21
-79.0233
0
LINE
8
Black
10
101.328
20
-79.0233
11
101.644
21
-79.2057
0
LINE
8
Black
10
101.644
20
-79.2057
11
101.878
21
-79.485
0
LINE
8
Black
10
101.878
20
-79.485
11
102.003
21
-79.8277
0
LINE
8
Black
10
102.003
20
-79.8277
11
102.003
21
-80.1923
0
LINE
8
Black
10
102.003
20
-80.1923
11
101.878
21
-80.535
0
LINE
8
Black
10
101.878
20
-80.535
11
101.644
21
-80.8143
0
LINE
8
Black
10
101.644
20
-80.8143
11
101.328
21
-80.9967
0
LINE
8
Black
10
101.328
20
-80.9967
11
100.969
21
-81.06
0
LINE
8
Black
10
100.969
20
-81.06
11
100.961
21
-81.06
0
LINE
8
Black
10
100.961
20
-81.06
11
100.602
21
-80.9967
0
LINE
8
Black
10
100.602
20
-80.9967
11
100.286
21
-80.8143
0
LINE
8
Black
10
100.286
20
-80.8143
11
100.052
21
-80.535
0
LINE
8
Black
10
100.052
20
-80.535
11
99.9269
21
-80.1923
0
LINE
8
Black
10
99.9269
20
-80.1923
11
99.9269
21
-79.8277
0
LINE
8
Black
10
99.9269
20
-79.8277
11
100.052
21
-79.485
0
LINE
8
Black
10
100.052
20
-79.485
11
100.286
21
-79.2057
0
LINE
8
Black
10
100.286
20
-79.2057
11
100.602
21
-79.0233
0
LINE
8
Black
10
100.602
20
-79.0233
11
100.961
21
-78.96
0
LINE
8
Black
10
100.961
20
-78.96
11
100.969
21
-78.96
0
LINE
8
Black
10
100.969
20
-78.96
11
101.328
21
-79.0233
0
LINE
8
Black
10
106.154
20
-79.0233
11
106.47
21
-79.2057
0
LINE
8
Black
10
106.47
20
-79.2057
11
106.704
21
-79.485
0
LINE
8
Black
10
106.704
20
-79.485
11
106.829
21
-79.8277
0
LINE
8
Black
10
106.829
20
-79.8277
11
106.829
21
-80.1923
0
LINE
8
Black
10
106.829
20
-80.1923
11
106.704
21
-80.535
0
LINE
8
Black
10
106.704
20
-80.535
11
106.47
21
-80.8143
0
LINE
8
Black
10
106.47
20
-80.8143
11
106.154
21
-80.9967
0
LINE
8
Black
10
106.154
20
-80.9967
11
105.795
21
-81.06
0
LINE
8
Black
10
105.795
20
-81.06
11
105.787
21
-81.06
0
LINE
8
Black
10
105.787
20
-81.06
11
105.428
21
-80.9967
0
LINE
8
Black
10
105.428
20
-80.9967
11
105.112
21
-80.8143
0
LINE
8
Black
10
105.112
20
-80.8143
11
104.878
21
-80.535
0
LINE
8
Black
10
104.878
20
-80.535
11
104.753
21
-80.1923
0
LINE
8
Black
10
104.753
20
-80.1923
11
104.753
21
-79.8277
0
LINE
8
Black
10
104.753
20
-79.8277
11
104.878
21
-79.485
0
LINE
8
Black
10
104.878
20
-79.485
11
105.112
21
-79.2057
0
LINE
8
Black
10
105.112
20
-79.2057
11
105.428
21
-79.0233
0
LINE
8
Black
10
105.428
20
-79.0233
11
105.787
21
-78.96
0
LINE
8
Black
10
105.787
20
-78.96
11
105.795
21
-78.96
0
LINE
8
Black
10
105.795
20
-78.96
11
106.154
21
-79.0233
0
LINE
8
Black
10
120.945
20
-79.565
11
119.045
21
-79.565
0
LINE
8
Black
10
119.045
20
-79.565
11
119.045
21
-77.915
0
LINE
8
Black
10
119.045
20
-77.915
11
120.945
21
-77.915
0
LINE
8
Black
10
120.945
20
-77.915
11
120.945
21
-79.565
0
LINE
8
Black
10
118.445
20
-79.565
11
116.545
21
-79.565
0
LINE
8
Black
10
116.545
20
-79.565
11
116.545
21
-77.915
0
LINE
8
Black
10
116.545
20
-77.915
11
118.445
21
-77.915
0
LINE
8
Black
10
118.445
20
-77.915
11
118.445
21
-79.565
0
LINE
8
Black
10
130.51
20
-79.311
11
128.61
21
-79.311
0
LINE
8
Black
10
128.61
20
-79.311
11
128.61
21
-77.661
0
LINE
8
Black
10
128.61
20
-77.661
11
130.51
21
-77.661
0
LINE
8
Black
10
130.51
20
-77.661
11
130.51
21
-79.311
0
LINE
8
Black
10
133.01
20
-79.311
11
131.11
21
-79.311
0
LINE
8
Black
10
131.11
20
-79.311
11
131.11
21
-77.661
0
LINE
8
Black
10
131.11
20
-77.661
11
133.01
21
-77.661
0
LINE
8
Black
10
133.01
20
-77.661
11
133.01
21
-79.311
0
LINE
8
Black
10
150.155
20
-78.93
11
148.255
21
-78.93
0
LINE
8
Black
10
148.255
20
-78.93
11
148.255
21
-77.28
0
LINE
8
Black
10
148.255
20
-77.28
11
150.155
21
-77.28
0
LINE
8
Black
10
150.155
20
-77.28
11
150.155
21
-78.93
0
LINE
8
Black
10
147.655
20
-78.93
11
145.755
21
-78.93
0
LINE
8
Black
10
145.755
20
-78.93
11
145.755
21
-77.28
0
LINE
8
Black
10
145.755
20
-77.28
11
147.655
21
-77.28
0
LINE
8
Black
10
147.655
20
-77.28
11
147.655
21
-78.93
0
LINE
8
Black
10
102.015
20
-78.52
11
99.915
21
-78.52
0
LINE
8
Black
10
99.915
20
-78.52
11
99.915
21
-76.42
0
LINE
8
Black
10
99.915
20
-76.42
11
102.015
21
-76.42
0
LINE
8
Black
10
102.015
20
-76.42
11
102.015
21
-78.52
0
LINE
8
Black
10
106.841
20
-78.52
11
104.741
21
-78.52
0
LINE
8
Black
10
104.741
20
-78.52
11
104.741
21
-76.42
0
LINE
8
Black
10
104.741
20
-76.42
11
106.841
21
-76.42
0
LINE
8
Black
10
106.841
20
-76.42
11
106.841
21
-78.52
0
LINE
8
Black
10
111.794
20
-78.52
11
109.694
21
-78.52
0
LINE
8
Black
10
109.694
20
-78.52
11
109.694
21
-76.42
0
LINE
8
Black
10
109.694
20
-76.42
11
111.794
21
-76.42
0
LINE
8
Black
10
111.794
20
-76.42
11
111.794
21
-78.52
0
LINE
8
Black
10
149.691
20
-73.0276
11
149.904
21
-73.2062
0
LINE
8
Black
10
149.904
20
-73.2062
11
150.043
21
-73.4468
0
LINE
8
Black
10
150.043
20
-73.4468
11
150.091
21
-73.7204
0
LINE
8
Black
10
150.091
20
-73.7204
11
150.091
21
-74.5296
0
LINE
8
Black
10
150.091
20
-74.5296
11
150.043
21
-74.8032
0
LINE
8
Black
10
150.043
20
-74.8032
11
149.904
21
-75.0438
0
LINE
8
Black
10
149.904
20
-75.0438
11
149.691
21
-75.2224
0
LINE
8
Black
10
149.691
20
-75.2224
11
149.43
21
-75.3174
0
LINE
8
Black
10
149.43
20
-75.3174
11
149.153
21
-75.3174
0
LINE
8
Black
10
149.153
20
-75.3174
11
148.891
21
-75.2224
0
LINE
8
Black
10
148.891
20
-75.2224
11
148.679
21
-75.0438
0
LINE
8
Black
10
148.679
20
-75.0438
11
148.54
21
-74.8032
0
LINE
8
Black
10
148.54
20
-74.8032
11
148.492
21
-74.5296
0
LINE
8
Black
10
148.492
20
-74.5296
11
148.492
21
-73.7204
0
LINE
8
Black
10
148.492
20
-73.7204
11
148.54
21
-73.4468
0
LINE
8
Black
10
148.54
20
-73.4468
11
148.679
21
-73.2062
0
LINE
8
Black
10
148.679
20
-73.2062
11
148.891
21
-73.0276
0
LINE
8
Black
10
148.891
20
-73.0276
11
149.153
21
-72.9326
0
LINE
8
Black
10
149.153
20
-72.9326
11
149.43
21
-72.9326
0
LINE
8
Black
10
149.43
20
-72.9326
11
149.691
21
-73.0276
0
LINE
8
Black
10
152.231
20
-73.0276
11
152.444
21
-73.2062
0
LINE
8
Black
10
152.444
20
-73.2062
11
152.583
21
-73.4468
0
LINE
8
Black
10
152.583
20
-73.4468
11
152.631
21
-73.7204
0
LINE
8
Black
10
152.631
20
-73.7204
11
152.631
21
-74.5296
0
LINE
8
Black
10
152.631
20
-74.5296
11
152.583
21
-74.8032
0
LINE
8
Black
10
152.583
20
-74.8032
11
152.444
21
-75.0438
0
LINE
8
Black
10
152.444
20
-75.0438
11
152.231
21
-75.2224
0
LINE
8
Black
10
152.231
20
-75.2224
11
151.97
21
-75.3174
0
LINE
8
Black
10
151.97
20
-75.3174
11
151.693
21
-75.3174
0
LINE
8
Black
10
151.693
20
-75.3174
11
151.431
21
-75.2224
0
LINE
8
Black
10
151.431
20
-75.2224
11
151.219
21
-75.0438
0
LINE
8
Black
10
151.219
20
-75.0438
11
151.08
21
-74.8032
0
LINE
8
Black
10
151.08
20
-74.8032
11
151.031
21
-74.5296
0
LINE
8
Black
10
151.031
20
-74.5296
11
151.031
21
-73.7204
0
LINE
8
Black
10
151.031
20
-73.7204
11
151.08
21
-73.4468
0
LINE
8
Black
10
151.08
20
-73.4468
11
151.219
21
-73.2062
0
LINE
8
Black
10
151.219
20
-73.2062
11
151.431
21
-73.0276
0
LINE
8
Black
10
151.431
20
-73.0276
11
151.693
21
-72.9326
0
LINE
8
Black
10
151.693
20
-72.9326
11
151.97
21
-72.9326
0
LINE
8
Black
10
151.97
20
-72.9326
11
152.231
21
-73.0276
0
LINE
8
Black
10
144.612
20
-73.0276
11
144.824
21
-73.2062
0
LINE
8
Black
10
144.824
20
-73.2062
11
144.963
21
-73.4468
0
LINE
8
Black
10
144.963
20
-73.4468
11
145.011
21
-73.7204
0
LINE
8
Black
10
145.011
20
-73.7204
11
145.011
21
-74.5296
0
LINE
8
Black
10
145.011
20
-74.5296
11
144.963
21
-74.8032
0
LINE
8
Black
10
144.963
20
-74.8032
11
144.824
21
-75.0438
0
LINE
8
Black
10
144.824
20
-75.0438
11
144.612
21
-75.2224
0
LINE
8
Black
10
144.612
20
-75.2224
11
144.35
21
-75.3174
0
LINE
8
Black
10
144.35
20
-75.3174
11
144.073
21
-75.3174
0
LINE
8
Black
10
144.073
20
-75.3174
11
143.811
21
-75.2224
0
LINE
8
Black
10
143.811
20
-75.2224
11
143.599
21
-75.0438
0
LINE
8
Black
10
143.599
20
-75.0438
11
143.46
21
-74.8032
0
LINE
8
Black
10
143.46
20
-74.8032
11
143.411
21
-74.5296
0
LINE
8
Black
10
143.411
20
-74.5296
11
143.411
21
-73.7204
0
LINE
8
Black
10
143.411
20
-73.7204
11
143.46
21
-73.4468
0
LINE
8
Black
10
143.46
20
-73.4468
11
143.599
21
-73.2062
0
LINE
8
Black
10
143.599
20
-73.2062
11
143.811
21
-73.0276
0
LINE
8
Black
10
143.811
20
-73.0276
11
144.073
21
-72.9326
0
LINE
8
Black
10
144.073
20
-72.9326
11
144.35
21
-72.9326
0
LINE
8
Black
10
144.35
20
-72.9326
11
144.612
21
-73.0276
0
LINE
8
Black
10
147.151
20
-73.0276
11
147.364
21
-73.2062
0
LINE
8
Black
10
147.364
20
-73.2062
11
147.503
21
-73.4468
0
LINE
8
Black
10
147.503
20
-73.4468
11
147.552
21
-73.7204
0
LINE
8
Black
10
147.552
20
-73.7204
11
147.552
21
-74.5296
0
LINE
8
Black
10
147.552
20
-74.5296
11
147.503
21
-74.8032
0
LINE
8
Black
10
147.503
20
-74.8032
11
147.364
21
-75.0438
0
LINE
8
Black
10
147.364
20
-75.0438
11
147.151
21
-75.2224
0
LINE
8
Black
10
147.151
20
-75.2224
11
146.89
21
-75.3174
0
LINE
8
Black
10
146.89
20
-75.3174
11
146.613
21
-75.3174
0
LINE
8
Black
10
146.613
20
-75.3174
11
146.351
21
-75.2224
0
LINE
8
Black
10
146.351
20
-75.2224
11
146.139
21
-75.0438
0
LINE
8
Black
10
146.139
20
-75.0438
11
146
21
-74.8032
0
LINE
8
Black
10
146
20
-74.8032
11
145.951
21
-74.5296
0
LINE
8
Black
10
145.951
20
-74.5296
11
145.951
21
-73.7204
0
LINE
8
Black
10
145.951
20
-73.7204
11
146
21
-73.4468
0
LINE
8
Black
10
146
20
-73.4468
11
146.139
21
-73.2062
0
LINE
8
Black
10
146.139
20
-73.2062
11
146.351
21
-73.0276
0
LINE
8
Black
10
146.351
20
-73.0276
11
146.613
21
-72.9326
0
LINE
8
Black
10
146.613
20
-72.9326
11
146.89
21
-72.9326
0
LINE
8
Black
10
146.89
20
-72.9326
11
147.151
21
-73.0276
0
LINE
8
Black
10
126.831
20
-73.0276
11
127.044
21
-73.2062
0
LINE
8
Black
10
127.044
20
-73.2062
11
127.183
21
-73.4468
0
LINE
8
Black
10
127.183
20
-73.4468
11
127.231
21
-73.7204
0
LINE
8
Black
10
127.231
20
-73.7204
11
127.231
21
-74.5296
0
LINE
8
Black
10
127.231
20
-74.5296
11
127.183
21
-74.8032
0
LINE
8
Black
10
127.183
20
-74.8032
11
127.044
21
-75.0438
0
LINE
8
Black
10
127.044
20
-75.0438
11
126.831
21
-75.2224
0
LINE
8
Black
10
126.831
20
-75.2224
11
126.57
21
-75.3174
0
LINE
8
Black
10
126.57
20
-75.3174
11
126.293
21
-75.3174
0
LINE
8
Black
10
126.293
20
-75.3174
11
126.031
21
-75.2224
0
LINE
8
Black
10
126.031
20
-75.2224
11
125.819
21
-75.0438
0
LINE
8
Black
10
125.819
20
-75.0438
11
125.68
21
-74.8032
0
LINE
8
Black
10
125.68
20
-74.8032
11
125.631
21
-74.5296
0
LINE
8
Black
10
125.631
20
-74.5296
11
125.631
21
-73.7204
0
LINE
8
Black
10
125.631
20
-73.7204
11
125.68
21
-73.4468
0
LINE
8
Black
10
125.68
20
-73.4468
11
125.819
21
-73.2062
0
LINE
8
Black
10
125.819
20
-73.2062
11
126.031
21
-73.0276
0
LINE
8
Black
10
126.031
20
-73.0276
11
126.293
21
-72.9326
0
LINE
8
Black
10
126.293
20
-72.9326
11
126.57
21
-72.9326
0
LINE
8
Black
10
126.57
20
-72.9326
11
126.831
21
-73.0276
0
LINE
8
Black
10
111.591
20
-73.0276
11
111.804
21
-73.2062
0
LINE
8
Black
10
111.804
20
-73.2062
11
111.943
21
-73.4468
0
LINE
8
Black
10
111.943
20
-73.4468
11
111.991
21
-73.7204
0
LINE
8
Black
10
111.991
20
-73.7204
11
111.991
21
-74.5296
0
LINE
8
Black
10
111.991
20
-74.5296
11
111.943
21
-74.8032
0
LINE
8
Black
10
111.943
20
-74.8032
11
111.804
21
-75.0438
0
LINE
8
Black
10
111.804
20
-75.0438
11
111.591
21
-75.2224
0
LINE
8
Black
10
111.591
20
-75.2224
11
111.33
21
-75.3174
0
LINE
8
Black
10
111.33
20
-75.3174
11
111.053
21
-75.3174
0
LINE
8
Black
10
111.053
20
-75.3174
11
110.791
21
-75.2224
0
LINE
8
Black
10
110.791
20
-75.2224
11
110.579
21
-75.0438
0
LINE
8
Black
10
110.579
20
-75.0438
11
110.44
21
-74.8032
0
LINE
8
Black
10
110.44
20
-74.8032
11
110.391
21
-74.5296
0
LINE
8
Black
10
110.391
20
-74.5296
11
110.391
21
-73.7204
0
LINE
8
Black
10
110.391
20
-73.7204
11
110.44
21
-73.4468
0
LINE
8
Black
10
110.44
20
-73.4468
11
110.579
21
-73.2062
0
LINE
8
Black
10
110.579
20
-73.2062
11
110.791
21
-73.0276
0
LINE
8
Black
10
110.791
20
-73.0276
11
111.053
21
-72.9326
0
LINE
8
Black
10
111.053
20
-72.9326
11
111.33
21
-72.9326
0
LINE
8
Black
10
111.33
20
-72.9326
11
111.591
21
-73.0276
0
LINE
8
Black
10
124.291
20
-73.0276
11
124.504
21
-73.2062
0
LINE
8
Black
10
124.504
20
-73.2062
11
124.643
21
-73.4468
0
LINE
8
Black
10
124.643
20
-73.4468
11
124.691
21
-73.7204
0
LINE
8
Black
10
124.691
20
-73.7204
11
124.691
21
-74.5296
0
LINE
8
Black
10
124.691
20
-74.5296
11
124.643
21
-74.8032
0
LINE
8
Black
10
124.643
20
-74.8032
11
124.504
21
-75.0438
0
LINE
8
Black
10
124.504
20
-75.0438
11
124.291
21
-75.2224
0
LINE
8
Black
10
124.291
20
-75.2224
11
124.03
21
-75.3174
0
LINE
8
Black
10
124.03
20
-75.3174
11
123.753
21
-75.3174
0
LINE
8
Black
10
123.753
20
-75.3174
11
123.491
21
-75.2224
0
LINE
8
Black
10
123.491
20
-75.2224
11
123.279
21
-75.0438
0
LINE
8
Black
10
123.279
20
-75.0438
11
123.14
21
-74.8032
0
LINE
8
Black
10
123.14
20
-74.8032
11
123.091
21
-74.5296
0
LINE
8
Black
10
123.091
20
-74.5296
11
123.091
21
-73.7204
0
LINE
8
Black
10
123.091
20
-73.7204
11
123.14
21
-73.4468
0
LINE
8
Black
10
123.14
20
-73.4468
11
123.279
21
-73.2062
0
LINE
8
Black
10
123.279
20
-73.2062
11
123.491
21
-73.0276
0
LINE
8
Black
10
123.491
20
-73.0276
11
123.753
21
-72.9326
0
LINE
8
Black
10
123.753
20
-72.9326
11
124.03
21
-72.9326
0
LINE
8
Black
10
124.03
20
-72.9326
11
124.291
21
-73.0276
0
LINE
8
Black
10
129.371
20
-73.0276
11
129.584
21
-73.2062
0
LINE
8
Black
10
129.584
20
-73.2062
11
129.723
21
-73.4468
0
LINE
8
Black
10
129.723
20
-73.4468
11
129.772
21
-73.7204
0
LINE
8
Black
10
129.772
20
-73.7204
11
129.772
21
-74.5296
0
LINE
8
Black
10
129.772
20
-74.5296
11
129.723
21
-74.8032
0
LINE
8
Black
10
129.723
20
-74.8032
11
129.584
21
-75.0438
0
LINE
8
Black
10
129.584
20
-75.0438
11
129.371
21
-75.2224
0
LINE
8
Black
10
129.371
20
-75.2224
11
129.11
21
-75.3174
0
LINE
8
Black
10
129.11
20
-75.3174
11
128.833
21
-75.3174
0
LINE
8
Black
10
128.833
20
-75.3174
11
128.571
21
-75.2224
0
LINE
8
Black
10
128.571
20
-75.2224
11
128.359
21
-75.0438
0
LINE
8
Black
10
128.359
20
-75.0438
11
128.22
21
-74.8032
0
LINE
8
Black
10
128.22
20
-74.8032
11
128.171
21
-74.5296
0
LINE
8
Black
10
128.171
20
-74.5296
11
128.171
21
-73.7204
0
LINE
8
Black
10
128.171
20
-73.7204
11
128.22
21
-73.4468
0
LINE
8
Black
10
128.22
20
-73.4468
11
128.359
21
-73.2062
0
LINE
8
Black
10
128.359
20
-73.2062
11
128.571
21
-73.0276
0
LINE
8
Black
10
128.571
20
-73.0276
11
128.833
21
-72.9326
0
LINE
8
Black
10
128.833
20
-72.9326
11
129.11
21
-72.9326
0
LINE
8
Black
10
129.11
20
-72.9326
11
129.371
21
-73.0276
0
LINE
8
Black
10
121.751
20
-73.0276
11
121.964
21
-73.2062
0
LINE
8
Black
10
121.964
20
-73.2062
11
122.103
21
-73.4468
0
LINE
8
Black
10
122.103
20
-73.4468
11
122.151
21
-73.7204
0
LINE
8
Black
10
122.151
20
-73.7204
11
122.151
21
-74.5296
0
LINE
8
Black
10
122.151
20
-74.5296
11
122.103
21
-74.8032
0
LINE
8
Black
10
122.103
20
-74.8032
11
121.964
21
-75.0438
0
LINE
8
Black
10
121.964
20
-75.0438
11
121.751
21
-75.2224
0
LINE
8
Black
10
121.751
20
-75.2224
11
121.49
21
-75.3174
0
LINE
8
Black
10
121.49
20
-75.3174
11
121.213
21
-75.3174
0
LINE
8
Black
10
121.213
20
-75.3174
11
120.951
21
-75.2224
0
LINE
8
Black
10
120.951
20
-75.2224
11
120.739
21
-75.0438
0
LINE
8
Black
10
120.739
20
-75.0438
11
120.6
21
-74.8032
0
LINE
8
Black
10
120.6
20
-74.8032
11
120.551
21
-74.5296
0
LINE
8
Black
10
120.551
20
-74.5296
11
120.551
21
-73.7204
0
LINE
8
Black
10
120.551
20
-73.7204
11
120.6
21
-73.4468
0
LINE
8
Black
10
120.6
20
-73.4468
11
120.739
21
-73.2062
0
LINE
8
Black
10
120.739
20
-73.2062
11
120.951
21
-73.0276
0
LINE
8
Black
10
120.951
20
-73.0276
11
121.213
21
-72.9326
0
LINE
8
Black
10
121.213
20
-72.9326
11
121.49
21
-72.9326
0
LINE
8
Black
10
121.49
20
-72.9326
11
121.751
21
-73.0276
0
LINE
8
Black
10
131.911
20
-73.0276
11
132.124
21
-73.2062
0
LINE
8
Black
10
132.124
20
-73.2062
11
132.263
21
-73.4468
0
LINE
8
Black
10
132.263
20
-73.4468
11
132.311
21
-73.7204
0
LINE
8
Black
10
132.311
20
-73.7204
11
132.311
21
-74.5296
0
LINE
8
Black
10
132.311
20
-74.5296
11
132.263
21
-74.8032
0
LINE
8
Black
10
132.263
20
-74.8032
11
132.124
21
-75.0438
0
LINE
8
Black
10
132.124
20
-75.0438
11
131.911
21
-75.2224
0
LINE
8
Black
10
131.911
20
-75.2224
11
131.65
21
-75.3174
0
LINE
8
Black
10
131.65
20
-75.3174
11
131.373
21
-75.3174
0
LINE
8
Black
10
131.373
20
-75.3174
11
131.112
21
-75.2224
0
LINE
8
Black
10
131.112
20
-75.2224
11
130.899
21
-75.0438
0
LINE
8
Black
10
130.899
20
-75.0438
11
130.76
21
-74.8032
0
LINE
8
Black
10
130.76
20
-74.8032
11
130.712
21
-74.5296
0
LINE
8
Black
10
130.712
20
-74.5296
11
130.712
21
-73.7204
0
LINE
8
Black
10
130.712
20
-73.7204
11
130.76
21
-73.4468
0
LINE
8
Black
10
130.76
20
-73.4468
11
130.899
21
-73.2062
0
LINE
8
Black
10
130.899
20
-73.2062
11
131.112
21
-73.0276
0
LINE
8
Black
10
131.112
20
-73.0276
11
131.373
21
-72.9326
0
LINE
8
Black
10
131.373
20
-72.9326
11
131.65
21
-72.9326
0
LINE
8
Black
10
131.65
20
-72.9326
11
131.911
21
-73.0276
0
LINE
8
Black
10
119.212
20
-73.0276
11
119.424
21
-73.2062
0
LINE
8
Black
10
119.424
20
-73.2062
11
119.563
21
-73.4468
0
LINE
8
Black
10
119.563
20
-73.4468
11
119.611
21
-73.7204
0
LINE
8
Black
10
119.611
20
-73.7204
11
119.611
21
-74.5296
0
LINE
8
Black
10
119.611
20
-74.5296
11
119.563
21
-74.8032
0
LINE
8
Black
10
119.563
20
-74.8032
11
119.424
21
-75.0438
0
LINE
8
Black
10
119.424
20
-75.0438
11
119.212
21
-75.2224
0
LINE
8
Black
10
119.212
20
-75.2224
11
118.95
21
-75.3174
0
LINE
8
Black
10
118.95
20
-75.3174
11
118.673
21
-75.3174
0
LINE
8
Black
10
118.673
20
-75.3174
11
118.411
21
-75.2224
0
LINE
8
Black
10
118.411
20
-75.2224
11
118.199
21
-75.0438
0
LINE
8
Black
10
118.199
20
-75.0438
11
118.06
21
-74.8032
0
LINE
8
Black
10
118.06
20
-74.8032
11
118.011
21
-74.5296
0
LINE
8
Black
10
118.011
20
-74.5296
11
118.011
21
-73.7204
0
LINE
8
Black
10
118.011
20
-73.7204
11
118.06
21
-73.4468
0
LINE
8
Black
10
118.06
20
-73.4468
11
118.199
21
-73.2062
0
LINE
8
Black
10
118.199
20
-73.2062
11
118.411
21
-73.0276
0
LINE
8
Black
10
118.411
20
-73.0276
11
118.673
21
-72.9326
0
LINE
8
Black
10
118.673
20
-72.9326
11
118.95
21
-72.9326
0
LINE
8
Black
10
118.95
20
-72.9326
11
119.212
21
-73.0276
0
LINE
8
Black
10
134.451
20
-73.0276
11
134.664
21
-73.2062
0
LINE
8
Black
10
134.664
20
-73.2062
11
134.803
21
-73.4468
0
LINE
8
Black
10
134.803
20
-73.4468
11
134.851
21
-73.7204
0
LINE
8
Black
10
134.851
20
-73.7204
11
134.851
21
-74.5296
0
LINE
8
Black
10
134.851
20
-74.5296
11
134.803
21
-74.8032
0
LINE
8
Black
10
134.803
20
-74.8032
11
134.664
21
-75.0438
0
LINE
8
Black
10
134.664
20
-75.0438
11
134.451
21
-75.2224
0
LINE
8
Black
10
134.451
20
-75.2224
11
134.19
21
-75.3174
0
LINE
8
Black
10
134.19
20
-75.3174
11
133.913
21
-75.3174
0
LINE
8
Black
10
133.913
20
-75.3174
11
133.651
21
-75.2224
0
LINE
8
Black
10
133.651
20
-75.2224
11
133.439
21
-75.0438
0
LINE
8
Black
10
133.439
20
-75.0438
11
133.3
21
-74.8032
0
LINE
8
Black
10
133.3
20
-74.8032
11
133.251
21
-74.5296
0
LINE
8
Black
10
133.251
20
-74.5296
11
133.251
21
-73.7204
0
LINE
8
Black
10
133.251
20
-73.7204
11
133.3
21
-73.4468
0
LINE
8
Black
10
133.3
20
-73.4468
11
133.439
21
-73.2062
0
LINE
8
Black
10
133.439
20
-73.2062
11
133.651
21
-73.0276
0
LINE
8
Black
10
133.651
20
-73.0276
11
133.913
21
-72.9326
0
LINE
8
Black
10
133.913
20
-72.9326
11
134.19
21
-72.9326
0
LINE
8
Black
10
134.19
20
-72.9326
11
134.451
21
-73.0276
0
LINE
8
Black
10
116.671
20
-73.0276
11
116.884
21
-73.2062
0
LINE
8
Black
10
116.884
20
-73.2062
11
117.023
21
-73.4468
0
LINE
8
Black
10
117.023
20
-73.4468
11
117.072
21
-73.7204
0
LINE
8
Black
10
117.072
20
-73.7204
11
117.072
21
-74.5296
0
LINE
8
Black
10
117.072
20
-74.5296
11
117.023
21
-74.8032
0
LINE
8
Black
10
117.023
20
-74.8032
11
116.884
21
-75.0438
0
LINE
8
Black
10
116.884
20
-75.0438
11
116.671
21
-75.2224
0
LINE
8
Black
10
116.671
20
-75.2224
11
116.41
21
-75.3174
0
LINE
8
Black
10
116.41
20
-75.3174
11
116.133
21
-75.3174
0
LINE
8
Black
10
116.133
20
-75.3174
11
115.871
21
-75.2224
0
LINE
8
Black
10
115.871
20
-75.2224
11
115.659
21
-75.0438
0
LINE
8
Black
10
115.659
20
-75.0438
11
115.52
21
-74.8032
0
LINE
8
Black
10
115.52
20
-74.8032
11
115.471
21
-74.5296
0
LINE
8
Black
10
115.471
20
-74.5296
11
115.471
21
-73.7204
0
LINE
8
Black
10
115.471
20
-73.7204
11
115.52
21
-73.4468
0
LINE
8
Black
10
115.52
20
-73.4468
11
115.659
21
-73.2062
0
LINE
8
Black
10
115.659
20
-73.2062
11
115.871
21
-73.0276
0
LINE
8
Black
10
115.871
20
-73.0276
11
116.133
21
-72.9326
0
LINE
8
Black
10
116.133
20
-72.9326
11
116.41
21
-72.9326
0
LINE
8
Black
10
116.41
20
-72.9326
11
116.671
21
-73.0276
0
LINE
8
Black
10
136.992
20
-73.0276
11
137.204
21
-73.2062
0
LINE
8
Black
10
137.204
20
-73.2062
11
137.343
21
-73.4468
0
LINE
8
Black
10
137.343
20
-73.4468
11
137.392
21
-73.7204
0
LINE
8
Black
10
137.392
20
-73.7204
11
137.392
21
-74.5296
0
LINE
8
Black
10
137.392
20
-74.5296
11
137.343
21
-74.8032
0
LINE
8
Black
10
137.343
20
-74.8032
11
137.204
21
-75.0438
0
LINE
8
Black
10
137.204
20
-75.0438
11
136.992
21
-75.2224
0
LINE
8
Black
10
136.992
20
-75.2224
11
136.73
21
-75.3174
0
LINE
8
Black
10
136.73
20
-75.3174
11
136.453
21
-75.3174
0
LINE
8
Black
10
136.453
20
-75.3174
11
136.191
21
-75.2224
0
LINE
8
Black
10
136.191
20
-75.2224
11
135.979
21
-75.0438
0
LINE
8
Black
10
135.979
20
-75.0438
11
135.84
21
-74.8032
0
LINE
8
Black
10
135.84
20
-74.8032
11
135.791
21
-74.5296
0
LINE
8
Black
10
135.791
20
-74.5296
11
135.791
21
-73.7204
0
LINE
8
Black
10
135.791
20
-73.7204
11
135.84
21
-73.4468
0
LINE
8
Black
10
135.84
20
-73.4468
11
135.979
21
-73.2062
0
LINE
8
Black
10
135.979
20
-73.2062
11
136.191
21
-73.0276
0
LINE
8
Black
10
136.191
20
-73.0276
11
136.453
21
-72.9326
0
LINE
8
Black
10
136.453
20
-72.9326
11
136.73
21
-72.9326
0
LINE
8
Black
10
136.73
20
-72.9326
11
136.992
21
-73.0276
0
LINE
8
Black
10
114.131
20
-73.0276
11
114.344
21
-73.2062
0
LINE
8
Black
10
114.344
20
-73.2062
11
114.483
21
-73.4468
0
LINE
8
Black
10
114.483
20
-73.4468
11
114.531
21
-73.7204
0
LINE
8
Black
10
114.531
20
-73.7204
11
114.531
21
-74.5296
0
LINE
8
Black
10
114.531
20
-74.5296
11
114.483
21
-74.8032
0
LINE
8
Black
10
114.483
20
-74.8032
11
114.344
21
-75.0438
0
LINE
8
Black
10
114.344
20
-75.0438
11
114.131
21
-75.2224
0
LINE
8
Black
10
114.131
20
-75.2224
11
113.87
21
-75.3174
0
LINE
8
Black
10
113.87
20
-75.3174
11
113.593
21
-75.3174
0
LINE
8
Black
10
113.593
20
-75.3174
11
113.331
21
-75.2224
0
LINE
8
Black
10
113.331
20
-75.2224
11
113.119
21
-75.0438
0
LINE
8
Black
10
113.119
20
-75.0438
11
112.98
21
-74.8032
0
LINE
8
Black
10
112.98
20
-74.8032
11
112.931
21
-74.5296
0
LINE
8
Black
10
112.931
20
-74.5296
11
112.931
21
-73.7204
0
LINE
8
Black
10
112.931
20
-73.7204
11
112.98
21
-73.4468
0
LINE
8
Black
10
112.98
20
-73.4468
11
113.119
21
-73.2062
0
LINE
8
Black
10
113.119
20
-73.2062
11
113.331
21
-73.0276
0
LINE
8
Black
10
113.331
20
-73.0276
11
113.593
21
-72.9326
0
LINE
8
Black
10
113.593
20
-72.9326
11
113.87
21
-72.9326
0
LINE
8
Black
10
113.87
20
-72.9326
11
114.131
21
-73.0276
0
LINE
8
Black
10
162.391
20
-73.0276
11
162.604
21
-73.2062
0
LINE
8
Black
10
162.604
20
-73.2062
11
162.743
21
-73.4468
0
LINE
8
Black
10
162.743
20
-73.4468
11
162.791
21
-73.7204
0
LINE
8
Black
10
162.791
20
-73.7204
11
162.791
21
-74.5296
0
LINE
8
Black
10
162.791
20
-74.5296
11
162.743
21
-74.8032
0
LINE
8
Black
10
162.743
20
-74.8032
11
162.604
21
-75.0438
0
LINE
8
Black
10
162.604
20
-75.0438
11
162.391
21
-75.2224
0
LINE
8
Black
10
162.391
20
-75.2224
11
162.13
21
-75.3174
0
LINE
8
Black
10
162.13
20
-75.3174
11
161.853
21
-75.3174
0
LINE
8
Black
10
161.853
20
-75.3174
11
161.591
21
-75.2224
0
LINE
8
Black
10
161.591
20
-75.2224
11
161.379
21
-75.0438
0
LINE
8
Black
10
161.379
20
-75.0438
11
161.24
21
-74.8032
0
LINE
8
Black
10
161.24
20
-74.8032
11
161.191
21
-74.5296
0
LINE
8
Black
10
161.191
20
-74.5296
11
161.191
21
-73.7204
0
LINE
8
Black
10
161.191
20
-73.7204
11
161.24
21
-73.4468
0
LINE
8
Black
10
161.24
20
-73.4468
11
161.379
21
-73.2062
0
LINE
8
Black
10
161.379
20
-73.2062
11
161.591
21
-73.0276
0
LINE
8
Black
10
161.591
20
-73.0276
11
161.853
21
-72.9326
0
LINE
8
Black
10
161.853
20
-72.9326
11
162.13
21
-72.9326
0
LINE
8
Black
10
162.13
20
-72.9326
11
162.391
21
-73.0276
0
LINE
8
Black
10
142.071
20
-73.0276
11
142.284
21
-73.2062
0
LINE
8
Black
10
142.284
20
-73.2062
11
142.423
21
-73.4468
0
LINE
8
Black
10
142.423
20
-73.4468
11
142.471
21
-73.7204
0
LINE
8
Black
10
142.471
20
-73.7204
11
142.471
21
-74.5296
0
LINE
8
Black
10
142.471
20
-74.5296
11
142.423
21
-74.8032
0
LINE
8
Black
10
142.423
20
-74.8032
11
142.284
21
-75.0438
0
LINE
8
Black
10
142.284
20
-75.0438
11
142.071
21
-75.2224
0
LINE
8
Black
10
142.071
20
-75.2224
11
141.81
21
-75.3174
0
LINE
8
Black
10
141.81
20
-75.3174
11
141.533
21
-75.3174
0
LINE
8
Black
10
141.533
20
-75.3174
11
141.272
21
-75.2224
0
LINE
8
Black
10
141.272
20
-75.2224
11
141.059
21
-75.0438
0
LINE
8
Black
10
141.059
20
-75.0438
11
140.92
21
-74.8032
0
LINE
8
Black
10
140.92
20
-74.8032
11
140.871
21
-74.5296
0
LINE
8
Black
10
140.871
20
-74.5296
11
140.871
21
-73.7204
0
LINE
8
Black
10
140.871
20
-73.7204
11
140.92
21
-73.4468
0
LINE
8
Black
10
140.92
20
-73.4468
11
141.059
21
-73.2062
0
LINE
8
Black
10
141.059
20
-73.2062
11
141.272
21
-73.0276
0
LINE
8
Black
10
141.272
20
-73.0276
11
141.533
21
-72.9326
0
LINE
8
Black
10
141.533
20
-72.9326
11
141.81
21
-72.9326
0
LINE
8
Black
10
141.81
20
-72.9326
11
142.071
21
-73.0276
0
LINE
8
Black
10
159.851
20
-73.0276
11
160.064
21
-73.2062
0
LINE
8
Black
10
160.064
20
-73.2062
11
160.203
21
-73.4468
0
LINE
8
Black
10
160.203
20
-73.4468
11
160.251
21
-73.7204
0
LINE
8
Black
10
160.251
20
-73.7204
11
160.251
21
-74.5296
0
LINE
8
Black
10
160.251
20
-74.5296
11
160.203
21
-74.8032
0
LINE
8
Black
10
160.203
20
-74.8032
11
160.064
21
-75.0438
0
LINE
8
Black
10
160.064
20
-75.0438
11
159.851
21
-75.2224
0
LINE
8
Black
10
159.851
20
-75.2224
11
159.59
21
-75.3174
0
LINE
8
Black
10
159.59
20
-75.3174
11
159.313
21
-75.3174
0
LINE
8
Black
10
159.313
20
-75.3174
11
159.052
21
-75.2224
0
LINE
8
Black
10
159.052
20
-75.2224
11
158.839
21
-75.0438
0
LINE
8
Black
10
158.839
20
-75.0438
11
158.7
21
-74.8032
0
LINE
8
Black
10
158.7
20
-74.8032
11
158.651
21
-74.5296
0
LINE
8
Black
10
158.651
20
-74.5296
11
158.651
21
-73.7204
0
LINE
8
Black
10
158.651
20
-73.7204
11
158.7
21
-73.4468
0
LINE
8
Black
10
158.7
20
-73.4468
11
158.839
21
-73.2062
0
LINE
8
Black
10
158.839
20
-73.2062
11
159.052
21
-73.0276
0
LINE
8
Black
10
159.052
20
-73.0276
11
159.313
21
-72.9326
0
LINE
8
Black
10
159.313
20
-72.9326
11
159.59
21
-72.9326
0
LINE
8
Black
10
159.59
20
-72.9326
11
159.851
21
-73.0276
0
LINE
8
Black
10
109.051
20
-73.0276
11
109.264
21
-73.2062
0
LINE
8
Black
10
109.264
20
-73.2062
11
109.403
21
-73.4468
0
LINE
8
Black
10
109.403
20
-73.4468
11
109.451
21
-73.7204
0
LINE
8
Black
10
109.451
20
-73.7204
11
109.451
21
-74.5296
0
LINE
8
Black
10
109.451
20
-74.5296
11
109.403
21
-74.8032
0
LINE
8
Black
10
109.403
20
-74.8032
11
109.264
21
-75.0438
0
LINE
8
Black
10
109.264
20
-75.0438
11
109.051
21
-75.2224
0
LINE
8
Black
10
109.051
20
-75.2224
11
108.79
21
-75.3174
0
LINE
8
Black
10
108.79
20
-75.3174
11
108.513
21
-75.3174
0
LINE
8
Black
10
108.513
20
-75.3174
11
108.251
21
-75.2224
0
LINE
8
Black
10
108.251
20
-75.2224
11
108.039
21
-75.0438
0
LINE
8
Black
10
108.039
20
-75.0438
11
107.9
21
-74.8032
0
LINE
8
Black
10
107.9
20
-74.8032
11
107.852
21
-74.5296
0
LINE
8
Black
10
107.852
20
-74.5296
11
107.852
21
-73.7204
0
LINE
8
Black
10
107.852
20
-73.7204
11
107.9
21
-73.4468
0
LINE
8
Black
10
107.9
20
-73.4468
11
108.039
21
-73.2062
0
LINE
8
Black
10
108.039
20
-73.2062
11
108.251
21
-73.0276
0
LINE
8
Black
10
108.251
20
-73.0276
11
108.513
21
-72.9326
0
LINE
8
Black
10
108.513
20
-72.9326
11
108.79
21
-72.9326
0
LINE
8
Black
10
108.79
20
-72.9326
11
109.051
21
-73.0276
0
LINE
8
Black
10
139.531
20
-73.0276
11
139.744
21
-73.2062
0
LINE
8
Black
10
139.744
20
-73.2062
11
139.883
21
-73.4468
0
LINE
8
Black
10
139.883
20
-73.4468
11
139.931
21
-73.7204
0
LINE
8
Black
10
139.931
20
-73.7204
11
139.931
21
-74.5296
0
LINE
8
Black
10
139.931
20
-74.5296
11
139.883
21
-74.8032
0
LINE
8
Black
10
139.883
20
-74.8032
11
139.744
21
-75.0438
0
LINE
8
Black
10
139.744
20
-75.0438
11
139.531
21
-75.2224
0
LINE
8
Black
10
139.531
20
-75.2224
11
139.27
21
-75.3174
0
LINE
8
Black
10
139.27
20
-75.3174
11
138.993
21
-75.3174
0
LINE
8
Black
10
138.993
20
-75.3174
11
138.731
21
-75.2224
0
LINE
8
Black
10
138.731
20
-75.2224
11
138.519
21
-75.0438
0
LINE
8
Black
10
138.519
20
-75.0438
11
138.38
21
-74.8032
0
LINE
8
Black
10
138.38
20
-74.8032
11
138.332
21
-74.5296
0
LINE
8
Black
10
138.332
20
-74.5296
11
138.332
21
-73.7204
0
LINE
8
Black
10
138.332
20
-73.7204
11
138.38
21
-73.4468
0
LINE
8
Black
10
138.38
20
-73.4468
11
138.519
21
-73.2062
0
LINE
8
Black
10
138.519
20
-73.2062
11
138.731
21
-73.0276
0
LINE
8
Black
10
138.731
20
-73.0276
11
138.993
21
-72.9326
0
LINE
8
Black
10
138.993
20
-72.9326
11
139.27
21
-72.9326
0
LINE
8
Black
10
139.27
20
-72.9326
11
139.531
21
-73.0276
0
LINE
8
Black
10
106.511
20
-73.0276
11
106.724
21
-73.2062
0
LINE
8
Black
10
106.724
20
-73.2062
11
106.863
21
-73.4468
0
LINE
8
Black
10
106.863
20
-73.4468
11
106.911
21
-73.7204
0
LINE
8
Black
10
106.911
20
-73.7204
11
106.911
21
-74.5296
0
LINE
8
Black
10
106.911
20
-74.5296
11
106.863
21
-74.8032
0
LINE
8
Black
10
106.863
20
-74.8032
11
106.724
21
-75.0438
0
LINE
8
Black
10
106.724
20
-75.0438
11
106.511
21
-75.2224
0
LINE
8
Black
10
106.511
20
-75.2224
11
106.25
21
-75.3174
0
LINE
8
Black
10
106.25
20
-75.3174
11
105.973
21
-75.3174
0
LINE
8
Black
10
105.973
20
-75.3174
11
105.712
21
-75.2224
0
LINE
8
Black
10
105.712
20
-75.2224
11
105.499
21
-75.0438
0
LINE
8
Black
10
105.499
20
-75.0438
11
105.36
21
-74.8032
0
LINE
8
Black
10
105.36
20
-74.8032
11
105.311
21
-74.5296
0
LINE
8
Black
10
105.311
20
-74.5296
11
105.311
21
-73.7204
0
LINE
8
Black
10
105.311
20
-73.7204
11
105.36
21
-73.4468
0
LINE
8
Black
10
105.36
20
-73.4468
11
105.499
21
-73.2062
0
LINE
8
Black
10
105.499
20
-73.2062
11
105.712
21
-73.0276
0
LINE
8
Black
10
105.712
20
-73.0276
11
105.973
21
-72.9326
0
LINE
8
Black
10
105.973
20
-72.9326
11
106.25
21
-72.9326
0
LINE
8
Black
10
106.25
20
-72.9326
11
106.511
21
-73.0276
0
LINE
8
Black
10
157.311
20
-73.0276
11
157.524
21
-73.2062
0
LINE
8
Black
10
157.524
20
-73.2062
11
157.663
21
-73.4468
0
LINE
8
Black
10
157.663
20
-73.4468
11
157.712
21
-73.7204
0
LINE
8
Black
10
157.712
20
-73.7204
11
157.712
21
-74.5296
0
LINE
8
Black
10
157.712
20
-74.5296
11
157.663
21
-74.8032
0
LINE
8
Black
10
157.663
20
-74.8032
11
157.524
21
-75.0438
0
LINE
8
Black
10
157.524
20
-75.0438
11
157.311
21
-75.2224
0
LINE
8
Black
10
157.311
20
-75.2224
11
157.05
21
-75.3174
0
LINE
8
Black
10
157.05
20
-75.3174
11
156.773
21
-75.3174
0
LINE
8
Black
10
156.773
20
-75.3174
11
156.511
21
-75.2224
0
LINE
8
Black
10
156.511
20
-75.2224
11
156.299
21
-75.0438
0
LINE
8
Black
10
156.299
20
-75.0438
11
156.16
21
-74.8032
0
LINE
8
Black
10
156.16
20
-74.8032
11
156.112
21
-74.5296
0
LINE
8
Black
10
156.112
20
-74.5296
11
156.112
21
-73.7204
0
LINE
8
Black
10
156.112
20
-73.7204
11
156.16
21
-73.4468
0
LINE
8
Black
10
156.16
20
-73.4468
11
156.299
21
-73.2062
0
LINE
8
Black
10
156.299
20
-73.2062
11
156.511
21
-73.0276
0
LINE
8
Black
10
156.511
20
-73.0276
11
156.773
21
-72.9326
0
LINE
8
Black
10
156.773
20
-72.9326
11
157.05
21
-72.9326
0
LINE
8
Black
10
157.05
20
-72.9326
11
157.311
21
-73.0276
0
LINE
8
Black
10
103.971
20
-73.0276
11
104.184
21
-73.2062
0
LINE
8
Black
10
104.184
20
-73.2062
11
104.323
21
-73.4468
0
LINE
8
Black
10
104.323
20
-73.4468
11
104.371
21
-73.7204
0
LINE
8
Black
10
104.371
20
-73.7204
11
104.371
21
-74.5296
0
LINE
8
Black
10
104.371
20
-74.5296
11
104.323
21
-74.8032
0
LINE
8
Black
10
104.323
20
-74.8032
11
104.184
21
-75.0438
0
LINE
8
Black
10
104.184
20
-75.0438
11
103.971
21
-75.2224
0
LINE
8
Black
10
103.971
20
-75.2224
11
103.71
21
-75.3174
0
LINE
8
Black
10
103.71
20
-75.3174
11
103.433
21
-75.3174
0
LINE
8
Black
10
103.433
20
-75.3174
11
103.171
21
-75.2224
0
LINE
8
Black
10
103.171
20
-75.2224
11
102.959
21
-75.0438
0
LINE
8
Black
10
102.959
20
-75.0438
11
102.82
21
-74.8032
0
LINE
8
Black
10
102.82
20
-74.8032
11
102.771
21
-74.5296
0
LINE
8
Black
10
102.771
20
-74.5296
11
102.771
21
-73.7204
0
LINE
8
Black
10
102.771
20
-73.7204
11
102.82
21
-73.4468
0
LINE
8
Black
10
102.82
20
-73.4468
11
102.959
21
-73.2062
0
LINE
8
Black
10
102.959
20
-73.2062
11
103.171
21
-73.0276
0
LINE
8
Black
10
103.171
20
-73.0276
11
103.433
21
-72.9326
0
LINE
8
Black
10
103.433
20
-72.9326
11
103.71
21
-72.9326
0
LINE
8
Black
10
103.71
20
-72.9326
11
103.971
21
-73.0276
0
LINE
8
Black
10
101.431
20
-73.0276
11
101.644
21
-73.2062
0
LINE
8
Black
10
101.644
20
-73.2062
11
101.783
21
-73.4468
0
LINE
8
Black
10
101.783
20
-73.4468
11
101.831
21
-73.7204
0
LINE
8
Black
10
101.831
20
-73.7204
11
101.831
21
-74.5296
0
LINE
8
Black
10
101.831
20
-74.5296
11
101.783
21
-74.8032
0
LINE
8
Black
10
101.783
20
-74.8032
11
101.644
21
-75.0438
0
LINE
8
Black
10
101.644
20
-75.0438
11
101.431
21
-75.2224
0
LINE
8
Black
10
101.431
20
-75.2224
11
101.17
21
-75.3174
0
LINE
8
Black
10
101.17
20
-75.3174
11
100.893
21
-75.3174
0
LINE
8
Black
10
100.893
20
-75.3174
11
100.631
21
-75.2224
0
LINE
8
Black
10
100.631
20
-75.2224
11
100.419
21
-75.0438
0
LINE
8
Black
10
100.419
20
-75.0438
11
100.28
21
-74.8032
0
LINE
8
Black
10
100.28
20
-74.8032
11
100.231
21
-74.5296
0
LINE
8
Black
10
100.231
20
-74.5296
11
100.231
21
-73.7204
0
LINE
8
Black
10
100.231
20
-73.7204
11
100.28
21
-73.4468
0
LINE
8
Black
10
100.28
20
-73.4468
11
100.419
21
-73.2062
0
LINE
8
Black
10
100.419
20
-73.2062
11
100.631
21
-73.0276
0
LINE
8
Black
10
100.631
20
-73.0276
11
100.893
21
-72.9326
0
LINE
8
Black
10
100.893
20
-72.9326
11
101.17
21
-72.9326
0
LINE
8
Black
10
101.17
20
-72.9326
11
101.431
21
-73.0276
0
LINE
8
Black
10
154.772
20
-73.0276
11
154.984
21
-73.2062
0
LINE
8
Black
10
154.984
20
-73.2062
11
155.123
21
-73.4468
0
LINE
8
Black
10
155.123
20
-73.4468
11
155.171
21
-73.7204
0
LINE
8
Black
10
155.171
20
-73.7204
11
155.171
21
-74.5296
0
LINE
8
Black
10
155.171
20
-74.5296
11
155.123
21
-74.8032
0
LINE
8
Black
10
155.123
20
-74.8032
11
154.984
21
-75.0438
0
LINE
8
Black
10
154.984
20
-75.0438
11
154.772
21
-75.2224
0
LINE
8
Black
10
154.772
20
-75.2224
11
154.51
21
-75.3174
0
LINE
8
Black
10
154.51
20
-75.3174
11
154.233
21
-75.3174
0
LINE
8
Black
10
154.233
20
-75.3174
11
153.971
21
-75.2224
0
LINE
8
Black
10
153.971
20
-75.2224
11
153.759
21
-75.0438
0
LINE
8
Black
10
153.759
20
-75.0438
11
153.62
21
-74.8032
0
LINE
8
Black
10
153.62
20
-74.8032
11
153.571
21
-74.5296
0
LINE
8
Black
10
153.571
20
-74.5296
11
153.571
21
-73.7204
0
LINE
8
Black
10
153.571
20
-73.7204
11
153.62
21
-73.4468
0
LINE
8
Black
10
153.62
20
-73.4468
11
153.759
21
-73.2062
0
LINE
8
Black
10
153.759
20
-73.2062
11
153.971
21
-73.0276
0
LINE
8
Black
10
153.971
20
-73.0276
11
154.233
21
-72.9326
0
LINE
8
Black
10
154.233
20
-72.9326
11
154.51
21
-72.9326
0
LINE
8
Black
10
154.51
20
-72.9326
11
154.772
21
-73.0276
0
LINE
8
Black
10
98.8915
20
-73.0276
11
99.1043
21
-73.2062
0
LINE
8
Black
10
99.1043
20
-73.2062
11
99.2433
21
-73.4468
0
LINE
8
Black
10
99.2433
20
-73.4468
11
99.2915
21
-73.7204
0
LINE
8
Black
10
99.2915
20
-73.7204
11
99.2915
21
-74.5296
0
LINE
8
Black
10
99.2915
20
-74.5296
11
99.2433
21
-74.8032
0
LINE
8
Black
10
99.2433
20
-74.8032
11
99.1043
21
-75.0438
0
LINE
8
Black
10
99.1043
20
-75.0438
11
98.8915
21
-75.2224
0
LINE
8
Black
10
98.8915
20
-75.2224
11
98.6304
21
-75.3174
0
LINE
8
Black
10
98.6304
20
-75.3174
11
98.3526
21
-75.3174
0
LINE
8
Black
10
98.3526
20
-75.3174
11
98.0915
21
-75.2224
0
LINE
8
Black
10
98.0915
20
-75.2224
11
97.8787
21
-75.0438
0
LINE
8
Black
10
97.8787
20
-75.0438
11
97.7397
21
-74.8032
0
LINE
8
Black
10
97.7397
20
-74.8032
11
97.6915
21
-74.5296
0
LINE
8
Black
10
97.6915
20
-74.5296
11
97.6915
21
-73.7204
0
LINE
8
Black
10
97.6915
20
-73.7204
11
97.7397
21
-73.4468
0
LINE
8
Black
10
97.7397
20
-73.4468
11
97.8787
21
-73.2062
0
LINE
8
Black
10
97.8787
20
-73.2062
11
98.0915
21
-73.0276
0
LINE
8
Black
10
98.0915
20
-73.0276
11
98.3526
21
-72.9326
0
LINE
8
Black
10
98.3526
20
-72.9326
11
98.6304
21
-72.9326
0
LINE
8
Black
10
98.6304
20
-72.9326
11
98.8915
21
-73.0276
  0
ENDSEC
  0
EOF
