G04 #@! TF.GenerationSoftware,KiCad,Pcbnew,(2017-03-04 revision f18196186)-makepkg*
G04 #@! TF.CreationDate,2017-03-09T17:33:05-05:00*
G04 #@! TF.ProjectId,C-CAN_Y17,432D43414E5F5931372E6B696361645F,rev?*
G04 #@! TF.FileFunction,Soldermask,Top*
G04 #@! TF.FilePolarity,Negative*
%FSLAX46Y46*%
G04 Gerber Fmt 4.6, Leading zero omitted, Abs format (unit mm)*
G04 Created by KiCad (PCBNEW (2017-03-04 revision f18196186)-makepkg) date 03/09/17 17:33:05*
%MOMM*%
%LPD*%
G01*
G04 APERTURE LIST*
%ADD10C,0.100000*%
%ADD11R,2.100000X2.100000*%
%ADD12O,2.100000X2.100000*%
%ADD13C,5.175200*%
%ADD14C,2.940000*%
%ADD15R,1.900000X1.650000*%
%ADD16R,1.700000X1.900000*%
%ADD17R,1.900000X1.700000*%
%ADD18C,2.400000*%
%ADD19R,2.400000X1.900000*%
%ADD20R,2.400000X4.200000*%
%ADD21R,8.275000X2.400000*%
%ADD22O,1.600000X2.400000*%
G04 APERTURE END LIST*
D10*
D11*
X105791000Y-102870000D03*
D12*
X105791000Y-105410000D03*
X105791000Y-107950000D03*
D13*
X100418900Y-79756000D03*
X177228500Y-79756000D03*
D14*
X118491000Y-82677000D03*
X124333000Y-82677000D03*
X130175000Y-82677000D03*
X136017000Y-82677000D03*
X141859000Y-82677000D03*
X147701000Y-82677000D03*
X153543000Y-82677000D03*
X159385000Y-82677000D03*
X118491000Y-76835000D03*
X124333000Y-76835000D03*
X130175000Y-76835000D03*
X136017000Y-76835000D03*
X141859000Y-76835000D03*
X147701000Y-76835000D03*
X153543000Y-76835000D03*
X159385000Y-76835000D03*
D13*
X151688800Y-121031000D03*
X100279200Y-121031000D03*
D14*
X134747000Y-118110000D03*
X128905000Y-118110000D03*
X123063000Y-118110000D03*
X117221000Y-118110000D03*
X134747000Y-123952000D03*
X128905000Y-123952000D03*
X123063000Y-123952000D03*
X117221000Y-123952000D03*
D15*
X160000000Y-113665000D03*
X157500000Y-113665000D03*
X146705000Y-94615000D03*
X149205000Y-94615000D03*
X117495000Y-95250000D03*
X119995000Y-95250000D03*
X132060000Y-94996000D03*
X129560000Y-94996000D03*
D12*
X165100000Y-109855000D03*
D11*
X165100000Y-107315000D03*
D16*
X168275000Y-107235000D03*
X168275000Y-109935000D03*
D17*
X160100000Y-98425000D03*
X157400000Y-98425000D03*
D18*
X165735000Y-93345000D03*
X170235000Y-93345000D03*
X165735000Y-99845000D03*
X170235000Y-99845000D03*
D19*
X160045000Y-116445000D03*
X160045000Y-121045000D03*
X160045000Y-118745000D03*
D20*
X166345000Y-118745000D03*
D21*
X133795000Y-100965000D03*
X121920000Y-100965000D03*
D12*
X100965000Y-99060000D03*
X100965000Y-96520000D03*
D11*
X100965000Y-93980000D03*
X100965000Y-102870000D03*
D12*
X100965000Y-105410000D03*
X100965000Y-107950000D03*
X105791000Y-99060000D03*
X105791000Y-96520000D03*
D11*
X105791000Y-93980000D03*
D12*
X110744000Y-99060000D03*
X110744000Y-96520000D03*
D11*
X110744000Y-93980000D03*
D22*
X98491500Y-110955001D03*
X98491500Y-90635001D03*
X101031500Y-110955001D03*
X101031500Y-90635001D03*
X103571500Y-110955001D03*
X103571500Y-90635001D03*
X106111500Y-110955001D03*
X106111500Y-90635001D03*
X108651500Y-110955001D03*
X108651500Y-90635001D03*
X111191500Y-110955001D03*
X111191500Y-90635001D03*
X113731500Y-110955001D03*
X113731500Y-90635001D03*
X116271500Y-110955001D03*
X116271500Y-90635001D03*
X118811500Y-110955001D03*
X118811500Y-90635001D03*
X121351500Y-110955001D03*
X121351500Y-90635001D03*
X123891500Y-110955001D03*
X123891500Y-90635001D03*
X126431500Y-110955001D03*
X126431500Y-90635001D03*
X128971500Y-110955001D03*
X128971500Y-90635001D03*
X131511500Y-110955001D03*
X131511500Y-90635001D03*
X134051500Y-110955001D03*
X134051500Y-90635001D03*
X136591500Y-110955001D03*
X136591500Y-90635001D03*
X139131500Y-110955001D03*
X139131500Y-90635001D03*
X141671500Y-110955001D03*
X141671500Y-90635001D03*
X144211500Y-110955001D03*
X144211500Y-90635001D03*
X146751500Y-110955001D03*
X146751500Y-90635001D03*
X149291500Y-110955001D03*
X149291500Y-90635001D03*
X151831500Y-110955001D03*
X151831500Y-90635001D03*
X154371500Y-110955001D03*
X154371500Y-90635001D03*
X156911500Y-110955001D03*
X156911500Y-90635001D03*
X159451500Y-110955001D03*
X159451500Y-90635001D03*
X161991500Y-110955001D03*
X161991500Y-90635001D03*
M02*
