G04 #@! TF.GenerationSoftware,KiCad,Pcbnew,(2017-03-04 revision f18196186)-makepkg*
G04 #@! TF.CreationDate,2017-03-09T17:33:05-05:00*
G04 #@! TF.ProjectId,C-CAN_Y17,432D43414E5F5931372E6B696361645F,rev?*
G04 #@! TF.FileFunction,Copper,L2,Bot,Signal*
G04 #@! TF.FilePolarity,Positive*
%FSLAX46Y46*%
G04 Gerber Fmt 4.6, Leading zero omitted, Abs format (unit mm)*
G04 Created by KiCad (PCBNEW (2017-03-04 revision f18196186)-makepkg) date 03/09/17 17:33:05*
%MOMM*%
%LPD*%
G01*
G04 APERTURE LIST*
%ADD10C,0.100000*%
%ADD11R,1.700000X1.700000*%
%ADD12O,1.700000X1.700000*%
%ADD13C,2.540000*%
%ADD14R,1.250000X1.500000*%
%ADD15R,1.500000X1.250000*%
%ADD16C,2.000000*%
%ADD17R,0.600000X1.550000*%
%ADD18R,2.650000X2.030000*%
%ADD19R,1.300000X1.500000*%
%ADD20O,1.200000X2.000000*%
%ADD21C,0.685800*%
%ADD22C,0.254000*%
%ADD23C,0.609600*%
G04 APERTURE END LIST*
D10*
D11*
X105791000Y-102870000D03*
D12*
X105791000Y-105410000D03*
X105791000Y-107950000D03*
D13*
X118491000Y-82677000D03*
X124333000Y-82677000D03*
X130175000Y-82677000D03*
X136017000Y-82677000D03*
X141859000Y-82677000D03*
X147701000Y-82677000D03*
X153543000Y-82677000D03*
X159385000Y-82677000D03*
X118491000Y-76835000D03*
X124333000Y-76835000D03*
X130175000Y-76835000D03*
X136017000Y-76835000D03*
X141859000Y-76835000D03*
X147701000Y-76835000D03*
X153543000Y-76835000D03*
X159385000Y-76835000D03*
X134747000Y-118110000D03*
X128905000Y-118110000D03*
X123063000Y-118110000D03*
X117221000Y-118110000D03*
X134747000Y-123952000D03*
X128905000Y-123952000D03*
X123063000Y-123952000D03*
X117221000Y-123952000D03*
D14*
X105410000Y-120035000D03*
X105410000Y-122535000D03*
X157480000Y-121305000D03*
X157480000Y-123805000D03*
D15*
X162540000Y-123825000D03*
X160040000Y-123825000D03*
D14*
X157500000Y-118725000D03*
X157500000Y-116225000D03*
D12*
X165100000Y-109855000D03*
D11*
X165100000Y-107315000D03*
D16*
X165735000Y-93345000D03*
X170235000Y-93345000D03*
X165735000Y-99845000D03*
X170235000Y-99845000D03*
D17*
X107315000Y-123985000D03*
X108585000Y-123985000D03*
X109855000Y-123985000D03*
X111125000Y-123985000D03*
X111125000Y-118585000D03*
X109855000Y-118585000D03*
X108585000Y-118585000D03*
X107315000Y-118585000D03*
D18*
X140335000Y-120650000D03*
X144515000Y-120650000D03*
D12*
X100965000Y-99060000D03*
X100965000Y-96520000D03*
D11*
X100965000Y-93980000D03*
X100965000Y-102870000D03*
D12*
X100965000Y-105410000D03*
X100965000Y-107950000D03*
X105791000Y-99060000D03*
X105791000Y-96520000D03*
D11*
X105791000Y-93980000D03*
D12*
X110744000Y-99060000D03*
X110744000Y-96520000D03*
D11*
X110744000Y-93980000D03*
D19*
X98425000Y-93900000D03*
X98425000Y-96600000D03*
X98425000Y-105490000D03*
X98425000Y-102790000D03*
X103378000Y-93900000D03*
X103378000Y-96600000D03*
X103251000Y-107649000D03*
X103251000Y-104949000D03*
X108331000Y-93773000D03*
X108331000Y-96473000D03*
D20*
X98491500Y-110955001D03*
X98491500Y-90635001D03*
X101031500Y-110955001D03*
X101031500Y-90635001D03*
X103571500Y-110955001D03*
X103571500Y-90635001D03*
X106111500Y-110955001D03*
X106111500Y-90635001D03*
X108651500Y-110955001D03*
X108651500Y-90635001D03*
X111191500Y-110955001D03*
X111191500Y-90635001D03*
X113731500Y-110955001D03*
X113731500Y-90635001D03*
X116271500Y-110955001D03*
X116271500Y-90635001D03*
X118811500Y-110955001D03*
X118811500Y-90635001D03*
X121351500Y-110955001D03*
X121351500Y-90635001D03*
X123891500Y-110955001D03*
X123891500Y-90635001D03*
X126431500Y-110955001D03*
X126431500Y-90635001D03*
X128971500Y-110955001D03*
X128971500Y-90635001D03*
X131511500Y-110955001D03*
X131511500Y-90635001D03*
X134051500Y-110955001D03*
X134051500Y-90635001D03*
X136591500Y-110955001D03*
X136591500Y-90635001D03*
X139131500Y-110955001D03*
X139131500Y-90635001D03*
X141671500Y-110955001D03*
X141671500Y-90635001D03*
X144211500Y-110955001D03*
X144211500Y-90635001D03*
X146751500Y-110955001D03*
X146751500Y-90635001D03*
X149291500Y-110955001D03*
X149291500Y-90635001D03*
X151831500Y-110955001D03*
X151831500Y-90635001D03*
X154371500Y-110955001D03*
X154371500Y-90635001D03*
X156911500Y-110955001D03*
X156911500Y-90635001D03*
X159451500Y-110955001D03*
X159451500Y-90635001D03*
X161991500Y-110955001D03*
X161991500Y-90635001D03*
D21*
X155321000Y-118745000D03*
X105410000Y-117348000D03*
X109220000Y-115824000D03*
X155448000Y-116459000D03*
X151384000Y-94615000D03*
X134366000Y-94996000D03*
X115062000Y-95250000D03*
X153924000Y-114681000D03*
X119380000Y-87261690D03*
X107696000Y-92202000D03*
X115189000Y-82677000D03*
X108966000Y-103759000D03*
X138938000Y-84582000D03*
X162052000Y-120650000D03*
D22*
X155321000Y-118745000D02*
X157480000Y-118745000D01*
X157480000Y-118745000D02*
X157500000Y-118725000D01*
X105410000Y-120035000D02*
X105410000Y-117348000D01*
X109855000Y-118585000D02*
X109855000Y-116459000D01*
X109855000Y-116459000D02*
X109220000Y-115824000D01*
X155448000Y-116459000D02*
X157266000Y-116459000D01*
X157266000Y-116459000D02*
X157500000Y-116225000D01*
D23*
X134747000Y-118110000D02*
X137287000Y-120650000D01*
X137287000Y-120650000D02*
X140335000Y-120650000D01*
D22*
X153924000Y-114681000D02*
X160274000Y-114681000D01*
X160274000Y-114681000D02*
X165100000Y-109855000D01*
X123063000Y-123952000D02*
X124859051Y-123952000D01*
X124859051Y-123952000D02*
X128905000Y-123952000D01*
X109855000Y-123985000D02*
X109855000Y-123510000D01*
X109855000Y-123510000D02*
X110962401Y-122402599D01*
X110962401Y-122402599D02*
X121513599Y-122402599D01*
X121513599Y-122402599D02*
X121793001Y-122682001D01*
X121793001Y-122682001D02*
X123063000Y-123952000D01*
X148958310Y-87261690D02*
X119864933Y-87261690D01*
X153543000Y-82677000D02*
X148958310Y-87261690D01*
X119864933Y-87261690D02*
X119380000Y-87261690D01*
X98425000Y-93900000D02*
X98425000Y-93800000D01*
X98425000Y-93800000D02*
X101031500Y-91193500D01*
X101031500Y-91193500D02*
X101031500Y-90635001D01*
X103571500Y-90635001D02*
X104425500Y-90635001D01*
X104425500Y-90635001D02*
X113932902Y-81127599D01*
X113932902Y-81127599D02*
X134467599Y-81127599D01*
X134467599Y-81127599D02*
X134747001Y-81407001D01*
X134747001Y-81407001D02*
X136017000Y-82677000D01*
X98425000Y-102790000D02*
X98425000Y-99928486D01*
X98425000Y-99928486D02*
X100704085Y-97649401D01*
X100704085Y-97649401D02*
X101507113Y-97649401D01*
X101507113Y-97649401D02*
X102448599Y-96707915D01*
X102448599Y-96707915D02*
X102448599Y-93011902D01*
X102448599Y-93011902D02*
X103571500Y-91889001D01*
X103571500Y-91889001D02*
X103571500Y-90635001D01*
X98425000Y-102790000D02*
X98425000Y-102690000D01*
X107696000Y-92202000D02*
X107696000Y-93138000D01*
X107696000Y-93138000D02*
X108331000Y-93773000D01*
X108331000Y-93773000D02*
X108331000Y-92769000D01*
X108331000Y-92769000D02*
X110312090Y-90787910D01*
X110312090Y-90787910D02*
X110312090Y-89059859D01*
X116694949Y-82677000D02*
X118491000Y-82677000D01*
X110312090Y-89059859D02*
X116694949Y-82677000D01*
X108651500Y-90635001D02*
X108651500Y-89214500D01*
X108651500Y-89214500D02*
X115189000Y-82677000D01*
X103378000Y-93900000D02*
X103378000Y-93800000D01*
X103378000Y-93800000D02*
X105263589Y-91914411D01*
X105263589Y-91914411D02*
X106518090Y-91914411D01*
X106518090Y-91914411D02*
X107797500Y-90635001D01*
X107797500Y-90635001D02*
X108651500Y-90635001D01*
X103251000Y-104949000D02*
X104155000Y-104949000D01*
X104155000Y-104949000D02*
X104823401Y-104280599D01*
X104823401Y-104280599D02*
X108444401Y-104280599D01*
X108444401Y-104280599D02*
X108966000Y-103759000D01*
X138938000Y-84582000D02*
X138938000Y-79756000D01*
X138938000Y-79756000D02*
X136017000Y-76835000D01*
X108585000Y-123985000D02*
X108585000Y-123510000D01*
X108585000Y-123510000D02*
X112435599Y-119659401D01*
X112435599Y-119659401D02*
X121513599Y-119659401D01*
X121513599Y-119659401D02*
X121793001Y-119379999D01*
X121793001Y-119379999D02*
X123063000Y-118110000D01*
X111125000Y-118585000D02*
X111125000Y-111021501D01*
X111125000Y-111021501D02*
X111191500Y-110955001D01*
X107315000Y-118585000D02*
X107315000Y-111437501D01*
X107315000Y-111437501D02*
X107797500Y-110955001D01*
X107797500Y-110955001D02*
X108651500Y-110955001D01*
X152557000Y-125349000D02*
X150793000Y-125349000D01*
X150793000Y-125349000D02*
X146094000Y-120650000D01*
X146094000Y-120650000D02*
X144515000Y-120650000D01*
X157480000Y-121305000D02*
X156601000Y-121305000D01*
X156601000Y-121305000D02*
X152557000Y-125349000D01*
X157480000Y-121305000D02*
X161397000Y-121305000D01*
X161397000Y-121305000D02*
X162052000Y-120650000D01*
X162052000Y-120650000D02*
X160040000Y-122662000D01*
X160040000Y-122662000D02*
X160040000Y-123825000D01*
X98425000Y-96600000D02*
X100885000Y-96600000D01*
X100885000Y-96600000D02*
X100965000Y-96520000D01*
X98425000Y-105490000D02*
X100885000Y-105490000D01*
X100885000Y-105490000D02*
X100965000Y-105410000D01*
X103378000Y-96600000D02*
X105711000Y-96600000D01*
X105711000Y-96600000D02*
X105791000Y-96520000D01*
X103251000Y-107649000D02*
X103251000Y-107549000D01*
X103251000Y-107549000D02*
X105390000Y-105410000D01*
X105390000Y-105410000D02*
X105791000Y-105410000D01*
X108331000Y-96473000D02*
X110697000Y-96473000D01*
X110697000Y-96473000D02*
X110744000Y-96520000D01*
G36*
X180265000Y-128195000D02*
X97230000Y-128195000D01*
X97230000Y-124270750D01*
X106380000Y-124270750D01*
X106380000Y-124886309D01*
X106476673Y-125119698D01*
X106655301Y-125298327D01*
X106888690Y-125395000D01*
X107029250Y-125395000D01*
X107188000Y-125236250D01*
X107188000Y-124112000D01*
X106538750Y-124112000D01*
X106380000Y-124270750D01*
X97230000Y-124270750D01*
X97230000Y-121629595D01*
X97256077Y-121629595D01*
X97715270Y-122740928D01*
X98564799Y-123591941D01*
X99675330Y-124053074D01*
X100877795Y-124054123D01*
X101989128Y-123594930D01*
X102764660Y-122820750D01*
X104150000Y-122820750D01*
X104150000Y-123411309D01*
X104246673Y-123644698D01*
X104425301Y-123823327D01*
X104658690Y-123920000D01*
X105124250Y-123920000D01*
X105283000Y-123761250D01*
X105283000Y-122662000D01*
X105537000Y-122662000D01*
X105537000Y-123761250D01*
X105695750Y-123920000D01*
X106161310Y-123920000D01*
X106394699Y-123823327D01*
X106449388Y-123768638D01*
X106538750Y-123858000D01*
X107188000Y-123858000D01*
X107188000Y-122733750D01*
X107442000Y-122733750D01*
X107442000Y-123858000D01*
X107462000Y-123858000D01*
X107462000Y-124112000D01*
X107442000Y-124112000D01*
X107442000Y-125236250D01*
X107600750Y-125395000D01*
X107741310Y-125395000D01*
X107958028Y-125305232D01*
X108037235Y-125358157D01*
X108285000Y-125407440D01*
X108885000Y-125407440D01*
X109132765Y-125358157D01*
X109220000Y-125299868D01*
X109307235Y-125358157D01*
X109555000Y-125407440D01*
X110155000Y-125407440D01*
X110402765Y-125358157D01*
X110490000Y-125299868D01*
X110577235Y-125358157D01*
X110825000Y-125407440D01*
X111425000Y-125407440D01*
X111672765Y-125358157D01*
X111760136Y-125299777D01*
X116052828Y-125299777D01*
X116184520Y-125594657D01*
X116892036Y-125866261D01*
X117649632Y-125846436D01*
X118257480Y-125594657D01*
X118389172Y-125299777D01*
X117221000Y-124131605D01*
X116052828Y-125299777D01*
X111760136Y-125299777D01*
X111882809Y-125217809D01*
X112023157Y-125007765D01*
X112072440Y-124760000D01*
X112072440Y-123210000D01*
X112063409Y-123164599D01*
X115482726Y-123164599D01*
X115306739Y-123623036D01*
X115326564Y-124380632D01*
X115578343Y-124988480D01*
X115873223Y-125120172D01*
X117041395Y-123952000D01*
X117027253Y-123937858D01*
X117206858Y-123758253D01*
X117221000Y-123772395D01*
X117235143Y-123758253D01*
X117414748Y-123937858D01*
X117400605Y-123952000D01*
X118568777Y-125120172D01*
X118863657Y-124988480D01*
X119135261Y-124280964D01*
X119115436Y-123523368D01*
X118966829Y-123164599D01*
X121197969Y-123164599D01*
X121289321Y-123255951D01*
X121158332Y-123571410D01*
X121157670Y-124329265D01*
X121447078Y-125029686D01*
X121982495Y-125566039D01*
X122682410Y-125856668D01*
X123440265Y-125857330D01*
X124140686Y-125567922D01*
X124677039Y-125032505D01*
X124809293Y-124714000D01*
X127158639Y-124714000D01*
X127289078Y-125029686D01*
X127824495Y-125566039D01*
X128524410Y-125856668D01*
X129282265Y-125857330D01*
X129982686Y-125567922D01*
X130251299Y-125299777D01*
X133578828Y-125299777D01*
X133710520Y-125594657D01*
X134418036Y-125866261D01*
X135175632Y-125846436D01*
X135783480Y-125594657D01*
X135915172Y-125299777D01*
X134747000Y-124131605D01*
X133578828Y-125299777D01*
X130251299Y-125299777D01*
X130519039Y-125032505D01*
X130809668Y-124332590D01*
X130810287Y-123623036D01*
X132832739Y-123623036D01*
X132852564Y-124380632D01*
X133104343Y-124988480D01*
X133399223Y-125120172D01*
X134567395Y-123952000D01*
X134926605Y-123952000D01*
X136094777Y-125120172D01*
X136389657Y-124988480D01*
X136661261Y-124280964D01*
X136641436Y-123523368D01*
X136389657Y-122915520D01*
X136094777Y-122783828D01*
X134926605Y-123952000D01*
X134567395Y-123952000D01*
X133399223Y-122783828D01*
X133104343Y-122915520D01*
X132832739Y-123623036D01*
X130810287Y-123623036D01*
X130810330Y-123574735D01*
X130520922Y-122874314D01*
X130251303Y-122604223D01*
X133578828Y-122604223D01*
X134747000Y-123772395D01*
X135915172Y-122604223D01*
X135783480Y-122309343D01*
X135075964Y-122037739D01*
X134318368Y-122057564D01*
X133710520Y-122309343D01*
X133578828Y-122604223D01*
X130251303Y-122604223D01*
X129985505Y-122337961D01*
X129285590Y-122047332D01*
X128527735Y-122046670D01*
X127827314Y-122336078D01*
X127290961Y-122871495D01*
X127158707Y-123190000D01*
X124809361Y-123190000D01*
X124678922Y-122874314D01*
X124143505Y-122337961D01*
X123443590Y-122047332D01*
X122685735Y-122046670D01*
X122366999Y-122178369D01*
X122052414Y-121863784D01*
X122022528Y-121843815D01*
X121805204Y-121698603D01*
X121513599Y-121640599D01*
X111532032Y-121640599D01*
X112751230Y-120421401D01*
X121513599Y-120421401D01*
X121805204Y-120363397D01*
X122052414Y-120198216D01*
X122366951Y-119883679D01*
X122682410Y-120014668D01*
X123440265Y-120015330D01*
X124140686Y-119725922D01*
X124677039Y-119190505D01*
X124967668Y-118490590D01*
X124967670Y-118487265D01*
X126999670Y-118487265D01*
X127289078Y-119187686D01*
X127824495Y-119724039D01*
X128524410Y-120014668D01*
X129282265Y-120015330D01*
X129982686Y-119725922D01*
X130519039Y-119190505D01*
X130809668Y-118490590D01*
X130809670Y-118487265D01*
X132841670Y-118487265D01*
X133131078Y-119187686D01*
X133666495Y-119724039D01*
X134366410Y-120014668D01*
X135124265Y-120015330D01*
X135265072Y-119957150D01*
X136622461Y-121314539D01*
X136927354Y-121518262D01*
X137287000Y-121589800D01*
X138362560Y-121589800D01*
X138362560Y-121665000D01*
X138411843Y-121912765D01*
X138552191Y-122122809D01*
X138762235Y-122263157D01*
X139010000Y-122312440D01*
X141660000Y-122312440D01*
X141907765Y-122263157D01*
X142117809Y-122122809D01*
X142258157Y-121912765D01*
X142307440Y-121665000D01*
X142307440Y-119635000D01*
X142542560Y-119635000D01*
X142542560Y-121665000D01*
X142591843Y-121912765D01*
X142732191Y-122122809D01*
X142942235Y-122263157D01*
X143190000Y-122312440D01*
X145840000Y-122312440D01*
X146087765Y-122263157D01*
X146297809Y-122122809D01*
X146374461Y-122008092D01*
X150254185Y-125887816D01*
X150501396Y-126052997D01*
X150793000Y-126111000D01*
X152557000Y-126111000D01*
X152848605Y-126052996D01*
X153095815Y-125887815D01*
X154892880Y-124090750D01*
X156220000Y-124090750D01*
X156220000Y-124681309D01*
X156316673Y-124914698D01*
X156495301Y-125093327D01*
X156728690Y-125190000D01*
X157194250Y-125190000D01*
X157353000Y-125031250D01*
X157353000Y-123932000D01*
X156378750Y-123932000D01*
X156220000Y-124090750D01*
X154892880Y-124090750D01*
X156441329Y-122542302D01*
X156458320Y-122553654D01*
X156316673Y-122695302D01*
X156220000Y-122928691D01*
X156220000Y-123519250D01*
X156378750Y-123678000D01*
X157353000Y-123678000D01*
X157353000Y-123658000D01*
X157607000Y-123658000D01*
X157607000Y-123678000D01*
X157627000Y-123678000D01*
X157627000Y-123932000D01*
X157607000Y-123932000D01*
X157607000Y-125031250D01*
X157765750Y-125190000D01*
X158231310Y-125190000D01*
X158464699Y-125093327D01*
X158643327Y-124914698D01*
X158717363Y-124735959D01*
X158832191Y-124907809D01*
X159042235Y-125048157D01*
X159290000Y-125097440D01*
X160790000Y-125097440D01*
X161037765Y-125048157D01*
X161247809Y-124907809D01*
X161288654Y-124846680D01*
X161430302Y-124988327D01*
X161663691Y-125085000D01*
X162254250Y-125085000D01*
X162413000Y-124926250D01*
X162413000Y-123952000D01*
X162667000Y-123952000D01*
X162667000Y-124926250D01*
X162825750Y-125085000D01*
X163416309Y-125085000D01*
X163649698Y-124988327D01*
X163828327Y-124809699D01*
X163925000Y-124576310D01*
X163925000Y-124110750D01*
X163766250Y-123952000D01*
X162667000Y-123952000D01*
X162413000Y-123952000D01*
X162393000Y-123952000D01*
X162393000Y-123698000D01*
X162413000Y-123698000D01*
X162413000Y-122723750D01*
X162667000Y-122723750D01*
X162667000Y-123698000D01*
X163766250Y-123698000D01*
X163925000Y-123539250D01*
X163925000Y-123073690D01*
X163828327Y-122840301D01*
X163649698Y-122661673D01*
X163416309Y-122565000D01*
X162825750Y-122565000D01*
X162667000Y-122723750D01*
X162413000Y-122723750D01*
X162254250Y-122565000D01*
X161663691Y-122565000D01*
X161430302Y-122661673D01*
X161288654Y-122803320D01*
X161247809Y-122742191D01*
X161121702Y-122657928D01*
X162151644Y-121627987D01*
X162245663Y-121628069D01*
X162605212Y-121479507D01*
X162880540Y-121204659D01*
X163029730Y-120845370D01*
X163030069Y-120456337D01*
X162881507Y-120096788D01*
X162606659Y-119821460D01*
X162247370Y-119672270D01*
X161858337Y-119671931D01*
X161498788Y-119820493D01*
X161223460Y-120095341D01*
X161074270Y-120454630D01*
X161074193Y-120543000D01*
X158750053Y-120543000D01*
X158703157Y-120307235D01*
X158562809Y-120097191D01*
X158449802Y-120021682D01*
X158582809Y-119932809D01*
X158723157Y-119722765D01*
X158772440Y-119475000D01*
X158772440Y-117975000D01*
X158723157Y-117727235D01*
X158582809Y-117517191D01*
X158521680Y-117476346D01*
X158663327Y-117334698D01*
X158760000Y-117101309D01*
X158760000Y-116510750D01*
X158601250Y-116352000D01*
X157627000Y-116352000D01*
X157627000Y-116372000D01*
X157373000Y-116372000D01*
X157373000Y-116352000D01*
X156398750Y-116352000D01*
X156240000Y-116510750D01*
X156240000Y-117101309D01*
X156336673Y-117334698D01*
X156478320Y-117476346D01*
X156417191Y-117517191D01*
X156276843Y-117727235D01*
X156227560Y-117975000D01*
X156227560Y-117983000D01*
X155942083Y-117983000D01*
X155875659Y-117916460D01*
X155516370Y-117767270D01*
X155127337Y-117766931D01*
X154767788Y-117915493D01*
X154492460Y-118190341D01*
X154343270Y-118549630D01*
X154342931Y-118938663D01*
X154491493Y-119298212D01*
X154766341Y-119573540D01*
X155125630Y-119722730D01*
X155514663Y-119723069D01*
X155874212Y-119574507D01*
X155941837Y-119507000D01*
X156233925Y-119507000D01*
X156276843Y-119722765D01*
X156417191Y-119932809D01*
X156530198Y-120008318D01*
X156397191Y-120097191D01*
X156256843Y-120307235D01*
X156207560Y-120555000D01*
X156207560Y-120669048D01*
X156062185Y-120766184D01*
X154368165Y-122460204D01*
X154710874Y-121634870D01*
X154711923Y-120432405D01*
X154252730Y-119321072D01*
X153403201Y-118470059D01*
X152292670Y-118008926D01*
X151090205Y-118007877D01*
X149978872Y-118467070D01*
X149127859Y-119316599D01*
X148666726Y-120427130D01*
X148665677Y-121629595D01*
X149027919Y-122506289D01*
X146632814Y-120111184D01*
X146487440Y-120014048D01*
X146487440Y-119635000D01*
X146438157Y-119387235D01*
X146297809Y-119177191D01*
X146087765Y-119036843D01*
X145840000Y-118987560D01*
X143190000Y-118987560D01*
X142942235Y-119036843D01*
X142732191Y-119177191D01*
X142591843Y-119387235D01*
X142542560Y-119635000D01*
X142307440Y-119635000D01*
X142258157Y-119387235D01*
X142117809Y-119177191D01*
X141907765Y-119036843D01*
X141660000Y-118987560D01*
X139010000Y-118987560D01*
X138762235Y-119036843D01*
X138552191Y-119177191D01*
X138411843Y-119387235D01*
X138362560Y-119635000D01*
X138362560Y-119710200D01*
X137676278Y-119710200D01*
X136594454Y-118628376D01*
X136651668Y-118490590D01*
X136652330Y-117732735D01*
X136362922Y-117032314D01*
X135827505Y-116495961D01*
X135127590Y-116205332D01*
X134369735Y-116204670D01*
X133669314Y-116494078D01*
X133132961Y-117029495D01*
X132842332Y-117729410D01*
X132841670Y-118487265D01*
X130809670Y-118487265D01*
X130810330Y-117732735D01*
X130520922Y-117032314D01*
X129985505Y-116495961D01*
X129285590Y-116205332D01*
X128527735Y-116204670D01*
X127827314Y-116494078D01*
X127290961Y-117029495D01*
X127000332Y-117729410D01*
X126999670Y-118487265D01*
X124967670Y-118487265D01*
X124968330Y-117732735D01*
X124678922Y-117032314D01*
X124143505Y-116495961D01*
X123443590Y-116205332D01*
X122685735Y-116204670D01*
X121985314Y-116494078D01*
X121448961Y-117029495D01*
X121158332Y-117729410D01*
X121157670Y-118487265D01*
X121289369Y-118806001D01*
X121197969Y-118897401D01*
X118956746Y-118897401D01*
X119125668Y-118490590D01*
X119126330Y-117732735D01*
X118836922Y-117032314D01*
X118301505Y-116495961D01*
X117601590Y-116205332D01*
X116843735Y-116204670D01*
X116143314Y-116494078D01*
X115606961Y-117029495D01*
X115316332Y-117729410D01*
X115315670Y-118487265D01*
X115485135Y-118897401D01*
X112435599Y-118897401D01*
X112143994Y-118955405D01*
X112072440Y-119003216D01*
X112072440Y-117810000D01*
X112023157Y-117562235D01*
X111887000Y-117358463D01*
X111887000Y-114874663D01*
X152945931Y-114874663D01*
X153094493Y-115234212D01*
X153369341Y-115509540D01*
X153728630Y-115658730D01*
X154117663Y-115659069D01*
X154477212Y-115510507D01*
X154544837Y-115443000D01*
X156240000Y-115443000D01*
X156240000Y-115939250D01*
X156398750Y-116098000D01*
X157373000Y-116098000D01*
X157373000Y-116078000D01*
X157627000Y-116078000D01*
X157627000Y-116098000D01*
X158601250Y-116098000D01*
X158760000Y-115939250D01*
X158760000Y-115443000D01*
X160274000Y-115443000D01*
X160565605Y-115384996D01*
X160812815Y-115219815D01*
X164755391Y-111277240D01*
X165070907Y-111340000D01*
X165129093Y-111340000D01*
X165697378Y-111226961D01*
X166179147Y-110905054D01*
X166501054Y-110423285D01*
X166614093Y-109855000D01*
X166501054Y-109286715D01*
X166179147Y-108804946D01*
X166135223Y-108775597D01*
X166197765Y-108763157D01*
X166407809Y-108622809D01*
X166548157Y-108412765D01*
X166597440Y-108165000D01*
X166597440Y-106465000D01*
X166548157Y-106217235D01*
X166407809Y-106007191D01*
X166197765Y-105866843D01*
X165950000Y-105817560D01*
X164250000Y-105817560D01*
X164002235Y-105866843D01*
X163792191Y-106007191D01*
X163651843Y-106217235D01*
X163602560Y-106465000D01*
X163602560Y-108165000D01*
X163651843Y-108412765D01*
X163792191Y-108622809D01*
X164002235Y-108763157D01*
X164064777Y-108775597D01*
X164020853Y-108804946D01*
X163698946Y-109286715D01*
X163585907Y-109855000D01*
X163658321Y-110219048D01*
X163226500Y-110650869D01*
X163226500Y-110522969D01*
X163132491Y-110050355D01*
X162864777Y-109649692D01*
X162464114Y-109381978D01*
X161991500Y-109287969D01*
X161518886Y-109381978D01*
X161118223Y-109649692D01*
X160850509Y-110050355D01*
X160756500Y-110522969D01*
X160756500Y-111387033D01*
X160850509Y-111859647D01*
X161118223Y-112260310D01*
X161417254Y-112460116D01*
X159958370Y-113919000D01*
X154545083Y-113919000D01*
X154478659Y-113852460D01*
X154119370Y-113703270D01*
X153730337Y-113702931D01*
X153370788Y-113851493D01*
X153095460Y-114126341D01*
X152946270Y-114485630D01*
X152945931Y-114874663D01*
X111887000Y-114874663D01*
X111887000Y-112379097D01*
X112064777Y-112260310D01*
X112332491Y-111859647D01*
X112426500Y-111387033D01*
X112426500Y-110522969D01*
X112496500Y-110522969D01*
X112496500Y-111387033D01*
X112590509Y-111859647D01*
X112858223Y-112260310D01*
X113258886Y-112528024D01*
X113731500Y-112622033D01*
X114204114Y-112528024D01*
X114604777Y-112260310D01*
X114872491Y-111859647D01*
X114966500Y-111387033D01*
X114966500Y-110522969D01*
X115036500Y-110522969D01*
X115036500Y-111387033D01*
X115130509Y-111859647D01*
X115398223Y-112260310D01*
X115798886Y-112528024D01*
X116271500Y-112622033D01*
X116744114Y-112528024D01*
X117144777Y-112260310D01*
X117412491Y-111859647D01*
X117506500Y-111387033D01*
X117506500Y-110522969D01*
X117576500Y-110522969D01*
X117576500Y-111387033D01*
X117670509Y-111859647D01*
X117938223Y-112260310D01*
X118338886Y-112528024D01*
X118811500Y-112622033D01*
X119284114Y-112528024D01*
X119684777Y-112260310D01*
X119952491Y-111859647D01*
X120046500Y-111387033D01*
X120046500Y-110522969D01*
X120116500Y-110522969D01*
X120116500Y-111387033D01*
X120210509Y-111859647D01*
X120478223Y-112260310D01*
X120878886Y-112528024D01*
X121351500Y-112622033D01*
X121824114Y-112528024D01*
X122224777Y-112260310D01*
X122492491Y-111859647D01*
X122586500Y-111387033D01*
X122586500Y-110522969D01*
X122656500Y-110522969D01*
X122656500Y-111387033D01*
X122750509Y-111859647D01*
X123018223Y-112260310D01*
X123418886Y-112528024D01*
X123891500Y-112622033D01*
X124364114Y-112528024D01*
X124764777Y-112260310D01*
X125032491Y-111859647D01*
X125126500Y-111387033D01*
X125126500Y-110522969D01*
X125196500Y-110522969D01*
X125196500Y-111387033D01*
X125290509Y-111859647D01*
X125558223Y-112260310D01*
X125958886Y-112528024D01*
X126431500Y-112622033D01*
X126904114Y-112528024D01*
X127304777Y-112260310D01*
X127572491Y-111859647D01*
X127666500Y-111387033D01*
X127666500Y-110522969D01*
X127736500Y-110522969D01*
X127736500Y-111387033D01*
X127830509Y-111859647D01*
X128098223Y-112260310D01*
X128498886Y-112528024D01*
X128971500Y-112622033D01*
X129444114Y-112528024D01*
X129844777Y-112260310D01*
X130112491Y-111859647D01*
X130206500Y-111387033D01*
X130206500Y-110522969D01*
X130276500Y-110522969D01*
X130276500Y-111387033D01*
X130370509Y-111859647D01*
X130638223Y-112260310D01*
X131038886Y-112528024D01*
X131511500Y-112622033D01*
X131984114Y-112528024D01*
X132384777Y-112260310D01*
X132652491Y-111859647D01*
X132746500Y-111387033D01*
X132746500Y-110522969D01*
X132816500Y-110522969D01*
X132816500Y-111387033D01*
X132910509Y-111859647D01*
X133178223Y-112260310D01*
X133578886Y-112528024D01*
X134051500Y-112622033D01*
X134524114Y-112528024D01*
X134924777Y-112260310D01*
X135192491Y-111859647D01*
X135286500Y-111387033D01*
X135286500Y-110522969D01*
X135356500Y-110522969D01*
X135356500Y-111387033D01*
X135450509Y-111859647D01*
X135718223Y-112260310D01*
X136118886Y-112528024D01*
X136591500Y-112622033D01*
X137064114Y-112528024D01*
X137464777Y-112260310D01*
X137732491Y-111859647D01*
X137826500Y-111387033D01*
X137826500Y-110522969D01*
X137896500Y-110522969D01*
X137896500Y-111387033D01*
X137990509Y-111859647D01*
X138258223Y-112260310D01*
X138658886Y-112528024D01*
X139131500Y-112622033D01*
X139604114Y-112528024D01*
X140004777Y-112260310D01*
X140272491Y-111859647D01*
X140366500Y-111387033D01*
X140366500Y-110522969D01*
X140436500Y-110522969D01*
X140436500Y-111387033D01*
X140530509Y-111859647D01*
X140798223Y-112260310D01*
X141198886Y-112528024D01*
X141671500Y-112622033D01*
X142144114Y-112528024D01*
X142544777Y-112260310D01*
X142812491Y-111859647D01*
X142906500Y-111387033D01*
X142906500Y-110522969D01*
X142976500Y-110522969D01*
X142976500Y-111387033D01*
X143070509Y-111859647D01*
X143338223Y-112260310D01*
X143738886Y-112528024D01*
X144211500Y-112622033D01*
X144684114Y-112528024D01*
X145084777Y-112260310D01*
X145352491Y-111859647D01*
X145446500Y-111387033D01*
X145446500Y-110522969D01*
X145516500Y-110522969D01*
X145516500Y-111387033D01*
X145610509Y-111859647D01*
X145878223Y-112260310D01*
X146278886Y-112528024D01*
X146751500Y-112622033D01*
X147224114Y-112528024D01*
X147624777Y-112260310D01*
X147892491Y-111859647D01*
X147986500Y-111387033D01*
X147986500Y-110522969D01*
X148056500Y-110522969D01*
X148056500Y-111387033D01*
X148150509Y-111859647D01*
X148418223Y-112260310D01*
X148818886Y-112528024D01*
X149291500Y-112622033D01*
X149764114Y-112528024D01*
X150164777Y-112260310D01*
X150432491Y-111859647D01*
X150526500Y-111387033D01*
X150526500Y-110522969D01*
X150596500Y-110522969D01*
X150596500Y-111387033D01*
X150690509Y-111859647D01*
X150958223Y-112260310D01*
X151358886Y-112528024D01*
X151831500Y-112622033D01*
X152304114Y-112528024D01*
X152704777Y-112260310D01*
X152972491Y-111859647D01*
X153066500Y-111387033D01*
X153066500Y-110522969D01*
X153136500Y-110522969D01*
X153136500Y-111387033D01*
X153230509Y-111859647D01*
X153498223Y-112260310D01*
X153898886Y-112528024D01*
X154371500Y-112622033D01*
X154844114Y-112528024D01*
X155244777Y-112260310D01*
X155512491Y-111859647D01*
X155606500Y-111387033D01*
X155606500Y-110522969D01*
X155676500Y-110522969D01*
X155676500Y-111387033D01*
X155770509Y-111859647D01*
X156038223Y-112260310D01*
X156438886Y-112528024D01*
X156911500Y-112622033D01*
X157384114Y-112528024D01*
X157784777Y-112260310D01*
X158052491Y-111859647D01*
X158146500Y-111387033D01*
X158146500Y-110522969D01*
X158216500Y-110522969D01*
X158216500Y-111387033D01*
X158310509Y-111859647D01*
X158578223Y-112260310D01*
X158978886Y-112528024D01*
X159451500Y-112622033D01*
X159924114Y-112528024D01*
X160324777Y-112260310D01*
X160592491Y-111859647D01*
X160686500Y-111387033D01*
X160686500Y-110522969D01*
X160592491Y-110050355D01*
X160324777Y-109649692D01*
X159924114Y-109381978D01*
X159451500Y-109287969D01*
X158978886Y-109381978D01*
X158578223Y-109649692D01*
X158310509Y-110050355D01*
X158216500Y-110522969D01*
X158146500Y-110522969D01*
X158052491Y-110050355D01*
X157784777Y-109649692D01*
X157384114Y-109381978D01*
X156911500Y-109287969D01*
X156438886Y-109381978D01*
X156038223Y-109649692D01*
X155770509Y-110050355D01*
X155676500Y-110522969D01*
X155606500Y-110522969D01*
X155512491Y-110050355D01*
X155244777Y-109649692D01*
X154844114Y-109381978D01*
X154371500Y-109287969D01*
X153898886Y-109381978D01*
X153498223Y-109649692D01*
X153230509Y-110050355D01*
X153136500Y-110522969D01*
X153066500Y-110522969D01*
X152972491Y-110050355D01*
X152704777Y-109649692D01*
X152304114Y-109381978D01*
X151831500Y-109287969D01*
X151358886Y-109381978D01*
X150958223Y-109649692D01*
X150690509Y-110050355D01*
X150596500Y-110522969D01*
X150526500Y-110522969D01*
X150432491Y-110050355D01*
X150164777Y-109649692D01*
X149764114Y-109381978D01*
X149291500Y-109287969D01*
X148818886Y-109381978D01*
X148418223Y-109649692D01*
X148150509Y-110050355D01*
X148056500Y-110522969D01*
X147986500Y-110522969D01*
X147892491Y-110050355D01*
X147624777Y-109649692D01*
X147224114Y-109381978D01*
X146751500Y-109287969D01*
X146278886Y-109381978D01*
X145878223Y-109649692D01*
X145610509Y-110050355D01*
X145516500Y-110522969D01*
X145446500Y-110522969D01*
X145352491Y-110050355D01*
X145084777Y-109649692D01*
X144684114Y-109381978D01*
X144211500Y-109287969D01*
X143738886Y-109381978D01*
X143338223Y-109649692D01*
X143070509Y-110050355D01*
X142976500Y-110522969D01*
X142906500Y-110522969D01*
X142812491Y-110050355D01*
X142544777Y-109649692D01*
X142144114Y-109381978D01*
X141671500Y-109287969D01*
X141198886Y-109381978D01*
X140798223Y-109649692D01*
X140530509Y-110050355D01*
X140436500Y-110522969D01*
X140366500Y-110522969D01*
X140272491Y-110050355D01*
X140004777Y-109649692D01*
X139604114Y-109381978D01*
X139131500Y-109287969D01*
X138658886Y-109381978D01*
X138258223Y-109649692D01*
X137990509Y-110050355D01*
X137896500Y-110522969D01*
X137826500Y-110522969D01*
X137732491Y-110050355D01*
X137464777Y-109649692D01*
X137064114Y-109381978D01*
X136591500Y-109287969D01*
X136118886Y-109381978D01*
X135718223Y-109649692D01*
X135450509Y-110050355D01*
X135356500Y-110522969D01*
X135286500Y-110522969D01*
X135192491Y-110050355D01*
X134924777Y-109649692D01*
X134524114Y-109381978D01*
X134051500Y-109287969D01*
X133578886Y-109381978D01*
X133178223Y-109649692D01*
X132910509Y-110050355D01*
X132816500Y-110522969D01*
X132746500Y-110522969D01*
X132652491Y-110050355D01*
X132384777Y-109649692D01*
X131984114Y-109381978D01*
X131511500Y-109287969D01*
X131038886Y-109381978D01*
X130638223Y-109649692D01*
X130370509Y-110050355D01*
X130276500Y-110522969D01*
X130206500Y-110522969D01*
X130112491Y-110050355D01*
X129844777Y-109649692D01*
X129444114Y-109381978D01*
X128971500Y-109287969D01*
X128498886Y-109381978D01*
X128098223Y-109649692D01*
X127830509Y-110050355D01*
X127736500Y-110522969D01*
X127666500Y-110522969D01*
X127572491Y-110050355D01*
X127304777Y-109649692D01*
X126904114Y-109381978D01*
X126431500Y-109287969D01*
X125958886Y-109381978D01*
X125558223Y-109649692D01*
X125290509Y-110050355D01*
X125196500Y-110522969D01*
X125126500Y-110522969D01*
X125032491Y-110050355D01*
X124764777Y-109649692D01*
X124364114Y-109381978D01*
X123891500Y-109287969D01*
X123418886Y-109381978D01*
X123018223Y-109649692D01*
X122750509Y-110050355D01*
X122656500Y-110522969D01*
X122586500Y-110522969D01*
X122492491Y-110050355D01*
X122224777Y-109649692D01*
X121824114Y-109381978D01*
X121351500Y-109287969D01*
X120878886Y-109381978D01*
X120478223Y-109649692D01*
X120210509Y-110050355D01*
X120116500Y-110522969D01*
X120046500Y-110522969D01*
X119952491Y-110050355D01*
X119684777Y-109649692D01*
X119284114Y-109381978D01*
X118811500Y-109287969D01*
X118338886Y-109381978D01*
X117938223Y-109649692D01*
X117670509Y-110050355D01*
X117576500Y-110522969D01*
X117506500Y-110522969D01*
X117412491Y-110050355D01*
X117144777Y-109649692D01*
X116744114Y-109381978D01*
X116271500Y-109287969D01*
X115798886Y-109381978D01*
X115398223Y-109649692D01*
X115130509Y-110050355D01*
X115036500Y-110522969D01*
X114966500Y-110522969D01*
X114872491Y-110050355D01*
X114604777Y-109649692D01*
X114204114Y-109381978D01*
X113731500Y-109287969D01*
X113258886Y-109381978D01*
X112858223Y-109649692D01*
X112590509Y-110050355D01*
X112496500Y-110522969D01*
X112426500Y-110522969D01*
X112332491Y-110050355D01*
X112064777Y-109649692D01*
X111664114Y-109381978D01*
X111191500Y-109287969D01*
X110718886Y-109381978D01*
X110318223Y-109649692D01*
X110050509Y-110050355D01*
X109956500Y-110522969D01*
X109956500Y-111387033D01*
X110050509Y-111859647D01*
X110318223Y-112260310D01*
X110363000Y-112290229D01*
X110363000Y-115889369D01*
X110197987Y-115724356D01*
X110198069Y-115630337D01*
X110049507Y-115270788D01*
X109774659Y-114995460D01*
X109415370Y-114846270D01*
X109026337Y-114845931D01*
X108666788Y-114994493D01*
X108391460Y-115269341D01*
X108242270Y-115628630D01*
X108241931Y-116017663D01*
X108390493Y-116377212D01*
X108665341Y-116652540D01*
X109024630Y-116801730D01*
X109093000Y-116801790D01*
X109093000Y-117208837D01*
X109011310Y-117175000D01*
X108870750Y-117175000D01*
X108712000Y-117333750D01*
X108712000Y-118458000D01*
X108732000Y-118458000D01*
X108732000Y-118712000D01*
X108712000Y-118712000D01*
X108712000Y-119836250D01*
X108870750Y-119995000D01*
X109011310Y-119995000D01*
X109228028Y-119905232D01*
X109307235Y-119958157D01*
X109555000Y-120007440D01*
X110155000Y-120007440D01*
X110402765Y-119958157D01*
X110490000Y-119899868D01*
X110577235Y-119958157D01*
X110825000Y-120007440D01*
X111009929Y-120007440D01*
X108454810Y-122562560D01*
X108285000Y-122562560D01*
X108037235Y-122611843D01*
X107958028Y-122664768D01*
X107741310Y-122575000D01*
X107600750Y-122575000D01*
X107442000Y-122733750D01*
X107188000Y-122733750D01*
X107029250Y-122575000D01*
X106888690Y-122575000D01*
X106655301Y-122671673D01*
X106588112Y-122738862D01*
X106511250Y-122662000D01*
X105537000Y-122662000D01*
X105283000Y-122662000D01*
X104308750Y-122662000D01*
X104150000Y-122820750D01*
X102764660Y-122820750D01*
X102840141Y-122745401D01*
X103301274Y-121634870D01*
X103302323Y-120432405D01*
X102843130Y-119321072D01*
X101993601Y-118470059D01*
X100883070Y-118008926D01*
X99680605Y-118007877D01*
X98569272Y-118467070D01*
X97718259Y-119316599D01*
X97257126Y-120427130D01*
X97256077Y-121629595D01*
X97230000Y-121629595D01*
X97230000Y-110522969D01*
X97256500Y-110522969D01*
X97256500Y-111387033D01*
X97350509Y-111859647D01*
X97618223Y-112260310D01*
X98018886Y-112528024D01*
X98491500Y-112622033D01*
X98964114Y-112528024D01*
X99364777Y-112260310D01*
X99632491Y-111859647D01*
X99726500Y-111387033D01*
X99726500Y-111082001D01*
X99796500Y-111082001D01*
X99796500Y-111482001D01*
X99939110Y-111944948D01*
X100248026Y-112318081D01*
X100676219Y-112544593D01*
X100713891Y-112548463D01*
X100904500Y-112423732D01*
X100904500Y-111082001D01*
X101158500Y-111082001D01*
X101158500Y-112423732D01*
X101349109Y-112548463D01*
X101386781Y-112544593D01*
X101814974Y-112318081D01*
X102123890Y-111944948D01*
X102266500Y-111482001D01*
X102266500Y-111082001D01*
X101158500Y-111082001D01*
X100904500Y-111082001D01*
X99796500Y-111082001D01*
X99726500Y-111082001D01*
X99726500Y-110522969D01*
X99707610Y-110428001D01*
X99796500Y-110428001D01*
X99796500Y-110828001D01*
X100904500Y-110828001D01*
X100904500Y-109486270D01*
X100713891Y-109361539D01*
X100676219Y-109365409D01*
X100248026Y-109591921D01*
X99939110Y-109965054D01*
X99796500Y-110428001D01*
X99707610Y-110428001D01*
X99632491Y-110050355D01*
X99364777Y-109649692D01*
X98964114Y-109381978D01*
X98491500Y-109287969D01*
X98018886Y-109381978D01*
X97618223Y-109649692D01*
X97350509Y-110050355D01*
X97256500Y-110522969D01*
X97230000Y-110522969D01*
X97230000Y-108306890D01*
X99523524Y-108306890D01*
X99693355Y-108716924D01*
X100083642Y-109145183D01*
X100608108Y-109391486D01*
X100838000Y-109270819D01*
X100838000Y-108077000D01*
X99644845Y-108077000D01*
X99523524Y-108306890D01*
X97230000Y-108306890D01*
X97230000Y-106567319D01*
X97317191Y-106697809D01*
X97527235Y-106838157D01*
X97775000Y-106887440D01*
X99075000Y-106887440D01*
X99322765Y-106838157D01*
X99532809Y-106697809D01*
X99673157Y-106487765D01*
X99720053Y-106252000D01*
X99746836Y-106252000D01*
X99885853Y-106460054D01*
X100226553Y-106687702D01*
X100083642Y-106754817D01*
X99693355Y-107183076D01*
X99523524Y-107593110D01*
X99644845Y-107823000D01*
X100838000Y-107823000D01*
X100838000Y-107803000D01*
X101092000Y-107803000D01*
X101092000Y-107823000D01*
X101112000Y-107823000D01*
X101112000Y-108077000D01*
X101092000Y-108077000D01*
X101092000Y-109270819D01*
X101311600Y-109386084D01*
X101158500Y-109486270D01*
X101158500Y-110828001D01*
X102266500Y-110828001D01*
X102266500Y-110522969D01*
X102336500Y-110522969D01*
X102336500Y-111387033D01*
X102430509Y-111859647D01*
X102698223Y-112260310D01*
X103098886Y-112528024D01*
X103571500Y-112622033D01*
X104044114Y-112528024D01*
X104444777Y-112260310D01*
X104712491Y-111859647D01*
X104806500Y-111387033D01*
X104806500Y-110522969D01*
X104712491Y-110050355D01*
X104444777Y-109649692D01*
X104044114Y-109381978D01*
X103571500Y-109287969D01*
X103098886Y-109381978D01*
X102698223Y-109649692D01*
X102430509Y-110050355D01*
X102336500Y-110522969D01*
X102266500Y-110522969D01*
X102266500Y-110428001D01*
X102123890Y-109965054D01*
X101814974Y-109591921D01*
X101386781Y-109365409D01*
X101379099Y-109364620D01*
X101846358Y-109145183D01*
X102128796Y-108835266D01*
X102143191Y-108856809D01*
X102353235Y-108997157D01*
X102601000Y-109046440D01*
X103901000Y-109046440D01*
X104148765Y-108997157D01*
X104358809Y-108856809D01*
X104493687Y-108654952D01*
X104519355Y-108716924D01*
X104909642Y-109145183D01*
X105434108Y-109391486D01*
X105663998Y-109270820D01*
X105663998Y-109376983D01*
X105638886Y-109381978D01*
X105238223Y-109649692D01*
X104970509Y-110050355D01*
X104876500Y-110522969D01*
X104876500Y-111387033D01*
X104970509Y-111859647D01*
X105238223Y-112260310D01*
X105638886Y-112528024D01*
X106111500Y-112622033D01*
X106553000Y-112534213D01*
X106553000Y-117358463D01*
X106416843Y-117562235D01*
X106367560Y-117810000D01*
X106367560Y-118743502D01*
X106282765Y-118686843D01*
X106172000Y-118664811D01*
X106172000Y-117969083D01*
X106238540Y-117902659D01*
X106387730Y-117543370D01*
X106388069Y-117154337D01*
X106239507Y-116794788D01*
X105964659Y-116519460D01*
X105605370Y-116370270D01*
X105216337Y-116369931D01*
X104856788Y-116518493D01*
X104581460Y-116793341D01*
X104432270Y-117152630D01*
X104431931Y-117541663D01*
X104580493Y-117901212D01*
X104648000Y-117968837D01*
X104648000Y-118664811D01*
X104537235Y-118686843D01*
X104327191Y-118827191D01*
X104186843Y-119037235D01*
X104137560Y-119285000D01*
X104137560Y-120785000D01*
X104186843Y-121032765D01*
X104327191Y-121242809D01*
X104388320Y-121283654D01*
X104246673Y-121425302D01*
X104150000Y-121658691D01*
X104150000Y-122249250D01*
X104308750Y-122408000D01*
X105283000Y-122408000D01*
X105283000Y-122388000D01*
X105537000Y-122388000D01*
X105537000Y-122408000D01*
X106511250Y-122408000D01*
X106670000Y-122249250D01*
X106670000Y-121658691D01*
X106573327Y-121425302D01*
X106431680Y-121283654D01*
X106492809Y-121242809D01*
X106633157Y-121032765D01*
X106682440Y-120785000D01*
X106682440Y-119901498D01*
X106767235Y-119958157D01*
X107015000Y-120007440D01*
X107615000Y-120007440D01*
X107862765Y-119958157D01*
X107941972Y-119905232D01*
X108158690Y-119995000D01*
X108299250Y-119995000D01*
X108458000Y-119836250D01*
X108458000Y-118712000D01*
X108438000Y-118712000D01*
X108438000Y-118458000D01*
X108458000Y-118458000D01*
X108458000Y-117333750D01*
X108299250Y-117175000D01*
X108158690Y-117175000D01*
X108077000Y-117208837D01*
X108077000Y-112459946D01*
X108178886Y-112528024D01*
X108651500Y-112622033D01*
X109124114Y-112528024D01*
X109524777Y-112260310D01*
X109792491Y-111859647D01*
X109886500Y-111387033D01*
X109886500Y-110522969D01*
X109792491Y-110050355D01*
X109524777Y-109649692D01*
X109124114Y-109381978D01*
X108651500Y-109287969D01*
X108178886Y-109381978D01*
X107778223Y-109649692D01*
X107510509Y-110050355D01*
X107465187Y-110278206D01*
X107317449Y-110376921D01*
X107252491Y-110050355D01*
X106984777Y-109649692D01*
X106584114Y-109381978D01*
X106291905Y-109323854D01*
X106672358Y-109145183D01*
X107062645Y-108716924D01*
X107232476Y-108306890D01*
X107111155Y-108077000D01*
X105918000Y-108077000D01*
X105918000Y-108097000D01*
X105664000Y-108097000D01*
X105664000Y-108077000D01*
X105644000Y-108077000D01*
X105644000Y-107823000D01*
X105664000Y-107823000D01*
X105664000Y-107803000D01*
X105918000Y-107803000D01*
X105918000Y-107823000D01*
X107111155Y-107823000D01*
X107232476Y-107593110D01*
X107062645Y-107183076D01*
X106672358Y-106754817D01*
X106529447Y-106687702D01*
X106870147Y-106460054D01*
X107192054Y-105978285D01*
X107305093Y-105410000D01*
X107232012Y-105042599D01*
X108444401Y-105042599D01*
X108736006Y-104984595D01*
X108983216Y-104819414D01*
X109065643Y-104736987D01*
X109159663Y-104737069D01*
X109519212Y-104588507D01*
X109794540Y-104313659D01*
X109943730Y-103954370D01*
X109944069Y-103565337D01*
X109795507Y-103205788D01*
X109520659Y-102930460D01*
X109161370Y-102781270D01*
X108772337Y-102780931D01*
X108412788Y-102929493D01*
X108137460Y-103204341D01*
X108006969Y-103518599D01*
X107288440Y-103518599D01*
X107288440Y-102020000D01*
X107239157Y-101772235D01*
X107098809Y-101562191D01*
X106888765Y-101421843D01*
X106641000Y-101372560D01*
X104941000Y-101372560D01*
X104693235Y-101421843D01*
X104483191Y-101562191D01*
X104342843Y-101772235D01*
X104293560Y-102020000D01*
X104293560Y-103697593D01*
X104148765Y-103600843D01*
X103901000Y-103551560D01*
X102601000Y-103551560D01*
X102462440Y-103579121D01*
X102462440Y-102020000D01*
X102413157Y-101772235D01*
X102272809Y-101562191D01*
X102062765Y-101421843D01*
X101815000Y-101372560D01*
X100115000Y-101372560D01*
X99867235Y-101421843D01*
X99657191Y-101562191D01*
X99588318Y-101665266D01*
X99532809Y-101582191D01*
X99322765Y-101441843D01*
X99187000Y-101414838D01*
X99187000Y-100244116D01*
X99667241Y-99763875D01*
X99693355Y-99826924D01*
X100083642Y-100255183D01*
X100608108Y-100501486D01*
X100838000Y-100380819D01*
X100838000Y-99187000D01*
X101092000Y-99187000D01*
X101092000Y-100380819D01*
X101321892Y-100501486D01*
X101846358Y-100255183D01*
X102236645Y-99826924D01*
X102406476Y-99416890D01*
X104349524Y-99416890D01*
X104519355Y-99826924D01*
X104909642Y-100255183D01*
X105434108Y-100501486D01*
X105664000Y-100380819D01*
X105664000Y-99187000D01*
X105918000Y-99187000D01*
X105918000Y-100380819D01*
X106147892Y-100501486D01*
X106672358Y-100255183D01*
X107062645Y-99826924D01*
X107232476Y-99416890D01*
X109302524Y-99416890D01*
X109472355Y-99826924D01*
X109862642Y-100255183D01*
X110387108Y-100501486D01*
X110617000Y-100380819D01*
X110617000Y-99187000D01*
X110871000Y-99187000D01*
X110871000Y-100380819D01*
X111100892Y-100501486D01*
X111625358Y-100255183D01*
X111704086Y-100168795D01*
X164099716Y-100168795D01*
X164348106Y-100769943D01*
X164807637Y-101230278D01*
X165408352Y-101479716D01*
X166058795Y-101480284D01*
X166659943Y-101231894D01*
X166894715Y-100997532D01*
X169262073Y-100997532D01*
X169360736Y-101264387D01*
X169970461Y-101490908D01*
X170620460Y-101466856D01*
X171109264Y-101264387D01*
X171207927Y-100997532D01*
X170235000Y-100024605D01*
X169262073Y-100997532D01*
X166894715Y-100997532D01*
X167120278Y-100772363D01*
X167369716Y-100171648D01*
X167370232Y-99580461D01*
X168589092Y-99580461D01*
X168613144Y-100230460D01*
X168815613Y-100719264D01*
X169082468Y-100817927D01*
X170055395Y-99845000D01*
X170414605Y-99845000D01*
X171387532Y-100817927D01*
X171654387Y-100719264D01*
X171880908Y-100109539D01*
X171856856Y-99459540D01*
X171654387Y-98970736D01*
X171387532Y-98872073D01*
X170414605Y-99845000D01*
X170055395Y-99845000D01*
X169082468Y-98872073D01*
X168815613Y-98970736D01*
X168589092Y-99580461D01*
X167370232Y-99580461D01*
X167370284Y-99521205D01*
X167121894Y-98920057D01*
X166894703Y-98692468D01*
X169262073Y-98692468D01*
X170235000Y-99665395D01*
X171207927Y-98692468D01*
X171109264Y-98425613D01*
X170499539Y-98199092D01*
X169849540Y-98223144D01*
X169360736Y-98425613D01*
X169262073Y-98692468D01*
X166894703Y-98692468D01*
X166662363Y-98459722D01*
X166061648Y-98210284D01*
X165411205Y-98209716D01*
X164810057Y-98458106D01*
X164349722Y-98917637D01*
X164100284Y-99518352D01*
X164099716Y-100168795D01*
X111704086Y-100168795D01*
X112015645Y-99826924D01*
X112185476Y-99416890D01*
X112064155Y-99187000D01*
X110871000Y-99187000D01*
X110617000Y-99187000D01*
X109423845Y-99187000D01*
X109302524Y-99416890D01*
X107232476Y-99416890D01*
X107111155Y-99187000D01*
X105918000Y-99187000D01*
X105664000Y-99187000D01*
X104470845Y-99187000D01*
X104349524Y-99416890D01*
X102406476Y-99416890D01*
X102285155Y-99187000D01*
X101092000Y-99187000D01*
X100838000Y-99187000D01*
X100818000Y-99187000D01*
X100818000Y-98933000D01*
X100838000Y-98933000D01*
X100838000Y-98913000D01*
X101092000Y-98913000D01*
X101092000Y-98933000D01*
X102285155Y-98933000D01*
X102406476Y-98703110D01*
X102236645Y-98293076D01*
X102095712Y-98138432D01*
X102363792Y-97870352D01*
X102480235Y-97948157D01*
X102728000Y-97997440D01*
X104028000Y-97997440D01*
X104275765Y-97948157D01*
X104485809Y-97807809D01*
X104626157Y-97597765D01*
X104650063Y-97477579D01*
X104711853Y-97570054D01*
X105052553Y-97797702D01*
X104909642Y-97864817D01*
X104519355Y-98293076D01*
X104349524Y-98703110D01*
X104470845Y-98933000D01*
X105664000Y-98933000D01*
X105664000Y-98913000D01*
X105918000Y-98913000D01*
X105918000Y-98933000D01*
X107111155Y-98933000D01*
X107232476Y-98703110D01*
X107062645Y-98293076D01*
X106672358Y-97864817D01*
X106529447Y-97797702D01*
X106870147Y-97570054D01*
X107049269Y-97301978D01*
X107082843Y-97470765D01*
X107223191Y-97680809D01*
X107433235Y-97821157D01*
X107681000Y-97870440D01*
X108981000Y-97870440D01*
X109228765Y-97821157D01*
X109438809Y-97680809D01*
X109579157Y-97470765D01*
X109583597Y-97448445D01*
X109664853Y-97570054D01*
X110005553Y-97797702D01*
X109862642Y-97864817D01*
X109472355Y-98293076D01*
X109302524Y-98703110D01*
X109423845Y-98933000D01*
X110617000Y-98933000D01*
X110617000Y-98913000D01*
X110871000Y-98913000D01*
X110871000Y-98933000D01*
X112064155Y-98933000D01*
X112185476Y-98703110D01*
X112015645Y-98293076D01*
X111625358Y-97864817D01*
X111482447Y-97797702D01*
X111823147Y-97570054D01*
X112145054Y-97088285D01*
X112258093Y-96520000D01*
X112145054Y-95951715D01*
X111823147Y-95469946D01*
X111779223Y-95440597D01*
X111841765Y-95428157D01*
X112051809Y-95287809D01*
X112192157Y-95077765D01*
X112241440Y-94830000D01*
X112241440Y-93668795D01*
X164099716Y-93668795D01*
X164348106Y-94269943D01*
X164807637Y-94730278D01*
X165408352Y-94979716D01*
X166058795Y-94980284D01*
X166659943Y-94731894D01*
X166894715Y-94497532D01*
X169262073Y-94497532D01*
X169360736Y-94764387D01*
X169970461Y-94990908D01*
X170620460Y-94966856D01*
X171109264Y-94764387D01*
X171207927Y-94497532D01*
X170235000Y-93524605D01*
X169262073Y-94497532D01*
X166894715Y-94497532D01*
X167120278Y-94272363D01*
X167369716Y-93671648D01*
X167370232Y-93080461D01*
X168589092Y-93080461D01*
X168613144Y-93730460D01*
X168815613Y-94219264D01*
X169082468Y-94317927D01*
X170055395Y-93345000D01*
X170414605Y-93345000D01*
X171387532Y-94317927D01*
X171654387Y-94219264D01*
X171880908Y-93609539D01*
X171856856Y-92959540D01*
X171654387Y-92470736D01*
X171387532Y-92372073D01*
X170414605Y-93345000D01*
X170055395Y-93345000D01*
X169082468Y-92372073D01*
X168815613Y-92470736D01*
X168589092Y-93080461D01*
X167370232Y-93080461D01*
X167370284Y-93021205D01*
X167121894Y-92420057D01*
X166894703Y-92192468D01*
X169262073Y-92192468D01*
X170235000Y-93165395D01*
X171207927Y-92192468D01*
X171109264Y-91925613D01*
X170499539Y-91699092D01*
X169849540Y-91723144D01*
X169360736Y-91925613D01*
X169262073Y-92192468D01*
X166894703Y-92192468D01*
X166662363Y-91959722D01*
X166061648Y-91710284D01*
X165411205Y-91709716D01*
X164810057Y-91958106D01*
X164349722Y-92417637D01*
X164100284Y-93018352D01*
X164099716Y-93668795D01*
X112241440Y-93668795D01*
X112241440Y-93130000D01*
X112192157Y-92882235D01*
X112051809Y-92672191D01*
X111841765Y-92531843D01*
X111594000Y-92482560D01*
X109894000Y-92482560D01*
X109646235Y-92531843D01*
X109644886Y-92532744D01*
X110285818Y-91891813D01*
X110318223Y-91940310D01*
X110718886Y-92208024D01*
X111191500Y-92302033D01*
X111664114Y-92208024D01*
X112064777Y-91940310D01*
X112332491Y-91539647D01*
X112426500Y-91067033D01*
X112426500Y-90202969D01*
X112496500Y-90202969D01*
X112496500Y-91067033D01*
X112590509Y-91539647D01*
X112858223Y-91940310D01*
X113258886Y-92208024D01*
X113731500Y-92302033D01*
X114204114Y-92208024D01*
X114604777Y-91940310D01*
X114872491Y-91539647D01*
X114966500Y-91067033D01*
X114966500Y-90202969D01*
X115036500Y-90202969D01*
X115036500Y-91067033D01*
X115130509Y-91539647D01*
X115398223Y-91940310D01*
X115798886Y-92208024D01*
X116271500Y-92302033D01*
X116744114Y-92208024D01*
X117144777Y-91940310D01*
X117412491Y-91539647D01*
X117506500Y-91067033D01*
X117506500Y-90202969D01*
X117576500Y-90202969D01*
X117576500Y-91067033D01*
X117670509Y-91539647D01*
X117938223Y-91940310D01*
X118338886Y-92208024D01*
X118811500Y-92302033D01*
X119284114Y-92208024D01*
X119684777Y-91940310D01*
X119952491Y-91539647D01*
X120046500Y-91067033D01*
X120046500Y-90202969D01*
X120116500Y-90202969D01*
X120116500Y-91067033D01*
X120210509Y-91539647D01*
X120478223Y-91940310D01*
X120878886Y-92208024D01*
X121351500Y-92302033D01*
X121824114Y-92208024D01*
X122224777Y-91940310D01*
X122492491Y-91539647D01*
X122586500Y-91067033D01*
X122586500Y-90202969D01*
X122656500Y-90202969D01*
X122656500Y-91067033D01*
X122750509Y-91539647D01*
X123018223Y-91940310D01*
X123418886Y-92208024D01*
X123891500Y-92302033D01*
X124364114Y-92208024D01*
X124764777Y-91940310D01*
X125032491Y-91539647D01*
X125126500Y-91067033D01*
X125126500Y-90202969D01*
X125196500Y-90202969D01*
X125196500Y-91067033D01*
X125290509Y-91539647D01*
X125558223Y-91940310D01*
X125958886Y-92208024D01*
X126431500Y-92302033D01*
X126904114Y-92208024D01*
X127304777Y-91940310D01*
X127572491Y-91539647D01*
X127666500Y-91067033D01*
X127666500Y-90202969D01*
X127736500Y-90202969D01*
X127736500Y-91067033D01*
X127830509Y-91539647D01*
X128098223Y-91940310D01*
X128498886Y-92208024D01*
X128971500Y-92302033D01*
X129444114Y-92208024D01*
X129844777Y-91940310D01*
X130112491Y-91539647D01*
X130206500Y-91067033D01*
X130206500Y-90202969D01*
X130276500Y-90202969D01*
X130276500Y-91067033D01*
X130370509Y-91539647D01*
X130638223Y-91940310D01*
X131038886Y-92208024D01*
X131511500Y-92302033D01*
X131984114Y-92208024D01*
X132384777Y-91940310D01*
X132652491Y-91539647D01*
X132746500Y-91067033D01*
X132746500Y-90202969D01*
X132816500Y-90202969D01*
X132816500Y-91067033D01*
X132910509Y-91539647D01*
X133178223Y-91940310D01*
X133578886Y-92208024D01*
X134051500Y-92302033D01*
X134524114Y-92208024D01*
X134924777Y-91940310D01*
X135192491Y-91539647D01*
X135286500Y-91067033D01*
X135286500Y-90202969D01*
X135356500Y-90202969D01*
X135356500Y-91067033D01*
X135450509Y-91539647D01*
X135718223Y-91940310D01*
X136118886Y-92208024D01*
X136591500Y-92302033D01*
X137064114Y-92208024D01*
X137464777Y-91940310D01*
X137732491Y-91539647D01*
X137826500Y-91067033D01*
X137826500Y-90202969D01*
X137896500Y-90202969D01*
X137896500Y-91067033D01*
X137990509Y-91539647D01*
X138258223Y-91940310D01*
X138658886Y-92208024D01*
X139131500Y-92302033D01*
X139604114Y-92208024D01*
X140004777Y-91940310D01*
X140272491Y-91539647D01*
X140366500Y-91067033D01*
X140366500Y-90202969D01*
X140436500Y-90202969D01*
X140436500Y-91067033D01*
X140530509Y-91539647D01*
X140798223Y-91940310D01*
X141198886Y-92208024D01*
X141671500Y-92302033D01*
X142144114Y-92208024D01*
X142544777Y-91940310D01*
X142812491Y-91539647D01*
X142906500Y-91067033D01*
X142906500Y-90202969D01*
X142976500Y-90202969D01*
X142976500Y-91067033D01*
X143070509Y-91539647D01*
X143338223Y-91940310D01*
X143738886Y-92208024D01*
X144211500Y-92302033D01*
X144684114Y-92208024D01*
X145084777Y-91940310D01*
X145352491Y-91539647D01*
X145446500Y-91067033D01*
X145446500Y-90202969D01*
X145516500Y-90202969D01*
X145516500Y-91067033D01*
X145610509Y-91539647D01*
X145878223Y-91940310D01*
X146278886Y-92208024D01*
X146751500Y-92302033D01*
X147224114Y-92208024D01*
X147624777Y-91940310D01*
X147892491Y-91539647D01*
X147986500Y-91067033D01*
X147986500Y-90202969D01*
X148056500Y-90202969D01*
X148056500Y-91067033D01*
X148150509Y-91539647D01*
X148418223Y-91940310D01*
X148818886Y-92208024D01*
X149291500Y-92302033D01*
X149764114Y-92208024D01*
X150164777Y-91940310D01*
X150432491Y-91539647D01*
X150526500Y-91067033D01*
X150526500Y-90202969D01*
X150596500Y-90202969D01*
X150596500Y-91067033D01*
X150690509Y-91539647D01*
X150958223Y-91940310D01*
X151358886Y-92208024D01*
X151831500Y-92302033D01*
X152304114Y-92208024D01*
X152704777Y-91940310D01*
X152972491Y-91539647D01*
X153066500Y-91067033D01*
X153066500Y-90202969D01*
X153136500Y-90202969D01*
X153136500Y-91067033D01*
X153230509Y-91539647D01*
X153498223Y-91940310D01*
X153898886Y-92208024D01*
X154371500Y-92302033D01*
X154844114Y-92208024D01*
X155244777Y-91940310D01*
X155512491Y-91539647D01*
X155606500Y-91067033D01*
X155606500Y-90202969D01*
X155676500Y-90202969D01*
X155676500Y-91067033D01*
X155770509Y-91539647D01*
X156038223Y-91940310D01*
X156438886Y-92208024D01*
X156911500Y-92302033D01*
X157384114Y-92208024D01*
X157784777Y-91940310D01*
X158052491Y-91539647D01*
X158146500Y-91067033D01*
X158146500Y-90762001D01*
X158216500Y-90762001D01*
X158216500Y-91162001D01*
X158359110Y-91624948D01*
X158668026Y-91998081D01*
X159096219Y-92224593D01*
X159133891Y-92228463D01*
X159324500Y-92103732D01*
X159324500Y-90762001D01*
X159578500Y-90762001D01*
X159578500Y-92103732D01*
X159769109Y-92228463D01*
X159806781Y-92224593D01*
X160234974Y-91998081D01*
X160543890Y-91624948D01*
X160686500Y-91162001D01*
X160686500Y-90762001D01*
X159578500Y-90762001D01*
X159324500Y-90762001D01*
X158216500Y-90762001D01*
X158146500Y-90762001D01*
X158146500Y-90202969D01*
X158127610Y-90108001D01*
X158216500Y-90108001D01*
X158216500Y-90508001D01*
X159324500Y-90508001D01*
X159324500Y-89166270D01*
X159578500Y-89166270D01*
X159578500Y-90508001D01*
X160686500Y-90508001D01*
X160686500Y-90202969D01*
X160756500Y-90202969D01*
X160756500Y-91067033D01*
X160850509Y-91539647D01*
X161118223Y-91940310D01*
X161518886Y-92208024D01*
X161991500Y-92302033D01*
X162464114Y-92208024D01*
X162864777Y-91940310D01*
X163132491Y-91539647D01*
X163226500Y-91067033D01*
X163226500Y-90202969D01*
X163132491Y-89730355D01*
X162864777Y-89329692D01*
X162464114Y-89061978D01*
X161991500Y-88967969D01*
X161518886Y-89061978D01*
X161118223Y-89329692D01*
X160850509Y-89730355D01*
X160756500Y-90202969D01*
X160686500Y-90202969D01*
X160686500Y-90108001D01*
X160543890Y-89645054D01*
X160234974Y-89271921D01*
X159806781Y-89045409D01*
X159769109Y-89041539D01*
X159578500Y-89166270D01*
X159324500Y-89166270D01*
X159133891Y-89041539D01*
X159096219Y-89045409D01*
X158668026Y-89271921D01*
X158359110Y-89645054D01*
X158216500Y-90108001D01*
X158127610Y-90108001D01*
X158052491Y-89730355D01*
X157784777Y-89329692D01*
X157384114Y-89061978D01*
X156911500Y-88967969D01*
X156438886Y-89061978D01*
X156038223Y-89329692D01*
X155770509Y-89730355D01*
X155676500Y-90202969D01*
X155606500Y-90202969D01*
X155512491Y-89730355D01*
X155244777Y-89329692D01*
X154844114Y-89061978D01*
X154371500Y-88967969D01*
X153898886Y-89061978D01*
X153498223Y-89329692D01*
X153230509Y-89730355D01*
X153136500Y-90202969D01*
X153066500Y-90202969D01*
X152972491Y-89730355D01*
X152704777Y-89329692D01*
X152304114Y-89061978D01*
X151831500Y-88967969D01*
X151358886Y-89061978D01*
X150958223Y-89329692D01*
X150690509Y-89730355D01*
X150596500Y-90202969D01*
X150526500Y-90202969D01*
X150432491Y-89730355D01*
X150164777Y-89329692D01*
X149764114Y-89061978D01*
X149291500Y-88967969D01*
X148818886Y-89061978D01*
X148418223Y-89329692D01*
X148150509Y-89730355D01*
X148056500Y-90202969D01*
X147986500Y-90202969D01*
X147892491Y-89730355D01*
X147624777Y-89329692D01*
X147224114Y-89061978D01*
X146751500Y-88967969D01*
X146278886Y-89061978D01*
X145878223Y-89329692D01*
X145610509Y-89730355D01*
X145516500Y-90202969D01*
X145446500Y-90202969D01*
X145352491Y-89730355D01*
X145084777Y-89329692D01*
X144684114Y-89061978D01*
X144211500Y-88967969D01*
X143738886Y-89061978D01*
X143338223Y-89329692D01*
X143070509Y-89730355D01*
X142976500Y-90202969D01*
X142906500Y-90202969D01*
X142812491Y-89730355D01*
X142544777Y-89329692D01*
X142144114Y-89061978D01*
X141671500Y-88967969D01*
X141198886Y-89061978D01*
X140798223Y-89329692D01*
X140530509Y-89730355D01*
X140436500Y-90202969D01*
X140366500Y-90202969D01*
X140272491Y-89730355D01*
X140004777Y-89329692D01*
X139604114Y-89061978D01*
X139131500Y-88967969D01*
X138658886Y-89061978D01*
X138258223Y-89329692D01*
X137990509Y-89730355D01*
X137896500Y-90202969D01*
X137826500Y-90202969D01*
X137732491Y-89730355D01*
X137464777Y-89329692D01*
X137064114Y-89061978D01*
X136591500Y-88967969D01*
X136118886Y-89061978D01*
X135718223Y-89329692D01*
X135450509Y-89730355D01*
X135356500Y-90202969D01*
X135286500Y-90202969D01*
X135192491Y-89730355D01*
X134924777Y-89329692D01*
X134524114Y-89061978D01*
X134051500Y-88967969D01*
X133578886Y-89061978D01*
X133178223Y-89329692D01*
X132910509Y-89730355D01*
X132816500Y-90202969D01*
X132746500Y-90202969D01*
X132652491Y-89730355D01*
X132384777Y-89329692D01*
X131984114Y-89061978D01*
X131511500Y-88967969D01*
X131038886Y-89061978D01*
X130638223Y-89329692D01*
X130370509Y-89730355D01*
X130276500Y-90202969D01*
X130206500Y-90202969D01*
X130112491Y-89730355D01*
X129844777Y-89329692D01*
X129444114Y-89061978D01*
X128971500Y-88967969D01*
X128498886Y-89061978D01*
X128098223Y-89329692D01*
X127830509Y-89730355D01*
X127736500Y-90202969D01*
X127666500Y-90202969D01*
X127572491Y-89730355D01*
X127304777Y-89329692D01*
X126904114Y-89061978D01*
X126431500Y-88967969D01*
X125958886Y-89061978D01*
X125558223Y-89329692D01*
X125290509Y-89730355D01*
X125196500Y-90202969D01*
X125126500Y-90202969D01*
X125032491Y-89730355D01*
X124764777Y-89329692D01*
X124364114Y-89061978D01*
X123891500Y-88967969D01*
X123418886Y-89061978D01*
X123018223Y-89329692D01*
X122750509Y-89730355D01*
X122656500Y-90202969D01*
X122586500Y-90202969D01*
X122492491Y-89730355D01*
X122224777Y-89329692D01*
X121824114Y-89061978D01*
X121351500Y-88967969D01*
X120878886Y-89061978D01*
X120478223Y-89329692D01*
X120210509Y-89730355D01*
X120116500Y-90202969D01*
X120046500Y-90202969D01*
X119952491Y-89730355D01*
X119684777Y-89329692D01*
X119284114Y-89061978D01*
X118811500Y-88967969D01*
X118338886Y-89061978D01*
X117938223Y-89329692D01*
X117670509Y-89730355D01*
X117576500Y-90202969D01*
X117506500Y-90202969D01*
X117412491Y-89730355D01*
X117144777Y-89329692D01*
X116744114Y-89061978D01*
X116271500Y-88967969D01*
X115798886Y-89061978D01*
X115398223Y-89329692D01*
X115130509Y-89730355D01*
X115036500Y-90202969D01*
X114966500Y-90202969D01*
X114872491Y-89730355D01*
X114604777Y-89329692D01*
X114204114Y-89061978D01*
X113731500Y-88967969D01*
X113258886Y-89061978D01*
X112858223Y-89329692D01*
X112590509Y-89730355D01*
X112496500Y-90202969D01*
X112426500Y-90202969D01*
X112332491Y-89730355D01*
X112064777Y-89329692D01*
X111664114Y-89061978D01*
X111433478Y-89016101D01*
X112994226Y-87455353D01*
X118401931Y-87455353D01*
X118550493Y-87814902D01*
X118825341Y-88090230D01*
X119184630Y-88239420D01*
X119573663Y-88239759D01*
X119933212Y-88091197D01*
X120000837Y-88023690D01*
X148958310Y-88023690D01*
X149249915Y-87965686D01*
X149497125Y-87800505D01*
X152846952Y-84450679D01*
X153162410Y-84581668D01*
X153920265Y-84582330D01*
X154620686Y-84292922D01*
X155157039Y-83757505D01*
X155447668Y-83057590D01*
X155447670Y-83054265D01*
X157479670Y-83054265D01*
X157769078Y-83754686D01*
X158304495Y-84291039D01*
X159004410Y-84581668D01*
X159762265Y-84582330D01*
X160462686Y-84292922D01*
X160999039Y-83757505D01*
X161289668Y-83057590D01*
X161290330Y-82299735D01*
X161000922Y-81599314D01*
X160465505Y-81062961D01*
X159765590Y-80772332D01*
X159007735Y-80771670D01*
X158307314Y-81061078D01*
X157770961Y-81596495D01*
X157480332Y-82296410D01*
X157479670Y-83054265D01*
X155447670Y-83054265D01*
X155448330Y-82299735D01*
X155158922Y-81599314D01*
X154623505Y-81062961D01*
X153923590Y-80772332D01*
X153165735Y-80771670D01*
X152465314Y-81061078D01*
X151928961Y-81596495D01*
X151638332Y-82296410D01*
X151637670Y-83054265D01*
X151769369Y-83373000D01*
X148642680Y-86499690D01*
X120001083Y-86499690D01*
X119934659Y-86433150D01*
X119575370Y-86283960D01*
X119186337Y-86283621D01*
X118826788Y-86432183D01*
X118551460Y-86707031D01*
X118402270Y-87066320D01*
X118401931Y-87455353D01*
X112994226Y-87455353D01*
X116822395Y-83627184D01*
X116875078Y-83754686D01*
X117410495Y-84291039D01*
X118110410Y-84581668D01*
X118868265Y-84582330D01*
X119568686Y-84292922D01*
X120105039Y-83757505D01*
X120395668Y-83057590D01*
X120396330Y-82299735D01*
X120226865Y-81889599D01*
X122597254Y-81889599D01*
X122428332Y-82296410D01*
X122427670Y-83054265D01*
X122717078Y-83754686D01*
X123252495Y-84291039D01*
X123952410Y-84581668D01*
X124710265Y-84582330D01*
X125410686Y-84292922D01*
X125679299Y-84024777D01*
X129006828Y-84024777D01*
X129138520Y-84319657D01*
X129846036Y-84591261D01*
X130603632Y-84571436D01*
X131211480Y-84319657D01*
X131343172Y-84024777D01*
X130175000Y-82856605D01*
X129006828Y-84024777D01*
X125679299Y-84024777D01*
X125947039Y-83757505D01*
X126237668Y-83057590D01*
X126238330Y-82299735D01*
X126068865Y-81889599D01*
X128436726Y-81889599D01*
X128260739Y-82348036D01*
X128280564Y-83105632D01*
X128532343Y-83713480D01*
X128827223Y-83845172D01*
X129995395Y-82677000D01*
X129981253Y-82662858D01*
X130160858Y-82483253D01*
X130175000Y-82497395D01*
X130189143Y-82483253D01*
X130368748Y-82662858D01*
X130354605Y-82677000D01*
X131522777Y-83845172D01*
X131817657Y-83713480D01*
X132089261Y-83005964D01*
X132069436Y-82248368D01*
X131920829Y-81889599D01*
X134151969Y-81889599D01*
X134243321Y-81980951D01*
X134112332Y-82296410D01*
X134111670Y-83054265D01*
X134401078Y-83754686D01*
X134936495Y-84291039D01*
X135636410Y-84581668D01*
X136394265Y-84582330D01*
X137094686Y-84292922D01*
X137631039Y-83757505D01*
X137921668Y-83057590D01*
X137922330Y-82299735D01*
X137632922Y-81599314D01*
X137097505Y-81062961D01*
X136397590Y-80772332D01*
X135639735Y-80771670D01*
X135320999Y-80903369D01*
X135006414Y-80588784D01*
X134759204Y-80423603D01*
X134467599Y-80365599D01*
X113932902Y-80365599D01*
X113641297Y-80423603D01*
X113394087Y-80588784D01*
X104528251Y-89454620D01*
X104444777Y-89329692D01*
X104044114Y-89061978D01*
X103571500Y-88967969D01*
X103098886Y-89061978D01*
X102698223Y-89329692D01*
X102430509Y-89730355D01*
X102336500Y-90202969D01*
X102336500Y-91067033D01*
X102430509Y-91539647D01*
X102595819Y-91787052D01*
X101909784Y-92473087D01*
X101893077Y-92498090D01*
X101815000Y-92482560D01*
X100820071Y-92482560D01*
X101005725Y-92296906D01*
X101031500Y-92302033D01*
X101504114Y-92208024D01*
X101904777Y-91940310D01*
X102172491Y-91539647D01*
X102266500Y-91067033D01*
X102266500Y-90202969D01*
X102172491Y-89730355D01*
X101904777Y-89329692D01*
X101504114Y-89061978D01*
X101031500Y-88967969D01*
X100558886Y-89061978D01*
X100158223Y-89329692D01*
X99890509Y-89730355D01*
X99796500Y-90202969D01*
X99796500Y-91067033D01*
X99843592Y-91303778D01*
X99611255Y-91536114D01*
X99726500Y-91162001D01*
X99726500Y-90762001D01*
X98618500Y-90762001D01*
X98618500Y-92103732D01*
X98809109Y-92228463D01*
X98846781Y-92224593D01*
X99008129Y-92139241D01*
X98644810Y-92502560D01*
X97775000Y-92502560D01*
X97527235Y-92551843D01*
X97317191Y-92692191D01*
X97230000Y-92822681D01*
X97230000Y-90762001D01*
X97256500Y-90762001D01*
X97256500Y-91162001D01*
X97399110Y-91624948D01*
X97708026Y-91998081D01*
X98136219Y-92224593D01*
X98173891Y-92228463D01*
X98364500Y-92103732D01*
X98364500Y-90762001D01*
X97256500Y-90762001D01*
X97230000Y-90762001D01*
X97230000Y-90108001D01*
X97256500Y-90108001D01*
X97256500Y-90508001D01*
X98364500Y-90508001D01*
X98364500Y-89166270D01*
X98618500Y-89166270D01*
X98618500Y-90508001D01*
X99726500Y-90508001D01*
X99726500Y-90108001D01*
X99583890Y-89645054D01*
X99274974Y-89271921D01*
X98846781Y-89045409D01*
X98809109Y-89041539D01*
X98618500Y-89166270D01*
X98364500Y-89166270D01*
X98173891Y-89041539D01*
X98136219Y-89045409D01*
X97708026Y-89271921D01*
X97399110Y-89645054D01*
X97256500Y-90108001D01*
X97230000Y-90108001D01*
X97230000Y-80354595D01*
X97395777Y-80354595D01*
X97854970Y-81465928D01*
X98704499Y-82316941D01*
X99815030Y-82778074D01*
X101017495Y-82779123D01*
X102128828Y-82319930D01*
X102979841Y-81470401D01*
X103440974Y-80359870D01*
X103442023Y-79157405D01*
X103039316Y-78182777D01*
X117322828Y-78182777D01*
X117454520Y-78477657D01*
X118162036Y-78749261D01*
X118919632Y-78729436D01*
X119527480Y-78477657D01*
X119659172Y-78182777D01*
X123164828Y-78182777D01*
X123296520Y-78477657D01*
X124004036Y-78749261D01*
X124761632Y-78729436D01*
X125369480Y-78477657D01*
X125501172Y-78182777D01*
X129006828Y-78182777D01*
X129138520Y-78477657D01*
X129846036Y-78749261D01*
X130603632Y-78729436D01*
X131211480Y-78477657D01*
X131343172Y-78182777D01*
X130175000Y-77014605D01*
X129006828Y-78182777D01*
X125501172Y-78182777D01*
X124333000Y-77014605D01*
X123164828Y-78182777D01*
X119659172Y-78182777D01*
X118491000Y-77014605D01*
X117322828Y-78182777D01*
X103039316Y-78182777D01*
X102982830Y-78046072D01*
X102133301Y-77195059D01*
X101022770Y-76733926D01*
X99820305Y-76732877D01*
X98708972Y-77192070D01*
X97857959Y-78041599D01*
X97396826Y-79152130D01*
X97395777Y-80354595D01*
X97230000Y-80354595D01*
X97230000Y-76506036D01*
X116576739Y-76506036D01*
X116596564Y-77263632D01*
X116848343Y-77871480D01*
X117143223Y-78003172D01*
X118311395Y-76835000D01*
X118670605Y-76835000D01*
X119838777Y-78003172D01*
X120133657Y-77871480D01*
X120405261Y-77163964D01*
X120388045Y-76506036D01*
X122418739Y-76506036D01*
X122438564Y-77263632D01*
X122690343Y-77871480D01*
X122985223Y-78003172D01*
X124153395Y-76835000D01*
X124512605Y-76835000D01*
X125680777Y-78003172D01*
X125975657Y-77871480D01*
X126247261Y-77163964D01*
X126230045Y-76506036D01*
X128260739Y-76506036D01*
X128280564Y-77263632D01*
X128532343Y-77871480D01*
X128827223Y-78003172D01*
X129995395Y-76835000D01*
X130354605Y-76835000D01*
X131522777Y-78003172D01*
X131817657Y-77871480D01*
X132070719Y-77212265D01*
X134111670Y-77212265D01*
X134401078Y-77912686D01*
X134936495Y-78449039D01*
X135636410Y-78739668D01*
X136394265Y-78740330D01*
X136713001Y-78608631D01*
X138176000Y-80071630D01*
X138176000Y-83960917D01*
X138109460Y-84027341D01*
X137960270Y-84386630D01*
X137959931Y-84775663D01*
X138108493Y-85135212D01*
X138383341Y-85410540D01*
X138742630Y-85559730D01*
X139131663Y-85560069D01*
X139491212Y-85411507D01*
X139766540Y-85136659D01*
X139915730Y-84777370D01*
X139916069Y-84388337D01*
X139767507Y-84028788D01*
X139700000Y-83961163D01*
X139700000Y-83054265D01*
X139953670Y-83054265D01*
X140243078Y-83754686D01*
X140778495Y-84291039D01*
X141478410Y-84581668D01*
X142236265Y-84582330D01*
X142936686Y-84292922D01*
X143205299Y-84024777D01*
X146532828Y-84024777D01*
X146664520Y-84319657D01*
X147372036Y-84591261D01*
X148129632Y-84571436D01*
X148737480Y-84319657D01*
X148869172Y-84024777D01*
X147701000Y-82856605D01*
X146532828Y-84024777D01*
X143205299Y-84024777D01*
X143473039Y-83757505D01*
X143763668Y-83057590D01*
X143764287Y-82348036D01*
X145786739Y-82348036D01*
X145806564Y-83105632D01*
X146058343Y-83713480D01*
X146353223Y-83845172D01*
X147521395Y-82677000D01*
X147880605Y-82677000D01*
X149048777Y-83845172D01*
X149343657Y-83713480D01*
X149615261Y-83005964D01*
X149595436Y-82248368D01*
X149343657Y-81640520D01*
X149048777Y-81508828D01*
X147880605Y-82677000D01*
X147521395Y-82677000D01*
X146353223Y-81508828D01*
X146058343Y-81640520D01*
X145786739Y-82348036D01*
X143764287Y-82348036D01*
X143764330Y-82299735D01*
X143474922Y-81599314D01*
X143205303Y-81329223D01*
X146532828Y-81329223D01*
X147701000Y-82497395D01*
X148869172Y-81329223D01*
X148737480Y-81034343D01*
X148029964Y-80762739D01*
X147272368Y-80782564D01*
X146664520Y-81034343D01*
X146532828Y-81329223D01*
X143205303Y-81329223D01*
X142939505Y-81062961D01*
X142239590Y-80772332D01*
X141481735Y-80771670D01*
X140781314Y-81061078D01*
X140244961Y-81596495D01*
X139954332Y-82296410D01*
X139953670Y-83054265D01*
X139700000Y-83054265D01*
X139700000Y-80354595D01*
X174205377Y-80354595D01*
X174664570Y-81465928D01*
X175514099Y-82316941D01*
X176624630Y-82778074D01*
X177827095Y-82779123D01*
X178938428Y-82319930D01*
X179789441Y-81470401D01*
X180250574Y-80359870D01*
X180251623Y-79157405D01*
X179792430Y-78046072D01*
X178942901Y-77195059D01*
X177832370Y-76733926D01*
X176629905Y-76732877D01*
X175518572Y-77192070D01*
X174667559Y-78041599D01*
X174206426Y-79152130D01*
X174205377Y-80354595D01*
X139700000Y-80354595D01*
X139700000Y-79756000D01*
X139641996Y-79464395D01*
X139476815Y-79217185D01*
X137790679Y-77531049D01*
X137921668Y-77215590D01*
X137921670Y-77212265D01*
X139953670Y-77212265D01*
X140243078Y-77912686D01*
X140778495Y-78449039D01*
X141478410Y-78739668D01*
X142236265Y-78740330D01*
X142936686Y-78450922D01*
X143205299Y-78182777D01*
X146532828Y-78182777D01*
X146664520Y-78477657D01*
X147372036Y-78749261D01*
X148129632Y-78729436D01*
X148737480Y-78477657D01*
X148869172Y-78182777D01*
X147701000Y-77014605D01*
X146532828Y-78182777D01*
X143205299Y-78182777D01*
X143473039Y-77915505D01*
X143763668Y-77215590D01*
X143764287Y-76506036D01*
X145786739Y-76506036D01*
X145806564Y-77263632D01*
X146058343Y-77871480D01*
X146353223Y-78003172D01*
X147521395Y-76835000D01*
X147880605Y-76835000D01*
X149048777Y-78003172D01*
X149343657Y-77871480D01*
X149596719Y-77212265D01*
X151637670Y-77212265D01*
X151927078Y-77912686D01*
X152462495Y-78449039D01*
X153162410Y-78739668D01*
X153920265Y-78740330D01*
X154620686Y-78450922D01*
X155157039Y-77915505D01*
X155447668Y-77215590D01*
X155447670Y-77212265D01*
X157479670Y-77212265D01*
X157769078Y-77912686D01*
X158304495Y-78449039D01*
X159004410Y-78739668D01*
X159762265Y-78740330D01*
X160462686Y-78450922D01*
X160999039Y-77915505D01*
X161289668Y-77215590D01*
X161290330Y-76457735D01*
X161000922Y-75757314D01*
X160465505Y-75220961D01*
X159765590Y-74930332D01*
X159007735Y-74929670D01*
X158307314Y-75219078D01*
X157770961Y-75754495D01*
X157480332Y-76454410D01*
X157479670Y-77212265D01*
X155447670Y-77212265D01*
X155448330Y-76457735D01*
X155158922Y-75757314D01*
X154623505Y-75220961D01*
X153923590Y-74930332D01*
X153165735Y-74929670D01*
X152465314Y-75219078D01*
X151928961Y-75754495D01*
X151638332Y-76454410D01*
X151637670Y-77212265D01*
X149596719Y-77212265D01*
X149615261Y-77163964D01*
X149595436Y-76406368D01*
X149343657Y-75798520D01*
X149048777Y-75666828D01*
X147880605Y-76835000D01*
X147521395Y-76835000D01*
X146353223Y-75666828D01*
X146058343Y-75798520D01*
X145786739Y-76506036D01*
X143764287Y-76506036D01*
X143764330Y-76457735D01*
X143474922Y-75757314D01*
X143205303Y-75487223D01*
X146532828Y-75487223D01*
X147701000Y-76655395D01*
X148869172Y-75487223D01*
X148737480Y-75192343D01*
X148029964Y-74920739D01*
X147272368Y-74940564D01*
X146664520Y-75192343D01*
X146532828Y-75487223D01*
X143205303Y-75487223D01*
X142939505Y-75220961D01*
X142239590Y-74930332D01*
X141481735Y-74929670D01*
X140781314Y-75219078D01*
X140244961Y-75754495D01*
X139954332Y-76454410D01*
X139953670Y-77212265D01*
X137921670Y-77212265D01*
X137922330Y-76457735D01*
X137632922Y-75757314D01*
X137097505Y-75220961D01*
X136397590Y-74930332D01*
X135639735Y-74929670D01*
X134939314Y-75219078D01*
X134402961Y-75754495D01*
X134112332Y-76454410D01*
X134111670Y-77212265D01*
X132070719Y-77212265D01*
X132089261Y-77163964D01*
X132069436Y-76406368D01*
X131817657Y-75798520D01*
X131522777Y-75666828D01*
X130354605Y-76835000D01*
X129995395Y-76835000D01*
X128827223Y-75666828D01*
X128532343Y-75798520D01*
X128260739Y-76506036D01*
X126230045Y-76506036D01*
X126227436Y-76406368D01*
X125975657Y-75798520D01*
X125680777Y-75666828D01*
X124512605Y-76835000D01*
X124153395Y-76835000D01*
X122985223Y-75666828D01*
X122690343Y-75798520D01*
X122418739Y-76506036D01*
X120388045Y-76506036D01*
X120385436Y-76406368D01*
X120133657Y-75798520D01*
X119838777Y-75666828D01*
X118670605Y-76835000D01*
X118311395Y-76835000D01*
X117143223Y-75666828D01*
X116848343Y-75798520D01*
X116576739Y-76506036D01*
X97230000Y-76506036D01*
X97230000Y-75487223D01*
X117322828Y-75487223D01*
X118491000Y-76655395D01*
X119659172Y-75487223D01*
X123164828Y-75487223D01*
X124333000Y-76655395D01*
X125501172Y-75487223D01*
X129006828Y-75487223D01*
X130175000Y-76655395D01*
X131343172Y-75487223D01*
X131211480Y-75192343D01*
X130503964Y-74920739D01*
X129746368Y-74940564D01*
X129138520Y-75192343D01*
X129006828Y-75487223D01*
X125501172Y-75487223D01*
X125369480Y-75192343D01*
X124661964Y-74920739D01*
X123904368Y-74940564D01*
X123296520Y-75192343D01*
X123164828Y-75487223D01*
X119659172Y-75487223D01*
X119527480Y-75192343D01*
X118819964Y-74920739D01*
X118062368Y-74940564D01*
X117454520Y-75192343D01*
X117322828Y-75487223D01*
X97230000Y-75487223D01*
X97230000Y-71830000D01*
X180265000Y-71830000D01*
X180265000Y-128195000D01*
X180265000Y-128195000D01*
G37*
X180265000Y-128195000D02*
X97230000Y-128195000D01*
X97230000Y-124270750D01*
X106380000Y-124270750D01*
X106380000Y-124886309D01*
X106476673Y-125119698D01*
X106655301Y-125298327D01*
X106888690Y-125395000D01*
X107029250Y-125395000D01*
X107188000Y-125236250D01*
X107188000Y-124112000D01*
X106538750Y-124112000D01*
X106380000Y-124270750D01*
X97230000Y-124270750D01*
X97230000Y-121629595D01*
X97256077Y-121629595D01*
X97715270Y-122740928D01*
X98564799Y-123591941D01*
X99675330Y-124053074D01*
X100877795Y-124054123D01*
X101989128Y-123594930D01*
X102764660Y-122820750D01*
X104150000Y-122820750D01*
X104150000Y-123411309D01*
X104246673Y-123644698D01*
X104425301Y-123823327D01*
X104658690Y-123920000D01*
X105124250Y-123920000D01*
X105283000Y-123761250D01*
X105283000Y-122662000D01*
X105537000Y-122662000D01*
X105537000Y-123761250D01*
X105695750Y-123920000D01*
X106161310Y-123920000D01*
X106394699Y-123823327D01*
X106449388Y-123768638D01*
X106538750Y-123858000D01*
X107188000Y-123858000D01*
X107188000Y-122733750D01*
X107442000Y-122733750D01*
X107442000Y-123858000D01*
X107462000Y-123858000D01*
X107462000Y-124112000D01*
X107442000Y-124112000D01*
X107442000Y-125236250D01*
X107600750Y-125395000D01*
X107741310Y-125395000D01*
X107958028Y-125305232D01*
X108037235Y-125358157D01*
X108285000Y-125407440D01*
X108885000Y-125407440D01*
X109132765Y-125358157D01*
X109220000Y-125299868D01*
X109307235Y-125358157D01*
X109555000Y-125407440D01*
X110155000Y-125407440D01*
X110402765Y-125358157D01*
X110490000Y-125299868D01*
X110577235Y-125358157D01*
X110825000Y-125407440D01*
X111425000Y-125407440D01*
X111672765Y-125358157D01*
X111760136Y-125299777D01*
X116052828Y-125299777D01*
X116184520Y-125594657D01*
X116892036Y-125866261D01*
X117649632Y-125846436D01*
X118257480Y-125594657D01*
X118389172Y-125299777D01*
X117221000Y-124131605D01*
X116052828Y-125299777D01*
X111760136Y-125299777D01*
X111882809Y-125217809D01*
X112023157Y-125007765D01*
X112072440Y-124760000D01*
X112072440Y-123210000D01*
X112063409Y-123164599D01*
X115482726Y-123164599D01*
X115306739Y-123623036D01*
X115326564Y-124380632D01*
X115578343Y-124988480D01*
X115873223Y-125120172D01*
X117041395Y-123952000D01*
X117027253Y-123937858D01*
X117206858Y-123758253D01*
X117221000Y-123772395D01*
X117235143Y-123758253D01*
X117414748Y-123937858D01*
X117400605Y-123952000D01*
X118568777Y-125120172D01*
X118863657Y-124988480D01*
X119135261Y-124280964D01*
X119115436Y-123523368D01*
X118966829Y-123164599D01*
X121197969Y-123164599D01*
X121289321Y-123255951D01*
X121158332Y-123571410D01*
X121157670Y-124329265D01*
X121447078Y-125029686D01*
X121982495Y-125566039D01*
X122682410Y-125856668D01*
X123440265Y-125857330D01*
X124140686Y-125567922D01*
X124677039Y-125032505D01*
X124809293Y-124714000D01*
X127158639Y-124714000D01*
X127289078Y-125029686D01*
X127824495Y-125566039D01*
X128524410Y-125856668D01*
X129282265Y-125857330D01*
X129982686Y-125567922D01*
X130251299Y-125299777D01*
X133578828Y-125299777D01*
X133710520Y-125594657D01*
X134418036Y-125866261D01*
X135175632Y-125846436D01*
X135783480Y-125594657D01*
X135915172Y-125299777D01*
X134747000Y-124131605D01*
X133578828Y-125299777D01*
X130251299Y-125299777D01*
X130519039Y-125032505D01*
X130809668Y-124332590D01*
X130810287Y-123623036D01*
X132832739Y-123623036D01*
X132852564Y-124380632D01*
X133104343Y-124988480D01*
X133399223Y-125120172D01*
X134567395Y-123952000D01*
X134926605Y-123952000D01*
X136094777Y-125120172D01*
X136389657Y-124988480D01*
X136661261Y-124280964D01*
X136641436Y-123523368D01*
X136389657Y-122915520D01*
X136094777Y-122783828D01*
X134926605Y-123952000D01*
X134567395Y-123952000D01*
X133399223Y-122783828D01*
X133104343Y-122915520D01*
X132832739Y-123623036D01*
X130810287Y-123623036D01*
X130810330Y-123574735D01*
X130520922Y-122874314D01*
X130251303Y-122604223D01*
X133578828Y-122604223D01*
X134747000Y-123772395D01*
X135915172Y-122604223D01*
X135783480Y-122309343D01*
X135075964Y-122037739D01*
X134318368Y-122057564D01*
X133710520Y-122309343D01*
X133578828Y-122604223D01*
X130251303Y-122604223D01*
X129985505Y-122337961D01*
X129285590Y-122047332D01*
X128527735Y-122046670D01*
X127827314Y-122336078D01*
X127290961Y-122871495D01*
X127158707Y-123190000D01*
X124809361Y-123190000D01*
X124678922Y-122874314D01*
X124143505Y-122337961D01*
X123443590Y-122047332D01*
X122685735Y-122046670D01*
X122366999Y-122178369D01*
X122052414Y-121863784D01*
X122022528Y-121843815D01*
X121805204Y-121698603D01*
X121513599Y-121640599D01*
X111532032Y-121640599D01*
X112751230Y-120421401D01*
X121513599Y-120421401D01*
X121805204Y-120363397D01*
X122052414Y-120198216D01*
X122366951Y-119883679D01*
X122682410Y-120014668D01*
X123440265Y-120015330D01*
X124140686Y-119725922D01*
X124677039Y-119190505D01*
X124967668Y-118490590D01*
X124967670Y-118487265D01*
X126999670Y-118487265D01*
X127289078Y-119187686D01*
X127824495Y-119724039D01*
X128524410Y-120014668D01*
X129282265Y-120015330D01*
X129982686Y-119725922D01*
X130519039Y-119190505D01*
X130809668Y-118490590D01*
X130809670Y-118487265D01*
X132841670Y-118487265D01*
X133131078Y-119187686D01*
X133666495Y-119724039D01*
X134366410Y-120014668D01*
X135124265Y-120015330D01*
X135265072Y-119957150D01*
X136622461Y-121314539D01*
X136927354Y-121518262D01*
X137287000Y-121589800D01*
X138362560Y-121589800D01*
X138362560Y-121665000D01*
X138411843Y-121912765D01*
X138552191Y-122122809D01*
X138762235Y-122263157D01*
X139010000Y-122312440D01*
X141660000Y-122312440D01*
X141907765Y-122263157D01*
X142117809Y-122122809D01*
X142258157Y-121912765D01*
X142307440Y-121665000D01*
X142307440Y-119635000D01*
X142542560Y-119635000D01*
X142542560Y-121665000D01*
X142591843Y-121912765D01*
X142732191Y-122122809D01*
X142942235Y-122263157D01*
X143190000Y-122312440D01*
X145840000Y-122312440D01*
X146087765Y-122263157D01*
X146297809Y-122122809D01*
X146374461Y-122008092D01*
X150254185Y-125887816D01*
X150501396Y-126052997D01*
X150793000Y-126111000D01*
X152557000Y-126111000D01*
X152848605Y-126052996D01*
X153095815Y-125887815D01*
X154892880Y-124090750D01*
X156220000Y-124090750D01*
X156220000Y-124681309D01*
X156316673Y-124914698D01*
X156495301Y-125093327D01*
X156728690Y-125190000D01*
X157194250Y-125190000D01*
X157353000Y-125031250D01*
X157353000Y-123932000D01*
X156378750Y-123932000D01*
X156220000Y-124090750D01*
X154892880Y-124090750D01*
X156441329Y-122542302D01*
X156458320Y-122553654D01*
X156316673Y-122695302D01*
X156220000Y-122928691D01*
X156220000Y-123519250D01*
X156378750Y-123678000D01*
X157353000Y-123678000D01*
X157353000Y-123658000D01*
X157607000Y-123658000D01*
X157607000Y-123678000D01*
X157627000Y-123678000D01*
X157627000Y-123932000D01*
X157607000Y-123932000D01*
X157607000Y-125031250D01*
X157765750Y-125190000D01*
X158231310Y-125190000D01*
X158464699Y-125093327D01*
X158643327Y-124914698D01*
X158717363Y-124735959D01*
X158832191Y-124907809D01*
X159042235Y-125048157D01*
X159290000Y-125097440D01*
X160790000Y-125097440D01*
X161037765Y-125048157D01*
X161247809Y-124907809D01*
X161288654Y-124846680D01*
X161430302Y-124988327D01*
X161663691Y-125085000D01*
X162254250Y-125085000D01*
X162413000Y-124926250D01*
X162413000Y-123952000D01*
X162667000Y-123952000D01*
X162667000Y-124926250D01*
X162825750Y-125085000D01*
X163416309Y-125085000D01*
X163649698Y-124988327D01*
X163828327Y-124809699D01*
X163925000Y-124576310D01*
X163925000Y-124110750D01*
X163766250Y-123952000D01*
X162667000Y-123952000D01*
X162413000Y-123952000D01*
X162393000Y-123952000D01*
X162393000Y-123698000D01*
X162413000Y-123698000D01*
X162413000Y-122723750D01*
X162667000Y-122723750D01*
X162667000Y-123698000D01*
X163766250Y-123698000D01*
X163925000Y-123539250D01*
X163925000Y-123073690D01*
X163828327Y-122840301D01*
X163649698Y-122661673D01*
X163416309Y-122565000D01*
X162825750Y-122565000D01*
X162667000Y-122723750D01*
X162413000Y-122723750D01*
X162254250Y-122565000D01*
X161663691Y-122565000D01*
X161430302Y-122661673D01*
X161288654Y-122803320D01*
X161247809Y-122742191D01*
X161121702Y-122657928D01*
X162151644Y-121627987D01*
X162245663Y-121628069D01*
X162605212Y-121479507D01*
X162880540Y-121204659D01*
X163029730Y-120845370D01*
X163030069Y-120456337D01*
X162881507Y-120096788D01*
X162606659Y-119821460D01*
X162247370Y-119672270D01*
X161858337Y-119671931D01*
X161498788Y-119820493D01*
X161223460Y-120095341D01*
X161074270Y-120454630D01*
X161074193Y-120543000D01*
X158750053Y-120543000D01*
X158703157Y-120307235D01*
X158562809Y-120097191D01*
X158449802Y-120021682D01*
X158582809Y-119932809D01*
X158723157Y-119722765D01*
X158772440Y-119475000D01*
X158772440Y-117975000D01*
X158723157Y-117727235D01*
X158582809Y-117517191D01*
X158521680Y-117476346D01*
X158663327Y-117334698D01*
X158760000Y-117101309D01*
X158760000Y-116510750D01*
X158601250Y-116352000D01*
X157627000Y-116352000D01*
X157627000Y-116372000D01*
X157373000Y-116372000D01*
X157373000Y-116352000D01*
X156398750Y-116352000D01*
X156240000Y-116510750D01*
X156240000Y-117101309D01*
X156336673Y-117334698D01*
X156478320Y-117476346D01*
X156417191Y-117517191D01*
X156276843Y-117727235D01*
X156227560Y-117975000D01*
X156227560Y-117983000D01*
X155942083Y-117983000D01*
X155875659Y-117916460D01*
X155516370Y-117767270D01*
X155127337Y-117766931D01*
X154767788Y-117915493D01*
X154492460Y-118190341D01*
X154343270Y-118549630D01*
X154342931Y-118938663D01*
X154491493Y-119298212D01*
X154766341Y-119573540D01*
X155125630Y-119722730D01*
X155514663Y-119723069D01*
X155874212Y-119574507D01*
X155941837Y-119507000D01*
X156233925Y-119507000D01*
X156276843Y-119722765D01*
X156417191Y-119932809D01*
X156530198Y-120008318D01*
X156397191Y-120097191D01*
X156256843Y-120307235D01*
X156207560Y-120555000D01*
X156207560Y-120669048D01*
X156062185Y-120766184D01*
X154368165Y-122460204D01*
X154710874Y-121634870D01*
X154711923Y-120432405D01*
X154252730Y-119321072D01*
X153403201Y-118470059D01*
X152292670Y-118008926D01*
X151090205Y-118007877D01*
X149978872Y-118467070D01*
X149127859Y-119316599D01*
X148666726Y-120427130D01*
X148665677Y-121629595D01*
X149027919Y-122506289D01*
X146632814Y-120111184D01*
X146487440Y-120014048D01*
X146487440Y-119635000D01*
X146438157Y-119387235D01*
X146297809Y-119177191D01*
X146087765Y-119036843D01*
X145840000Y-118987560D01*
X143190000Y-118987560D01*
X142942235Y-119036843D01*
X142732191Y-119177191D01*
X142591843Y-119387235D01*
X142542560Y-119635000D01*
X142307440Y-119635000D01*
X142258157Y-119387235D01*
X142117809Y-119177191D01*
X141907765Y-119036843D01*
X141660000Y-118987560D01*
X139010000Y-118987560D01*
X138762235Y-119036843D01*
X138552191Y-119177191D01*
X138411843Y-119387235D01*
X138362560Y-119635000D01*
X138362560Y-119710200D01*
X137676278Y-119710200D01*
X136594454Y-118628376D01*
X136651668Y-118490590D01*
X136652330Y-117732735D01*
X136362922Y-117032314D01*
X135827505Y-116495961D01*
X135127590Y-116205332D01*
X134369735Y-116204670D01*
X133669314Y-116494078D01*
X133132961Y-117029495D01*
X132842332Y-117729410D01*
X132841670Y-118487265D01*
X130809670Y-118487265D01*
X130810330Y-117732735D01*
X130520922Y-117032314D01*
X129985505Y-116495961D01*
X129285590Y-116205332D01*
X128527735Y-116204670D01*
X127827314Y-116494078D01*
X127290961Y-117029495D01*
X127000332Y-117729410D01*
X126999670Y-118487265D01*
X124967670Y-118487265D01*
X124968330Y-117732735D01*
X124678922Y-117032314D01*
X124143505Y-116495961D01*
X123443590Y-116205332D01*
X122685735Y-116204670D01*
X121985314Y-116494078D01*
X121448961Y-117029495D01*
X121158332Y-117729410D01*
X121157670Y-118487265D01*
X121289369Y-118806001D01*
X121197969Y-118897401D01*
X118956746Y-118897401D01*
X119125668Y-118490590D01*
X119126330Y-117732735D01*
X118836922Y-117032314D01*
X118301505Y-116495961D01*
X117601590Y-116205332D01*
X116843735Y-116204670D01*
X116143314Y-116494078D01*
X115606961Y-117029495D01*
X115316332Y-117729410D01*
X115315670Y-118487265D01*
X115485135Y-118897401D01*
X112435599Y-118897401D01*
X112143994Y-118955405D01*
X112072440Y-119003216D01*
X112072440Y-117810000D01*
X112023157Y-117562235D01*
X111887000Y-117358463D01*
X111887000Y-114874663D01*
X152945931Y-114874663D01*
X153094493Y-115234212D01*
X153369341Y-115509540D01*
X153728630Y-115658730D01*
X154117663Y-115659069D01*
X154477212Y-115510507D01*
X154544837Y-115443000D01*
X156240000Y-115443000D01*
X156240000Y-115939250D01*
X156398750Y-116098000D01*
X157373000Y-116098000D01*
X157373000Y-116078000D01*
X157627000Y-116078000D01*
X157627000Y-116098000D01*
X158601250Y-116098000D01*
X158760000Y-115939250D01*
X158760000Y-115443000D01*
X160274000Y-115443000D01*
X160565605Y-115384996D01*
X160812815Y-115219815D01*
X164755391Y-111277240D01*
X165070907Y-111340000D01*
X165129093Y-111340000D01*
X165697378Y-111226961D01*
X166179147Y-110905054D01*
X166501054Y-110423285D01*
X166614093Y-109855000D01*
X166501054Y-109286715D01*
X166179147Y-108804946D01*
X166135223Y-108775597D01*
X166197765Y-108763157D01*
X166407809Y-108622809D01*
X166548157Y-108412765D01*
X166597440Y-108165000D01*
X166597440Y-106465000D01*
X166548157Y-106217235D01*
X166407809Y-106007191D01*
X166197765Y-105866843D01*
X165950000Y-105817560D01*
X164250000Y-105817560D01*
X164002235Y-105866843D01*
X163792191Y-106007191D01*
X163651843Y-106217235D01*
X163602560Y-106465000D01*
X163602560Y-108165000D01*
X163651843Y-108412765D01*
X163792191Y-108622809D01*
X164002235Y-108763157D01*
X164064777Y-108775597D01*
X164020853Y-108804946D01*
X163698946Y-109286715D01*
X163585907Y-109855000D01*
X163658321Y-110219048D01*
X163226500Y-110650869D01*
X163226500Y-110522969D01*
X163132491Y-110050355D01*
X162864777Y-109649692D01*
X162464114Y-109381978D01*
X161991500Y-109287969D01*
X161518886Y-109381978D01*
X161118223Y-109649692D01*
X160850509Y-110050355D01*
X160756500Y-110522969D01*
X160756500Y-111387033D01*
X160850509Y-111859647D01*
X161118223Y-112260310D01*
X161417254Y-112460116D01*
X159958370Y-113919000D01*
X154545083Y-113919000D01*
X154478659Y-113852460D01*
X154119370Y-113703270D01*
X153730337Y-113702931D01*
X153370788Y-113851493D01*
X153095460Y-114126341D01*
X152946270Y-114485630D01*
X152945931Y-114874663D01*
X111887000Y-114874663D01*
X111887000Y-112379097D01*
X112064777Y-112260310D01*
X112332491Y-111859647D01*
X112426500Y-111387033D01*
X112426500Y-110522969D01*
X112496500Y-110522969D01*
X112496500Y-111387033D01*
X112590509Y-111859647D01*
X112858223Y-112260310D01*
X113258886Y-112528024D01*
X113731500Y-112622033D01*
X114204114Y-112528024D01*
X114604777Y-112260310D01*
X114872491Y-111859647D01*
X114966500Y-111387033D01*
X114966500Y-110522969D01*
X115036500Y-110522969D01*
X115036500Y-111387033D01*
X115130509Y-111859647D01*
X115398223Y-112260310D01*
X115798886Y-112528024D01*
X116271500Y-112622033D01*
X116744114Y-112528024D01*
X117144777Y-112260310D01*
X117412491Y-111859647D01*
X117506500Y-111387033D01*
X117506500Y-110522969D01*
X117576500Y-110522969D01*
X117576500Y-111387033D01*
X117670509Y-111859647D01*
X117938223Y-112260310D01*
X118338886Y-112528024D01*
X118811500Y-112622033D01*
X119284114Y-112528024D01*
X119684777Y-112260310D01*
X119952491Y-111859647D01*
X120046500Y-111387033D01*
X120046500Y-110522969D01*
X120116500Y-110522969D01*
X120116500Y-111387033D01*
X120210509Y-111859647D01*
X120478223Y-112260310D01*
X120878886Y-112528024D01*
X121351500Y-112622033D01*
X121824114Y-112528024D01*
X122224777Y-112260310D01*
X122492491Y-111859647D01*
X122586500Y-111387033D01*
X122586500Y-110522969D01*
X122656500Y-110522969D01*
X122656500Y-111387033D01*
X122750509Y-111859647D01*
X123018223Y-112260310D01*
X123418886Y-112528024D01*
X123891500Y-112622033D01*
X124364114Y-112528024D01*
X124764777Y-112260310D01*
X125032491Y-111859647D01*
X125126500Y-111387033D01*
X125126500Y-110522969D01*
X125196500Y-110522969D01*
X125196500Y-111387033D01*
X125290509Y-111859647D01*
X125558223Y-112260310D01*
X125958886Y-112528024D01*
X126431500Y-112622033D01*
X126904114Y-112528024D01*
X127304777Y-112260310D01*
X127572491Y-111859647D01*
X127666500Y-111387033D01*
X127666500Y-110522969D01*
X127736500Y-110522969D01*
X127736500Y-111387033D01*
X127830509Y-111859647D01*
X128098223Y-112260310D01*
X128498886Y-112528024D01*
X128971500Y-112622033D01*
X129444114Y-112528024D01*
X129844777Y-112260310D01*
X130112491Y-111859647D01*
X130206500Y-111387033D01*
X130206500Y-110522969D01*
X130276500Y-110522969D01*
X130276500Y-111387033D01*
X130370509Y-111859647D01*
X130638223Y-112260310D01*
X131038886Y-112528024D01*
X131511500Y-112622033D01*
X131984114Y-112528024D01*
X132384777Y-112260310D01*
X132652491Y-111859647D01*
X132746500Y-111387033D01*
X132746500Y-110522969D01*
X132816500Y-110522969D01*
X132816500Y-111387033D01*
X132910509Y-111859647D01*
X133178223Y-112260310D01*
X133578886Y-112528024D01*
X134051500Y-112622033D01*
X134524114Y-112528024D01*
X134924777Y-112260310D01*
X135192491Y-111859647D01*
X135286500Y-111387033D01*
X135286500Y-110522969D01*
X135356500Y-110522969D01*
X135356500Y-111387033D01*
X135450509Y-111859647D01*
X135718223Y-112260310D01*
X136118886Y-112528024D01*
X136591500Y-112622033D01*
X137064114Y-112528024D01*
X137464777Y-112260310D01*
X137732491Y-111859647D01*
X137826500Y-111387033D01*
X137826500Y-110522969D01*
X137896500Y-110522969D01*
X137896500Y-111387033D01*
X137990509Y-111859647D01*
X138258223Y-112260310D01*
X138658886Y-112528024D01*
X139131500Y-112622033D01*
X139604114Y-112528024D01*
X140004777Y-112260310D01*
X140272491Y-111859647D01*
X140366500Y-111387033D01*
X140366500Y-110522969D01*
X140436500Y-110522969D01*
X140436500Y-111387033D01*
X140530509Y-111859647D01*
X140798223Y-112260310D01*
X141198886Y-112528024D01*
X141671500Y-112622033D01*
X142144114Y-112528024D01*
X142544777Y-112260310D01*
X142812491Y-111859647D01*
X142906500Y-111387033D01*
X142906500Y-110522969D01*
X142976500Y-110522969D01*
X142976500Y-111387033D01*
X143070509Y-111859647D01*
X143338223Y-112260310D01*
X143738886Y-112528024D01*
X144211500Y-112622033D01*
X144684114Y-112528024D01*
X145084777Y-112260310D01*
X145352491Y-111859647D01*
X145446500Y-111387033D01*
X145446500Y-110522969D01*
X145516500Y-110522969D01*
X145516500Y-111387033D01*
X145610509Y-111859647D01*
X145878223Y-112260310D01*
X146278886Y-112528024D01*
X146751500Y-112622033D01*
X147224114Y-112528024D01*
X147624777Y-112260310D01*
X147892491Y-111859647D01*
X147986500Y-111387033D01*
X147986500Y-110522969D01*
X148056500Y-110522969D01*
X148056500Y-111387033D01*
X148150509Y-111859647D01*
X148418223Y-112260310D01*
X148818886Y-112528024D01*
X149291500Y-112622033D01*
X149764114Y-112528024D01*
X150164777Y-112260310D01*
X150432491Y-111859647D01*
X150526500Y-111387033D01*
X150526500Y-110522969D01*
X150596500Y-110522969D01*
X150596500Y-111387033D01*
X150690509Y-111859647D01*
X150958223Y-112260310D01*
X151358886Y-112528024D01*
X151831500Y-112622033D01*
X152304114Y-112528024D01*
X152704777Y-112260310D01*
X152972491Y-111859647D01*
X153066500Y-111387033D01*
X153066500Y-110522969D01*
X153136500Y-110522969D01*
X153136500Y-111387033D01*
X153230509Y-111859647D01*
X153498223Y-112260310D01*
X153898886Y-112528024D01*
X154371500Y-112622033D01*
X154844114Y-112528024D01*
X155244777Y-112260310D01*
X155512491Y-111859647D01*
X155606500Y-111387033D01*
X155606500Y-110522969D01*
X155676500Y-110522969D01*
X155676500Y-111387033D01*
X155770509Y-111859647D01*
X156038223Y-112260310D01*
X156438886Y-112528024D01*
X156911500Y-112622033D01*
X157384114Y-112528024D01*
X157784777Y-112260310D01*
X158052491Y-111859647D01*
X158146500Y-111387033D01*
X158146500Y-110522969D01*
X158216500Y-110522969D01*
X158216500Y-111387033D01*
X158310509Y-111859647D01*
X158578223Y-112260310D01*
X158978886Y-112528024D01*
X159451500Y-112622033D01*
X159924114Y-112528024D01*
X160324777Y-112260310D01*
X160592491Y-111859647D01*
X160686500Y-111387033D01*
X160686500Y-110522969D01*
X160592491Y-110050355D01*
X160324777Y-109649692D01*
X159924114Y-109381978D01*
X159451500Y-109287969D01*
X158978886Y-109381978D01*
X158578223Y-109649692D01*
X158310509Y-110050355D01*
X158216500Y-110522969D01*
X158146500Y-110522969D01*
X158052491Y-110050355D01*
X157784777Y-109649692D01*
X157384114Y-109381978D01*
X156911500Y-109287969D01*
X156438886Y-109381978D01*
X156038223Y-109649692D01*
X155770509Y-110050355D01*
X155676500Y-110522969D01*
X155606500Y-110522969D01*
X155512491Y-110050355D01*
X155244777Y-109649692D01*
X154844114Y-109381978D01*
X154371500Y-109287969D01*
X153898886Y-109381978D01*
X153498223Y-109649692D01*
X153230509Y-110050355D01*
X153136500Y-110522969D01*
X153066500Y-110522969D01*
X152972491Y-110050355D01*
X152704777Y-109649692D01*
X152304114Y-109381978D01*
X151831500Y-109287969D01*
X151358886Y-109381978D01*
X150958223Y-109649692D01*
X150690509Y-110050355D01*
X150596500Y-110522969D01*
X150526500Y-110522969D01*
X150432491Y-110050355D01*
X150164777Y-109649692D01*
X149764114Y-109381978D01*
X149291500Y-109287969D01*
X148818886Y-109381978D01*
X148418223Y-109649692D01*
X148150509Y-110050355D01*
X148056500Y-110522969D01*
X147986500Y-110522969D01*
X147892491Y-110050355D01*
X147624777Y-109649692D01*
X147224114Y-109381978D01*
X146751500Y-109287969D01*
X146278886Y-109381978D01*
X145878223Y-109649692D01*
X145610509Y-110050355D01*
X145516500Y-110522969D01*
X145446500Y-110522969D01*
X145352491Y-110050355D01*
X145084777Y-109649692D01*
X144684114Y-109381978D01*
X144211500Y-109287969D01*
X143738886Y-109381978D01*
X143338223Y-109649692D01*
X143070509Y-110050355D01*
X142976500Y-110522969D01*
X142906500Y-110522969D01*
X142812491Y-110050355D01*
X142544777Y-109649692D01*
X142144114Y-109381978D01*
X141671500Y-109287969D01*
X141198886Y-109381978D01*
X140798223Y-109649692D01*
X140530509Y-110050355D01*
X140436500Y-110522969D01*
X140366500Y-110522969D01*
X140272491Y-110050355D01*
X140004777Y-109649692D01*
X139604114Y-109381978D01*
X139131500Y-109287969D01*
X138658886Y-109381978D01*
X138258223Y-109649692D01*
X137990509Y-110050355D01*
X137896500Y-110522969D01*
X137826500Y-110522969D01*
X137732491Y-110050355D01*
X137464777Y-109649692D01*
X137064114Y-109381978D01*
X136591500Y-109287969D01*
X136118886Y-109381978D01*
X135718223Y-109649692D01*
X135450509Y-110050355D01*
X135356500Y-110522969D01*
X135286500Y-110522969D01*
X135192491Y-110050355D01*
X134924777Y-109649692D01*
X134524114Y-109381978D01*
X134051500Y-109287969D01*
X133578886Y-109381978D01*
X133178223Y-109649692D01*
X132910509Y-110050355D01*
X132816500Y-110522969D01*
X132746500Y-110522969D01*
X132652491Y-110050355D01*
X132384777Y-109649692D01*
X131984114Y-109381978D01*
X131511500Y-109287969D01*
X131038886Y-109381978D01*
X130638223Y-109649692D01*
X130370509Y-110050355D01*
X130276500Y-110522969D01*
X130206500Y-110522969D01*
X130112491Y-110050355D01*
X129844777Y-109649692D01*
X129444114Y-109381978D01*
X128971500Y-109287969D01*
X128498886Y-109381978D01*
X128098223Y-109649692D01*
X127830509Y-110050355D01*
X127736500Y-110522969D01*
X127666500Y-110522969D01*
X127572491Y-110050355D01*
X127304777Y-109649692D01*
X126904114Y-109381978D01*
X126431500Y-109287969D01*
X125958886Y-109381978D01*
X125558223Y-109649692D01*
X125290509Y-110050355D01*
X125196500Y-110522969D01*
X125126500Y-110522969D01*
X125032491Y-110050355D01*
X124764777Y-109649692D01*
X124364114Y-109381978D01*
X123891500Y-109287969D01*
X123418886Y-109381978D01*
X123018223Y-109649692D01*
X122750509Y-110050355D01*
X122656500Y-110522969D01*
X122586500Y-110522969D01*
X122492491Y-110050355D01*
X122224777Y-109649692D01*
X121824114Y-109381978D01*
X121351500Y-109287969D01*
X120878886Y-109381978D01*
X120478223Y-109649692D01*
X120210509Y-110050355D01*
X120116500Y-110522969D01*
X120046500Y-110522969D01*
X119952491Y-110050355D01*
X119684777Y-109649692D01*
X119284114Y-109381978D01*
X118811500Y-109287969D01*
X118338886Y-109381978D01*
X117938223Y-109649692D01*
X117670509Y-110050355D01*
X117576500Y-110522969D01*
X117506500Y-110522969D01*
X117412491Y-110050355D01*
X117144777Y-109649692D01*
X116744114Y-109381978D01*
X116271500Y-109287969D01*
X115798886Y-109381978D01*
X115398223Y-109649692D01*
X115130509Y-110050355D01*
X115036500Y-110522969D01*
X114966500Y-110522969D01*
X114872491Y-110050355D01*
X114604777Y-109649692D01*
X114204114Y-109381978D01*
X113731500Y-109287969D01*
X113258886Y-109381978D01*
X112858223Y-109649692D01*
X112590509Y-110050355D01*
X112496500Y-110522969D01*
X112426500Y-110522969D01*
X112332491Y-110050355D01*
X112064777Y-109649692D01*
X111664114Y-109381978D01*
X111191500Y-109287969D01*
X110718886Y-109381978D01*
X110318223Y-109649692D01*
X110050509Y-110050355D01*
X109956500Y-110522969D01*
X109956500Y-111387033D01*
X110050509Y-111859647D01*
X110318223Y-112260310D01*
X110363000Y-112290229D01*
X110363000Y-115889369D01*
X110197987Y-115724356D01*
X110198069Y-115630337D01*
X110049507Y-115270788D01*
X109774659Y-114995460D01*
X109415370Y-114846270D01*
X109026337Y-114845931D01*
X108666788Y-114994493D01*
X108391460Y-115269341D01*
X108242270Y-115628630D01*
X108241931Y-116017663D01*
X108390493Y-116377212D01*
X108665341Y-116652540D01*
X109024630Y-116801730D01*
X109093000Y-116801790D01*
X109093000Y-117208837D01*
X109011310Y-117175000D01*
X108870750Y-117175000D01*
X108712000Y-117333750D01*
X108712000Y-118458000D01*
X108732000Y-118458000D01*
X108732000Y-118712000D01*
X108712000Y-118712000D01*
X108712000Y-119836250D01*
X108870750Y-119995000D01*
X109011310Y-119995000D01*
X109228028Y-119905232D01*
X109307235Y-119958157D01*
X109555000Y-120007440D01*
X110155000Y-120007440D01*
X110402765Y-119958157D01*
X110490000Y-119899868D01*
X110577235Y-119958157D01*
X110825000Y-120007440D01*
X111009929Y-120007440D01*
X108454810Y-122562560D01*
X108285000Y-122562560D01*
X108037235Y-122611843D01*
X107958028Y-122664768D01*
X107741310Y-122575000D01*
X107600750Y-122575000D01*
X107442000Y-122733750D01*
X107188000Y-122733750D01*
X107029250Y-122575000D01*
X106888690Y-122575000D01*
X106655301Y-122671673D01*
X106588112Y-122738862D01*
X106511250Y-122662000D01*
X105537000Y-122662000D01*
X105283000Y-122662000D01*
X104308750Y-122662000D01*
X104150000Y-122820750D01*
X102764660Y-122820750D01*
X102840141Y-122745401D01*
X103301274Y-121634870D01*
X103302323Y-120432405D01*
X102843130Y-119321072D01*
X101993601Y-118470059D01*
X100883070Y-118008926D01*
X99680605Y-118007877D01*
X98569272Y-118467070D01*
X97718259Y-119316599D01*
X97257126Y-120427130D01*
X97256077Y-121629595D01*
X97230000Y-121629595D01*
X97230000Y-110522969D01*
X97256500Y-110522969D01*
X97256500Y-111387033D01*
X97350509Y-111859647D01*
X97618223Y-112260310D01*
X98018886Y-112528024D01*
X98491500Y-112622033D01*
X98964114Y-112528024D01*
X99364777Y-112260310D01*
X99632491Y-111859647D01*
X99726500Y-111387033D01*
X99726500Y-111082001D01*
X99796500Y-111082001D01*
X99796500Y-111482001D01*
X99939110Y-111944948D01*
X100248026Y-112318081D01*
X100676219Y-112544593D01*
X100713891Y-112548463D01*
X100904500Y-112423732D01*
X100904500Y-111082001D01*
X101158500Y-111082001D01*
X101158500Y-112423732D01*
X101349109Y-112548463D01*
X101386781Y-112544593D01*
X101814974Y-112318081D01*
X102123890Y-111944948D01*
X102266500Y-111482001D01*
X102266500Y-111082001D01*
X101158500Y-111082001D01*
X100904500Y-111082001D01*
X99796500Y-111082001D01*
X99726500Y-111082001D01*
X99726500Y-110522969D01*
X99707610Y-110428001D01*
X99796500Y-110428001D01*
X99796500Y-110828001D01*
X100904500Y-110828001D01*
X100904500Y-109486270D01*
X100713891Y-109361539D01*
X100676219Y-109365409D01*
X100248026Y-109591921D01*
X99939110Y-109965054D01*
X99796500Y-110428001D01*
X99707610Y-110428001D01*
X99632491Y-110050355D01*
X99364777Y-109649692D01*
X98964114Y-109381978D01*
X98491500Y-109287969D01*
X98018886Y-109381978D01*
X97618223Y-109649692D01*
X97350509Y-110050355D01*
X97256500Y-110522969D01*
X97230000Y-110522969D01*
X97230000Y-108306890D01*
X99523524Y-108306890D01*
X99693355Y-108716924D01*
X100083642Y-109145183D01*
X100608108Y-109391486D01*
X100838000Y-109270819D01*
X100838000Y-108077000D01*
X99644845Y-108077000D01*
X99523524Y-108306890D01*
X97230000Y-108306890D01*
X97230000Y-106567319D01*
X97317191Y-106697809D01*
X97527235Y-106838157D01*
X97775000Y-106887440D01*
X99075000Y-106887440D01*
X99322765Y-106838157D01*
X99532809Y-106697809D01*
X99673157Y-106487765D01*
X99720053Y-106252000D01*
X99746836Y-106252000D01*
X99885853Y-106460054D01*
X100226553Y-106687702D01*
X100083642Y-106754817D01*
X99693355Y-107183076D01*
X99523524Y-107593110D01*
X99644845Y-107823000D01*
X100838000Y-107823000D01*
X100838000Y-107803000D01*
X101092000Y-107803000D01*
X101092000Y-107823000D01*
X101112000Y-107823000D01*
X101112000Y-108077000D01*
X101092000Y-108077000D01*
X101092000Y-109270819D01*
X101311600Y-109386084D01*
X101158500Y-109486270D01*
X101158500Y-110828001D01*
X102266500Y-110828001D01*
X102266500Y-110522969D01*
X102336500Y-110522969D01*
X102336500Y-111387033D01*
X102430509Y-111859647D01*
X102698223Y-112260310D01*
X103098886Y-112528024D01*
X103571500Y-112622033D01*
X104044114Y-112528024D01*
X104444777Y-112260310D01*
X104712491Y-111859647D01*
X104806500Y-111387033D01*
X104806500Y-110522969D01*
X104712491Y-110050355D01*
X104444777Y-109649692D01*
X104044114Y-109381978D01*
X103571500Y-109287969D01*
X103098886Y-109381978D01*
X102698223Y-109649692D01*
X102430509Y-110050355D01*
X102336500Y-110522969D01*
X102266500Y-110522969D01*
X102266500Y-110428001D01*
X102123890Y-109965054D01*
X101814974Y-109591921D01*
X101386781Y-109365409D01*
X101379099Y-109364620D01*
X101846358Y-109145183D01*
X102128796Y-108835266D01*
X102143191Y-108856809D01*
X102353235Y-108997157D01*
X102601000Y-109046440D01*
X103901000Y-109046440D01*
X104148765Y-108997157D01*
X104358809Y-108856809D01*
X104493687Y-108654952D01*
X104519355Y-108716924D01*
X104909642Y-109145183D01*
X105434108Y-109391486D01*
X105663998Y-109270820D01*
X105663998Y-109376983D01*
X105638886Y-109381978D01*
X105238223Y-109649692D01*
X104970509Y-110050355D01*
X104876500Y-110522969D01*
X104876500Y-111387033D01*
X104970509Y-111859647D01*
X105238223Y-112260310D01*
X105638886Y-112528024D01*
X106111500Y-112622033D01*
X106553000Y-112534213D01*
X106553000Y-117358463D01*
X106416843Y-117562235D01*
X106367560Y-117810000D01*
X106367560Y-118743502D01*
X106282765Y-118686843D01*
X106172000Y-118664811D01*
X106172000Y-117969083D01*
X106238540Y-117902659D01*
X106387730Y-117543370D01*
X106388069Y-117154337D01*
X106239507Y-116794788D01*
X105964659Y-116519460D01*
X105605370Y-116370270D01*
X105216337Y-116369931D01*
X104856788Y-116518493D01*
X104581460Y-116793341D01*
X104432270Y-117152630D01*
X104431931Y-117541663D01*
X104580493Y-117901212D01*
X104648000Y-117968837D01*
X104648000Y-118664811D01*
X104537235Y-118686843D01*
X104327191Y-118827191D01*
X104186843Y-119037235D01*
X104137560Y-119285000D01*
X104137560Y-120785000D01*
X104186843Y-121032765D01*
X104327191Y-121242809D01*
X104388320Y-121283654D01*
X104246673Y-121425302D01*
X104150000Y-121658691D01*
X104150000Y-122249250D01*
X104308750Y-122408000D01*
X105283000Y-122408000D01*
X105283000Y-122388000D01*
X105537000Y-122388000D01*
X105537000Y-122408000D01*
X106511250Y-122408000D01*
X106670000Y-122249250D01*
X106670000Y-121658691D01*
X106573327Y-121425302D01*
X106431680Y-121283654D01*
X106492809Y-121242809D01*
X106633157Y-121032765D01*
X106682440Y-120785000D01*
X106682440Y-119901498D01*
X106767235Y-119958157D01*
X107015000Y-120007440D01*
X107615000Y-120007440D01*
X107862765Y-119958157D01*
X107941972Y-119905232D01*
X108158690Y-119995000D01*
X108299250Y-119995000D01*
X108458000Y-119836250D01*
X108458000Y-118712000D01*
X108438000Y-118712000D01*
X108438000Y-118458000D01*
X108458000Y-118458000D01*
X108458000Y-117333750D01*
X108299250Y-117175000D01*
X108158690Y-117175000D01*
X108077000Y-117208837D01*
X108077000Y-112459946D01*
X108178886Y-112528024D01*
X108651500Y-112622033D01*
X109124114Y-112528024D01*
X109524777Y-112260310D01*
X109792491Y-111859647D01*
X109886500Y-111387033D01*
X109886500Y-110522969D01*
X109792491Y-110050355D01*
X109524777Y-109649692D01*
X109124114Y-109381978D01*
X108651500Y-109287969D01*
X108178886Y-109381978D01*
X107778223Y-109649692D01*
X107510509Y-110050355D01*
X107465187Y-110278206D01*
X107317449Y-110376921D01*
X107252491Y-110050355D01*
X106984777Y-109649692D01*
X106584114Y-109381978D01*
X106291905Y-109323854D01*
X106672358Y-109145183D01*
X107062645Y-108716924D01*
X107232476Y-108306890D01*
X107111155Y-108077000D01*
X105918000Y-108077000D01*
X105918000Y-108097000D01*
X105664000Y-108097000D01*
X105664000Y-108077000D01*
X105644000Y-108077000D01*
X105644000Y-107823000D01*
X105664000Y-107823000D01*
X105664000Y-107803000D01*
X105918000Y-107803000D01*
X105918000Y-107823000D01*
X107111155Y-107823000D01*
X107232476Y-107593110D01*
X107062645Y-107183076D01*
X106672358Y-106754817D01*
X106529447Y-106687702D01*
X106870147Y-106460054D01*
X107192054Y-105978285D01*
X107305093Y-105410000D01*
X107232012Y-105042599D01*
X108444401Y-105042599D01*
X108736006Y-104984595D01*
X108983216Y-104819414D01*
X109065643Y-104736987D01*
X109159663Y-104737069D01*
X109519212Y-104588507D01*
X109794540Y-104313659D01*
X109943730Y-103954370D01*
X109944069Y-103565337D01*
X109795507Y-103205788D01*
X109520659Y-102930460D01*
X109161370Y-102781270D01*
X108772337Y-102780931D01*
X108412788Y-102929493D01*
X108137460Y-103204341D01*
X108006969Y-103518599D01*
X107288440Y-103518599D01*
X107288440Y-102020000D01*
X107239157Y-101772235D01*
X107098809Y-101562191D01*
X106888765Y-101421843D01*
X106641000Y-101372560D01*
X104941000Y-101372560D01*
X104693235Y-101421843D01*
X104483191Y-101562191D01*
X104342843Y-101772235D01*
X104293560Y-102020000D01*
X104293560Y-103697593D01*
X104148765Y-103600843D01*
X103901000Y-103551560D01*
X102601000Y-103551560D01*
X102462440Y-103579121D01*
X102462440Y-102020000D01*
X102413157Y-101772235D01*
X102272809Y-101562191D01*
X102062765Y-101421843D01*
X101815000Y-101372560D01*
X100115000Y-101372560D01*
X99867235Y-101421843D01*
X99657191Y-101562191D01*
X99588318Y-101665266D01*
X99532809Y-101582191D01*
X99322765Y-101441843D01*
X99187000Y-101414838D01*
X99187000Y-100244116D01*
X99667241Y-99763875D01*
X99693355Y-99826924D01*
X100083642Y-100255183D01*
X100608108Y-100501486D01*
X100838000Y-100380819D01*
X100838000Y-99187000D01*
X101092000Y-99187000D01*
X101092000Y-100380819D01*
X101321892Y-100501486D01*
X101846358Y-100255183D01*
X102236645Y-99826924D01*
X102406476Y-99416890D01*
X104349524Y-99416890D01*
X104519355Y-99826924D01*
X104909642Y-100255183D01*
X105434108Y-100501486D01*
X105664000Y-100380819D01*
X105664000Y-99187000D01*
X105918000Y-99187000D01*
X105918000Y-100380819D01*
X106147892Y-100501486D01*
X106672358Y-100255183D01*
X107062645Y-99826924D01*
X107232476Y-99416890D01*
X109302524Y-99416890D01*
X109472355Y-99826924D01*
X109862642Y-100255183D01*
X110387108Y-100501486D01*
X110617000Y-100380819D01*
X110617000Y-99187000D01*
X110871000Y-99187000D01*
X110871000Y-100380819D01*
X111100892Y-100501486D01*
X111625358Y-100255183D01*
X111704086Y-100168795D01*
X164099716Y-100168795D01*
X164348106Y-100769943D01*
X164807637Y-101230278D01*
X165408352Y-101479716D01*
X166058795Y-101480284D01*
X166659943Y-101231894D01*
X166894715Y-100997532D01*
X169262073Y-100997532D01*
X169360736Y-101264387D01*
X169970461Y-101490908D01*
X170620460Y-101466856D01*
X171109264Y-101264387D01*
X171207927Y-100997532D01*
X170235000Y-100024605D01*
X169262073Y-100997532D01*
X166894715Y-100997532D01*
X167120278Y-100772363D01*
X167369716Y-100171648D01*
X167370232Y-99580461D01*
X168589092Y-99580461D01*
X168613144Y-100230460D01*
X168815613Y-100719264D01*
X169082468Y-100817927D01*
X170055395Y-99845000D01*
X170414605Y-99845000D01*
X171387532Y-100817927D01*
X171654387Y-100719264D01*
X171880908Y-100109539D01*
X171856856Y-99459540D01*
X171654387Y-98970736D01*
X171387532Y-98872073D01*
X170414605Y-99845000D01*
X170055395Y-99845000D01*
X169082468Y-98872073D01*
X168815613Y-98970736D01*
X168589092Y-99580461D01*
X167370232Y-99580461D01*
X167370284Y-99521205D01*
X167121894Y-98920057D01*
X166894703Y-98692468D01*
X169262073Y-98692468D01*
X170235000Y-99665395D01*
X171207927Y-98692468D01*
X171109264Y-98425613D01*
X170499539Y-98199092D01*
X169849540Y-98223144D01*
X169360736Y-98425613D01*
X169262073Y-98692468D01*
X166894703Y-98692468D01*
X166662363Y-98459722D01*
X166061648Y-98210284D01*
X165411205Y-98209716D01*
X164810057Y-98458106D01*
X164349722Y-98917637D01*
X164100284Y-99518352D01*
X164099716Y-100168795D01*
X111704086Y-100168795D01*
X112015645Y-99826924D01*
X112185476Y-99416890D01*
X112064155Y-99187000D01*
X110871000Y-99187000D01*
X110617000Y-99187000D01*
X109423845Y-99187000D01*
X109302524Y-99416890D01*
X107232476Y-99416890D01*
X107111155Y-99187000D01*
X105918000Y-99187000D01*
X105664000Y-99187000D01*
X104470845Y-99187000D01*
X104349524Y-99416890D01*
X102406476Y-99416890D01*
X102285155Y-99187000D01*
X101092000Y-99187000D01*
X100838000Y-99187000D01*
X100818000Y-99187000D01*
X100818000Y-98933000D01*
X100838000Y-98933000D01*
X100838000Y-98913000D01*
X101092000Y-98913000D01*
X101092000Y-98933000D01*
X102285155Y-98933000D01*
X102406476Y-98703110D01*
X102236645Y-98293076D01*
X102095712Y-98138432D01*
X102363792Y-97870352D01*
X102480235Y-97948157D01*
X102728000Y-97997440D01*
X104028000Y-97997440D01*
X104275765Y-97948157D01*
X104485809Y-97807809D01*
X104626157Y-97597765D01*
X104650063Y-97477579D01*
X104711853Y-97570054D01*
X105052553Y-97797702D01*
X104909642Y-97864817D01*
X104519355Y-98293076D01*
X104349524Y-98703110D01*
X104470845Y-98933000D01*
X105664000Y-98933000D01*
X105664000Y-98913000D01*
X105918000Y-98913000D01*
X105918000Y-98933000D01*
X107111155Y-98933000D01*
X107232476Y-98703110D01*
X107062645Y-98293076D01*
X106672358Y-97864817D01*
X106529447Y-97797702D01*
X106870147Y-97570054D01*
X107049269Y-97301978D01*
X107082843Y-97470765D01*
X107223191Y-97680809D01*
X107433235Y-97821157D01*
X107681000Y-97870440D01*
X108981000Y-97870440D01*
X109228765Y-97821157D01*
X109438809Y-97680809D01*
X109579157Y-97470765D01*
X109583597Y-97448445D01*
X109664853Y-97570054D01*
X110005553Y-97797702D01*
X109862642Y-97864817D01*
X109472355Y-98293076D01*
X109302524Y-98703110D01*
X109423845Y-98933000D01*
X110617000Y-98933000D01*
X110617000Y-98913000D01*
X110871000Y-98913000D01*
X110871000Y-98933000D01*
X112064155Y-98933000D01*
X112185476Y-98703110D01*
X112015645Y-98293076D01*
X111625358Y-97864817D01*
X111482447Y-97797702D01*
X111823147Y-97570054D01*
X112145054Y-97088285D01*
X112258093Y-96520000D01*
X112145054Y-95951715D01*
X111823147Y-95469946D01*
X111779223Y-95440597D01*
X111841765Y-95428157D01*
X112051809Y-95287809D01*
X112192157Y-95077765D01*
X112241440Y-94830000D01*
X112241440Y-93668795D01*
X164099716Y-93668795D01*
X164348106Y-94269943D01*
X164807637Y-94730278D01*
X165408352Y-94979716D01*
X166058795Y-94980284D01*
X166659943Y-94731894D01*
X166894715Y-94497532D01*
X169262073Y-94497532D01*
X169360736Y-94764387D01*
X169970461Y-94990908D01*
X170620460Y-94966856D01*
X171109264Y-94764387D01*
X171207927Y-94497532D01*
X170235000Y-93524605D01*
X169262073Y-94497532D01*
X166894715Y-94497532D01*
X167120278Y-94272363D01*
X167369716Y-93671648D01*
X167370232Y-93080461D01*
X168589092Y-93080461D01*
X168613144Y-93730460D01*
X168815613Y-94219264D01*
X169082468Y-94317927D01*
X170055395Y-93345000D01*
X170414605Y-93345000D01*
X171387532Y-94317927D01*
X171654387Y-94219264D01*
X171880908Y-93609539D01*
X171856856Y-92959540D01*
X171654387Y-92470736D01*
X171387532Y-92372073D01*
X170414605Y-93345000D01*
X170055395Y-93345000D01*
X169082468Y-92372073D01*
X168815613Y-92470736D01*
X168589092Y-93080461D01*
X167370232Y-93080461D01*
X167370284Y-93021205D01*
X167121894Y-92420057D01*
X166894703Y-92192468D01*
X169262073Y-92192468D01*
X170235000Y-93165395D01*
X171207927Y-92192468D01*
X171109264Y-91925613D01*
X170499539Y-91699092D01*
X169849540Y-91723144D01*
X169360736Y-91925613D01*
X169262073Y-92192468D01*
X166894703Y-92192468D01*
X166662363Y-91959722D01*
X166061648Y-91710284D01*
X165411205Y-91709716D01*
X164810057Y-91958106D01*
X164349722Y-92417637D01*
X164100284Y-93018352D01*
X164099716Y-93668795D01*
X112241440Y-93668795D01*
X112241440Y-93130000D01*
X112192157Y-92882235D01*
X112051809Y-92672191D01*
X111841765Y-92531843D01*
X111594000Y-92482560D01*
X109894000Y-92482560D01*
X109646235Y-92531843D01*
X109644886Y-92532744D01*
X110285818Y-91891813D01*
X110318223Y-91940310D01*
X110718886Y-92208024D01*
X111191500Y-92302033D01*
X111664114Y-92208024D01*
X112064777Y-91940310D01*
X112332491Y-91539647D01*
X112426500Y-91067033D01*
X112426500Y-90202969D01*
X112496500Y-90202969D01*
X112496500Y-91067033D01*
X112590509Y-91539647D01*
X112858223Y-91940310D01*
X113258886Y-92208024D01*
X113731500Y-92302033D01*
X114204114Y-92208024D01*
X114604777Y-91940310D01*
X114872491Y-91539647D01*
X114966500Y-91067033D01*
X114966500Y-90202969D01*
X115036500Y-90202969D01*
X115036500Y-91067033D01*
X115130509Y-91539647D01*
X115398223Y-91940310D01*
X115798886Y-92208024D01*
X116271500Y-92302033D01*
X116744114Y-92208024D01*
X117144777Y-91940310D01*
X117412491Y-91539647D01*
X117506500Y-91067033D01*
X117506500Y-90202969D01*
X117576500Y-90202969D01*
X117576500Y-91067033D01*
X117670509Y-91539647D01*
X117938223Y-91940310D01*
X118338886Y-92208024D01*
X118811500Y-92302033D01*
X119284114Y-92208024D01*
X119684777Y-91940310D01*
X119952491Y-91539647D01*
X120046500Y-91067033D01*
X120046500Y-90202969D01*
X120116500Y-90202969D01*
X120116500Y-91067033D01*
X120210509Y-91539647D01*
X120478223Y-91940310D01*
X120878886Y-92208024D01*
X121351500Y-92302033D01*
X121824114Y-92208024D01*
X122224777Y-91940310D01*
X122492491Y-91539647D01*
X122586500Y-91067033D01*
X122586500Y-90202969D01*
X122656500Y-90202969D01*
X122656500Y-91067033D01*
X122750509Y-91539647D01*
X123018223Y-91940310D01*
X123418886Y-92208024D01*
X123891500Y-92302033D01*
X124364114Y-92208024D01*
X124764777Y-91940310D01*
X125032491Y-91539647D01*
X125126500Y-91067033D01*
X125126500Y-90202969D01*
X125196500Y-90202969D01*
X125196500Y-91067033D01*
X125290509Y-91539647D01*
X125558223Y-91940310D01*
X125958886Y-92208024D01*
X126431500Y-92302033D01*
X126904114Y-92208024D01*
X127304777Y-91940310D01*
X127572491Y-91539647D01*
X127666500Y-91067033D01*
X127666500Y-90202969D01*
X127736500Y-90202969D01*
X127736500Y-91067033D01*
X127830509Y-91539647D01*
X128098223Y-91940310D01*
X128498886Y-92208024D01*
X128971500Y-92302033D01*
X129444114Y-92208024D01*
X129844777Y-91940310D01*
X130112491Y-91539647D01*
X130206500Y-91067033D01*
X130206500Y-90202969D01*
X130276500Y-90202969D01*
X130276500Y-91067033D01*
X130370509Y-91539647D01*
X130638223Y-91940310D01*
X131038886Y-92208024D01*
X131511500Y-92302033D01*
X131984114Y-92208024D01*
X132384777Y-91940310D01*
X132652491Y-91539647D01*
X132746500Y-91067033D01*
X132746500Y-90202969D01*
X132816500Y-90202969D01*
X132816500Y-91067033D01*
X132910509Y-91539647D01*
X133178223Y-91940310D01*
X133578886Y-92208024D01*
X134051500Y-92302033D01*
X134524114Y-92208024D01*
X134924777Y-91940310D01*
X135192491Y-91539647D01*
X135286500Y-91067033D01*
X135286500Y-90202969D01*
X135356500Y-90202969D01*
X135356500Y-91067033D01*
X135450509Y-91539647D01*
X135718223Y-91940310D01*
X136118886Y-92208024D01*
X136591500Y-92302033D01*
X137064114Y-92208024D01*
X137464777Y-91940310D01*
X137732491Y-91539647D01*
X137826500Y-91067033D01*
X137826500Y-90202969D01*
X137896500Y-90202969D01*
X137896500Y-91067033D01*
X137990509Y-91539647D01*
X138258223Y-91940310D01*
X138658886Y-92208024D01*
X139131500Y-92302033D01*
X139604114Y-92208024D01*
X140004777Y-91940310D01*
X140272491Y-91539647D01*
X140366500Y-91067033D01*
X140366500Y-90202969D01*
X140436500Y-90202969D01*
X140436500Y-91067033D01*
X140530509Y-91539647D01*
X140798223Y-91940310D01*
X141198886Y-92208024D01*
X141671500Y-92302033D01*
X142144114Y-92208024D01*
X142544777Y-91940310D01*
X142812491Y-91539647D01*
X142906500Y-91067033D01*
X142906500Y-90202969D01*
X142976500Y-90202969D01*
X142976500Y-91067033D01*
X143070509Y-91539647D01*
X143338223Y-91940310D01*
X143738886Y-92208024D01*
X144211500Y-92302033D01*
X144684114Y-92208024D01*
X145084777Y-91940310D01*
X145352491Y-91539647D01*
X145446500Y-91067033D01*
X145446500Y-90202969D01*
X145516500Y-90202969D01*
X145516500Y-91067033D01*
X145610509Y-91539647D01*
X145878223Y-91940310D01*
X146278886Y-92208024D01*
X146751500Y-92302033D01*
X147224114Y-92208024D01*
X147624777Y-91940310D01*
X147892491Y-91539647D01*
X147986500Y-91067033D01*
X147986500Y-90202969D01*
X148056500Y-90202969D01*
X148056500Y-91067033D01*
X148150509Y-91539647D01*
X148418223Y-91940310D01*
X148818886Y-92208024D01*
X149291500Y-92302033D01*
X149764114Y-92208024D01*
X150164777Y-91940310D01*
X150432491Y-91539647D01*
X150526500Y-91067033D01*
X150526500Y-90202969D01*
X150596500Y-90202969D01*
X150596500Y-91067033D01*
X150690509Y-91539647D01*
X150958223Y-91940310D01*
X151358886Y-92208024D01*
X151831500Y-92302033D01*
X152304114Y-92208024D01*
X152704777Y-91940310D01*
X152972491Y-91539647D01*
X153066500Y-91067033D01*
X153066500Y-90202969D01*
X153136500Y-90202969D01*
X153136500Y-91067033D01*
X153230509Y-91539647D01*
X153498223Y-91940310D01*
X153898886Y-92208024D01*
X154371500Y-92302033D01*
X154844114Y-92208024D01*
X155244777Y-91940310D01*
X155512491Y-91539647D01*
X155606500Y-91067033D01*
X155606500Y-90202969D01*
X155676500Y-90202969D01*
X155676500Y-91067033D01*
X155770509Y-91539647D01*
X156038223Y-91940310D01*
X156438886Y-92208024D01*
X156911500Y-92302033D01*
X157384114Y-92208024D01*
X157784777Y-91940310D01*
X158052491Y-91539647D01*
X158146500Y-91067033D01*
X158146500Y-90762001D01*
X158216500Y-90762001D01*
X158216500Y-91162001D01*
X158359110Y-91624948D01*
X158668026Y-91998081D01*
X159096219Y-92224593D01*
X159133891Y-92228463D01*
X159324500Y-92103732D01*
X159324500Y-90762001D01*
X159578500Y-90762001D01*
X159578500Y-92103732D01*
X159769109Y-92228463D01*
X159806781Y-92224593D01*
X160234974Y-91998081D01*
X160543890Y-91624948D01*
X160686500Y-91162001D01*
X160686500Y-90762001D01*
X159578500Y-90762001D01*
X159324500Y-90762001D01*
X158216500Y-90762001D01*
X158146500Y-90762001D01*
X158146500Y-90202969D01*
X158127610Y-90108001D01*
X158216500Y-90108001D01*
X158216500Y-90508001D01*
X159324500Y-90508001D01*
X159324500Y-89166270D01*
X159578500Y-89166270D01*
X159578500Y-90508001D01*
X160686500Y-90508001D01*
X160686500Y-90202969D01*
X160756500Y-90202969D01*
X160756500Y-91067033D01*
X160850509Y-91539647D01*
X161118223Y-91940310D01*
X161518886Y-92208024D01*
X161991500Y-92302033D01*
X162464114Y-92208024D01*
X162864777Y-91940310D01*
X163132491Y-91539647D01*
X163226500Y-91067033D01*
X163226500Y-90202969D01*
X163132491Y-89730355D01*
X162864777Y-89329692D01*
X162464114Y-89061978D01*
X161991500Y-88967969D01*
X161518886Y-89061978D01*
X161118223Y-89329692D01*
X160850509Y-89730355D01*
X160756500Y-90202969D01*
X160686500Y-90202969D01*
X160686500Y-90108001D01*
X160543890Y-89645054D01*
X160234974Y-89271921D01*
X159806781Y-89045409D01*
X159769109Y-89041539D01*
X159578500Y-89166270D01*
X159324500Y-89166270D01*
X159133891Y-89041539D01*
X159096219Y-89045409D01*
X158668026Y-89271921D01*
X158359110Y-89645054D01*
X158216500Y-90108001D01*
X158127610Y-90108001D01*
X158052491Y-89730355D01*
X157784777Y-89329692D01*
X157384114Y-89061978D01*
X156911500Y-88967969D01*
X156438886Y-89061978D01*
X156038223Y-89329692D01*
X155770509Y-89730355D01*
X155676500Y-90202969D01*
X155606500Y-90202969D01*
X155512491Y-89730355D01*
X155244777Y-89329692D01*
X154844114Y-89061978D01*
X154371500Y-88967969D01*
X153898886Y-89061978D01*
X153498223Y-89329692D01*
X153230509Y-89730355D01*
X153136500Y-90202969D01*
X153066500Y-90202969D01*
X152972491Y-89730355D01*
X152704777Y-89329692D01*
X152304114Y-89061978D01*
X151831500Y-88967969D01*
X151358886Y-89061978D01*
X150958223Y-89329692D01*
X150690509Y-89730355D01*
X150596500Y-90202969D01*
X150526500Y-90202969D01*
X150432491Y-89730355D01*
X150164777Y-89329692D01*
X149764114Y-89061978D01*
X149291500Y-88967969D01*
X148818886Y-89061978D01*
X148418223Y-89329692D01*
X148150509Y-89730355D01*
X148056500Y-90202969D01*
X147986500Y-90202969D01*
X147892491Y-89730355D01*
X147624777Y-89329692D01*
X147224114Y-89061978D01*
X146751500Y-88967969D01*
X146278886Y-89061978D01*
X145878223Y-89329692D01*
X145610509Y-89730355D01*
X145516500Y-90202969D01*
X145446500Y-90202969D01*
X145352491Y-89730355D01*
X145084777Y-89329692D01*
X144684114Y-89061978D01*
X144211500Y-88967969D01*
X143738886Y-89061978D01*
X143338223Y-89329692D01*
X143070509Y-89730355D01*
X142976500Y-90202969D01*
X142906500Y-90202969D01*
X142812491Y-89730355D01*
X142544777Y-89329692D01*
X142144114Y-89061978D01*
X141671500Y-88967969D01*
X141198886Y-89061978D01*
X140798223Y-89329692D01*
X140530509Y-89730355D01*
X140436500Y-90202969D01*
X140366500Y-90202969D01*
X140272491Y-89730355D01*
X140004777Y-89329692D01*
X139604114Y-89061978D01*
X139131500Y-88967969D01*
X138658886Y-89061978D01*
X138258223Y-89329692D01*
X137990509Y-89730355D01*
X137896500Y-90202969D01*
X137826500Y-90202969D01*
X137732491Y-89730355D01*
X137464777Y-89329692D01*
X137064114Y-89061978D01*
X136591500Y-88967969D01*
X136118886Y-89061978D01*
X135718223Y-89329692D01*
X135450509Y-89730355D01*
X135356500Y-90202969D01*
X135286500Y-90202969D01*
X135192491Y-89730355D01*
X134924777Y-89329692D01*
X134524114Y-89061978D01*
X134051500Y-88967969D01*
X133578886Y-89061978D01*
X133178223Y-89329692D01*
X132910509Y-89730355D01*
X132816500Y-90202969D01*
X132746500Y-90202969D01*
X132652491Y-89730355D01*
X132384777Y-89329692D01*
X131984114Y-89061978D01*
X131511500Y-88967969D01*
X131038886Y-89061978D01*
X130638223Y-89329692D01*
X130370509Y-89730355D01*
X130276500Y-90202969D01*
X130206500Y-90202969D01*
X130112491Y-89730355D01*
X129844777Y-89329692D01*
X129444114Y-89061978D01*
X128971500Y-88967969D01*
X128498886Y-89061978D01*
X128098223Y-89329692D01*
X127830509Y-89730355D01*
X127736500Y-90202969D01*
X127666500Y-90202969D01*
X127572491Y-89730355D01*
X127304777Y-89329692D01*
X126904114Y-89061978D01*
X126431500Y-88967969D01*
X125958886Y-89061978D01*
X125558223Y-89329692D01*
X125290509Y-89730355D01*
X125196500Y-90202969D01*
X125126500Y-90202969D01*
X125032491Y-89730355D01*
X124764777Y-89329692D01*
X124364114Y-89061978D01*
X123891500Y-88967969D01*
X123418886Y-89061978D01*
X123018223Y-89329692D01*
X122750509Y-89730355D01*
X122656500Y-90202969D01*
X122586500Y-90202969D01*
X122492491Y-89730355D01*
X122224777Y-89329692D01*
X121824114Y-89061978D01*
X121351500Y-88967969D01*
X120878886Y-89061978D01*
X120478223Y-89329692D01*
X120210509Y-89730355D01*
X120116500Y-90202969D01*
X120046500Y-90202969D01*
X119952491Y-89730355D01*
X119684777Y-89329692D01*
X119284114Y-89061978D01*
X118811500Y-88967969D01*
X118338886Y-89061978D01*
X117938223Y-89329692D01*
X117670509Y-89730355D01*
X117576500Y-90202969D01*
X117506500Y-90202969D01*
X117412491Y-89730355D01*
X117144777Y-89329692D01*
X116744114Y-89061978D01*
X116271500Y-88967969D01*
X115798886Y-89061978D01*
X115398223Y-89329692D01*
X115130509Y-89730355D01*
X115036500Y-90202969D01*
X114966500Y-90202969D01*
X114872491Y-89730355D01*
X114604777Y-89329692D01*
X114204114Y-89061978D01*
X113731500Y-88967969D01*
X113258886Y-89061978D01*
X112858223Y-89329692D01*
X112590509Y-89730355D01*
X112496500Y-90202969D01*
X112426500Y-90202969D01*
X112332491Y-89730355D01*
X112064777Y-89329692D01*
X111664114Y-89061978D01*
X111433478Y-89016101D01*
X112994226Y-87455353D01*
X118401931Y-87455353D01*
X118550493Y-87814902D01*
X118825341Y-88090230D01*
X119184630Y-88239420D01*
X119573663Y-88239759D01*
X119933212Y-88091197D01*
X120000837Y-88023690D01*
X148958310Y-88023690D01*
X149249915Y-87965686D01*
X149497125Y-87800505D01*
X152846952Y-84450679D01*
X153162410Y-84581668D01*
X153920265Y-84582330D01*
X154620686Y-84292922D01*
X155157039Y-83757505D01*
X155447668Y-83057590D01*
X155447670Y-83054265D01*
X157479670Y-83054265D01*
X157769078Y-83754686D01*
X158304495Y-84291039D01*
X159004410Y-84581668D01*
X159762265Y-84582330D01*
X160462686Y-84292922D01*
X160999039Y-83757505D01*
X161289668Y-83057590D01*
X161290330Y-82299735D01*
X161000922Y-81599314D01*
X160465505Y-81062961D01*
X159765590Y-80772332D01*
X159007735Y-80771670D01*
X158307314Y-81061078D01*
X157770961Y-81596495D01*
X157480332Y-82296410D01*
X157479670Y-83054265D01*
X155447670Y-83054265D01*
X155448330Y-82299735D01*
X155158922Y-81599314D01*
X154623505Y-81062961D01*
X153923590Y-80772332D01*
X153165735Y-80771670D01*
X152465314Y-81061078D01*
X151928961Y-81596495D01*
X151638332Y-82296410D01*
X151637670Y-83054265D01*
X151769369Y-83373000D01*
X148642680Y-86499690D01*
X120001083Y-86499690D01*
X119934659Y-86433150D01*
X119575370Y-86283960D01*
X119186337Y-86283621D01*
X118826788Y-86432183D01*
X118551460Y-86707031D01*
X118402270Y-87066320D01*
X118401931Y-87455353D01*
X112994226Y-87455353D01*
X116822395Y-83627184D01*
X116875078Y-83754686D01*
X117410495Y-84291039D01*
X118110410Y-84581668D01*
X118868265Y-84582330D01*
X119568686Y-84292922D01*
X120105039Y-83757505D01*
X120395668Y-83057590D01*
X120396330Y-82299735D01*
X120226865Y-81889599D01*
X122597254Y-81889599D01*
X122428332Y-82296410D01*
X122427670Y-83054265D01*
X122717078Y-83754686D01*
X123252495Y-84291039D01*
X123952410Y-84581668D01*
X124710265Y-84582330D01*
X125410686Y-84292922D01*
X125679299Y-84024777D01*
X129006828Y-84024777D01*
X129138520Y-84319657D01*
X129846036Y-84591261D01*
X130603632Y-84571436D01*
X131211480Y-84319657D01*
X131343172Y-84024777D01*
X130175000Y-82856605D01*
X129006828Y-84024777D01*
X125679299Y-84024777D01*
X125947039Y-83757505D01*
X126237668Y-83057590D01*
X126238330Y-82299735D01*
X126068865Y-81889599D01*
X128436726Y-81889599D01*
X128260739Y-82348036D01*
X128280564Y-83105632D01*
X128532343Y-83713480D01*
X128827223Y-83845172D01*
X129995395Y-82677000D01*
X129981253Y-82662858D01*
X130160858Y-82483253D01*
X130175000Y-82497395D01*
X130189143Y-82483253D01*
X130368748Y-82662858D01*
X130354605Y-82677000D01*
X131522777Y-83845172D01*
X131817657Y-83713480D01*
X132089261Y-83005964D01*
X132069436Y-82248368D01*
X131920829Y-81889599D01*
X134151969Y-81889599D01*
X134243321Y-81980951D01*
X134112332Y-82296410D01*
X134111670Y-83054265D01*
X134401078Y-83754686D01*
X134936495Y-84291039D01*
X135636410Y-84581668D01*
X136394265Y-84582330D01*
X137094686Y-84292922D01*
X137631039Y-83757505D01*
X137921668Y-83057590D01*
X137922330Y-82299735D01*
X137632922Y-81599314D01*
X137097505Y-81062961D01*
X136397590Y-80772332D01*
X135639735Y-80771670D01*
X135320999Y-80903369D01*
X135006414Y-80588784D01*
X134759204Y-80423603D01*
X134467599Y-80365599D01*
X113932902Y-80365599D01*
X113641297Y-80423603D01*
X113394087Y-80588784D01*
X104528251Y-89454620D01*
X104444777Y-89329692D01*
X104044114Y-89061978D01*
X103571500Y-88967969D01*
X103098886Y-89061978D01*
X102698223Y-89329692D01*
X102430509Y-89730355D01*
X102336500Y-90202969D01*
X102336500Y-91067033D01*
X102430509Y-91539647D01*
X102595819Y-91787052D01*
X101909784Y-92473087D01*
X101893077Y-92498090D01*
X101815000Y-92482560D01*
X100820071Y-92482560D01*
X101005725Y-92296906D01*
X101031500Y-92302033D01*
X101504114Y-92208024D01*
X101904777Y-91940310D01*
X102172491Y-91539647D01*
X102266500Y-91067033D01*
X102266500Y-90202969D01*
X102172491Y-89730355D01*
X101904777Y-89329692D01*
X101504114Y-89061978D01*
X101031500Y-88967969D01*
X100558886Y-89061978D01*
X100158223Y-89329692D01*
X99890509Y-89730355D01*
X99796500Y-90202969D01*
X99796500Y-91067033D01*
X99843592Y-91303778D01*
X99611255Y-91536114D01*
X99726500Y-91162001D01*
X99726500Y-90762001D01*
X98618500Y-90762001D01*
X98618500Y-92103732D01*
X98809109Y-92228463D01*
X98846781Y-92224593D01*
X99008129Y-92139241D01*
X98644810Y-92502560D01*
X97775000Y-92502560D01*
X97527235Y-92551843D01*
X97317191Y-92692191D01*
X97230000Y-92822681D01*
X97230000Y-90762001D01*
X97256500Y-90762001D01*
X97256500Y-91162001D01*
X97399110Y-91624948D01*
X97708026Y-91998081D01*
X98136219Y-92224593D01*
X98173891Y-92228463D01*
X98364500Y-92103732D01*
X98364500Y-90762001D01*
X97256500Y-90762001D01*
X97230000Y-90762001D01*
X97230000Y-90108001D01*
X97256500Y-90108001D01*
X97256500Y-90508001D01*
X98364500Y-90508001D01*
X98364500Y-89166270D01*
X98618500Y-89166270D01*
X98618500Y-90508001D01*
X99726500Y-90508001D01*
X99726500Y-90108001D01*
X99583890Y-89645054D01*
X99274974Y-89271921D01*
X98846781Y-89045409D01*
X98809109Y-89041539D01*
X98618500Y-89166270D01*
X98364500Y-89166270D01*
X98173891Y-89041539D01*
X98136219Y-89045409D01*
X97708026Y-89271921D01*
X97399110Y-89645054D01*
X97256500Y-90108001D01*
X97230000Y-90108001D01*
X97230000Y-80354595D01*
X97395777Y-80354595D01*
X97854970Y-81465928D01*
X98704499Y-82316941D01*
X99815030Y-82778074D01*
X101017495Y-82779123D01*
X102128828Y-82319930D01*
X102979841Y-81470401D01*
X103440974Y-80359870D01*
X103442023Y-79157405D01*
X103039316Y-78182777D01*
X117322828Y-78182777D01*
X117454520Y-78477657D01*
X118162036Y-78749261D01*
X118919632Y-78729436D01*
X119527480Y-78477657D01*
X119659172Y-78182777D01*
X123164828Y-78182777D01*
X123296520Y-78477657D01*
X124004036Y-78749261D01*
X124761632Y-78729436D01*
X125369480Y-78477657D01*
X125501172Y-78182777D01*
X129006828Y-78182777D01*
X129138520Y-78477657D01*
X129846036Y-78749261D01*
X130603632Y-78729436D01*
X131211480Y-78477657D01*
X131343172Y-78182777D01*
X130175000Y-77014605D01*
X129006828Y-78182777D01*
X125501172Y-78182777D01*
X124333000Y-77014605D01*
X123164828Y-78182777D01*
X119659172Y-78182777D01*
X118491000Y-77014605D01*
X117322828Y-78182777D01*
X103039316Y-78182777D01*
X102982830Y-78046072D01*
X102133301Y-77195059D01*
X101022770Y-76733926D01*
X99820305Y-76732877D01*
X98708972Y-77192070D01*
X97857959Y-78041599D01*
X97396826Y-79152130D01*
X97395777Y-80354595D01*
X97230000Y-80354595D01*
X97230000Y-76506036D01*
X116576739Y-76506036D01*
X116596564Y-77263632D01*
X116848343Y-77871480D01*
X117143223Y-78003172D01*
X118311395Y-76835000D01*
X118670605Y-76835000D01*
X119838777Y-78003172D01*
X120133657Y-77871480D01*
X120405261Y-77163964D01*
X120388045Y-76506036D01*
X122418739Y-76506036D01*
X122438564Y-77263632D01*
X122690343Y-77871480D01*
X122985223Y-78003172D01*
X124153395Y-76835000D01*
X124512605Y-76835000D01*
X125680777Y-78003172D01*
X125975657Y-77871480D01*
X126247261Y-77163964D01*
X126230045Y-76506036D01*
X128260739Y-76506036D01*
X128280564Y-77263632D01*
X128532343Y-77871480D01*
X128827223Y-78003172D01*
X129995395Y-76835000D01*
X130354605Y-76835000D01*
X131522777Y-78003172D01*
X131817657Y-77871480D01*
X132070719Y-77212265D01*
X134111670Y-77212265D01*
X134401078Y-77912686D01*
X134936495Y-78449039D01*
X135636410Y-78739668D01*
X136394265Y-78740330D01*
X136713001Y-78608631D01*
X138176000Y-80071630D01*
X138176000Y-83960917D01*
X138109460Y-84027341D01*
X137960270Y-84386630D01*
X137959931Y-84775663D01*
X138108493Y-85135212D01*
X138383341Y-85410540D01*
X138742630Y-85559730D01*
X139131663Y-85560069D01*
X139491212Y-85411507D01*
X139766540Y-85136659D01*
X139915730Y-84777370D01*
X139916069Y-84388337D01*
X139767507Y-84028788D01*
X139700000Y-83961163D01*
X139700000Y-83054265D01*
X139953670Y-83054265D01*
X140243078Y-83754686D01*
X140778495Y-84291039D01*
X141478410Y-84581668D01*
X142236265Y-84582330D01*
X142936686Y-84292922D01*
X143205299Y-84024777D01*
X146532828Y-84024777D01*
X146664520Y-84319657D01*
X147372036Y-84591261D01*
X148129632Y-84571436D01*
X148737480Y-84319657D01*
X148869172Y-84024777D01*
X147701000Y-82856605D01*
X146532828Y-84024777D01*
X143205299Y-84024777D01*
X143473039Y-83757505D01*
X143763668Y-83057590D01*
X143764287Y-82348036D01*
X145786739Y-82348036D01*
X145806564Y-83105632D01*
X146058343Y-83713480D01*
X146353223Y-83845172D01*
X147521395Y-82677000D01*
X147880605Y-82677000D01*
X149048777Y-83845172D01*
X149343657Y-83713480D01*
X149615261Y-83005964D01*
X149595436Y-82248368D01*
X149343657Y-81640520D01*
X149048777Y-81508828D01*
X147880605Y-82677000D01*
X147521395Y-82677000D01*
X146353223Y-81508828D01*
X146058343Y-81640520D01*
X145786739Y-82348036D01*
X143764287Y-82348036D01*
X143764330Y-82299735D01*
X143474922Y-81599314D01*
X143205303Y-81329223D01*
X146532828Y-81329223D01*
X147701000Y-82497395D01*
X148869172Y-81329223D01*
X148737480Y-81034343D01*
X148029964Y-80762739D01*
X147272368Y-80782564D01*
X146664520Y-81034343D01*
X146532828Y-81329223D01*
X143205303Y-81329223D01*
X142939505Y-81062961D01*
X142239590Y-80772332D01*
X141481735Y-80771670D01*
X140781314Y-81061078D01*
X140244961Y-81596495D01*
X139954332Y-82296410D01*
X139953670Y-83054265D01*
X139700000Y-83054265D01*
X139700000Y-80354595D01*
X174205377Y-80354595D01*
X174664570Y-81465928D01*
X175514099Y-82316941D01*
X176624630Y-82778074D01*
X177827095Y-82779123D01*
X178938428Y-82319930D01*
X179789441Y-81470401D01*
X180250574Y-80359870D01*
X180251623Y-79157405D01*
X179792430Y-78046072D01*
X178942901Y-77195059D01*
X177832370Y-76733926D01*
X176629905Y-76732877D01*
X175518572Y-77192070D01*
X174667559Y-78041599D01*
X174206426Y-79152130D01*
X174205377Y-80354595D01*
X139700000Y-80354595D01*
X139700000Y-79756000D01*
X139641996Y-79464395D01*
X139476815Y-79217185D01*
X137790679Y-77531049D01*
X137921668Y-77215590D01*
X137921670Y-77212265D01*
X139953670Y-77212265D01*
X140243078Y-77912686D01*
X140778495Y-78449039D01*
X141478410Y-78739668D01*
X142236265Y-78740330D01*
X142936686Y-78450922D01*
X143205299Y-78182777D01*
X146532828Y-78182777D01*
X146664520Y-78477657D01*
X147372036Y-78749261D01*
X148129632Y-78729436D01*
X148737480Y-78477657D01*
X148869172Y-78182777D01*
X147701000Y-77014605D01*
X146532828Y-78182777D01*
X143205299Y-78182777D01*
X143473039Y-77915505D01*
X143763668Y-77215590D01*
X143764287Y-76506036D01*
X145786739Y-76506036D01*
X145806564Y-77263632D01*
X146058343Y-77871480D01*
X146353223Y-78003172D01*
X147521395Y-76835000D01*
X147880605Y-76835000D01*
X149048777Y-78003172D01*
X149343657Y-77871480D01*
X149596719Y-77212265D01*
X151637670Y-77212265D01*
X151927078Y-77912686D01*
X152462495Y-78449039D01*
X153162410Y-78739668D01*
X153920265Y-78740330D01*
X154620686Y-78450922D01*
X155157039Y-77915505D01*
X155447668Y-77215590D01*
X155447670Y-77212265D01*
X157479670Y-77212265D01*
X157769078Y-77912686D01*
X158304495Y-78449039D01*
X159004410Y-78739668D01*
X159762265Y-78740330D01*
X160462686Y-78450922D01*
X160999039Y-77915505D01*
X161289668Y-77215590D01*
X161290330Y-76457735D01*
X161000922Y-75757314D01*
X160465505Y-75220961D01*
X159765590Y-74930332D01*
X159007735Y-74929670D01*
X158307314Y-75219078D01*
X157770961Y-75754495D01*
X157480332Y-76454410D01*
X157479670Y-77212265D01*
X155447670Y-77212265D01*
X155448330Y-76457735D01*
X155158922Y-75757314D01*
X154623505Y-75220961D01*
X153923590Y-74930332D01*
X153165735Y-74929670D01*
X152465314Y-75219078D01*
X151928961Y-75754495D01*
X151638332Y-76454410D01*
X151637670Y-77212265D01*
X149596719Y-77212265D01*
X149615261Y-77163964D01*
X149595436Y-76406368D01*
X149343657Y-75798520D01*
X149048777Y-75666828D01*
X147880605Y-76835000D01*
X147521395Y-76835000D01*
X146353223Y-75666828D01*
X146058343Y-75798520D01*
X145786739Y-76506036D01*
X143764287Y-76506036D01*
X143764330Y-76457735D01*
X143474922Y-75757314D01*
X143205303Y-75487223D01*
X146532828Y-75487223D01*
X147701000Y-76655395D01*
X148869172Y-75487223D01*
X148737480Y-75192343D01*
X148029964Y-74920739D01*
X147272368Y-74940564D01*
X146664520Y-75192343D01*
X146532828Y-75487223D01*
X143205303Y-75487223D01*
X142939505Y-75220961D01*
X142239590Y-74930332D01*
X141481735Y-74929670D01*
X140781314Y-75219078D01*
X140244961Y-75754495D01*
X139954332Y-76454410D01*
X139953670Y-77212265D01*
X137921670Y-77212265D01*
X137922330Y-76457735D01*
X137632922Y-75757314D01*
X137097505Y-75220961D01*
X136397590Y-74930332D01*
X135639735Y-74929670D01*
X134939314Y-75219078D01*
X134402961Y-75754495D01*
X134112332Y-76454410D01*
X134111670Y-77212265D01*
X132070719Y-77212265D01*
X132089261Y-77163964D01*
X132069436Y-76406368D01*
X131817657Y-75798520D01*
X131522777Y-75666828D01*
X130354605Y-76835000D01*
X129995395Y-76835000D01*
X128827223Y-75666828D01*
X128532343Y-75798520D01*
X128260739Y-76506036D01*
X126230045Y-76506036D01*
X126227436Y-76406368D01*
X125975657Y-75798520D01*
X125680777Y-75666828D01*
X124512605Y-76835000D01*
X124153395Y-76835000D01*
X122985223Y-75666828D01*
X122690343Y-75798520D01*
X122418739Y-76506036D01*
X120388045Y-76506036D01*
X120385436Y-76406368D01*
X120133657Y-75798520D01*
X119838777Y-75666828D01*
X118670605Y-76835000D01*
X118311395Y-76835000D01*
X117143223Y-75666828D01*
X116848343Y-75798520D01*
X116576739Y-76506036D01*
X97230000Y-76506036D01*
X97230000Y-75487223D01*
X117322828Y-75487223D01*
X118491000Y-76655395D01*
X119659172Y-75487223D01*
X123164828Y-75487223D01*
X124333000Y-76655395D01*
X125501172Y-75487223D01*
X129006828Y-75487223D01*
X130175000Y-76655395D01*
X131343172Y-75487223D01*
X131211480Y-75192343D01*
X130503964Y-74920739D01*
X129746368Y-74940564D01*
X129138520Y-75192343D01*
X129006828Y-75487223D01*
X125501172Y-75487223D01*
X125369480Y-75192343D01*
X124661964Y-74920739D01*
X123904368Y-74940564D01*
X123296520Y-75192343D01*
X123164828Y-75487223D01*
X119659172Y-75487223D01*
X119527480Y-75192343D01*
X118819964Y-74920739D01*
X118062368Y-74940564D01*
X117454520Y-75192343D01*
X117322828Y-75487223D01*
X97230000Y-75487223D01*
X97230000Y-71830000D01*
X180265000Y-71830000D01*
X180265000Y-128195000D01*
M02*
