G04 #@! TF.GenerationSoftware,KiCad,Pcbnew,(2016-12-18 revision 3ffa37c)-makepkg*
G04 #@! TF.CreationDate,2016-12-23T23:11:33-05:00*
G04 #@! TF.ProjectId,Energy_Meter,456E657267795F4D657465722E6B6963,rev?*
G04 #@! TF.FileFunction,Soldermask,Top*
G04 #@! TF.FilePolarity,Negative*
%FSLAX46Y46*%
G04 Gerber Fmt 4.6, Leading zero omitted, Abs format (unit mm)*
G04 Created by KiCad (PCBNEW (2016-12-18 revision 3ffa37c)-makepkg) date 12/23/16 23:11:33*
%MOMM*%
%LPD*%
G01*
G04 APERTURE LIST*
%ADD10C,0.100000*%
%ADD11R,2.235200X2.235200*%
%ADD12C,3.000000*%
%ADD13R,1.900000X1.900000*%
%ADD14C,1.900000*%
%ADD15R,1.100000X0.400000*%
%ADD16R,2.000000X1.600000*%
%ADD17R,2.032000X2.032000*%
%ADD18O,2.032000X2.032000*%
%ADD19R,2.000000X1.700000*%
%ADD20C,1.524000*%
%ADD21R,0.600000X1.550000*%
%ADD22O,2.499360X1.501140*%
%ADD23O,1.524000X1.524000*%
%ADD24R,0.400000X1.100000*%
%ADD25R,1.300000X1.500000*%
G04 APERTURE END LIST*
D10*
D11*
X193167000Y-88519000D03*
D12*
X158750000Y-122174000D03*
X197866000Y-122174000D03*
X197866000Y-89154000D03*
X158750000Y-89154000D03*
D13*
X189150000Y-88940000D03*
D14*
X186650000Y-88940000D03*
X184150000Y-88940000D03*
X181650000Y-88940000D03*
X189150000Y-91440000D03*
X186650000Y-91440000D03*
X184150000Y-91440000D03*
X181650000Y-91440000D03*
D15*
X185538000Y-120945000D03*
X185538000Y-121595000D03*
X185538000Y-122245000D03*
X185538000Y-122895000D03*
X181238000Y-122895000D03*
X181238000Y-122245000D03*
X181238000Y-121595000D03*
X181238000Y-120945000D03*
D16*
X190532000Y-104140000D03*
X194532000Y-104140000D03*
D17*
X168656000Y-123444000D03*
D18*
X171196000Y-123444000D03*
D11*
X164592000Y-123444000D03*
D19*
X178276000Y-123444000D03*
X174276000Y-123444000D03*
X164624000Y-120396000D03*
X168624000Y-120396000D03*
X171228000Y-120396000D03*
X175228000Y-120396000D03*
D20*
X195326000Y-107696000D03*
X195326000Y-110236000D03*
X195326000Y-112776000D03*
X195326000Y-115316000D03*
D21*
X178435000Y-113952000D03*
X179705000Y-113952000D03*
X180975000Y-113952000D03*
X182245000Y-113952000D03*
X182245000Y-108552000D03*
X180975000Y-108552000D03*
X179705000Y-108552000D03*
X178435000Y-108552000D03*
X157607000Y-112936000D03*
X158877000Y-112936000D03*
X160147000Y-112936000D03*
X161417000Y-112936000D03*
X161417000Y-107536000D03*
X160147000Y-107536000D03*
X158877000Y-107536000D03*
X157607000Y-107536000D03*
D22*
X197485000Y-99568000D03*
X197485000Y-97028000D03*
X197485000Y-102108000D03*
D20*
X157988000Y-95504000D03*
X160528000Y-95504000D03*
X163068000Y-95504000D03*
X165608000Y-95504000D03*
X168148000Y-95504000D03*
X170688000Y-95504000D03*
X173228000Y-95504000D03*
D23*
X173228000Y-115824000D03*
D20*
X170688000Y-115824000D03*
X168148000Y-115824000D03*
X165608000Y-115824000D03*
X163068000Y-115824000D03*
X160528000Y-115824000D03*
X157988000Y-115824000D03*
D24*
X189017000Y-117720000D03*
X189667000Y-117720000D03*
X190317000Y-117720000D03*
X190967000Y-117720000D03*
X190967000Y-113420000D03*
X190317000Y-113420000D03*
X189667000Y-113420000D03*
X189017000Y-113420000D03*
D25*
X191008000Y-110062000D03*
X191008000Y-107362000D03*
M02*
