G04 #@! TF.GenerationSoftware,KiCad,Pcbnew,(2016-12-18 revision 3ffa37c)-makepkg*
G04 #@! TF.CreationDate,2016-12-23T23:11:33-05:00*
G04 #@! TF.ProjectId,Energy_Meter,456E657267795F4D657465722E6B6963,rev?*
G04 #@! TF.FileFunction,Legend,Top*
G04 #@! TF.FilePolarity,Positive*
%FSLAX46Y46*%
G04 Gerber Fmt 4.6, Leading zero omitted, Abs format (unit mm)*
G04 Created by KiCad (PCBNEW (2016-12-18 revision 3ffa37c)-makepkg) date 12/23/16 23:11:33*
%MOMM*%
%LPD*%
G01*
G04 APERTURE LIST*
%ADD10C,0.100000*%
%ADD11C,0.150000*%
%ADD12C,0.010000*%
G04 APERTURE END LIST*
D10*
D11*
X194717000Y-86969000D02*
X194717000Y-88519000D01*
X191617000Y-88519000D02*
X191617000Y-86969000D01*
X191617000Y-86969000D02*
X194717000Y-86969000D01*
X191897000Y-89789000D02*
X194437000Y-89789000D01*
D12*
G36*
X170944604Y-88254698D02*
X170976728Y-88278011D01*
X170990344Y-88323132D01*
X170989341Y-88391145D01*
X170968241Y-88484404D01*
X170924395Y-88565716D01*
X170862988Y-88626710D01*
X170832169Y-88644753D01*
X170778017Y-88666248D01*
X170738466Y-88668285D01*
X170700415Y-88650892D01*
X170691768Y-88645039D01*
X170666413Y-88618299D01*
X170655552Y-88577744D01*
X170654699Y-88556702D01*
X170740556Y-88556702D01*
X170743122Y-88597702D01*
X170749493Y-88608715D01*
X170773573Y-88612342D01*
X170805491Y-88589685D01*
X170840042Y-88545713D01*
X170867038Y-88496486D01*
X170893240Y-88428429D01*
X170905759Y-88370401D01*
X170905439Y-88326891D01*
X170893125Y-88302388D01*
X170869660Y-88301382D01*
X170835891Y-88328361D01*
X170835489Y-88328804D01*
X170801636Y-88376941D01*
X170772643Y-88437110D01*
X170751339Y-88500101D01*
X170740556Y-88556702D01*
X170654699Y-88556702D01*
X170654134Y-88542765D01*
X170666842Y-88455845D01*
X170701511Y-88376457D01*
X170752956Y-88311067D01*
X170815989Y-88266142D01*
X170885426Y-88248150D01*
X170890426Y-88248066D01*
X170944604Y-88254698D01*
X170944604Y-88254698D01*
G37*
X170944604Y-88254698D02*
X170976728Y-88278011D01*
X170990344Y-88323132D01*
X170989341Y-88391145D01*
X170968241Y-88484404D01*
X170924395Y-88565716D01*
X170862988Y-88626710D01*
X170832169Y-88644753D01*
X170778017Y-88666248D01*
X170738466Y-88668285D01*
X170700415Y-88650892D01*
X170691768Y-88645039D01*
X170666413Y-88618299D01*
X170655552Y-88577744D01*
X170654699Y-88556702D01*
X170740556Y-88556702D01*
X170743122Y-88597702D01*
X170749493Y-88608715D01*
X170773573Y-88612342D01*
X170805491Y-88589685D01*
X170840042Y-88545713D01*
X170867038Y-88496486D01*
X170893240Y-88428429D01*
X170905759Y-88370401D01*
X170905439Y-88326891D01*
X170893125Y-88302388D01*
X170869660Y-88301382D01*
X170835891Y-88328361D01*
X170835489Y-88328804D01*
X170801636Y-88376941D01*
X170772643Y-88437110D01*
X170751339Y-88500101D01*
X170740556Y-88556702D01*
X170654699Y-88556702D01*
X170654134Y-88542765D01*
X170666842Y-88455845D01*
X170701511Y-88376457D01*
X170752956Y-88311067D01*
X170815989Y-88266142D01*
X170885426Y-88248150D01*
X170890426Y-88248066D01*
X170944604Y-88254698D01*
G36*
X177456381Y-88130191D02*
X177482503Y-88133828D01*
X177486104Y-88142942D01*
X177472853Y-88160026D01*
X177472425Y-88160500D01*
X177460703Y-88178975D01*
X177452667Y-88207831D01*
X177447690Y-88252870D01*
X177445144Y-88319895D01*
X177444401Y-88414711D01*
X177444400Y-88419580D01*
X177445882Y-88530052D01*
X177450390Y-88607899D01*
X177458014Y-88654232D01*
X177464720Y-88668013D01*
X177491998Y-88679247D01*
X177540683Y-88686626D01*
X177580629Y-88688333D01*
X177643199Y-88685092D01*
X177682872Y-88673485D01*
X177706961Y-88654362D01*
X177733788Y-88629292D01*
X177743764Y-88632745D01*
X177737355Y-88665335D01*
X177730687Y-88685587D01*
X177712020Y-88739133D01*
X177507853Y-88739133D01*
X177422344Y-88738891D01*
X177365894Y-88737604D01*
X177333694Y-88734425D01*
X177320937Y-88728509D01*
X177322813Y-88719011D01*
X177331709Y-88708166D01*
X177343083Y-88690372D01*
X177350995Y-88662635D01*
X177356018Y-88619351D01*
X177358728Y-88554913D01*
X177359696Y-88463715D01*
X177359733Y-88434333D01*
X177359130Y-88335099D01*
X177356939Y-88264111D01*
X177352585Y-88215763D01*
X177345495Y-88184450D01*
X177335095Y-88164565D01*
X177331709Y-88160500D01*
X177318158Y-88143216D01*
X177321336Y-88133958D01*
X177346914Y-88130229D01*
X177400563Y-88129533D01*
X177402067Y-88129533D01*
X177456381Y-88130191D01*
X177456381Y-88130191D01*
G37*
X177456381Y-88130191D02*
X177482503Y-88133828D01*
X177486104Y-88142942D01*
X177472853Y-88160026D01*
X177472425Y-88160500D01*
X177460703Y-88178975D01*
X177452667Y-88207831D01*
X177447690Y-88252870D01*
X177445144Y-88319895D01*
X177444401Y-88414711D01*
X177444400Y-88419580D01*
X177445882Y-88530052D01*
X177450390Y-88607899D01*
X177458014Y-88654232D01*
X177464720Y-88668013D01*
X177491998Y-88679247D01*
X177540683Y-88686626D01*
X177580629Y-88688333D01*
X177643199Y-88685092D01*
X177682872Y-88673485D01*
X177706961Y-88654362D01*
X177733788Y-88629292D01*
X177743764Y-88632745D01*
X177737355Y-88665335D01*
X177730687Y-88685587D01*
X177712020Y-88739133D01*
X177507853Y-88739133D01*
X177422344Y-88738891D01*
X177365894Y-88737604D01*
X177333694Y-88734425D01*
X177320937Y-88728509D01*
X177322813Y-88719011D01*
X177331709Y-88708166D01*
X177343083Y-88690372D01*
X177350995Y-88662635D01*
X177356018Y-88619351D01*
X177358728Y-88554913D01*
X177359696Y-88463715D01*
X177359733Y-88434333D01*
X177359130Y-88335099D01*
X177356939Y-88264111D01*
X177352585Y-88215763D01*
X177345495Y-88184450D01*
X177335095Y-88164565D01*
X177331709Y-88160500D01*
X177318158Y-88143216D01*
X177321336Y-88133958D01*
X177346914Y-88130229D01*
X177400563Y-88129533D01*
X177402067Y-88129533D01*
X177456381Y-88130191D01*
G36*
X174033330Y-88129651D02*
X174120301Y-88130258D01*
X174181270Y-88131731D01*
X174220169Y-88134450D01*
X174240931Y-88138793D01*
X174247488Y-88145139D01*
X174243772Y-88153865D01*
X174238158Y-88160500D01*
X174220687Y-88193505D01*
X174211872Y-88247942D01*
X174210134Y-88304433D01*
X174210134Y-88417400D01*
X174531867Y-88417400D01*
X174531867Y-88293786D01*
X174529046Y-88223664D01*
X174521325Y-88172595D01*
X174511547Y-88149853D01*
X174506679Y-88137804D01*
X174525925Y-88131496D01*
X174573910Y-88129543D01*
X174579280Y-88129533D01*
X174628676Y-88132468D01*
X174660625Y-88140001D01*
X174667334Y-88146466D01*
X174654448Y-88162907D01*
X174650400Y-88163399D01*
X174643369Y-88179173D01*
X174638142Y-88221956D01*
X174634678Y-88284942D01*
X174632936Y-88361322D01*
X174632873Y-88444292D01*
X174634449Y-88527042D01*
X174637622Y-88602767D01*
X174642350Y-88664660D01*
X174648592Y-88705913D01*
X174653787Y-88718813D01*
X174658494Y-88730709D01*
X174639300Y-88737034D01*
X174591591Y-88739107D01*
X174582667Y-88739133D01*
X174530733Y-88737535D01*
X174507940Y-88731864D01*
X174509675Y-88720802D01*
X174511547Y-88718813D01*
X174522610Y-88690590D01*
X174529736Y-88636497D01*
X174531867Y-88574879D01*
X174531867Y-88451266D01*
X174210134Y-88451266D01*
X174210134Y-88564233D01*
X174213532Y-88638412D01*
X174224621Y-88686199D01*
X174238158Y-88708166D01*
X174251709Y-88725450D01*
X174248531Y-88734708D01*
X174222953Y-88738437D01*
X174169304Y-88739133D01*
X174167800Y-88739133D01*
X174113486Y-88738475D01*
X174087364Y-88734837D01*
X174083763Y-88725724D01*
X174097014Y-88708639D01*
X174097442Y-88708166D01*
X174108649Y-88690692D01*
X174116499Y-88663477D01*
X174121541Y-88621011D01*
X174124323Y-88557784D01*
X174125394Y-88468286D01*
X174125467Y-88426693D01*
X174125121Y-88329787D01*
X174123759Y-88262330D01*
X174120892Y-88219909D01*
X174116031Y-88198110D01*
X174108688Y-88192519D01*
X174100067Y-88197266D01*
X174079026Y-88208601D01*
X174074667Y-88199340D01*
X174058541Y-88187840D01*
X174012833Y-88181427D01*
X173973067Y-88180333D01*
X173871467Y-88180333D01*
X173871467Y-88428766D01*
X173872045Y-88529146D01*
X173874150Y-88601209D01*
X173878337Y-88650491D01*
X173885161Y-88682525D01*
X173895178Y-88702849D01*
X173899491Y-88708166D01*
X173912965Y-88725335D01*
X173909881Y-88734537D01*
X173884574Y-88738165D01*
X173831383Y-88738614D01*
X173827525Y-88738594D01*
X173773367Y-88737380D01*
X173748052Y-88733403D01*
X173746572Y-88725023D01*
X173757167Y-88715561D01*
X173768701Y-88703115D01*
X173776835Y-88682577D01*
X173782139Y-88648571D01*
X173785185Y-88595722D01*
X173786544Y-88518653D01*
X173786800Y-88436699D01*
X173786800Y-88180333D01*
X173697054Y-88180333D01*
X173642381Y-88183964D01*
X173600582Y-88193253D01*
X173586987Y-88200653D01*
X173572280Y-88208445D01*
X173566935Y-88188134D01*
X173566667Y-88175253D01*
X173566667Y-88129533D01*
X173916425Y-88129533D01*
X174033330Y-88129651D01*
X174033330Y-88129651D01*
G37*
X174033330Y-88129651D02*
X174120301Y-88130258D01*
X174181270Y-88131731D01*
X174220169Y-88134450D01*
X174240931Y-88138793D01*
X174247488Y-88145139D01*
X174243772Y-88153865D01*
X174238158Y-88160500D01*
X174220687Y-88193505D01*
X174211872Y-88247942D01*
X174210134Y-88304433D01*
X174210134Y-88417400D01*
X174531867Y-88417400D01*
X174531867Y-88293786D01*
X174529046Y-88223664D01*
X174521325Y-88172595D01*
X174511547Y-88149853D01*
X174506679Y-88137804D01*
X174525925Y-88131496D01*
X174573910Y-88129543D01*
X174579280Y-88129533D01*
X174628676Y-88132468D01*
X174660625Y-88140001D01*
X174667334Y-88146466D01*
X174654448Y-88162907D01*
X174650400Y-88163399D01*
X174643369Y-88179173D01*
X174638142Y-88221956D01*
X174634678Y-88284942D01*
X174632936Y-88361322D01*
X174632873Y-88444292D01*
X174634449Y-88527042D01*
X174637622Y-88602767D01*
X174642350Y-88664660D01*
X174648592Y-88705913D01*
X174653787Y-88718813D01*
X174658494Y-88730709D01*
X174639300Y-88737034D01*
X174591591Y-88739107D01*
X174582667Y-88739133D01*
X174530733Y-88737535D01*
X174507940Y-88731864D01*
X174509675Y-88720802D01*
X174511547Y-88718813D01*
X174522610Y-88690590D01*
X174529736Y-88636497D01*
X174531867Y-88574879D01*
X174531867Y-88451266D01*
X174210134Y-88451266D01*
X174210134Y-88564233D01*
X174213532Y-88638412D01*
X174224621Y-88686199D01*
X174238158Y-88708166D01*
X174251709Y-88725450D01*
X174248531Y-88734708D01*
X174222953Y-88738437D01*
X174169304Y-88739133D01*
X174167800Y-88739133D01*
X174113486Y-88738475D01*
X174087364Y-88734837D01*
X174083763Y-88725724D01*
X174097014Y-88708639D01*
X174097442Y-88708166D01*
X174108649Y-88690692D01*
X174116499Y-88663477D01*
X174121541Y-88621011D01*
X174124323Y-88557784D01*
X174125394Y-88468286D01*
X174125467Y-88426693D01*
X174125121Y-88329787D01*
X174123759Y-88262330D01*
X174120892Y-88219909D01*
X174116031Y-88198110D01*
X174108688Y-88192519D01*
X174100067Y-88197266D01*
X174079026Y-88208601D01*
X174074667Y-88199340D01*
X174058541Y-88187840D01*
X174012833Y-88181427D01*
X173973067Y-88180333D01*
X173871467Y-88180333D01*
X173871467Y-88428766D01*
X173872045Y-88529146D01*
X173874150Y-88601209D01*
X173878337Y-88650491D01*
X173885161Y-88682525D01*
X173895178Y-88702849D01*
X173899491Y-88708166D01*
X173912965Y-88725335D01*
X173909881Y-88734537D01*
X173884574Y-88738165D01*
X173831383Y-88738614D01*
X173827525Y-88738594D01*
X173773367Y-88737380D01*
X173748052Y-88733403D01*
X173746572Y-88725023D01*
X173757167Y-88715561D01*
X173768701Y-88703115D01*
X173776835Y-88682577D01*
X173782139Y-88648571D01*
X173785185Y-88595722D01*
X173786544Y-88518653D01*
X173786800Y-88436699D01*
X173786800Y-88180333D01*
X173697054Y-88180333D01*
X173642381Y-88183964D01*
X173600582Y-88193253D01*
X173586987Y-88200653D01*
X173572280Y-88208445D01*
X173566935Y-88188134D01*
X173566667Y-88175253D01*
X173566667Y-88129533D01*
X173916425Y-88129533D01*
X174033330Y-88129651D01*
G36*
X173370491Y-88135988D02*
X173448048Y-88155380D01*
X173494548Y-88187750D01*
X173505348Y-88206491D01*
X173517815Y-88274109D01*
X173509217Y-88343685D01*
X173481808Y-88400981D01*
X173472974Y-88411032D01*
X173430081Y-88453925D01*
X173465268Y-88510858D01*
X173495861Y-88551304D01*
X173542215Y-88602570D01*
X173594192Y-88653462D01*
X173640795Y-88696824D01*
X173664666Y-88722420D01*
X173668470Y-88734890D01*
X173654871Y-88738873D01*
X173643391Y-88739133D01*
X173572535Y-88722755D01*
X173497474Y-88674680D01*
X173420252Y-88596495D01*
X173365001Y-88523233D01*
X173332858Y-88487688D01*
X173300784Y-88469024D01*
X173294580Y-88468200D01*
X173277307Y-88471724D01*
X173267434Y-88487108D01*
X173262956Y-88521568D01*
X173261868Y-88582319D01*
X173261867Y-88585891D01*
X173263635Y-88652029D01*
X173270090Y-88692284D01*
X173282955Y-88714511D01*
X173291500Y-88720843D01*
X173300583Y-88730601D01*
X173283781Y-88736176D01*
X173237576Y-88738458D01*
X173221142Y-88738618D01*
X173166248Y-88738261D01*
X173139551Y-88734864D01*
X173135389Y-88726029D01*
X173148097Y-88709361D01*
X173149176Y-88708166D01*
X173161821Y-88676836D01*
X173171151Y-88619702D01*
X173177143Y-88544669D01*
X173179772Y-88459640D01*
X173179014Y-88372519D01*
X173174844Y-88291209D01*
X173167238Y-88223614D01*
X173156821Y-88180333D01*
X173261867Y-88180333D01*
X173261867Y-88417400D01*
X173312667Y-88417400D01*
X173362387Y-88405917D01*
X173397334Y-88383533D01*
X173427245Y-88334008D01*
X173430903Y-88279854D01*
X173411752Y-88230144D01*
X173373236Y-88193949D01*
X173320173Y-88180333D01*
X173261867Y-88180333D01*
X173156821Y-88180333D01*
X173156172Y-88177638D01*
X173150840Y-88167167D01*
X173124480Y-88129533D01*
X173261748Y-88129533D01*
X173370491Y-88135988D01*
X173370491Y-88135988D01*
G37*
X173370491Y-88135988D02*
X173448048Y-88155380D01*
X173494548Y-88187750D01*
X173505348Y-88206491D01*
X173517815Y-88274109D01*
X173509217Y-88343685D01*
X173481808Y-88400981D01*
X173472974Y-88411032D01*
X173430081Y-88453925D01*
X173465268Y-88510858D01*
X173495861Y-88551304D01*
X173542215Y-88602570D01*
X173594192Y-88653462D01*
X173640795Y-88696824D01*
X173664666Y-88722420D01*
X173668470Y-88734890D01*
X173654871Y-88738873D01*
X173643391Y-88739133D01*
X173572535Y-88722755D01*
X173497474Y-88674680D01*
X173420252Y-88596495D01*
X173365001Y-88523233D01*
X173332858Y-88487688D01*
X173300784Y-88469024D01*
X173294580Y-88468200D01*
X173277307Y-88471724D01*
X173267434Y-88487108D01*
X173262956Y-88521568D01*
X173261868Y-88582319D01*
X173261867Y-88585891D01*
X173263635Y-88652029D01*
X173270090Y-88692284D01*
X173282955Y-88714511D01*
X173291500Y-88720843D01*
X173300583Y-88730601D01*
X173283781Y-88736176D01*
X173237576Y-88738458D01*
X173221142Y-88738618D01*
X173166248Y-88738261D01*
X173139551Y-88734864D01*
X173135389Y-88726029D01*
X173148097Y-88709361D01*
X173149176Y-88708166D01*
X173161821Y-88676836D01*
X173171151Y-88619702D01*
X173177143Y-88544669D01*
X173179772Y-88459640D01*
X173179014Y-88372519D01*
X173174844Y-88291209D01*
X173167238Y-88223614D01*
X173156821Y-88180333D01*
X173261867Y-88180333D01*
X173261867Y-88417400D01*
X173312667Y-88417400D01*
X173362387Y-88405917D01*
X173397334Y-88383533D01*
X173427245Y-88334008D01*
X173430903Y-88279854D01*
X173411752Y-88230144D01*
X173373236Y-88193949D01*
X173320173Y-88180333D01*
X173261867Y-88180333D01*
X173156821Y-88180333D01*
X173156172Y-88177638D01*
X173150840Y-88167167D01*
X173124480Y-88129533D01*
X173261748Y-88129533D01*
X173370491Y-88135988D01*
G36*
X169786955Y-88129751D02*
X169889000Y-88130543D01*
X169964118Y-88132113D01*
X170015782Y-88134666D01*
X170047459Y-88138404D01*
X170062619Y-88143534D01*
X170064733Y-88150260D01*
X170062593Y-88153576D01*
X170055295Y-88173004D01*
X170064084Y-88201288D01*
X170091689Y-88245600D01*
X170104442Y-88263642D01*
X170137292Y-88308325D01*
X170161589Y-88339428D01*
X170171357Y-88349666D01*
X170187484Y-88335669D01*
X170210857Y-88300545D01*
X170236106Y-88254601D01*
X170257862Y-88208139D01*
X170270757Y-88171465D01*
X170271650Y-88157173D01*
X170270288Y-88141104D01*
X170286594Y-88132845D01*
X170327289Y-88130121D01*
X170351755Y-88130071D01*
X170402579Y-88131217D01*
X170424608Y-88135285D01*
X170422904Y-88144414D01*
X170410432Y-88154861D01*
X170380843Y-88175786D01*
X170366924Y-88183955D01*
X170352532Y-88199413D01*
X170325080Y-88235780D01*
X170290110Y-88285661D01*
X170284659Y-88293704D01*
X170250802Y-88345213D01*
X170229940Y-88384583D01*
X170218927Y-88423139D01*
X170214618Y-88472201D01*
X170213867Y-88543094D01*
X170213867Y-88548550D01*
X170216294Y-88631523D01*
X170223220Y-88689738D01*
X170234115Y-88718740D01*
X170234187Y-88718813D01*
X170238894Y-88730709D01*
X170219700Y-88737034D01*
X170171991Y-88739107D01*
X170163067Y-88739133D01*
X170111133Y-88737535D01*
X170088340Y-88731864D01*
X170090075Y-88720802D01*
X170091947Y-88718813D01*
X170102960Y-88690279D01*
X170110003Y-88634320D01*
X170112267Y-88563687D01*
X170112267Y-88428881D01*
X170018731Y-88304607D01*
X169925194Y-88180333D01*
X169722800Y-88180333D01*
X169722800Y-88422098D01*
X169723584Y-88524242D01*
X169726278Y-88598027D01*
X169731401Y-88648929D01*
X169739470Y-88682428D01*
X169749160Y-88701498D01*
X169762566Y-88722577D01*
X169760934Y-88733758D01*
X169738327Y-88738104D01*
X169688809Y-88738676D01*
X169677194Y-88738618D01*
X169623809Y-88737004D01*
X169600678Y-88732280D01*
X169604256Y-88723530D01*
X169608500Y-88720843D01*
X169619892Y-88710813D01*
X169627964Y-88692665D01*
X169633270Y-88661186D01*
X169636364Y-88611162D01*
X169637800Y-88537380D01*
X169638133Y-88441958D01*
X169638133Y-88180333D01*
X169548387Y-88180333D01*
X169493715Y-88183964D01*
X169451915Y-88193253D01*
X169438320Y-88200653D01*
X169423030Y-88209140D01*
X169418093Y-88188583D01*
X169418000Y-88181646D01*
X169414679Y-88154955D01*
X169400486Y-88157268D01*
X169392600Y-88163399D01*
X169381231Y-88189678D01*
X169372805Y-88242186D01*
X169367306Y-88313414D01*
X169364718Y-88395855D01*
X169365023Y-88481999D01*
X169368206Y-88564339D01*
X169374249Y-88635366D01*
X169383137Y-88687573D01*
X169393810Y-88712523D01*
X169405614Y-88727431D01*
X169399188Y-88735429D01*
X169368965Y-88738623D01*
X169323452Y-88739133D01*
X169269652Y-88738461D01*
X169244038Y-88734748D01*
X169240935Y-88725442D01*
X169254509Y-88708166D01*
X169265883Y-88690372D01*
X169273795Y-88662635D01*
X169278818Y-88619351D01*
X169281528Y-88554913D01*
X169282496Y-88463715D01*
X169282533Y-88434333D01*
X169281930Y-88335099D01*
X169279739Y-88264111D01*
X169275385Y-88215763D01*
X169268295Y-88184450D01*
X169257895Y-88164565D01*
X169254509Y-88160500D01*
X169247179Y-88151013D01*
X169246898Y-88143691D01*
X169257280Y-88138254D01*
X169281940Y-88134421D01*
X169324492Y-88131914D01*
X169388551Y-88130452D01*
X169477731Y-88129755D01*
X169595647Y-88129544D01*
X169654516Y-88129533D01*
X169786955Y-88129751D01*
X169786955Y-88129751D01*
G37*
X169786955Y-88129751D02*
X169889000Y-88130543D01*
X169964118Y-88132113D01*
X170015782Y-88134666D01*
X170047459Y-88138404D01*
X170062619Y-88143534D01*
X170064733Y-88150260D01*
X170062593Y-88153576D01*
X170055295Y-88173004D01*
X170064084Y-88201288D01*
X170091689Y-88245600D01*
X170104442Y-88263642D01*
X170137292Y-88308325D01*
X170161589Y-88339428D01*
X170171357Y-88349666D01*
X170187484Y-88335669D01*
X170210857Y-88300545D01*
X170236106Y-88254601D01*
X170257862Y-88208139D01*
X170270757Y-88171465D01*
X170271650Y-88157173D01*
X170270288Y-88141104D01*
X170286594Y-88132845D01*
X170327289Y-88130121D01*
X170351755Y-88130071D01*
X170402579Y-88131217D01*
X170424608Y-88135285D01*
X170422904Y-88144414D01*
X170410432Y-88154861D01*
X170380843Y-88175786D01*
X170366924Y-88183955D01*
X170352532Y-88199413D01*
X170325080Y-88235780D01*
X170290110Y-88285661D01*
X170284659Y-88293704D01*
X170250802Y-88345213D01*
X170229940Y-88384583D01*
X170218927Y-88423139D01*
X170214618Y-88472201D01*
X170213867Y-88543094D01*
X170213867Y-88548550D01*
X170216294Y-88631523D01*
X170223220Y-88689738D01*
X170234115Y-88718740D01*
X170234187Y-88718813D01*
X170238894Y-88730709D01*
X170219700Y-88737034D01*
X170171991Y-88739107D01*
X170163067Y-88739133D01*
X170111133Y-88737535D01*
X170088340Y-88731864D01*
X170090075Y-88720802D01*
X170091947Y-88718813D01*
X170102960Y-88690279D01*
X170110003Y-88634320D01*
X170112267Y-88563687D01*
X170112267Y-88428881D01*
X170018731Y-88304607D01*
X169925194Y-88180333D01*
X169722800Y-88180333D01*
X169722800Y-88422098D01*
X169723584Y-88524242D01*
X169726278Y-88598027D01*
X169731401Y-88648929D01*
X169739470Y-88682428D01*
X169749160Y-88701498D01*
X169762566Y-88722577D01*
X169760934Y-88733758D01*
X169738327Y-88738104D01*
X169688809Y-88738676D01*
X169677194Y-88738618D01*
X169623809Y-88737004D01*
X169600678Y-88732280D01*
X169604256Y-88723530D01*
X169608500Y-88720843D01*
X169619892Y-88710813D01*
X169627964Y-88692665D01*
X169633270Y-88661186D01*
X169636364Y-88611162D01*
X169637800Y-88537380D01*
X169638133Y-88441958D01*
X169638133Y-88180333D01*
X169548387Y-88180333D01*
X169493715Y-88183964D01*
X169451915Y-88193253D01*
X169438320Y-88200653D01*
X169423030Y-88209140D01*
X169418093Y-88188583D01*
X169418000Y-88181646D01*
X169414679Y-88154955D01*
X169400486Y-88157268D01*
X169392600Y-88163399D01*
X169381231Y-88189678D01*
X169372805Y-88242186D01*
X169367306Y-88313414D01*
X169364718Y-88395855D01*
X169365023Y-88481999D01*
X169368206Y-88564339D01*
X169374249Y-88635366D01*
X169383137Y-88687573D01*
X169393810Y-88712523D01*
X169405614Y-88727431D01*
X169399188Y-88735429D01*
X169368965Y-88738623D01*
X169323452Y-88739133D01*
X169269652Y-88738461D01*
X169244038Y-88734748D01*
X169240935Y-88725442D01*
X169254509Y-88708166D01*
X169265883Y-88690372D01*
X169273795Y-88662635D01*
X169278818Y-88619351D01*
X169281528Y-88554913D01*
X169282496Y-88463715D01*
X169282533Y-88434333D01*
X169281930Y-88335099D01*
X169279739Y-88264111D01*
X169275385Y-88215763D01*
X169268295Y-88184450D01*
X169257895Y-88164565D01*
X169254509Y-88160500D01*
X169247179Y-88151013D01*
X169246898Y-88143691D01*
X169257280Y-88138254D01*
X169281940Y-88134421D01*
X169324492Y-88131914D01*
X169388551Y-88130452D01*
X169477731Y-88129755D01*
X169595647Y-88129544D01*
X169654516Y-88129533D01*
X169786955Y-88129751D01*
G36*
X178843775Y-88110831D02*
X178864096Y-88151839D01*
X178893057Y-88214388D01*
X178928416Y-88293639D01*
X178967934Y-88384750D01*
X178968167Y-88385294D01*
X179009534Y-88479402D01*
X179048900Y-88564314D01*
X179083497Y-88634407D01*
X179110557Y-88684062D01*
X179126591Y-88707027D01*
X179143679Y-88724294D01*
X179144484Y-88733781D01*
X179123766Y-88737653D01*
X179076285Y-88738070D01*
X179052026Y-88737796D01*
X179000170Y-88735963D01*
X178968588Y-88732434D01*
X178964039Y-88727970D01*
X178964167Y-88727918D01*
X178981915Y-88708384D01*
X178981578Y-88669041D01*
X178962823Y-88606477D01*
X178948912Y-88571342D01*
X178912490Y-88483702D01*
X178802529Y-88488651D01*
X178692569Y-88493600D01*
X178657285Y-88592600D01*
X178638551Y-88647310D01*
X178631325Y-88679390D01*
X178635238Y-88697925D01*
X178649924Y-88712001D01*
X178652371Y-88713807D01*
X178664966Y-88726128D01*
X178657631Y-88733783D01*
X178625390Y-88738653D01*
X178578374Y-88741806D01*
X178474007Y-88747599D01*
X178062467Y-88281113D01*
X178057580Y-88480490D01*
X178055895Y-88566062D01*
X178056415Y-88624387D01*
X178060046Y-88662061D01*
X178067697Y-88685679D01*
X178080275Y-88701836D01*
X178089090Y-88709499D01*
X178107969Y-88726269D01*
X178108236Y-88735104D01*
X178084863Y-88738545D01*
X178032822Y-88739133D01*
X178030476Y-88739133D01*
X177977051Y-88738642D01*
X177952181Y-88735210D01*
X177950553Y-88725892D01*
X177966854Y-88707747D01*
X177969333Y-88705266D01*
X177983171Y-88688388D01*
X177992658Y-88666193D01*
X177998597Y-88632503D01*
X178001792Y-88581138D01*
X178003046Y-88505918D01*
X178003200Y-88444675D01*
X178002592Y-88349748D01*
X178000288Y-88282475D01*
X177995569Y-88236659D01*
X177987718Y-88206100D01*
X177976014Y-88184603D01*
X177972516Y-88180058D01*
X177939405Y-88152975D01*
X177904782Y-88153923D01*
X177890888Y-88159629D01*
X177880987Y-88169931D01*
X177874406Y-88189955D01*
X177870466Y-88224823D01*
X177868492Y-88279661D01*
X177867808Y-88359592D01*
X177867733Y-88434633D01*
X177868100Y-88536980D01*
X177869556Y-88610603D01*
X177872631Y-88660636D01*
X177877858Y-88692216D01*
X177885769Y-88710481D01*
X177896895Y-88720565D01*
X177897367Y-88720843D01*
X177906605Y-88730652D01*
X177889950Y-88736223D01*
X177843860Y-88738473D01*
X177828673Y-88738618D01*
X177773948Y-88738385D01*
X177747153Y-88734903D01*
X177742349Y-88725110D01*
X177753599Y-88705945D01*
X177756707Y-88701498D01*
X177768028Y-88677771D01*
X177775762Y-88640820D01*
X177780465Y-88585033D01*
X177782688Y-88504799D01*
X177783067Y-88434333D01*
X177782198Y-88334516D01*
X177779223Y-88262917D01*
X177773587Y-88213926D01*
X177764737Y-88181930D01*
X177756707Y-88167167D01*
X177730346Y-88129533D01*
X178049481Y-88129533D01*
X178242240Y-88347545D01*
X178435000Y-88565557D01*
X178439901Y-88377178D01*
X178441593Y-88294285D01*
X178440876Y-88238387D01*
X178436761Y-88202640D01*
X178428259Y-88180203D01*
X178414382Y-88164233D01*
X178408392Y-88159166D01*
X178388887Y-88141882D01*
X178388957Y-88133100D01*
X178413564Y-88129943D01*
X178459484Y-88129533D01*
X178510170Y-88130187D01*
X178532984Y-88134608D01*
X178533923Y-88146488D01*
X178520627Y-88167167D01*
X178509991Y-88189097D01*
X178502509Y-88223096D01*
X178497710Y-88274464D01*
X178495122Y-88348502D01*
X178494274Y-88450509D01*
X178494267Y-88463501D01*
X178495002Y-88571336D01*
X178498008Y-88650275D01*
X178504487Y-88699933D01*
X178515642Y-88719924D01*
X178532675Y-88709861D01*
X178556787Y-88669360D01*
X178589180Y-88598034D01*
X178631057Y-88495498D01*
X178655111Y-88434333D01*
X178717509Y-88434333D01*
X178802433Y-88434333D01*
X178855098Y-88431655D01*
X178878134Y-88422908D01*
X178878937Y-88413166D01*
X178847743Y-88335986D01*
X178826126Y-88285900D01*
X178811897Y-88258244D01*
X178802865Y-88248356D01*
X178801462Y-88248100D01*
X178790005Y-88262551D01*
X178771369Y-88299999D01*
X178754055Y-88341233D01*
X178717509Y-88434333D01*
X178655111Y-88434333D01*
X178665217Y-88408638D01*
X178710499Y-88295555D01*
X178747150Y-88211367D01*
X178776970Y-88152751D01*
X178801758Y-88116381D01*
X178823314Y-88098934D01*
X178834335Y-88096205D01*
X178843775Y-88110831D01*
X178843775Y-88110831D01*
G37*
X178843775Y-88110831D02*
X178864096Y-88151839D01*
X178893057Y-88214388D01*
X178928416Y-88293639D01*
X178967934Y-88384750D01*
X178968167Y-88385294D01*
X179009534Y-88479402D01*
X179048900Y-88564314D01*
X179083497Y-88634407D01*
X179110557Y-88684062D01*
X179126591Y-88707027D01*
X179143679Y-88724294D01*
X179144484Y-88733781D01*
X179123766Y-88737653D01*
X179076285Y-88738070D01*
X179052026Y-88737796D01*
X179000170Y-88735963D01*
X178968588Y-88732434D01*
X178964039Y-88727970D01*
X178964167Y-88727918D01*
X178981915Y-88708384D01*
X178981578Y-88669041D01*
X178962823Y-88606477D01*
X178948912Y-88571342D01*
X178912490Y-88483702D01*
X178802529Y-88488651D01*
X178692569Y-88493600D01*
X178657285Y-88592600D01*
X178638551Y-88647310D01*
X178631325Y-88679390D01*
X178635238Y-88697925D01*
X178649924Y-88712001D01*
X178652371Y-88713807D01*
X178664966Y-88726128D01*
X178657631Y-88733783D01*
X178625390Y-88738653D01*
X178578374Y-88741806D01*
X178474007Y-88747599D01*
X178062467Y-88281113D01*
X178057580Y-88480490D01*
X178055895Y-88566062D01*
X178056415Y-88624387D01*
X178060046Y-88662061D01*
X178067697Y-88685679D01*
X178080275Y-88701836D01*
X178089090Y-88709499D01*
X178107969Y-88726269D01*
X178108236Y-88735104D01*
X178084863Y-88738545D01*
X178032822Y-88739133D01*
X178030476Y-88739133D01*
X177977051Y-88738642D01*
X177952181Y-88735210D01*
X177950553Y-88725892D01*
X177966854Y-88707747D01*
X177969333Y-88705266D01*
X177983171Y-88688388D01*
X177992658Y-88666193D01*
X177998597Y-88632503D01*
X178001792Y-88581138D01*
X178003046Y-88505918D01*
X178003200Y-88444675D01*
X178002592Y-88349748D01*
X178000288Y-88282475D01*
X177995569Y-88236659D01*
X177987718Y-88206100D01*
X177976014Y-88184603D01*
X177972516Y-88180058D01*
X177939405Y-88152975D01*
X177904782Y-88153923D01*
X177890888Y-88159629D01*
X177880987Y-88169931D01*
X177874406Y-88189955D01*
X177870466Y-88224823D01*
X177868492Y-88279661D01*
X177867808Y-88359592D01*
X177867733Y-88434633D01*
X177868100Y-88536980D01*
X177869556Y-88610603D01*
X177872631Y-88660636D01*
X177877858Y-88692216D01*
X177885769Y-88710481D01*
X177896895Y-88720565D01*
X177897367Y-88720843D01*
X177906605Y-88730652D01*
X177889950Y-88736223D01*
X177843860Y-88738473D01*
X177828673Y-88738618D01*
X177773948Y-88738385D01*
X177747153Y-88734903D01*
X177742349Y-88725110D01*
X177753599Y-88705945D01*
X177756707Y-88701498D01*
X177768028Y-88677771D01*
X177775762Y-88640820D01*
X177780465Y-88585033D01*
X177782688Y-88504799D01*
X177783067Y-88434333D01*
X177782198Y-88334516D01*
X177779223Y-88262917D01*
X177773587Y-88213926D01*
X177764737Y-88181930D01*
X177756707Y-88167167D01*
X177730346Y-88129533D01*
X178049481Y-88129533D01*
X178242240Y-88347545D01*
X178435000Y-88565557D01*
X178439901Y-88377178D01*
X178441593Y-88294285D01*
X178440876Y-88238387D01*
X178436761Y-88202640D01*
X178428259Y-88180203D01*
X178414382Y-88164233D01*
X178408392Y-88159166D01*
X178388887Y-88141882D01*
X178388957Y-88133100D01*
X178413564Y-88129943D01*
X178459484Y-88129533D01*
X178510170Y-88130187D01*
X178532984Y-88134608D01*
X178533923Y-88146488D01*
X178520627Y-88167167D01*
X178509991Y-88189097D01*
X178502509Y-88223096D01*
X178497710Y-88274464D01*
X178495122Y-88348502D01*
X178494274Y-88450509D01*
X178494267Y-88463501D01*
X178495002Y-88571336D01*
X178498008Y-88650275D01*
X178504487Y-88699933D01*
X178515642Y-88719924D01*
X178532675Y-88709861D01*
X178556787Y-88669360D01*
X178589180Y-88598034D01*
X178631057Y-88495498D01*
X178655111Y-88434333D01*
X178717509Y-88434333D01*
X178802433Y-88434333D01*
X178855098Y-88431655D01*
X178878134Y-88422908D01*
X178878937Y-88413166D01*
X178847743Y-88335986D01*
X178826126Y-88285900D01*
X178811897Y-88258244D01*
X178802865Y-88248356D01*
X178801462Y-88248100D01*
X178790005Y-88262551D01*
X178771369Y-88299999D01*
X178754055Y-88341233D01*
X178717509Y-88434333D01*
X178655111Y-88434333D01*
X178665217Y-88408638D01*
X178710499Y-88295555D01*
X178747150Y-88211367D01*
X178776970Y-88152751D01*
X178801758Y-88116381D01*
X178823314Y-88098934D01*
X178834335Y-88096205D01*
X178843775Y-88110831D01*
G36*
X177070655Y-88133243D02*
X177161469Y-88157066D01*
X177234932Y-88205903D01*
X177288318Y-88274223D01*
X177318904Y-88356496D01*
X177323965Y-88447190D01*
X177300778Y-88540775D01*
X177286452Y-88571369D01*
X177229279Y-88646359D01*
X177151037Y-88703185D01*
X177060432Y-88738074D01*
X176966170Y-88747252D01*
X176904559Y-88736921D01*
X176811544Y-88695099D01*
X176745190Y-88632425D01*
X176705839Y-88549359D01*
X176693776Y-88453168D01*
X176698538Y-88409883D01*
X176772392Y-88409883D01*
X176783529Y-88493254D01*
X176817761Y-88565721D01*
X176871339Y-88627526D01*
X176939656Y-88668980D01*
X177014465Y-88687893D01*
X177087522Y-88682073D01*
X177146122Y-88652971D01*
X177202977Y-88588577D01*
X177235119Y-88509513D01*
X177241037Y-88424822D01*
X177219219Y-88343545D01*
X177202697Y-88314473D01*
X177139714Y-88243426D01*
X177068286Y-88199158D01*
X176993920Y-88181567D01*
X176922122Y-88190551D01*
X176858398Y-88226006D01*
X176808256Y-88287832D01*
X176792393Y-88322102D01*
X176772392Y-88409883D01*
X176698538Y-88409883D01*
X176704416Y-88356468D01*
X176739198Y-88277282D01*
X176802716Y-88205466D01*
X176808173Y-88200615D01*
X176878220Y-88154953D01*
X176960874Y-88132890D01*
X177063348Y-88132575D01*
X177070655Y-88133243D01*
X177070655Y-88133243D01*
G37*
X177070655Y-88133243D02*
X177161469Y-88157066D01*
X177234932Y-88205903D01*
X177288318Y-88274223D01*
X177318904Y-88356496D01*
X177323965Y-88447190D01*
X177300778Y-88540775D01*
X177286452Y-88571369D01*
X177229279Y-88646359D01*
X177151037Y-88703185D01*
X177060432Y-88738074D01*
X176966170Y-88747252D01*
X176904559Y-88736921D01*
X176811544Y-88695099D01*
X176745190Y-88632425D01*
X176705839Y-88549359D01*
X176693776Y-88453168D01*
X176698538Y-88409883D01*
X176772392Y-88409883D01*
X176783529Y-88493254D01*
X176817761Y-88565721D01*
X176871339Y-88627526D01*
X176939656Y-88668980D01*
X177014465Y-88687893D01*
X177087522Y-88682073D01*
X177146122Y-88652971D01*
X177202977Y-88588577D01*
X177235119Y-88509513D01*
X177241037Y-88424822D01*
X177219219Y-88343545D01*
X177202697Y-88314473D01*
X177139714Y-88243426D01*
X177068286Y-88199158D01*
X176993920Y-88181567D01*
X176922122Y-88190551D01*
X176858398Y-88226006D01*
X176808256Y-88287832D01*
X176792393Y-88322102D01*
X176772392Y-88409883D01*
X176698538Y-88409883D01*
X176704416Y-88356468D01*
X176739198Y-88277282D01*
X176802716Y-88205466D01*
X176808173Y-88200615D01*
X176878220Y-88154953D01*
X176960874Y-88132890D01*
X177063348Y-88132575D01*
X177070655Y-88133243D01*
G36*
X175510833Y-87940383D02*
X175555094Y-87950764D01*
X175613116Y-87967519D01*
X175646136Y-87982168D01*
X175662038Y-88000698D01*
X175668704Y-88029093D01*
X175669780Y-88037823D01*
X175671541Y-88081103D01*
X175661319Y-88093010D01*
X175636637Y-88074676D01*
X175622458Y-88059462D01*
X175556182Y-88008822D01*
X175474916Y-87982745D01*
X175386048Y-87980374D01*
X175296969Y-88000854D01*
X175215068Y-88043329D01*
X175147734Y-88106943D01*
X175141559Y-88115159D01*
X175087851Y-88214732D01*
X175065527Y-88318108D01*
X175074167Y-88420262D01*
X175113352Y-88516170D01*
X175182055Y-88600250D01*
X175274229Y-88665301D01*
X175372959Y-88697238D01*
X175476981Y-88695900D01*
X175585030Y-88661124D01*
X175599973Y-88653800D01*
X175632833Y-88635520D01*
X175659378Y-88615033D01*
X175682830Y-88587101D01*
X175706413Y-88546484D01*
X175733346Y-88487944D01*
X175755333Y-88434333D01*
X175819294Y-88434333D01*
X175905125Y-88434333D01*
X175952522Y-88432094D01*
X175981113Y-88426353D01*
X175985311Y-88421554D01*
X175976235Y-88399532D01*
X175959300Y-88357435D01*
X175947733Y-88328420D01*
X175926953Y-88282713D01*
X175908694Y-88253607D01*
X175901166Y-88248066D01*
X175886649Y-88254920D01*
X175886533Y-88255906D01*
X175880824Y-88274748D01*
X175866142Y-88314844D01*
X175852914Y-88349039D01*
X175819294Y-88434333D01*
X175755333Y-88434333D01*
X175766854Y-88406242D01*
X175793024Y-88339920D01*
X175829806Y-88251232D01*
X175863194Y-88180508D01*
X175890642Y-88132791D01*
X175906908Y-88114380D01*
X175934715Y-88100104D01*
X175945490Y-88098726D01*
X175953323Y-88115288D01*
X175972162Y-88158069D01*
X175999853Y-88222082D01*
X176034237Y-88302343D01*
X176072367Y-88392000D01*
X176122619Y-88508266D01*
X176162883Y-88595638D01*
X176194867Y-88657004D01*
X176220277Y-88695252D01*
X176240820Y-88713271D01*
X176258204Y-88713949D01*
X176261561Y-88712191D01*
X176266469Y-88693058D01*
X176270661Y-88646002D01*
X176273830Y-88576962D01*
X176275666Y-88491880D01*
X176276000Y-88434175D01*
X176275634Y-88331797D01*
X176274180Y-88258147D01*
X176271107Y-88208088D01*
X176266520Y-88180333D01*
X176360667Y-88180333D01*
X176360667Y-88419444D01*
X176422485Y-88414188D01*
X176481842Y-88397171D01*
X176517824Y-88363840D01*
X176541542Y-88308724D01*
X176536158Y-88255308D01*
X176505884Y-88211393D01*
X176454932Y-88184776D01*
X176418724Y-88180333D01*
X176360667Y-88180333D01*
X176266520Y-88180333D01*
X176265884Y-88176487D01*
X176257980Y-88158207D01*
X176246863Y-88148115D01*
X176246367Y-88147823D01*
X176241370Y-88139412D01*
X176262503Y-88133896D01*
X176312515Y-88130894D01*
X176374669Y-88130048D01*
X176449336Y-88130353D01*
X176498683Y-88133200D01*
X176531254Y-88140608D01*
X176555593Y-88154593D01*
X176580242Y-88177173D01*
X176582103Y-88179030D01*
X176623420Y-88240916D01*
X176633700Y-88308181D01*
X176612923Y-88373727D01*
X176582699Y-88412102D01*
X176533799Y-88459733D01*
X176593502Y-88535933D01*
X176642927Y-88593876D01*
X176699266Y-88652784D01*
X176722836Y-88675128D01*
X176760929Y-88710818D01*
X176775717Y-88729827D01*
X176769733Y-88737368D01*
X176753692Y-88738628D01*
X176685880Y-88723917D01*
X176614092Y-88680799D01*
X176544122Y-88613294D01*
X176510266Y-88569727D01*
X176464962Y-88510804D01*
X176429761Y-88478333D01*
X176400182Y-88468203D01*
X176399667Y-88468200D01*
X176377700Y-88470953D01*
X176366018Y-88484579D01*
X176361413Y-88517124D01*
X176360667Y-88566032D01*
X176366333Y-88640517D01*
X176382142Y-88693365D01*
X176387027Y-88701498D01*
X176413387Y-88739133D01*
X176234484Y-88739133D01*
X176155362Y-88738799D01*
X176104821Y-88737099D01*
X176077578Y-88732989D01*
X176068348Y-88725423D01*
X176071847Y-88713355D01*
X176075255Y-88707628D01*
X176084018Y-88682613D01*
X176079938Y-88648448D01*
X176061558Y-88595845D01*
X176055349Y-88580628D01*
X176015768Y-88485133D01*
X175908398Y-88485133D01*
X175849354Y-88486207D01*
X175815088Y-88491598D01*
X175796529Y-88504557D01*
X175784607Y-88528333D01*
X175784093Y-88529678D01*
X175734924Y-88618390D01*
X175665563Y-88684144D01*
X175625113Y-88706548D01*
X175551381Y-88729377D01*
X175460455Y-88743764D01*
X175367365Y-88748347D01*
X175287141Y-88741763D01*
X175272150Y-88738541D01*
X175161204Y-88695097D01*
X175072044Y-88628105D01*
X175007223Y-88541669D01*
X174969293Y-88439895D01*
X174960806Y-88326888D01*
X174971148Y-88254320D01*
X175011425Y-88144468D01*
X175076373Y-88055131D01*
X175162390Y-87988181D01*
X175265874Y-87945492D01*
X175383222Y-87928935D01*
X175510833Y-87940383D01*
X175510833Y-87940383D01*
G37*
X175510833Y-87940383D02*
X175555094Y-87950764D01*
X175613116Y-87967519D01*
X175646136Y-87982168D01*
X175662038Y-88000698D01*
X175668704Y-88029093D01*
X175669780Y-88037823D01*
X175671541Y-88081103D01*
X175661319Y-88093010D01*
X175636637Y-88074676D01*
X175622458Y-88059462D01*
X175556182Y-88008822D01*
X175474916Y-87982745D01*
X175386048Y-87980374D01*
X175296969Y-88000854D01*
X175215068Y-88043329D01*
X175147734Y-88106943D01*
X175141559Y-88115159D01*
X175087851Y-88214732D01*
X175065527Y-88318108D01*
X175074167Y-88420262D01*
X175113352Y-88516170D01*
X175182055Y-88600250D01*
X175274229Y-88665301D01*
X175372959Y-88697238D01*
X175476981Y-88695900D01*
X175585030Y-88661124D01*
X175599973Y-88653800D01*
X175632833Y-88635520D01*
X175659378Y-88615033D01*
X175682830Y-88587101D01*
X175706413Y-88546484D01*
X175733346Y-88487944D01*
X175755333Y-88434333D01*
X175819294Y-88434333D01*
X175905125Y-88434333D01*
X175952522Y-88432094D01*
X175981113Y-88426353D01*
X175985311Y-88421554D01*
X175976235Y-88399532D01*
X175959300Y-88357435D01*
X175947733Y-88328420D01*
X175926953Y-88282713D01*
X175908694Y-88253607D01*
X175901166Y-88248066D01*
X175886649Y-88254920D01*
X175886533Y-88255906D01*
X175880824Y-88274748D01*
X175866142Y-88314844D01*
X175852914Y-88349039D01*
X175819294Y-88434333D01*
X175755333Y-88434333D01*
X175766854Y-88406242D01*
X175793024Y-88339920D01*
X175829806Y-88251232D01*
X175863194Y-88180508D01*
X175890642Y-88132791D01*
X175906908Y-88114380D01*
X175934715Y-88100104D01*
X175945490Y-88098726D01*
X175953323Y-88115288D01*
X175972162Y-88158069D01*
X175999853Y-88222082D01*
X176034237Y-88302343D01*
X176072367Y-88392000D01*
X176122619Y-88508266D01*
X176162883Y-88595638D01*
X176194867Y-88657004D01*
X176220277Y-88695252D01*
X176240820Y-88713271D01*
X176258204Y-88713949D01*
X176261561Y-88712191D01*
X176266469Y-88693058D01*
X176270661Y-88646002D01*
X176273830Y-88576962D01*
X176275666Y-88491880D01*
X176276000Y-88434175D01*
X176275634Y-88331797D01*
X176274180Y-88258147D01*
X176271107Y-88208088D01*
X176266520Y-88180333D01*
X176360667Y-88180333D01*
X176360667Y-88419444D01*
X176422485Y-88414188D01*
X176481842Y-88397171D01*
X176517824Y-88363840D01*
X176541542Y-88308724D01*
X176536158Y-88255308D01*
X176505884Y-88211393D01*
X176454932Y-88184776D01*
X176418724Y-88180333D01*
X176360667Y-88180333D01*
X176266520Y-88180333D01*
X176265884Y-88176487D01*
X176257980Y-88158207D01*
X176246863Y-88148115D01*
X176246367Y-88147823D01*
X176241370Y-88139412D01*
X176262503Y-88133896D01*
X176312515Y-88130894D01*
X176374669Y-88130048D01*
X176449336Y-88130353D01*
X176498683Y-88133200D01*
X176531254Y-88140608D01*
X176555593Y-88154593D01*
X176580242Y-88177173D01*
X176582103Y-88179030D01*
X176623420Y-88240916D01*
X176633700Y-88308181D01*
X176612923Y-88373727D01*
X176582699Y-88412102D01*
X176533799Y-88459733D01*
X176593502Y-88535933D01*
X176642927Y-88593876D01*
X176699266Y-88652784D01*
X176722836Y-88675128D01*
X176760929Y-88710818D01*
X176775717Y-88729827D01*
X176769733Y-88737368D01*
X176753692Y-88738628D01*
X176685880Y-88723917D01*
X176614092Y-88680799D01*
X176544122Y-88613294D01*
X176510266Y-88569727D01*
X176464962Y-88510804D01*
X176429761Y-88478333D01*
X176400182Y-88468203D01*
X176399667Y-88468200D01*
X176377700Y-88470953D01*
X176366018Y-88484579D01*
X176361413Y-88517124D01*
X176360667Y-88566032D01*
X176366333Y-88640517D01*
X176382142Y-88693365D01*
X176387027Y-88701498D01*
X176413387Y-88739133D01*
X176234484Y-88739133D01*
X176155362Y-88738799D01*
X176104821Y-88737099D01*
X176077578Y-88732989D01*
X176068348Y-88725423D01*
X176071847Y-88713355D01*
X176075255Y-88707628D01*
X176084018Y-88682613D01*
X176079938Y-88648448D01*
X176061558Y-88595845D01*
X176055349Y-88580628D01*
X176015768Y-88485133D01*
X175908398Y-88485133D01*
X175849354Y-88486207D01*
X175815088Y-88491598D01*
X175796529Y-88504557D01*
X175784607Y-88528333D01*
X175784093Y-88529678D01*
X175734924Y-88618390D01*
X175665563Y-88684144D01*
X175625113Y-88706548D01*
X175551381Y-88729377D01*
X175460455Y-88743764D01*
X175367365Y-88748347D01*
X175287141Y-88741763D01*
X175272150Y-88738541D01*
X175161204Y-88695097D01*
X175072044Y-88628105D01*
X175007223Y-88541669D01*
X174969293Y-88439895D01*
X174960806Y-88326888D01*
X174971148Y-88254320D01*
X175011425Y-88144468D01*
X175076373Y-88055131D01*
X175162390Y-87988181D01*
X175265874Y-87945492D01*
X175383222Y-87928935D01*
X175510833Y-87940383D01*
G36*
X172837202Y-88132715D02*
X172935772Y-88152770D01*
X173011888Y-88197688D01*
X173067200Y-88268540D01*
X173077201Y-88288724D01*
X173104567Y-88386904D01*
X173099038Y-88484592D01*
X173061388Y-88577634D01*
X173011202Y-88643278D01*
X172930101Y-88705967D01*
X172835514Y-88741595D01*
X172735711Y-88747647D01*
X172692309Y-88740300D01*
X172604729Y-88703449D01*
X172538044Y-88644601D01*
X172493736Y-88569509D01*
X172473287Y-88483926D01*
X172477598Y-88404311D01*
X172551469Y-88404311D01*
X172561665Y-88487591D01*
X172598678Y-88566496D01*
X172661301Y-88634619D01*
X172693098Y-88657319D01*
X172763280Y-88683579D01*
X172840118Y-88684095D01*
X172912017Y-88660339D01*
X172959387Y-88623524D01*
X173006357Y-88547552D01*
X173023700Y-88462953D01*
X173011756Y-88376869D01*
X172970869Y-88296445D01*
X172942126Y-88263007D01*
X172867974Y-88207629D01*
X172790047Y-88182872D01*
X172713258Y-88188930D01*
X172642521Y-88225994D01*
X172616361Y-88250249D01*
X172569299Y-88323061D01*
X172551469Y-88404311D01*
X172477598Y-88404311D01*
X172478178Y-88393605D01*
X172509891Y-88304299D01*
X172561162Y-88231118D01*
X172628953Y-88172579D01*
X172706434Y-88140143D01*
X172801268Y-88131078D01*
X172837202Y-88132715D01*
X172837202Y-88132715D01*
G37*
X172837202Y-88132715D02*
X172935772Y-88152770D01*
X173011888Y-88197688D01*
X173067200Y-88268540D01*
X173077201Y-88288724D01*
X173104567Y-88386904D01*
X173099038Y-88484592D01*
X173061388Y-88577634D01*
X173011202Y-88643278D01*
X172930101Y-88705967D01*
X172835514Y-88741595D01*
X172735711Y-88747647D01*
X172692309Y-88740300D01*
X172604729Y-88703449D01*
X172538044Y-88644601D01*
X172493736Y-88569509D01*
X172473287Y-88483926D01*
X172477598Y-88404311D01*
X172551469Y-88404311D01*
X172561665Y-88487591D01*
X172598678Y-88566496D01*
X172661301Y-88634619D01*
X172693098Y-88657319D01*
X172763280Y-88683579D01*
X172840118Y-88684095D01*
X172912017Y-88660339D01*
X172959387Y-88623524D01*
X173006357Y-88547552D01*
X173023700Y-88462953D01*
X173011756Y-88376869D01*
X172970869Y-88296445D01*
X172942126Y-88263007D01*
X172867974Y-88207629D01*
X172790047Y-88182872D01*
X172713258Y-88188930D01*
X172642521Y-88225994D01*
X172616361Y-88250249D01*
X172569299Y-88323061D01*
X172551469Y-88404311D01*
X172477598Y-88404311D01*
X172478178Y-88393605D01*
X172509891Y-88304299D01*
X172561162Y-88231118D01*
X172628953Y-88172579D01*
X172706434Y-88140143D01*
X172801268Y-88131078D01*
X172837202Y-88132715D01*
G36*
X172076777Y-88239916D02*
X172339000Y-88536565D01*
X172343694Y-88278727D01*
X172344791Y-88187420D01*
X172344693Y-88107296D01*
X172343489Y-88044849D01*
X172341270Y-88006574D01*
X172339836Y-87998604D01*
X172318574Y-87975320D01*
X172292809Y-87960866D01*
X172280717Y-87952714D01*
X172295786Y-87947811D01*
X172340708Y-87945639D01*
X172372867Y-87945413D01*
X172432833Y-87946516D01*
X172461544Y-87950148D01*
X172461550Y-87956796D01*
X172453300Y-87960727D01*
X172441137Y-87966356D01*
X172431884Y-87975010D01*
X172425144Y-87990926D01*
X172420519Y-88018337D01*
X172417610Y-88061479D01*
X172416020Y-88124587D01*
X172415350Y-88211896D01*
X172415202Y-88327640D01*
X172415200Y-88366054D01*
X172414675Y-88476842D01*
X172413201Y-88575321D01*
X172410932Y-88656780D01*
X172408022Y-88716512D01*
X172404625Y-88749806D01*
X172402500Y-88755149D01*
X172388267Y-88742739D01*
X172354796Y-88708280D01*
X172305215Y-88655156D01*
X172242649Y-88586751D01*
X172170226Y-88506448D01*
X172101934Y-88429879D01*
X171814067Y-88105527D01*
X171809220Y-88367297D01*
X171807528Y-88480247D01*
X171807702Y-88564200D01*
X171810447Y-88624008D01*
X171816470Y-88664518D01*
X171826474Y-88690583D01*
X171841166Y-88707051D01*
X171860265Y-88718302D01*
X171875675Y-88728118D01*
X171868755Y-88733978D01*
X171835426Y-88736950D01*
X171785203Y-88737987D01*
X171671673Y-88739133D01*
X171713237Y-88697569D01*
X171728425Y-88681283D01*
X171739374Y-88663859D01*
X171746777Y-88639830D01*
X171751328Y-88603731D01*
X171753720Y-88550094D01*
X171754646Y-88473453D01*
X171754800Y-88369896D01*
X171753769Y-88243737D01*
X171750107Y-88147150D01*
X171742963Y-88075884D01*
X171731482Y-88025692D01*
X171714813Y-87992324D01*
X171692103Y-87971532D01*
X171673049Y-87962508D01*
X171651566Y-87953148D01*
X171654336Y-87947892D01*
X171684995Y-87945389D01*
X171721177Y-87944603D01*
X171814554Y-87943266D01*
X172076777Y-88239916D01*
X172076777Y-88239916D01*
G37*
X172076777Y-88239916D02*
X172339000Y-88536565D01*
X172343694Y-88278727D01*
X172344791Y-88187420D01*
X172344693Y-88107296D01*
X172343489Y-88044849D01*
X172341270Y-88006574D01*
X172339836Y-87998604D01*
X172318574Y-87975320D01*
X172292809Y-87960866D01*
X172280717Y-87952714D01*
X172295786Y-87947811D01*
X172340708Y-87945639D01*
X172372867Y-87945413D01*
X172432833Y-87946516D01*
X172461544Y-87950148D01*
X172461550Y-87956796D01*
X172453300Y-87960727D01*
X172441137Y-87966356D01*
X172431884Y-87975010D01*
X172425144Y-87990926D01*
X172420519Y-88018337D01*
X172417610Y-88061479D01*
X172416020Y-88124587D01*
X172415350Y-88211896D01*
X172415202Y-88327640D01*
X172415200Y-88366054D01*
X172414675Y-88476842D01*
X172413201Y-88575321D01*
X172410932Y-88656780D01*
X172408022Y-88716512D01*
X172404625Y-88749806D01*
X172402500Y-88755149D01*
X172388267Y-88742739D01*
X172354796Y-88708280D01*
X172305215Y-88655156D01*
X172242649Y-88586751D01*
X172170226Y-88506448D01*
X172101934Y-88429879D01*
X171814067Y-88105527D01*
X171809220Y-88367297D01*
X171807528Y-88480247D01*
X171807702Y-88564200D01*
X171810447Y-88624008D01*
X171816470Y-88664518D01*
X171826474Y-88690583D01*
X171841166Y-88707051D01*
X171860265Y-88718302D01*
X171875675Y-88728118D01*
X171868755Y-88733978D01*
X171835426Y-88736950D01*
X171785203Y-88737987D01*
X171671673Y-88739133D01*
X171713237Y-88697569D01*
X171728425Y-88681283D01*
X171739374Y-88663859D01*
X171746777Y-88639830D01*
X171751328Y-88603731D01*
X171753720Y-88550094D01*
X171754646Y-88473453D01*
X171754800Y-88369896D01*
X171753769Y-88243737D01*
X171750107Y-88147150D01*
X171742963Y-88075884D01*
X171731482Y-88025692D01*
X171714813Y-87992324D01*
X171692103Y-87971532D01*
X171673049Y-87962508D01*
X171651566Y-87953148D01*
X171654336Y-87947892D01*
X171684995Y-87945389D01*
X171721177Y-87944603D01*
X171814554Y-87943266D01*
X172076777Y-88239916D01*
G36*
X169152090Y-88137781D02*
X169196835Y-88164112D01*
X169219520Y-88209966D01*
X169219650Y-88241414D01*
X169204752Y-88245908D01*
X169186008Y-88225138D01*
X169154979Y-88195235D01*
X169109273Y-88171309D01*
X169073190Y-88163400D01*
X169034939Y-88178279D01*
X169005379Y-88214777D01*
X168994667Y-88257020D01*
X169011384Y-88300464D01*
X169057434Y-88344711D01*
X169144143Y-88414457D01*
X169203061Y-88472914D01*
X169236960Y-88523384D01*
X169248612Y-88569169D01*
X169248667Y-88572506D01*
X169233339Y-88645092D01*
X169188763Y-88701867D01*
X169136931Y-88732455D01*
X169097246Y-88747563D01*
X169064762Y-88753269D01*
X169027190Y-88749540D01*
X168972240Y-88736340D01*
X168955785Y-88731943D01*
X168877149Y-88699056D01*
X168804879Y-88642402D01*
X168733525Y-88557527D01*
X168721229Y-88540166D01*
X168683005Y-88494483D01*
X168648682Y-88470348D01*
X168638253Y-88468200D01*
X168620658Y-88471699D01*
X168610682Y-88487066D01*
X168606228Y-88521600D01*
X168605200Y-88582604D01*
X168605200Y-88583346D01*
X168608171Y-88649118D01*
X168616160Y-88697908D01*
X168625520Y-88718813D01*
X168630228Y-88730709D01*
X168611034Y-88737034D01*
X168563324Y-88739107D01*
X168554400Y-88739133D01*
X168502466Y-88737535D01*
X168479673Y-88731864D01*
X168481408Y-88720802D01*
X168483280Y-88718813D01*
X168490547Y-88695868D01*
X168496329Y-88647564D01*
X168500585Y-88580707D01*
X168503273Y-88502104D01*
X168504350Y-88418563D01*
X168503777Y-88336890D01*
X168501511Y-88263893D01*
X168497512Y-88206377D01*
X168493242Y-88180333D01*
X168605200Y-88180333D01*
X168605200Y-88417400D01*
X168655341Y-88417400D01*
X168709815Y-88402949D01*
X168740007Y-88380340D01*
X168769280Y-88328459D01*
X168770960Y-88273769D01*
X168748733Y-88225046D01*
X168706285Y-88191068D01*
X168656000Y-88180333D01*
X168605200Y-88180333D01*
X168493242Y-88180333D01*
X168491736Y-88171151D01*
X168486667Y-88163399D01*
X168470226Y-88150514D01*
X168469734Y-88146466D01*
X168485587Y-88138099D01*
X168528914Y-88132213D01*
X168593363Y-88129596D01*
X168606313Y-88129533D01*
X168706630Y-88134330D01*
X168778123Y-88150427D01*
X168824690Y-88180387D01*
X168850225Y-88226769D01*
X168858625Y-88292135D01*
X168858662Y-88295403D01*
X168852372Y-88354422D01*
X168828506Y-88397875D01*
X168816867Y-88410472D01*
X168788568Y-88442342D01*
X168774791Y-88464871D01*
X168774533Y-88466657D01*
X168785337Y-88484607D01*
X168814122Y-88520396D01*
X168855454Y-88567402D01*
X168871900Y-88585302D01*
X168946968Y-88656338D01*
X169011778Y-88696104D01*
X169067794Y-88705102D01*
X169116482Y-88683836D01*
X169128227Y-88673306D01*
X169159661Y-88627560D01*
X169160346Y-88581445D01*
X169129566Y-88531941D01*
X169084706Y-88490209D01*
X169017593Y-88434862D01*
X168972776Y-88394224D01*
X168945784Y-88362257D01*
X168932144Y-88332924D01*
X168927386Y-88300186D01*
X168926933Y-88277188D01*
X168938556Y-88205626D01*
X168973939Y-88157957D01*
X169033860Y-88133440D01*
X169081422Y-88129533D01*
X169152090Y-88137781D01*
X169152090Y-88137781D01*
G37*
X169152090Y-88137781D02*
X169196835Y-88164112D01*
X169219520Y-88209966D01*
X169219650Y-88241414D01*
X169204752Y-88245908D01*
X169186008Y-88225138D01*
X169154979Y-88195235D01*
X169109273Y-88171309D01*
X169073190Y-88163400D01*
X169034939Y-88178279D01*
X169005379Y-88214777D01*
X168994667Y-88257020D01*
X169011384Y-88300464D01*
X169057434Y-88344711D01*
X169144143Y-88414457D01*
X169203061Y-88472914D01*
X169236960Y-88523384D01*
X169248612Y-88569169D01*
X169248667Y-88572506D01*
X169233339Y-88645092D01*
X169188763Y-88701867D01*
X169136931Y-88732455D01*
X169097246Y-88747563D01*
X169064762Y-88753269D01*
X169027190Y-88749540D01*
X168972240Y-88736340D01*
X168955785Y-88731943D01*
X168877149Y-88699056D01*
X168804879Y-88642402D01*
X168733525Y-88557527D01*
X168721229Y-88540166D01*
X168683005Y-88494483D01*
X168648682Y-88470348D01*
X168638253Y-88468200D01*
X168620658Y-88471699D01*
X168610682Y-88487066D01*
X168606228Y-88521600D01*
X168605200Y-88582604D01*
X168605200Y-88583346D01*
X168608171Y-88649118D01*
X168616160Y-88697908D01*
X168625520Y-88718813D01*
X168630228Y-88730709D01*
X168611034Y-88737034D01*
X168563324Y-88739107D01*
X168554400Y-88739133D01*
X168502466Y-88737535D01*
X168479673Y-88731864D01*
X168481408Y-88720802D01*
X168483280Y-88718813D01*
X168490547Y-88695868D01*
X168496329Y-88647564D01*
X168500585Y-88580707D01*
X168503273Y-88502104D01*
X168504350Y-88418563D01*
X168503777Y-88336890D01*
X168501511Y-88263893D01*
X168497512Y-88206377D01*
X168493242Y-88180333D01*
X168605200Y-88180333D01*
X168605200Y-88417400D01*
X168655341Y-88417400D01*
X168709815Y-88402949D01*
X168740007Y-88380340D01*
X168769280Y-88328459D01*
X168770960Y-88273769D01*
X168748733Y-88225046D01*
X168706285Y-88191068D01*
X168656000Y-88180333D01*
X168605200Y-88180333D01*
X168493242Y-88180333D01*
X168491736Y-88171151D01*
X168486667Y-88163399D01*
X168470226Y-88150514D01*
X168469734Y-88146466D01*
X168485587Y-88138099D01*
X168528914Y-88132213D01*
X168593363Y-88129596D01*
X168606313Y-88129533D01*
X168706630Y-88134330D01*
X168778123Y-88150427D01*
X168824690Y-88180387D01*
X168850225Y-88226769D01*
X168858625Y-88292135D01*
X168858662Y-88295403D01*
X168852372Y-88354422D01*
X168828506Y-88397875D01*
X168816867Y-88410472D01*
X168788568Y-88442342D01*
X168774791Y-88464871D01*
X168774533Y-88466657D01*
X168785337Y-88484607D01*
X168814122Y-88520396D01*
X168855454Y-88567402D01*
X168871900Y-88585302D01*
X168946968Y-88656338D01*
X169011778Y-88696104D01*
X169067794Y-88705102D01*
X169116482Y-88683836D01*
X169128227Y-88673306D01*
X169159661Y-88627560D01*
X169160346Y-88581445D01*
X169129566Y-88531941D01*
X169084706Y-88490209D01*
X169017593Y-88434862D01*
X168972776Y-88394224D01*
X168945784Y-88362257D01*
X168932144Y-88332924D01*
X168927386Y-88300186D01*
X168926933Y-88277188D01*
X168938556Y-88205626D01*
X168973939Y-88157957D01*
X169033860Y-88133440D01*
X169081422Y-88129533D01*
X169152090Y-88137781D01*
G36*
X166697787Y-88130512D02*
X166720756Y-88135824D01*
X166744887Y-88149029D01*
X166774516Y-88173689D01*
X166813978Y-88213365D01*
X166867609Y-88271616D01*
X166932164Y-88343529D01*
X167123534Y-88557526D01*
X167128340Y-88366982D01*
X167129846Y-88282428D01*
X167128787Y-88225234D01*
X167124395Y-88188941D01*
X167115901Y-88167089D01*
X167102940Y-88153524D01*
X167095805Y-88144954D01*
X167103071Y-88138750D01*
X167128674Y-88134536D01*
X167176553Y-88131933D01*
X167250645Y-88130567D01*
X167348044Y-88130071D01*
X167450091Y-88130086D01*
X167522731Y-88130931D01*
X167570422Y-88133111D01*
X167597620Y-88137133D01*
X167608785Y-88143502D01*
X167608374Y-88152725D01*
X167604817Y-88159215D01*
X167599508Y-88178114D01*
X167603789Y-88207739D01*
X167619334Y-88253339D01*
X167647815Y-88320167D01*
X167674927Y-88379349D01*
X167709468Y-88451890D01*
X167739420Y-88511687D01*
X167761734Y-88552872D01*
X167773362Y-88569574D01*
X167773754Y-88569676D01*
X167783756Y-88554924D01*
X167803572Y-88514800D01*
X167830376Y-88455349D01*
X167861343Y-88382621D01*
X167862771Y-88379176D01*
X167895729Y-88298384D01*
X167916600Y-88242675D01*
X167926809Y-88206075D01*
X167927777Y-88182612D01*
X167920928Y-88166313D01*
X167915180Y-88159166D01*
X167907018Y-88148003D01*
X167908566Y-88140059D01*
X167924211Y-88134789D01*
X167958343Y-88131647D01*
X168015350Y-88130090D01*
X168099622Y-88129572D01*
X168153842Y-88129533D01*
X168418934Y-88129533D01*
X168418395Y-88184566D01*
X168416543Y-88219825D01*
X168409326Y-88225659D01*
X168395362Y-88209966D01*
X168370036Y-88191145D01*
X168325557Y-88182038D01*
X168277367Y-88180333D01*
X168181867Y-88180333D01*
X168181867Y-88417400D01*
X168265122Y-88417400D01*
X168321015Y-88413158D01*
X168352195Y-88401454D01*
X168355937Y-88396233D01*
X168366813Y-88378956D01*
X168374264Y-88387512D01*
X168375745Y-88413878D01*
X168370770Y-88442972D01*
X168357978Y-88473910D01*
X168345400Y-88472487D01*
X168344931Y-88471754D01*
X168321583Y-88459330D01*
X168277610Y-88452054D01*
X168256294Y-88451266D01*
X168180319Y-88451266D01*
X168185326Y-88565566D01*
X168190334Y-88679866D01*
X168290168Y-88685018D01*
X168346920Y-88684955D01*
X168390531Y-88679464D01*
X168407855Y-88672318D01*
X168435561Y-88655144D01*
X168449788Y-88668318D01*
X168449745Y-88692566D01*
X168445876Y-88708709D01*
X168435832Y-88719692D01*
X168413805Y-88726717D01*
X168373988Y-88730983D01*
X168310574Y-88733691D01*
X168242232Y-88735464D01*
X168157226Y-88737259D01*
X168101254Y-88737348D01*
X168069498Y-88734989D01*
X168057137Y-88729440D01*
X168059353Y-88719958D01*
X168068665Y-88708731D01*
X168080133Y-88691171D01*
X168088137Y-88664345D01*
X168093253Y-88622636D01*
X168096058Y-88560426D01*
X168097128Y-88472099D01*
X168097200Y-88430840D01*
X168096357Y-88326593D01*
X168093586Y-88251934D01*
X168088520Y-88202620D01*
X168080795Y-88174406D01*
X168074371Y-88165533D01*
X168058350Y-88157680D01*
X168041400Y-88163102D01*
X168021604Y-88184951D01*
X167997048Y-88226379D01*
X167965816Y-88290537D01*
X167925992Y-88380577D01*
X167885275Y-88476666D01*
X167847909Y-88565382D01*
X167814977Y-88642703D01*
X167788722Y-88703430D01*
X167771389Y-88742367D01*
X167765398Y-88754398D01*
X167756364Y-88742180D01*
X167735138Y-88704091D01*
X167704164Y-88644801D01*
X167665885Y-88568981D01*
X167625752Y-88487481D01*
X167569554Y-88373551D01*
X167525065Y-88287345D01*
X167490190Y-88225662D01*
X167462830Y-88185301D01*
X167440889Y-88163061D01*
X167422270Y-88155741D01*
X167409809Y-88157886D01*
X167400510Y-88167833D01*
X167393868Y-88192390D01*
X167389499Y-88236010D01*
X167387022Y-88303149D01*
X167386054Y-88398260D01*
X167386000Y-88435303D01*
X167386369Y-88537510D01*
X167387830Y-88610999D01*
X167390917Y-88660912D01*
X167396165Y-88692393D01*
X167404107Y-88710586D01*
X167415277Y-88720634D01*
X167415634Y-88720843D01*
X167424872Y-88730652D01*
X167408217Y-88736223D01*
X167362127Y-88738473D01*
X167346940Y-88738618D01*
X167292215Y-88738385D01*
X167265419Y-88734903D01*
X167260615Y-88725110D01*
X167271866Y-88705945D01*
X167274973Y-88701498D01*
X167286280Y-88677809D01*
X167294010Y-88640920D01*
X167298715Y-88585227D01*
X167300947Y-88505122D01*
X167301334Y-88433802D01*
X167299836Y-88323302D01*
X167294759Y-88243189D01*
X167285224Y-88190093D01*
X167270353Y-88160640D01*
X167249267Y-88151460D01*
X167228920Y-88155823D01*
X167218291Y-88162972D01*
X167210579Y-88178212D01*
X167205328Y-88206322D01*
X167202080Y-88252083D01*
X167200381Y-88320274D01*
X167199773Y-88415675D01*
X167199734Y-88461545D01*
X167199043Y-88557143D01*
X167197126Y-88639763D01*
X167194218Y-88703973D01*
X167190553Y-88744344D01*
X167187034Y-88755860D01*
X167172247Y-88743682D01*
X167139142Y-88710037D01*
X167091580Y-88659054D01*
X167033421Y-88594857D01*
X166979917Y-88534550D01*
X166914967Y-88461051D01*
X166856683Y-88395783D01*
X166809179Y-88343299D01*
X166776571Y-88308153D01*
X166764017Y-88295616D01*
X166754615Y-88294154D01*
X166748285Y-88311053D01*
X166744516Y-88350578D01*
X166742796Y-88416993D01*
X166742534Y-88474593D01*
X166743144Y-88560933D01*
X166745640Y-88620191D01*
X166751014Y-88659140D01*
X166760262Y-88684554D01*
X166774377Y-88703206D01*
X166776400Y-88705266D01*
X166794788Y-88725089D01*
X166794765Y-88735114D01*
X166771062Y-88738681D01*
X166722976Y-88739133D01*
X166672806Y-88738355D01*
X166650803Y-88734038D01*
X166651271Y-88723205D01*
X166663709Y-88708166D01*
X166675177Y-88690190D01*
X166683122Y-88662156D01*
X166688135Y-88618405D01*
X166690802Y-88553278D01*
X166691711Y-88461115D01*
X166691734Y-88438462D01*
X166691558Y-88344237D01*
X166690382Y-88277901D01*
X166687230Y-88233475D01*
X166681131Y-88204980D01*
X166671108Y-88186439D01*
X166656188Y-88171873D01*
X166647117Y-88164629D01*
X166602500Y-88129533D01*
X166671647Y-88129533D01*
X166697787Y-88130512D01*
X166697787Y-88130512D01*
G37*
X166697787Y-88130512D02*
X166720756Y-88135824D01*
X166744887Y-88149029D01*
X166774516Y-88173689D01*
X166813978Y-88213365D01*
X166867609Y-88271616D01*
X166932164Y-88343529D01*
X167123534Y-88557526D01*
X167128340Y-88366982D01*
X167129846Y-88282428D01*
X167128787Y-88225234D01*
X167124395Y-88188941D01*
X167115901Y-88167089D01*
X167102940Y-88153524D01*
X167095805Y-88144954D01*
X167103071Y-88138750D01*
X167128674Y-88134536D01*
X167176553Y-88131933D01*
X167250645Y-88130567D01*
X167348044Y-88130071D01*
X167450091Y-88130086D01*
X167522731Y-88130931D01*
X167570422Y-88133111D01*
X167597620Y-88137133D01*
X167608785Y-88143502D01*
X167608374Y-88152725D01*
X167604817Y-88159215D01*
X167599508Y-88178114D01*
X167603789Y-88207739D01*
X167619334Y-88253339D01*
X167647815Y-88320167D01*
X167674927Y-88379349D01*
X167709468Y-88451890D01*
X167739420Y-88511687D01*
X167761734Y-88552872D01*
X167773362Y-88569574D01*
X167773754Y-88569676D01*
X167783756Y-88554924D01*
X167803572Y-88514800D01*
X167830376Y-88455349D01*
X167861343Y-88382621D01*
X167862771Y-88379176D01*
X167895729Y-88298384D01*
X167916600Y-88242675D01*
X167926809Y-88206075D01*
X167927777Y-88182612D01*
X167920928Y-88166313D01*
X167915180Y-88159166D01*
X167907018Y-88148003D01*
X167908566Y-88140059D01*
X167924211Y-88134789D01*
X167958343Y-88131647D01*
X168015350Y-88130090D01*
X168099622Y-88129572D01*
X168153842Y-88129533D01*
X168418934Y-88129533D01*
X168418395Y-88184566D01*
X168416543Y-88219825D01*
X168409326Y-88225659D01*
X168395362Y-88209966D01*
X168370036Y-88191145D01*
X168325557Y-88182038D01*
X168277367Y-88180333D01*
X168181867Y-88180333D01*
X168181867Y-88417400D01*
X168265122Y-88417400D01*
X168321015Y-88413158D01*
X168352195Y-88401454D01*
X168355937Y-88396233D01*
X168366813Y-88378956D01*
X168374264Y-88387512D01*
X168375745Y-88413878D01*
X168370770Y-88442972D01*
X168357978Y-88473910D01*
X168345400Y-88472487D01*
X168344931Y-88471754D01*
X168321583Y-88459330D01*
X168277610Y-88452054D01*
X168256294Y-88451266D01*
X168180319Y-88451266D01*
X168185326Y-88565566D01*
X168190334Y-88679866D01*
X168290168Y-88685018D01*
X168346920Y-88684955D01*
X168390531Y-88679464D01*
X168407855Y-88672318D01*
X168435561Y-88655144D01*
X168449788Y-88668318D01*
X168449745Y-88692566D01*
X168445876Y-88708709D01*
X168435832Y-88719692D01*
X168413805Y-88726717D01*
X168373988Y-88730983D01*
X168310574Y-88733691D01*
X168242232Y-88735464D01*
X168157226Y-88737259D01*
X168101254Y-88737348D01*
X168069498Y-88734989D01*
X168057137Y-88729440D01*
X168059353Y-88719958D01*
X168068665Y-88708731D01*
X168080133Y-88691171D01*
X168088137Y-88664345D01*
X168093253Y-88622636D01*
X168096058Y-88560426D01*
X168097128Y-88472099D01*
X168097200Y-88430840D01*
X168096357Y-88326593D01*
X168093586Y-88251934D01*
X168088520Y-88202620D01*
X168080795Y-88174406D01*
X168074371Y-88165533D01*
X168058350Y-88157680D01*
X168041400Y-88163102D01*
X168021604Y-88184951D01*
X167997048Y-88226379D01*
X167965816Y-88290537D01*
X167925992Y-88380577D01*
X167885275Y-88476666D01*
X167847909Y-88565382D01*
X167814977Y-88642703D01*
X167788722Y-88703430D01*
X167771389Y-88742367D01*
X167765398Y-88754398D01*
X167756364Y-88742180D01*
X167735138Y-88704091D01*
X167704164Y-88644801D01*
X167665885Y-88568981D01*
X167625752Y-88487481D01*
X167569554Y-88373551D01*
X167525065Y-88287345D01*
X167490190Y-88225662D01*
X167462830Y-88185301D01*
X167440889Y-88163061D01*
X167422270Y-88155741D01*
X167409809Y-88157886D01*
X167400510Y-88167833D01*
X167393868Y-88192390D01*
X167389499Y-88236010D01*
X167387022Y-88303149D01*
X167386054Y-88398260D01*
X167386000Y-88435303D01*
X167386369Y-88537510D01*
X167387830Y-88610999D01*
X167390917Y-88660912D01*
X167396165Y-88692393D01*
X167404107Y-88710586D01*
X167415277Y-88720634D01*
X167415634Y-88720843D01*
X167424872Y-88730652D01*
X167408217Y-88736223D01*
X167362127Y-88738473D01*
X167346940Y-88738618D01*
X167292215Y-88738385D01*
X167265419Y-88734903D01*
X167260615Y-88725110D01*
X167271866Y-88705945D01*
X167274973Y-88701498D01*
X167286280Y-88677809D01*
X167294010Y-88640920D01*
X167298715Y-88585227D01*
X167300947Y-88505122D01*
X167301334Y-88433802D01*
X167299836Y-88323302D01*
X167294759Y-88243189D01*
X167285224Y-88190093D01*
X167270353Y-88160640D01*
X167249267Y-88151460D01*
X167228920Y-88155823D01*
X167218291Y-88162972D01*
X167210579Y-88178212D01*
X167205328Y-88206322D01*
X167202080Y-88252083D01*
X167200381Y-88320274D01*
X167199773Y-88415675D01*
X167199734Y-88461545D01*
X167199043Y-88557143D01*
X167197126Y-88639763D01*
X167194218Y-88703973D01*
X167190553Y-88744344D01*
X167187034Y-88755860D01*
X167172247Y-88743682D01*
X167139142Y-88710037D01*
X167091580Y-88659054D01*
X167033421Y-88594857D01*
X166979917Y-88534550D01*
X166914967Y-88461051D01*
X166856683Y-88395783D01*
X166809179Y-88343299D01*
X166776571Y-88308153D01*
X166764017Y-88295616D01*
X166754615Y-88294154D01*
X166748285Y-88311053D01*
X166744516Y-88350578D01*
X166742796Y-88416993D01*
X166742534Y-88474593D01*
X166743144Y-88560933D01*
X166745640Y-88620191D01*
X166751014Y-88659140D01*
X166760262Y-88684554D01*
X166774377Y-88703206D01*
X166776400Y-88705266D01*
X166794788Y-88725089D01*
X166794765Y-88735114D01*
X166771062Y-88738681D01*
X166722976Y-88739133D01*
X166672806Y-88738355D01*
X166650803Y-88734038D01*
X166651271Y-88723205D01*
X166663709Y-88708166D01*
X166675177Y-88690190D01*
X166683122Y-88662156D01*
X166688135Y-88618405D01*
X166690802Y-88553278D01*
X166691711Y-88461115D01*
X166691734Y-88438462D01*
X166691558Y-88344237D01*
X166690382Y-88277901D01*
X166687230Y-88233475D01*
X166681131Y-88204980D01*
X166671108Y-88186439D01*
X166656188Y-88171873D01*
X166647117Y-88164629D01*
X166602500Y-88129533D01*
X166671647Y-88129533D01*
X166697787Y-88130512D01*
G36*
X166048312Y-87944171D02*
X166079729Y-87946931D01*
X166087213Y-87953443D01*
X166075725Y-87965088D01*
X166072670Y-87967365D01*
X166060061Y-87979180D01*
X166051163Y-87996748D01*
X166045353Y-88025524D01*
X166042006Y-88070962D01*
X166040500Y-88138518D01*
X166040209Y-88233646D01*
X166040233Y-88250998D01*
X166041739Y-88369223D01*
X166046826Y-88459012D01*
X166057018Y-88525735D01*
X166073837Y-88574760D01*
X166098808Y-88611456D01*
X166133454Y-88641191D01*
X166154922Y-88655152D01*
X166228843Y-88682498D01*
X166312815Y-88686382D01*
X166392530Y-88666868D01*
X166417719Y-88653951D01*
X166462050Y-88620160D01*
X166494656Y-88577241D01*
X166516909Y-88520230D01*
X166530185Y-88444161D01*
X166535856Y-88344070D01*
X166535570Y-88228105D01*
X166533536Y-88133259D01*
X166531079Y-88066632D01*
X166527188Y-88022583D01*
X166520854Y-87995468D01*
X166511069Y-87979645D01*
X166496822Y-87969473D01*
X166488534Y-87965158D01*
X166469894Y-87954126D01*
X166471383Y-87947815D01*
X166497325Y-87945074D01*
X166552045Y-87944749D01*
X166564734Y-87944853D01*
X166618790Y-87946513D01*
X166652458Y-87949899D01*
X166659458Y-87954323D01*
X166657867Y-87955018D01*
X166632805Y-87967509D01*
X166614717Y-87987687D01*
X166602505Y-88020607D01*
X166595072Y-88071326D01*
X166591321Y-88144900D01*
X166590154Y-88246385D01*
X166590134Y-88267134D01*
X166588930Y-88359681D01*
X166585625Y-88443620D01*
X166580672Y-88511448D01*
X166574529Y-88555663D01*
X166572072Y-88564464D01*
X166529870Y-88635775D01*
X166466495Y-88695726D01*
X166436148Y-88714407D01*
X166378441Y-88733875D01*
X166303722Y-88745611D01*
X166228300Y-88747944D01*
X166175267Y-88741144D01*
X166096323Y-88711964D01*
X166036108Y-88666090D01*
X166006704Y-88631581D01*
X165976596Y-88580392D01*
X165954654Y-88514074D01*
X165940070Y-88427963D01*
X165932036Y-88317393D01*
X165929733Y-88187330D01*
X165929161Y-88098341D01*
X165926926Y-88037314D01*
X165922257Y-87998353D01*
X165914379Y-87975565D01*
X165902519Y-87963056D01*
X165900100Y-87961556D01*
X165892495Y-87952284D01*
X165910769Y-87946693D01*
X165958188Y-87944121D01*
X165988003Y-87943781D01*
X166048312Y-87944171D01*
X166048312Y-87944171D01*
G37*
X166048312Y-87944171D02*
X166079729Y-87946931D01*
X166087213Y-87953443D01*
X166075725Y-87965088D01*
X166072670Y-87967365D01*
X166060061Y-87979180D01*
X166051163Y-87996748D01*
X166045353Y-88025524D01*
X166042006Y-88070962D01*
X166040500Y-88138518D01*
X166040209Y-88233646D01*
X166040233Y-88250998D01*
X166041739Y-88369223D01*
X166046826Y-88459012D01*
X166057018Y-88525735D01*
X166073837Y-88574760D01*
X166098808Y-88611456D01*
X166133454Y-88641191D01*
X166154922Y-88655152D01*
X166228843Y-88682498D01*
X166312815Y-88686382D01*
X166392530Y-88666868D01*
X166417719Y-88653951D01*
X166462050Y-88620160D01*
X166494656Y-88577241D01*
X166516909Y-88520230D01*
X166530185Y-88444161D01*
X166535856Y-88344070D01*
X166535570Y-88228105D01*
X166533536Y-88133259D01*
X166531079Y-88066632D01*
X166527188Y-88022583D01*
X166520854Y-87995468D01*
X166511069Y-87979645D01*
X166496822Y-87969473D01*
X166488534Y-87965158D01*
X166469894Y-87954126D01*
X166471383Y-87947815D01*
X166497325Y-87945074D01*
X166552045Y-87944749D01*
X166564734Y-87944853D01*
X166618790Y-87946513D01*
X166652458Y-87949899D01*
X166659458Y-87954323D01*
X166657867Y-87955018D01*
X166632805Y-87967509D01*
X166614717Y-87987687D01*
X166602505Y-88020607D01*
X166595072Y-88071326D01*
X166591321Y-88144900D01*
X166590154Y-88246385D01*
X166590134Y-88267134D01*
X166588930Y-88359681D01*
X166585625Y-88443620D01*
X166580672Y-88511448D01*
X166574529Y-88555663D01*
X166572072Y-88564464D01*
X166529870Y-88635775D01*
X166466495Y-88695726D01*
X166436148Y-88714407D01*
X166378441Y-88733875D01*
X166303722Y-88745611D01*
X166228300Y-88747944D01*
X166175267Y-88741144D01*
X166096323Y-88711964D01*
X166036108Y-88666090D01*
X166006704Y-88631581D01*
X165976596Y-88580392D01*
X165954654Y-88514074D01*
X165940070Y-88427963D01*
X165932036Y-88317393D01*
X165929733Y-88187330D01*
X165929161Y-88098341D01*
X165926926Y-88037314D01*
X165922257Y-87998353D01*
X165914379Y-87975565D01*
X165902519Y-87963056D01*
X165900100Y-87961556D01*
X165892495Y-87952284D01*
X165910769Y-87946693D01*
X165958188Y-87944121D01*
X165988003Y-87943781D01*
X166048312Y-87944171D01*
G36*
X171432359Y-87956899D02*
X171439297Y-87959349D01*
X171474221Y-87987751D01*
X171484686Y-88029135D01*
X171467978Y-88070521D01*
X171463547Y-88075346D01*
X171434766Y-88094339D01*
X171418216Y-88085253D01*
X171416134Y-88071476D01*
X171404979Y-88040911D01*
X171388588Y-88019740D01*
X171367181Y-88003022D01*
X171347328Y-88007353D01*
X171321028Y-88029786D01*
X171298014Y-88060681D01*
X171270149Y-88110374D01*
X171242987Y-88167183D01*
X171222082Y-88219425D01*
X171212985Y-88255421D01*
X171212934Y-88257168D01*
X171227865Y-88262299D01*
X171264681Y-88264914D01*
X171273611Y-88265000D01*
X171315565Y-88270745D01*
X171328232Y-88284148D01*
X171313425Y-88299460D01*
X171272958Y-88310932D01*
X171258611Y-88312563D01*
X171225803Y-88316828D01*
X171204607Y-88327728D01*
X171189040Y-88352738D01*
X171173117Y-88399332D01*
X171163726Y-88431097D01*
X171143168Y-88502791D01*
X171123341Y-88574138D01*
X171110924Y-88620599D01*
X171072136Y-88740363D01*
X171026043Y-88828477D01*
X170973060Y-88884509D01*
X170913601Y-88908028D01*
X170848082Y-88898604D01*
X170844634Y-88897252D01*
X170826435Y-88874998D01*
X170826054Y-88842082D01*
X170842695Y-88816131D01*
X170848432Y-88813157D01*
X170878714Y-88816388D01*
X170901651Y-88831831D01*
X170921551Y-88846442D01*
X170939553Y-88845347D01*
X170957315Y-88825362D01*
X170976495Y-88783302D01*
X170998750Y-88715981D01*
X171025737Y-88620215D01*
X171040258Y-88565499D01*
X171105724Y-88315800D01*
X171066195Y-88315800D01*
X171034258Y-88306444D01*
X171026667Y-88290400D01*
X171041681Y-88270155D01*
X171074786Y-88265000D01*
X171106817Y-88260508D01*
X171126637Y-88241051D01*
X171143076Y-88197660D01*
X171143961Y-88194726D01*
X171183004Y-88100471D01*
X171235540Y-88026234D01*
X171297394Y-87975342D01*
X171364392Y-87951121D01*
X171432359Y-87956899D01*
X171432359Y-87956899D01*
G37*
X171432359Y-87956899D02*
X171439297Y-87959349D01*
X171474221Y-87987751D01*
X171484686Y-88029135D01*
X171467978Y-88070521D01*
X171463547Y-88075346D01*
X171434766Y-88094339D01*
X171418216Y-88085253D01*
X171416134Y-88071476D01*
X171404979Y-88040911D01*
X171388588Y-88019740D01*
X171367181Y-88003022D01*
X171347328Y-88007353D01*
X171321028Y-88029786D01*
X171298014Y-88060681D01*
X171270149Y-88110374D01*
X171242987Y-88167183D01*
X171222082Y-88219425D01*
X171212985Y-88255421D01*
X171212934Y-88257168D01*
X171227865Y-88262299D01*
X171264681Y-88264914D01*
X171273611Y-88265000D01*
X171315565Y-88270745D01*
X171328232Y-88284148D01*
X171313425Y-88299460D01*
X171272958Y-88310932D01*
X171258611Y-88312563D01*
X171225803Y-88316828D01*
X171204607Y-88327728D01*
X171189040Y-88352738D01*
X171173117Y-88399332D01*
X171163726Y-88431097D01*
X171143168Y-88502791D01*
X171123341Y-88574138D01*
X171110924Y-88620599D01*
X171072136Y-88740363D01*
X171026043Y-88828477D01*
X170973060Y-88884509D01*
X170913601Y-88908028D01*
X170848082Y-88898604D01*
X170844634Y-88897252D01*
X170826435Y-88874998D01*
X170826054Y-88842082D01*
X170842695Y-88816131D01*
X170848432Y-88813157D01*
X170878714Y-88816388D01*
X170901651Y-88831831D01*
X170921551Y-88846442D01*
X170939553Y-88845347D01*
X170957315Y-88825362D01*
X170976495Y-88783302D01*
X170998750Y-88715981D01*
X171025737Y-88620215D01*
X171040258Y-88565499D01*
X171105724Y-88315800D01*
X171066195Y-88315800D01*
X171034258Y-88306444D01*
X171026667Y-88290400D01*
X171041681Y-88270155D01*
X171074786Y-88265000D01*
X171106817Y-88260508D01*
X171126637Y-88241051D01*
X171143076Y-88197660D01*
X171143961Y-88194726D01*
X171183004Y-88100471D01*
X171235540Y-88026234D01*
X171297394Y-87975342D01*
X171364392Y-87951121D01*
X171432359Y-87956899D01*
G36*
X177325867Y-89281000D02*
X177323296Y-89335117D01*
X177316581Y-89371808D01*
X177308933Y-89382599D01*
X177293472Y-89369085D01*
X177292000Y-89359824D01*
X177280388Y-89332517D01*
X177256386Y-89304791D01*
X177238054Y-89291771D01*
X177212516Y-89282404D01*
X177173900Y-89275888D01*
X177116334Y-89271423D01*
X177033948Y-89268210D01*
X176976986Y-89266712D01*
X176733200Y-89260891D01*
X176733200Y-89873666D01*
X176944207Y-89873666D01*
X177032980Y-89873238D01*
X177094404Y-89871297D01*
X177134993Y-89866860D01*
X177161260Y-89858945D01*
X177179718Y-89846569D01*
X177189741Y-89836607D01*
X177224267Y-89799547D01*
X177223752Y-89925507D01*
X177222644Y-89988324D01*
X177219372Y-90021459D01*
X177213044Y-90029073D01*
X177204032Y-90017600D01*
X177188604Y-89993957D01*
X177169739Y-89977665D01*
X177141317Y-89967353D01*
X177097219Y-89961651D01*
X177031323Y-89959186D01*
X176940633Y-89958592D01*
X176733200Y-89958333D01*
X176733200Y-90218924D01*
X176733480Y-90333792D01*
X176736533Y-90419272D01*
X176745678Y-90479836D01*
X176764235Y-90519960D01*
X176795521Y-90544116D01*
X176842856Y-90556778D01*
X176909559Y-90562419D01*
X176990128Y-90565230D01*
X177116019Y-90565887D01*
X177212404Y-90558372D01*
X177282814Y-90541963D01*
X177330782Y-90515941D01*
X177353260Y-90491068D01*
X177381345Y-90455245D01*
X177398135Y-90450866D01*
X177403665Y-90478068D01*
X177397968Y-90536987D01*
X177383835Y-90614500D01*
X177376022Y-90652600D01*
X176910678Y-90652600D01*
X176759233Y-90651991D01*
X176636021Y-90650197D01*
X176542308Y-90647264D01*
X176479364Y-90643237D01*
X176448458Y-90638163D01*
X176445333Y-90635666D01*
X176458848Y-90620205D01*
X176468109Y-90618733D01*
X176495409Y-90607117D01*
X176523142Y-90583094D01*
X176531482Y-90572313D01*
X176538249Y-90557999D01*
X176543607Y-90536772D01*
X176547720Y-90505248D01*
X176550751Y-90460046D01*
X176552863Y-90397784D01*
X176554221Y-90315080D01*
X176554987Y-90208552D01*
X176555326Y-90074818D01*
X176555400Y-89916012D01*
X176555320Y-89752676D01*
X176554971Y-89619824D01*
X176554189Y-89514075D01*
X176552810Y-89432047D01*
X176550672Y-89370356D01*
X176547611Y-89325622D01*
X176543462Y-89294462D01*
X176538063Y-89273494D01*
X176531250Y-89259336D01*
X176523142Y-89248917D01*
X176491948Y-89222643D01*
X176468109Y-89213266D01*
X176447313Y-89203219D01*
X176445333Y-89196333D01*
X176462031Y-89190700D01*
X176511209Y-89186144D01*
X176591497Y-89182716D01*
X176701524Y-89180468D01*
X176839921Y-89179455D01*
X176885600Y-89179400D01*
X177325867Y-89179400D01*
X177325867Y-89281000D01*
X177325867Y-89281000D01*
G37*
X177325867Y-89281000D02*
X177323296Y-89335117D01*
X177316581Y-89371808D01*
X177308933Y-89382599D01*
X177293472Y-89369085D01*
X177292000Y-89359824D01*
X177280388Y-89332517D01*
X177256386Y-89304791D01*
X177238054Y-89291771D01*
X177212516Y-89282404D01*
X177173900Y-89275888D01*
X177116334Y-89271423D01*
X177033948Y-89268210D01*
X176976986Y-89266712D01*
X176733200Y-89260891D01*
X176733200Y-89873666D01*
X176944207Y-89873666D01*
X177032980Y-89873238D01*
X177094404Y-89871297D01*
X177134993Y-89866860D01*
X177161260Y-89858945D01*
X177179718Y-89846569D01*
X177189741Y-89836607D01*
X177224267Y-89799547D01*
X177223752Y-89925507D01*
X177222644Y-89988324D01*
X177219372Y-90021459D01*
X177213044Y-90029073D01*
X177204032Y-90017600D01*
X177188604Y-89993957D01*
X177169739Y-89977665D01*
X177141317Y-89967353D01*
X177097219Y-89961651D01*
X177031323Y-89959186D01*
X176940633Y-89958592D01*
X176733200Y-89958333D01*
X176733200Y-90218924D01*
X176733480Y-90333792D01*
X176736533Y-90419272D01*
X176745678Y-90479836D01*
X176764235Y-90519960D01*
X176795521Y-90544116D01*
X176842856Y-90556778D01*
X176909559Y-90562419D01*
X176990128Y-90565230D01*
X177116019Y-90565887D01*
X177212404Y-90558372D01*
X177282814Y-90541963D01*
X177330782Y-90515941D01*
X177353260Y-90491068D01*
X177381345Y-90455245D01*
X177398135Y-90450866D01*
X177403665Y-90478068D01*
X177397968Y-90536987D01*
X177383835Y-90614500D01*
X177376022Y-90652600D01*
X176910678Y-90652600D01*
X176759233Y-90651991D01*
X176636021Y-90650197D01*
X176542308Y-90647264D01*
X176479364Y-90643237D01*
X176448458Y-90638163D01*
X176445333Y-90635666D01*
X176458848Y-90620205D01*
X176468109Y-90618733D01*
X176495409Y-90607117D01*
X176523142Y-90583094D01*
X176531482Y-90572313D01*
X176538249Y-90557999D01*
X176543607Y-90536772D01*
X176547720Y-90505248D01*
X176550751Y-90460046D01*
X176552863Y-90397784D01*
X176554221Y-90315080D01*
X176554987Y-90208552D01*
X176555326Y-90074818D01*
X176555400Y-89916012D01*
X176555320Y-89752676D01*
X176554971Y-89619824D01*
X176554189Y-89514075D01*
X176552810Y-89432047D01*
X176550672Y-89370356D01*
X176547611Y-89325622D01*
X176543462Y-89294462D01*
X176538063Y-89273494D01*
X176531250Y-89259336D01*
X176523142Y-89248917D01*
X176491948Y-89222643D01*
X176468109Y-89213266D01*
X176447313Y-89203219D01*
X176445333Y-89196333D01*
X176462031Y-89190700D01*
X176511209Y-89186144D01*
X176591497Y-89182716D01*
X176701524Y-89180468D01*
X176839921Y-89179455D01*
X176885600Y-89179400D01*
X177325867Y-89179400D01*
X177325867Y-89281000D01*
G36*
X175726296Y-89181085D02*
X175792335Y-89185905D01*
X175829252Y-89193499D01*
X175835644Y-89203510D01*
X175810112Y-89215581D01*
X175792801Y-89220370D01*
X175752871Y-89244835D01*
X175733535Y-89274108D01*
X175729676Y-89300955D01*
X175726292Y-89356659D01*
X175723403Y-89436215D01*
X175721035Y-89534616D01*
X175719211Y-89646856D01*
X175717954Y-89767929D01*
X175717288Y-89892829D01*
X175717237Y-90016551D01*
X175717823Y-90134086D01*
X175719071Y-90240431D01*
X175721003Y-90330578D01*
X175723645Y-90399522D01*
X175727018Y-90442256D01*
X175728013Y-90448430D01*
X175743329Y-90491908D01*
X175772465Y-90523014D01*
X175820446Y-90543991D01*
X175892302Y-90557084D01*
X175987447Y-90564274D01*
X176107997Y-90567624D01*
X176200963Y-90563361D01*
X176272121Y-90549698D01*
X176327248Y-90524848D01*
X176372123Y-90487027D01*
X176412521Y-90434447D01*
X176413849Y-90432433D01*
X176438111Y-90401586D01*
X176450154Y-90399704D01*
X176449915Y-90424142D01*
X176437333Y-90472258D01*
X176416172Y-90531646D01*
X176369273Y-90652600D01*
X175899303Y-90652600D01*
X175773683Y-90652077D01*
X175661609Y-90650596D01*
X175567109Y-90648287D01*
X175494214Y-90645277D01*
X175446956Y-90641698D01*
X175429363Y-90637678D01*
X175429333Y-90637502D01*
X175443643Y-90622433D01*
X175469975Y-90612204D01*
X175489407Y-90605130D01*
X175505332Y-90592517D01*
X175518096Y-90571238D01*
X175528042Y-90538167D01*
X175535516Y-90490177D01*
X175540862Y-90424142D01*
X175544426Y-90336936D01*
X175546551Y-90225432D01*
X175547583Y-90086504D01*
X175547866Y-89917026D01*
X175547867Y-89905803D01*
X175547664Y-89737617D01*
X175546811Y-89600100D01*
X175544939Y-89490056D01*
X175541679Y-89404286D01*
X175536663Y-89339594D01*
X175529522Y-89292785D01*
X175519889Y-89260660D01*
X175507394Y-89240023D01*
X175491669Y-89227677D01*
X175472346Y-89220425D01*
X175468764Y-89219491D01*
X175433130Y-89207137D01*
X175429736Y-89196581D01*
X175456987Y-89188214D01*
X175513286Y-89182427D01*
X175597036Y-89179611D01*
X175632533Y-89179400D01*
X175726296Y-89181085D01*
X175726296Y-89181085D01*
G37*
X175726296Y-89181085D02*
X175792335Y-89185905D01*
X175829252Y-89193499D01*
X175835644Y-89203510D01*
X175810112Y-89215581D01*
X175792801Y-89220370D01*
X175752871Y-89244835D01*
X175733535Y-89274108D01*
X175729676Y-89300955D01*
X175726292Y-89356659D01*
X175723403Y-89436215D01*
X175721035Y-89534616D01*
X175719211Y-89646856D01*
X175717954Y-89767929D01*
X175717288Y-89892829D01*
X175717237Y-90016551D01*
X175717823Y-90134086D01*
X175719071Y-90240431D01*
X175721003Y-90330578D01*
X175723645Y-90399522D01*
X175727018Y-90442256D01*
X175728013Y-90448430D01*
X175743329Y-90491908D01*
X175772465Y-90523014D01*
X175820446Y-90543991D01*
X175892302Y-90557084D01*
X175987447Y-90564274D01*
X176107997Y-90567624D01*
X176200963Y-90563361D01*
X176272121Y-90549698D01*
X176327248Y-90524848D01*
X176372123Y-90487027D01*
X176412521Y-90434447D01*
X176413849Y-90432433D01*
X176438111Y-90401586D01*
X176450154Y-90399704D01*
X176449915Y-90424142D01*
X176437333Y-90472258D01*
X176416172Y-90531646D01*
X176369273Y-90652600D01*
X175899303Y-90652600D01*
X175773683Y-90652077D01*
X175661609Y-90650596D01*
X175567109Y-90648287D01*
X175494214Y-90645277D01*
X175446956Y-90641698D01*
X175429363Y-90637678D01*
X175429333Y-90637502D01*
X175443643Y-90622433D01*
X175469975Y-90612204D01*
X175489407Y-90605130D01*
X175505332Y-90592517D01*
X175518096Y-90571238D01*
X175528042Y-90538167D01*
X175535516Y-90490177D01*
X175540862Y-90424142D01*
X175544426Y-90336936D01*
X175546551Y-90225432D01*
X175547583Y-90086504D01*
X175547866Y-89917026D01*
X175547867Y-89905803D01*
X175547664Y-89737617D01*
X175546811Y-89600100D01*
X175544939Y-89490056D01*
X175541679Y-89404286D01*
X175536663Y-89339594D01*
X175529522Y-89292785D01*
X175519889Y-89260660D01*
X175507394Y-89240023D01*
X175491669Y-89227677D01*
X175472346Y-89220425D01*
X175468764Y-89219491D01*
X175433130Y-89207137D01*
X175429736Y-89196581D01*
X175456987Y-89188214D01*
X175513286Y-89182427D01*
X175597036Y-89179611D01*
X175632533Y-89179400D01*
X175726296Y-89181085D01*
G36*
X174710296Y-89181085D02*
X174776335Y-89185905D01*
X174813252Y-89193499D01*
X174819644Y-89203510D01*
X174794112Y-89215581D01*
X174776801Y-89220370D01*
X174736871Y-89244835D01*
X174717535Y-89274108D01*
X174712679Y-89304098D01*
X174708680Y-89362869D01*
X174705527Y-89445349D01*
X174703211Y-89546465D01*
X174701720Y-89661142D01*
X174701046Y-89784308D01*
X174701178Y-89910888D01*
X174702105Y-90035811D01*
X174703818Y-90154001D01*
X174706307Y-90260386D01*
X174709561Y-90349892D01*
X174713570Y-90417446D01*
X174718324Y-90457974D01*
X174719915Y-90464163D01*
X174738061Y-90501963D01*
X174765646Y-90528492D01*
X174808633Y-90546098D01*
X174872982Y-90557129D01*
X174964657Y-90563933D01*
X174974478Y-90564420D01*
X175094623Y-90567680D01*
X175187240Y-90563172D01*
X175258140Y-90549083D01*
X175313133Y-90523602D01*
X175358032Y-90484917D01*
X175397849Y-90432433D01*
X175422111Y-90401586D01*
X175434154Y-90399704D01*
X175433915Y-90424142D01*
X175421333Y-90472258D01*
X175400172Y-90531646D01*
X175353273Y-90652600D01*
X174883303Y-90652600D01*
X174757683Y-90652077D01*
X174645609Y-90650596D01*
X174551109Y-90648287D01*
X174478214Y-90645277D01*
X174430956Y-90641698D01*
X174413363Y-90637678D01*
X174413334Y-90637502D01*
X174427643Y-90622433D01*
X174453975Y-90612204D01*
X174493007Y-90585860D01*
X174513241Y-90548575D01*
X174518031Y-90517842D01*
X174522136Y-90458321D01*
X174525548Y-90374885D01*
X174528257Y-90272408D01*
X174530254Y-90155763D01*
X174531532Y-90029824D01*
X174532081Y-89899464D01*
X174531893Y-89769556D01*
X174530958Y-89644974D01*
X174529268Y-89530592D01*
X174526815Y-89431282D01*
X174523589Y-89351919D01*
X174519582Y-89297375D01*
X174515532Y-89274108D01*
X174486694Y-89236220D01*
X174456266Y-89220370D01*
X174418877Y-89207645D01*
X174413918Y-89196850D01*
X174439987Y-89188342D01*
X174495685Y-89182481D01*
X174579611Y-89179624D01*
X174616534Y-89179400D01*
X174710296Y-89181085D01*
X174710296Y-89181085D01*
G37*
X174710296Y-89181085D02*
X174776335Y-89185905D01*
X174813252Y-89193499D01*
X174819644Y-89203510D01*
X174794112Y-89215581D01*
X174776801Y-89220370D01*
X174736871Y-89244835D01*
X174717535Y-89274108D01*
X174712679Y-89304098D01*
X174708680Y-89362869D01*
X174705527Y-89445349D01*
X174703211Y-89546465D01*
X174701720Y-89661142D01*
X174701046Y-89784308D01*
X174701178Y-89910888D01*
X174702105Y-90035811D01*
X174703818Y-90154001D01*
X174706307Y-90260386D01*
X174709561Y-90349892D01*
X174713570Y-90417446D01*
X174718324Y-90457974D01*
X174719915Y-90464163D01*
X174738061Y-90501963D01*
X174765646Y-90528492D01*
X174808633Y-90546098D01*
X174872982Y-90557129D01*
X174964657Y-90563933D01*
X174974478Y-90564420D01*
X175094623Y-90567680D01*
X175187240Y-90563172D01*
X175258140Y-90549083D01*
X175313133Y-90523602D01*
X175358032Y-90484917D01*
X175397849Y-90432433D01*
X175422111Y-90401586D01*
X175434154Y-90399704D01*
X175433915Y-90424142D01*
X175421333Y-90472258D01*
X175400172Y-90531646D01*
X175353273Y-90652600D01*
X174883303Y-90652600D01*
X174757683Y-90652077D01*
X174645609Y-90650596D01*
X174551109Y-90648287D01*
X174478214Y-90645277D01*
X174430956Y-90641698D01*
X174413363Y-90637678D01*
X174413334Y-90637502D01*
X174427643Y-90622433D01*
X174453975Y-90612204D01*
X174493007Y-90585860D01*
X174513241Y-90548575D01*
X174518031Y-90517842D01*
X174522136Y-90458321D01*
X174525548Y-90374885D01*
X174528257Y-90272408D01*
X174530254Y-90155763D01*
X174531532Y-90029824D01*
X174532081Y-89899464D01*
X174531893Y-89769556D01*
X174530958Y-89644974D01*
X174529268Y-89530592D01*
X174526815Y-89431282D01*
X174523589Y-89351919D01*
X174519582Y-89297375D01*
X174515532Y-89274108D01*
X174486694Y-89236220D01*
X174456266Y-89220370D01*
X174418877Y-89207645D01*
X174413918Y-89196850D01*
X174439987Y-89188342D01*
X174495685Y-89182481D01*
X174579611Y-89179624D01*
X174616534Y-89179400D01*
X174710296Y-89181085D01*
G36*
X174235900Y-89181085D02*
X174301957Y-89185895D01*
X174339104Y-89193461D01*
X174345875Y-89203412D01*
X174320803Y-89215380D01*
X174303874Y-89220067D01*
X174284296Y-89227652D01*
X174268239Y-89241667D01*
X174255400Y-89265143D01*
X174245477Y-89301113D01*
X174238166Y-89352610D01*
X174233167Y-89422665D01*
X174230176Y-89514310D01*
X174228891Y-89630579D01*
X174229010Y-89774503D01*
X174230230Y-89949113D01*
X174230307Y-89957845D01*
X174231800Y-90115358D01*
X174233339Y-90242515D01*
X174235134Y-90342825D01*
X174237394Y-90419799D01*
X174240331Y-90476946D01*
X174244155Y-90517776D01*
X174249076Y-90545798D01*
X174255305Y-90564524D01*
X174263052Y-90577462D01*
X174267791Y-90583113D01*
X174298995Y-90609369D01*
X174322825Y-90618733D01*
X174343620Y-90628780D01*
X174345600Y-90635666D01*
X174329331Y-90643099D01*
X174283107Y-90648599D01*
X174210799Y-90651842D01*
X174142400Y-90652600D01*
X174053203Y-90651244D01*
X173987210Y-90647392D01*
X173948292Y-90641366D01*
X173939200Y-90635666D01*
X173952915Y-90620643D01*
X173964600Y-90618733D01*
X173994648Y-90607523D01*
X174023867Y-90584866D01*
X174032549Y-90575010D01*
X174039607Y-90562312D01*
X174045207Y-90543423D01*
X174049518Y-90514992D01*
X174052708Y-90473671D01*
X174054946Y-90416111D01*
X174056398Y-90338961D01*
X174057235Y-90238873D01*
X174057623Y-90112497D01*
X174057731Y-89956484D01*
X174057734Y-89910157D01*
X174057647Y-89745381D01*
X174057285Y-89611164D01*
X174056495Y-89504199D01*
X174055123Y-89421179D01*
X174053016Y-89358797D01*
X174050022Y-89313745D01*
X174045987Y-89282717D01*
X174040758Y-89262404D01*
X174034182Y-89249501D01*
X174026767Y-89241291D01*
X173991479Y-89219224D01*
X173967500Y-89213266D01*
X173943164Y-89204948D01*
X173939200Y-89196333D01*
X173955469Y-89188900D01*
X174001693Y-89183400D01*
X174074001Y-89180157D01*
X174142400Y-89179400D01*
X174235900Y-89181085D01*
X174235900Y-89181085D01*
G37*
X174235900Y-89181085D02*
X174301957Y-89185895D01*
X174339104Y-89193461D01*
X174345875Y-89203412D01*
X174320803Y-89215380D01*
X174303874Y-89220067D01*
X174284296Y-89227652D01*
X174268239Y-89241667D01*
X174255400Y-89265143D01*
X174245477Y-89301113D01*
X174238166Y-89352610D01*
X174233167Y-89422665D01*
X174230176Y-89514310D01*
X174228891Y-89630579D01*
X174229010Y-89774503D01*
X174230230Y-89949113D01*
X174230307Y-89957845D01*
X174231800Y-90115358D01*
X174233339Y-90242515D01*
X174235134Y-90342825D01*
X174237394Y-90419799D01*
X174240331Y-90476946D01*
X174244155Y-90517776D01*
X174249076Y-90545798D01*
X174255305Y-90564524D01*
X174263052Y-90577462D01*
X174267791Y-90583113D01*
X174298995Y-90609369D01*
X174322825Y-90618733D01*
X174343620Y-90628780D01*
X174345600Y-90635666D01*
X174329331Y-90643099D01*
X174283107Y-90648599D01*
X174210799Y-90651842D01*
X174142400Y-90652600D01*
X174053203Y-90651244D01*
X173987210Y-90647392D01*
X173948292Y-90641366D01*
X173939200Y-90635666D01*
X173952915Y-90620643D01*
X173964600Y-90618733D01*
X173994648Y-90607523D01*
X174023867Y-90584866D01*
X174032549Y-90575010D01*
X174039607Y-90562312D01*
X174045207Y-90543423D01*
X174049518Y-90514992D01*
X174052708Y-90473671D01*
X174054946Y-90416111D01*
X174056398Y-90338961D01*
X174057235Y-90238873D01*
X174057623Y-90112497D01*
X174057731Y-89956484D01*
X174057734Y-89910157D01*
X174057647Y-89745381D01*
X174057285Y-89611164D01*
X174056495Y-89504199D01*
X174055123Y-89421179D01*
X174053016Y-89358797D01*
X174050022Y-89313745D01*
X174045987Y-89282717D01*
X174040758Y-89262404D01*
X174034182Y-89249501D01*
X174026767Y-89241291D01*
X173991479Y-89219224D01*
X173967500Y-89213266D01*
X173943164Y-89204948D01*
X173939200Y-89196333D01*
X173955469Y-89188900D01*
X174001693Y-89183400D01*
X174074001Y-89180157D01*
X174142400Y-89179400D01*
X174235900Y-89181085D01*
G36*
X172296667Y-89281000D02*
X172293362Y-89340843D01*
X172284568Y-89375212D01*
X172271972Y-89381501D01*
X172257255Y-89357109D01*
X172253843Y-89347187D01*
X172233797Y-89315266D01*
X172194476Y-89291854D01*
X172132388Y-89276092D01*
X172044042Y-89267120D01*
X171925944Y-89264079D01*
X171916211Y-89264066D01*
X171704000Y-89264066D01*
X171704000Y-89873666D01*
X171905815Y-89873666D01*
X172005538Y-89872866D01*
X172076106Y-89869927D01*
X172122208Y-89864038D01*
X172148529Y-89854389D01*
X172159757Y-89840170D01*
X172161200Y-89829521D01*
X172170949Y-89808175D01*
X172178134Y-89805933D01*
X172186720Y-89821665D01*
X172192510Y-89864155D01*
X172194559Y-89926348D01*
X172194552Y-89928700D01*
X172193429Y-89990433D01*
X172190094Y-90022508D01*
X172183620Y-90029109D01*
X172174832Y-90017600D01*
X172159404Y-89993957D01*
X172140539Y-89977665D01*
X172112117Y-89967353D01*
X172068019Y-89961651D01*
X172002123Y-89959186D01*
X171911434Y-89958592D01*
X171704000Y-89958333D01*
X171704000Y-90218924D01*
X171704450Y-90333260D01*
X171707697Y-90418260D01*
X171716584Y-90478451D01*
X171733954Y-90518364D01*
X171762652Y-90542527D01*
X171805521Y-90555470D01*
X171865404Y-90561722D01*
X171921055Y-90564642D01*
X172050575Y-90567726D01*
X172151231Y-90562617D01*
X172227182Y-90548616D01*
X172282591Y-90525026D01*
X172315110Y-90498583D01*
X172352661Y-90461768D01*
X172372571Y-90451931D01*
X172377099Y-90468650D01*
X172374165Y-90487500D01*
X172366144Y-90530271D01*
X172357015Y-90583703D01*
X172356142Y-90589100D01*
X172345932Y-90652600D01*
X171881033Y-90652600D01*
X171729676Y-90651991D01*
X171606547Y-90650195D01*
X171512914Y-90647259D01*
X171450049Y-90643229D01*
X171419223Y-90638151D01*
X171416134Y-90635666D01*
X171429648Y-90620205D01*
X171438909Y-90618733D01*
X171467131Y-90607143D01*
X171489709Y-90587766D01*
X171496944Y-90576947D01*
X171502832Y-90559889D01*
X171507507Y-90533319D01*
X171511106Y-90493967D01*
X171513764Y-90438561D01*
X171515618Y-90363829D01*
X171516803Y-90266499D01*
X171517456Y-90143300D01*
X171517712Y-89990961D01*
X171517734Y-89913057D01*
X171517648Y-89747877D01*
X171517288Y-89613265D01*
X171516503Y-89505920D01*
X171515141Y-89422545D01*
X171513049Y-89359839D01*
X171510075Y-89314505D01*
X171506068Y-89283242D01*
X171500874Y-89262751D01*
X171494343Y-89249734D01*
X171486767Y-89241291D01*
X171455256Y-89219482D01*
X171435967Y-89213266D01*
X171417268Y-89201965D01*
X171416134Y-89196333D01*
X171432831Y-89190700D01*
X171482009Y-89186144D01*
X171562297Y-89182716D01*
X171672324Y-89180468D01*
X171810721Y-89179455D01*
X171856400Y-89179400D01*
X172296667Y-89179400D01*
X172296667Y-89281000D01*
X172296667Y-89281000D01*
G37*
X172296667Y-89281000D02*
X172293362Y-89340843D01*
X172284568Y-89375212D01*
X172271972Y-89381501D01*
X172257255Y-89357109D01*
X172253843Y-89347187D01*
X172233797Y-89315266D01*
X172194476Y-89291854D01*
X172132388Y-89276092D01*
X172044042Y-89267120D01*
X171925944Y-89264079D01*
X171916211Y-89264066D01*
X171704000Y-89264066D01*
X171704000Y-89873666D01*
X171905815Y-89873666D01*
X172005538Y-89872866D01*
X172076106Y-89869927D01*
X172122208Y-89864038D01*
X172148529Y-89854389D01*
X172159757Y-89840170D01*
X172161200Y-89829521D01*
X172170949Y-89808175D01*
X172178134Y-89805933D01*
X172186720Y-89821665D01*
X172192510Y-89864155D01*
X172194559Y-89926348D01*
X172194552Y-89928700D01*
X172193429Y-89990433D01*
X172190094Y-90022508D01*
X172183620Y-90029109D01*
X172174832Y-90017600D01*
X172159404Y-89993957D01*
X172140539Y-89977665D01*
X172112117Y-89967353D01*
X172068019Y-89961651D01*
X172002123Y-89959186D01*
X171911434Y-89958592D01*
X171704000Y-89958333D01*
X171704000Y-90218924D01*
X171704450Y-90333260D01*
X171707697Y-90418260D01*
X171716584Y-90478451D01*
X171733954Y-90518364D01*
X171762652Y-90542527D01*
X171805521Y-90555470D01*
X171865404Y-90561722D01*
X171921055Y-90564642D01*
X172050575Y-90567726D01*
X172151231Y-90562617D01*
X172227182Y-90548616D01*
X172282591Y-90525026D01*
X172315110Y-90498583D01*
X172352661Y-90461768D01*
X172372571Y-90451931D01*
X172377099Y-90468650D01*
X172374165Y-90487500D01*
X172366144Y-90530271D01*
X172357015Y-90583703D01*
X172356142Y-90589100D01*
X172345932Y-90652600D01*
X171881033Y-90652600D01*
X171729676Y-90651991D01*
X171606547Y-90650195D01*
X171512914Y-90647259D01*
X171450049Y-90643229D01*
X171419223Y-90638151D01*
X171416134Y-90635666D01*
X171429648Y-90620205D01*
X171438909Y-90618733D01*
X171467131Y-90607143D01*
X171489709Y-90587766D01*
X171496944Y-90576947D01*
X171502832Y-90559889D01*
X171507507Y-90533319D01*
X171511106Y-90493967D01*
X171513764Y-90438561D01*
X171515618Y-90363829D01*
X171516803Y-90266499D01*
X171517456Y-90143300D01*
X171517712Y-89990961D01*
X171517734Y-89913057D01*
X171517648Y-89747877D01*
X171517288Y-89613265D01*
X171516503Y-89505920D01*
X171515141Y-89422545D01*
X171513049Y-89359839D01*
X171510075Y-89314505D01*
X171506068Y-89283242D01*
X171500874Y-89262751D01*
X171494343Y-89249734D01*
X171486767Y-89241291D01*
X171455256Y-89219482D01*
X171435967Y-89213266D01*
X171417268Y-89201965D01*
X171416134Y-89196333D01*
X171432831Y-89190700D01*
X171482009Y-89186144D01*
X171562297Y-89182716D01*
X171672324Y-89180468D01*
X171810721Y-89179455D01*
X171856400Y-89179400D01*
X172296667Y-89179400D01*
X172296667Y-89281000D01*
G36*
X171234397Y-89180755D02*
X171300391Y-89184607D01*
X171339309Y-89190633D01*
X171348400Y-89196333D01*
X171334340Y-89210456D01*
X171317158Y-89213266D01*
X171281819Y-89225164D01*
X171257891Y-89244233D01*
X171250625Y-89255098D01*
X171244719Y-89272222D01*
X171240035Y-89298893D01*
X171236436Y-89338398D01*
X171233783Y-89394027D01*
X171231940Y-89469065D01*
X171230767Y-89566801D01*
X171230128Y-89690523D01*
X171229884Y-89843518D01*
X171229867Y-89913100D01*
X171229929Y-90077044D01*
X171230230Y-90210480D01*
X171230937Y-90316765D01*
X171232222Y-90399258D01*
X171234251Y-90461315D01*
X171237196Y-90506295D01*
X171241226Y-90537556D01*
X171246509Y-90558455D01*
X171253214Y-90572351D01*
X171261512Y-90582602D01*
X171263734Y-90584866D01*
X171297258Y-90609983D01*
X171323000Y-90618733D01*
X171345535Y-90627876D01*
X171348400Y-90635666D01*
X171332131Y-90643099D01*
X171285907Y-90648599D01*
X171213599Y-90651842D01*
X171145200Y-90652600D01*
X171056003Y-90651244D01*
X170990010Y-90647392D01*
X170951092Y-90641366D01*
X170942000Y-90635666D01*
X170955514Y-90620205D01*
X170964776Y-90618733D01*
X170992085Y-90607122D01*
X171019809Y-90583127D01*
X171031697Y-90566768D01*
X171040508Y-90544285D01*
X171046842Y-90510438D01*
X171051301Y-90459991D01*
X171054485Y-90387706D01*
X171056996Y-90288344D01*
X171057699Y-90252927D01*
X171063331Y-89958333D01*
X170196933Y-89958333D01*
X170197183Y-90233500D01*
X170198261Y-90352159D01*
X170201918Y-90441682D01*
X170209158Y-90506764D01*
X170220984Y-90552097D01*
X170238400Y-90582378D01*
X170262409Y-90602298D01*
X170277667Y-90610048D01*
X170306909Y-90626014D01*
X170310795Y-90637740D01*
X170287391Y-90645724D01*
X170234761Y-90650464D01*
X170150968Y-90652458D01*
X170112267Y-90652600D01*
X170033824Y-90651423D01*
X169969450Y-90648216D01*
X169925687Y-90643465D01*
X169909078Y-90637658D01*
X169909067Y-90637502D01*
X169923432Y-90622651D01*
X169951999Y-90611629D01*
X169991929Y-90587164D01*
X170011266Y-90557891D01*
X170015291Y-90530496D01*
X170018898Y-90472810D01*
X170021999Y-90388406D01*
X170024505Y-90280856D01*
X170026326Y-90153734D01*
X170027374Y-90010614D01*
X170027600Y-89901732D01*
X170027435Y-89738174D01*
X170026849Y-89605147D01*
X170025708Y-89499317D01*
X170023877Y-89417349D01*
X170021219Y-89355909D01*
X170017601Y-89311662D01*
X170012888Y-89281275D01*
X170006943Y-89261412D01*
X170001240Y-89250901D01*
X169970027Y-89222531D01*
X169941973Y-89213266D01*
X169914983Y-89205990D01*
X169909067Y-89196333D01*
X169925336Y-89188900D01*
X169971560Y-89183400D01*
X170043868Y-89180157D01*
X170112267Y-89179400D01*
X170205524Y-89181084D01*
X170271596Y-89185886D01*
X170308954Y-89193425D01*
X170316072Y-89203321D01*
X170291422Y-89215196D01*
X170274826Y-89219795D01*
X170248260Y-89232420D01*
X170228206Y-89257844D01*
X170213858Y-89300041D01*
X170204415Y-89362989D01*
X170199072Y-89450663D01*
X170197025Y-89567040D01*
X170196933Y-89605260D01*
X170196933Y-89873666D01*
X171060534Y-89873666D01*
X171060534Y-89605260D01*
X171059265Y-89480145D01*
X171054925Y-89384845D01*
X171046709Y-89315383D01*
X171033814Y-89267784D01*
X171015436Y-89238070D01*
X170990772Y-89222266D01*
X170982641Y-89219795D01*
X170946398Y-89207312D01*
X170942463Y-89196673D01*
X170969308Y-89188257D01*
X171025406Y-89182445D01*
X171109229Y-89179615D01*
X171145200Y-89179400D01*
X171234397Y-89180755D01*
X171234397Y-89180755D01*
G37*
X171234397Y-89180755D02*
X171300391Y-89184607D01*
X171339309Y-89190633D01*
X171348400Y-89196333D01*
X171334340Y-89210456D01*
X171317158Y-89213266D01*
X171281819Y-89225164D01*
X171257891Y-89244233D01*
X171250625Y-89255098D01*
X171244719Y-89272222D01*
X171240035Y-89298893D01*
X171236436Y-89338398D01*
X171233783Y-89394027D01*
X171231940Y-89469065D01*
X171230767Y-89566801D01*
X171230128Y-89690523D01*
X171229884Y-89843518D01*
X171229867Y-89913100D01*
X171229929Y-90077044D01*
X171230230Y-90210480D01*
X171230937Y-90316765D01*
X171232222Y-90399258D01*
X171234251Y-90461315D01*
X171237196Y-90506295D01*
X171241226Y-90537556D01*
X171246509Y-90558455D01*
X171253214Y-90572351D01*
X171261512Y-90582602D01*
X171263734Y-90584866D01*
X171297258Y-90609983D01*
X171323000Y-90618733D01*
X171345535Y-90627876D01*
X171348400Y-90635666D01*
X171332131Y-90643099D01*
X171285907Y-90648599D01*
X171213599Y-90651842D01*
X171145200Y-90652600D01*
X171056003Y-90651244D01*
X170990010Y-90647392D01*
X170951092Y-90641366D01*
X170942000Y-90635666D01*
X170955514Y-90620205D01*
X170964776Y-90618733D01*
X170992085Y-90607122D01*
X171019809Y-90583127D01*
X171031697Y-90566768D01*
X171040508Y-90544285D01*
X171046842Y-90510438D01*
X171051301Y-90459991D01*
X171054485Y-90387706D01*
X171056996Y-90288344D01*
X171057699Y-90252927D01*
X171063331Y-89958333D01*
X170196933Y-89958333D01*
X170197183Y-90233500D01*
X170198261Y-90352159D01*
X170201918Y-90441682D01*
X170209158Y-90506764D01*
X170220984Y-90552097D01*
X170238400Y-90582378D01*
X170262409Y-90602298D01*
X170277667Y-90610048D01*
X170306909Y-90626014D01*
X170310795Y-90637740D01*
X170287391Y-90645724D01*
X170234761Y-90650464D01*
X170150968Y-90652458D01*
X170112267Y-90652600D01*
X170033824Y-90651423D01*
X169969450Y-90648216D01*
X169925687Y-90643465D01*
X169909078Y-90637658D01*
X169909067Y-90637502D01*
X169923432Y-90622651D01*
X169951999Y-90611629D01*
X169991929Y-90587164D01*
X170011266Y-90557891D01*
X170015291Y-90530496D01*
X170018898Y-90472810D01*
X170021999Y-90388406D01*
X170024505Y-90280856D01*
X170026326Y-90153734D01*
X170027374Y-90010614D01*
X170027600Y-89901732D01*
X170027435Y-89738174D01*
X170026849Y-89605147D01*
X170025708Y-89499317D01*
X170023877Y-89417349D01*
X170021219Y-89355909D01*
X170017601Y-89311662D01*
X170012888Y-89281275D01*
X170006943Y-89261412D01*
X170001240Y-89250901D01*
X169970027Y-89222531D01*
X169941973Y-89213266D01*
X169914983Y-89205990D01*
X169909067Y-89196333D01*
X169925336Y-89188900D01*
X169971560Y-89183400D01*
X170043868Y-89180157D01*
X170112267Y-89179400D01*
X170205524Y-89181084D01*
X170271596Y-89185886D01*
X170308954Y-89193425D01*
X170316072Y-89203321D01*
X170291422Y-89215196D01*
X170274826Y-89219795D01*
X170248260Y-89232420D01*
X170228206Y-89257844D01*
X170213858Y-89300041D01*
X170204415Y-89362989D01*
X170199072Y-89450663D01*
X170197025Y-89567040D01*
X170196933Y-89605260D01*
X170196933Y-89873666D01*
X171060534Y-89873666D01*
X171060534Y-89605260D01*
X171059265Y-89480145D01*
X171054925Y-89384845D01*
X171046709Y-89315383D01*
X171033814Y-89267784D01*
X171015436Y-89238070D01*
X170990772Y-89222266D01*
X170982641Y-89219795D01*
X170946398Y-89207312D01*
X170942463Y-89196673D01*
X170969308Y-89188257D01*
X171025406Y-89182445D01*
X171109229Y-89179615D01*
X171145200Y-89179400D01*
X171234397Y-89180755D01*
G36*
X173817552Y-89180813D02*
X173882799Y-89185154D01*
X173915324Y-89192571D01*
X173915640Y-89203213D01*
X173884264Y-89217230D01*
X173867573Y-89222464D01*
X173811991Y-89255137D01*
X173768554Y-89306400D01*
X173752354Y-89336696D01*
X173724866Y-89394511D01*
X173687757Y-89476073D01*
X173642698Y-89577609D01*
X173591357Y-89695349D01*
X173535401Y-89825520D01*
X173476501Y-89964351D01*
X173457663Y-90009133D01*
X173399475Y-90147290D01*
X173344977Y-90275816D01*
X173295630Y-90391326D01*
X173252899Y-90490433D01*
X173218246Y-90569751D01*
X173193134Y-90625893D01*
X173179027Y-90655472D01*
X173176835Y-90659067D01*
X173165542Y-90649156D01*
X173142272Y-90612696D01*
X173109332Y-90553846D01*
X173069025Y-90476766D01*
X173023658Y-90385614D01*
X173012576Y-90362733D01*
X172956691Y-90246640D01*
X172891550Y-90111124D01*
X172822500Y-89967316D01*
X172754886Y-89826352D01*
X172694054Y-89699364D01*
X172693923Y-89699089D01*
X172629025Y-89565057D01*
X172575492Y-89458773D01*
X172531115Y-89376954D01*
X172493690Y-89316318D01*
X172461010Y-89273585D01*
X172430868Y-89245472D01*
X172401058Y-89228698D01*
X172372157Y-89220482D01*
X172326063Y-89209273D01*
X172312443Y-89199405D01*
X172329918Y-89191181D01*
X172377112Y-89184904D01*
X172452646Y-89180877D01*
X172555144Y-89179401D01*
X172559134Y-89179400D01*
X172660364Y-89180531D01*
X172737037Y-89183788D01*
X172786124Y-89188960D01*
X172804598Y-89195840D01*
X172804667Y-89196333D01*
X172791153Y-89211794D01*
X172781891Y-89213266D01*
X172753989Y-89224865D01*
X172729697Y-89245773D01*
X172713472Y-89266896D01*
X172709876Y-89288260D01*
X172719532Y-89320889D01*
X172736146Y-89360073D01*
X172769821Y-89435209D01*
X172811377Y-89525320D01*
X172858779Y-89626243D01*
X172909991Y-89733816D01*
X172962977Y-89843874D01*
X173015703Y-89952255D01*
X173066132Y-90054796D01*
X173112228Y-90147332D01*
X173151957Y-90225702D01*
X173183282Y-90285742D01*
X173204168Y-90323288D01*
X173212502Y-90334314D01*
X173221199Y-90316298D01*
X173241173Y-90270785D01*
X173270806Y-90201593D01*
X173308478Y-90112539D01*
X173352570Y-90007442D01*
X173401465Y-89890121D01*
X173430607Y-89819861D01*
X173492436Y-89669811D01*
X173541646Y-89547860D01*
X173578925Y-89450965D01*
X173604960Y-89376082D01*
X173620437Y-89320166D01*
X173626044Y-89280175D01*
X173622468Y-89253063D01*
X173610395Y-89235788D01*
X173590514Y-89225305D01*
X173566215Y-89219103D01*
X173524514Y-89207893D01*
X173514859Y-89197910D01*
X173535439Y-89189624D01*
X173584440Y-89183506D01*
X173660051Y-89180026D01*
X173719067Y-89179400D01*
X173817552Y-89180813D01*
X173817552Y-89180813D01*
G37*
X173817552Y-89180813D02*
X173882799Y-89185154D01*
X173915324Y-89192571D01*
X173915640Y-89203213D01*
X173884264Y-89217230D01*
X173867573Y-89222464D01*
X173811991Y-89255137D01*
X173768554Y-89306400D01*
X173752354Y-89336696D01*
X173724866Y-89394511D01*
X173687757Y-89476073D01*
X173642698Y-89577609D01*
X173591357Y-89695349D01*
X173535401Y-89825520D01*
X173476501Y-89964351D01*
X173457663Y-90009133D01*
X173399475Y-90147290D01*
X173344977Y-90275816D01*
X173295630Y-90391326D01*
X173252899Y-90490433D01*
X173218246Y-90569751D01*
X173193134Y-90625893D01*
X173179027Y-90655472D01*
X173176835Y-90659067D01*
X173165542Y-90649156D01*
X173142272Y-90612696D01*
X173109332Y-90553846D01*
X173069025Y-90476766D01*
X173023658Y-90385614D01*
X173012576Y-90362733D01*
X172956691Y-90246640D01*
X172891550Y-90111124D01*
X172822500Y-89967316D01*
X172754886Y-89826352D01*
X172694054Y-89699364D01*
X172693923Y-89699089D01*
X172629025Y-89565057D01*
X172575492Y-89458773D01*
X172531115Y-89376954D01*
X172493690Y-89316318D01*
X172461010Y-89273585D01*
X172430868Y-89245472D01*
X172401058Y-89228698D01*
X172372157Y-89220482D01*
X172326063Y-89209273D01*
X172312443Y-89199405D01*
X172329918Y-89191181D01*
X172377112Y-89184904D01*
X172452646Y-89180877D01*
X172555144Y-89179401D01*
X172559134Y-89179400D01*
X172660364Y-89180531D01*
X172737037Y-89183788D01*
X172786124Y-89188960D01*
X172804598Y-89195840D01*
X172804667Y-89196333D01*
X172791153Y-89211794D01*
X172781891Y-89213266D01*
X172753989Y-89224865D01*
X172729697Y-89245773D01*
X172713472Y-89266896D01*
X172709876Y-89288260D01*
X172719532Y-89320889D01*
X172736146Y-89360073D01*
X172769821Y-89435209D01*
X172811377Y-89525320D01*
X172858779Y-89626243D01*
X172909991Y-89733816D01*
X172962977Y-89843874D01*
X173015703Y-89952255D01*
X173066132Y-90054796D01*
X173112228Y-90147332D01*
X173151957Y-90225702D01*
X173183282Y-90285742D01*
X173204168Y-90323288D01*
X173212502Y-90334314D01*
X173221199Y-90316298D01*
X173241173Y-90270785D01*
X173270806Y-90201593D01*
X173308478Y-90112539D01*
X173352570Y-90007442D01*
X173401465Y-89890121D01*
X173430607Y-89819861D01*
X173492436Y-89669811D01*
X173541646Y-89547860D01*
X173578925Y-89450965D01*
X173604960Y-89376082D01*
X173620437Y-89320166D01*
X173626044Y-89280175D01*
X173622468Y-89253063D01*
X173610395Y-89235788D01*
X173590514Y-89225305D01*
X173566215Y-89219103D01*
X173524514Y-89207893D01*
X173514859Y-89197910D01*
X173535439Y-89189624D01*
X173584440Y-89183506D01*
X173660051Y-89180026D01*
X173719067Y-89179400D01*
X173817552Y-89180813D01*
G36*
X168808785Y-89740340D02*
X168892813Y-89932878D01*
X168964833Y-90094480D01*
X169025136Y-90225762D01*
X169074015Y-90327343D01*
X169111761Y-90399839D01*
X169138665Y-90443869D01*
X169144733Y-90451698D01*
X169220619Y-90521601D01*
X169307755Y-90570720D01*
X169399194Y-90597299D01*
X169487989Y-90599579D01*
X169567195Y-90575805D01*
X169587506Y-90563700D01*
X169655092Y-90508187D01*
X169694840Y-90448150D01*
X169712265Y-90373172D01*
X169714333Y-90324073D01*
X169710703Y-90262734D01*
X169697284Y-90210462D01*
X169670285Y-90162363D01*
X169625915Y-90113547D01*
X169560384Y-90059119D01*
X169469899Y-89994188D01*
X169446059Y-89977867D01*
X169330019Y-89893849D01*
X169242441Y-89817672D01*
X169180185Y-89744993D01*
X169140114Y-89671468D01*
X169119090Y-89592753D01*
X169113851Y-89518066D01*
X169128645Y-89415321D01*
X169170377Y-89327777D01*
X169234735Y-89257569D01*
X169317411Y-89206835D01*
X169414095Y-89177712D01*
X169520477Y-89172335D01*
X169632250Y-89192843D01*
X169709378Y-89222780D01*
X169748282Y-89247117D01*
X169774362Y-89281850D01*
X169796211Y-89338486D01*
X169796524Y-89339477D01*
X169815291Y-89401682D01*
X169821093Y-89433749D01*
X169811869Y-89437603D01*
X169785556Y-89415172D01*
X169752113Y-89380948D01*
X169701624Y-89334172D01*
X169648627Y-89294085D01*
X169618320Y-89276319D01*
X169530086Y-89250050D01*
X169443107Y-89251703D01*
X169363726Y-89278474D01*
X169298285Y-89327561D01*
X169253125Y-89396160D01*
X169238653Y-89444158D01*
X169237039Y-89495889D01*
X169254532Y-89552235D01*
X169267841Y-89579773D01*
X169288535Y-89613727D01*
X169317232Y-89647856D01*
X169358577Y-89686330D01*
X169417214Y-89733316D01*
X169497787Y-89792985D01*
X169536028Y-89820499D01*
X169645122Y-89901271D01*
X169728095Y-89969961D01*
X169788453Y-90030896D01*
X169829701Y-90088401D01*
X169855345Y-90146803D01*
X169868890Y-90210429D01*
X169871393Y-90234385D01*
X169869108Y-90347018D01*
X169840185Y-90442857D01*
X169782199Y-90528789D01*
X169759116Y-90553325D01*
X169670154Y-90621711D01*
X169567867Y-90666350D01*
X169462141Y-90683283D01*
X169436093Y-90682708D01*
X169397889Y-90681042D01*
X169333583Y-90678997D01*
X169250934Y-90676788D01*
X169157701Y-90674633D01*
X169117433Y-90673800D01*
X169002960Y-90670148D01*
X168921908Y-90664374D01*
X168873896Y-90656400D01*
X168858539Y-90646146D01*
X168875454Y-90633532D01*
X168893085Y-90627194D01*
X168932675Y-90599797D01*
X168952784Y-90556581D01*
X168950618Y-90522593D01*
X168940678Y-90496797D01*
X168919936Y-90446113D01*
X168890981Y-90376762D01*
X168856398Y-90294962D01*
X168837250Y-90250039D01*
X168733943Y-90008344D01*
X168178503Y-90017600D01*
X168095479Y-90229266D01*
X168053556Y-90336690D01*
X168023154Y-90417341D01*
X168003313Y-90475932D01*
X167993077Y-90517174D01*
X167991488Y-90545779D01*
X167997588Y-90566458D01*
X168010419Y-90583924D01*
X168021134Y-90595006D01*
X168056370Y-90623005D01*
X168086533Y-90635610D01*
X168087964Y-90635666D01*
X168110988Y-90644575D01*
X168114134Y-90652600D01*
X168097865Y-90660033D01*
X168051640Y-90665532D01*
X167979332Y-90668775D01*
X167910934Y-90669533D01*
X167821737Y-90668177D01*
X167755743Y-90664325D01*
X167716825Y-90658299D01*
X167707734Y-90652600D01*
X167721874Y-90638713D01*
X167740656Y-90635666D01*
X167762410Y-90633736D01*
X167782876Y-90626212D01*
X167803383Y-90610491D01*
X167825262Y-90583972D01*
X167849841Y-90544051D01*
X167878451Y-90488127D01*
X167912422Y-90413597D01*
X167953083Y-90317859D01*
X168001764Y-90198311D01*
X168059795Y-90052351D01*
X168106096Y-89934440D01*
X168215734Y-89934440D01*
X168231673Y-89936904D01*
X168275517Y-89938984D01*
X168341305Y-89940512D01*
X168423075Y-89941317D01*
X168460625Y-89941400D01*
X168705516Y-89941400D01*
X168646341Y-89803148D01*
X168588407Y-89668608D01*
X168538804Y-89555087D01*
X168498489Y-89464706D01*
X168468419Y-89399581D01*
X168449551Y-89361833D01*
X168443045Y-89352843D01*
X168435632Y-89369367D01*
X168418457Y-89411390D01*
X168393911Y-89472801D01*
X168364381Y-89547487D01*
X168332256Y-89629336D01*
X168299926Y-89712235D01*
X168269780Y-89790072D01*
X168244206Y-89856734D01*
X168225594Y-89906110D01*
X168216333Y-89932086D01*
X168215734Y-89934440D01*
X168106096Y-89934440D01*
X168128505Y-89877376D01*
X168129681Y-89874371D01*
X168186505Y-89730333D01*
X168240278Y-89596267D01*
X168289630Y-89475432D01*
X168333189Y-89371085D01*
X168369583Y-89286484D01*
X168397441Y-89224887D01*
X168415392Y-89189553D01*
X168421053Y-89182225D01*
X168448909Y-89166383D01*
X168484797Y-89137548D01*
X168487051Y-89135473D01*
X168529769Y-89095771D01*
X168808785Y-89740340D01*
X168808785Y-89740340D01*
G37*
X168808785Y-89740340D02*
X168892813Y-89932878D01*
X168964833Y-90094480D01*
X169025136Y-90225762D01*
X169074015Y-90327343D01*
X169111761Y-90399839D01*
X169138665Y-90443869D01*
X169144733Y-90451698D01*
X169220619Y-90521601D01*
X169307755Y-90570720D01*
X169399194Y-90597299D01*
X169487989Y-90599579D01*
X169567195Y-90575805D01*
X169587506Y-90563700D01*
X169655092Y-90508187D01*
X169694840Y-90448150D01*
X169712265Y-90373172D01*
X169714333Y-90324073D01*
X169710703Y-90262734D01*
X169697284Y-90210462D01*
X169670285Y-90162363D01*
X169625915Y-90113547D01*
X169560384Y-90059119D01*
X169469899Y-89994188D01*
X169446059Y-89977867D01*
X169330019Y-89893849D01*
X169242441Y-89817672D01*
X169180185Y-89744993D01*
X169140114Y-89671468D01*
X169119090Y-89592753D01*
X169113851Y-89518066D01*
X169128645Y-89415321D01*
X169170377Y-89327777D01*
X169234735Y-89257569D01*
X169317411Y-89206835D01*
X169414095Y-89177712D01*
X169520477Y-89172335D01*
X169632250Y-89192843D01*
X169709378Y-89222780D01*
X169748282Y-89247117D01*
X169774362Y-89281850D01*
X169796211Y-89338486D01*
X169796524Y-89339477D01*
X169815291Y-89401682D01*
X169821093Y-89433749D01*
X169811869Y-89437603D01*
X169785556Y-89415172D01*
X169752113Y-89380948D01*
X169701624Y-89334172D01*
X169648627Y-89294085D01*
X169618320Y-89276319D01*
X169530086Y-89250050D01*
X169443107Y-89251703D01*
X169363726Y-89278474D01*
X169298285Y-89327561D01*
X169253125Y-89396160D01*
X169238653Y-89444158D01*
X169237039Y-89495889D01*
X169254532Y-89552235D01*
X169267841Y-89579773D01*
X169288535Y-89613727D01*
X169317232Y-89647856D01*
X169358577Y-89686330D01*
X169417214Y-89733316D01*
X169497787Y-89792985D01*
X169536028Y-89820499D01*
X169645122Y-89901271D01*
X169728095Y-89969961D01*
X169788453Y-90030896D01*
X169829701Y-90088401D01*
X169855345Y-90146803D01*
X169868890Y-90210429D01*
X169871393Y-90234385D01*
X169869108Y-90347018D01*
X169840185Y-90442857D01*
X169782199Y-90528789D01*
X169759116Y-90553325D01*
X169670154Y-90621711D01*
X169567867Y-90666350D01*
X169462141Y-90683283D01*
X169436093Y-90682708D01*
X169397889Y-90681042D01*
X169333583Y-90678997D01*
X169250934Y-90676788D01*
X169157701Y-90674633D01*
X169117433Y-90673800D01*
X169002960Y-90670148D01*
X168921908Y-90664374D01*
X168873896Y-90656400D01*
X168858539Y-90646146D01*
X168875454Y-90633532D01*
X168893085Y-90627194D01*
X168932675Y-90599797D01*
X168952784Y-90556581D01*
X168950618Y-90522593D01*
X168940678Y-90496797D01*
X168919936Y-90446113D01*
X168890981Y-90376762D01*
X168856398Y-90294962D01*
X168837250Y-90250039D01*
X168733943Y-90008344D01*
X168178503Y-90017600D01*
X168095479Y-90229266D01*
X168053556Y-90336690D01*
X168023154Y-90417341D01*
X168003313Y-90475932D01*
X167993077Y-90517174D01*
X167991488Y-90545779D01*
X167997588Y-90566458D01*
X168010419Y-90583924D01*
X168021134Y-90595006D01*
X168056370Y-90623005D01*
X168086533Y-90635610D01*
X168087964Y-90635666D01*
X168110988Y-90644575D01*
X168114134Y-90652600D01*
X168097865Y-90660033D01*
X168051640Y-90665532D01*
X167979332Y-90668775D01*
X167910934Y-90669533D01*
X167821737Y-90668177D01*
X167755743Y-90664325D01*
X167716825Y-90658299D01*
X167707734Y-90652600D01*
X167721874Y-90638713D01*
X167740656Y-90635666D01*
X167762410Y-90633736D01*
X167782876Y-90626212D01*
X167803383Y-90610491D01*
X167825262Y-90583972D01*
X167849841Y-90544051D01*
X167878451Y-90488127D01*
X167912422Y-90413597D01*
X167953083Y-90317859D01*
X168001764Y-90198311D01*
X168059795Y-90052351D01*
X168106096Y-89934440D01*
X168215734Y-89934440D01*
X168231673Y-89936904D01*
X168275517Y-89938984D01*
X168341305Y-89940512D01*
X168423075Y-89941317D01*
X168460625Y-89941400D01*
X168705516Y-89941400D01*
X168646341Y-89803148D01*
X168588407Y-89668608D01*
X168538804Y-89555087D01*
X168498489Y-89464706D01*
X168468419Y-89399581D01*
X168449551Y-89361833D01*
X168443045Y-89352843D01*
X168435632Y-89369367D01*
X168418457Y-89411390D01*
X168393911Y-89472801D01*
X168364381Y-89547487D01*
X168332256Y-89629336D01*
X168299926Y-89712235D01*
X168269780Y-89790072D01*
X168244206Y-89856734D01*
X168225594Y-89906110D01*
X168216333Y-89932086D01*
X168215734Y-89934440D01*
X168106096Y-89934440D01*
X168128505Y-89877376D01*
X168129681Y-89874371D01*
X168186505Y-89730333D01*
X168240278Y-89596267D01*
X168289630Y-89475432D01*
X168333189Y-89371085D01*
X168369583Y-89286484D01*
X168397441Y-89224887D01*
X168415392Y-89189553D01*
X168421053Y-89182225D01*
X168448909Y-89166383D01*
X168484797Y-89137548D01*
X168487051Y-89135473D01*
X168529769Y-89095771D01*
X168808785Y-89740340D01*
G36*
X166129597Y-89721573D02*
X166224876Y-89736115D01*
X166320227Y-89756543D01*
X166410462Y-89781038D01*
X166490393Y-89807779D01*
X166554834Y-89834947D01*
X166598597Y-89860722D01*
X166616495Y-89883283D01*
X166614789Y-89891805D01*
X166594381Y-89897200D01*
X166563576Y-89890159D01*
X166457205Y-89858493D01*
X166327335Y-89833479D01*
X166183824Y-89815917D01*
X166036530Y-89806610D01*
X165895312Y-89806357D01*
X165770026Y-89815959D01*
X165728728Y-89822344D01*
X165655388Y-89838626D01*
X165579210Y-89860328D01*
X165507285Y-89884811D01*
X165446699Y-89909437D01*
X165404542Y-89931569D01*
X165387902Y-89948568D01*
X165387867Y-89949188D01*
X165394726Y-89974410D01*
X165413626Y-90024566D01*
X165442050Y-90094013D01*
X165477480Y-90177109D01*
X165517400Y-90268209D01*
X165559292Y-90361669D01*
X165600641Y-90451848D01*
X165638928Y-90533100D01*
X165671636Y-90599784D01*
X165696250Y-90646254D01*
X165705365Y-90661066D01*
X165761676Y-90720940D01*
X165834498Y-90769187D01*
X165911668Y-90798899D01*
X165958721Y-90805000D01*
X166001113Y-90811268D01*
X166014400Y-90830400D01*
X166010645Y-90838065D01*
X165996990Y-90844048D01*
X165969848Y-90848549D01*
X165925631Y-90851766D01*
X165860754Y-90853898D01*
X165771629Y-90855146D01*
X165654670Y-90855708D01*
X165557200Y-90855800D01*
X165419222Y-90855591D01*
X165311521Y-90854832D01*
X165230512Y-90853324D01*
X165172608Y-90850868D01*
X165134221Y-90847264D01*
X165111766Y-90842312D01*
X165101655Y-90835814D01*
X165100000Y-90830400D01*
X165114789Y-90810014D01*
X165143636Y-90805000D01*
X165195822Y-90789721D01*
X165242568Y-90750245D01*
X165275460Y-90696109D01*
X165286267Y-90643302D01*
X165278276Y-90591000D01*
X165255029Y-90512069D01*
X165217617Y-90409539D01*
X165167129Y-90286441D01*
X165117448Y-90173847D01*
X165065745Y-90059819D01*
X164892372Y-90146554D01*
X164751295Y-90219034D01*
X164623639Y-90289227D01*
X164497833Y-90363860D01*
X164362305Y-90449660D01*
X164293861Y-90494500D01*
X164206687Y-90551113D01*
X164143708Y-90589433D01*
X164101697Y-90611036D01*
X164077422Y-90617500D01*
X164067656Y-90610403D01*
X164067067Y-90605283D01*
X164081112Y-90584706D01*
X164120695Y-90549751D01*
X164181983Y-90502907D01*
X164261145Y-90446665D01*
X164354352Y-90383513D01*
X164457770Y-90315940D01*
X164567570Y-90246436D01*
X164679921Y-90177489D01*
X164790990Y-90111588D01*
X164896948Y-90051223D01*
X164993962Y-89998883D01*
X165024528Y-89983207D01*
X165244598Y-89880094D01*
X165447387Y-89802366D01*
X165636909Y-89749072D01*
X165817175Y-89719263D01*
X165992200Y-89711989D01*
X166129597Y-89721573D01*
X166129597Y-89721573D01*
G37*
X166129597Y-89721573D02*
X166224876Y-89736115D01*
X166320227Y-89756543D01*
X166410462Y-89781038D01*
X166490393Y-89807779D01*
X166554834Y-89834947D01*
X166598597Y-89860722D01*
X166616495Y-89883283D01*
X166614789Y-89891805D01*
X166594381Y-89897200D01*
X166563576Y-89890159D01*
X166457205Y-89858493D01*
X166327335Y-89833479D01*
X166183824Y-89815917D01*
X166036530Y-89806610D01*
X165895312Y-89806357D01*
X165770026Y-89815959D01*
X165728728Y-89822344D01*
X165655388Y-89838626D01*
X165579210Y-89860328D01*
X165507285Y-89884811D01*
X165446699Y-89909437D01*
X165404542Y-89931569D01*
X165387902Y-89948568D01*
X165387867Y-89949188D01*
X165394726Y-89974410D01*
X165413626Y-90024566D01*
X165442050Y-90094013D01*
X165477480Y-90177109D01*
X165517400Y-90268209D01*
X165559292Y-90361669D01*
X165600641Y-90451848D01*
X165638928Y-90533100D01*
X165671636Y-90599784D01*
X165696250Y-90646254D01*
X165705365Y-90661066D01*
X165761676Y-90720940D01*
X165834498Y-90769187D01*
X165911668Y-90798899D01*
X165958721Y-90805000D01*
X166001113Y-90811268D01*
X166014400Y-90830400D01*
X166010645Y-90838065D01*
X165996990Y-90844048D01*
X165969848Y-90848549D01*
X165925631Y-90851766D01*
X165860754Y-90853898D01*
X165771629Y-90855146D01*
X165654670Y-90855708D01*
X165557200Y-90855800D01*
X165419222Y-90855591D01*
X165311521Y-90854832D01*
X165230512Y-90853324D01*
X165172608Y-90850868D01*
X165134221Y-90847264D01*
X165111766Y-90842312D01*
X165101655Y-90835814D01*
X165100000Y-90830400D01*
X165114789Y-90810014D01*
X165143636Y-90805000D01*
X165195822Y-90789721D01*
X165242568Y-90750245D01*
X165275460Y-90696109D01*
X165286267Y-90643302D01*
X165278276Y-90591000D01*
X165255029Y-90512069D01*
X165217617Y-90409539D01*
X165167129Y-90286441D01*
X165117448Y-90173847D01*
X165065745Y-90059819D01*
X164892372Y-90146554D01*
X164751295Y-90219034D01*
X164623639Y-90289227D01*
X164497833Y-90363860D01*
X164362305Y-90449660D01*
X164293861Y-90494500D01*
X164206687Y-90551113D01*
X164143708Y-90589433D01*
X164101697Y-90611036D01*
X164077422Y-90617500D01*
X164067656Y-90610403D01*
X164067067Y-90605283D01*
X164081112Y-90584706D01*
X164120695Y-90549751D01*
X164181983Y-90502907D01*
X164261145Y-90446665D01*
X164354352Y-90383513D01*
X164457770Y-90315940D01*
X164567570Y-90246436D01*
X164679921Y-90177489D01*
X164790990Y-90111588D01*
X164896948Y-90051223D01*
X164993962Y-89998883D01*
X165024528Y-89983207D01*
X165244598Y-89880094D01*
X165447387Y-89802366D01*
X165636909Y-89749072D01*
X165817175Y-89719263D01*
X165992200Y-89711989D01*
X166129597Y-89721573D01*
G36*
X164434120Y-87722873D02*
X164454339Y-87767783D01*
X164485570Y-87838104D01*
X164526571Y-87931011D01*
X164576100Y-88043679D01*
X164632913Y-88173284D01*
X164695769Y-88317001D01*
X164763425Y-88472004D01*
X164809732Y-88578266D01*
X164880101Y-88739671D01*
X164946683Y-88892067D01*
X165008207Y-89032567D01*
X165063404Y-89158283D01*
X165111001Y-89266330D01*
X165149728Y-89353820D01*
X165178315Y-89417866D01*
X165195489Y-89455581D01*
X165199901Y-89464561D01*
X165212525Y-89473392D01*
X165238198Y-89473384D01*
X165282661Y-89463596D01*
X165351654Y-89443090D01*
X165373492Y-89436152D01*
X165551298Y-89384995D01*
X165716097Y-89351196D01*
X165882472Y-89332473D01*
X166065004Y-89326541D01*
X166073667Y-89326539D01*
X166290348Y-89336453D01*
X166483211Y-89366885D01*
X166656537Y-89419449D01*
X166814608Y-89495759D01*
X166961705Y-89597429D01*
X167083635Y-89707318D01*
X167156045Y-89783092D01*
X167203240Y-89841032D01*
X167226916Y-89883868D01*
X167228766Y-89914327D01*
X167220392Y-89927515D01*
X167200719Y-89923654D01*
X167160690Y-89894208D01*
X167101244Y-89839924D01*
X167062076Y-89801229D01*
X166928949Y-89683773D01*
X166785846Y-89591984D01*
X166625027Y-89521495D01*
X166497000Y-89482285D01*
X166361531Y-89457090D01*
X166205626Y-89445451D01*
X166039886Y-89447374D01*
X165874913Y-89462863D01*
X165764910Y-89481919D01*
X165628356Y-89514046D01*
X165498458Y-89552005D01*
X165371231Y-89597820D01*
X165242691Y-89653516D01*
X165108852Y-89721118D01*
X164965731Y-89802650D01*
X164809342Y-89900137D01*
X164635700Y-90015604D01*
X164440820Y-90151076D01*
X164422667Y-90163919D01*
X164141350Y-90354335D01*
X163875608Y-90516034D01*
X163625782Y-90648831D01*
X163392210Y-90752541D01*
X163245800Y-90805397D01*
X163169896Y-90828891D01*
X163105798Y-90845016D01*
X163042797Y-90855412D01*
X162970186Y-90861721D01*
X162877255Y-90865586D01*
X162847867Y-90866408D01*
X162743670Y-90868102D01*
X162664735Y-90866462D01*
X162602565Y-90860854D01*
X162548662Y-90850644D01*
X162515318Y-90841622D01*
X162420673Y-90809899D01*
X162338805Y-90775421D01*
X162274878Y-90740937D01*
X162234054Y-90709192D01*
X162221334Y-90685221D01*
X162229519Y-90660143D01*
X162256167Y-90655062D01*
X162304419Y-90670163D01*
X162353130Y-90693044D01*
X162508505Y-90754921D01*
X162669340Y-90784684D01*
X162749884Y-90788066D01*
X162851209Y-90783117D01*
X162928065Y-90766236D01*
X162988662Y-90734373D01*
X163041213Y-90684476D01*
X163046874Y-90677732D01*
X163056069Y-90666449D01*
X163064890Y-90654736D01*
X163074100Y-90640728D01*
X163084459Y-90622562D01*
X163095509Y-90600779D01*
X163358291Y-90600779D01*
X163362845Y-90618483D01*
X163363974Y-90618733D01*
X163383789Y-90611365D01*
X163425447Y-90591798D01*
X163480948Y-90563838D01*
X163497324Y-90555315D01*
X163556152Y-90521995D01*
X163637325Y-90472470D01*
X163735617Y-90410201D01*
X163845805Y-90338651D01*
X163962663Y-90261283D01*
X164080965Y-90181559D01*
X164195487Y-90102941D01*
X164301005Y-90028893D01*
X164392292Y-89962876D01*
X164400566Y-89956753D01*
X164501875Y-89883386D01*
X164608595Y-89809170D01*
X164711488Y-89740349D01*
X164801314Y-89683172D01*
X164836678Y-89661929D01*
X164842560Y-89655358D01*
X164844330Y-89642732D01*
X164840966Y-89621365D01*
X164831444Y-89588567D01*
X164814741Y-89541653D01*
X164789833Y-89477934D01*
X164755698Y-89394723D01*
X164711311Y-89289333D01*
X164655650Y-89159075D01*
X164587691Y-89001263D01*
X164565869Y-88950729D01*
X164503748Y-88807007D01*
X164445844Y-88673173D01*
X164393517Y-88552364D01*
X164348129Y-88447718D01*
X164311041Y-88362372D01*
X164283617Y-88299463D01*
X164267216Y-88262129D01*
X164262962Y-88252791D01*
X164256087Y-88266869D01*
X164238203Y-88309548D01*
X164210478Y-88377828D01*
X164174084Y-88468708D01*
X164130188Y-88579190D01*
X164079962Y-88706272D01*
X164024573Y-88846955D01*
X163965193Y-88998238D01*
X163902989Y-89157122D01*
X163839133Y-89320607D01*
X163774792Y-89485691D01*
X163711138Y-89649377D01*
X163649339Y-89808662D01*
X163590564Y-89960548D01*
X163535984Y-90102033D01*
X163486768Y-90230119D01*
X163444085Y-90341805D01*
X163409105Y-90434091D01*
X163382998Y-90503976D01*
X163366932Y-90548462D01*
X163362105Y-90563700D01*
X163358291Y-90600779D01*
X163095509Y-90600779D01*
X163096730Y-90598373D01*
X163111675Y-90566296D01*
X163130056Y-90524467D01*
X163152634Y-90471021D01*
X163180173Y-90404093D01*
X163213433Y-90321819D01*
X163253177Y-90222335D01*
X163300166Y-90103775D01*
X163355163Y-89964276D01*
X163418930Y-89801973D01*
X163492228Y-89615000D01*
X163575820Y-89401494D01*
X163670467Y-89159591D01*
X163742023Y-88976663D01*
X164162453Y-87901860D01*
X164220324Y-87890025D01*
X164274190Y-87865629D01*
X164331795Y-87817806D01*
X164384189Y-87754527D01*
X164399514Y-87730417D01*
X164417200Y-87708170D01*
X164426156Y-87706200D01*
X164434120Y-87722873D01*
X164434120Y-87722873D01*
G37*
X164434120Y-87722873D02*
X164454339Y-87767783D01*
X164485570Y-87838104D01*
X164526571Y-87931011D01*
X164576100Y-88043679D01*
X164632913Y-88173284D01*
X164695769Y-88317001D01*
X164763425Y-88472004D01*
X164809732Y-88578266D01*
X164880101Y-88739671D01*
X164946683Y-88892067D01*
X165008207Y-89032567D01*
X165063404Y-89158283D01*
X165111001Y-89266330D01*
X165149728Y-89353820D01*
X165178315Y-89417866D01*
X165195489Y-89455581D01*
X165199901Y-89464561D01*
X165212525Y-89473392D01*
X165238198Y-89473384D01*
X165282661Y-89463596D01*
X165351654Y-89443090D01*
X165373492Y-89436152D01*
X165551298Y-89384995D01*
X165716097Y-89351196D01*
X165882472Y-89332473D01*
X166065004Y-89326541D01*
X166073667Y-89326539D01*
X166290348Y-89336453D01*
X166483211Y-89366885D01*
X166656537Y-89419449D01*
X166814608Y-89495759D01*
X166961705Y-89597429D01*
X167083635Y-89707318D01*
X167156045Y-89783092D01*
X167203240Y-89841032D01*
X167226916Y-89883868D01*
X167228766Y-89914327D01*
X167220392Y-89927515D01*
X167200719Y-89923654D01*
X167160690Y-89894208D01*
X167101244Y-89839924D01*
X167062076Y-89801229D01*
X166928949Y-89683773D01*
X166785846Y-89591984D01*
X166625027Y-89521495D01*
X166497000Y-89482285D01*
X166361531Y-89457090D01*
X166205626Y-89445451D01*
X166039886Y-89447374D01*
X165874913Y-89462863D01*
X165764910Y-89481919D01*
X165628356Y-89514046D01*
X165498458Y-89552005D01*
X165371231Y-89597820D01*
X165242691Y-89653516D01*
X165108852Y-89721118D01*
X164965731Y-89802650D01*
X164809342Y-89900137D01*
X164635700Y-90015604D01*
X164440820Y-90151076D01*
X164422667Y-90163919D01*
X164141350Y-90354335D01*
X163875608Y-90516034D01*
X163625782Y-90648831D01*
X163392210Y-90752541D01*
X163245800Y-90805397D01*
X163169896Y-90828891D01*
X163105798Y-90845016D01*
X163042797Y-90855412D01*
X162970186Y-90861721D01*
X162877255Y-90865586D01*
X162847867Y-90866408D01*
X162743670Y-90868102D01*
X162664735Y-90866462D01*
X162602565Y-90860854D01*
X162548662Y-90850644D01*
X162515318Y-90841622D01*
X162420673Y-90809899D01*
X162338805Y-90775421D01*
X162274878Y-90740937D01*
X162234054Y-90709192D01*
X162221334Y-90685221D01*
X162229519Y-90660143D01*
X162256167Y-90655062D01*
X162304419Y-90670163D01*
X162353130Y-90693044D01*
X162508505Y-90754921D01*
X162669340Y-90784684D01*
X162749884Y-90788066D01*
X162851209Y-90783117D01*
X162928065Y-90766236D01*
X162988662Y-90734373D01*
X163041213Y-90684476D01*
X163046874Y-90677732D01*
X163056069Y-90666449D01*
X163064890Y-90654736D01*
X163074100Y-90640728D01*
X163084459Y-90622562D01*
X163095509Y-90600779D01*
X163358291Y-90600779D01*
X163362845Y-90618483D01*
X163363974Y-90618733D01*
X163383789Y-90611365D01*
X163425447Y-90591798D01*
X163480948Y-90563838D01*
X163497324Y-90555315D01*
X163556152Y-90521995D01*
X163637325Y-90472470D01*
X163735617Y-90410201D01*
X163845805Y-90338651D01*
X163962663Y-90261283D01*
X164080965Y-90181559D01*
X164195487Y-90102941D01*
X164301005Y-90028893D01*
X164392292Y-89962876D01*
X164400566Y-89956753D01*
X164501875Y-89883386D01*
X164608595Y-89809170D01*
X164711488Y-89740349D01*
X164801314Y-89683172D01*
X164836678Y-89661929D01*
X164842560Y-89655358D01*
X164844330Y-89642732D01*
X164840966Y-89621365D01*
X164831444Y-89588567D01*
X164814741Y-89541653D01*
X164789833Y-89477934D01*
X164755698Y-89394723D01*
X164711311Y-89289333D01*
X164655650Y-89159075D01*
X164587691Y-89001263D01*
X164565869Y-88950729D01*
X164503748Y-88807007D01*
X164445844Y-88673173D01*
X164393517Y-88552364D01*
X164348129Y-88447718D01*
X164311041Y-88362372D01*
X164283617Y-88299463D01*
X164267216Y-88262129D01*
X164262962Y-88252791D01*
X164256087Y-88266869D01*
X164238203Y-88309548D01*
X164210478Y-88377828D01*
X164174084Y-88468708D01*
X164130188Y-88579190D01*
X164079962Y-88706272D01*
X164024573Y-88846955D01*
X163965193Y-88998238D01*
X163902989Y-89157122D01*
X163839133Y-89320607D01*
X163774792Y-89485691D01*
X163711138Y-89649377D01*
X163649339Y-89808662D01*
X163590564Y-89960548D01*
X163535984Y-90102033D01*
X163486768Y-90230119D01*
X163444085Y-90341805D01*
X163409105Y-90434091D01*
X163382998Y-90503976D01*
X163366932Y-90548462D01*
X163362105Y-90563700D01*
X163358291Y-90600779D01*
X163095509Y-90600779D01*
X163096730Y-90598373D01*
X163111675Y-90566296D01*
X163130056Y-90524467D01*
X163152634Y-90471021D01*
X163180173Y-90404093D01*
X163213433Y-90321819D01*
X163253177Y-90222335D01*
X163300166Y-90103775D01*
X163355163Y-89964276D01*
X163418930Y-89801973D01*
X163492228Y-89615000D01*
X163575820Y-89401494D01*
X163670467Y-89159591D01*
X163742023Y-88976663D01*
X164162453Y-87901860D01*
X164220324Y-87890025D01*
X164274190Y-87865629D01*
X164331795Y-87817806D01*
X164384189Y-87754527D01*
X164399514Y-87730417D01*
X164417200Y-87708170D01*
X164426156Y-87706200D01*
X164434120Y-87722873D01*
D11*
X185400000Y-93280000D02*
X190970000Y-93280000D01*
X190970000Y-93280000D02*
X190970000Y-87100000D01*
X190970000Y-87100000D02*
X188100000Y-87100000D01*
X188100000Y-87100000D02*
X188100000Y-84240000D01*
X188100000Y-84240000D02*
X185400000Y-84240000D01*
X185400000Y-93280000D02*
X179830000Y-93280000D01*
X179830000Y-93280000D02*
X179830000Y-87100000D01*
X179830000Y-87100000D02*
X182700000Y-87100000D01*
X182700000Y-87100000D02*
X182700000Y-84240000D01*
X182700000Y-84240000D02*
X185400000Y-84240000D01*
X187500000Y-86500000D02*
X187500000Y-84840000D01*
X187500000Y-84840000D02*
X183300000Y-84840000D01*
X183300000Y-84840000D02*
X183300000Y-86500000D01*
X183300000Y-86500000D02*
X187500000Y-86500000D01*
X191370000Y-88940000D02*
X191970000Y-88640000D01*
X191970000Y-88640000D02*
X191970000Y-89240000D01*
X191970000Y-89240000D02*
X191370000Y-88940000D01*
X181763000Y-120420000D02*
X180688000Y-120420000D01*
X181763000Y-123545000D02*
X185013000Y-123545000D01*
X181763000Y-120295000D02*
X185013000Y-120295000D01*
X181763000Y-123545000D02*
X181763000Y-123320000D01*
X185013000Y-123545000D02*
X185013000Y-123320000D01*
X185013000Y-120295000D02*
X185013000Y-120520000D01*
X181763000Y-120295000D02*
X181763000Y-120420000D01*
X193532000Y-103115000D02*
X191532000Y-103115000D01*
X191532000Y-105165000D02*
X193532000Y-105165000D01*
X169926000Y-122174000D02*
X172466000Y-122174000D01*
X167106000Y-121894000D02*
X168656000Y-121894000D01*
X169926000Y-122174000D02*
X169926000Y-124714000D01*
X168656000Y-124994000D02*
X167106000Y-124994000D01*
X167106000Y-124994000D02*
X167106000Y-121894000D01*
X169926000Y-124714000D02*
X172466000Y-124714000D01*
X172466000Y-124714000D02*
X172466000Y-122174000D01*
X166142000Y-121894000D02*
X166142000Y-123444000D01*
X163042000Y-123444000D02*
X163042000Y-121894000D01*
X163042000Y-121894000D02*
X166142000Y-121894000D01*
X163322000Y-124714000D02*
X165862000Y-124714000D01*
X175276000Y-122369000D02*
X177276000Y-122369000D01*
X177276000Y-124519000D02*
X175276000Y-124519000D01*
X167624000Y-121471000D02*
X165624000Y-121471000D01*
X165624000Y-119321000D02*
X167624000Y-119321000D01*
X174228000Y-121471000D02*
X172228000Y-121471000D01*
X172228000Y-119321000D02*
X174228000Y-119321000D01*
X194056000Y-105791000D02*
X199136000Y-105791000D01*
X194056000Y-117221000D02*
X194056000Y-105791000D01*
X200406000Y-117221000D02*
X194056000Y-117221000D01*
X200406000Y-105791000D02*
X200406000Y-117221000D01*
X199136000Y-105791000D02*
X200406000Y-105791000D01*
X177765000Y-113327000D02*
X177815000Y-113327000D01*
X177765000Y-109177000D02*
X177910000Y-109177000D01*
X182915000Y-109177000D02*
X182770000Y-109177000D01*
X182915000Y-113327000D02*
X182770000Y-113327000D01*
X177765000Y-113327000D02*
X177765000Y-109177000D01*
X182915000Y-113327000D02*
X182915000Y-109177000D01*
X177815000Y-113327000D02*
X177815000Y-114727000D01*
X156937000Y-112311000D02*
X156987000Y-112311000D01*
X156937000Y-108161000D02*
X157082000Y-108161000D01*
X162087000Y-108161000D02*
X161942000Y-108161000D01*
X162087000Y-112311000D02*
X161942000Y-112311000D01*
X156937000Y-112311000D02*
X156937000Y-108161000D01*
X162087000Y-112311000D02*
X162087000Y-108161000D01*
X156987000Y-112311000D02*
X156987000Y-113711000D01*
X200533000Y-98044000D02*
X199390000Y-98044000D01*
X200533000Y-101092000D02*
X199390000Y-101092000D01*
X199390000Y-104902000D02*
X195707000Y-104902000D01*
X195707000Y-104902000D02*
X195707000Y-94234000D01*
X195707000Y-94234000D02*
X199390000Y-94234000D01*
X200533000Y-104902000D02*
X199390000Y-104902000D01*
X199390000Y-104902000D02*
X199390000Y-94234000D01*
X199390000Y-94234000D02*
X200533000Y-94234000D01*
X200533000Y-99568000D02*
X200533000Y-94234000D01*
X200533000Y-99568000D02*
X200533000Y-104902000D01*
X188367000Y-117195000D02*
X188492000Y-117195000D01*
X188367000Y-113945000D02*
X188592000Y-113945000D01*
X191617000Y-113945000D02*
X191392000Y-113945000D01*
X191617000Y-117195000D02*
X191392000Y-117195000D01*
X188367000Y-117195000D02*
X188367000Y-113945000D01*
X191617000Y-117195000D02*
X191617000Y-113945000D01*
X188492000Y-117195000D02*
X188492000Y-118270000D01*
X191883000Y-108112000D02*
X191883000Y-109312000D01*
X190133000Y-109312000D02*
X190133000Y-108112000D01*
X192405095Y-90432000D02*
X192309857Y-90384380D01*
X192167000Y-90384380D01*
X192024142Y-90432000D01*
X191928904Y-90527238D01*
X191881285Y-90622476D01*
X191833666Y-90812952D01*
X191833666Y-90955809D01*
X191881285Y-91146285D01*
X191928904Y-91241523D01*
X192024142Y-91336761D01*
X192167000Y-91384380D01*
X192262238Y-91384380D01*
X192405095Y-91336761D01*
X192452714Y-91289142D01*
X192452714Y-90955809D01*
X192262238Y-90955809D01*
X192881285Y-91384380D02*
X192881285Y-90384380D01*
X193452714Y-91384380D01*
X193452714Y-90384380D01*
X193928904Y-91384380D02*
X193928904Y-90384380D01*
X194167000Y-90384380D01*
X194309857Y-90432000D01*
X194405095Y-90527238D01*
X194452714Y-90622476D01*
X194500333Y-90812952D01*
X194500333Y-90955809D01*
X194452714Y-91146285D01*
X194405095Y-91241523D01*
X194309857Y-91336761D01*
X194167000Y-91384380D01*
X193928904Y-91384380D01*
X191539904Y-93289380D02*
X191539904Y-92289380D01*
X191920857Y-92289380D01*
X192016095Y-92337000D01*
X192063714Y-92384619D01*
X192111333Y-92479857D01*
X192111333Y-92622714D01*
X192063714Y-92717952D01*
X192016095Y-92765571D01*
X191920857Y-92813190D01*
X191539904Y-92813190D01*
X192444666Y-92289380D02*
X193063714Y-92289380D01*
X192730380Y-92670333D01*
X192873238Y-92670333D01*
X192968476Y-92717952D01*
X193016095Y-92765571D01*
X193063714Y-92860809D01*
X193063714Y-93098904D01*
X193016095Y-93194142D01*
X192968476Y-93241761D01*
X192873238Y-93289380D01*
X192587523Y-93289380D01*
X192492285Y-93241761D01*
X192444666Y-93194142D01*
X181102095Y-118822380D02*
X181102095Y-119631904D01*
X181149714Y-119727142D01*
X181197333Y-119774761D01*
X181292571Y-119822380D01*
X181483047Y-119822380D01*
X181578285Y-119774761D01*
X181625904Y-119727142D01*
X181673523Y-119631904D01*
X181673523Y-118822380D01*
X182673523Y-119822380D02*
X182102095Y-119822380D01*
X182387809Y-119822380D02*
X182387809Y-118822380D01*
X182292571Y-118965238D01*
X182197333Y-119060476D01*
X182102095Y-119108095D01*
X192111333Y-102465142D02*
X192063714Y-102512761D01*
X191920857Y-102560380D01*
X191825619Y-102560380D01*
X191682761Y-102512761D01*
X191587523Y-102417523D01*
X191539904Y-102322285D01*
X191492285Y-102131809D01*
X191492285Y-101988952D01*
X191539904Y-101798476D01*
X191587523Y-101703238D01*
X191682761Y-101608000D01*
X191825619Y-101560380D01*
X191920857Y-101560380D01*
X192063714Y-101608000D01*
X192111333Y-101655619D01*
X192444666Y-101560380D02*
X193111333Y-101560380D01*
X192682761Y-102560380D01*
X164008380Y-124182095D02*
X163008380Y-124182095D01*
X163008380Y-123801142D01*
X163056000Y-123705904D01*
X163103619Y-123658285D01*
X163198857Y-123610666D01*
X163341714Y-123610666D01*
X163436952Y-123658285D01*
X163484571Y-123705904D01*
X163532190Y-123801142D01*
X163532190Y-124182095D01*
X164008380Y-122658285D02*
X164008380Y-123229714D01*
X164008380Y-122944000D02*
X163008380Y-122944000D01*
X163151238Y-123039238D01*
X163246476Y-123134476D01*
X163294095Y-123229714D01*
X163853904Y-118796380D02*
X163853904Y-117796380D01*
X164234857Y-117796380D01*
X164330095Y-117844000D01*
X164377714Y-117891619D01*
X164425333Y-117986857D01*
X164425333Y-118129714D01*
X164377714Y-118224952D01*
X164330095Y-118272571D01*
X164234857Y-118320190D01*
X163853904Y-118320190D01*
X164806285Y-117891619D02*
X164853904Y-117844000D01*
X164949142Y-117796380D01*
X165187238Y-117796380D01*
X165282476Y-117844000D01*
X165330095Y-117891619D01*
X165377714Y-117986857D01*
X165377714Y-118082095D01*
X165330095Y-118224952D01*
X164758666Y-118796380D01*
X165377714Y-118796380D01*
X177887333Y-122118380D02*
X177554000Y-121642190D01*
X177315904Y-122118380D02*
X177315904Y-121118380D01*
X177696857Y-121118380D01*
X177792095Y-121166000D01*
X177839714Y-121213619D01*
X177887333Y-121308857D01*
X177887333Y-121451714D01*
X177839714Y-121546952D01*
X177792095Y-121594571D01*
X177696857Y-121642190D01*
X177315904Y-121642190D01*
X178839714Y-122118380D02*
X178268285Y-122118380D01*
X178554000Y-122118380D02*
X178554000Y-121118380D01*
X178458761Y-121261238D01*
X178363523Y-121356476D01*
X178268285Y-121404095D01*
X166457333Y-118548380D02*
X166124000Y-118072190D01*
X165885904Y-118548380D02*
X165885904Y-117548380D01*
X166266857Y-117548380D01*
X166362095Y-117596000D01*
X166409714Y-117643619D01*
X166457333Y-117738857D01*
X166457333Y-117881714D01*
X166409714Y-117976952D01*
X166362095Y-118024571D01*
X166266857Y-118072190D01*
X165885904Y-118072190D01*
X167314476Y-117548380D02*
X167124000Y-117548380D01*
X167028761Y-117596000D01*
X166981142Y-117643619D01*
X166885904Y-117786476D01*
X166838285Y-117976952D01*
X166838285Y-118357904D01*
X166885904Y-118453142D01*
X166933523Y-118500761D01*
X167028761Y-118548380D01*
X167219238Y-118548380D01*
X167314476Y-118500761D01*
X167362095Y-118453142D01*
X167409714Y-118357904D01*
X167409714Y-118119809D01*
X167362095Y-118024571D01*
X167314476Y-117976952D01*
X167219238Y-117929333D01*
X167028761Y-117929333D01*
X166933523Y-117976952D01*
X166885904Y-118024571D01*
X166838285Y-118119809D01*
X173061333Y-118548380D02*
X172728000Y-118072190D01*
X172489904Y-118548380D02*
X172489904Y-117548380D01*
X172870857Y-117548380D01*
X172966095Y-117596000D01*
X173013714Y-117643619D01*
X173061333Y-117738857D01*
X173061333Y-117881714D01*
X173013714Y-117976952D01*
X172966095Y-118024571D01*
X172870857Y-118072190D01*
X172489904Y-118072190D01*
X173632761Y-117976952D02*
X173537523Y-117929333D01*
X173489904Y-117881714D01*
X173442285Y-117786476D01*
X173442285Y-117738857D01*
X173489904Y-117643619D01*
X173537523Y-117596000D01*
X173632761Y-117548380D01*
X173823238Y-117548380D01*
X173918476Y-117596000D01*
X173966095Y-117643619D01*
X174013714Y-117738857D01*
X174013714Y-117786476D01*
X173966095Y-117881714D01*
X173918476Y-117929333D01*
X173823238Y-117976952D01*
X173632761Y-117976952D01*
X173537523Y-118024571D01*
X173489904Y-118072190D01*
X173442285Y-118167428D01*
X173442285Y-118357904D01*
X173489904Y-118453142D01*
X173537523Y-118500761D01*
X173632761Y-118548380D01*
X173823238Y-118548380D01*
X173918476Y-118500761D01*
X173966095Y-118453142D01*
X174013714Y-118357904D01*
X174013714Y-118167428D01*
X173966095Y-118072190D01*
X173918476Y-118024571D01*
X173823238Y-117976952D01*
X192746380Y-107441904D02*
X193555904Y-107441904D01*
X193651142Y-107394285D01*
X193698761Y-107346666D01*
X193746380Y-107251428D01*
X193746380Y-107060952D01*
X193698761Y-106965714D01*
X193651142Y-106918095D01*
X193555904Y-106870476D01*
X192746380Y-106870476D01*
X192746380Y-106489523D02*
X192746380Y-105870476D01*
X193127333Y-106203809D01*
X193127333Y-106060952D01*
X193174952Y-105965714D01*
X193222571Y-105918095D01*
X193317809Y-105870476D01*
X193555904Y-105870476D01*
X193651142Y-105918095D01*
X193698761Y-105965714D01*
X193746380Y-106060952D01*
X193746380Y-106346666D01*
X193698761Y-106441904D01*
X193651142Y-106489523D01*
X176292380Y-112013904D02*
X177101904Y-112013904D01*
X177197142Y-111966285D01*
X177244761Y-111918666D01*
X177292380Y-111823428D01*
X177292380Y-111632952D01*
X177244761Y-111537714D01*
X177197142Y-111490095D01*
X177101904Y-111442476D01*
X176292380Y-111442476D01*
X176625714Y-110537714D02*
X177292380Y-110537714D01*
X176244761Y-110775809D02*
X176959047Y-111013904D01*
X176959047Y-110394857D01*
X158964380Y-106171904D02*
X159773904Y-106171904D01*
X159869142Y-106124285D01*
X159916761Y-106076666D01*
X159964380Y-105981428D01*
X159964380Y-105790952D01*
X159916761Y-105695714D01*
X159869142Y-105648095D01*
X159773904Y-105600476D01*
X158964380Y-105600476D01*
X158964380Y-104648095D02*
X158964380Y-105124285D01*
X159440571Y-105171904D01*
X159392952Y-105124285D01*
X159345333Y-105029047D01*
X159345333Y-104790952D01*
X159392952Y-104695714D01*
X159440571Y-104648095D01*
X159535809Y-104600476D01*
X159773904Y-104600476D01*
X159869142Y-104648095D01*
X159916761Y-104695714D01*
X159964380Y-104790952D01*
X159964380Y-105029047D01*
X159916761Y-105124285D01*
X159869142Y-105171904D01*
X202017380Y-100329904D02*
X202826904Y-100329904D01*
X202922142Y-100282285D01*
X202969761Y-100234666D01*
X203017380Y-100139428D01*
X203017380Y-99948952D01*
X202969761Y-99853714D01*
X202922142Y-99806095D01*
X202826904Y-99758476D01*
X202017380Y-99758476D01*
X202017380Y-98853714D02*
X202017380Y-99044190D01*
X202065000Y-99139428D01*
X202112619Y-99187047D01*
X202255476Y-99282285D01*
X202445952Y-99329904D01*
X202826904Y-99329904D01*
X202922142Y-99282285D01*
X202969761Y-99234666D01*
X203017380Y-99139428D01*
X203017380Y-98948952D01*
X202969761Y-98853714D01*
X202922142Y-98806095D01*
X202826904Y-98758476D01*
X202588809Y-98758476D01*
X202493571Y-98806095D01*
X202445952Y-98853714D01*
X202398333Y-98948952D01*
X202398333Y-99139428D01*
X202445952Y-99234666D01*
X202493571Y-99282285D01*
X202588809Y-99329904D01*
X187158380Y-117601904D02*
X187967904Y-117601904D01*
X188063142Y-117554285D01*
X188110761Y-117506666D01*
X188158380Y-117411428D01*
X188158380Y-117220952D01*
X188110761Y-117125714D01*
X188063142Y-117078095D01*
X187967904Y-117030476D01*
X187158380Y-117030476D01*
X187253619Y-116601904D02*
X187206000Y-116554285D01*
X187158380Y-116459047D01*
X187158380Y-116220952D01*
X187206000Y-116125714D01*
X187253619Y-116078095D01*
X187348857Y-116030476D01*
X187444095Y-116030476D01*
X187586952Y-116078095D01*
X188158380Y-116649523D01*
X188158380Y-116030476D01*
X189682380Y-110402666D02*
X189682380Y-110878857D01*
X188682380Y-110878857D01*
X188777619Y-110116952D02*
X188730000Y-110069333D01*
X188682380Y-109974095D01*
X188682380Y-109736000D01*
X188730000Y-109640761D01*
X188777619Y-109593142D01*
X188872857Y-109545523D01*
X188968095Y-109545523D01*
X189110952Y-109593142D01*
X189682380Y-110164571D01*
X189682380Y-109545523D01*
M02*
