M48
;DRILL file {KiCad (2016-12-18 revision 3ffa37c)-makepkg} date 12/20/16 01:53:49
;FORMAT={-:-/ absolute / inch / decimal}
FMAT,2
INCH,TZ
T1C0.013
T2C0.030
T3C0.035
T4C0.039
T5C0.040
T6C0.126
T7C0.128
%
G90
G05
M72
T1
X6.2Y-4.14
X6.32Y-4.34
X6.5613Y-4.74
X6.7187Y-4.74
X6.72Y-4.38
X6.8213Y-4.74
X6.94Y-4.83
X6.94Y-4.89
X6.96Y-4.28
X7.06Y-4.79
X7.07Y-4.58
X7.11Y-4.72
X7.1313Y-4.86
X7.18Y-4.34
X7.2Y-4.67
X7.21Y-4.75
X7.26Y-4.48
X7.27Y-4.76
X7.28Y-4.5569
X7.4098Y-4.4806
X7.42Y-4.53
X7.48Y-4.85
X7.53Y-4.69
X7.7175Y-4.6175
X7.76Y-4.14
T2
X6.22Y-3.76
X6.22Y-4.56
X6.32Y-3.76
X6.32Y-4.56
X6.42Y-3.76
X6.42Y-4.56
X6.52Y-3.76
X6.52Y-4.56
X6.62Y-3.76
X6.62Y-4.56
X6.72Y-3.76
X6.72Y-4.56
X6.82Y-3.76
X7.69Y-4.24
X7.69Y-4.34
X7.69Y-4.44
X7.69Y-4.54
T3
X7.0988Y-3.85
X7.1488Y-3.75
X7.1988Y-3.85
X7.2488Y-3.75
X7.2988Y-3.85
X7.3488Y-3.75
X7.3988Y-3.85
X7.4488Y-3.75
T4
X7.775Y-3.82
X7.775Y-3.92
X7.775Y-4.02
T5
X6.48Y-4.86
X6.64Y-4.86
X6.74Y-4.86
T6
X6.26Y-3.52
X6.26Y-4.8
X7.78Y-3.52
X7.78Y-4.8
T7
X7.04Y-3.5
X7.5073Y-3.5
T2
X6.82Y-4.56G85X6.82Y-4.56
G05
T0
M30
