G04 #@! TF.GenerationSoftware,KiCad,Pcbnew,(2016-12-18 revision 3ffa37c)-makepkg*
G04 #@! TF.CreationDate,2016-12-20T01:52:43-05:00*
G04 #@! TF.ProjectId,Energy_Meter,456E657267795F4D657465722E6B6963,rev?*
G04 #@! TF.FileFunction,Legend,Top*
G04 #@! TF.FilePolarity,Positive*
%FSLAX46Y46*%
G04 Gerber Fmt 4.6, Leading zero omitted, Abs format (unit mm)*
G04 Created by KiCad (PCBNEW (2016-12-18 revision 3ffa37c)-makepkg) date 12/20/16 01:52:43*
%MOMM*%
%LPD*%
G01*
G04 APERTURE LIST*
%ADD10C,0.100000*%
%ADD11C,0.150000*%
G04 APERTURE END LIST*
D10*
D11*
X181763000Y-120420000D02*
X180688000Y-120420000D01*
X181763000Y-123545000D02*
X185013000Y-123545000D01*
X181763000Y-120295000D02*
X185013000Y-120295000D01*
X181763000Y-123545000D02*
X181763000Y-123320000D01*
X185013000Y-123545000D02*
X185013000Y-123320000D01*
X185013000Y-120295000D02*
X185013000Y-120520000D01*
X181763000Y-120295000D02*
X181763000Y-120420000D01*
X193532000Y-103115000D02*
X191532000Y-103115000D01*
X191532000Y-105165000D02*
X193532000Y-105165000D01*
X192374520Y-81026000D02*
X177134520Y-81026000D01*
X177134520Y-81026000D02*
X177134520Y-99060000D01*
X177134520Y-99060000D02*
X192374520Y-99060000D01*
X192374520Y-99060000D02*
X192374520Y-81026000D01*
X169926000Y-122174000D02*
X172466000Y-122174000D01*
X167106000Y-121894000D02*
X168656000Y-121894000D01*
X169926000Y-122174000D02*
X169926000Y-124714000D01*
X168656000Y-124994000D02*
X167106000Y-124994000D01*
X167106000Y-124994000D02*
X167106000Y-121894000D01*
X169926000Y-124714000D02*
X172466000Y-124714000D01*
X172466000Y-124714000D02*
X172466000Y-122174000D01*
X166142000Y-121894000D02*
X166142000Y-123444000D01*
X163042000Y-123444000D02*
X163042000Y-121894000D01*
X163042000Y-121894000D02*
X166142000Y-121894000D01*
X163322000Y-124714000D02*
X165862000Y-124714000D01*
X175276000Y-122369000D02*
X177276000Y-122369000D01*
X177276000Y-124519000D02*
X175276000Y-124519000D01*
X167624000Y-121471000D02*
X165624000Y-121471000D01*
X165624000Y-119321000D02*
X167624000Y-119321000D01*
X174228000Y-121471000D02*
X172228000Y-121471000D01*
X172228000Y-119321000D02*
X174228000Y-119321000D01*
X194056000Y-105791000D02*
X199136000Y-105791000D01*
X194056000Y-117221000D02*
X194056000Y-105791000D01*
X200406000Y-117221000D02*
X194056000Y-117221000D01*
X200406000Y-105791000D02*
X200406000Y-117221000D01*
X199136000Y-105791000D02*
X200406000Y-105791000D01*
X177765000Y-113327000D02*
X177815000Y-113327000D01*
X177765000Y-109177000D02*
X177910000Y-109177000D01*
X182915000Y-109177000D02*
X182770000Y-109177000D01*
X182915000Y-113327000D02*
X182770000Y-113327000D01*
X177765000Y-113327000D02*
X177765000Y-109177000D01*
X182915000Y-113327000D02*
X182915000Y-109177000D01*
X177815000Y-113327000D02*
X177815000Y-114727000D01*
X156937000Y-112311000D02*
X156987000Y-112311000D01*
X156937000Y-108161000D02*
X157082000Y-108161000D01*
X162087000Y-108161000D02*
X161942000Y-108161000D01*
X162087000Y-112311000D02*
X161942000Y-112311000D01*
X156937000Y-112311000D02*
X156937000Y-108161000D01*
X162087000Y-112311000D02*
X162087000Y-108161000D01*
X156987000Y-112311000D02*
X156987000Y-113711000D01*
X200533000Y-98044000D02*
X199390000Y-98044000D01*
X200533000Y-101092000D02*
X199390000Y-101092000D01*
X199390000Y-104902000D02*
X195707000Y-104902000D01*
X195707000Y-104902000D02*
X195707000Y-94234000D01*
X195707000Y-94234000D02*
X199390000Y-94234000D01*
X200533000Y-104902000D02*
X199390000Y-104902000D01*
X199390000Y-104902000D02*
X199390000Y-94234000D01*
X199390000Y-94234000D02*
X200533000Y-94234000D01*
X200533000Y-99568000D02*
X200533000Y-94234000D01*
X200533000Y-99568000D02*
X200533000Y-104902000D01*
X188367000Y-117195000D02*
X188492000Y-117195000D01*
X188367000Y-113945000D02*
X188592000Y-113945000D01*
X191617000Y-113945000D02*
X191392000Y-113945000D01*
X191617000Y-117195000D02*
X191392000Y-117195000D01*
X188367000Y-117195000D02*
X188367000Y-113945000D01*
X191617000Y-117195000D02*
X191617000Y-113945000D01*
X188492000Y-117195000D02*
X188492000Y-118270000D01*
X191883000Y-108112000D02*
X191883000Y-109312000D01*
X190133000Y-109312000D02*
X190133000Y-108112000D01*
X181102095Y-118822380D02*
X181102095Y-119631904D01*
X181149714Y-119727142D01*
X181197333Y-119774761D01*
X181292571Y-119822380D01*
X181483047Y-119822380D01*
X181578285Y-119774761D01*
X181625904Y-119727142D01*
X181673523Y-119631904D01*
X181673523Y-118822380D01*
X182673523Y-119822380D02*
X182102095Y-119822380D01*
X182387809Y-119822380D02*
X182387809Y-118822380D01*
X182292571Y-118965238D01*
X182197333Y-119060476D01*
X182102095Y-119108095D01*
X196278666Y-85660380D02*
X195945333Y-85184190D01*
X195707238Y-85660380D02*
X195707238Y-84660380D01*
X196088190Y-84660380D01*
X196183428Y-84708000D01*
X196231047Y-84755619D01*
X196278666Y-84850857D01*
X196278666Y-84993714D01*
X196231047Y-85088952D01*
X196183428Y-85136571D01*
X196088190Y-85184190D01*
X195707238Y-85184190D01*
X196707238Y-85136571D02*
X197040571Y-85136571D01*
X197183428Y-85660380D02*
X196707238Y-85660380D01*
X196707238Y-84660380D01*
X197183428Y-84660380D01*
X197945333Y-85136571D02*
X197612000Y-85136571D01*
X197612000Y-85660380D02*
X197612000Y-84660380D01*
X198088190Y-84660380D01*
X198612000Y-84660380D02*
X198612000Y-84898476D01*
X198373904Y-84803238D02*
X198612000Y-84898476D01*
X198850095Y-84803238D01*
X198469142Y-85088952D02*
X198612000Y-84898476D01*
X198754857Y-85088952D01*
X199373904Y-84660380D02*
X199373904Y-84898476D01*
X199135809Y-84803238D02*
X199373904Y-84898476D01*
X199612000Y-84803238D01*
X199231047Y-85088952D02*
X199373904Y-84898476D01*
X199516761Y-85088952D01*
X155892666Y-85288380D02*
X155559333Y-84812190D01*
X155321238Y-85288380D02*
X155321238Y-84288380D01*
X155702190Y-84288380D01*
X155797428Y-84336000D01*
X155845047Y-84383619D01*
X155892666Y-84478857D01*
X155892666Y-84621714D01*
X155845047Y-84716952D01*
X155797428Y-84764571D01*
X155702190Y-84812190D01*
X155321238Y-84812190D01*
X156321238Y-84764571D02*
X156654571Y-84764571D01*
X156797428Y-85288380D02*
X156321238Y-85288380D01*
X156321238Y-84288380D01*
X156797428Y-84288380D01*
X157559333Y-84764571D02*
X157226000Y-84764571D01*
X157226000Y-85288380D02*
X157226000Y-84288380D01*
X157702190Y-84288380D01*
X158226000Y-84288380D02*
X158226000Y-84526476D01*
X157987904Y-84431238D02*
X158226000Y-84526476D01*
X158464095Y-84431238D01*
X158083142Y-84716952D02*
X158226000Y-84526476D01*
X158368857Y-84716952D01*
X158987904Y-84288380D02*
X158987904Y-84526476D01*
X158749809Y-84431238D02*
X158987904Y-84526476D01*
X159226000Y-84431238D01*
X158845047Y-84716952D02*
X158987904Y-84526476D01*
X159130761Y-84716952D01*
X192111333Y-102465142D02*
X192063714Y-102512761D01*
X191920857Y-102560380D01*
X191825619Y-102560380D01*
X191682761Y-102512761D01*
X191587523Y-102417523D01*
X191539904Y-102322285D01*
X191492285Y-102131809D01*
X191492285Y-101988952D01*
X191539904Y-101798476D01*
X191587523Y-101703238D01*
X191682761Y-101608000D01*
X191825619Y-101560380D01*
X191920857Y-101560380D01*
X192063714Y-101608000D01*
X192111333Y-101655619D01*
X192444666Y-101560380D02*
X193111333Y-101560380D01*
X192682761Y-102560380D01*
X184167186Y-83526380D02*
X184167186Y-84240666D01*
X184119567Y-84383523D01*
X184024329Y-84478761D01*
X183881472Y-84526380D01*
X183786234Y-84526380D01*
X185167186Y-84526380D02*
X184595758Y-84526380D01*
X184881472Y-84526380D02*
X184881472Y-83526380D01*
X184786234Y-83669238D01*
X184690996Y-83764476D01*
X184595758Y-83812095D01*
X164008380Y-124182095D02*
X163008380Y-124182095D01*
X163008380Y-123801142D01*
X163056000Y-123705904D01*
X163103619Y-123658285D01*
X163198857Y-123610666D01*
X163341714Y-123610666D01*
X163436952Y-123658285D01*
X163484571Y-123705904D01*
X163532190Y-123801142D01*
X163532190Y-124182095D01*
X164008380Y-122658285D02*
X164008380Y-123229714D01*
X164008380Y-122944000D02*
X163008380Y-122944000D01*
X163151238Y-123039238D01*
X163246476Y-123134476D01*
X163294095Y-123229714D01*
X163853904Y-118796380D02*
X163853904Y-117796380D01*
X164234857Y-117796380D01*
X164330095Y-117844000D01*
X164377714Y-117891619D01*
X164425333Y-117986857D01*
X164425333Y-118129714D01*
X164377714Y-118224952D01*
X164330095Y-118272571D01*
X164234857Y-118320190D01*
X163853904Y-118320190D01*
X164806285Y-117891619D02*
X164853904Y-117844000D01*
X164949142Y-117796380D01*
X165187238Y-117796380D01*
X165282476Y-117844000D01*
X165330095Y-117891619D01*
X165377714Y-117986857D01*
X165377714Y-118082095D01*
X165330095Y-118224952D01*
X164758666Y-118796380D01*
X165377714Y-118796380D01*
X177887333Y-122118380D02*
X177554000Y-121642190D01*
X177315904Y-122118380D02*
X177315904Y-121118380D01*
X177696857Y-121118380D01*
X177792095Y-121166000D01*
X177839714Y-121213619D01*
X177887333Y-121308857D01*
X177887333Y-121451714D01*
X177839714Y-121546952D01*
X177792095Y-121594571D01*
X177696857Y-121642190D01*
X177315904Y-121642190D01*
X178839714Y-122118380D02*
X178268285Y-122118380D01*
X178554000Y-122118380D02*
X178554000Y-121118380D01*
X178458761Y-121261238D01*
X178363523Y-121356476D01*
X178268285Y-121404095D01*
X166457333Y-118548380D02*
X166124000Y-118072190D01*
X165885904Y-118548380D02*
X165885904Y-117548380D01*
X166266857Y-117548380D01*
X166362095Y-117596000D01*
X166409714Y-117643619D01*
X166457333Y-117738857D01*
X166457333Y-117881714D01*
X166409714Y-117976952D01*
X166362095Y-118024571D01*
X166266857Y-118072190D01*
X165885904Y-118072190D01*
X167314476Y-117548380D02*
X167124000Y-117548380D01*
X167028761Y-117596000D01*
X166981142Y-117643619D01*
X166885904Y-117786476D01*
X166838285Y-117976952D01*
X166838285Y-118357904D01*
X166885904Y-118453142D01*
X166933523Y-118500761D01*
X167028761Y-118548380D01*
X167219238Y-118548380D01*
X167314476Y-118500761D01*
X167362095Y-118453142D01*
X167409714Y-118357904D01*
X167409714Y-118119809D01*
X167362095Y-118024571D01*
X167314476Y-117976952D01*
X167219238Y-117929333D01*
X167028761Y-117929333D01*
X166933523Y-117976952D01*
X166885904Y-118024571D01*
X166838285Y-118119809D01*
X173061333Y-118548380D02*
X172728000Y-118072190D01*
X172489904Y-118548380D02*
X172489904Y-117548380D01*
X172870857Y-117548380D01*
X172966095Y-117596000D01*
X173013714Y-117643619D01*
X173061333Y-117738857D01*
X173061333Y-117881714D01*
X173013714Y-117976952D01*
X172966095Y-118024571D01*
X172870857Y-118072190D01*
X172489904Y-118072190D01*
X173632761Y-117976952D02*
X173537523Y-117929333D01*
X173489904Y-117881714D01*
X173442285Y-117786476D01*
X173442285Y-117738857D01*
X173489904Y-117643619D01*
X173537523Y-117596000D01*
X173632761Y-117548380D01*
X173823238Y-117548380D01*
X173918476Y-117596000D01*
X173966095Y-117643619D01*
X174013714Y-117738857D01*
X174013714Y-117786476D01*
X173966095Y-117881714D01*
X173918476Y-117929333D01*
X173823238Y-117976952D01*
X173632761Y-117976952D01*
X173537523Y-118024571D01*
X173489904Y-118072190D01*
X173442285Y-118167428D01*
X173442285Y-118357904D01*
X173489904Y-118453142D01*
X173537523Y-118500761D01*
X173632761Y-118548380D01*
X173823238Y-118548380D01*
X173918476Y-118500761D01*
X173966095Y-118453142D01*
X174013714Y-118357904D01*
X174013714Y-118167428D01*
X173966095Y-118072190D01*
X173918476Y-118024571D01*
X173823238Y-117976952D01*
X192746380Y-107441904D02*
X193555904Y-107441904D01*
X193651142Y-107394285D01*
X193698761Y-107346666D01*
X193746380Y-107251428D01*
X193746380Y-107060952D01*
X193698761Y-106965714D01*
X193651142Y-106918095D01*
X193555904Y-106870476D01*
X192746380Y-106870476D01*
X192746380Y-106489523D02*
X192746380Y-105870476D01*
X193127333Y-106203809D01*
X193127333Y-106060952D01*
X193174952Y-105965714D01*
X193222571Y-105918095D01*
X193317809Y-105870476D01*
X193555904Y-105870476D01*
X193651142Y-105918095D01*
X193698761Y-105965714D01*
X193746380Y-106060952D01*
X193746380Y-106346666D01*
X193698761Y-106441904D01*
X193651142Y-106489523D01*
X176292380Y-112013904D02*
X177101904Y-112013904D01*
X177197142Y-111966285D01*
X177244761Y-111918666D01*
X177292380Y-111823428D01*
X177292380Y-111632952D01*
X177244761Y-111537714D01*
X177197142Y-111490095D01*
X177101904Y-111442476D01*
X176292380Y-111442476D01*
X176625714Y-110537714D02*
X177292380Y-110537714D01*
X176244761Y-110775809D02*
X176959047Y-111013904D01*
X176959047Y-110394857D01*
X158964380Y-106171904D02*
X159773904Y-106171904D01*
X159869142Y-106124285D01*
X159916761Y-106076666D01*
X159964380Y-105981428D01*
X159964380Y-105790952D01*
X159916761Y-105695714D01*
X159869142Y-105648095D01*
X159773904Y-105600476D01*
X158964380Y-105600476D01*
X158964380Y-104648095D02*
X158964380Y-105124285D01*
X159440571Y-105171904D01*
X159392952Y-105124285D01*
X159345333Y-105029047D01*
X159345333Y-104790952D01*
X159392952Y-104695714D01*
X159440571Y-104648095D01*
X159535809Y-104600476D01*
X159773904Y-104600476D01*
X159869142Y-104648095D01*
X159916761Y-104695714D01*
X159964380Y-104790952D01*
X159964380Y-105029047D01*
X159916761Y-105124285D01*
X159869142Y-105171904D01*
X202017380Y-100329904D02*
X202826904Y-100329904D01*
X202922142Y-100282285D01*
X202969761Y-100234666D01*
X203017380Y-100139428D01*
X203017380Y-99948952D01*
X202969761Y-99853714D01*
X202922142Y-99806095D01*
X202826904Y-99758476D01*
X202017380Y-99758476D01*
X202017380Y-98853714D02*
X202017380Y-99044190D01*
X202065000Y-99139428D01*
X202112619Y-99187047D01*
X202255476Y-99282285D01*
X202445952Y-99329904D01*
X202826904Y-99329904D01*
X202922142Y-99282285D01*
X202969761Y-99234666D01*
X203017380Y-99139428D01*
X203017380Y-98948952D01*
X202969761Y-98853714D01*
X202922142Y-98806095D01*
X202826904Y-98758476D01*
X202588809Y-98758476D01*
X202493571Y-98806095D01*
X202445952Y-98853714D01*
X202398333Y-98948952D01*
X202398333Y-99139428D01*
X202445952Y-99234666D01*
X202493571Y-99282285D01*
X202588809Y-99329904D01*
X187158380Y-117601904D02*
X187967904Y-117601904D01*
X188063142Y-117554285D01*
X188110761Y-117506666D01*
X188158380Y-117411428D01*
X188158380Y-117220952D01*
X188110761Y-117125714D01*
X188063142Y-117078095D01*
X187967904Y-117030476D01*
X187158380Y-117030476D01*
X187253619Y-116601904D02*
X187206000Y-116554285D01*
X187158380Y-116459047D01*
X187158380Y-116220952D01*
X187206000Y-116125714D01*
X187253619Y-116078095D01*
X187348857Y-116030476D01*
X187444095Y-116030476D01*
X187586952Y-116078095D01*
X188158380Y-116649523D01*
X188158380Y-116030476D01*
X189682380Y-110402666D02*
X189682380Y-110878857D01*
X188682380Y-110878857D01*
X188777619Y-110116952D02*
X188730000Y-110069333D01*
X188682380Y-109974095D01*
X188682380Y-109736000D01*
X188730000Y-109640761D01*
X188777619Y-109593142D01*
X188872857Y-109545523D01*
X188968095Y-109545523D01*
X189110952Y-109593142D01*
X189682380Y-110164571D01*
X189682380Y-109545523D01*
M02*
