M48
;DRILL file {KiCad (2016-12-18 revision 3ffa37c)-makepkg} date 12/23/16 23:11:34
;FORMAT={-:-/ absolute / inch / decimal}
FMAT,2
INCH,TZ
T1C0.013
T2C0.030
T3C0.039
T4C0.040
T5C0.047
T6C0.051
T7C0.118
%
G90
G05
M72
T1
X6.2Y-4.14
X6.32Y-4.34
X6.395Y-4.07
X6.465Y-4.07
X6.5613Y-4.74
X6.59Y-3.88
X6.62Y-3.92
X6.7187Y-4.74
X6.72Y-4.38
X6.8213Y-4.74
X6.94Y-4.83
X6.94Y-4.89
X6.96Y-4.28
X7.06Y-4.79
X7.07Y-4.58
X7.11Y-4.72
X7.1313Y-4.86
X7.18Y-4.34
X7.2Y-4.67
X7.21Y-4.75
X7.26Y-4.48
X7.27Y-4.76
X7.28Y-4.5569
X7.4098Y-4.4806
X7.42Y-4.53
X7.48Y-4.85
X7.53Y-4.69
X7.6Y-4.675
X7.695Y-4.665
X7.76Y-4.14
X7.775Y-4.66
X7.84Y-4.62
T2
X6.22Y-3.76
X6.22Y-4.56
X6.32Y-3.76
X6.32Y-4.56
X6.42Y-3.76
X6.42Y-4.56
X6.52Y-3.76
X6.52Y-4.56
X6.62Y-3.76
X6.62Y-4.56
X6.72Y-3.76
X6.72Y-4.56
X6.82Y-3.76
X7.69Y-4.24
X7.69Y-4.34
X7.69Y-4.44
X7.69Y-4.54
T3
X7.775Y-3.82
X7.775Y-3.92
X7.775Y-4.02
T4
X6.48Y-4.86
X6.64Y-4.86
X6.74Y-4.86
X7.605Y-3.485
T5
X7.1516Y-3.5016
X7.1516Y-3.6
X7.25Y-3.5016
X7.25Y-3.6
X7.3484Y-3.5016
X7.3484Y-3.6
X7.4469Y-3.5016
X7.4469Y-3.6
T6
X7.2992Y-3.4488
T7
X6.25Y-3.51
X6.25Y-4.81
X7.79Y-3.51
X7.79Y-4.81
T2
X6.82Y-4.56G85X6.82Y-4.56
G05
T0
M30
