G04 #@! TF.GenerationSoftware,KiCad,Pcbnew,(2016-12-18 revision 3ffa37c)-makepkg*
G04 #@! TF.CreationDate,2016-12-20T01:52:43-05:00*
G04 #@! TF.ProjectId,Energy_Meter,456E657267795F4D657465722E6B6963,rev?*
G04 #@! TF.FileFunction,Soldermask,Top*
G04 #@! TF.FilePolarity,Negative*
%FSLAX46Y46*%
G04 Gerber Fmt 4.6, Leading zero omitted, Abs format (unit mm)*
G04 Created by KiCad (PCBNEW (2016-12-18 revision 3ffa37c)-makepkg) date 12/20/16 01:52:43*
%MOMM*%
%LPD*%
G01*
G04 APERTURE LIST*
%ADD10C,0.100000*%
%ADD11R,1.100000X0.400000*%
%ADD12C,3.200000*%
%ADD13R,2.000000X1.600000*%
%ADD14C,3.649980*%
%ADD15R,1.501140X1.501140*%
%ADD16C,1.501140*%
%ADD17R,2.032000X2.032000*%
%ADD18O,2.032000X2.032000*%
%ADD19R,2.235200X2.235200*%
%ADD20R,2.000000X1.700000*%
%ADD21C,1.524000*%
%ADD22R,0.600000X1.550000*%
%ADD23O,2.499360X1.501140*%
%ADD24O,1.524000X1.524000*%
%ADD25R,0.400000X1.100000*%
%ADD26R,1.300000X1.500000*%
G04 APERTURE END LIST*
D10*
D11*
X185538000Y-120945000D03*
X185538000Y-121595000D03*
X185538000Y-122245000D03*
X185538000Y-122895000D03*
X181238000Y-122895000D03*
X181238000Y-122245000D03*
X181238000Y-121595000D03*
X181238000Y-120945000D03*
D12*
X197612000Y-89408000D03*
X159004000Y-89408000D03*
X197612000Y-121920000D03*
X159004000Y-121920000D03*
D13*
X190532000Y-104140000D03*
X194532000Y-104140000D03*
D14*
X178816000Y-88900000D03*
X190685420Y-88900000D03*
D15*
X189199520Y-95250000D03*
D16*
X187929520Y-97790000D03*
X186659520Y-95250000D03*
X185389520Y-97790000D03*
X184119520Y-95250000D03*
X182849520Y-97790000D03*
X181579520Y-95250000D03*
X180309520Y-97790000D03*
D17*
X168656000Y-123444000D03*
D18*
X171196000Y-123444000D03*
D19*
X164592000Y-123444000D03*
D20*
X178276000Y-123444000D03*
X174276000Y-123444000D03*
X164624000Y-120396000D03*
X168624000Y-120396000D03*
X171228000Y-120396000D03*
X175228000Y-120396000D03*
D21*
X195326000Y-107696000D03*
X195326000Y-110236000D03*
X195326000Y-112776000D03*
X195326000Y-115316000D03*
D22*
X178435000Y-113952000D03*
X179705000Y-113952000D03*
X180975000Y-113952000D03*
X182245000Y-113952000D03*
X182245000Y-108552000D03*
X180975000Y-108552000D03*
X179705000Y-108552000D03*
X178435000Y-108552000D03*
X157607000Y-112936000D03*
X158877000Y-112936000D03*
X160147000Y-112936000D03*
X161417000Y-112936000D03*
X161417000Y-107536000D03*
X160147000Y-107536000D03*
X158877000Y-107536000D03*
X157607000Y-107536000D03*
D23*
X197485000Y-99568000D03*
X197485000Y-97028000D03*
X197485000Y-102108000D03*
D21*
X157988000Y-95504000D03*
X160528000Y-95504000D03*
X163068000Y-95504000D03*
X165608000Y-95504000D03*
X168148000Y-95504000D03*
X170688000Y-95504000D03*
X173228000Y-95504000D03*
D24*
X173228000Y-115824000D03*
D21*
X170688000Y-115824000D03*
X168148000Y-115824000D03*
X165608000Y-115824000D03*
X163068000Y-115824000D03*
X160528000Y-115824000D03*
X157988000Y-115824000D03*
D25*
X189017000Y-117720000D03*
X189667000Y-117720000D03*
X190317000Y-117720000D03*
X190967000Y-117720000D03*
X190967000Y-113420000D03*
X190317000Y-113420000D03*
X189667000Y-113420000D03*
X189017000Y-113420000D03*
D26*
X191008000Y-110062000D03*
X191008000Y-107362000D03*
M02*
