G04 #@! TF.GenerationSoftware,KiCad,Pcbnew,(2016-12-18 revision 3ffa37c)-makepkg*
G04 #@! TF.CreationDate,2016-12-23T23:11:33-05:00*
G04 #@! TF.ProjectId,Energy_Meter,456E657267795F4D657465722E6B6963,rev?*
G04 #@! TF.FileFunction,Soldermask,Bot*
G04 #@! TF.FilePolarity,Negative*
%FSLAX46Y46*%
G04 Gerber Fmt 4.6, Leading zero omitted, Abs format (unit mm)*
G04 Created by KiCad (PCBNEW (2016-12-18 revision 3ffa37c)-makepkg) date 12/23/16 23:11:33*
%MOMM*%
%LPD*%
G01*
G04 APERTURE LIST*
%ADD10C,0.100000*%
%ADD11R,2.235200X2.235200*%
%ADD12C,3.000000*%
%ADD13R,1.900000X1.900000*%
%ADD14C,1.900000*%
%ADD15R,2.000000X1.600000*%
%ADD16R,1.600000X2.000000*%
%ADD17R,2.032000X2.032000*%
%ADD18O,2.032000X2.032000*%
%ADD19R,1.500000X1.300000*%
%ADD20R,2.000000X1.700000*%
%ADD21R,1.300000X1.500000*%
%ADD22C,1.524000*%
%ADD23O,2.499360X1.501140*%
%ADD24O,1.524000X1.524000*%
G04 APERTURE END LIST*
D10*
D11*
X193167000Y-88519000D03*
D12*
X158750000Y-122174000D03*
X197866000Y-122174000D03*
X197866000Y-89154000D03*
X158750000Y-89154000D03*
D13*
X189150000Y-88940000D03*
D14*
X186650000Y-88940000D03*
X184150000Y-88940000D03*
X181650000Y-88940000D03*
X189150000Y-91440000D03*
X186650000Y-91440000D03*
X184150000Y-91440000D03*
X181650000Y-91440000D03*
D15*
X191230000Y-120904000D03*
X187230000Y-120904000D03*
X181134000Y-123444000D03*
X185134000Y-123444000D03*
D16*
X193040000Y-117284000D03*
X193040000Y-113284000D03*
D15*
X186468000Y-114046000D03*
X190468000Y-114046000D03*
X178340000Y-113792000D03*
X182340000Y-113792000D03*
X178340000Y-108712000D03*
X182340000Y-108712000D03*
D16*
X163576000Y-106204000D03*
X163576000Y-110204000D03*
X194564000Y-95028000D03*
X194564000Y-99028000D03*
D15*
X193992000Y-102108000D03*
X189992000Y-102108000D03*
D17*
X168656000Y-123444000D03*
D18*
X171196000Y-123444000D03*
D11*
X164592000Y-123444000D03*
D19*
X191422000Y-123190000D03*
X188722000Y-123190000D03*
D20*
X178276000Y-123444000D03*
X174276000Y-123444000D03*
D19*
X178228000Y-116332000D03*
X180928000Y-116332000D03*
D21*
X184912000Y-118952000D03*
X184912000Y-116252000D03*
D20*
X166656000Y-120396000D03*
X170656000Y-120396000D03*
X173260000Y-120396000D03*
X177260000Y-120396000D03*
D19*
X164926000Y-113284000D03*
X162226000Y-113284000D03*
X171022000Y-113284000D03*
X168322000Y-113284000D03*
D22*
X195326000Y-107696000D03*
X195326000Y-110236000D03*
X195326000Y-112776000D03*
X195326000Y-115316000D03*
D23*
X197485000Y-99568000D03*
X197485000Y-97028000D03*
X197485000Y-102108000D03*
D22*
X157988000Y-95504000D03*
X160528000Y-95504000D03*
X163068000Y-95504000D03*
X165608000Y-95504000D03*
X168148000Y-95504000D03*
X170688000Y-95504000D03*
X173228000Y-95504000D03*
D24*
X173228000Y-115824000D03*
D22*
X170688000Y-115824000D03*
X168148000Y-115824000D03*
X165608000Y-115824000D03*
X163068000Y-115824000D03*
X160528000Y-115824000D03*
X157988000Y-115824000D03*
D21*
X199136000Y-115650000D03*
X199136000Y-112950000D03*
M02*
