G04 #@! TF.GenerationSoftware,KiCad,Pcbnew,(2016-12-18 revision 3ffa37c)-makepkg*
G04 #@! TF.CreationDate,2016-12-23T23:11:33-05:00*
G04 #@! TF.ProjectId,Energy_Meter,456E657267795F4D657465722E6B6963,rev?*
G04 #@! TF.FileFunction,Copper,L1,Top,Signal*
G04 #@! TF.FilePolarity,Positive*
%FSLAX46Y46*%
G04 Gerber Fmt 4.6, Leading zero omitted, Abs format (unit mm)*
G04 Created by KiCad (PCBNEW (2016-12-18 revision 3ffa37c)-makepkg) date 12/23/16 23:11:33*
%MOMM*%
%LPD*%
G01*
G04 APERTURE LIST*
%ADD10C,0.100000*%
%ADD11R,2.235200X2.235200*%
%ADD12R,1.900000X1.900000*%
%ADD13C,1.900000*%
%ADD14R,1.100000X0.400000*%
%ADD15R,2.000000X1.600000*%
%ADD16R,2.032000X2.032000*%
%ADD17O,2.032000X2.032000*%
%ADD18R,2.000000X1.700000*%
%ADD19C,1.524000*%
%ADD20R,0.600000X1.550000*%
%ADD21O,2.499360X1.501140*%
%ADD22O,1.524000X1.524000*%
%ADD23R,0.400000X1.100000*%
%ADD24R,1.300000X1.500000*%
%ADD25C,0.685800*%
%ADD26C,0.250000*%
%ADD27C,0.152400*%
%ADD28C,1.000000*%
%ADD29C,0.254000*%
G04 APERTURE END LIST*
D10*
D11*
X193167000Y-88519000D03*
D12*
X189150000Y-88940000D03*
D13*
X186650000Y-88940000D03*
X184150000Y-88940000D03*
X181650000Y-88940000D03*
X189150000Y-91440000D03*
X186650000Y-91440000D03*
X184150000Y-91440000D03*
X181650000Y-91440000D03*
D14*
X185538000Y-120945000D03*
X185538000Y-121595000D03*
X185538000Y-122245000D03*
X185538000Y-122895000D03*
X181238000Y-122895000D03*
X181238000Y-122245000D03*
X181238000Y-121595000D03*
X181238000Y-120945000D03*
D15*
X190532000Y-104140000D03*
X194532000Y-104140000D03*
D16*
X168656000Y-123444000D03*
D17*
X171196000Y-123444000D03*
D11*
X164592000Y-123444000D03*
D18*
X178276000Y-123444000D03*
X174276000Y-123444000D03*
X164624000Y-120396000D03*
X168624000Y-120396000D03*
X171228000Y-120396000D03*
X175228000Y-120396000D03*
D19*
X195326000Y-107696000D03*
X195326000Y-110236000D03*
X195326000Y-112776000D03*
X195326000Y-115316000D03*
D20*
X178435000Y-113952000D03*
X179705000Y-113952000D03*
X180975000Y-113952000D03*
X182245000Y-113952000D03*
X182245000Y-108552000D03*
X180975000Y-108552000D03*
X179705000Y-108552000D03*
X178435000Y-108552000D03*
X157607000Y-112936000D03*
X158877000Y-112936000D03*
X160147000Y-112936000D03*
X161417000Y-112936000D03*
X161417000Y-107536000D03*
X160147000Y-107536000D03*
X158877000Y-107536000D03*
X157607000Y-107536000D03*
D21*
X197485000Y-99568000D03*
X197485000Y-97028000D03*
X197485000Y-102108000D03*
D19*
X157988000Y-95504000D03*
X160528000Y-95504000D03*
X163068000Y-95504000D03*
X165608000Y-95504000D03*
X168148000Y-95504000D03*
X170688000Y-95504000D03*
X173228000Y-95504000D03*
D22*
X173228000Y-115824000D03*
D19*
X170688000Y-115824000D03*
X168148000Y-115824000D03*
X165608000Y-115824000D03*
X163068000Y-115824000D03*
X160528000Y-115824000D03*
X157988000Y-115824000D03*
D23*
X189017000Y-117720000D03*
X189667000Y-117720000D03*
X190317000Y-117720000D03*
X190967000Y-117720000D03*
X190967000Y-113420000D03*
X190317000Y-113420000D03*
X189667000Y-113420000D03*
X189017000Y-113420000D03*
D24*
X191008000Y-110062000D03*
X191008000Y-107362000D03*
D25*
X191262000Y-119126000D03*
X184404000Y-113792000D03*
X181134000Y-123444000D03*
X188468000Y-115062000D03*
X176276000Y-122682000D03*
X197485000Y-118364000D03*
X195453000Y-118491000D03*
X193040000Y-118745000D03*
X199136000Y-117348000D03*
X188208026Y-113807046D03*
X184658000Y-120904000D03*
X189992000Y-123190000D03*
X182880000Y-118618000D03*
X176784000Y-108712000D03*
X160528000Y-110236000D03*
X182372000Y-110236000D03*
X197104000Y-105156000D03*
X157480000Y-105156000D03*
X167386000Y-98552000D03*
X162433000Y-103378000D03*
X168148000Y-99568000D03*
X164211000Y-103378000D03*
X176276000Y-124206000D03*
X179324000Y-121666000D03*
X179578000Y-116332000D03*
X184912000Y-115744000D03*
X166656000Y-120396000D03*
X183134000Y-120650000D03*
X180594000Y-119888000D03*
X170656000Y-120396000D03*
X173260000Y-120396000D03*
X170688000Y-111252000D03*
D26*
X191262000Y-119126000D02*
X191262000Y-118015000D01*
X191262000Y-118015000D02*
X190967000Y-117720000D01*
X182245000Y-113952000D02*
X184244000Y-113952000D01*
X184244000Y-113952000D02*
X184404000Y-113792000D01*
X181238000Y-122895000D02*
X181238000Y-123340000D01*
X181238000Y-123340000D02*
X181134000Y-123444000D01*
X189667000Y-113420000D02*
X189667000Y-114220000D01*
X189667000Y-114220000D02*
X188825000Y-115062000D01*
X188825000Y-115062000D02*
X188468000Y-115062000D01*
X174276000Y-123444000D02*
X175514000Y-123444000D01*
X175514000Y-123444000D02*
X176276000Y-122682000D01*
X171196000Y-123444000D02*
X174276000Y-123444000D01*
X188208026Y-113778974D02*
X188208026Y-113807046D01*
X189017000Y-113420000D02*
X188567000Y-113420000D01*
X188567000Y-113420000D02*
X188208026Y-113778974D01*
X185538000Y-120945000D02*
X184699000Y-120945000D01*
X184699000Y-120945000D02*
X184658000Y-120904000D01*
X178435000Y-113952000D02*
X178435000Y-112395000D01*
X178435000Y-112395000D02*
X178308000Y-112268000D01*
X160147000Y-112936000D02*
X160147000Y-110617000D01*
X176944000Y-108552000D02*
X176784000Y-108712000D01*
X160147000Y-110617000D02*
X160528000Y-110236000D01*
X178435000Y-108552000D02*
X176944000Y-108552000D01*
X182245000Y-110109000D02*
X182372000Y-110236000D01*
X182245000Y-108552000D02*
X182245000Y-110109000D01*
X196798000Y-105156000D02*
X197104000Y-105156000D01*
X194532000Y-104140000D02*
X195782000Y-104140000D01*
X195782000Y-104140000D02*
X196798000Y-105156000D01*
X157607000Y-107536000D02*
X157607000Y-105283000D01*
X157607000Y-105283000D02*
X157480000Y-105156000D01*
X158877000Y-112936000D02*
X158877000Y-111911000D01*
X158877000Y-111911000D02*
X157607000Y-110641000D01*
X157607000Y-110641000D02*
X157607000Y-108561000D01*
X157607000Y-108561000D02*
X157607000Y-107536000D01*
D27*
X180079489Y-90118601D02*
X180079489Y-88766181D01*
X182124271Y-86721399D02*
X188033799Y-86721399D01*
X180079489Y-88766181D02*
X182124271Y-86721399D01*
X188033799Y-86721399D02*
X189150000Y-87837600D01*
X189150000Y-87837600D02*
X189150000Y-88940000D01*
X158877000Y-107061000D02*
X162433000Y-103505000D01*
X162433000Y-103505000D02*
X162433000Y-103378000D01*
X167386000Y-98552000D02*
X171646090Y-98552000D01*
X171646090Y-98552000D02*
X180079489Y-90118601D01*
D26*
X158877000Y-107061000D02*
X158877000Y-107536000D01*
D27*
X181650000Y-88940000D02*
X182828601Y-90118601D01*
X168632933Y-99568000D02*
X168148000Y-99568000D01*
X182828601Y-90118601D02*
X182828601Y-92005729D01*
X182828601Y-92005729D02*
X175266330Y-99568000D01*
X175266330Y-99568000D02*
X168632933Y-99568000D01*
X162052000Y-105537000D02*
X164211000Y-103378000D01*
X161218600Y-105537000D02*
X162052000Y-105537000D01*
X160147000Y-107536000D02*
X160147000Y-106608600D01*
X160147000Y-106608600D02*
X161218600Y-105537000D01*
D26*
X160147000Y-107536000D02*
X160147000Y-107061000D01*
D28*
X195326000Y-110236000D02*
X191182000Y-110236000D01*
X191182000Y-110236000D02*
X191008000Y-110062000D01*
D26*
X181238000Y-122245000D02*
X182038000Y-122245000D01*
X181610000Y-124968000D02*
X168914000Y-124968000D01*
X182038000Y-122245000D02*
X182372000Y-122579000D01*
X182372000Y-122579000D02*
X182372000Y-124206000D01*
X182372000Y-124206000D02*
X181610000Y-124968000D01*
X168914000Y-124968000D02*
X168656000Y-124710000D01*
X168656000Y-124710000D02*
X168656000Y-123444000D01*
X164592000Y-123444000D02*
X164592000Y-120428000D01*
X164592000Y-120428000D02*
X164624000Y-120396000D01*
X178276000Y-123444000D02*
X177038000Y-123444000D01*
X177038000Y-123444000D02*
X176276000Y-124206000D01*
X180438000Y-121595000D02*
X181238000Y-121595000D01*
X179689000Y-122344000D02*
X180438000Y-121595000D01*
X178276000Y-123444000D02*
X178426000Y-123444000D01*
X179526000Y-122344000D02*
X179689000Y-122344000D01*
X178426000Y-123444000D02*
X179526000Y-122344000D01*
X179832000Y-121158000D02*
X179324000Y-121666000D01*
X180045000Y-120945000D02*
X179832000Y-121158000D01*
X181238000Y-120945000D02*
X180045000Y-120945000D01*
X182118000Y-119380000D02*
X181238000Y-120260000D01*
X181238000Y-120260000D02*
X181238000Y-120945000D01*
X186907000Y-119380000D02*
X182118000Y-119380000D01*
X189017000Y-117720000D02*
X188567000Y-117720000D01*
X188567000Y-117720000D02*
X186907000Y-119380000D01*
X190317000Y-113420000D02*
X190317000Y-114220000D01*
X190317000Y-114220000D02*
X187697000Y-116840000D01*
X187697000Y-116840000D02*
X180086000Y-116840000D01*
X180086000Y-116840000D02*
X179578000Y-116332000D01*
X179705000Y-114977000D02*
X179705000Y-116205000D01*
X179705000Y-116205000D02*
X179578000Y-116332000D01*
X179705000Y-113952000D02*
X179705000Y-114977000D01*
X184912000Y-115744000D02*
X181742000Y-115744000D01*
X181742000Y-115744000D02*
X180975000Y-114977000D01*
X190967000Y-113420000D02*
X190967000Y-112620000D01*
X190967000Y-112620000D02*
X190891999Y-112544999D01*
X190891999Y-112544999D02*
X188111001Y-112544999D01*
X188111001Y-112544999D02*
X184912000Y-115744000D01*
X180975000Y-113952000D02*
X180975000Y-114977000D01*
X168624000Y-120396000D02*
X166656000Y-120396000D01*
X183134000Y-120650000D02*
X183134000Y-121291000D01*
X183134000Y-121291000D02*
X184738000Y-122895000D01*
X184738000Y-122895000D02*
X185538000Y-122895000D01*
X179324000Y-119888000D02*
X180594000Y-119888000D01*
X177546000Y-121666000D02*
X172648000Y-121666000D01*
X172648000Y-121666000D02*
X171378000Y-120396000D01*
X171378000Y-120396000D02*
X171228000Y-120396000D01*
X179324000Y-119888000D02*
X177546000Y-121666000D01*
X171228000Y-120396000D02*
X170656000Y-120396000D01*
X175228000Y-120396000D02*
X173260000Y-120396000D01*
X168656000Y-110236000D02*
X178496000Y-110236000D01*
X178496000Y-110236000D02*
X179705000Y-109027000D01*
X163068000Y-115824000D02*
X168656000Y-110236000D01*
X179705000Y-109027000D02*
X179705000Y-108552000D01*
X180975000Y-109027000D02*
X180975000Y-108552000D01*
X179258000Y-110744000D02*
X180975000Y-109027000D01*
X170688000Y-111252000D02*
X170688000Y-110744000D01*
X170688000Y-110744000D02*
X179258000Y-110744000D01*
X165608000Y-115824000D02*
X170688000Y-110744000D01*
X185538000Y-121595000D02*
X186592000Y-121595000D01*
X186592000Y-121595000D02*
X189667000Y-118520000D01*
X189667000Y-118520000D02*
X189667000Y-117720000D01*
X185538000Y-122245000D02*
X185538000Y-121595000D01*
X157607000Y-112936000D02*
X157607000Y-115443000D01*
X157607000Y-115443000D02*
X157988000Y-115824000D01*
X161417000Y-112936000D02*
X161417000Y-114935000D01*
X161417000Y-114935000D02*
X160528000Y-115824000D01*
D29*
G36*
X179576595Y-88263287D02*
X179422426Y-88494016D01*
X179387851Y-88667835D01*
X179368289Y-88766181D01*
X179368289Y-89824012D01*
X174432189Y-94760113D01*
X174413010Y-94713697D01*
X174020370Y-94320371D01*
X173507100Y-94107243D01*
X172951339Y-94106758D01*
X172437697Y-94318990D01*
X172044371Y-94711630D01*
X171958051Y-94919512D01*
X171873010Y-94713697D01*
X171480370Y-94320371D01*
X170967100Y-94107243D01*
X170411339Y-94106758D01*
X169897697Y-94318990D01*
X169504371Y-94711630D01*
X169418051Y-94919512D01*
X169333010Y-94713697D01*
X168940370Y-94320371D01*
X168427100Y-94107243D01*
X167871339Y-94106758D01*
X167357697Y-94318990D01*
X166964371Y-94711630D01*
X166878051Y-94919512D01*
X166793010Y-94713697D01*
X166400370Y-94320371D01*
X165887100Y-94107243D01*
X165331339Y-94106758D01*
X164817697Y-94318990D01*
X164424371Y-94711630D01*
X164338051Y-94919512D01*
X164253010Y-94713697D01*
X163860370Y-94320371D01*
X163347100Y-94107243D01*
X162791339Y-94106758D01*
X162277697Y-94318990D01*
X161884371Y-94711630D01*
X161798051Y-94919512D01*
X161713010Y-94713697D01*
X161320370Y-94320371D01*
X160807100Y-94107243D01*
X160251339Y-94106758D01*
X159737697Y-94318990D01*
X159344371Y-94711630D01*
X159258051Y-94919512D01*
X159173010Y-94713697D01*
X158780370Y-94320371D01*
X158267100Y-94107243D01*
X157711339Y-94106758D01*
X157197697Y-94318990D01*
X156804371Y-94711630D01*
X156591243Y-95224900D01*
X156590758Y-95780661D01*
X156802990Y-96294303D01*
X157195630Y-96687629D01*
X157708900Y-96900757D01*
X158264661Y-96901242D01*
X158778303Y-96689010D01*
X159171629Y-96296370D01*
X159257949Y-96088488D01*
X159342990Y-96294303D01*
X159735630Y-96687629D01*
X160248900Y-96900757D01*
X160804661Y-96901242D01*
X161318303Y-96689010D01*
X161711629Y-96296370D01*
X161797949Y-96088488D01*
X161882990Y-96294303D01*
X162275630Y-96687629D01*
X162788900Y-96900757D01*
X163344661Y-96901242D01*
X163858303Y-96689010D01*
X164251629Y-96296370D01*
X164337949Y-96088488D01*
X164422990Y-96294303D01*
X164815630Y-96687629D01*
X165328900Y-96900757D01*
X165884661Y-96901242D01*
X166398303Y-96689010D01*
X166791629Y-96296370D01*
X166877949Y-96088488D01*
X166962990Y-96294303D01*
X167355630Y-96687629D01*
X167868900Y-96900757D01*
X168424661Y-96901242D01*
X168938303Y-96689010D01*
X169331629Y-96296370D01*
X169417949Y-96088488D01*
X169502990Y-96294303D01*
X169895630Y-96687629D01*
X170408900Y-96900757D01*
X170964661Y-96901242D01*
X171478303Y-96689010D01*
X171871629Y-96296370D01*
X171957949Y-96088488D01*
X172042990Y-96294303D01*
X172435630Y-96687629D01*
X172484415Y-96707886D01*
X171351502Y-97840800D01*
X168057794Y-97840800D01*
X167940659Y-97723460D01*
X167581370Y-97574270D01*
X167192337Y-97573931D01*
X166832788Y-97722493D01*
X166557460Y-97997341D01*
X166408270Y-98356630D01*
X166407931Y-98745663D01*
X166556493Y-99105212D01*
X166831341Y-99380540D01*
X167170141Y-99521222D01*
X167169931Y-99761663D01*
X167318493Y-100121212D01*
X167593341Y-100396540D01*
X167952630Y-100545730D01*
X168341663Y-100546069D01*
X168701212Y-100397507D01*
X168819726Y-100279200D01*
X175266330Y-100279200D01*
X175538495Y-100225063D01*
X175769224Y-100070894D01*
X178812118Y-97028000D01*
X195563397Y-97028000D01*
X195668867Y-97558235D01*
X195969221Y-98007746D01*
X196403616Y-98298000D01*
X195969221Y-98588254D01*
X195668867Y-99037765D01*
X195563397Y-99568000D01*
X195668867Y-100098235D01*
X195969221Y-100547746D01*
X196418732Y-100848100D01*
X196428032Y-100849950D01*
X196338323Y-100876501D01*
X195916342Y-101218056D01*
X195657190Y-101695097D01*
X195643007Y-101766725D01*
X195765661Y-101981000D01*
X197358000Y-101981000D01*
X197358000Y-101961000D01*
X197612000Y-101961000D01*
X197612000Y-101981000D01*
X199204339Y-101981000D01*
X199326993Y-101766725D01*
X199312810Y-101695097D01*
X199053658Y-101218056D01*
X198631677Y-100876501D01*
X198541968Y-100849950D01*
X198551268Y-100848100D01*
X199000779Y-100547746D01*
X199301133Y-100098235D01*
X199406603Y-99568000D01*
X199301133Y-99037765D01*
X199000779Y-98588254D01*
X198566384Y-98298000D01*
X199000779Y-98007746D01*
X199301133Y-97558235D01*
X199406603Y-97028000D01*
X199301133Y-96497765D01*
X199000779Y-96048254D01*
X198551268Y-95747900D01*
X198021033Y-95642430D01*
X196948967Y-95642430D01*
X196418732Y-95747900D01*
X195969221Y-96048254D01*
X195668867Y-96497765D01*
X195563397Y-97028000D01*
X178812118Y-97028000D01*
X183154185Y-92685933D01*
X183250997Y-92782914D01*
X183833341Y-93024724D01*
X184463893Y-93025275D01*
X185046657Y-92784481D01*
X185400226Y-92431529D01*
X185750997Y-92782914D01*
X186333341Y-93024724D01*
X186963893Y-93025275D01*
X187546657Y-92784481D01*
X187900226Y-92431529D01*
X188250997Y-92782914D01*
X188833341Y-93024724D01*
X189463893Y-93025275D01*
X190046657Y-92784481D01*
X190492914Y-92339003D01*
X190734724Y-91756659D01*
X190735275Y-91126107D01*
X190494481Y-90543343D01*
X190402729Y-90451431D01*
X190557809Y-90347809D01*
X190698157Y-90137765D01*
X190747440Y-89890000D01*
X190747440Y-87990000D01*
X190698157Y-87742235D01*
X190557809Y-87532191D01*
X190362068Y-87401400D01*
X191401960Y-87401400D01*
X191401960Y-89636600D01*
X191451243Y-89884365D01*
X191591591Y-90094409D01*
X191801635Y-90234757D01*
X192049400Y-90284040D01*
X194284600Y-90284040D01*
X194532365Y-90234757D01*
X194742409Y-90094409D01*
X194882757Y-89884365D01*
X194932040Y-89636600D01*
X194932040Y-89576815D01*
X195730630Y-89576815D01*
X196054980Y-90361800D01*
X196655041Y-90962909D01*
X197439459Y-91288628D01*
X198288815Y-91289370D01*
X199073800Y-90965020D01*
X199674909Y-90364959D01*
X200000628Y-89580541D01*
X200001370Y-88731185D01*
X199677020Y-87946200D01*
X199076959Y-87345091D01*
X198292541Y-87019372D01*
X197443185Y-87018630D01*
X196658200Y-87342980D01*
X196057091Y-87943041D01*
X195731372Y-88727459D01*
X195730630Y-89576815D01*
X194932040Y-89576815D01*
X194932040Y-87401400D01*
X194882757Y-87153635D01*
X194742409Y-86943591D01*
X194532365Y-86803243D01*
X194284600Y-86753960D01*
X192049400Y-86753960D01*
X191801635Y-86803243D01*
X191591591Y-86943591D01*
X191451243Y-87153635D01*
X191401960Y-87401400D01*
X190362068Y-87401400D01*
X190347765Y-87391843D01*
X190100000Y-87342560D01*
X189658143Y-87342560D01*
X189652895Y-87334706D01*
X188855188Y-86537000D01*
X200483000Y-86537000D01*
X200483000Y-111125000D01*
X196412830Y-111125000D01*
X196509629Y-111028370D01*
X196722757Y-110515100D01*
X196723242Y-109959339D01*
X196511010Y-109445697D01*
X196118370Y-109052371D01*
X195910488Y-108966051D01*
X196116303Y-108881010D01*
X196509629Y-108488370D01*
X196722757Y-107975100D01*
X196723242Y-107419339D01*
X196511010Y-106905697D01*
X196118370Y-106512371D01*
X195605100Y-106299243D01*
X195049339Y-106298758D01*
X194535697Y-106510990D01*
X194142371Y-106903630D01*
X193929243Y-107416900D01*
X193928758Y-107972661D01*
X194140990Y-108486303D01*
X194533630Y-108879629D01*
X194741512Y-108965949D01*
X194535697Y-109050990D01*
X194485600Y-109101000D01*
X192263470Y-109101000D01*
X192256157Y-109064235D01*
X192115809Y-108854191D01*
X191905765Y-108713843D01*
X191877791Y-108708279D01*
X192017699Y-108650327D01*
X192196327Y-108471698D01*
X192293000Y-108238309D01*
X192293000Y-107647750D01*
X192134250Y-107489000D01*
X191135000Y-107489000D01*
X191135000Y-107509000D01*
X190881000Y-107509000D01*
X190881000Y-107489000D01*
X189881750Y-107489000D01*
X189723000Y-107647750D01*
X189723000Y-108238309D01*
X189819673Y-108471698D01*
X189998301Y-108650327D01*
X190138209Y-108708279D01*
X190110235Y-108713843D01*
X189900191Y-108854191D01*
X189759843Y-109064235D01*
X189710560Y-109312000D01*
X189710560Y-110812000D01*
X189759843Y-111059765D01*
X189803432Y-111125000D01*
X182781227Y-111125000D01*
X182925212Y-111065507D01*
X183200540Y-110790659D01*
X183349730Y-110431370D01*
X183350069Y-110042337D01*
X183201507Y-109682788D01*
X183123315Y-109604460D01*
X183143157Y-109574765D01*
X183192440Y-109327000D01*
X183192440Y-107777000D01*
X183143157Y-107529235D01*
X183002809Y-107319191D01*
X182792765Y-107178843D01*
X182545000Y-107129560D01*
X181945000Y-107129560D01*
X181697235Y-107178843D01*
X181610000Y-107237132D01*
X181522765Y-107178843D01*
X181275000Y-107129560D01*
X180675000Y-107129560D01*
X180427235Y-107178843D01*
X180340000Y-107237132D01*
X180252765Y-107178843D01*
X180005000Y-107129560D01*
X179405000Y-107129560D01*
X179157235Y-107178843D01*
X179078028Y-107231768D01*
X178861310Y-107142000D01*
X178720750Y-107142000D01*
X178562000Y-107300750D01*
X178562000Y-108425000D01*
X178582000Y-108425000D01*
X178582000Y-108679000D01*
X178562000Y-108679000D01*
X178562000Y-108699000D01*
X178308000Y-108699000D01*
X178308000Y-108679000D01*
X177658750Y-108679000D01*
X177500000Y-108837750D01*
X177500000Y-109453309D01*
X177509399Y-109476000D01*
X168656000Y-109476000D01*
X168365160Y-109533852D01*
X168118599Y-109698599D01*
X163377381Y-114439817D01*
X163347100Y-114427243D01*
X162791339Y-114426758D01*
X162277697Y-114638990D01*
X162177000Y-114739511D01*
X162177000Y-114165530D01*
X162315157Y-113958765D01*
X162364440Y-113711000D01*
X162364440Y-112161000D01*
X162315157Y-111913235D01*
X162174809Y-111703191D01*
X161964765Y-111562843D01*
X161717000Y-111513560D01*
X161117000Y-111513560D01*
X160869235Y-111562843D01*
X160790028Y-111615768D01*
X160573310Y-111526000D01*
X160432750Y-111526000D01*
X160274000Y-111684750D01*
X160274000Y-112809000D01*
X160294000Y-112809000D01*
X160294000Y-113063000D01*
X160274000Y-113063000D01*
X160274000Y-114187250D01*
X160432750Y-114346000D01*
X160573310Y-114346000D01*
X160657000Y-114311334D01*
X160657000Y-114427112D01*
X160251339Y-114426758D01*
X159737697Y-114638990D01*
X159344371Y-115031630D01*
X159258051Y-115239512D01*
X159173010Y-115033697D01*
X158780370Y-114640371D01*
X158367000Y-114468725D01*
X158367000Y-114316669D01*
X158577000Y-114358440D01*
X159177000Y-114358440D01*
X159424765Y-114309157D01*
X159503972Y-114256232D01*
X159720690Y-114346000D01*
X159861250Y-114346000D01*
X160020000Y-114187250D01*
X160020000Y-113063000D01*
X160000000Y-113063000D01*
X160000000Y-112809000D01*
X160020000Y-112809000D01*
X160020000Y-111684750D01*
X159861250Y-111526000D01*
X159720690Y-111526000D01*
X159560553Y-111592331D01*
X159414401Y-111373599D01*
X158367000Y-110326198D01*
X158367000Y-108916669D01*
X158577000Y-108958440D01*
X159177000Y-108958440D01*
X159424765Y-108909157D01*
X159512000Y-108850868D01*
X159599235Y-108909157D01*
X159847000Y-108958440D01*
X160447000Y-108958440D01*
X160694765Y-108909157D01*
X160782000Y-108850868D01*
X160869235Y-108909157D01*
X161117000Y-108958440D01*
X161717000Y-108958440D01*
X161964765Y-108909157D01*
X162174809Y-108768809D01*
X162315157Y-108558765D01*
X162364440Y-108311000D01*
X162364440Y-107650691D01*
X177500000Y-107650691D01*
X177500000Y-108266250D01*
X177658750Y-108425000D01*
X178308000Y-108425000D01*
X178308000Y-107300750D01*
X178149250Y-107142000D01*
X178008690Y-107142000D01*
X177775301Y-107238673D01*
X177596673Y-107417302D01*
X177500000Y-107650691D01*
X162364440Y-107650691D01*
X162364440Y-106761000D01*
X162315157Y-106513235D01*
X162296753Y-106485691D01*
X189723000Y-106485691D01*
X189723000Y-107076250D01*
X189881750Y-107235000D01*
X190881000Y-107235000D01*
X190881000Y-106135750D01*
X191135000Y-106135750D01*
X191135000Y-107235000D01*
X192134250Y-107235000D01*
X192293000Y-107076250D01*
X192293000Y-106485691D01*
X192196327Y-106252302D01*
X192017699Y-106073673D01*
X191784310Y-105977000D01*
X191293750Y-105977000D01*
X191135000Y-106135750D01*
X190881000Y-106135750D01*
X190722250Y-105977000D01*
X190231690Y-105977000D01*
X189998301Y-106073673D01*
X189819673Y-106252302D01*
X189723000Y-106485691D01*
X162296753Y-106485691D01*
X162174809Y-106303191D01*
X162083217Y-106241991D01*
X162324165Y-106194063D01*
X162554894Y-106039894D01*
X164169038Y-104425750D01*
X188897000Y-104425750D01*
X188897000Y-105066310D01*
X188993673Y-105299699D01*
X189172302Y-105478327D01*
X189405691Y-105575000D01*
X190246250Y-105575000D01*
X190405000Y-105416250D01*
X190405000Y-104267000D01*
X190659000Y-104267000D01*
X190659000Y-105416250D01*
X190817750Y-105575000D01*
X191658309Y-105575000D01*
X191891698Y-105478327D01*
X192070327Y-105299699D01*
X192167000Y-105066310D01*
X192167000Y-104425750D01*
X192008250Y-104267000D01*
X190659000Y-104267000D01*
X190405000Y-104267000D01*
X189055750Y-104267000D01*
X188897000Y-104425750D01*
X164169038Y-104425750D01*
X164238863Y-104355925D01*
X164404663Y-104356069D01*
X164764212Y-104207507D01*
X165039540Y-103932659D01*
X165188730Y-103573370D01*
X165189043Y-103213690D01*
X188897000Y-103213690D01*
X188897000Y-103854250D01*
X189055750Y-104013000D01*
X190405000Y-104013000D01*
X190405000Y-102863750D01*
X190659000Y-102863750D01*
X190659000Y-104013000D01*
X192008250Y-104013000D01*
X192167000Y-103854250D01*
X192167000Y-103340000D01*
X192884560Y-103340000D01*
X192884560Y-104940000D01*
X192933843Y-105187765D01*
X193074191Y-105397809D01*
X193284235Y-105538157D01*
X193532000Y-105587440D01*
X195532000Y-105587440D01*
X195779765Y-105538157D01*
X195974941Y-105407743D01*
X196260599Y-105693401D01*
X196270767Y-105700195D01*
X196274493Y-105709212D01*
X196549341Y-105984540D01*
X196908630Y-106133730D01*
X197297663Y-106134069D01*
X197657212Y-105985507D01*
X197932540Y-105710659D01*
X198081730Y-105351370D01*
X198082069Y-104962337D01*
X197933507Y-104602788D01*
X197658659Y-104327460D01*
X197299370Y-104178270D01*
X196910337Y-104177931D01*
X196899295Y-104182493D01*
X196319401Y-103602599D01*
X196179440Y-103509080D01*
X196179440Y-103340000D01*
X196148832Y-103186124D01*
X196338323Y-103339499D01*
X196858890Y-103493570D01*
X197358000Y-103493570D01*
X197358000Y-102235000D01*
X197612000Y-102235000D01*
X197612000Y-103493570D01*
X198111110Y-103493570D01*
X198631677Y-103339499D01*
X199053658Y-102997944D01*
X199312810Y-102520903D01*
X199326993Y-102449275D01*
X199204339Y-102235000D01*
X197612000Y-102235000D01*
X197358000Y-102235000D01*
X195765661Y-102235000D01*
X195643007Y-102449275D01*
X195657190Y-102520903D01*
X195776907Y-102741274D01*
X195532000Y-102692560D01*
X193532000Y-102692560D01*
X193284235Y-102741843D01*
X193074191Y-102882191D01*
X192933843Y-103092235D01*
X192884560Y-103340000D01*
X192167000Y-103340000D01*
X192167000Y-103213690D01*
X192070327Y-102980301D01*
X191891698Y-102801673D01*
X191658309Y-102705000D01*
X190817750Y-102705000D01*
X190659000Y-102863750D01*
X190405000Y-102863750D01*
X190246250Y-102705000D01*
X189405691Y-102705000D01*
X189172302Y-102801673D01*
X188993673Y-102980301D01*
X188897000Y-103213690D01*
X165189043Y-103213690D01*
X165189069Y-103184337D01*
X165040507Y-102824788D01*
X164765659Y-102549460D01*
X164406370Y-102400270D01*
X164017337Y-102399931D01*
X163657788Y-102548493D01*
X163382460Y-102823341D01*
X163322036Y-102968859D01*
X163262507Y-102824788D01*
X162987659Y-102549460D01*
X162628370Y-102400270D01*
X162239337Y-102399931D01*
X161879788Y-102548493D01*
X161604460Y-102823341D01*
X161455270Y-103182630D01*
X161455013Y-103477198D01*
X158818652Y-106113560D01*
X158577000Y-106113560D01*
X158367000Y-106155331D01*
X158367000Y-105569872D01*
X158457730Y-105351370D01*
X158458069Y-104962337D01*
X158309507Y-104602788D01*
X158034659Y-104327460D01*
X157675370Y-104178270D01*
X157286337Y-104177931D01*
X156926788Y-104326493D01*
X156651460Y-104601341D01*
X156502270Y-104960630D01*
X156501931Y-105349663D01*
X156650493Y-105709212D01*
X156847000Y-105906062D01*
X156847000Y-106306470D01*
X156708843Y-106513235D01*
X156659560Y-106761000D01*
X156659560Y-108311000D01*
X156708843Y-108558765D01*
X156847000Y-108765530D01*
X156847000Y-110641000D01*
X156904852Y-110931839D01*
X157069599Y-111178401D01*
X157404758Y-111513560D01*
X157307000Y-111513560D01*
X157059235Y-111562843D01*
X156849191Y-111703191D01*
X156708843Y-111913235D01*
X156659560Y-112161000D01*
X156659560Y-113711000D01*
X156708843Y-113958765D01*
X156847000Y-114165530D01*
X156847000Y-114989075D01*
X156804371Y-115031630D01*
X156591243Y-115544900D01*
X156590758Y-116100661D01*
X156802990Y-116614303D01*
X157195630Y-117007629D01*
X157708900Y-117220757D01*
X158264661Y-117221242D01*
X158778303Y-117009010D01*
X159171629Y-116616370D01*
X159257949Y-116408488D01*
X159342990Y-116614303D01*
X159735630Y-117007629D01*
X160248900Y-117220757D01*
X160804661Y-117221242D01*
X161318303Y-117009010D01*
X161711629Y-116616370D01*
X161797949Y-116408488D01*
X161882990Y-116614303D01*
X162275630Y-117007629D01*
X162788900Y-117220757D01*
X163344661Y-117221242D01*
X163858303Y-117009010D01*
X164251629Y-116616370D01*
X164337949Y-116408488D01*
X164422990Y-116614303D01*
X164815630Y-117007629D01*
X165328900Y-117220757D01*
X165884661Y-117221242D01*
X166398303Y-117009010D01*
X166791629Y-116616370D01*
X166877949Y-116408488D01*
X166962990Y-116614303D01*
X167355630Y-117007629D01*
X167868900Y-117220757D01*
X168424661Y-117221242D01*
X168938303Y-117009010D01*
X169331629Y-116616370D01*
X169417949Y-116408488D01*
X169502990Y-116614303D01*
X169895630Y-117007629D01*
X170408900Y-117220757D01*
X170964661Y-117221242D01*
X171478303Y-117009010D01*
X171871629Y-116616370D01*
X171965870Y-116389412D01*
X172027826Y-116538997D01*
X172392801Y-116943858D01*
X172884928Y-117178231D01*
X173101000Y-117056476D01*
X173101000Y-115951000D01*
X173355000Y-115951000D01*
X173355000Y-117056476D01*
X173571072Y-117178231D01*
X174063199Y-116943858D01*
X174428174Y-116538997D01*
X174582220Y-116167070D01*
X174459720Y-115951000D01*
X173355000Y-115951000D01*
X173101000Y-115951000D01*
X173081000Y-115951000D01*
X173081000Y-115697000D01*
X173101000Y-115697000D01*
X173101000Y-114591524D01*
X173355000Y-114591524D01*
X173355000Y-115697000D01*
X174459720Y-115697000D01*
X174582220Y-115480930D01*
X174428174Y-115109003D01*
X174063199Y-114704142D01*
X173571072Y-114469769D01*
X173355000Y-114591524D01*
X173101000Y-114591524D01*
X172884928Y-114469769D01*
X172392801Y-114704142D01*
X172027826Y-115109003D01*
X171965902Y-115258513D01*
X171873010Y-115033697D01*
X171480370Y-114640371D01*
X170967100Y-114427243D01*
X170411339Y-114426758D01*
X169897697Y-114638990D01*
X169504371Y-115031630D01*
X169418051Y-115239512D01*
X169333010Y-115033697D01*
X168940370Y-114640371D01*
X168427100Y-114427243D01*
X168079862Y-114426940D01*
X170340318Y-112166484D01*
X170492630Y-112229730D01*
X170881663Y-112230069D01*
X171241212Y-112081507D01*
X171516540Y-111806659D01*
X171642215Y-111504000D01*
X175641000Y-111504000D01*
X175641000Y-118237000D01*
X156133000Y-118237000D01*
X156133000Y-89576815D01*
X156614630Y-89576815D01*
X156938980Y-90361800D01*
X157539041Y-90962909D01*
X158323459Y-91288628D01*
X159172815Y-91289370D01*
X159957800Y-90965020D01*
X160558909Y-90364959D01*
X160884628Y-89580541D01*
X160885370Y-88731185D01*
X160561020Y-87946200D01*
X159960959Y-87345091D01*
X159176541Y-87019372D01*
X158327185Y-87018630D01*
X157542200Y-87342980D01*
X156941091Y-87943041D01*
X156615372Y-88727459D01*
X156614630Y-89576815D01*
X156133000Y-89576815D01*
X156133000Y-86537000D01*
X181302881Y-86537000D01*
X179576595Y-88263287D01*
X179576595Y-88263287D01*
G37*
X179576595Y-88263287D02*
X179422426Y-88494016D01*
X179387851Y-88667835D01*
X179368289Y-88766181D01*
X179368289Y-89824012D01*
X174432189Y-94760113D01*
X174413010Y-94713697D01*
X174020370Y-94320371D01*
X173507100Y-94107243D01*
X172951339Y-94106758D01*
X172437697Y-94318990D01*
X172044371Y-94711630D01*
X171958051Y-94919512D01*
X171873010Y-94713697D01*
X171480370Y-94320371D01*
X170967100Y-94107243D01*
X170411339Y-94106758D01*
X169897697Y-94318990D01*
X169504371Y-94711630D01*
X169418051Y-94919512D01*
X169333010Y-94713697D01*
X168940370Y-94320371D01*
X168427100Y-94107243D01*
X167871339Y-94106758D01*
X167357697Y-94318990D01*
X166964371Y-94711630D01*
X166878051Y-94919512D01*
X166793010Y-94713697D01*
X166400370Y-94320371D01*
X165887100Y-94107243D01*
X165331339Y-94106758D01*
X164817697Y-94318990D01*
X164424371Y-94711630D01*
X164338051Y-94919512D01*
X164253010Y-94713697D01*
X163860370Y-94320371D01*
X163347100Y-94107243D01*
X162791339Y-94106758D01*
X162277697Y-94318990D01*
X161884371Y-94711630D01*
X161798051Y-94919512D01*
X161713010Y-94713697D01*
X161320370Y-94320371D01*
X160807100Y-94107243D01*
X160251339Y-94106758D01*
X159737697Y-94318990D01*
X159344371Y-94711630D01*
X159258051Y-94919512D01*
X159173010Y-94713697D01*
X158780370Y-94320371D01*
X158267100Y-94107243D01*
X157711339Y-94106758D01*
X157197697Y-94318990D01*
X156804371Y-94711630D01*
X156591243Y-95224900D01*
X156590758Y-95780661D01*
X156802990Y-96294303D01*
X157195630Y-96687629D01*
X157708900Y-96900757D01*
X158264661Y-96901242D01*
X158778303Y-96689010D01*
X159171629Y-96296370D01*
X159257949Y-96088488D01*
X159342990Y-96294303D01*
X159735630Y-96687629D01*
X160248900Y-96900757D01*
X160804661Y-96901242D01*
X161318303Y-96689010D01*
X161711629Y-96296370D01*
X161797949Y-96088488D01*
X161882990Y-96294303D01*
X162275630Y-96687629D01*
X162788900Y-96900757D01*
X163344661Y-96901242D01*
X163858303Y-96689010D01*
X164251629Y-96296370D01*
X164337949Y-96088488D01*
X164422990Y-96294303D01*
X164815630Y-96687629D01*
X165328900Y-96900757D01*
X165884661Y-96901242D01*
X166398303Y-96689010D01*
X166791629Y-96296370D01*
X166877949Y-96088488D01*
X166962990Y-96294303D01*
X167355630Y-96687629D01*
X167868900Y-96900757D01*
X168424661Y-96901242D01*
X168938303Y-96689010D01*
X169331629Y-96296370D01*
X169417949Y-96088488D01*
X169502990Y-96294303D01*
X169895630Y-96687629D01*
X170408900Y-96900757D01*
X170964661Y-96901242D01*
X171478303Y-96689010D01*
X171871629Y-96296370D01*
X171957949Y-96088488D01*
X172042990Y-96294303D01*
X172435630Y-96687629D01*
X172484415Y-96707886D01*
X171351502Y-97840800D01*
X168057794Y-97840800D01*
X167940659Y-97723460D01*
X167581370Y-97574270D01*
X167192337Y-97573931D01*
X166832788Y-97722493D01*
X166557460Y-97997341D01*
X166408270Y-98356630D01*
X166407931Y-98745663D01*
X166556493Y-99105212D01*
X166831341Y-99380540D01*
X167170141Y-99521222D01*
X167169931Y-99761663D01*
X167318493Y-100121212D01*
X167593341Y-100396540D01*
X167952630Y-100545730D01*
X168341663Y-100546069D01*
X168701212Y-100397507D01*
X168819726Y-100279200D01*
X175266330Y-100279200D01*
X175538495Y-100225063D01*
X175769224Y-100070894D01*
X178812118Y-97028000D01*
X195563397Y-97028000D01*
X195668867Y-97558235D01*
X195969221Y-98007746D01*
X196403616Y-98298000D01*
X195969221Y-98588254D01*
X195668867Y-99037765D01*
X195563397Y-99568000D01*
X195668867Y-100098235D01*
X195969221Y-100547746D01*
X196418732Y-100848100D01*
X196428032Y-100849950D01*
X196338323Y-100876501D01*
X195916342Y-101218056D01*
X195657190Y-101695097D01*
X195643007Y-101766725D01*
X195765661Y-101981000D01*
X197358000Y-101981000D01*
X197358000Y-101961000D01*
X197612000Y-101961000D01*
X197612000Y-101981000D01*
X199204339Y-101981000D01*
X199326993Y-101766725D01*
X199312810Y-101695097D01*
X199053658Y-101218056D01*
X198631677Y-100876501D01*
X198541968Y-100849950D01*
X198551268Y-100848100D01*
X199000779Y-100547746D01*
X199301133Y-100098235D01*
X199406603Y-99568000D01*
X199301133Y-99037765D01*
X199000779Y-98588254D01*
X198566384Y-98298000D01*
X199000779Y-98007746D01*
X199301133Y-97558235D01*
X199406603Y-97028000D01*
X199301133Y-96497765D01*
X199000779Y-96048254D01*
X198551268Y-95747900D01*
X198021033Y-95642430D01*
X196948967Y-95642430D01*
X196418732Y-95747900D01*
X195969221Y-96048254D01*
X195668867Y-96497765D01*
X195563397Y-97028000D01*
X178812118Y-97028000D01*
X183154185Y-92685933D01*
X183250997Y-92782914D01*
X183833341Y-93024724D01*
X184463893Y-93025275D01*
X185046657Y-92784481D01*
X185400226Y-92431529D01*
X185750997Y-92782914D01*
X186333341Y-93024724D01*
X186963893Y-93025275D01*
X187546657Y-92784481D01*
X187900226Y-92431529D01*
X188250997Y-92782914D01*
X188833341Y-93024724D01*
X189463893Y-93025275D01*
X190046657Y-92784481D01*
X190492914Y-92339003D01*
X190734724Y-91756659D01*
X190735275Y-91126107D01*
X190494481Y-90543343D01*
X190402729Y-90451431D01*
X190557809Y-90347809D01*
X190698157Y-90137765D01*
X190747440Y-89890000D01*
X190747440Y-87990000D01*
X190698157Y-87742235D01*
X190557809Y-87532191D01*
X190362068Y-87401400D01*
X191401960Y-87401400D01*
X191401960Y-89636600D01*
X191451243Y-89884365D01*
X191591591Y-90094409D01*
X191801635Y-90234757D01*
X192049400Y-90284040D01*
X194284600Y-90284040D01*
X194532365Y-90234757D01*
X194742409Y-90094409D01*
X194882757Y-89884365D01*
X194932040Y-89636600D01*
X194932040Y-89576815D01*
X195730630Y-89576815D01*
X196054980Y-90361800D01*
X196655041Y-90962909D01*
X197439459Y-91288628D01*
X198288815Y-91289370D01*
X199073800Y-90965020D01*
X199674909Y-90364959D01*
X200000628Y-89580541D01*
X200001370Y-88731185D01*
X199677020Y-87946200D01*
X199076959Y-87345091D01*
X198292541Y-87019372D01*
X197443185Y-87018630D01*
X196658200Y-87342980D01*
X196057091Y-87943041D01*
X195731372Y-88727459D01*
X195730630Y-89576815D01*
X194932040Y-89576815D01*
X194932040Y-87401400D01*
X194882757Y-87153635D01*
X194742409Y-86943591D01*
X194532365Y-86803243D01*
X194284600Y-86753960D01*
X192049400Y-86753960D01*
X191801635Y-86803243D01*
X191591591Y-86943591D01*
X191451243Y-87153635D01*
X191401960Y-87401400D01*
X190362068Y-87401400D01*
X190347765Y-87391843D01*
X190100000Y-87342560D01*
X189658143Y-87342560D01*
X189652895Y-87334706D01*
X188855188Y-86537000D01*
X200483000Y-86537000D01*
X200483000Y-111125000D01*
X196412830Y-111125000D01*
X196509629Y-111028370D01*
X196722757Y-110515100D01*
X196723242Y-109959339D01*
X196511010Y-109445697D01*
X196118370Y-109052371D01*
X195910488Y-108966051D01*
X196116303Y-108881010D01*
X196509629Y-108488370D01*
X196722757Y-107975100D01*
X196723242Y-107419339D01*
X196511010Y-106905697D01*
X196118370Y-106512371D01*
X195605100Y-106299243D01*
X195049339Y-106298758D01*
X194535697Y-106510990D01*
X194142371Y-106903630D01*
X193929243Y-107416900D01*
X193928758Y-107972661D01*
X194140990Y-108486303D01*
X194533630Y-108879629D01*
X194741512Y-108965949D01*
X194535697Y-109050990D01*
X194485600Y-109101000D01*
X192263470Y-109101000D01*
X192256157Y-109064235D01*
X192115809Y-108854191D01*
X191905765Y-108713843D01*
X191877791Y-108708279D01*
X192017699Y-108650327D01*
X192196327Y-108471698D01*
X192293000Y-108238309D01*
X192293000Y-107647750D01*
X192134250Y-107489000D01*
X191135000Y-107489000D01*
X191135000Y-107509000D01*
X190881000Y-107509000D01*
X190881000Y-107489000D01*
X189881750Y-107489000D01*
X189723000Y-107647750D01*
X189723000Y-108238309D01*
X189819673Y-108471698D01*
X189998301Y-108650327D01*
X190138209Y-108708279D01*
X190110235Y-108713843D01*
X189900191Y-108854191D01*
X189759843Y-109064235D01*
X189710560Y-109312000D01*
X189710560Y-110812000D01*
X189759843Y-111059765D01*
X189803432Y-111125000D01*
X182781227Y-111125000D01*
X182925212Y-111065507D01*
X183200540Y-110790659D01*
X183349730Y-110431370D01*
X183350069Y-110042337D01*
X183201507Y-109682788D01*
X183123315Y-109604460D01*
X183143157Y-109574765D01*
X183192440Y-109327000D01*
X183192440Y-107777000D01*
X183143157Y-107529235D01*
X183002809Y-107319191D01*
X182792765Y-107178843D01*
X182545000Y-107129560D01*
X181945000Y-107129560D01*
X181697235Y-107178843D01*
X181610000Y-107237132D01*
X181522765Y-107178843D01*
X181275000Y-107129560D01*
X180675000Y-107129560D01*
X180427235Y-107178843D01*
X180340000Y-107237132D01*
X180252765Y-107178843D01*
X180005000Y-107129560D01*
X179405000Y-107129560D01*
X179157235Y-107178843D01*
X179078028Y-107231768D01*
X178861310Y-107142000D01*
X178720750Y-107142000D01*
X178562000Y-107300750D01*
X178562000Y-108425000D01*
X178582000Y-108425000D01*
X178582000Y-108679000D01*
X178562000Y-108679000D01*
X178562000Y-108699000D01*
X178308000Y-108699000D01*
X178308000Y-108679000D01*
X177658750Y-108679000D01*
X177500000Y-108837750D01*
X177500000Y-109453309D01*
X177509399Y-109476000D01*
X168656000Y-109476000D01*
X168365160Y-109533852D01*
X168118599Y-109698599D01*
X163377381Y-114439817D01*
X163347100Y-114427243D01*
X162791339Y-114426758D01*
X162277697Y-114638990D01*
X162177000Y-114739511D01*
X162177000Y-114165530D01*
X162315157Y-113958765D01*
X162364440Y-113711000D01*
X162364440Y-112161000D01*
X162315157Y-111913235D01*
X162174809Y-111703191D01*
X161964765Y-111562843D01*
X161717000Y-111513560D01*
X161117000Y-111513560D01*
X160869235Y-111562843D01*
X160790028Y-111615768D01*
X160573310Y-111526000D01*
X160432750Y-111526000D01*
X160274000Y-111684750D01*
X160274000Y-112809000D01*
X160294000Y-112809000D01*
X160294000Y-113063000D01*
X160274000Y-113063000D01*
X160274000Y-114187250D01*
X160432750Y-114346000D01*
X160573310Y-114346000D01*
X160657000Y-114311334D01*
X160657000Y-114427112D01*
X160251339Y-114426758D01*
X159737697Y-114638990D01*
X159344371Y-115031630D01*
X159258051Y-115239512D01*
X159173010Y-115033697D01*
X158780370Y-114640371D01*
X158367000Y-114468725D01*
X158367000Y-114316669D01*
X158577000Y-114358440D01*
X159177000Y-114358440D01*
X159424765Y-114309157D01*
X159503972Y-114256232D01*
X159720690Y-114346000D01*
X159861250Y-114346000D01*
X160020000Y-114187250D01*
X160020000Y-113063000D01*
X160000000Y-113063000D01*
X160000000Y-112809000D01*
X160020000Y-112809000D01*
X160020000Y-111684750D01*
X159861250Y-111526000D01*
X159720690Y-111526000D01*
X159560553Y-111592331D01*
X159414401Y-111373599D01*
X158367000Y-110326198D01*
X158367000Y-108916669D01*
X158577000Y-108958440D01*
X159177000Y-108958440D01*
X159424765Y-108909157D01*
X159512000Y-108850868D01*
X159599235Y-108909157D01*
X159847000Y-108958440D01*
X160447000Y-108958440D01*
X160694765Y-108909157D01*
X160782000Y-108850868D01*
X160869235Y-108909157D01*
X161117000Y-108958440D01*
X161717000Y-108958440D01*
X161964765Y-108909157D01*
X162174809Y-108768809D01*
X162315157Y-108558765D01*
X162364440Y-108311000D01*
X162364440Y-107650691D01*
X177500000Y-107650691D01*
X177500000Y-108266250D01*
X177658750Y-108425000D01*
X178308000Y-108425000D01*
X178308000Y-107300750D01*
X178149250Y-107142000D01*
X178008690Y-107142000D01*
X177775301Y-107238673D01*
X177596673Y-107417302D01*
X177500000Y-107650691D01*
X162364440Y-107650691D01*
X162364440Y-106761000D01*
X162315157Y-106513235D01*
X162296753Y-106485691D01*
X189723000Y-106485691D01*
X189723000Y-107076250D01*
X189881750Y-107235000D01*
X190881000Y-107235000D01*
X190881000Y-106135750D01*
X191135000Y-106135750D01*
X191135000Y-107235000D01*
X192134250Y-107235000D01*
X192293000Y-107076250D01*
X192293000Y-106485691D01*
X192196327Y-106252302D01*
X192017699Y-106073673D01*
X191784310Y-105977000D01*
X191293750Y-105977000D01*
X191135000Y-106135750D01*
X190881000Y-106135750D01*
X190722250Y-105977000D01*
X190231690Y-105977000D01*
X189998301Y-106073673D01*
X189819673Y-106252302D01*
X189723000Y-106485691D01*
X162296753Y-106485691D01*
X162174809Y-106303191D01*
X162083217Y-106241991D01*
X162324165Y-106194063D01*
X162554894Y-106039894D01*
X164169038Y-104425750D01*
X188897000Y-104425750D01*
X188897000Y-105066310D01*
X188993673Y-105299699D01*
X189172302Y-105478327D01*
X189405691Y-105575000D01*
X190246250Y-105575000D01*
X190405000Y-105416250D01*
X190405000Y-104267000D01*
X190659000Y-104267000D01*
X190659000Y-105416250D01*
X190817750Y-105575000D01*
X191658309Y-105575000D01*
X191891698Y-105478327D01*
X192070327Y-105299699D01*
X192167000Y-105066310D01*
X192167000Y-104425750D01*
X192008250Y-104267000D01*
X190659000Y-104267000D01*
X190405000Y-104267000D01*
X189055750Y-104267000D01*
X188897000Y-104425750D01*
X164169038Y-104425750D01*
X164238863Y-104355925D01*
X164404663Y-104356069D01*
X164764212Y-104207507D01*
X165039540Y-103932659D01*
X165188730Y-103573370D01*
X165189043Y-103213690D01*
X188897000Y-103213690D01*
X188897000Y-103854250D01*
X189055750Y-104013000D01*
X190405000Y-104013000D01*
X190405000Y-102863750D01*
X190659000Y-102863750D01*
X190659000Y-104013000D01*
X192008250Y-104013000D01*
X192167000Y-103854250D01*
X192167000Y-103340000D01*
X192884560Y-103340000D01*
X192884560Y-104940000D01*
X192933843Y-105187765D01*
X193074191Y-105397809D01*
X193284235Y-105538157D01*
X193532000Y-105587440D01*
X195532000Y-105587440D01*
X195779765Y-105538157D01*
X195974941Y-105407743D01*
X196260599Y-105693401D01*
X196270767Y-105700195D01*
X196274493Y-105709212D01*
X196549341Y-105984540D01*
X196908630Y-106133730D01*
X197297663Y-106134069D01*
X197657212Y-105985507D01*
X197932540Y-105710659D01*
X198081730Y-105351370D01*
X198082069Y-104962337D01*
X197933507Y-104602788D01*
X197658659Y-104327460D01*
X197299370Y-104178270D01*
X196910337Y-104177931D01*
X196899295Y-104182493D01*
X196319401Y-103602599D01*
X196179440Y-103509080D01*
X196179440Y-103340000D01*
X196148832Y-103186124D01*
X196338323Y-103339499D01*
X196858890Y-103493570D01*
X197358000Y-103493570D01*
X197358000Y-102235000D01*
X197612000Y-102235000D01*
X197612000Y-103493570D01*
X198111110Y-103493570D01*
X198631677Y-103339499D01*
X199053658Y-102997944D01*
X199312810Y-102520903D01*
X199326993Y-102449275D01*
X199204339Y-102235000D01*
X197612000Y-102235000D01*
X197358000Y-102235000D01*
X195765661Y-102235000D01*
X195643007Y-102449275D01*
X195657190Y-102520903D01*
X195776907Y-102741274D01*
X195532000Y-102692560D01*
X193532000Y-102692560D01*
X193284235Y-102741843D01*
X193074191Y-102882191D01*
X192933843Y-103092235D01*
X192884560Y-103340000D01*
X192167000Y-103340000D01*
X192167000Y-103213690D01*
X192070327Y-102980301D01*
X191891698Y-102801673D01*
X191658309Y-102705000D01*
X190817750Y-102705000D01*
X190659000Y-102863750D01*
X190405000Y-102863750D01*
X190246250Y-102705000D01*
X189405691Y-102705000D01*
X189172302Y-102801673D01*
X188993673Y-102980301D01*
X188897000Y-103213690D01*
X165189043Y-103213690D01*
X165189069Y-103184337D01*
X165040507Y-102824788D01*
X164765659Y-102549460D01*
X164406370Y-102400270D01*
X164017337Y-102399931D01*
X163657788Y-102548493D01*
X163382460Y-102823341D01*
X163322036Y-102968859D01*
X163262507Y-102824788D01*
X162987659Y-102549460D01*
X162628370Y-102400270D01*
X162239337Y-102399931D01*
X161879788Y-102548493D01*
X161604460Y-102823341D01*
X161455270Y-103182630D01*
X161455013Y-103477198D01*
X158818652Y-106113560D01*
X158577000Y-106113560D01*
X158367000Y-106155331D01*
X158367000Y-105569872D01*
X158457730Y-105351370D01*
X158458069Y-104962337D01*
X158309507Y-104602788D01*
X158034659Y-104327460D01*
X157675370Y-104178270D01*
X157286337Y-104177931D01*
X156926788Y-104326493D01*
X156651460Y-104601341D01*
X156502270Y-104960630D01*
X156501931Y-105349663D01*
X156650493Y-105709212D01*
X156847000Y-105906062D01*
X156847000Y-106306470D01*
X156708843Y-106513235D01*
X156659560Y-106761000D01*
X156659560Y-108311000D01*
X156708843Y-108558765D01*
X156847000Y-108765530D01*
X156847000Y-110641000D01*
X156904852Y-110931839D01*
X157069599Y-111178401D01*
X157404758Y-111513560D01*
X157307000Y-111513560D01*
X157059235Y-111562843D01*
X156849191Y-111703191D01*
X156708843Y-111913235D01*
X156659560Y-112161000D01*
X156659560Y-113711000D01*
X156708843Y-113958765D01*
X156847000Y-114165530D01*
X156847000Y-114989075D01*
X156804371Y-115031630D01*
X156591243Y-115544900D01*
X156590758Y-116100661D01*
X156802990Y-116614303D01*
X157195630Y-117007629D01*
X157708900Y-117220757D01*
X158264661Y-117221242D01*
X158778303Y-117009010D01*
X159171629Y-116616370D01*
X159257949Y-116408488D01*
X159342990Y-116614303D01*
X159735630Y-117007629D01*
X160248900Y-117220757D01*
X160804661Y-117221242D01*
X161318303Y-117009010D01*
X161711629Y-116616370D01*
X161797949Y-116408488D01*
X161882990Y-116614303D01*
X162275630Y-117007629D01*
X162788900Y-117220757D01*
X163344661Y-117221242D01*
X163858303Y-117009010D01*
X164251629Y-116616370D01*
X164337949Y-116408488D01*
X164422990Y-116614303D01*
X164815630Y-117007629D01*
X165328900Y-117220757D01*
X165884661Y-117221242D01*
X166398303Y-117009010D01*
X166791629Y-116616370D01*
X166877949Y-116408488D01*
X166962990Y-116614303D01*
X167355630Y-117007629D01*
X167868900Y-117220757D01*
X168424661Y-117221242D01*
X168938303Y-117009010D01*
X169331629Y-116616370D01*
X169417949Y-116408488D01*
X169502990Y-116614303D01*
X169895630Y-117007629D01*
X170408900Y-117220757D01*
X170964661Y-117221242D01*
X171478303Y-117009010D01*
X171871629Y-116616370D01*
X171965870Y-116389412D01*
X172027826Y-116538997D01*
X172392801Y-116943858D01*
X172884928Y-117178231D01*
X173101000Y-117056476D01*
X173101000Y-115951000D01*
X173355000Y-115951000D01*
X173355000Y-117056476D01*
X173571072Y-117178231D01*
X174063199Y-116943858D01*
X174428174Y-116538997D01*
X174582220Y-116167070D01*
X174459720Y-115951000D01*
X173355000Y-115951000D01*
X173101000Y-115951000D01*
X173081000Y-115951000D01*
X173081000Y-115697000D01*
X173101000Y-115697000D01*
X173101000Y-114591524D01*
X173355000Y-114591524D01*
X173355000Y-115697000D01*
X174459720Y-115697000D01*
X174582220Y-115480930D01*
X174428174Y-115109003D01*
X174063199Y-114704142D01*
X173571072Y-114469769D01*
X173355000Y-114591524D01*
X173101000Y-114591524D01*
X172884928Y-114469769D01*
X172392801Y-114704142D01*
X172027826Y-115109003D01*
X171965902Y-115258513D01*
X171873010Y-115033697D01*
X171480370Y-114640371D01*
X170967100Y-114427243D01*
X170411339Y-114426758D01*
X169897697Y-114638990D01*
X169504371Y-115031630D01*
X169418051Y-115239512D01*
X169333010Y-115033697D01*
X168940370Y-114640371D01*
X168427100Y-114427243D01*
X168079862Y-114426940D01*
X170340318Y-112166484D01*
X170492630Y-112229730D01*
X170881663Y-112230069D01*
X171241212Y-112081507D01*
X171516540Y-111806659D01*
X171642215Y-111504000D01*
X175641000Y-111504000D01*
X175641000Y-118237000D01*
X156133000Y-118237000D01*
X156133000Y-89576815D01*
X156614630Y-89576815D01*
X156938980Y-90361800D01*
X157539041Y-90962909D01*
X158323459Y-91288628D01*
X159172815Y-91289370D01*
X159957800Y-90965020D01*
X160558909Y-90364959D01*
X160884628Y-89580541D01*
X160885370Y-88731185D01*
X160561020Y-87946200D01*
X159960959Y-87345091D01*
X159176541Y-87019372D01*
X158327185Y-87018630D01*
X157542200Y-87342980D01*
X156941091Y-87943041D01*
X156615372Y-88727459D01*
X156614630Y-89576815D01*
X156133000Y-89576815D01*
X156133000Y-86537000D01*
X181302881Y-86537000D01*
X179576595Y-88263287D01*
G36*
X194142371Y-111983630D02*
X193929243Y-112496900D01*
X193928758Y-113052661D01*
X194140990Y-113566303D01*
X194533630Y-113959629D01*
X194741512Y-114045949D01*
X194535697Y-114130990D01*
X194142371Y-114523630D01*
X193929243Y-115036900D01*
X193928758Y-115592661D01*
X194140990Y-116106303D01*
X194533630Y-116499629D01*
X195046900Y-116712757D01*
X195602661Y-116713242D01*
X196116303Y-116501010D01*
X196509629Y-116108370D01*
X196722757Y-115595100D01*
X196723242Y-115039339D01*
X196511010Y-114525697D01*
X196118370Y-114132371D01*
X195910488Y-114046051D01*
X196116303Y-113961010D01*
X196509629Y-113568370D01*
X196722757Y-113055100D01*
X196723242Y-112499339D01*
X196511010Y-111985697D01*
X196412485Y-111887000D01*
X200483000Y-111887000D01*
X200483000Y-124791000D01*
X182861802Y-124791000D01*
X182909401Y-124743401D01*
X183074148Y-124496839D01*
X183132000Y-124206000D01*
X183132000Y-122579000D01*
X183078565Y-122310367D01*
X184200599Y-123432401D01*
X184447161Y-123597148D01*
X184659871Y-123639459D01*
X184740235Y-123693157D01*
X184988000Y-123742440D01*
X186088000Y-123742440D01*
X186335765Y-123693157D01*
X186545809Y-123552809D01*
X186686157Y-123342765D01*
X186735440Y-123095000D01*
X186735440Y-122695000D01*
X186715910Y-122596815D01*
X195730630Y-122596815D01*
X196054980Y-123381800D01*
X196655041Y-123982909D01*
X197439459Y-124308628D01*
X198288815Y-124309370D01*
X199073800Y-123985020D01*
X199674909Y-123384959D01*
X200000628Y-122600541D01*
X200001370Y-121751185D01*
X199677020Y-120966200D01*
X199076959Y-120365091D01*
X198292541Y-120039372D01*
X197443185Y-120038630D01*
X196658200Y-120362980D01*
X196057091Y-120963041D01*
X195731372Y-121747459D01*
X195730630Y-122596815D01*
X186715910Y-122596815D01*
X186710576Y-122570000D01*
X186735440Y-122445000D01*
X186735440Y-122326468D01*
X186882839Y-122297148D01*
X187129401Y-122132401D01*
X190204401Y-119057401D01*
X190284264Y-118937878D01*
X190283931Y-119319663D01*
X190432493Y-119679212D01*
X190707341Y-119954540D01*
X191066630Y-120103730D01*
X191455663Y-120104069D01*
X191815212Y-119955507D01*
X192090540Y-119680659D01*
X192239730Y-119321370D01*
X192240069Y-118932337D01*
X192091507Y-118572788D01*
X192022000Y-118503160D01*
X192022000Y-118015000D01*
X191964148Y-117724161D01*
X191814440Y-117500107D01*
X191814440Y-117170000D01*
X191765157Y-116922235D01*
X191624809Y-116712191D01*
X191414765Y-116571843D01*
X191167000Y-116522560D01*
X190767000Y-116522560D01*
X190642000Y-116547424D01*
X190517000Y-116522560D01*
X190117000Y-116522560D01*
X189992000Y-116547424D01*
X189867000Y-116522560D01*
X189467000Y-116522560D01*
X189342000Y-116547424D01*
X189217000Y-116522560D01*
X189089242Y-116522560D01*
X190854401Y-114757401D01*
X190947920Y-114617440D01*
X191167000Y-114617440D01*
X191414765Y-114568157D01*
X191624809Y-114427809D01*
X191765157Y-114217765D01*
X191814440Y-113970000D01*
X191814440Y-112870000D01*
X191765157Y-112622235D01*
X191711459Y-112541871D01*
X191669148Y-112329161D01*
X191669148Y-112329160D01*
X191504401Y-112082599D01*
X191429400Y-112007598D01*
X191248912Y-111887000D01*
X194239170Y-111887000D01*
X194142371Y-111983630D01*
X194142371Y-111983630D01*
G37*
X194142371Y-111983630D02*
X193929243Y-112496900D01*
X193928758Y-113052661D01*
X194140990Y-113566303D01*
X194533630Y-113959629D01*
X194741512Y-114045949D01*
X194535697Y-114130990D01*
X194142371Y-114523630D01*
X193929243Y-115036900D01*
X193928758Y-115592661D01*
X194140990Y-116106303D01*
X194533630Y-116499629D01*
X195046900Y-116712757D01*
X195602661Y-116713242D01*
X196116303Y-116501010D01*
X196509629Y-116108370D01*
X196722757Y-115595100D01*
X196723242Y-115039339D01*
X196511010Y-114525697D01*
X196118370Y-114132371D01*
X195910488Y-114046051D01*
X196116303Y-113961010D01*
X196509629Y-113568370D01*
X196722757Y-113055100D01*
X196723242Y-112499339D01*
X196511010Y-111985697D01*
X196412485Y-111887000D01*
X200483000Y-111887000D01*
X200483000Y-124791000D01*
X182861802Y-124791000D01*
X182909401Y-124743401D01*
X183074148Y-124496839D01*
X183132000Y-124206000D01*
X183132000Y-122579000D01*
X183078565Y-122310367D01*
X184200599Y-123432401D01*
X184447161Y-123597148D01*
X184659871Y-123639459D01*
X184740235Y-123693157D01*
X184988000Y-123742440D01*
X186088000Y-123742440D01*
X186335765Y-123693157D01*
X186545809Y-123552809D01*
X186686157Y-123342765D01*
X186735440Y-123095000D01*
X186735440Y-122695000D01*
X186715910Y-122596815D01*
X195730630Y-122596815D01*
X196054980Y-123381800D01*
X196655041Y-123982909D01*
X197439459Y-124308628D01*
X198288815Y-124309370D01*
X199073800Y-123985020D01*
X199674909Y-123384959D01*
X200000628Y-122600541D01*
X200001370Y-121751185D01*
X199677020Y-120966200D01*
X199076959Y-120365091D01*
X198292541Y-120039372D01*
X197443185Y-120038630D01*
X196658200Y-120362980D01*
X196057091Y-120963041D01*
X195731372Y-121747459D01*
X195730630Y-122596815D01*
X186715910Y-122596815D01*
X186710576Y-122570000D01*
X186735440Y-122445000D01*
X186735440Y-122326468D01*
X186882839Y-122297148D01*
X187129401Y-122132401D01*
X190204401Y-119057401D01*
X190284264Y-118937878D01*
X190283931Y-119319663D01*
X190432493Y-119679212D01*
X190707341Y-119954540D01*
X191066630Y-120103730D01*
X191455663Y-120104069D01*
X191815212Y-119955507D01*
X192090540Y-119680659D01*
X192239730Y-119321370D01*
X192240069Y-118932337D01*
X192091507Y-118572788D01*
X192022000Y-118503160D01*
X192022000Y-118015000D01*
X191964148Y-117724161D01*
X191814440Y-117500107D01*
X191814440Y-117170000D01*
X191765157Y-116922235D01*
X191624809Y-116712191D01*
X191414765Y-116571843D01*
X191167000Y-116522560D01*
X190767000Y-116522560D01*
X190642000Y-116547424D01*
X190517000Y-116522560D01*
X190117000Y-116522560D01*
X189992000Y-116547424D01*
X189867000Y-116522560D01*
X189467000Y-116522560D01*
X189342000Y-116547424D01*
X189217000Y-116522560D01*
X189089242Y-116522560D01*
X190854401Y-114757401D01*
X190947920Y-114617440D01*
X191167000Y-114617440D01*
X191414765Y-114568157D01*
X191624809Y-114427809D01*
X191765157Y-114217765D01*
X191814440Y-113970000D01*
X191814440Y-112870000D01*
X191765157Y-112622235D01*
X191711459Y-112541871D01*
X191669148Y-112329161D01*
X191669148Y-112329160D01*
X191504401Y-112082599D01*
X191429400Y-112007598D01*
X191248912Y-111887000D01*
X194239170Y-111887000D01*
X194142371Y-111983630D01*
G36*
X187573600Y-112007598D02*
X184815183Y-114766015D01*
X184718337Y-114765931D01*
X184358788Y-114914493D01*
X184289160Y-114984000D01*
X183136986Y-114984000D01*
X183143157Y-114974765D01*
X183192440Y-114727000D01*
X183192440Y-114712000D01*
X184069601Y-114712000D01*
X184208630Y-114769730D01*
X184597663Y-114770069D01*
X184957212Y-114621507D01*
X185232540Y-114346659D01*
X185381730Y-113987370D01*
X185382069Y-113598337D01*
X185233507Y-113238788D01*
X184958659Y-112963460D01*
X184599370Y-112814270D01*
X184210337Y-112813931D01*
X183850788Y-112962493D01*
X183620880Y-113192000D01*
X183192440Y-113192000D01*
X183192440Y-113177000D01*
X183143157Y-112929235D01*
X183002809Y-112719191D01*
X182792765Y-112578843D01*
X182545000Y-112529560D01*
X181945000Y-112529560D01*
X181697235Y-112578843D01*
X181610000Y-112637132D01*
X181522765Y-112578843D01*
X181275000Y-112529560D01*
X180675000Y-112529560D01*
X180427235Y-112578843D01*
X180340000Y-112637132D01*
X180252765Y-112578843D01*
X180005000Y-112529560D01*
X179405000Y-112529560D01*
X179157235Y-112578843D01*
X179078028Y-112631768D01*
X178861310Y-112542000D01*
X178720750Y-112542000D01*
X178562000Y-112700750D01*
X178562000Y-113825000D01*
X178582000Y-113825000D01*
X178582000Y-114079000D01*
X178562000Y-114079000D01*
X178562000Y-115203250D01*
X178720750Y-115362000D01*
X178861310Y-115362000D01*
X178945000Y-115327334D01*
X178945000Y-115582142D01*
X178749460Y-115777341D01*
X178600270Y-116136630D01*
X178599931Y-116525663D01*
X178748493Y-116885212D01*
X179023341Y-117160540D01*
X179382630Y-117309730D01*
X179481014Y-117309816D01*
X179548599Y-117377401D01*
X179795161Y-117542148D01*
X180086000Y-117600000D01*
X187612198Y-117600000D01*
X186592198Y-118620000D01*
X182118000Y-118620000D01*
X181827161Y-118677852D01*
X181580599Y-118842599D01*
X181256105Y-119167093D01*
X181148659Y-119059460D01*
X180789370Y-118910270D01*
X180400337Y-118909931D01*
X180040788Y-119058493D01*
X179971160Y-119128000D01*
X179324000Y-119128000D01*
X179033161Y-119185852D01*
X178786599Y-119350599D01*
X177231198Y-120906000D01*
X176875440Y-120906000D01*
X176875440Y-119546000D01*
X176826157Y-119298235D01*
X176685809Y-119088191D01*
X176475765Y-118947843D01*
X176386937Y-118930174D01*
X176393333Y-118920601D01*
X176403000Y-118872000D01*
X176403000Y-114237750D01*
X177500000Y-114237750D01*
X177500000Y-114853309D01*
X177596673Y-115086698D01*
X177775301Y-115265327D01*
X178008690Y-115362000D01*
X178149250Y-115362000D01*
X178308000Y-115203250D01*
X178308000Y-114079000D01*
X177658750Y-114079000D01*
X177500000Y-114237750D01*
X176403000Y-114237750D01*
X176403000Y-113050691D01*
X177500000Y-113050691D01*
X177500000Y-113666250D01*
X177658750Y-113825000D01*
X178308000Y-113825000D01*
X178308000Y-112700750D01*
X178149250Y-112542000D01*
X178008690Y-112542000D01*
X177775301Y-112638673D01*
X177596673Y-112817302D01*
X177500000Y-113050691D01*
X176403000Y-113050691D01*
X176403000Y-111887000D01*
X187754088Y-111887000D01*
X187573600Y-112007598D01*
X187573600Y-112007598D01*
G37*
X187573600Y-112007598D02*
X184815183Y-114766015D01*
X184718337Y-114765931D01*
X184358788Y-114914493D01*
X184289160Y-114984000D01*
X183136986Y-114984000D01*
X183143157Y-114974765D01*
X183192440Y-114727000D01*
X183192440Y-114712000D01*
X184069601Y-114712000D01*
X184208630Y-114769730D01*
X184597663Y-114770069D01*
X184957212Y-114621507D01*
X185232540Y-114346659D01*
X185381730Y-113987370D01*
X185382069Y-113598337D01*
X185233507Y-113238788D01*
X184958659Y-112963460D01*
X184599370Y-112814270D01*
X184210337Y-112813931D01*
X183850788Y-112962493D01*
X183620880Y-113192000D01*
X183192440Y-113192000D01*
X183192440Y-113177000D01*
X183143157Y-112929235D01*
X183002809Y-112719191D01*
X182792765Y-112578843D01*
X182545000Y-112529560D01*
X181945000Y-112529560D01*
X181697235Y-112578843D01*
X181610000Y-112637132D01*
X181522765Y-112578843D01*
X181275000Y-112529560D01*
X180675000Y-112529560D01*
X180427235Y-112578843D01*
X180340000Y-112637132D01*
X180252765Y-112578843D01*
X180005000Y-112529560D01*
X179405000Y-112529560D01*
X179157235Y-112578843D01*
X179078028Y-112631768D01*
X178861310Y-112542000D01*
X178720750Y-112542000D01*
X178562000Y-112700750D01*
X178562000Y-113825000D01*
X178582000Y-113825000D01*
X178582000Y-114079000D01*
X178562000Y-114079000D01*
X178562000Y-115203250D01*
X178720750Y-115362000D01*
X178861310Y-115362000D01*
X178945000Y-115327334D01*
X178945000Y-115582142D01*
X178749460Y-115777341D01*
X178600270Y-116136630D01*
X178599931Y-116525663D01*
X178748493Y-116885212D01*
X179023341Y-117160540D01*
X179382630Y-117309730D01*
X179481014Y-117309816D01*
X179548599Y-117377401D01*
X179795161Y-117542148D01*
X180086000Y-117600000D01*
X187612198Y-117600000D01*
X186592198Y-118620000D01*
X182118000Y-118620000D01*
X181827161Y-118677852D01*
X181580599Y-118842599D01*
X181256105Y-119167093D01*
X181148659Y-119059460D01*
X180789370Y-118910270D01*
X180400337Y-118909931D01*
X180040788Y-119058493D01*
X179971160Y-119128000D01*
X179324000Y-119128000D01*
X179033161Y-119185852D01*
X178786599Y-119350599D01*
X177231198Y-120906000D01*
X176875440Y-120906000D01*
X176875440Y-119546000D01*
X176826157Y-119298235D01*
X176685809Y-119088191D01*
X176475765Y-118947843D01*
X176386937Y-118930174D01*
X176393333Y-118920601D01*
X176403000Y-118872000D01*
X176403000Y-114237750D01*
X177500000Y-114237750D01*
X177500000Y-114853309D01*
X177596673Y-115086698D01*
X177775301Y-115265327D01*
X178008690Y-115362000D01*
X178149250Y-115362000D01*
X178308000Y-115203250D01*
X178308000Y-114079000D01*
X177658750Y-114079000D01*
X177500000Y-114237750D01*
X176403000Y-114237750D01*
X176403000Y-113050691D01*
X177500000Y-113050691D01*
X177500000Y-113666250D01*
X177658750Y-113825000D01*
X178308000Y-113825000D01*
X178308000Y-112700750D01*
X178149250Y-112542000D01*
X178008690Y-112542000D01*
X177775301Y-112638673D01*
X177596673Y-112817302D01*
X177500000Y-113050691D01*
X176403000Y-113050691D01*
X176403000Y-111887000D01*
X187754088Y-111887000D01*
X187573600Y-112007598D01*
M02*
