M48
INCH,TZ
T1C0.016
T2C0.039
T3C0.040
T4C0.043
T5C0.047
T6C0.118
T7C0.134
%
G90
G05
T1
X19925Y-40300
X20975Y-34850
X21509Y-41366
X21525Y-40367
X22635Y-38026
X24753Y-41505
X24951Y-40567
X25002Y-38116
X25077Y-39320
X25097Y-39958
X25300Y-37100
X26100Y-38200
X26800Y-43625
X27175Y-44950
X27450Y-42775
X27650Y-45050
X28200Y-34900
X28200Y-42800
X29265Y-40224
X29700Y-32300
X29800Y-40300
X30025Y-39125
X30075Y-41911
X30241Y-38700
X30431Y-47483
X30675Y-48517
X30900Y-44500
X31082Y-36600
X31118Y-43441
X31975Y-37775
X32000Y-40400
X32100Y-45600
X32200Y-37000
X33050Y-36500
X33100Y-45500
X33200Y-40300
X33800Y-33666
X33900Y-44100
X34000Y-40400
X34450Y-32950
X35000Y-36500
X35138Y-40169
X35300Y-37200
X36600Y-44800
X37375Y-40425
X38400Y-38800
X39300Y-40400
X40575Y-42800
X40925Y-45025
X41400Y-43300
X41430Y-32362
X41600Y-40300
X42576Y-33126
X42592Y-32052
X42600Y-33900
X42701Y-32762
X43000Y-42800
X43170Y-37703
X43215Y-34339
X43296Y-45071
X43333Y-36696
X43380Y-31996
X44282Y-34282
X44300Y-37400
X44500Y-31800
X44600Y-36700
X44954Y-33491
X45012Y-31536
X45200Y-36600
X45437Y-31884
X45442Y-48573
X45500Y-45500
X45800Y-32177
X45900Y-34300
X46400Y-38100
X46475Y-39283
X46500Y-43900
X46500Y-46500
X46600Y-36000
X46700Y-37100
X46800Y-32000
X47213Y-36618
X47215Y-33025
X47215Y-34400
X47310Y-38169
X47500Y-33800
X47600Y-39300
X47600Y-45541
X47700Y-32200
X48200Y-31900
X48400Y-42800
X48675Y-44150
X48700Y-32400
X48804Y-34302
X48817Y-36142
X48821Y-35200
X48821Y-35700
X48881Y-38983
X48900Y-37000
X49000Y-40300
X49700Y-45100
X50250Y-39700
X50418Y-35670
X50500Y-38700
X50500Y-43800
X50525Y-37400
X51200Y-38600
X51300Y-37600
X51309Y-36903
X51900Y-36481
X52270Y-31700
X52500Y-33400
X52885Y-37121
X52950Y-36550
X53075Y-40125
X53075Y-42725
X54000Y-39400
X54000Y-44700
T2
X21925Y-32000
X22925Y-32000
X23925Y-32000
X24925Y-32000
X31000Y-41000
X31000Y-47000
X32000Y-41000
X32000Y-47000
X33000Y-41000
X33000Y-47000
X34000Y-41000
X34000Y-47000
X35000Y-41000
X35000Y-47000
X36000Y-41000
X36000Y-47000
X37000Y-41000
X37000Y-47000
X38000Y-41000
X38000Y-47000
X39000Y-41000
X39000Y-47000
X40000Y-41000
X40000Y-47000
X41000Y-41000
X41000Y-47000
X42000Y-41000
X42000Y-47000
X43000Y-41000
X43000Y-47000
X44000Y-41000
X44000Y-47000
X45000Y-41000
X45000Y-47000
X46000Y-41000
X46000Y-47000
X46950Y-48500
X47000Y-41000
X47000Y-47000
X47950Y-48500
X48000Y-41000
X48000Y-47000
X48950Y-48500
X49000Y-41000
X49000Y-47000
X50000Y-41000
X50000Y-47000
X51000Y-41000
X51000Y-47000
X51500Y-48500
X52000Y-41000
X52000Y-47000
X52500Y-48500
X53000Y-41000
X53000Y-47000
X53500Y-48500
X54000Y-41000
X54000Y-47000
T3
X19900Y-31800
X19900Y-32800
X19900Y-33800
X25808Y-41025
X25808Y-47025
X25900Y-48400
X25900Y-49875
X26808Y-41025
X26808Y-47025
X26900Y-48400
X26900Y-49875
X27808Y-41025
X27808Y-47025
X27900Y-48400
X27900Y-49875
X28808Y-41025
X28808Y-47025
X29808Y-41025
X29808Y-47025
X32700Y-48500
X33700Y-48500
X34700Y-48500
X43750Y-39550
X44750Y-39550
X53200Y-32800
X53200Y-33800
X53200Y-34800
T4
X19325Y-35275
X22325Y-35275
X25325Y-35275
X26325Y-35275
T5
X16816Y-35600
X16816Y-36584
X16816Y-37569
X16816Y-38553
X16816Y-39537
X16816Y-40521
X16816Y-42500
X16816Y-43484
X16816Y-44469
X16816Y-45453
X16816Y-46437
X16816Y-47421
X17800Y-35600
X17800Y-36584
X17800Y-37569
X17800Y-38553
X17800Y-39537
X17800Y-40521
X17800Y-42500
X17800Y-43484
X17800Y-44469
X17800Y-45453
X17800Y-46437
X17800Y-47421
X31547Y-30100
X31547Y-31084
X32531Y-30100
X32531Y-31084
X33516Y-30100
X33516Y-31084
X34500Y-30100
X34500Y-31084
X36347Y-30100
X36347Y-31084
X37331Y-30100
X37331Y-31084
X38316Y-30100
X38316Y-31084
X39300Y-30100
X39300Y-31084
X41147Y-30100
X41147Y-31084
X42131Y-30100
X42131Y-31084
X43116Y-30100
X43116Y-31084
X43858Y-48622
X44100Y-30100
X44100Y-31084
X44842Y-48622
X45963Y-30100
X45963Y-31084
X46947Y-30100
X46947Y-31084
X47931Y-30100
X47931Y-31084
X48916Y-30100
X48916Y-31084
X49900Y-30100
X49900Y-31084
T6
X16750Y-29750
X16750Y-49750
X36750Y-49750
X53250Y-29750
T7
X45129Y-35180
T0
M30
