G04 #@! TF.FileFunction,Copper,L4,Bot,Signal*
%FSLAX46Y46*%
G04 Gerber Fmt 4.6, Leading zero omitted, Abs format (unit mm)*
G04 Created by KiCad (PCBNEW 4.0.6) date 06/03/17 00:39:33*
%MOMM*%
%LPD*%
G01*
G04 APERTURE LIST*
%ADD10C,0.100000*%
%ADD11C,1.800000*%
%ADD12C,3.401060*%
%ADD13O,2.032000X2.032000*%
%ADD14R,2.032000X2.032000*%
%ADD15R,5.080000X2.540000*%
%ADD16C,10.200000*%
%ADD17R,1.800860X3.500120*%
%ADD18C,1.500000*%
%ADD19C,1.600000*%
%ADD20R,1.250000X1.500000*%
%ADD21R,1.500000X1.250000*%
%ADD22R,0.450000X0.590000*%
%ADD23R,2.500000X2.000000*%
%ADD24R,2.000000X2.500000*%
%ADD25O,1.727200X2.032000*%
%ADD26R,1.727200X2.032000*%
%ADD27O,2.032000X1.727200*%
%ADD28R,2.032000X1.727200*%
%ADD29R,1.800860X0.800100*%
%ADD30R,0.800100X1.800860*%
%ADD31R,1.300000X1.500000*%
%ADD32R,1.500000X1.300000*%
%ADD33R,2.200000X0.800000*%
%ADD34R,6.400000X5.800000*%
%ADD35R,0.850000X0.250000*%
%ADD36R,0.250000X0.850000*%
%ADD37C,1.879600*%
%ADD38R,0.650000X1.060000*%
%ADD39R,0.508000X1.143000*%
%ADD40R,1.498600X0.599440*%
%ADD41C,1.900000*%
%ADD42R,3.500120X1.800860*%
%ADD43R,1.900000X1.900000*%
%ADD44R,1.200000X1.200000*%
%ADD45C,0.800000*%
%ADD46C,0.203200*%
%ADD47C,0.304800*%
%ADD48C,0.609600*%
%ADD49C,0.254000*%
%ADD50C,0.812800*%
G04 APERTURE END LIST*
D10*
D11*
X55689500Y-81280000D03*
X58229500Y-81280000D03*
X60769500Y-81280000D03*
X63309500Y-81280000D03*
D12*
X114627660Y-89357200D03*
D13*
X113665000Y-100457000D03*
D14*
X111125000Y-100457000D03*
D15*
X104521000Y-100076000D03*
X104521000Y-84836000D03*
D16*
X104521000Y-92456000D03*
D17*
X130937000Y-84114640D03*
X130937000Y-89113360D03*
D18*
X78740000Y-104140000D03*
X78740000Y-119380000D03*
X81280000Y-104140000D03*
X81280000Y-119380000D03*
X83820000Y-104140000D03*
X83820000Y-119380000D03*
X86360000Y-104140000D03*
X86360000Y-119380000D03*
X88900000Y-104140000D03*
X88900000Y-119380000D03*
X91440000Y-104140000D03*
X91440000Y-119380000D03*
X93980000Y-104140000D03*
X93980000Y-119380000D03*
X96520000Y-104140000D03*
X96520000Y-119380000D03*
X99060000Y-104140000D03*
X99060000Y-119380000D03*
X101600000Y-104140000D03*
X101600000Y-119380000D03*
X104140000Y-104140000D03*
X104140000Y-119380000D03*
X106680000Y-104140000D03*
X106680000Y-119380000D03*
X109220000Y-104140000D03*
X109220000Y-119380000D03*
X111760000Y-104140000D03*
X111760000Y-119380000D03*
X114300000Y-104140000D03*
X114300000Y-119380000D03*
X116840000Y-104140000D03*
X116840000Y-119380000D03*
X119380000Y-104140000D03*
X119380000Y-119380000D03*
X121920000Y-104140000D03*
X121920000Y-119380000D03*
X124460000Y-104140000D03*
X124460000Y-119380000D03*
X127000000Y-104140000D03*
X127000000Y-119380000D03*
X129540000Y-104140000D03*
X129540000Y-119380000D03*
X132080000Y-104140000D03*
X132080000Y-119380000D03*
X134620000Y-104140000D03*
X134620000Y-119380000D03*
X137160000Y-104140000D03*
X137160000Y-119380000D03*
D19*
X130810000Y-123190000D03*
X133350000Y-123190000D03*
X135890000Y-123190000D03*
D20*
X74295000Y-112756000D03*
X74295000Y-110256000D03*
D21*
X75672000Y-116967000D03*
X73172000Y-116967000D03*
D20*
X137160000Y-117328000D03*
X137160000Y-114828000D03*
D21*
X134259000Y-121285000D03*
X136759000Y-121285000D03*
X131933000Y-121285000D03*
X129433000Y-121285000D03*
X112502000Y-83312000D03*
X110002000Y-83312000D03*
X112502000Y-85598000D03*
X110002000Y-85598000D03*
X128250000Y-101854000D03*
X125750000Y-101854000D03*
X64750000Y-84455000D03*
X62250000Y-84455000D03*
X56094000Y-84074000D03*
X53594000Y-84074000D03*
D22*
X99060000Y-115023000D03*
X99060000Y-117133000D03*
X108966000Y-114769000D03*
X108966000Y-116879000D03*
D23*
X130937000Y-76422500D03*
X130937000Y-80422500D03*
D24*
X131223000Y-126238000D03*
X135223000Y-126238000D03*
D25*
X70866000Y-126682500D03*
X68326000Y-126682500D03*
D26*
X65786000Y-126682500D03*
D25*
X65786000Y-122936000D03*
X68326000Y-122936000D03*
D26*
X70866000Y-122936000D03*
D25*
X88138000Y-123190000D03*
X85598000Y-123190000D03*
D26*
X83058000Y-123190000D03*
D27*
X135128000Y-88392000D03*
X135128000Y-85852000D03*
D28*
X135128000Y-83312000D03*
D27*
X50546000Y-85852000D03*
X50546000Y-83312000D03*
D28*
X50546000Y-80772000D03*
D29*
X80319880Y-83835200D03*
X77317600Y-82885200D03*
X77317600Y-84785200D03*
D30*
X77790000Y-98066860D03*
X76840000Y-101069140D03*
X78740000Y-101069140D03*
X115189000Y-86210140D03*
X116139000Y-83207860D03*
X114239000Y-83207860D03*
X81404500Y-117365780D03*
X82354500Y-114363500D03*
X80454500Y-114363500D03*
D31*
X86360000Y-114474000D03*
X86360000Y-117174000D03*
D32*
X78202800Y-86614000D03*
X80902800Y-86614000D03*
X83392000Y-101092000D03*
X80692000Y-101092000D03*
X79930000Y-98044000D03*
X82630000Y-98044000D03*
D31*
X101600000Y-114394000D03*
X101600000Y-117094000D03*
D32*
X79930000Y-95758000D03*
X82630000Y-95758000D03*
D31*
X81250104Y-109990202D03*
X81250104Y-107290202D03*
X88108104Y-109990202D03*
X88108104Y-107290202D03*
X78964104Y-109990202D03*
X78964104Y-107290202D03*
X83536104Y-109990202D03*
X83536104Y-107290202D03*
X85822104Y-109990202D03*
X85822104Y-107290202D03*
X90394104Y-109990202D03*
X90394104Y-107290202D03*
X94859116Y-109990202D03*
X94859116Y-107290202D03*
X100955116Y-109990202D03*
X100955116Y-107290202D03*
X92710000Y-110015000D03*
X92710000Y-107315000D03*
X96891116Y-109990202D03*
X96891116Y-107290202D03*
X98923116Y-109990202D03*
X98923116Y-107290202D03*
X102987116Y-109990202D03*
X102987116Y-107290202D03*
X94234000Y-117047000D03*
X94234000Y-114347000D03*
X96520000Y-114347000D03*
X96520000Y-117047000D03*
D32*
X69469000Y-106934000D03*
X72169000Y-106934000D03*
D31*
X120777000Y-114347000D03*
X120777000Y-117047000D03*
X115443000Y-114220000D03*
X115443000Y-116920000D03*
X133604000Y-106981000D03*
X133604000Y-109681000D03*
X106680000Y-114267000D03*
X106680000Y-116967000D03*
X109220000Y-109808000D03*
X109220000Y-107108000D03*
D32*
X113872000Y-97155000D03*
X111172000Y-97155000D03*
D31*
X91440000Y-117174000D03*
X91440000Y-114474000D03*
X88900000Y-117174000D03*
X88900000Y-114474000D03*
X78740000Y-114474000D03*
X78740000Y-117174000D03*
D32*
X51990000Y-106299000D03*
X54690000Y-106299000D03*
X51990000Y-103759000D03*
X54690000Y-103759000D03*
X51990000Y-101219000D03*
X54690000Y-101219000D03*
X51910000Y-98679000D03*
X54610000Y-98679000D03*
D33*
X85567000Y-84331000D03*
X85567000Y-86611000D03*
X85567000Y-83191000D03*
D34*
X91567000Y-85471000D03*
D33*
X85567000Y-87751000D03*
X85948000Y-97412000D03*
X85948000Y-99692000D03*
X85948000Y-96272000D03*
D34*
X91948000Y-98552000D03*
D33*
X85948000Y-100832000D03*
D35*
X72214000Y-111879000D03*
X72214000Y-111379000D03*
X72214000Y-110879000D03*
D36*
X71739000Y-109904000D03*
X71239000Y-109904000D03*
X70739000Y-109904000D03*
X70239000Y-109904000D03*
X69739000Y-109904000D03*
D35*
X69264000Y-110879000D03*
X69264000Y-111379000D03*
X69264000Y-111879000D03*
D36*
X69739000Y-112854000D03*
X70239000Y-112854000D03*
X70739000Y-112854000D03*
X71239000Y-112854000D03*
X71739000Y-112854000D03*
D37*
X65551642Y-104203230D03*
X68091642Y-104203230D03*
X70631642Y-104203230D03*
X73171642Y-104203230D03*
X75711642Y-104203230D03*
X65551642Y-119443230D03*
X68091642Y-119443230D03*
X70631642Y-119443230D03*
X73171642Y-119443230D03*
X75711642Y-119443230D03*
D38*
X118110000Y-114597000D03*
X119060000Y-114597000D03*
X117160000Y-114597000D03*
X117160000Y-116797000D03*
X118110000Y-116797000D03*
X119060000Y-116797000D03*
D30*
X136271000Y-109959140D03*
X137221000Y-106956860D03*
X135321000Y-106956860D03*
D33*
X126334000Y-113414000D03*
X126334000Y-115694000D03*
X126334000Y-112274000D03*
D34*
X132334000Y-114554000D03*
D33*
X126334000Y-116834000D03*
D38*
X121920000Y-93896000D03*
X122870000Y-93896000D03*
X120970000Y-93896000D03*
X120970000Y-96096000D03*
X121920000Y-96096000D03*
X122870000Y-96096000D03*
D39*
X128905000Y-99695000D03*
X127635000Y-99695000D03*
X126365000Y-99695000D03*
X125095000Y-99695000D03*
X125095000Y-93345000D03*
X126365000Y-93345000D03*
X127635000Y-93345000D03*
X128905000Y-93345000D03*
D40*
X62230000Y-106299000D03*
X62230000Y-105029000D03*
X62230000Y-103759000D03*
X62230000Y-102489000D03*
X62230000Y-101224080D03*
X62230000Y-99954080D03*
X62230000Y-98684080D03*
X62230000Y-97414080D03*
X56835040Y-97414080D03*
X56835040Y-98684080D03*
X56835040Y-99954080D03*
X56835040Y-101224080D03*
X56835040Y-102489000D03*
X56835040Y-103759000D03*
X56835040Y-105029000D03*
X56835040Y-106299000D03*
D41*
X56705500Y-89598500D03*
X49085500Y-89598500D03*
X64325500Y-89598500D03*
X66865500Y-89598500D03*
D42*
X125430280Y-108712000D03*
X130429000Y-108712000D03*
X76621640Y-92329000D03*
X81620360Y-92329000D03*
D30*
X121920000Y-101323140D03*
X122870000Y-98320860D03*
X120970000Y-98320860D03*
D31*
X119380000Y-98726000D03*
X119380000Y-101426000D03*
X116840000Y-101426000D03*
X116840000Y-98726000D03*
D21*
X126599000Y-121285000D03*
X124099000Y-121285000D03*
X121646000Y-121285000D03*
X119146000Y-121285000D03*
D24*
X124365000Y-126238000D03*
X128365000Y-126238000D03*
D32*
X121746000Y-125984000D03*
X119046000Y-125984000D03*
D19*
X119253000Y-123190000D03*
X121793000Y-123190000D03*
X124333000Y-123190000D03*
D43*
X87630000Y-76454000D03*
D41*
X85130000Y-76454000D03*
X82630000Y-76454000D03*
X80130000Y-76454000D03*
X87630000Y-78954000D03*
X85130000Y-78954000D03*
X82630000Y-78954000D03*
X80130000Y-78954000D03*
D43*
X99822000Y-76454000D03*
D41*
X97322000Y-76454000D03*
X94822000Y-76454000D03*
X92322000Y-76454000D03*
X99822000Y-78954000D03*
X97322000Y-78954000D03*
X94822000Y-78954000D03*
X92322000Y-78954000D03*
D43*
X112014000Y-76454000D03*
D41*
X109514000Y-76454000D03*
X107014000Y-76454000D03*
X104514000Y-76454000D03*
X112014000Y-78954000D03*
X109514000Y-78954000D03*
X107014000Y-78954000D03*
X104514000Y-78954000D03*
D44*
X121369000Y-128143000D03*
X119169000Y-128143000D03*
D43*
X126746000Y-76454000D03*
D41*
X124246000Y-76454000D03*
X121746000Y-76454000D03*
X119246000Y-76454000D03*
X116746000Y-76454000D03*
X126746000Y-78954000D03*
X124246000Y-78954000D03*
X121746000Y-78954000D03*
X119246000Y-78954000D03*
X116746000Y-78954000D03*
D43*
X111399000Y-123501000D03*
D41*
X113899000Y-123501000D03*
D43*
X42712000Y-107950000D03*
D41*
X42712000Y-110450000D03*
X42712000Y-112950000D03*
X42712000Y-115450000D03*
X42712000Y-117950000D03*
X42712000Y-120450000D03*
X45212000Y-107950000D03*
X45212000Y-110450000D03*
X45212000Y-112950000D03*
X45212000Y-115450000D03*
X45212000Y-117950000D03*
X45212000Y-120450000D03*
D43*
X42712000Y-90424000D03*
D41*
X42712000Y-92924000D03*
X42712000Y-95424000D03*
X42712000Y-97924000D03*
X42712000Y-100424000D03*
X42712000Y-102924000D03*
X45212000Y-90424000D03*
X45212000Y-92924000D03*
X45212000Y-95424000D03*
X45212000Y-97924000D03*
X45212000Y-100424000D03*
X45212000Y-102924000D03*
D45*
X63376592Y-103039740D03*
X62871390Y-105421468D03*
X63696802Y-99872800D03*
X77914500Y-123234410D03*
X76263500Y-99377500D03*
X124206000Y-93980000D03*
X117856000Y-96774000D03*
X71628000Y-108712000D03*
X63505723Y-96815345D03*
X112477448Y-87077448D03*
X84074000Y-115570000D03*
X78486000Y-113030000D03*
X110064590Y-93207954D03*
X75438000Y-82042000D03*
X108204000Y-86106000D03*
X84328000Y-102362000D03*
X64262000Y-94234000D03*
X79038865Y-110340193D03*
X127635000Y-100838000D03*
X137160000Y-113538000D03*
X122936000Y-108712000D03*
X119925410Y-83883500D03*
X130324189Y-93732796D03*
X118046500Y-99777590D03*
X124158838Y-99015590D03*
X109972308Y-114480808D03*
X69024500Y-114173000D03*
X103949500Y-114363500D03*
X68072000Y-110807500D03*
X103060500Y-108712000D03*
X97536000Y-98552000D03*
X81216500Y-95948500D03*
X109766615Y-87221115D03*
X119920270Y-93010668D03*
X77295047Y-120605567D03*
X113284000Y-93218000D03*
X114808000Y-92964000D03*
X118364000Y-91440000D03*
X124005292Y-90678000D03*
X128062452Y-90602573D03*
X131826000Y-92661788D03*
X105664000Y-102362000D03*
X108461168Y-83214252D03*
X109220000Y-108712000D03*
X105156000Y-109982000D03*
X118110000Y-111506000D03*
X118110000Y-118110000D03*
X63746096Y-101492322D03*
X89249991Y-102029802D03*
X132764802Y-80518000D03*
X76812148Y-98298000D03*
X78949502Y-92964000D03*
X83948222Y-92710000D03*
X88900000Y-92710000D03*
X66294000Y-97028000D03*
X92964000Y-113792000D03*
X124460000Y-102362000D03*
X134810500Y-101917500D03*
X134810500Y-108521500D03*
X134493000Y-92837000D03*
X53276500Y-88519000D03*
X54632249Y-105069803D03*
X54673500Y-102531198D03*
X50609500Y-102362000D03*
X57492344Y-96584825D03*
X85852000Y-85512198D03*
X120904000Y-115674802D03*
X115570000Y-115570000D03*
X116586000Y-87122000D03*
X120650000Y-85852000D03*
X123962706Y-87126355D03*
X123995413Y-91800973D03*
X124005292Y-89408000D03*
X75692000Y-102362000D03*
X81534000Y-115824000D03*
X81788000Y-93980000D03*
X89662000Y-94488000D03*
X108143506Y-84139026D03*
X116332000Y-81729628D03*
X87503000Y-83693000D03*
X133350000Y-84836000D03*
X122428000Y-81026000D03*
X123634500Y-112141000D03*
X115409492Y-80985942D03*
X105231211Y-82200393D03*
X109652986Y-95765576D03*
X118872000Y-81280000D03*
X121158000Y-81788000D03*
X112522000Y-94996000D03*
X120904000Y-99822000D03*
X118618000Y-94234000D03*
X123698000Y-82296000D03*
X108184061Y-81412990D03*
X114329211Y-80101576D03*
X70231000Y-114427000D03*
X115421668Y-123375844D03*
X74333188Y-102168743D03*
X76391052Y-106453584D03*
X134327889Y-94286662D03*
X130302000Y-95504000D03*
X130048000Y-98044000D03*
X128270000Y-98298000D03*
X128333500Y-94996000D03*
X119925410Y-87376000D03*
X71628000Y-88646000D03*
X86106000Y-112014000D03*
X114183749Y-85067101D03*
X81280000Y-102616000D03*
X86360000Y-102616000D03*
X94932500Y-102679500D03*
X99822000Y-102616000D03*
X137160000Y-100076000D03*
X126238000Y-114554000D03*
X128270000Y-111252000D03*
X69723000Y-108648500D03*
X120166490Y-96949856D03*
X110184146Y-81269211D03*
X113030000Y-80772000D03*
D46*
X62230000Y-102489000D02*
X62825852Y-102489000D01*
X62825852Y-102489000D02*
X63376592Y-103039740D01*
X62471391Y-105021469D02*
X62871390Y-105421468D01*
X62230000Y-105029000D02*
X62237531Y-105021469D01*
X62237531Y-105021469D02*
X62471391Y-105021469D01*
X63258701Y-99877879D02*
X63691723Y-99877879D01*
X63691723Y-99877879D02*
X63696802Y-99872800D01*
X63309500Y-81280000D02*
X64750000Y-82720500D01*
X64750000Y-82720500D02*
X64750000Y-84455000D01*
X76840000Y-101069140D02*
X76840000Y-99954000D01*
X76840000Y-99954000D02*
X76263500Y-99377500D01*
X121825017Y-95286599D02*
X119343401Y-95286599D01*
X121920000Y-95381582D02*
X121825017Y-95286599D01*
X119343401Y-95286599D02*
X117856000Y-96774000D01*
X121920000Y-96096000D02*
X121920000Y-95381582D01*
X122265599Y-93896000D02*
X122265599Y-94649521D01*
X123480599Y-94705401D02*
X124206000Y-93980000D01*
X121920000Y-93896000D02*
X122265599Y-93896000D01*
X122265599Y-94649521D02*
X122321479Y-94705401D01*
X122321479Y-94705401D02*
X123480599Y-94705401D01*
X71239000Y-109904000D02*
X71239000Y-109101000D01*
X71239000Y-109101000D02*
X71628000Y-108712000D01*
X62230000Y-99954080D02*
X63182500Y-99954080D01*
X63182500Y-99954080D02*
X63258701Y-99877879D01*
X112502000Y-87052896D02*
X112477448Y-87077448D01*
X112502000Y-85598000D02*
X112502000Y-87052896D01*
X82354500Y-114363500D02*
X82354500Y-114863880D01*
X82354500Y-114863880D02*
X83060620Y-115570000D01*
X83060620Y-115570000D02*
X84074000Y-115570000D01*
X82354500Y-114363500D02*
X86249500Y-114363500D01*
X86249500Y-114363500D02*
X86360000Y-114474000D01*
X78740000Y-113284000D02*
X78486000Y-113030000D01*
X78740000Y-114474000D02*
X78740000Y-113284000D01*
D47*
X109498905Y-93207954D02*
X110064590Y-93207954D01*
X104521000Y-92456000D02*
X105272954Y-93207954D01*
X105272954Y-93207954D02*
X109498905Y-93207954D01*
D46*
X134259000Y-121285000D02*
X134259000Y-122281000D01*
X134259000Y-122281000D02*
X133350000Y-123190000D01*
X134259000Y-121285000D02*
X131933000Y-121285000D01*
X77317600Y-82885200D02*
X76817220Y-82885200D01*
X76817220Y-82885200D02*
X75974020Y-82042000D01*
X75974020Y-82042000D02*
X75438000Y-82042000D01*
X83392000Y-101092000D02*
X83392000Y-101426000D01*
X83392000Y-101426000D02*
X84328000Y-102362000D01*
X62230000Y-97414080D02*
X62230000Y-96266000D01*
X62230000Y-96266000D02*
X64262000Y-94234000D01*
X61780420Y-99954080D02*
X62230000Y-99954080D01*
D47*
X79038865Y-109964963D02*
X79038865Y-110340193D01*
X78964104Y-109890202D02*
X79038865Y-109964963D01*
D46*
X92710000Y-110015000D02*
X90418902Y-110015000D01*
X90418902Y-110015000D02*
X90394104Y-109990202D01*
D47*
X127635000Y-99695000D02*
X127635000Y-100838000D01*
D46*
X128250000Y-101453000D02*
X127635000Y-100838000D01*
X128250000Y-101854000D02*
X128250000Y-101453000D01*
X137160000Y-114828000D02*
X137160000Y-113538000D01*
X136271000Y-109959140D02*
X136271000Y-105029000D01*
X136271000Y-105029000D02*
X137160000Y-104140000D01*
D48*
X125430280Y-108712000D02*
X122936000Y-108712000D01*
D46*
X119249770Y-83207860D02*
X119925410Y-83883500D01*
X116139000Y-83207860D02*
X119249770Y-83207860D01*
X129936393Y-93345000D02*
X130324189Y-93732796D01*
X128905000Y-93345000D02*
X129936393Y-93345000D01*
X118046500Y-100119500D02*
X118046500Y-99777590D01*
X116840000Y-101426000D02*
X116840000Y-101326000D01*
X116840000Y-101326000D02*
X118046500Y-100119500D01*
D47*
X124158838Y-98904848D02*
X124158838Y-99015590D01*
X123574850Y-98320860D02*
X124158838Y-98904848D01*
X122870000Y-98320860D02*
X123574850Y-98320860D01*
D46*
X126599000Y-121285000D02*
X126599000Y-122113200D01*
X126599000Y-122113200D02*
X128755201Y-124269401D01*
X128755201Y-124269401D02*
X132270599Y-124269401D01*
X132270599Y-124269401D02*
X133350000Y-123190000D01*
X119169000Y-128143000D02*
X119972200Y-128143000D01*
X119972200Y-128143000D02*
X120075401Y-128039799D01*
X120075401Y-128039799D02*
X120075401Y-124907599D01*
X120075401Y-124907599D02*
X121793000Y-123190000D01*
X121793000Y-123190000D02*
X121793000Y-121432000D01*
X121793000Y-121432000D02*
X121646000Y-121285000D01*
X109684116Y-114769000D02*
X109972308Y-114480808D01*
X108966000Y-114769000D02*
X109684116Y-114769000D01*
X69739000Y-112854000D02*
X69739000Y-113458500D01*
X69739000Y-113458500D02*
X69024500Y-114173000D01*
X103919000Y-114394000D02*
X103949500Y-114363500D01*
X101600000Y-114394000D02*
X103919000Y-114394000D01*
D47*
X78964104Y-109990202D02*
X78964104Y-109890202D01*
D46*
X106680000Y-114267000D02*
X108534000Y-114267000D01*
X108534000Y-114267000D02*
X108966000Y-114699000D01*
X108966000Y-114699000D02*
X108966000Y-114769000D01*
X99060000Y-115023000D02*
X97196000Y-115023000D01*
X97196000Y-115023000D02*
X96520000Y-114347000D01*
X99060000Y-115023000D02*
X100971000Y-115023000D01*
X100971000Y-115023000D02*
X101600000Y-114394000D01*
X75711642Y-119443230D02*
X75711642Y-117006642D01*
X75711642Y-117006642D02*
X75672000Y-116967000D01*
D49*
X68643500Y-111379000D02*
X68072000Y-110807500D01*
X69264000Y-111379000D02*
X68643500Y-111379000D01*
X72214000Y-111879000D02*
X71535000Y-111879000D01*
X71535000Y-111879000D02*
X71239000Y-111583000D01*
X71239000Y-111583000D02*
X71239000Y-109904000D01*
X70239000Y-109904000D02*
X70239000Y-111083000D01*
X70239000Y-111083000D02*
X69943000Y-111379000D01*
X69943000Y-111379000D02*
X69264000Y-111379000D01*
X71239000Y-109904000D02*
X71739000Y-109904000D01*
X72214000Y-111879000D02*
X73418000Y-111879000D01*
X73418000Y-111879000D02*
X74295000Y-112756000D01*
D47*
X78740000Y-114474000D02*
X78740000Y-114574000D01*
X78740000Y-114574000D02*
X76347000Y-116967000D01*
X76347000Y-116967000D02*
X75672000Y-116967000D01*
X102987116Y-109990202D02*
X102987116Y-108785384D01*
X102987116Y-108785384D02*
X103060500Y-108712000D01*
X98923116Y-109990202D02*
X98923116Y-109890202D01*
X98923116Y-109890202D02*
X99903317Y-108910001D01*
X99903317Y-108910001D02*
X102006915Y-108910001D01*
X102006915Y-108910001D02*
X102987116Y-109890202D01*
X102987116Y-109890202D02*
X102987116Y-109990202D01*
X96891116Y-109990202D02*
X98923116Y-109990202D01*
X92710000Y-110015000D02*
X92710000Y-109915000D01*
X96891116Y-109890202D02*
X96891116Y-109990202D01*
X92685202Y-109990202D02*
X92710000Y-110015000D01*
X85822104Y-109990202D02*
X85822104Y-108935402D01*
X85822104Y-108935402D02*
X85847505Y-108910001D01*
X85847505Y-108910001D02*
X89413903Y-108910001D01*
X89413903Y-108910001D02*
X90394104Y-109890202D01*
X90394104Y-109890202D02*
X90394104Y-109990202D01*
X83536104Y-109990202D02*
X85822104Y-109990202D01*
X78964104Y-109890202D02*
X79944305Y-108910001D01*
X79944305Y-108910001D02*
X82555903Y-108910001D01*
X82555903Y-108910001D02*
X83536104Y-109890202D01*
X83536104Y-109890202D02*
X83536104Y-109990202D01*
X79930000Y-95758000D02*
X81026000Y-95758000D01*
X81026000Y-95758000D02*
X81216500Y-95948500D01*
D46*
X112502000Y-85598000D02*
X112502000Y-83312000D01*
D48*
X110002000Y-86832600D02*
X110002000Y-85598000D01*
X104521000Y-84836000D02*
X106673601Y-86988601D01*
X109845999Y-86988601D02*
X110002000Y-86832600D01*
X106673601Y-86988601D02*
X109845999Y-86988601D01*
X110002000Y-85598000D02*
X109766615Y-85833385D01*
X109766615Y-85833385D02*
X109766615Y-87221115D01*
X104521000Y-84836000D02*
X103251000Y-84836000D01*
X98938399Y-95763399D02*
X103251000Y-100076000D01*
X103251000Y-84836000D02*
X98938399Y-89148601D01*
X98938399Y-89148601D02*
X98938399Y-95763399D01*
X103251000Y-100076000D02*
X104521000Y-100076000D01*
D46*
X81250104Y-110090202D02*
X81250104Y-109990202D01*
X82179505Y-111019603D02*
X81250104Y-110090202D01*
X87178703Y-111019603D02*
X82179505Y-111019603D01*
X88108104Y-110090202D02*
X87178703Y-111019603D01*
X119920270Y-92634922D02*
X119920270Y-93010668D01*
X121877192Y-90678000D02*
X119920270Y-92634922D01*
X124005292Y-90678000D02*
X121877192Y-90678000D01*
X74435419Y-120707007D02*
X76627922Y-120707007D01*
X76729362Y-120605567D02*
X77295047Y-120605567D01*
X73171642Y-119443230D02*
X74435419Y-120707007D01*
X76627922Y-120707007D02*
X76729362Y-120605567D01*
X113284000Y-93218000D02*
X111239730Y-93218000D01*
X111239730Y-93218000D02*
X111031401Y-93426329D01*
X118364000Y-91440000D02*
X116332000Y-91440000D01*
X116332000Y-91440000D02*
X114808000Y-92964000D01*
X131826000Y-92661788D02*
X131260315Y-92661788D01*
X131260315Y-92661788D02*
X129201100Y-90602573D01*
X129201100Y-90602573D02*
X128062452Y-90602573D01*
X107284521Y-101625401D02*
X108966000Y-99943922D01*
X111031401Y-93426329D02*
X111031401Y-84341401D01*
X111031401Y-84341401D02*
X110002000Y-83312000D01*
X108966000Y-95491730D02*
X111031401Y-93426329D01*
X106400599Y-101625401D02*
X107284521Y-101625401D01*
X105664000Y-102362000D02*
X106400599Y-101625401D01*
X108966000Y-99943922D02*
X108966000Y-95491730D01*
X110002000Y-83312000D02*
X108558916Y-83312000D01*
X108558916Y-83312000D02*
X108461168Y-83214252D01*
X72169000Y-106934000D02*
X73122200Y-106934000D01*
X73122200Y-106934000D02*
X74295000Y-108106800D01*
X74295000Y-108106800D02*
X74295000Y-110256000D01*
X81250104Y-110943402D02*
X81173903Y-111019603D01*
X81250104Y-109990202D02*
X81250104Y-110943402D01*
X81173903Y-111019603D02*
X75886803Y-111019603D01*
X75886803Y-111019603D02*
X75123200Y-110256000D01*
X74295000Y-110256000D02*
X75123200Y-110256000D01*
X75123200Y-110256000D02*
X75199401Y-110332201D01*
X75199401Y-110332201D02*
X75199401Y-113729521D01*
X74970122Y-113958800D02*
X73172000Y-113958800D01*
X75199401Y-113729521D02*
X74970122Y-113958800D01*
X72214000Y-110879000D02*
X73672000Y-110879000D01*
X73672000Y-110879000D02*
X74295000Y-110256000D01*
X72214000Y-111379000D02*
X72214000Y-110879000D01*
X73172000Y-116967000D02*
X73172000Y-113958800D01*
X73172000Y-113958800D02*
X72067200Y-112854000D01*
X72067200Y-112854000D02*
X71739000Y-112854000D01*
X109220000Y-108712000D02*
X109220000Y-109808000D01*
X103860637Y-111019603D02*
X104118397Y-111019603D01*
X104118397Y-111019603D02*
X105156000Y-109982000D01*
X100955116Y-109990202D02*
X100955116Y-110090202D01*
X102489835Y-104889999D02*
X102349999Y-104889999D01*
X100955116Y-110090202D02*
X101884517Y-111019603D01*
X101884517Y-111019603D02*
X103860637Y-111019603D01*
X103860637Y-111019603D02*
X103916517Y-110963723D01*
X103916517Y-110963723D02*
X103916517Y-106316681D01*
X103916517Y-106316681D02*
X102489835Y-104889999D01*
X102349999Y-104889999D02*
X101600000Y-104140000D01*
X94859116Y-109990202D02*
X94859116Y-110090202D01*
X94859116Y-110090202D02*
X95788517Y-111019603D01*
X95788517Y-111019603D02*
X100025715Y-111019603D01*
X100025715Y-111019603D02*
X100955116Y-110090202D01*
X88108104Y-109990202D02*
X88108104Y-110090202D01*
X88108104Y-110090202D02*
X89062303Y-111044401D01*
X89062303Y-111044401D02*
X93904917Y-111044401D01*
X93904917Y-111044401D02*
X94859116Y-110090202D01*
D48*
X109220000Y-109808000D02*
X116412000Y-109808000D01*
X116412000Y-109808000D02*
X118110000Y-111506000D01*
X118110000Y-116797000D02*
X118110000Y-118110000D01*
X118110000Y-116797000D02*
X118110000Y-114597000D01*
D46*
X73171642Y-119443230D02*
X73171642Y-116967358D01*
X73171642Y-116967358D02*
X73172000Y-116967000D01*
X60769500Y-81280000D02*
X62250000Y-82760500D01*
X62250000Y-82760500D02*
X62250000Y-84455000D01*
X91440000Y-114474000D02*
X92282000Y-114474000D01*
X92282000Y-114474000D02*
X92964000Y-113792000D01*
X88900000Y-114474000D02*
X91440000Y-114474000D01*
X124968000Y-101854000D02*
X124460000Y-102362000D01*
X125750000Y-101854000D02*
X124968000Y-101854000D01*
X125750000Y-101854000D02*
X125750000Y-99852800D01*
X125750000Y-99852800D02*
X125907800Y-99695000D01*
X125907800Y-99695000D02*
X126365000Y-99695000D01*
X62250000Y-84455000D02*
X62125000Y-84455000D01*
D50*
X130810000Y-123190000D02*
X130810000Y-122662000D01*
X130810000Y-122662000D02*
X129433000Y-121285000D01*
D46*
X137160000Y-117328000D02*
X137160000Y-119380000D01*
D48*
X135210499Y-93554499D02*
X134493000Y-92837000D01*
X134810500Y-101917500D02*
X135210499Y-101517501D01*
X135210499Y-101517501D02*
X135210499Y-93554499D01*
X132334000Y-114554000D02*
X134810500Y-112077500D01*
X134810500Y-112077500D02*
X134810500Y-108521500D01*
D50*
X130937000Y-89113360D02*
X130937000Y-89281000D01*
X130937000Y-89281000D02*
X134493000Y-92837000D01*
D48*
X135890000Y-123190000D02*
X135890000Y-122154000D01*
X135890000Y-122154000D02*
X136759000Y-121285000D01*
X135223000Y-126238000D02*
X135223000Y-123857000D01*
X135223000Y-123857000D02*
X135890000Y-123190000D01*
D46*
X55689500Y-81280000D02*
X53594000Y-83375500D01*
X53594000Y-83375500D02*
X53594000Y-84074000D01*
X53276500Y-88519000D02*
X53276500Y-84391500D01*
X53276500Y-84391500D02*
X53594000Y-84074000D01*
X58229500Y-81280000D02*
X56094000Y-83415500D01*
X56094000Y-83415500D02*
X56094000Y-84074000D01*
X56835040Y-105029000D02*
X54673052Y-105029000D01*
X54673052Y-105029000D02*
X54632249Y-105069803D01*
X57492344Y-96584825D02*
X57492344Y-96756776D01*
X57492344Y-96756776D02*
X56835040Y-97414080D01*
X56835040Y-99954080D02*
X57787540Y-99954080D01*
X57284620Y-97414080D02*
X56835040Y-97414080D01*
X57787540Y-99954080D02*
X57863741Y-99877879D01*
X57863741Y-99877879D02*
X57863741Y-97993201D01*
X57863741Y-97993201D02*
X57284620Y-97414080D01*
X56835040Y-105029000D02*
X57787540Y-105029000D01*
X57787540Y-105029000D02*
X57863741Y-104952799D01*
X57863741Y-104952799D02*
X57863741Y-103068121D01*
X57863741Y-103068121D02*
X57284620Y-102489000D01*
X57284620Y-102489000D02*
X56835040Y-102489000D01*
X85852000Y-85512198D02*
X85852000Y-84616000D01*
X85852000Y-84616000D02*
X85567000Y-84331000D01*
X101600000Y-117094000D02*
X99099000Y-117094000D01*
X99099000Y-117094000D02*
X99060000Y-117133000D01*
X99060000Y-117133000D02*
X99060000Y-119380000D01*
X120904000Y-115674802D02*
X120904000Y-116920000D01*
X120904000Y-116920000D02*
X120777000Y-117047000D01*
X115570000Y-115570000D02*
X115570000Y-116793000D01*
X115570000Y-116793000D02*
X115443000Y-116920000D01*
X115363000Y-116840000D02*
X115443000Y-116920000D01*
D50*
X130937000Y-80422500D02*
X130937000Y-84114640D01*
X133604000Y-106981000D02*
X135296860Y-106981000D01*
X135296860Y-106981000D02*
X135321000Y-106956860D01*
X130429000Y-108712000D02*
X131873000Y-108712000D01*
X131873000Y-108712000D02*
X133604000Y-106981000D01*
X110003800Y-116879000D02*
X108966000Y-116879000D01*
X126334000Y-113414000D02*
X123450882Y-113414000D01*
X123450882Y-113414000D02*
X122922681Y-112885799D01*
X122922681Y-112885799D02*
X113997001Y-112885799D01*
X113997001Y-112885799D02*
X110003800Y-116879000D01*
X106680000Y-116967000D02*
X108878000Y-116967000D01*
X108878000Y-116967000D02*
X108966000Y-116879000D01*
X104140000Y-119380000D02*
X104267000Y-119380000D01*
X104267000Y-119380000D02*
X106680000Y-116967000D01*
D46*
X116586000Y-87122000D02*
X116100860Y-87122000D01*
X116100860Y-87122000D02*
X115189000Y-86210140D01*
X122688351Y-85852000D02*
X120650000Y-85852000D01*
X123962706Y-87126355D02*
X122688351Y-85852000D01*
X122870000Y-93896000D02*
X122870000Y-93691000D01*
X122870000Y-93691000D02*
X123995413Y-92565587D01*
X123995413Y-92565587D02*
X123995413Y-91800973D01*
X120970000Y-93896000D02*
X119800086Y-93896000D01*
X122517422Y-89408000D02*
X124005292Y-89408000D01*
X119800086Y-93896000D02*
X119240868Y-93336782D01*
X119240868Y-92684554D02*
X122517422Y-89408000D01*
X119240868Y-93336782D02*
X119240868Y-92684554D01*
X75292001Y-93658639D02*
X76621640Y-92329000D01*
X75292001Y-101962001D02*
X75292001Y-93658639D01*
X75692000Y-102362000D02*
X75292001Y-101962001D01*
X81404500Y-117365780D02*
X81404500Y-115953500D01*
X81404500Y-115953500D02*
X81534000Y-115824000D01*
D48*
X64325500Y-89598500D02*
X67056000Y-92329000D01*
X67056000Y-92329000D02*
X76621640Y-92329000D01*
X81788000Y-93980000D02*
X81788000Y-92496640D01*
X81788000Y-92496640D02*
X81620360Y-92329000D01*
X89916000Y-94742000D02*
X89662000Y-94488000D01*
X91948000Y-94742000D02*
X89916000Y-94742000D01*
X101594919Y-83083399D02*
X107447081Y-83083399D01*
X91948000Y-98552000D02*
X91948000Y-94742000D01*
X107447081Y-83083399D02*
X107574690Y-83211008D01*
X107574690Y-83211008D02*
X107574690Y-84135895D01*
X101498399Y-83179919D02*
X101594919Y-83083399D01*
X91948000Y-94742000D02*
X101498399Y-85191601D01*
X107577821Y-84139026D02*
X108143506Y-84139026D01*
X107574690Y-84135895D02*
X107577821Y-84139026D01*
X101498399Y-85191601D02*
X101498399Y-83179919D01*
X118015376Y-81729628D02*
X116332000Y-81729628D01*
X118448350Y-82162602D02*
X118015376Y-81729628D01*
X120420324Y-80425389D02*
X120420324Y-81037928D01*
X121746000Y-79099713D02*
X120420324Y-80425389D01*
X120420324Y-81037928D02*
X119295650Y-82162602D01*
X121746000Y-78954000D02*
X121746000Y-79099713D01*
X119295650Y-82162602D02*
X118448350Y-82162602D01*
X66865500Y-89598500D02*
X80399890Y-89598500D01*
X80399890Y-89598500D02*
X81620360Y-90818970D01*
X81620360Y-90818970D02*
X81620360Y-92329000D01*
D50*
X126746000Y-76454000D02*
X130905500Y-76454000D01*
X130905500Y-76454000D02*
X130937000Y-76422500D01*
D48*
X132320031Y-85865969D02*
X133350000Y-84836000D01*
X132223511Y-86347301D02*
X132320031Y-86250781D01*
X129650489Y-86347301D02*
X132223511Y-86347301D01*
X124329188Y-81026000D02*
X129650489Y-86347301D01*
X122428000Y-81026000D02*
X124329188Y-81026000D01*
X132320031Y-86250781D02*
X132320031Y-85865969D01*
D46*
X123009827Y-112199988D02*
X123068815Y-112141000D01*
X94234000Y-114347000D02*
X94234000Y-114247000D01*
X94234000Y-114247000D02*
X96281012Y-112199988D01*
X96281012Y-112199988D02*
X123009827Y-112199988D01*
X123068815Y-112141000D02*
X123634500Y-112141000D01*
D48*
X128365000Y-126238000D02*
X128365000Y-125294682D01*
X128365000Y-125294682D02*
X125366399Y-122296081D01*
X125366399Y-122296081D02*
X125366399Y-120297851D01*
X125730000Y-119934250D02*
X125730000Y-118849562D01*
X125366399Y-120297851D02*
X125730000Y-119934250D01*
X125730000Y-118849562D02*
X128018201Y-116561361D01*
X112014000Y-76454000D02*
X112014000Y-78954000D01*
X123634500Y-112141000D02*
X126201000Y-112141000D01*
X126201000Y-112141000D02*
X126334000Y-112274000D01*
D50*
X126334000Y-116834000D02*
X127745562Y-116834000D01*
X127745562Y-116834000D02*
X128018201Y-116561361D01*
X128018201Y-116561361D02*
X128018201Y-112546639D01*
X128018201Y-112546639D02*
X127745562Y-112274000D01*
X127745562Y-112274000D02*
X126334000Y-112274000D01*
X131223000Y-126238000D02*
X128365000Y-126238000D01*
D48*
X100710988Y-82853763D02*
X101364358Y-82200393D01*
X100710988Y-83341445D02*
X100710988Y-82853763D01*
X101364358Y-82200393D02*
X105231211Y-82200393D01*
X90447035Y-93605398D02*
X100710988Y-83341445D01*
X89238350Y-93605398D02*
X90447035Y-93605398D01*
X87530601Y-95313147D02*
X89238350Y-93605398D01*
X87530601Y-96625919D02*
X87530601Y-95313147D01*
X115548416Y-80847018D02*
X115409492Y-80985942D01*
X119246000Y-78954000D02*
X117352982Y-80847018D01*
X117352982Y-80847018D02*
X115548416Y-80847018D01*
X85948000Y-100832000D02*
X87176682Y-100832000D01*
X87176682Y-100832000D02*
X87530601Y-100478081D01*
X87530601Y-100478081D02*
X87530601Y-96625919D01*
X87530601Y-96625919D02*
X87176682Y-96272000D01*
X87176682Y-96272000D02*
X85948000Y-96272000D01*
D46*
X104140000Y-104140000D02*
X105200660Y-104140000D01*
X109652986Y-96331261D02*
X109652986Y-95765576D01*
X105200660Y-104140000D02*
X107334248Y-102006412D01*
X109347011Y-100101741D02*
X109347011Y-96637236D01*
X107442340Y-102006412D02*
X109347011Y-100101741D01*
X109347011Y-96637236D02*
X109652986Y-96331261D01*
X107334248Y-102006412D02*
X107442340Y-102006412D01*
X118872000Y-81147514D02*
X118872000Y-81280000D01*
X121746000Y-76454000D02*
X120475401Y-77724599D01*
X120475401Y-77724599D02*
X120475401Y-79544113D01*
X120475401Y-79544113D02*
X118872000Y-81147514D01*
X109728022Y-97597638D02*
X110033997Y-97291663D01*
X110033997Y-97291663D02*
X110033997Y-96390081D01*
X111428078Y-94996000D02*
X112522000Y-94996000D01*
X109728022Y-101091978D02*
X109728022Y-97597638D01*
X110033997Y-96390081D02*
X111428078Y-94996000D01*
X106680000Y-104140000D02*
X109728022Y-101091978D01*
X121158000Y-81788000D02*
X121557999Y-81388001D01*
X121557999Y-81388001D02*
X121557999Y-80183401D01*
X121557999Y-80183401D02*
X122336113Y-80183401D01*
X122336113Y-80183401D02*
X122975401Y-79544113D01*
X122975401Y-79544113D02*
X122975401Y-77724599D01*
X122975401Y-77724599D02*
X124246000Y-76454000D01*
X118618000Y-92768592D02*
X118618000Y-94234000D01*
X119970598Y-86178114D02*
X120976114Y-87183630D01*
X120976114Y-90410478D02*
X118618000Y-92768592D01*
X123132315Y-82296000D02*
X119970598Y-85457717D01*
X123698000Y-82296000D02*
X123132315Y-82296000D01*
X119970598Y-85457717D02*
X119970598Y-86178114D01*
X120976114Y-87183630D02*
X120976114Y-90410478D01*
X120904000Y-99822000D02*
X121469685Y-99822000D01*
X122669999Y-103390001D02*
X121920000Y-104140000D01*
X121469685Y-99822000D02*
X121790994Y-100143309D01*
X121790994Y-100143309D02*
X122543571Y-100143309D01*
X122543571Y-100143309D02*
X122669999Y-100269737D01*
X122669999Y-100269737D02*
X122669999Y-103390001D01*
D48*
X91567000Y-85471000D02*
X95376600Y-85471000D01*
X99529809Y-81317791D02*
X107523177Y-81317791D01*
X107523177Y-81317791D02*
X107618376Y-81412990D01*
X95376600Y-85471000D02*
X99529809Y-81317791D01*
X107618376Y-81412990D02*
X108184061Y-81412990D01*
X114526788Y-79903999D02*
X114329211Y-80101576D01*
X115796001Y-79903999D02*
X114526788Y-79903999D01*
X116746000Y-78954000D02*
X115796001Y-79903999D01*
D49*
X70231000Y-112862000D02*
X70239000Y-112854000D01*
X70231000Y-114427000D02*
X70231000Y-112862000D01*
X65551642Y-109330250D02*
X65551642Y-104203230D01*
X68100392Y-111879000D02*
X65551642Y-109330250D01*
X69264000Y-111879000D02*
X68100392Y-111879000D01*
D46*
X118319340Y-119380000D02*
X115421668Y-122277672D01*
X115421668Y-122277672D02*
X115421668Y-123375844D01*
X119380000Y-119380000D02*
X118319340Y-119380000D01*
X119060000Y-116797000D02*
X119060000Y-119060000D01*
X119060000Y-119060000D02*
X119380000Y-119380000D01*
X117160000Y-116797000D02*
X117160000Y-119060000D01*
X117160000Y-119060000D02*
X116840000Y-119380000D01*
X91440000Y-117174000D02*
X91440000Y-119380000D01*
X76391052Y-106453584D02*
X75825367Y-106453584D01*
X74492441Y-105120658D02*
X74492441Y-102893681D01*
X74333188Y-102734428D02*
X74333188Y-102168743D01*
X74492441Y-102893681D02*
X74333188Y-102734428D01*
X75825367Y-106453584D02*
X74492441Y-105120658D01*
X88900000Y-117174000D02*
X88900000Y-119380000D01*
X133110551Y-95504000D02*
X134327889Y-94286662D01*
X130302000Y-95504000D02*
X133110551Y-95504000D01*
X128270000Y-98298000D02*
X129794000Y-98298000D01*
X129794000Y-98298000D02*
X130048000Y-98044000D01*
X125095000Y-99377500D02*
X126174500Y-98298000D01*
X126174500Y-98298000D02*
X128270000Y-98298000D01*
X125095000Y-99695000D02*
X125095000Y-99377500D01*
X124637800Y-99695000D02*
X125095000Y-99695000D01*
X123710001Y-100622799D02*
X124637800Y-99695000D01*
X123710001Y-103390001D02*
X123710001Y-100622799D01*
X124460000Y-104140000D02*
X123710001Y-103390001D01*
X120970000Y-96517458D02*
X122190549Y-97738007D01*
X122190549Y-97738007D02*
X122190549Y-99444811D01*
X120970000Y-96096000D02*
X120970000Y-96517458D01*
X122190549Y-99444811D02*
X122440738Y-99695000D01*
X122440738Y-99695000D02*
X125095000Y-99695000D01*
X129105516Y-96096000D02*
X130727402Y-97717886D01*
X130727402Y-98329798D02*
X129362200Y-99695000D01*
X125623500Y-96096000D02*
X129105516Y-96096000D01*
X130727402Y-97717886D02*
X130727402Y-98329798D01*
X129362200Y-99695000D02*
X128905000Y-99695000D01*
X130182231Y-102018429D02*
X130182231Y-100515031D01*
X127000000Y-104140000D02*
X128060660Y-104140000D01*
X128060660Y-104140000D02*
X130182231Y-102018429D01*
X130182231Y-100515031D02*
X129362200Y-99695000D01*
X135128000Y-84063516D02*
X135128000Y-83312000D01*
X132514004Y-86931512D02*
X133775402Y-85670114D01*
X133775402Y-85670114D02*
X133775402Y-85416114D01*
X129965436Y-86931512D02*
X132514004Y-86931512D01*
X125623500Y-96096000D02*
X127101599Y-94617901D01*
X127101599Y-94617901D02*
X127101599Y-89795349D01*
X133775402Y-85416114D02*
X135128000Y-84063516D01*
X127101599Y-89795349D02*
X129965436Y-86931512D01*
X122870000Y-96096000D02*
X125623500Y-96096000D01*
X45212000Y-115450000D02*
X51990000Y-108672000D01*
X51990000Y-108672000D02*
X51990000Y-106299000D01*
X45212000Y-112950000D02*
X46441401Y-111720599D01*
X46441401Y-111720599D02*
X46441401Y-109207599D01*
X46441401Y-109207599D02*
X51890000Y-103759000D01*
X51890000Y-103759000D02*
X51990000Y-103759000D01*
X45085000Y-112799500D02*
X45085000Y-112119014D01*
X48655000Y-95424000D02*
X51910000Y-98679000D01*
X45212000Y-95424000D02*
X48655000Y-95424000D01*
X45212000Y-97924000D02*
X48695000Y-97924000D01*
X51036800Y-100365800D02*
X51890000Y-101219000D01*
X48695000Y-97924000D02*
X51036800Y-100265800D01*
X51036800Y-100265800D02*
X51036800Y-100365800D01*
X51890000Y-101219000D02*
X51990000Y-101219000D01*
X111172000Y-97155000D02*
X111172000Y-100410000D01*
X111172000Y-100410000D02*
X111125000Y-100457000D01*
X114918451Y-83816726D02*
X118477725Y-87376000D01*
X114918451Y-82083909D02*
X114918451Y-83816726D01*
X118477725Y-87376000D02*
X119925410Y-87376000D01*
X111588598Y-81308077D02*
X112308550Y-82028029D01*
X111588598Y-80348112D02*
X111588598Y-81308077D01*
X114862571Y-82028029D02*
X114918451Y-82083909D01*
X109514000Y-76454000D02*
X110743401Y-77683401D01*
X110743401Y-77683401D02*
X110743401Y-79502915D01*
X112308550Y-82028029D02*
X114862571Y-82028029D01*
X110743401Y-79502915D02*
X111588598Y-80348112D01*
X127635000Y-93345000D02*
X127635000Y-93662500D01*
X128333500Y-94996000D02*
X128333500Y-93586300D01*
X128333500Y-93586300D02*
X128092200Y-93345000D01*
X128092200Y-93345000D02*
X127635000Y-93345000D01*
X107014000Y-76454000D02*
X109514000Y-76454000D01*
X119012572Y-95078598D02*
X115095202Y-95078598D01*
X119185582Y-94905588D02*
X119012572Y-95078598D01*
X121982836Y-94905588D02*
X119185582Y-94905588D01*
X122163660Y-95086412D02*
X121982836Y-94905588D01*
X124941088Y-95086412D02*
X122163660Y-95086412D01*
X126365000Y-93345000D02*
X126365000Y-93662500D01*
X126365000Y-93662500D02*
X124941088Y-95086412D01*
X115095202Y-95078598D02*
X113872000Y-96301800D01*
X111207587Y-80647587D02*
X109514000Y-78954000D01*
X111412412Y-84183582D02*
X111207587Y-83978757D01*
X111412412Y-89029582D02*
X111412412Y-84183582D01*
X113963401Y-91580571D02*
X111412412Y-89029582D01*
X113872000Y-96301800D02*
X113963401Y-96210399D01*
X111207587Y-83978757D02*
X111207587Y-80647587D01*
X113963401Y-96210399D02*
X113963401Y-91580571D01*
X109514000Y-78954000D02*
X107014000Y-78954000D01*
X113872000Y-97155000D02*
X113872000Y-96301800D01*
X78202800Y-86614000D02*
X78302800Y-86614000D01*
X78302800Y-86614000D02*
X80319880Y-84596920D01*
X80319880Y-84596920D02*
X80319880Y-83835200D01*
X71628000Y-88646000D02*
X71628000Y-86771398D01*
X71628000Y-86771398D02*
X73614198Y-84785200D01*
X73614198Y-84785200D02*
X77317600Y-84785200D01*
X86360000Y-117174000D02*
X86360000Y-117074000D01*
X86360000Y-117074000D02*
X87289401Y-116144599D01*
X87289401Y-116144599D02*
X87289401Y-113197401D01*
X87289401Y-113197401D02*
X86106000Y-112014000D01*
X86360000Y-117174000D02*
X86360000Y-119380000D01*
D47*
X79930000Y-98044000D02*
X77812860Y-98044000D01*
X77812860Y-98044000D02*
X77790000Y-98066860D01*
X78740000Y-101069140D02*
X80669140Y-101069140D01*
X80669140Y-101069140D02*
X80692000Y-101092000D01*
X78740000Y-101069140D02*
X78740000Y-104140000D01*
D46*
X114183749Y-84366741D02*
X114183749Y-85067101D01*
X114239000Y-84311490D02*
X114183749Y-84366741D01*
X114239000Y-83207860D02*
X114239000Y-84311490D01*
X80454500Y-114363500D02*
X80454500Y-115359500D01*
X80454500Y-115359500D02*
X78740000Y-117074000D01*
X78740000Y-117074000D02*
X78740000Y-117174000D01*
X78740000Y-119380000D02*
X78740000Y-117174000D01*
X80902800Y-86614000D02*
X81002800Y-86614000D01*
X86946401Y-88374521D02*
X86946401Y-86687201D01*
X81002800Y-86614000D02*
X82819201Y-88430401D01*
X82819201Y-88430401D02*
X86890521Y-88430401D01*
X86890521Y-88430401D02*
X86946401Y-88374521D01*
X86946401Y-86687201D02*
X86870200Y-86611000D01*
X86870200Y-86611000D02*
X85567000Y-86611000D01*
X82630000Y-98044000D02*
X84300000Y-98044000D01*
X84300000Y-98044000D02*
X84644800Y-98388800D01*
X84644800Y-98388800D02*
X84644800Y-99088800D01*
X85248000Y-99692000D02*
X85948000Y-99692000D01*
X84644800Y-99088800D02*
X85248000Y-99692000D01*
X82630000Y-95758000D02*
X82730000Y-95758000D01*
X82730000Y-95758000D02*
X84384000Y-97412000D01*
X84384000Y-97412000D02*
X85948000Y-97412000D01*
D47*
X81250104Y-107290202D02*
X81250104Y-105768594D01*
X81250104Y-105768594D02*
X82360201Y-104658497D01*
X82360201Y-104658497D02*
X82360201Y-103621503D01*
X82360201Y-103621503D02*
X81354698Y-102616000D01*
X81354698Y-102616000D02*
X81280000Y-102616000D01*
X87819799Y-104001101D02*
X86434698Y-102616000D01*
X88108104Y-107290202D02*
X88108104Y-106235402D01*
X88108104Y-106235402D02*
X87819799Y-105947097D01*
X87819799Y-105947097D02*
X87819799Y-104001101D01*
X86434698Y-102616000D02*
X86360000Y-102616000D01*
X78964104Y-107290202D02*
X78964104Y-106455896D01*
X78964104Y-106455896D02*
X81280000Y-104140000D01*
X83536104Y-107290202D02*
X83536104Y-104423896D01*
X83536104Y-104423896D02*
X83820000Y-104140000D01*
X85822104Y-107290202D02*
X85822104Y-104677896D01*
X85822104Y-104677896D02*
X86360000Y-104140000D01*
X90394104Y-107290202D02*
X90394104Y-105634104D01*
X90394104Y-105634104D02*
X88900000Y-104140000D01*
D46*
X94859116Y-107190202D02*
X94005916Y-106337002D01*
X94005916Y-105689430D02*
X92950599Y-104634113D01*
X94005916Y-106337002D02*
X94005916Y-105689430D01*
X94859116Y-107290202D02*
X94859116Y-107190202D01*
X92950599Y-104634113D02*
X92950599Y-103645887D01*
X92950599Y-103645887D02*
X93916986Y-102679500D01*
X93916986Y-102679500D02*
X94932500Y-102679500D01*
X100955116Y-107190202D02*
X98934315Y-105169401D01*
X98934315Y-105169401D02*
X98565887Y-105169401D01*
X100955116Y-107290202D02*
X100955116Y-107190202D01*
X98565887Y-105169401D02*
X98030599Y-104634113D01*
X98030599Y-103645887D02*
X99060486Y-102616000D01*
X98030599Y-104634113D02*
X98030599Y-103645887D01*
X99060486Y-102616000D02*
X99822000Y-102616000D01*
X91440000Y-104140000D02*
X92710000Y-105410000D01*
X92710000Y-105410000D02*
X92710000Y-107315000D01*
D47*
X96891116Y-107290202D02*
X96891116Y-107190202D01*
X96891116Y-107190202D02*
X93980000Y-104279086D01*
X93980000Y-104279086D02*
X93980000Y-104140000D01*
X98923116Y-107290202D02*
X98923116Y-106543116D01*
X98923116Y-106543116D02*
X96520000Y-104140000D01*
X102987116Y-107290202D02*
X102987116Y-107190202D01*
X102987116Y-107190202D02*
X100686913Y-104889999D01*
X100686913Y-104889999D02*
X99809999Y-104889999D01*
X99809999Y-104889999D02*
X99060000Y-104140000D01*
D49*
X68465000Y-109701000D02*
X68465000Y-108842000D01*
X69264000Y-110879000D02*
X69264000Y-110500000D01*
X69264000Y-110500000D02*
X68465000Y-109701000D01*
X68465000Y-108842000D02*
X69469000Y-107838000D01*
X69469000Y-107838000D02*
X69469000Y-106934000D01*
D46*
X119060000Y-114597000D02*
X120527000Y-114597000D01*
X120527000Y-114597000D02*
X120777000Y-114347000D01*
X115443000Y-114220000D02*
X116783000Y-114220000D01*
X116783000Y-114220000D02*
X117160000Y-114597000D01*
X138189401Y-104634113D02*
X138189401Y-101105401D01*
X137221000Y-106956860D02*
X137221000Y-105602514D01*
X137221000Y-105602514D02*
X138189401Y-104634113D01*
X138189401Y-101105401D02*
X137160000Y-100076000D01*
X126238000Y-114554000D02*
X126238000Y-115598000D01*
X126238000Y-115598000D02*
X126334000Y-115694000D01*
X133604000Y-109681000D02*
X132750800Y-109681000D01*
X132750800Y-109681000D02*
X131179800Y-111252000D01*
X131179800Y-111252000D02*
X128270000Y-111252000D01*
X126334000Y-115694000D02*
X127034000Y-115694000D01*
X109220000Y-107108000D02*
X109220000Y-107008000D01*
X109220000Y-107008000D02*
X109220000Y-104140000D01*
X54690000Y-106299000D02*
X56835040Y-106299000D01*
X54690000Y-103759000D02*
X56835040Y-103759000D01*
X54690000Y-101219000D02*
X56829960Y-101219000D01*
X56829960Y-101219000D02*
X56835040Y-101224080D01*
X54610000Y-98679000D02*
X56829960Y-98679000D01*
X56829960Y-98679000D02*
X56835040Y-98684080D01*
D49*
X69723000Y-108648500D02*
X69723000Y-109888000D01*
X69723000Y-109888000D02*
X69739000Y-109904000D01*
X70739000Y-109904000D02*
X70739000Y-104310588D01*
X70739000Y-104310588D02*
X70631642Y-104203230D01*
D46*
X121920000Y-101323140D02*
X119482860Y-101323140D01*
X119482860Y-101323140D02*
X119380000Y-101426000D01*
X119380000Y-101426000D02*
X119380000Y-104140000D01*
X120166490Y-96949856D02*
X120732175Y-96949856D01*
X120970000Y-97187681D02*
X120970000Y-98320860D01*
X120732175Y-96949856D02*
X120970000Y-97187681D01*
X119380000Y-98726000D02*
X120564860Y-98726000D01*
X120564860Y-98726000D02*
X120970000Y-98320860D01*
X116840000Y-98726000D02*
X119380000Y-98726000D01*
D48*
X124333000Y-123190000D02*
X124333000Y-121519000D01*
X124333000Y-121519000D02*
X124099000Y-121285000D01*
X124365000Y-126238000D02*
X124365000Y-123222000D01*
X124365000Y-123222000D02*
X124333000Y-123190000D01*
D50*
X119253000Y-123190000D02*
X119253000Y-121392000D01*
X119253000Y-121392000D02*
X119146000Y-121285000D01*
X119046000Y-125984000D02*
X118946000Y-125984000D01*
X118946000Y-125984000D02*
X117483200Y-127446800D01*
X117483200Y-127446800D02*
X113428182Y-127446800D01*
X113428182Y-127446800D02*
X111399000Y-125417618D01*
X111399000Y-125417618D02*
X111399000Y-123501000D01*
X119253000Y-123190000D02*
X119253000Y-125777000D01*
X119253000Y-125777000D02*
X119046000Y-125984000D01*
D48*
X119046000Y-123397000D02*
X119253000Y-123190000D01*
X121746000Y-125984000D02*
X121746000Y-127766000D01*
X121746000Y-127766000D02*
X121369000Y-128143000D01*
D46*
X96520000Y-117047000D02*
X96520000Y-119380000D01*
X94234000Y-117047000D02*
X96520000Y-117047000D01*
X114300000Y-119380000D02*
X113239340Y-119380000D01*
X113239340Y-119380000D02*
X110724750Y-121894590D01*
X110724750Y-121894590D02*
X81970888Y-121894590D01*
X81970888Y-121894590D02*
X79634077Y-124231401D01*
X79634077Y-124231401D02*
X65312541Y-124231401D01*
X65312541Y-124231401D02*
X64642990Y-123561850D01*
X64642990Y-121416654D02*
X62230000Y-119003665D01*
X64642990Y-123561850D02*
X64642990Y-121416654D01*
X62230000Y-119003665D02*
X62230000Y-106299000D01*
X111760000Y-119380000D02*
X109626421Y-121513579D01*
X109626421Y-121513579D02*
X81813069Y-121513579D01*
X63570419Y-104649839D02*
X62679580Y-103759000D01*
X63570419Y-119419589D02*
X63570419Y-104649839D01*
X63951430Y-119800600D02*
X63570419Y-119419589D01*
X62679580Y-103759000D02*
X62230000Y-103759000D01*
X65405763Y-121640599D02*
X63951430Y-120186266D01*
X72359521Y-122046999D02*
X71953121Y-121640599D01*
X63951430Y-120186266D02*
X63951430Y-119800600D01*
X81279649Y-122046999D02*
X72359521Y-122046999D01*
X81813069Y-121513579D02*
X81279649Y-122046999D01*
X71953121Y-121640599D02*
X65405763Y-121640599D01*
X62230000Y-103759000D02*
X61780420Y-103759000D01*
X63653280Y-102360338D02*
X63702706Y-102360338D01*
X64055994Y-102713626D02*
X64055994Y-103365854D01*
X64055994Y-103365854D02*
X63951430Y-103470418D01*
X62230000Y-101224080D02*
X62517022Y-101224080D01*
X62517022Y-101224080D02*
X63653280Y-102360338D01*
X65563582Y-121259588D02*
X72110940Y-121259588D01*
X63951430Y-119261770D02*
X64332441Y-119642781D01*
X63951430Y-103470418D02*
X63951430Y-119261770D01*
X64332441Y-120028447D02*
X65563582Y-121259588D01*
X63702706Y-102360338D02*
X64055994Y-102713626D01*
X64332441Y-119642781D02*
X64332441Y-120028447D01*
X81121830Y-121665988D02*
X81655250Y-121132568D01*
X72110940Y-121259588D02*
X72517340Y-121665988D01*
X107467432Y-121132568D02*
X109220000Y-119380000D01*
X81655250Y-121132568D02*
X107467432Y-121132568D01*
X72517340Y-121665988D02*
X81121830Y-121665988D01*
X63564398Y-98684080D02*
X62230000Y-98684080D01*
X64490609Y-103470069D02*
X64490609Y-99610291D01*
X66872441Y-111231657D02*
X64332441Y-108691657D01*
X64332441Y-103628237D02*
X64490609Y-103470069D01*
X64332441Y-108691657D02*
X64332441Y-103628237D01*
X66872441Y-120028447D02*
X66872441Y-111231657D01*
X67722571Y-120878577D02*
X66872441Y-120028447D01*
X72268759Y-120878577D02*
X67722571Y-120878577D01*
X64490609Y-99610291D02*
X63564398Y-98684080D01*
X106680000Y-119380000D02*
X105308443Y-120751557D01*
X80298533Y-121284977D02*
X72675159Y-121284977D01*
X80831953Y-120751557D02*
X80298533Y-121284977D01*
X105308443Y-120751557D02*
X80831953Y-120751557D01*
X72675159Y-121284977D02*
X72268759Y-120878577D01*
D48*
X85567000Y-83191000D02*
X86267000Y-83191000D01*
X86267000Y-83191000D02*
X88927620Y-80530380D01*
X88927620Y-80530380D02*
X109445315Y-80530380D01*
X109445315Y-80530380D02*
X110184146Y-81269211D01*
X119246000Y-76454000D02*
X117813399Y-75021399D01*
X117813399Y-75021399D02*
X116058351Y-75021399D01*
X116058351Y-75021399D02*
X113446601Y-77633149D01*
X113446601Y-77633149D02*
X113446601Y-80355399D01*
X113446601Y-80355399D02*
X113030000Y-80772000D01*
X85567000Y-83191000D02*
X84338318Y-83191000D01*
X84338318Y-83191000D02*
X83984399Y-83544919D01*
X83984399Y-83544919D02*
X83984399Y-87397081D01*
X83984399Y-87397081D02*
X84338318Y-87751000D01*
X84338318Y-87751000D02*
X85567000Y-87751000D01*
D49*
G36*
X77875860Y-102421011D02*
X77952600Y-102473445D01*
X77952600Y-102969047D01*
X77566539Y-103354436D01*
X77355241Y-103863298D01*
X77354760Y-104414285D01*
X77565169Y-104923515D01*
X77954436Y-105313461D01*
X78463298Y-105524759D01*
X78781411Y-105525037D01*
X78413686Y-105892762D01*
X78314104Y-105892762D01*
X78078787Y-105937040D01*
X77862663Y-106076112D01*
X77717673Y-106288312D01*
X77666664Y-106540202D01*
X77666664Y-108040202D01*
X77710942Y-108275519D01*
X77850014Y-108491643D01*
X78062214Y-108636633D01*
X78075301Y-108639283D01*
X77862663Y-108776112D01*
X77717673Y-108988312D01*
X77666664Y-109240202D01*
X77666664Y-110740202D01*
X77710942Y-110975519D01*
X77850014Y-111191643D01*
X78062214Y-111336633D01*
X78314104Y-111387642D01*
X79614104Y-111387642D01*
X79849421Y-111343364D01*
X80065545Y-111204292D01*
X80106390Y-111144513D01*
X80240405Y-111278529D01*
X80473794Y-111375202D01*
X80964354Y-111375202D01*
X81123104Y-111216452D01*
X81123104Y-110117202D01*
X81103104Y-110117202D01*
X81103104Y-109863202D01*
X81123104Y-109863202D01*
X81123104Y-109843202D01*
X81377104Y-109843202D01*
X81377104Y-109863202D01*
X81397104Y-109863202D01*
X81397104Y-110117202D01*
X81377104Y-110117202D01*
X81377104Y-111216452D01*
X81535854Y-111375202D01*
X82026414Y-111375202D01*
X82259803Y-111278529D01*
X82392521Y-111145810D01*
X82422014Y-111191643D01*
X82634214Y-111336633D01*
X82886104Y-111387642D01*
X84186104Y-111387642D01*
X84421421Y-111343364D01*
X84637545Y-111204292D01*
X84678028Y-111145043D01*
X84708014Y-111191643D01*
X84920214Y-111336633D01*
X85172104Y-111387642D01*
X85268462Y-111387642D01*
X85229081Y-111426954D01*
X85071180Y-111807223D01*
X85070821Y-112218971D01*
X85228058Y-112599515D01*
X85518954Y-112890919D01*
X85899223Y-113048820D01*
X86099284Y-113048994D01*
X86126850Y-113076560D01*
X85710000Y-113076560D01*
X85474683Y-113120838D01*
X85258559Y-113259910D01*
X85113569Y-113472110D01*
X85082223Y-113626900D01*
X83401990Y-113626900D01*
X83401990Y-113463070D01*
X83357712Y-113227753D01*
X83218640Y-113011629D01*
X83006440Y-112866639D01*
X82754550Y-112815630D01*
X81954450Y-112815630D01*
X81719133Y-112859908D01*
X81503009Y-112998980D01*
X81403868Y-113144077D01*
X81318640Y-113011629D01*
X81106440Y-112866639D01*
X80854550Y-112815630D01*
X80054450Y-112815630D01*
X79819133Y-112859908D01*
X79603009Y-112998980D01*
X79530553Y-113105023D01*
X79520937Y-113103075D01*
X79521179Y-112825029D01*
X79363942Y-112444485D01*
X79073046Y-112153081D01*
X78692777Y-111995180D01*
X78281029Y-111994821D01*
X77900485Y-112152058D01*
X77609081Y-112442954D01*
X77451180Y-112823223D01*
X77450821Y-113234971D01*
X77527990Y-113421734D01*
X77493569Y-113472110D01*
X77442560Y-113724000D01*
X77442560Y-114757888D01*
X76491761Y-115708687D01*
X76422000Y-115694560D01*
X74922000Y-115694560D01*
X74686683Y-115738838D01*
X74470559Y-115877910D01*
X74424031Y-115946006D01*
X74281698Y-115803673D01*
X74048309Y-115707000D01*
X73457750Y-115707000D01*
X73299000Y-115865750D01*
X73299000Y-116840000D01*
X73319000Y-116840000D01*
X73319000Y-117094000D01*
X73299000Y-117094000D01*
X73299000Y-117114000D01*
X73045000Y-117114000D01*
X73045000Y-117094000D01*
X71945750Y-117094000D01*
X71787000Y-117252750D01*
X71787000Y-117718310D01*
X71883673Y-117951699D01*
X72062302Y-118130327D01*
X72281857Y-118221270D01*
X72242279Y-118334262D01*
X73171642Y-119263625D01*
X74101005Y-118334262D01*
X74061517Y-118221529D01*
X74281698Y-118130327D01*
X74422936Y-117989090D01*
X74457910Y-118043441D01*
X74670110Y-118188431D01*
X74727867Y-118200127D01*
X74379041Y-118548345D01*
X74280610Y-118513867D01*
X73351247Y-119443230D01*
X73365390Y-119457373D01*
X73185785Y-119636978D01*
X73171642Y-119622835D01*
X73157500Y-119636978D01*
X72977895Y-119457373D01*
X72992037Y-119443230D01*
X72062674Y-118513867D01*
X71963678Y-118548543D01*
X71524859Y-118108958D01*
X70946263Y-117868704D01*
X70319769Y-117868157D01*
X69740755Y-118107401D01*
X69361369Y-118486126D01*
X68984859Y-118108958D01*
X68406263Y-117868704D01*
X67779769Y-117868157D01*
X67609041Y-117938700D01*
X67609041Y-116215690D01*
X71787000Y-116215690D01*
X71787000Y-116681250D01*
X71945750Y-116840000D01*
X73045000Y-116840000D01*
X73045000Y-115865750D01*
X72886250Y-115707000D01*
X72295691Y-115707000D01*
X72062302Y-115803673D01*
X71883673Y-115982301D01*
X71787000Y-116215690D01*
X67609041Y-116215690D01*
X67609041Y-112449530D01*
X67808787Y-112582996D01*
X68100392Y-112641000D01*
X68787446Y-112641000D01*
X68839000Y-112651440D01*
X68966560Y-112651440D01*
X68966560Y-113137949D01*
X68819529Y-113137821D01*
X68438985Y-113295058D01*
X68147581Y-113585954D01*
X67989680Y-113966223D01*
X67989321Y-114377971D01*
X68146558Y-114758515D01*
X68437454Y-115049919D01*
X68817723Y-115207820D01*
X69229471Y-115208179D01*
X69455253Y-115114888D01*
X69643954Y-115303919D01*
X70024223Y-115461820D01*
X70435971Y-115462179D01*
X70816515Y-115304942D01*
X71107919Y-115014046D01*
X71265820Y-114633777D01*
X71266179Y-114222029D01*
X71144045Y-113926440D01*
X71364000Y-113926440D01*
X71469705Y-113906550D01*
X71487690Y-113914000D01*
X71517750Y-113914000D01*
X71538062Y-113893688D01*
X71599317Y-113882162D01*
X71801500Y-113752061D01*
X71801500Y-113755250D01*
X71960250Y-113914000D01*
X71990310Y-113914000D01*
X72223699Y-113817327D01*
X72402327Y-113638698D01*
X72499000Y-113405309D01*
X72499000Y-113139750D01*
X72340250Y-112981000D01*
X72011440Y-112981000D01*
X72011440Y-112727000D01*
X72340250Y-112727000D01*
X72415810Y-112651440D01*
X72639000Y-112651440D01*
X72694484Y-112641000D01*
X73022560Y-112641000D01*
X73022560Y-113506000D01*
X73066838Y-113741317D01*
X73205910Y-113957441D01*
X73418110Y-114102431D01*
X73670000Y-114153440D01*
X74920000Y-114153440D01*
X75155317Y-114109162D01*
X75371441Y-113970090D01*
X75516431Y-113757890D01*
X75567440Y-113506000D01*
X75567440Y-112006000D01*
X75523162Y-111770683D01*
X75384090Y-111554559D01*
X75315994Y-111508031D01*
X75458327Y-111365698D01*
X75555000Y-111132309D01*
X75555000Y-110541750D01*
X75396250Y-110383000D01*
X74422000Y-110383000D01*
X74422000Y-110403000D01*
X74168000Y-110403000D01*
X74168000Y-110383000D01*
X74148000Y-110383000D01*
X74148000Y-110129000D01*
X74168000Y-110129000D01*
X74168000Y-109029750D01*
X74422000Y-109029750D01*
X74422000Y-110129000D01*
X75396250Y-110129000D01*
X75555000Y-109970250D01*
X75555000Y-109379691D01*
X75458327Y-109146302D01*
X75279699Y-108967673D01*
X75046310Y-108871000D01*
X74580750Y-108871000D01*
X74422000Y-109029750D01*
X74168000Y-109029750D01*
X74009250Y-108871000D01*
X73543690Y-108871000D01*
X73310301Y-108967673D01*
X73131673Y-109146302D01*
X73035000Y-109379691D01*
X73035000Y-109970250D01*
X73193748Y-110128998D01*
X73035000Y-110128998D01*
X73035000Y-110251974D01*
X72998699Y-110215673D01*
X72765310Y-110119000D01*
X72511440Y-110119000D01*
X72511440Y-109479000D01*
X72481903Y-109322022D01*
X72504919Y-109299046D01*
X72662820Y-108918777D01*
X72663179Y-108507029D01*
X72544168Y-108219000D01*
X73045309Y-108219000D01*
X73278698Y-108122327D01*
X73457327Y-107943699D01*
X73554000Y-107710310D01*
X73554000Y-107219750D01*
X73395250Y-107061000D01*
X72296000Y-107061000D01*
X72296000Y-107081000D01*
X72042000Y-107081000D01*
X72042000Y-107061000D01*
X72022000Y-107061000D01*
X72022000Y-106807000D01*
X72042000Y-106807000D01*
X72042000Y-105807750D01*
X71883250Y-105649000D01*
X71501000Y-105649000D01*
X71501000Y-105547955D01*
X71522529Y-105539059D01*
X71901915Y-105160334D01*
X72278425Y-105537502D01*
X72546942Y-105649000D01*
X72454750Y-105649000D01*
X72296000Y-105807750D01*
X72296000Y-106807000D01*
X73395250Y-106807000D01*
X73554000Y-106648250D01*
X73554000Y-106157690D01*
X73457327Y-105924301D01*
X73311178Y-105778153D01*
X73483515Y-105778303D01*
X73937615Y-105590672D01*
X73971586Y-105641513D01*
X75304512Y-106974439D01*
X75543482Y-107134114D01*
X75623934Y-107150117D01*
X75804006Y-107330503D01*
X76184275Y-107488404D01*
X76596023Y-107488763D01*
X76976567Y-107331526D01*
X77267971Y-107040630D01*
X77425872Y-106660361D01*
X77426231Y-106248613D01*
X77268994Y-105868069D01*
X76978098Y-105576665D01*
X76686253Y-105455481D01*
X77045914Y-105096447D01*
X77286168Y-104517851D01*
X77286715Y-103891357D01*
X77047471Y-103312343D01*
X76604859Y-102868958D01*
X76602569Y-102868007D01*
X76706792Y-102617010D01*
X77240050Y-102617010D01*
X77475367Y-102572732D01*
X77691491Y-102433660D01*
X77790632Y-102288563D01*
X77875860Y-102421011D01*
X77875860Y-102421011D01*
G37*
X77875860Y-102421011D02*
X77952600Y-102473445D01*
X77952600Y-102969047D01*
X77566539Y-103354436D01*
X77355241Y-103863298D01*
X77354760Y-104414285D01*
X77565169Y-104923515D01*
X77954436Y-105313461D01*
X78463298Y-105524759D01*
X78781411Y-105525037D01*
X78413686Y-105892762D01*
X78314104Y-105892762D01*
X78078787Y-105937040D01*
X77862663Y-106076112D01*
X77717673Y-106288312D01*
X77666664Y-106540202D01*
X77666664Y-108040202D01*
X77710942Y-108275519D01*
X77850014Y-108491643D01*
X78062214Y-108636633D01*
X78075301Y-108639283D01*
X77862663Y-108776112D01*
X77717673Y-108988312D01*
X77666664Y-109240202D01*
X77666664Y-110740202D01*
X77710942Y-110975519D01*
X77850014Y-111191643D01*
X78062214Y-111336633D01*
X78314104Y-111387642D01*
X79614104Y-111387642D01*
X79849421Y-111343364D01*
X80065545Y-111204292D01*
X80106390Y-111144513D01*
X80240405Y-111278529D01*
X80473794Y-111375202D01*
X80964354Y-111375202D01*
X81123104Y-111216452D01*
X81123104Y-110117202D01*
X81103104Y-110117202D01*
X81103104Y-109863202D01*
X81123104Y-109863202D01*
X81123104Y-109843202D01*
X81377104Y-109843202D01*
X81377104Y-109863202D01*
X81397104Y-109863202D01*
X81397104Y-110117202D01*
X81377104Y-110117202D01*
X81377104Y-111216452D01*
X81535854Y-111375202D01*
X82026414Y-111375202D01*
X82259803Y-111278529D01*
X82392521Y-111145810D01*
X82422014Y-111191643D01*
X82634214Y-111336633D01*
X82886104Y-111387642D01*
X84186104Y-111387642D01*
X84421421Y-111343364D01*
X84637545Y-111204292D01*
X84678028Y-111145043D01*
X84708014Y-111191643D01*
X84920214Y-111336633D01*
X85172104Y-111387642D01*
X85268462Y-111387642D01*
X85229081Y-111426954D01*
X85071180Y-111807223D01*
X85070821Y-112218971D01*
X85228058Y-112599515D01*
X85518954Y-112890919D01*
X85899223Y-113048820D01*
X86099284Y-113048994D01*
X86126850Y-113076560D01*
X85710000Y-113076560D01*
X85474683Y-113120838D01*
X85258559Y-113259910D01*
X85113569Y-113472110D01*
X85082223Y-113626900D01*
X83401990Y-113626900D01*
X83401990Y-113463070D01*
X83357712Y-113227753D01*
X83218640Y-113011629D01*
X83006440Y-112866639D01*
X82754550Y-112815630D01*
X81954450Y-112815630D01*
X81719133Y-112859908D01*
X81503009Y-112998980D01*
X81403868Y-113144077D01*
X81318640Y-113011629D01*
X81106440Y-112866639D01*
X80854550Y-112815630D01*
X80054450Y-112815630D01*
X79819133Y-112859908D01*
X79603009Y-112998980D01*
X79530553Y-113105023D01*
X79520937Y-113103075D01*
X79521179Y-112825029D01*
X79363942Y-112444485D01*
X79073046Y-112153081D01*
X78692777Y-111995180D01*
X78281029Y-111994821D01*
X77900485Y-112152058D01*
X77609081Y-112442954D01*
X77451180Y-112823223D01*
X77450821Y-113234971D01*
X77527990Y-113421734D01*
X77493569Y-113472110D01*
X77442560Y-113724000D01*
X77442560Y-114757888D01*
X76491761Y-115708687D01*
X76422000Y-115694560D01*
X74922000Y-115694560D01*
X74686683Y-115738838D01*
X74470559Y-115877910D01*
X74424031Y-115946006D01*
X74281698Y-115803673D01*
X74048309Y-115707000D01*
X73457750Y-115707000D01*
X73299000Y-115865750D01*
X73299000Y-116840000D01*
X73319000Y-116840000D01*
X73319000Y-117094000D01*
X73299000Y-117094000D01*
X73299000Y-117114000D01*
X73045000Y-117114000D01*
X73045000Y-117094000D01*
X71945750Y-117094000D01*
X71787000Y-117252750D01*
X71787000Y-117718310D01*
X71883673Y-117951699D01*
X72062302Y-118130327D01*
X72281857Y-118221270D01*
X72242279Y-118334262D01*
X73171642Y-119263625D01*
X74101005Y-118334262D01*
X74061517Y-118221529D01*
X74281698Y-118130327D01*
X74422936Y-117989090D01*
X74457910Y-118043441D01*
X74670110Y-118188431D01*
X74727867Y-118200127D01*
X74379041Y-118548345D01*
X74280610Y-118513867D01*
X73351247Y-119443230D01*
X73365390Y-119457373D01*
X73185785Y-119636978D01*
X73171642Y-119622835D01*
X73157500Y-119636978D01*
X72977895Y-119457373D01*
X72992037Y-119443230D01*
X72062674Y-118513867D01*
X71963678Y-118548543D01*
X71524859Y-118108958D01*
X70946263Y-117868704D01*
X70319769Y-117868157D01*
X69740755Y-118107401D01*
X69361369Y-118486126D01*
X68984859Y-118108958D01*
X68406263Y-117868704D01*
X67779769Y-117868157D01*
X67609041Y-117938700D01*
X67609041Y-116215690D01*
X71787000Y-116215690D01*
X71787000Y-116681250D01*
X71945750Y-116840000D01*
X73045000Y-116840000D01*
X73045000Y-115865750D01*
X72886250Y-115707000D01*
X72295691Y-115707000D01*
X72062302Y-115803673D01*
X71883673Y-115982301D01*
X71787000Y-116215690D01*
X67609041Y-116215690D01*
X67609041Y-112449530D01*
X67808787Y-112582996D01*
X68100392Y-112641000D01*
X68787446Y-112641000D01*
X68839000Y-112651440D01*
X68966560Y-112651440D01*
X68966560Y-113137949D01*
X68819529Y-113137821D01*
X68438985Y-113295058D01*
X68147581Y-113585954D01*
X67989680Y-113966223D01*
X67989321Y-114377971D01*
X68146558Y-114758515D01*
X68437454Y-115049919D01*
X68817723Y-115207820D01*
X69229471Y-115208179D01*
X69455253Y-115114888D01*
X69643954Y-115303919D01*
X70024223Y-115461820D01*
X70435971Y-115462179D01*
X70816515Y-115304942D01*
X71107919Y-115014046D01*
X71265820Y-114633777D01*
X71266179Y-114222029D01*
X71144045Y-113926440D01*
X71364000Y-113926440D01*
X71469705Y-113906550D01*
X71487690Y-113914000D01*
X71517750Y-113914000D01*
X71538062Y-113893688D01*
X71599317Y-113882162D01*
X71801500Y-113752061D01*
X71801500Y-113755250D01*
X71960250Y-113914000D01*
X71990310Y-113914000D01*
X72223699Y-113817327D01*
X72402327Y-113638698D01*
X72499000Y-113405309D01*
X72499000Y-113139750D01*
X72340250Y-112981000D01*
X72011440Y-112981000D01*
X72011440Y-112727000D01*
X72340250Y-112727000D01*
X72415810Y-112651440D01*
X72639000Y-112651440D01*
X72694484Y-112641000D01*
X73022560Y-112641000D01*
X73022560Y-113506000D01*
X73066838Y-113741317D01*
X73205910Y-113957441D01*
X73418110Y-114102431D01*
X73670000Y-114153440D01*
X74920000Y-114153440D01*
X75155317Y-114109162D01*
X75371441Y-113970090D01*
X75516431Y-113757890D01*
X75567440Y-113506000D01*
X75567440Y-112006000D01*
X75523162Y-111770683D01*
X75384090Y-111554559D01*
X75315994Y-111508031D01*
X75458327Y-111365698D01*
X75555000Y-111132309D01*
X75555000Y-110541750D01*
X75396250Y-110383000D01*
X74422000Y-110383000D01*
X74422000Y-110403000D01*
X74168000Y-110403000D01*
X74168000Y-110383000D01*
X74148000Y-110383000D01*
X74148000Y-110129000D01*
X74168000Y-110129000D01*
X74168000Y-109029750D01*
X74422000Y-109029750D01*
X74422000Y-110129000D01*
X75396250Y-110129000D01*
X75555000Y-109970250D01*
X75555000Y-109379691D01*
X75458327Y-109146302D01*
X75279699Y-108967673D01*
X75046310Y-108871000D01*
X74580750Y-108871000D01*
X74422000Y-109029750D01*
X74168000Y-109029750D01*
X74009250Y-108871000D01*
X73543690Y-108871000D01*
X73310301Y-108967673D01*
X73131673Y-109146302D01*
X73035000Y-109379691D01*
X73035000Y-109970250D01*
X73193748Y-110128998D01*
X73035000Y-110128998D01*
X73035000Y-110251974D01*
X72998699Y-110215673D01*
X72765310Y-110119000D01*
X72511440Y-110119000D01*
X72511440Y-109479000D01*
X72481903Y-109322022D01*
X72504919Y-109299046D01*
X72662820Y-108918777D01*
X72663179Y-108507029D01*
X72544168Y-108219000D01*
X73045309Y-108219000D01*
X73278698Y-108122327D01*
X73457327Y-107943699D01*
X73554000Y-107710310D01*
X73554000Y-107219750D01*
X73395250Y-107061000D01*
X72296000Y-107061000D01*
X72296000Y-107081000D01*
X72042000Y-107081000D01*
X72042000Y-107061000D01*
X72022000Y-107061000D01*
X72022000Y-106807000D01*
X72042000Y-106807000D01*
X72042000Y-105807750D01*
X71883250Y-105649000D01*
X71501000Y-105649000D01*
X71501000Y-105547955D01*
X71522529Y-105539059D01*
X71901915Y-105160334D01*
X72278425Y-105537502D01*
X72546942Y-105649000D01*
X72454750Y-105649000D01*
X72296000Y-105807750D01*
X72296000Y-106807000D01*
X73395250Y-106807000D01*
X73554000Y-106648250D01*
X73554000Y-106157690D01*
X73457327Y-105924301D01*
X73311178Y-105778153D01*
X73483515Y-105778303D01*
X73937615Y-105590672D01*
X73971586Y-105641513D01*
X75304512Y-106974439D01*
X75543482Y-107134114D01*
X75623934Y-107150117D01*
X75804006Y-107330503D01*
X76184275Y-107488404D01*
X76596023Y-107488763D01*
X76976567Y-107331526D01*
X77267971Y-107040630D01*
X77425872Y-106660361D01*
X77426231Y-106248613D01*
X77268994Y-105868069D01*
X76978098Y-105576665D01*
X76686253Y-105455481D01*
X77045914Y-105096447D01*
X77286168Y-104517851D01*
X77286715Y-103891357D01*
X77047471Y-103312343D01*
X76604859Y-102868958D01*
X76602569Y-102868007D01*
X76706792Y-102617010D01*
X77240050Y-102617010D01*
X77475367Y-102572732D01*
X77691491Y-102433660D01*
X77790632Y-102288563D01*
X77875860Y-102421011D01*
G36*
X131356077Y-118167540D02*
X131288088Y-118408483D01*
X132080000Y-119200395D01*
X132871912Y-118408483D01*
X132803923Y-118167540D01*
X132618192Y-118101440D01*
X134087529Y-118101440D01*
X133836485Y-118205169D01*
X133446539Y-118594436D01*
X133356623Y-118810979D01*
X133292460Y-118656077D01*
X133051517Y-118588088D01*
X132259605Y-119380000D01*
X132273748Y-119394143D01*
X132094143Y-119573748D01*
X132080000Y-119559605D01*
X132065858Y-119573748D01*
X131886253Y-119394143D01*
X131900395Y-119380000D01*
X131108483Y-118588088D01*
X130867540Y-118656077D01*
X130808268Y-118822621D01*
X130714831Y-118596485D01*
X130325564Y-118206539D01*
X130072458Y-118101440D01*
X131515656Y-118101440D01*
X131356077Y-118167540D01*
X131356077Y-118167540D01*
G37*
X131356077Y-118167540D02*
X131288088Y-118408483D01*
X132080000Y-119200395D01*
X132871912Y-118408483D01*
X132803923Y-118167540D01*
X132618192Y-118101440D01*
X134087529Y-118101440D01*
X133836485Y-118205169D01*
X133446539Y-118594436D01*
X133356623Y-118810979D01*
X133292460Y-118656077D01*
X133051517Y-118588088D01*
X132259605Y-119380000D01*
X132273748Y-119394143D01*
X132094143Y-119573748D01*
X132080000Y-119559605D01*
X132065858Y-119573748D01*
X131886253Y-119394143D01*
X131900395Y-119380000D01*
X131108483Y-118588088D01*
X130867540Y-118656077D01*
X130808268Y-118822621D01*
X130714831Y-118596485D01*
X130325564Y-118206539D01*
X130072458Y-118101440D01*
X131515656Y-118101440D01*
X131356077Y-118167540D01*
G36*
X118131838Y-117562317D02*
X118237000Y-117725743D01*
X118237000Y-117803250D01*
X118323400Y-117889650D01*
X118323400Y-118477778D01*
X118206539Y-118594436D01*
X118174221Y-118672266D01*
X118055870Y-118695807D01*
X118014831Y-118596485D01*
X117896600Y-118478048D01*
X117896600Y-117889650D01*
X117983000Y-117803250D01*
X117983000Y-117722949D01*
X118081431Y-117578890D01*
X118109176Y-117441880D01*
X118131838Y-117562317D01*
X118131838Y-117562317D01*
G37*
X118131838Y-117562317D02*
X118237000Y-117725743D01*
X118237000Y-117803250D01*
X118323400Y-117889650D01*
X118323400Y-118477778D01*
X118206539Y-118594436D01*
X118174221Y-118672266D01*
X118055870Y-118695807D01*
X118014831Y-118596485D01*
X117896600Y-118478048D01*
X117896600Y-117889650D01*
X117983000Y-117803250D01*
X117983000Y-117722949D01*
X118081431Y-117578890D01*
X118109176Y-117441880D01*
X118131838Y-117562317D01*
G36*
X97998599Y-95763399D02*
X98070137Y-96123045D01*
X98273860Y-96427938D01*
X101333560Y-99487638D01*
X101333560Y-101346000D01*
X101377838Y-101581317D01*
X101516910Y-101797441D01*
X101729110Y-101942431D01*
X101981000Y-101993440D01*
X106305510Y-101993440D01*
X105128810Y-103170140D01*
X104925564Y-102966539D01*
X104416702Y-102755241D01*
X103865715Y-102754760D01*
X103356485Y-102965169D01*
X102966539Y-103354436D01*
X102876623Y-103570979D01*
X102812460Y-103416077D01*
X102571517Y-103348088D01*
X101779605Y-104140000D01*
X102571517Y-104931912D01*
X102812460Y-104863923D01*
X102871732Y-104697379D01*
X102965169Y-104923515D01*
X103354436Y-105313461D01*
X103863298Y-105524759D01*
X104414285Y-105525240D01*
X104923515Y-105314831D01*
X105313461Y-104925564D01*
X105345779Y-104847734D01*
X105464130Y-104824193D01*
X105505169Y-104923515D01*
X105894436Y-105313461D01*
X106403298Y-105524759D01*
X106954285Y-105525240D01*
X107463515Y-105314831D01*
X107853461Y-104925564D01*
X107949976Y-104693130D01*
X108045169Y-104923515D01*
X108434436Y-105313461D01*
X108483400Y-105333793D01*
X108483400Y-105726855D01*
X108334683Y-105754838D01*
X108118559Y-105893910D01*
X107973569Y-106106110D01*
X107922560Y-106358000D01*
X107922560Y-107858000D01*
X107966838Y-108093317D01*
X108105910Y-108309441D01*
X108318110Y-108454431D01*
X108351490Y-108461191D01*
X108210301Y-108519673D01*
X108031673Y-108698302D01*
X107935000Y-108931691D01*
X107935000Y-109522250D01*
X108093750Y-109681000D01*
X109093000Y-109681000D01*
X109093000Y-109661000D01*
X109347000Y-109661000D01*
X109347000Y-109681000D01*
X110346250Y-109681000D01*
X110505000Y-109522250D01*
X110505000Y-108931691D01*
X110498903Y-108916971D01*
X121900821Y-108916971D01*
X122058058Y-109297515D01*
X122348954Y-109588919D01*
X122729223Y-109746820D01*
X123058121Y-109747107D01*
X123077058Y-109847747D01*
X123216130Y-110063871D01*
X123428330Y-110208861D01*
X123680220Y-110259870D01*
X127180340Y-110259870D01*
X127415657Y-110215592D01*
X127631781Y-110076520D01*
X127776771Y-109864320D01*
X127827780Y-109612430D01*
X127827780Y-107811570D01*
X127783502Y-107576253D01*
X127644430Y-107360129D01*
X127432230Y-107215139D01*
X127180340Y-107164130D01*
X123680220Y-107164130D01*
X123444903Y-107208408D01*
X123228779Y-107347480D01*
X123083789Y-107559680D01*
X123060009Y-107677108D01*
X122731029Y-107676821D01*
X122350485Y-107834058D01*
X122059081Y-108124954D01*
X121901180Y-108505223D01*
X121900821Y-108916971D01*
X110498903Y-108916971D01*
X110408327Y-108698302D01*
X110229699Y-108519673D01*
X110093713Y-108463346D01*
X110105317Y-108461162D01*
X110321441Y-108322090D01*
X110466431Y-108109890D01*
X110517440Y-107858000D01*
X110517440Y-106358000D01*
X110473162Y-106122683D01*
X110334090Y-105906559D01*
X110121890Y-105761569D01*
X109956600Y-105728097D01*
X109956600Y-105334216D01*
X110003515Y-105314831D01*
X110393461Y-104925564D01*
X110489976Y-104693130D01*
X110585169Y-104923515D01*
X110974436Y-105313461D01*
X111483298Y-105524759D01*
X112034285Y-105525240D01*
X112543515Y-105314831D01*
X112933461Y-104925564D01*
X113029976Y-104693130D01*
X113125169Y-104923515D01*
X113514436Y-105313461D01*
X114023298Y-105524759D01*
X114574285Y-105525240D01*
X115083515Y-105314831D01*
X115473461Y-104925564D01*
X115569976Y-104693130D01*
X115665169Y-104923515D01*
X116054436Y-105313461D01*
X116563298Y-105524759D01*
X117114285Y-105525240D01*
X117623515Y-105314831D01*
X118013461Y-104925564D01*
X118109976Y-104693130D01*
X118205169Y-104923515D01*
X118594436Y-105313461D01*
X119103298Y-105524759D01*
X119654285Y-105525240D01*
X120163515Y-105314831D01*
X120553461Y-104925564D01*
X120649976Y-104693130D01*
X120745169Y-104923515D01*
X121134436Y-105313461D01*
X121643298Y-105524759D01*
X122194285Y-105525240D01*
X122703515Y-105314831D01*
X123093461Y-104925564D01*
X123189976Y-104693130D01*
X123285169Y-104923515D01*
X123674436Y-105313461D01*
X124183298Y-105524759D01*
X124734285Y-105525240D01*
X125243515Y-105314831D01*
X125633461Y-104925564D01*
X125729976Y-104693130D01*
X125825169Y-104923515D01*
X126214436Y-105313461D01*
X126723298Y-105524759D01*
X127274285Y-105525240D01*
X127783515Y-105314831D01*
X128173461Y-104925564D01*
X128205779Y-104847734D01*
X128324130Y-104824193D01*
X128365169Y-104923515D01*
X128754436Y-105313461D01*
X129263298Y-105524759D01*
X129814285Y-105525240D01*
X130323515Y-105314831D01*
X130713461Y-104925564D01*
X130809976Y-104693130D01*
X130905169Y-104923515D01*
X131294436Y-105313461D01*
X131803298Y-105524759D01*
X132354285Y-105525240D01*
X132863515Y-105314831D01*
X133253461Y-104925564D01*
X133349976Y-104693130D01*
X133445169Y-104923515D01*
X133834436Y-105313461D01*
X134343298Y-105524759D01*
X134574220Y-105524961D01*
X134469509Y-105592340D01*
X134448584Y-105622964D01*
X134254000Y-105583560D01*
X132954000Y-105583560D01*
X132718683Y-105627838D01*
X132502559Y-105766910D01*
X132357569Y-105979110D01*
X132306560Y-106231000D01*
X132306560Y-106805678D01*
X131948108Y-107164130D01*
X128678940Y-107164130D01*
X128443623Y-107208408D01*
X128227499Y-107347480D01*
X128082509Y-107559680D01*
X128031500Y-107811570D01*
X128031500Y-109612430D01*
X128075778Y-109847747D01*
X128214850Y-110063871D01*
X128427050Y-110208861D01*
X128468093Y-110217172D01*
X128065029Y-110216821D01*
X127684485Y-110374058D01*
X127393081Y-110664954D01*
X127235180Y-111045223D01*
X127235022Y-111226560D01*
X126328493Y-111226560D01*
X126201000Y-111201200D01*
X124070111Y-111201200D01*
X123841277Y-111106180D01*
X123429529Y-111105821D01*
X123048985Y-111263058D01*
X122867228Y-111444498D01*
X122786930Y-111460470D01*
X122782563Y-111463388D01*
X96281012Y-111463388D01*
X95999127Y-111519458D01*
X95760157Y-111679133D01*
X94489730Y-112949560D01*
X93585465Y-112949560D01*
X93551046Y-112915081D01*
X93170777Y-112757180D01*
X92759029Y-112756821D01*
X92378485Y-112914058D01*
X92194500Y-113097722D01*
X92090000Y-113076560D01*
X90790000Y-113076560D01*
X90554683Y-113120838D01*
X90338559Y-113259910D01*
X90193569Y-113472110D01*
X90171007Y-113583523D01*
X90153162Y-113488683D01*
X90014090Y-113272559D01*
X89801890Y-113127569D01*
X89550000Y-113076560D01*
X88250000Y-113076560D01*
X88014683Y-113120838D01*
X88011216Y-113123069D01*
X87969931Y-112915516D01*
X87810256Y-112676546D01*
X87141006Y-112007296D01*
X87141179Y-111809029D01*
X86983942Y-111428485D01*
X86824051Y-111268315D01*
X86923545Y-111204292D01*
X86964390Y-111144513D01*
X87098405Y-111278529D01*
X87331794Y-111375202D01*
X87822354Y-111375202D01*
X87981104Y-111216452D01*
X87981104Y-110117202D01*
X87961104Y-110117202D01*
X87961104Y-109863202D01*
X87981104Y-109863202D01*
X87981104Y-109843202D01*
X88235104Y-109843202D01*
X88235104Y-109863202D01*
X88255104Y-109863202D01*
X88255104Y-110117202D01*
X88235104Y-110117202D01*
X88235104Y-111216452D01*
X88393854Y-111375202D01*
X88884414Y-111375202D01*
X89117803Y-111278529D01*
X89250521Y-111145810D01*
X89280014Y-111191643D01*
X89492214Y-111336633D01*
X89744104Y-111387642D01*
X91044104Y-111387642D01*
X91279421Y-111343364D01*
X91495545Y-111204292D01*
X91543206Y-111134537D01*
X91595910Y-111216441D01*
X91808110Y-111361431D01*
X92060000Y-111412440D01*
X93360000Y-111412440D01*
X93595317Y-111368162D01*
X93804466Y-111233578D01*
X93849417Y-111278529D01*
X94082806Y-111375202D01*
X94573366Y-111375202D01*
X94732116Y-111216452D01*
X94732116Y-110117202D01*
X94712116Y-110117202D01*
X94712116Y-109863202D01*
X94732116Y-109863202D01*
X94732116Y-109843202D01*
X94986116Y-109843202D01*
X94986116Y-109863202D01*
X95006116Y-109863202D01*
X95006116Y-110117202D01*
X94986116Y-110117202D01*
X94986116Y-111216452D01*
X95144866Y-111375202D01*
X95635426Y-111375202D01*
X95868815Y-111278529D01*
X95883173Y-111264170D01*
X95989226Y-111336633D01*
X96241116Y-111387642D01*
X97541116Y-111387642D01*
X97776433Y-111343364D01*
X97907573Y-111258977D01*
X98021226Y-111336633D01*
X98273116Y-111387642D01*
X99573116Y-111387642D01*
X99808433Y-111343364D01*
X99931233Y-111264345D01*
X99945417Y-111278529D01*
X100178806Y-111375202D01*
X100669366Y-111375202D01*
X100828116Y-111216452D01*
X100828116Y-110117202D01*
X100808116Y-110117202D01*
X100808116Y-109863202D01*
X100828116Y-109863202D01*
X100828116Y-109843202D01*
X101082116Y-109843202D01*
X101082116Y-109863202D01*
X101102116Y-109863202D01*
X101102116Y-110117202D01*
X101082116Y-110117202D01*
X101082116Y-111216452D01*
X101240866Y-111375202D01*
X101731426Y-111375202D01*
X101964815Y-111278529D01*
X101979173Y-111264170D01*
X102085226Y-111336633D01*
X102337116Y-111387642D01*
X103637116Y-111387642D01*
X103872433Y-111343364D01*
X104088557Y-111204292D01*
X104233547Y-110992092D01*
X104284556Y-110740202D01*
X104284556Y-110093750D01*
X107935000Y-110093750D01*
X107935000Y-110684309D01*
X108031673Y-110917698D01*
X108210301Y-111096327D01*
X108443690Y-111193000D01*
X108934250Y-111193000D01*
X109093000Y-111034250D01*
X109093000Y-109935000D01*
X109347000Y-109935000D01*
X109347000Y-111034250D01*
X109505750Y-111193000D01*
X109996310Y-111193000D01*
X110229699Y-111096327D01*
X110408327Y-110917698D01*
X110505000Y-110684309D01*
X110505000Y-110093750D01*
X110346250Y-109935000D01*
X109347000Y-109935000D01*
X109093000Y-109935000D01*
X108093750Y-109935000D01*
X107935000Y-110093750D01*
X104284556Y-110093750D01*
X104284556Y-109240202D01*
X104240278Y-109004885D01*
X104101206Y-108788761D01*
X104095437Y-108784819D01*
X104095679Y-108507029D01*
X104092290Y-108498828D01*
X104233547Y-108292092D01*
X104284556Y-108040202D01*
X104284556Y-106540202D01*
X104240278Y-106304885D01*
X104101206Y-106088761D01*
X103889006Y-105943771D01*
X103637116Y-105892762D01*
X102803228Y-105892762D01*
X102280792Y-105370326D01*
X102323923Y-105352460D01*
X102391912Y-105111517D01*
X101600000Y-104319605D01*
X101585858Y-104333748D01*
X101406253Y-104154143D01*
X101420395Y-104140000D01*
X101406253Y-104125858D01*
X101585858Y-103946253D01*
X101600000Y-103960395D01*
X102391912Y-103168483D01*
X102323923Y-102927540D01*
X101804829Y-102742799D01*
X101254552Y-102770770D01*
X100876077Y-102927540D01*
X100808089Y-103168481D01*
X100741091Y-103101483D01*
X100856820Y-102822777D01*
X100857179Y-102411029D01*
X100699942Y-102030485D01*
X100409046Y-101739081D01*
X100028777Y-101581180D01*
X99617029Y-101580821D01*
X99236485Y-101738058D01*
X99094896Y-101879400D01*
X99060486Y-101879400D01*
X98778601Y-101935470D01*
X98539631Y-102095145D01*
X97509744Y-103125032D01*
X97491315Y-103152614D01*
X97305564Y-102966539D01*
X96796702Y-102755241D01*
X96245715Y-102754760D01*
X95967334Y-102869784D01*
X95967679Y-102474529D01*
X95810442Y-102093985D01*
X95613019Y-101896218D01*
X95744431Y-101703890D01*
X95795440Y-101452000D01*
X95795440Y-98756971D01*
X96500821Y-98756971D01*
X96658058Y-99137515D01*
X96948954Y-99428919D01*
X97329223Y-99586820D01*
X97740971Y-99587179D01*
X98121515Y-99429942D01*
X98412919Y-99139046D01*
X98570820Y-98758777D01*
X98571179Y-98347029D01*
X98413942Y-97966485D01*
X98123046Y-97675081D01*
X97742777Y-97517180D01*
X97331029Y-97516821D01*
X96950485Y-97674058D01*
X96659081Y-97964954D01*
X96501180Y-98345223D01*
X96500821Y-98756971D01*
X95795440Y-98756971D01*
X95795440Y-95652000D01*
X95751162Y-95416683D01*
X95612090Y-95200559D01*
X95399890Y-95055569D01*
X95148000Y-95004560D01*
X93014518Y-95004560D01*
X97998599Y-90020479D01*
X97998599Y-95763399D01*
X97998599Y-95763399D01*
G37*
X97998599Y-95763399D02*
X98070137Y-96123045D01*
X98273860Y-96427938D01*
X101333560Y-99487638D01*
X101333560Y-101346000D01*
X101377838Y-101581317D01*
X101516910Y-101797441D01*
X101729110Y-101942431D01*
X101981000Y-101993440D01*
X106305510Y-101993440D01*
X105128810Y-103170140D01*
X104925564Y-102966539D01*
X104416702Y-102755241D01*
X103865715Y-102754760D01*
X103356485Y-102965169D01*
X102966539Y-103354436D01*
X102876623Y-103570979D01*
X102812460Y-103416077D01*
X102571517Y-103348088D01*
X101779605Y-104140000D01*
X102571517Y-104931912D01*
X102812460Y-104863923D01*
X102871732Y-104697379D01*
X102965169Y-104923515D01*
X103354436Y-105313461D01*
X103863298Y-105524759D01*
X104414285Y-105525240D01*
X104923515Y-105314831D01*
X105313461Y-104925564D01*
X105345779Y-104847734D01*
X105464130Y-104824193D01*
X105505169Y-104923515D01*
X105894436Y-105313461D01*
X106403298Y-105524759D01*
X106954285Y-105525240D01*
X107463515Y-105314831D01*
X107853461Y-104925564D01*
X107949976Y-104693130D01*
X108045169Y-104923515D01*
X108434436Y-105313461D01*
X108483400Y-105333793D01*
X108483400Y-105726855D01*
X108334683Y-105754838D01*
X108118559Y-105893910D01*
X107973569Y-106106110D01*
X107922560Y-106358000D01*
X107922560Y-107858000D01*
X107966838Y-108093317D01*
X108105910Y-108309441D01*
X108318110Y-108454431D01*
X108351490Y-108461191D01*
X108210301Y-108519673D01*
X108031673Y-108698302D01*
X107935000Y-108931691D01*
X107935000Y-109522250D01*
X108093750Y-109681000D01*
X109093000Y-109681000D01*
X109093000Y-109661000D01*
X109347000Y-109661000D01*
X109347000Y-109681000D01*
X110346250Y-109681000D01*
X110505000Y-109522250D01*
X110505000Y-108931691D01*
X110498903Y-108916971D01*
X121900821Y-108916971D01*
X122058058Y-109297515D01*
X122348954Y-109588919D01*
X122729223Y-109746820D01*
X123058121Y-109747107D01*
X123077058Y-109847747D01*
X123216130Y-110063871D01*
X123428330Y-110208861D01*
X123680220Y-110259870D01*
X127180340Y-110259870D01*
X127415657Y-110215592D01*
X127631781Y-110076520D01*
X127776771Y-109864320D01*
X127827780Y-109612430D01*
X127827780Y-107811570D01*
X127783502Y-107576253D01*
X127644430Y-107360129D01*
X127432230Y-107215139D01*
X127180340Y-107164130D01*
X123680220Y-107164130D01*
X123444903Y-107208408D01*
X123228779Y-107347480D01*
X123083789Y-107559680D01*
X123060009Y-107677108D01*
X122731029Y-107676821D01*
X122350485Y-107834058D01*
X122059081Y-108124954D01*
X121901180Y-108505223D01*
X121900821Y-108916971D01*
X110498903Y-108916971D01*
X110408327Y-108698302D01*
X110229699Y-108519673D01*
X110093713Y-108463346D01*
X110105317Y-108461162D01*
X110321441Y-108322090D01*
X110466431Y-108109890D01*
X110517440Y-107858000D01*
X110517440Y-106358000D01*
X110473162Y-106122683D01*
X110334090Y-105906559D01*
X110121890Y-105761569D01*
X109956600Y-105728097D01*
X109956600Y-105334216D01*
X110003515Y-105314831D01*
X110393461Y-104925564D01*
X110489976Y-104693130D01*
X110585169Y-104923515D01*
X110974436Y-105313461D01*
X111483298Y-105524759D01*
X112034285Y-105525240D01*
X112543515Y-105314831D01*
X112933461Y-104925564D01*
X113029976Y-104693130D01*
X113125169Y-104923515D01*
X113514436Y-105313461D01*
X114023298Y-105524759D01*
X114574285Y-105525240D01*
X115083515Y-105314831D01*
X115473461Y-104925564D01*
X115569976Y-104693130D01*
X115665169Y-104923515D01*
X116054436Y-105313461D01*
X116563298Y-105524759D01*
X117114285Y-105525240D01*
X117623515Y-105314831D01*
X118013461Y-104925564D01*
X118109976Y-104693130D01*
X118205169Y-104923515D01*
X118594436Y-105313461D01*
X119103298Y-105524759D01*
X119654285Y-105525240D01*
X120163515Y-105314831D01*
X120553461Y-104925564D01*
X120649976Y-104693130D01*
X120745169Y-104923515D01*
X121134436Y-105313461D01*
X121643298Y-105524759D01*
X122194285Y-105525240D01*
X122703515Y-105314831D01*
X123093461Y-104925564D01*
X123189976Y-104693130D01*
X123285169Y-104923515D01*
X123674436Y-105313461D01*
X124183298Y-105524759D01*
X124734285Y-105525240D01*
X125243515Y-105314831D01*
X125633461Y-104925564D01*
X125729976Y-104693130D01*
X125825169Y-104923515D01*
X126214436Y-105313461D01*
X126723298Y-105524759D01*
X127274285Y-105525240D01*
X127783515Y-105314831D01*
X128173461Y-104925564D01*
X128205779Y-104847734D01*
X128324130Y-104824193D01*
X128365169Y-104923515D01*
X128754436Y-105313461D01*
X129263298Y-105524759D01*
X129814285Y-105525240D01*
X130323515Y-105314831D01*
X130713461Y-104925564D01*
X130809976Y-104693130D01*
X130905169Y-104923515D01*
X131294436Y-105313461D01*
X131803298Y-105524759D01*
X132354285Y-105525240D01*
X132863515Y-105314831D01*
X133253461Y-104925564D01*
X133349976Y-104693130D01*
X133445169Y-104923515D01*
X133834436Y-105313461D01*
X134343298Y-105524759D01*
X134574220Y-105524961D01*
X134469509Y-105592340D01*
X134448584Y-105622964D01*
X134254000Y-105583560D01*
X132954000Y-105583560D01*
X132718683Y-105627838D01*
X132502559Y-105766910D01*
X132357569Y-105979110D01*
X132306560Y-106231000D01*
X132306560Y-106805678D01*
X131948108Y-107164130D01*
X128678940Y-107164130D01*
X128443623Y-107208408D01*
X128227499Y-107347480D01*
X128082509Y-107559680D01*
X128031500Y-107811570D01*
X128031500Y-109612430D01*
X128075778Y-109847747D01*
X128214850Y-110063871D01*
X128427050Y-110208861D01*
X128468093Y-110217172D01*
X128065029Y-110216821D01*
X127684485Y-110374058D01*
X127393081Y-110664954D01*
X127235180Y-111045223D01*
X127235022Y-111226560D01*
X126328493Y-111226560D01*
X126201000Y-111201200D01*
X124070111Y-111201200D01*
X123841277Y-111106180D01*
X123429529Y-111105821D01*
X123048985Y-111263058D01*
X122867228Y-111444498D01*
X122786930Y-111460470D01*
X122782563Y-111463388D01*
X96281012Y-111463388D01*
X95999127Y-111519458D01*
X95760157Y-111679133D01*
X94489730Y-112949560D01*
X93585465Y-112949560D01*
X93551046Y-112915081D01*
X93170777Y-112757180D01*
X92759029Y-112756821D01*
X92378485Y-112914058D01*
X92194500Y-113097722D01*
X92090000Y-113076560D01*
X90790000Y-113076560D01*
X90554683Y-113120838D01*
X90338559Y-113259910D01*
X90193569Y-113472110D01*
X90171007Y-113583523D01*
X90153162Y-113488683D01*
X90014090Y-113272559D01*
X89801890Y-113127569D01*
X89550000Y-113076560D01*
X88250000Y-113076560D01*
X88014683Y-113120838D01*
X88011216Y-113123069D01*
X87969931Y-112915516D01*
X87810256Y-112676546D01*
X87141006Y-112007296D01*
X87141179Y-111809029D01*
X86983942Y-111428485D01*
X86824051Y-111268315D01*
X86923545Y-111204292D01*
X86964390Y-111144513D01*
X87098405Y-111278529D01*
X87331794Y-111375202D01*
X87822354Y-111375202D01*
X87981104Y-111216452D01*
X87981104Y-110117202D01*
X87961104Y-110117202D01*
X87961104Y-109863202D01*
X87981104Y-109863202D01*
X87981104Y-109843202D01*
X88235104Y-109843202D01*
X88235104Y-109863202D01*
X88255104Y-109863202D01*
X88255104Y-110117202D01*
X88235104Y-110117202D01*
X88235104Y-111216452D01*
X88393854Y-111375202D01*
X88884414Y-111375202D01*
X89117803Y-111278529D01*
X89250521Y-111145810D01*
X89280014Y-111191643D01*
X89492214Y-111336633D01*
X89744104Y-111387642D01*
X91044104Y-111387642D01*
X91279421Y-111343364D01*
X91495545Y-111204292D01*
X91543206Y-111134537D01*
X91595910Y-111216441D01*
X91808110Y-111361431D01*
X92060000Y-111412440D01*
X93360000Y-111412440D01*
X93595317Y-111368162D01*
X93804466Y-111233578D01*
X93849417Y-111278529D01*
X94082806Y-111375202D01*
X94573366Y-111375202D01*
X94732116Y-111216452D01*
X94732116Y-110117202D01*
X94712116Y-110117202D01*
X94712116Y-109863202D01*
X94732116Y-109863202D01*
X94732116Y-109843202D01*
X94986116Y-109843202D01*
X94986116Y-109863202D01*
X95006116Y-109863202D01*
X95006116Y-110117202D01*
X94986116Y-110117202D01*
X94986116Y-111216452D01*
X95144866Y-111375202D01*
X95635426Y-111375202D01*
X95868815Y-111278529D01*
X95883173Y-111264170D01*
X95989226Y-111336633D01*
X96241116Y-111387642D01*
X97541116Y-111387642D01*
X97776433Y-111343364D01*
X97907573Y-111258977D01*
X98021226Y-111336633D01*
X98273116Y-111387642D01*
X99573116Y-111387642D01*
X99808433Y-111343364D01*
X99931233Y-111264345D01*
X99945417Y-111278529D01*
X100178806Y-111375202D01*
X100669366Y-111375202D01*
X100828116Y-111216452D01*
X100828116Y-110117202D01*
X100808116Y-110117202D01*
X100808116Y-109863202D01*
X100828116Y-109863202D01*
X100828116Y-109843202D01*
X101082116Y-109843202D01*
X101082116Y-109863202D01*
X101102116Y-109863202D01*
X101102116Y-110117202D01*
X101082116Y-110117202D01*
X101082116Y-111216452D01*
X101240866Y-111375202D01*
X101731426Y-111375202D01*
X101964815Y-111278529D01*
X101979173Y-111264170D01*
X102085226Y-111336633D01*
X102337116Y-111387642D01*
X103637116Y-111387642D01*
X103872433Y-111343364D01*
X104088557Y-111204292D01*
X104233547Y-110992092D01*
X104284556Y-110740202D01*
X104284556Y-110093750D01*
X107935000Y-110093750D01*
X107935000Y-110684309D01*
X108031673Y-110917698D01*
X108210301Y-111096327D01*
X108443690Y-111193000D01*
X108934250Y-111193000D01*
X109093000Y-111034250D01*
X109093000Y-109935000D01*
X109347000Y-109935000D01*
X109347000Y-111034250D01*
X109505750Y-111193000D01*
X109996310Y-111193000D01*
X110229699Y-111096327D01*
X110408327Y-110917698D01*
X110505000Y-110684309D01*
X110505000Y-110093750D01*
X110346250Y-109935000D01*
X109347000Y-109935000D01*
X109093000Y-109935000D01*
X108093750Y-109935000D01*
X107935000Y-110093750D01*
X104284556Y-110093750D01*
X104284556Y-109240202D01*
X104240278Y-109004885D01*
X104101206Y-108788761D01*
X104095437Y-108784819D01*
X104095679Y-108507029D01*
X104092290Y-108498828D01*
X104233547Y-108292092D01*
X104284556Y-108040202D01*
X104284556Y-106540202D01*
X104240278Y-106304885D01*
X104101206Y-106088761D01*
X103889006Y-105943771D01*
X103637116Y-105892762D01*
X102803228Y-105892762D01*
X102280792Y-105370326D01*
X102323923Y-105352460D01*
X102391912Y-105111517D01*
X101600000Y-104319605D01*
X101585858Y-104333748D01*
X101406253Y-104154143D01*
X101420395Y-104140000D01*
X101406253Y-104125858D01*
X101585858Y-103946253D01*
X101600000Y-103960395D01*
X102391912Y-103168483D01*
X102323923Y-102927540D01*
X101804829Y-102742799D01*
X101254552Y-102770770D01*
X100876077Y-102927540D01*
X100808089Y-103168481D01*
X100741091Y-103101483D01*
X100856820Y-102822777D01*
X100857179Y-102411029D01*
X100699942Y-102030485D01*
X100409046Y-101739081D01*
X100028777Y-101581180D01*
X99617029Y-101580821D01*
X99236485Y-101738058D01*
X99094896Y-101879400D01*
X99060486Y-101879400D01*
X98778601Y-101935470D01*
X98539631Y-102095145D01*
X97509744Y-103125032D01*
X97491315Y-103152614D01*
X97305564Y-102966539D01*
X96796702Y-102755241D01*
X96245715Y-102754760D01*
X95967334Y-102869784D01*
X95967679Y-102474529D01*
X95810442Y-102093985D01*
X95613019Y-101896218D01*
X95744431Y-101703890D01*
X95795440Y-101452000D01*
X95795440Y-98756971D01*
X96500821Y-98756971D01*
X96658058Y-99137515D01*
X96948954Y-99428919D01*
X97329223Y-99586820D01*
X97740971Y-99587179D01*
X98121515Y-99429942D01*
X98412919Y-99139046D01*
X98570820Y-98758777D01*
X98571179Y-98347029D01*
X98413942Y-97966485D01*
X98123046Y-97675081D01*
X97742777Y-97517180D01*
X97331029Y-97516821D01*
X96950485Y-97674058D01*
X96659081Y-97964954D01*
X96501180Y-98345223D01*
X96500821Y-98756971D01*
X95795440Y-98756971D01*
X95795440Y-95652000D01*
X95751162Y-95416683D01*
X95612090Y-95200559D01*
X95399890Y-95055569D01*
X95148000Y-95004560D01*
X93014518Y-95004560D01*
X97998599Y-90020479D01*
X97998599Y-95763399D01*
G36*
X110675812Y-89029582D02*
X110731882Y-89311467D01*
X110891557Y-89550437D01*
X113226801Y-91885681D01*
X113226801Y-94237042D01*
X113109046Y-94119081D01*
X112728777Y-93961180D01*
X112317029Y-93960821D01*
X111936485Y-94118058D01*
X111794896Y-94259400D01*
X111428078Y-94259400D01*
X111146193Y-94315470D01*
X110907223Y-94475145D01*
X110366761Y-95015607D01*
X110240032Y-94888657D01*
X109859763Y-94730756D01*
X109786231Y-94730692D01*
X109988785Y-94242888D01*
X110269561Y-94243133D01*
X110650105Y-94085896D01*
X110941509Y-93795000D01*
X111099410Y-93414731D01*
X111099769Y-93002983D01*
X110942532Y-92622439D01*
X110651636Y-92331035D01*
X110271367Y-92173134D01*
X110256249Y-92173121D01*
X110256993Y-91320243D01*
X109385731Y-89211628D01*
X108104742Y-87928401D01*
X109010232Y-87928401D01*
X109179569Y-88098034D01*
X109559838Y-88255935D01*
X109971586Y-88256294D01*
X110352130Y-88099057D01*
X110643534Y-87808161D01*
X110675812Y-87730427D01*
X110675812Y-89029582D01*
X110675812Y-89029582D01*
G37*
X110675812Y-89029582D02*
X110731882Y-89311467D01*
X110891557Y-89550437D01*
X113226801Y-91885681D01*
X113226801Y-94237042D01*
X113109046Y-94119081D01*
X112728777Y-93961180D01*
X112317029Y-93960821D01*
X111936485Y-94118058D01*
X111794896Y-94259400D01*
X111428078Y-94259400D01*
X111146193Y-94315470D01*
X110907223Y-94475145D01*
X110366761Y-95015607D01*
X110240032Y-94888657D01*
X109859763Y-94730756D01*
X109786231Y-94730692D01*
X109988785Y-94242888D01*
X110269561Y-94243133D01*
X110650105Y-94085896D01*
X110941509Y-93795000D01*
X111099410Y-93414731D01*
X111099769Y-93002983D01*
X110942532Y-92622439D01*
X110651636Y-92331035D01*
X110271367Y-92173134D01*
X110256249Y-92173121D01*
X110256993Y-91320243D01*
X109385731Y-89211628D01*
X108104742Y-87928401D01*
X109010232Y-87928401D01*
X109179569Y-88098034D01*
X109559838Y-88255935D01*
X109971586Y-88256294D01*
X110352130Y-88099057D01*
X110643534Y-87808161D01*
X110675812Y-87730427D01*
X110675812Y-89029582D01*
G36*
X129389130Y-90863420D02*
X129433408Y-91098737D01*
X129572480Y-91314861D01*
X129784680Y-91459851D01*
X130036570Y-91510860D01*
X131694098Y-91510860D01*
X133667100Y-93483862D01*
X133450970Y-93699616D01*
X133293069Y-94079885D01*
X133292895Y-94279946D01*
X132805441Y-94767400D01*
X131029120Y-94767400D01*
X130889046Y-94627081D01*
X130879622Y-94623168D01*
X130909704Y-94610738D01*
X131201108Y-94319842D01*
X131359009Y-93939573D01*
X131359368Y-93527825D01*
X131202131Y-93147281D01*
X130911235Y-92855877D01*
X130530966Y-92697976D01*
X130268080Y-92697747D01*
X130218278Y-92664470D01*
X129936393Y-92608400D01*
X129775374Y-92608400D01*
X129762162Y-92538183D01*
X129623090Y-92322059D01*
X129410890Y-92177069D01*
X129159000Y-92126060D01*
X128651000Y-92126060D01*
X128415683Y-92170338D01*
X128269093Y-92264666D01*
X128140890Y-92177069D01*
X127889000Y-92126060D01*
X127838199Y-92126060D01*
X127838199Y-90100459D01*
X129389130Y-88549528D01*
X129389130Y-90863420D01*
X129389130Y-90863420D01*
G37*
X129389130Y-90863420D02*
X129433408Y-91098737D01*
X129572480Y-91314861D01*
X129784680Y-91459851D01*
X130036570Y-91510860D01*
X131694098Y-91510860D01*
X133667100Y-93483862D01*
X133450970Y-93699616D01*
X133293069Y-94079885D01*
X133292895Y-94279946D01*
X132805441Y-94767400D01*
X131029120Y-94767400D01*
X130889046Y-94627081D01*
X130879622Y-94623168D01*
X130909704Y-94610738D01*
X131201108Y-94319842D01*
X131359009Y-93939573D01*
X131359368Y-93527825D01*
X131202131Y-93147281D01*
X130911235Y-92855877D01*
X130530966Y-92697976D01*
X130268080Y-92697747D01*
X130218278Y-92664470D01*
X129936393Y-92608400D01*
X129775374Y-92608400D01*
X129762162Y-92538183D01*
X129623090Y-92322059D01*
X129410890Y-92177069D01*
X129159000Y-92126060D01*
X128651000Y-92126060D01*
X128415683Y-92170338D01*
X128269093Y-92264666D01*
X128140890Y-92177069D01*
X127889000Y-92126060D01*
X127838199Y-92126060D01*
X127838199Y-90100459D01*
X129389130Y-88549528D01*
X129389130Y-90863420D01*
G36*
X117956870Y-87896855D02*
X118195840Y-88056530D01*
X118242608Y-88065833D01*
X118477725Y-88112601D01*
X118477730Y-88112600D01*
X119198290Y-88112600D01*
X119338364Y-88252919D01*
X119718633Y-88410820D01*
X120130381Y-88411179D01*
X120239514Y-88366086D01*
X120239514Y-90105368D01*
X118097145Y-92247737D01*
X117937470Y-92486707D01*
X117881400Y-92768592D01*
X117881400Y-93506880D01*
X117741081Y-93646954D01*
X117583180Y-94027223D01*
X117582906Y-94341998D01*
X115095202Y-94341998D01*
X114813317Y-94398068D01*
X114700001Y-94473783D01*
X114700001Y-91726600D01*
X114869213Y-91692942D01*
X115090188Y-91693135D01*
X115296215Y-91608006D01*
X115539897Y-91559535D01*
X115744676Y-91422706D01*
X115948903Y-91338321D01*
X116106670Y-91180829D01*
X116313254Y-91042794D01*
X116450083Y-90838015D01*
X116606472Y-90681899D01*
X116691960Y-90476021D01*
X116829995Y-90269437D01*
X116878043Y-90027883D01*
X116962784Y-89823804D01*
X116962979Y-89600883D01*
X117011450Y-89357200D01*
X116963402Y-89115647D01*
X116963595Y-88894672D01*
X116878466Y-88688645D01*
X116829995Y-88444963D01*
X116693166Y-88240184D01*
X116658821Y-88157064D01*
X116790971Y-88157179D01*
X117171515Y-87999942D01*
X117462919Y-87709046D01*
X117552742Y-87492727D01*
X117956870Y-87896855D01*
X117956870Y-87896855D01*
G37*
X117956870Y-87896855D02*
X118195840Y-88056530D01*
X118242608Y-88065833D01*
X118477725Y-88112601D01*
X118477730Y-88112600D01*
X119198290Y-88112600D01*
X119338364Y-88252919D01*
X119718633Y-88410820D01*
X120130381Y-88411179D01*
X120239514Y-88366086D01*
X120239514Y-90105368D01*
X118097145Y-92247737D01*
X117937470Y-92486707D01*
X117881400Y-92768592D01*
X117881400Y-93506880D01*
X117741081Y-93646954D01*
X117583180Y-94027223D01*
X117582906Y-94341998D01*
X115095202Y-94341998D01*
X114813317Y-94398068D01*
X114700001Y-94473783D01*
X114700001Y-91726600D01*
X114869213Y-91692942D01*
X115090188Y-91693135D01*
X115296215Y-91608006D01*
X115539897Y-91559535D01*
X115744676Y-91422706D01*
X115948903Y-91338321D01*
X116106670Y-91180829D01*
X116313254Y-91042794D01*
X116450083Y-90838015D01*
X116606472Y-90681899D01*
X116691960Y-90476021D01*
X116829995Y-90269437D01*
X116878043Y-90027883D01*
X116962784Y-89823804D01*
X116962979Y-89600883D01*
X117011450Y-89357200D01*
X116963402Y-89115647D01*
X116963595Y-88894672D01*
X116878466Y-88688645D01*
X116829995Y-88444963D01*
X116693166Y-88240184D01*
X116658821Y-88157064D01*
X116790971Y-88157179D01*
X117171515Y-87999942D01*
X117462919Y-87709046D01*
X117552742Y-87492727D01*
X117956870Y-87896855D01*
G36*
X128914674Y-86940564D02*
X126580744Y-89274494D01*
X126421069Y-89513464D01*
X126364999Y-89795349D01*
X126364999Y-92126060D01*
X126111000Y-92126060D01*
X125875683Y-92170338D01*
X125729093Y-92264666D01*
X125600890Y-92177069D01*
X125349000Y-92126060D01*
X124981107Y-92126060D01*
X125030233Y-92007750D01*
X125030592Y-91596002D01*
X124873355Y-91215458D01*
X124582459Y-90924054D01*
X124202190Y-90766153D01*
X123790442Y-90765794D01*
X123409898Y-90923031D01*
X123118494Y-91213927D01*
X122960593Y-91594196D01*
X122960234Y-92005944D01*
X123117471Y-92386488D01*
X123125130Y-92394160D01*
X122800730Y-92718560D01*
X122545000Y-92718560D01*
X122389493Y-92747821D01*
X122245000Y-92718560D01*
X121595000Y-92718560D01*
X121439493Y-92747821D01*
X121295000Y-92718560D01*
X120645000Y-92718560D01*
X120409683Y-92762838D01*
X120193559Y-92901910D01*
X120053171Y-93107375D01*
X119977468Y-93031672D01*
X119977468Y-92989664D01*
X122822532Y-90144600D01*
X123278172Y-90144600D01*
X123418246Y-90284919D01*
X123798515Y-90442820D01*
X124210263Y-90443179D01*
X124590807Y-90285942D01*
X124882211Y-89995046D01*
X125040112Y-89614777D01*
X125040471Y-89203029D01*
X124883234Y-88822485D01*
X124592338Y-88531081D01*
X124212069Y-88373180D01*
X123800321Y-88372821D01*
X123419777Y-88530058D01*
X123278188Y-88671400D01*
X122517422Y-88671400D01*
X122235537Y-88727470D01*
X121996567Y-88887145D01*
X121712714Y-89170998D01*
X121712714Y-87183630D01*
X121656644Y-86901745D01*
X121496969Y-86662775D01*
X121422794Y-86588600D01*
X122383241Y-86588600D01*
X122927700Y-87133059D01*
X122927527Y-87331326D01*
X123084764Y-87711870D01*
X123375660Y-88003274D01*
X123755929Y-88161175D01*
X124167677Y-88161534D01*
X124548221Y-88004297D01*
X124839625Y-87713401D01*
X124997526Y-87333132D01*
X124997885Y-86921384D01*
X124840648Y-86540840D01*
X124549752Y-86249436D01*
X124169483Y-86091535D01*
X123969422Y-86091361D01*
X123209206Y-85331145D01*
X122970236Y-85171470D01*
X122688351Y-85115400D01*
X121377120Y-85115400D01*
X121365883Y-85104142D01*
X123242488Y-83227537D01*
X123491223Y-83330820D01*
X123902971Y-83331179D01*
X124283515Y-83173942D01*
X124574919Y-82883046D01*
X124657728Y-82683618D01*
X128914674Y-86940564D01*
X128914674Y-86940564D01*
G37*
X128914674Y-86940564D02*
X126580744Y-89274494D01*
X126421069Y-89513464D01*
X126364999Y-89795349D01*
X126364999Y-92126060D01*
X126111000Y-92126060D01*
X125875683Y-92170338D01*
X125729093Y-92264666D01*
X125600890Y-92177069D01*
X125349000Y-92126060D01*
X124981107Y-92126060D01*
X125030233Y-92007750D01*
X125030592Y-91596002D01*
X124873355Y-91215458D01*
X124582459Y-90924054D01*
X124202190Y-90766153D01*
X123790442Y-90765794D01*
X123409898Y-90923031D01*
X123118494Y-91213927D01*
X122960593Y-91594196D01*
X122960234Y-92005944D01*
X123117471Y-92386488D01*
X123125130Y-92394160D01*
X122800730Y-92718560D01*
X122545000Y-92718560D01*
X122389493Y-92747821D01*
X122245000Y-92718560D01*
X121595000Y-92718560D01*
X121439493Y-92747821D01*
X121295000Y-92718560D01*
X120645000Y-92718560D01*
X120409683Y-92762838D01*
X120193559Y-92901910D01*
X120053171Y-93107375D01*
X119977468Y-93031672D01*
X119977468Y-92989664D01*
X122822532Y-90144600D01*
X123278172Y-90144600D01*
X123418246Y-90284919D01*
X123798515Y-90442820D01*
X124210263Y-90443179D01*
X124590807Y-90285942D01*
X124882211Y-89995046D01*
X125040112Y-89614777D01*
X125040471Y-89203029D01*
X124883234Y-88822485D01*
X124592338Y-88531081D01*
X124212069Y-88373180D01*
X123800321Y-88372821D01*
X123419777Y-88530058D01*
X123278188Y-88671400D01*
X122517422Y-88671400D01*
X122235537Y-88727470D01*
X121996567Y-88887145D01*
X121712714Y-89170998D01*
X121712714Y-87183630D01*
X121656644Y-86901745D01*
X121496969Y-86662775D01*
X121422794Y-86588600D01*
X122383241Y-86588600D01*
X122927700Y-87133059D01*
X122927527Y-87331326D01*
X123084764Y-87711870D01*
X123375660Y-88003274D01*
X123755929Y-88161175D01*
X124167677Y-88161534D01*
X124548221Y-88004297D01*
X124839625Y-87713401D01*
X124997526Y-87333132D01*
X124997885Y-86921384D01*
X124840648Y-86540840D01*
X124549752Y-86249436D01*
X124169483Y-86091535D01*
X123969422Y-86091361D01*
X123209206Y-85331145D01*
X122970236Y-85171470D01*
X122688351Y-85115400D01*
X121377120Y-85115400D01*
X121365883Y-85104142D01*
X123242488Y-83227537D01*
X123491223Y-83330820D01*
X123902971Y-83331179D01*
X124283515Y-83173942D01*
X124574919Y-82883046D01*
X124657728Y-82683618D01*
X128914674Y-86940564D01*
G36*
X110129000Y-83185000D02*
X110149000Y-83185000D01*
X110149000Y-83439000D01*
X110129000Y-83439000D01*
X110129000Y-83459000D01*
X109875000Y-83459000D01*
X109875000Y-83439000D01*
X109855000Y-83439000D01*
X109855000Y-83185000D01*
X109875000Y-83185000D01*
X109875000Y-83165000D01*
X110129000Y-83165000D01*
X110129000Y-83185000D01*
X110129000Y-83185000D01*
G37*
X110129000Y-83185000D02*
X110149000Y-83185000D01*
X110149000Y-83439000D01*
X110129000Y-83439000D01*
X110129000Y-83459000D01*
X109875000Y-83459000D01*
X109875000Y-83439000D01*
X109855000Y-83439000D01*
X109855000Y-83185000D01*
X109875000Y-83185000D01*
X109875000Y-83165000D01*
X110129000Y-83165000D01*
X110129000Y-83185000D01*
M02*
