G04 #@! TF.FileFunction,Copper,L1,Top,Signal*
%FSLAX46Y46*%
G04 Gerber Fmt 4.6, Leading zero omitted, Abs format (unit mm)*
G04 Created by KiCad (PCBNEW 4.0.6) date 06/03/17 00:39:33*
%MOMM*%
%LPD*%
G01*
G04 APERTURE LIST*
%ADD10C,0.100000*%
%ADD11C,1.800000*%
%ADD12R,1.500000X1.300000*%
%ADD13C,3.401060*%
%ADD14R,1.998980X1.000760*%
%ADD15O,2.032000X2.032000*%
%ADD16R,2.032000X2.032000*%
%ADD17C,1.500000*%
%ADD18R,1.198880X1.198880*%
%ADD19C,1.600000*%
%ADD20R,2.999740X1.600200*%
%ADD21R,1.600200X3.599180*%
%ADD22R,1.500000X1.250000*%
%ADD23R,1.250000X1.500000*%
%ADD24R,0.450000X0.590000*%
%ADD25R,2.500000X2.000000*%
%ADD26O,1.727200X2.032000*%
%ADD27R,1.727200X2.032000*%
%ADD28O,2.032000X1.727200*%
%ADD29R,2.032000X1.727200*%
%ADD30R,1.800860X0.800100*%
%ADD31R,1.300000X1.500000*%
%ADD32R,0.650000X2.500000*%
%ADD33C,1.879600*%
%ADD34R,1.051560X1.000760*%
%ADD35R,1.000760X1.000760*%
%ADD36R,2.199640X1.099820*%
%ADD37R,1.143000X0.508000*%
%ADD38R,1.200000X0.900000*%
%ADD39C,1.900000*%
%ADD40R,0.450000X1.450000*%
%ADD41R,1.800860X3.500120*%
%ADD42C,2.999740*%
%ADD43R,1.900000X1.900000*%
%ADD44C,0.800000*%
%ADD45C,0.203200*%
%ADD46C,0.304800*%
%ADD47C,0.609600*%
%ADD48C,0.812800*%
%ADD49C,0.254000*%
G04 APERTURE END LIST*
D10*
D11*
X55689500Y-81280000D03*
X58229500Y-81280000D03*
X60769500Y-81280000D03*
X63309500Y-81280000D03*
D12*
X55976500Y-105727500D03*
X53276500Y-105727500D03*
D13*
X114627660Y-89357200D03*
D14*
X122428000Y-84907120D03*
X122428000Y-86408260D03*
X122428000Y-87906860D03*
X122428000Y-89408000D03*
X122428000Y-90906600D03*
X122428000Y-92407740D03*
X122428000Y-93906340D03*
X122428000Y-95407480D03*
X122428000Y-96906080D03*
X122428000Y-83408520D03*
X106426000Y-96906080D03*
X106426000Y-95407480D03*
X106426000Y-93906340D03*
X106426000Y-92407740D03*
X106426000Y-90906600D03*
X106426000Y-89408000D03*
X106426000Y-87906860D03*
X106426000Y-86408260D03*
X106426000Y-84907120D03*
X106426000Y-83408520D03*
D15*
X113665000Y-100457000D03*
D16*
X111125000Y-100457000D03*
D17*
X78740000Y-104140000D03*
X78740000Y-119380000D03*
X81280000Y-104140000D03*
X81280000Y-119380000D03*
X83820000Y-104140000D03*
X83820000Y-119380000D03*
X86360000Y-104140000D03*
X86360000Y-119380000D03*
X88900000Y-104140000D03*
X88900000Y-119380000D03*
X91440000Y-104140000D03*
X91440000Y-119380000D03*
X93980000Y-104140000D03*
X93980000Y-119380000D03*
X96520000Y-104140000D03*
X96520000Y-119380000D03*
X99060000Y-104140000D03*
X99060000Y-119380000D03*
X101600000Y-104140000D03*
X101600000Y-119380000D03*
X104140000Y-104140000D03*
X104140000Y-119380000D03*
X106680000Y-104140000D03*
X106680000Y-119380000D03*
X109220000Y-104140000D03*
X109220000Y-119380000D03*
X111760000Y-104140000D03*
X111760000Y-119380000D03*
X114300000Y-104140000D03*
X114300000Y-119380000D03*
X116840000Y-104140000D03*
X116840000Y-119380000D03*
X119380000Y-104140000D03*
X119380000Y-119380000D03*
X121920000Y-104140000D03*
X121920000Y-119380000D03*
X124460000Y-104140000D03*
X124460000Y-119380000D03*
X127000000Y-104140000D03*
X127000000Y-119380000D03*
X129540000Y-104140000D03*
X129540000Y-119380000D03*
X132080000Y-104140000D03*
X132080000Y-119380000D03*
X134620000Y-104140000D03*
X134620000Y-119380000D03*
X137160000Y-104140000D03*
X137160000Y-119380000D03*
D18*
X125061980Y-91694000D03*
X127160020Y-91694000D03*
D19*
X130810000Y-123190000D03*
X133350000Y-123190000D03*
X135890000Y-123190000D03*
D20*
X79161640Y-124460000D03*
X74762360Y-124460000D03*
D21*
X132334000Y-100540820D03*
X132334000Y-95039180D03*
D22*
X134533000Y-91313000D03*
X137033000Y-91313000D03*
D23*
X61722000Y-105918000D03*
X61722000Y-103418000D03*
D22*
X55860000Y-103441500D03*
X53360000Y-103441500D03*
X51391500Y-100965000D03*
X53891500Y-100965000D03*
D24*
X98044000Y-124118000D03*
X98044000Y-122008000D03*
D18*
X106934000Y-125001020D03*
X106934000Y-122902980D03*
X104775000Y-125001020D03*
X104775000Y-122902980D03*
X125061980Y-84836000D03*
X127160020Y-84836000D03*
X125061980Y-82550000D03*
X127160020Y-82550000D03*
X125061980Y-87122000D03*
X127160020Y-87122000D03*
X125061980Y-89408000D03*
X127160020Y-89408000D03*
X54165500Y-94488000D03*
X52067460Y-94488000D03*
D25*
X77597000Y-87217000D03*
X77597000Y-83217000D03*
X81153000Y-87217000D03*
X81153000Y-83217000D03*
X84709000Y-87217000D03*
X84709000Y-83217000D03*
X88265000Y-87217000D03*
X88265000Y-83217000D03*
X91821000Y-87217000D03*
X91821000Y-83217000D03*
X95377000Y-87217000D03*
X95377000Y-83217000D03*
X98933000Y-87217000D03*
X98933000Y-83217000D03*
X102489000Y-87217000D03*
X102489000Y-83217000D03*
D26*
X70866000Y-126682500D03*
X68326000Y-126682500D03*
D27*
X65786000Y-126682500D03*
D26*
X65786000Y-122936000D03*
X68326000Y-122936000D03*
D27*
X70866000Y-122936000D03*
D26*
X88138000Y-123190000D03*
X85598000Y-123190000D03*
D27*
X83058000Y-123190000D03*
D28*
X135128000Y-88392000D03*
X135128000Y-85852000D03*
D29*
X135128000Y-83312000D03*
D28*
X50546000Y-85852000D03*
X50546000Y-83312000D03*
D29*
X50546000Y-80772000D03*
D30*
X69850000Y-95821500D03*
X72852280Y-94871500D03*
X72852280Y-96771500D03*
D31*
X137033000Y-96426000D03*
X137033000Y-93726000D03*
X137033000Y-101506000D03*
X137033000Y-98806000D03*
D12*
X129333000Y-84836000D03*
X132033000Y-84836000D03*
X129333000Y-82550000D03*
X132033000Y-82550000D03*
X129333000Y-87122000D03*
X132033000Y-87122000D03*
X129333000Y-91694000D03*
X132033000Y-91694000D03*
X129333000Y-89408000D03*
X132033000Y-89408000D03*
X64880500Y-97980500D03*
X67580500Y-97980500D03*
X64880500Y-95821500D03*
X67580500Y-95821500D03*
X54118500Y-98742500D03*
X51418500Y-98742500D03*
X55976500Y-108013500D03*
X53276500Y-108013500D03*
X54118500Y-96647000D03*
X51418500Y-96647000D03*
D32*
X88900000Y-90631000D03*
X87630000Y-90631000D03*
X86360000Y-90631000D03*
X85090000Y-90631000D03*
X83820000Y-90631000D03*
X82550000Y-90631000D03*
X81280000Y-90631000D03*
X80010000Y-90631000D03*
X78740000Y-90631000D03*
X77470000Y-90631000D03*
X88900000Y-100631000D03*
X87630000Y-100631000D03*
X86360000Y-100631000D03*
X85090000Y-100631000D03*
X83820000Y-100631000D03*
X82550000Y-100631000D03*
X81280000Y-100631000D03*
X80010000Y-100631000D03*
X78740000Y-100631000D03*
X77470000Y-100631000D03*
X102610424Y-90631000D03*
X101340424Y-90631000D03*
X100070424Y-90631000D03*
X98800424Y-90631000D03*
X97530424Y-90631000D03*
X96260424Y-90631000D03*
X94990424Y-90631000D03*
X93720424Y-90631000D03*
X92450424Y-90631000D03*
X91180424Y-90631000D03*
X102610424Y-100631000D03*
X101340424Y-100631000D03*
X100070424Y-100631000D03*
X98800424Y-100631000D03*
X97530424Y-100631000D03*
X96260424Y-100631000D03*
X94990424Y-100631000D03*
X93720424Y-100631000D03*
X92450424Y-100631000D03*
X91180424Y-100631000D03*
D33*
X65551642Y-104203230D03*
X68091642Y-104203230D03*
X70631642Y-104203230D03*
X73171642Y-104203230D03*
X75711642Y-104203230D03*
X65551642Y-119443230D03*
X68091642Y-119443230D03*
X70631642Y-119443230D03*
X73171642Y-119443230D03*
X75711642Y-119443230D03*
D34*
X124714000Y-96774000D03*
D35*
X127716280Y-96774000D03*
D36*
X126215140Y-98224340D03*
X126215140Y-95323660D03*
D37*
X62547500Y-101346000D03*
X62547500Y-100076000D03*
X62547500Y-98806000D03*
X62547500Y-97536000D03*
X56197500Y-97536000D03*
X56197500Y-98806000D03*
X56197500Y-100076000D03*
X56197500Y-101346000D03*
D38*
X56426500Y-94523000D03*
X56426500Y-95793000D03*
X62826500Y-95793000D03*
X62826500Y-94523000D03*
D39*
X56705500Y-89598500D03*
X49085500Y-89598500D03*
X64325500Y-89598500D03*
X66865500Y-89598500D03*
D40*
X51013000Y-115472000D03*
X50363000Y-115472000D03*
X49713000Y-115472000D03*
X49063000Y-115472000D03*
X49063000Y-109572000D03*
X49713000Y-109572000D03*
X50363000Y-109572000D03*
X51013000Y-109572000D03*
D41*
X46672500Y-85643720D03*
X46672500Y-80645000D03*
X42418000Y-81066640D03*
X42418000Y-86065360D03*
D42*
X71218285Y-85962823D03*
X71218285Y-81517823D03*
X54610000Y-119253000D03*
X50165000Y-119253000D03*
D19*
X119253000Y-123190000D03*
X121793000Y-123190000D03*
X124333000Y-123190000D03*
D43*
X87630000Y-76454000D03*
D39*
X85130000Y-76454000D03*
X82630000Y-76454000D03*
X80130000Y-76454000D03*
X87630000Y-78954000D03*
X85130000Y-78954000D03*
X82630000Y-78954000D03*
X80130000Y-78954000D03*
D43*
X99822000Y-76454000D03*
D39*
X97322000Y-76454000D03*
X94822000Y-76454000D03*
X92322000Y-76454000D03*
X99822000Y-78954000D03*
X97322000Y-78954000D03*
X94822000Y-78954000D03*
X92322000Y-78954000D03*
D43*
X112014000Y-76454000D03*
D39*
X109514000Y-76454000D03*
X107014000Y-76454000D03*
X104514000Y-76454000D03*
X112014000Y-78954000D03*
X109514000Y-78954000D03*
X107014000Y-78954000D03*
X104514000Y-78954000D03*
D43*
X126746000Y-76454000D03*
D39*
X124246000Y-76454000D03*
X121746000Y-76454000D03*
X119246000Y-76454000D03*
X116746000Y-76454000D03*
X126746000Y-78954000D03*
X124246000Y-78954000D03*
X121746000Y-78954000D03*
X119246000Y-78954000D03*
X116746000Y-78954000D03*
D43*
X111399000Y-123501000D03*
D39*
X113899000Y-123501000D03*
D43*
X42712000Y-107950000D03*
D39*
X42712000Y-110450000D03*
X42712000Y-112950000D03*
X42712000Y-115450000D03*
X42712000Y-117950000D03*
X42712000Y-120450000D03*
X45212000Y-107950000D03*
X45212000Y-110450000D03*
X45212000Y-112950000D03*
X45212000Y-115450000D03*
X45212000Y-117950000D03*
X45212000Y-120450000D03*
D43*
X42712000Y-90424000D03*
D39*
X42712000Y-92924000D03*
X42712000Y-95424000D03*
X42712000Y-97924000D03*
X42712000Y-100424000D03*
X42712000Y-102924000D03*
X45212000Y-90424000D03*
X45212000Y-92924000D03*
X45212000Y-95424000D03*
X45212000Y-97924000D03*
X45212000Y-100424000D03*
X45212000Y-102924000D03*
D44*
X63376592Y-103039740D03*
X62871390Y-105421468D03*
X63696802Y-99872800D03*
X77914500Y-123234410D03*
X76263500Y-99377500D03*
X124206000Y-93980000D03*
X117856000Y-96774000D03*
X71628000Y-108712000D03*
X63505723Y-96815345D03*
X112477448Y-87077448D03*
X84074000Y-115570000D03*
X78486000Y-113030000D03*
X110064590Y-93207954D03*
X75438000Y-82042000D03*
X108204000Y-86106000D03*
X84328000Y-102362000D03*
X64262000Y-94234000D03*
X79038865Y-110340193D03*
X127635000Y-100838000D03*
X137160000Y-113538000D03*
X122936000Y-108712000D03*
X119925410Y-83883500D03*
X130324189Y-93732796D03*
X118046500Y-99777590D03*
X124158838Y-99015590D03*
X109972308Y-114480808D03*
X69024500Y-114173000D03*
X103949500Y-114363500D03*
X68072000Y-110807500D03*
X103060500Y-108712000D03*
X97536000Y-98552000D03*
X81216500Y-95948500D03*
X109766615Y-87221115D03*
X119920270Y-93010668D03*
X77295047Y-120605567D03*
X113284000Y-93218000D03*
X114808000Y-92964000D03*
X118364000Y-91440000D03*
X124005292Y-90678000D03*
X128062452Y-90602573D03*
X131826000Y-92661788D03*
X105664000Y-102362000D03*
X108461168Y-83214252D03*
X109220000Y-108712000D03*
X105156000Y-109982000D03*
X118110000Y-111506000D03*
X118110000Y-118110000D03*
X63746096Y-101492322D03*
X89249991Y-102029802D03*
X132764802Y-80518000D03*
X76812148Y-98298000D03*
X78949502Y-92964000D03*
X83948222Y-92710000D03*
X88900000Y-92710000D03*
X66294000Y-97028000D03*
X92964000Y-113792000D03*
X124460000Y-102362000D03*
X134810500Y-101917500D03*
X134810500Y-108521500D03*
X134493000Y-92837000D03*
X53276500Y-88519000D03*
X54632249Y-105069803D03*
X54673500Y-102531198D03*
X50609500Y-102362000D03*
X57492344Y-96584825D03*
X85852000Y-85512198D03*
X120904000Y-115674802D03*
X115570000Y-115570000D03*
X116586000Y-87122000D03*
X120650000Y-85852000D03*
X123962706Y-87126355D03*
X123995413Y-91800973D03*
X124005292Y-89408000D03*
X75692000Y-102362000D03*
X81534000Y-115824000D03*
X81788000Y-93980000D03*
X89662000Y-94488000D03*
X108143506Y-84139026D03*
X116332000Y-81729628D03*
X87503000Y-83693000D03*
X133350000Y-84836000D03*
X122428000Y-81026000D03*
X123634500Y-112141000D03*
X115409492Y-80985942D03*
X105231211Y-82200393D03*
X109652986Y-95765576D03*
X118872000Y-81280000D03*
X121158000Y-81788000D03*
X112522000Y-94996000D03*
X120904000Y-99822000D03*
X118618000Y-94234000D03*
X123698000Y-82296000D03*
X108184061Y-81412990D03*
X114329211Y-80101576D03*
X70231000Y-114427000D03*
X115421668Y-123375844D03*
X74333188Y-102168743D03*
X76391052Y-106453584D03*
X134327889Y-94286662D03*
X130302000Y-95504000D03*
X130048000Y-98044000D03*
X128270000Y-98298000D03*
X128333500Y-94996000D03*
X119925410Y-87376000D03*
X71628000Y-88646000D03*
X86106000Y-112014000D03*
X114183749Y-85067101D03*
X81280000Y-102616000D03*
X86360000Y-102616000D03*
X94932500Y-102679500D03*
X99822000Y-102616000D03*
X137160000Y-100076000D03*
X126238000Y-114554000D03*
X128270000Y-111252000D03*
X69723000Y-108648500D03*
X120166490Y-96949856D03*
X110184146Y-81269211D03*
X113030000Y-80772000D03*
D45*
X62871390Y-105596810D02*
X62871390Y-105421468D01*
X61722000Y-105918000D02*
X62550200Y-105918000D01*
X62550200Y-105918000D02*
X62871390Y-105596810D01*
X71218285Y-81517823D02*
X63547323Y-81517823D01*
X63547323Y-81517823D02*
X63309500Y-81280000D01*
X78939350Y-123234410D02*
X77914500Y-123234410D01*
X79161640Y-124460000D02*
X79161640Y-123456700D01*
X79161640Y-123456700D02*
X78939350Y-123234410D01*
X62547500Y-97536000D02*
X62785068Y-97536000D01*
X62785068Y-97536000D02*
X63505723Y-96815345D01*
D46*
X109366204Y-93906340D02*
X110064590Y-93207954D01*
X106426000Y-93906340D02*
X109366204Y-93906340D01*
D45*
X107901740Y-86408260D02*
X108204000Y-86106000D01*
X106426000Y-86408260D02*
X107901740Y-86408260D01*
X64262000Y-94234000D02*
X63115500Y-94234000D01*
X63115500Y-94234000D02*
X62826500Y-94523000D01*
X98044000Y-124118000D02*
X100110660Y-124118000D01*
X100110660Y-124118000D02*
X101600000Y-122628660D01*
X122428000Y-84907120D02*
X120949030Y-84907120D01*
X120949030Y-84907120D02*
X119925410Y-83883500D01*
D46*
X124810520Y-98224340D02*
X124158838Y-98876022D01*
X126215140Y-98224340D02*
X124810520Y-98224340D01*
X124158838Y-98876022D02*
X124158838Y-99015590D01*
X122428000Y-95407480D02*
X126131320Y-95407480D01*
D45*
X106934000Y-125001020D02*
X104775000Y-125001020D01*
X101600000Y-119380000D02*
X101600000Y-122628660D01*
X101600000Y-122628660D02*
X103972360Y-125001020D01*
X103972360Y-125001020D02*
X104775000Y-125001020D01*
X79161640Y-124526040D02*
X79161640Y-124460000D01*
D46*
X97530424Y-100631000D02*
X97530424Y-98557576D01*
X97530424Y-98557576D02*
X97536000Y-98552000D01*
X92450424Y-100631000D02*
X92450424Y-99076200D01*
X92450424Y-99076200D02*
X92475825Y-99050799D01*
X92475825Y-99050799D02*
X96875223Y-99050799D01*
X96875223Y-99050799D02*
X97530424Y-99706000D01*
X97530424Y-99706000D02*
X97530424Y-100631000D01*
X83820000Y-100631000D02*
X83820000Y-99706000D01*
X83820000Y-99706000D02*
X83164799Y-99050799D01*
X83164799Y-99050799D02*
X79395201Y-99050799D01*
X79395201Y-99050799D02*
X78740000Y-99706000D01*
X78740000Y-99706000D02*
X78740000Y-100631000D01*
X81216500Y-95948500D02*
X78740000Y-98425000D01*
X78740000Y-98425000D02*
X78740000Y-100631000D01*
X126131320Y-95407480D02*
X126215140Y-95323660D01*
X126215140Y-98224340D02*
X126265940Y-98224340D01*
X126265940Y-98224340D02*
X127716280Y-96774000D01*
X126215140Y-95323660D02*
X126265940Y-95323660D01*
X126265940Y-95323660D02*
X127716280Y-96774000D01*
X132334000Y-100540820D02*
X136067820Y-100540820D01*
X136067820Y-100540820D02*
X137033000Y-101506000D01*
D45*
X137033000Y-101506000D02*
X137033000Y-104013000D01*
X137033000Y-104013000D02*
X137160000Y-104140000D01*
X134533000Y-91313000D02*
X134533000Y-88987000D01*
X134533000Y-88987000D02*
X135128000Y-88392000D01*
X125061980Y-84836000D02*
X125061980Y-82550000D01*
X122428000Y-84907120D02*
X124990860Y-84907120D01*
X124990860Y-84907120D02*
X125061980Y-84836000D01*
D47*
X109080870Y-87906860D02*
X109766615Y-87221115D01*
X106426000Y-87906860D02*
X109080870Y-87906860D01*
D45*
X119920270Y-92996270D02*
X119920270Y-93010668D01*
X118364000Y-91440000D02*
X119920270Y-92996270D01*
X74762360Y-123133008D02*
X77289801Y-120605567D01*
X77289801Y-120605567D02*
X77295047Y-120605567D01*
X74762360Y-124460000D02*
X74762360Y-123133008D01*
X114808000Y-92964000D02*
X113538000Y-92964000D01*
X113538000Y-92964000D02*
X113284000Y-93218000D01*
X128062452Y-90602573D02*
X124080719Y-90602573D01*
X124080719Y-90602573D02*
X124005292Y-90678000D01*
X132033000Y-91694000D02*
X132033000Y-92454788D01*
X132033000Y-92454788D02*
X131826000Y-92661788D01*
X101600000Y-104140000D02*
X103378000Y-102362000D01*
X103378000Y-102362000D02*
X105664000Y-102362000D01*
X108266900Y-83408520D02*
X108461168Y-83214252D01*
X106426000Y-83408520D02*
X108266900Y-83408520D01*
X105156000Y-109982000D02*
X106426000Y-108712000D01*
X106426000Y-108712000D02*
X109220000Y-108712000D01*
D47*
X118110000Y-118110000D02*
X124714000Y-118110000D01*
X124714000Y-118110000D02*
X130810000Y-118110000D01*
X118110000Y-111506000D02*
X124714000Y-118110000D01*
X130810000Y-118110000D02*
X132080000Y-119380000D01*
D45*
X132033000Y-89408000D02*
X132033000Y-91694000D01*
X132033000Y-87122000D02*
X132033000Y-89408000D01*
X63599774Y-101346000D02*
X63746096Y-101492322D01*
X62547500Y-101346000D02*
X63599774Y-101346000D01*
X71218285Y-85962823D02*
X65452323Y-85962823D01*
X65452323Y-85962823D02*
X60769500Y-81280000D01*
D47*
X89249991Y-100980991D02*
X89249991Y-102029802D01*
X88900000Y-100631000D02*
X89249991Y-100980991D01*
D45*
X132033000Y-81249802D02*
X132764802Y-80518000D01*
X132033000Y-82550000D02*
X132033000Y-81249802D01*
D47*
X77470000Y-100631000D02*
X77470000Y-98955852D01*
X77470000Y-98955852D02*
X76812148Y-98298000D01*
X78740000Y-90631000D02*
X78740000Y-92754498D01*
X78740000Y-92754498D02*
X78949502Y-92964000D01*
X83820000Y-90631000D02*
X83820000Y-92581778D01*
X83820000Y-92581778D02*
X83948222Y-92710000D01*
X88900000Y-90631000D02*
X88900000Y-92710000D01*
X87630000Y-90631000D02*
X88900000Y-90631000D01*
X82550000Y-90631000D02*
X83820000Y-90631000D01*
X77470000Y-90631000D02*
X78740000Y-90631000D01*
X72852280Y-94871500D02*
X72852280Y-93861850D01*
X72852280Y-93861850D02*
X75886462Y-90827668D01*
X75886462Y-90827668D02*
X75886462Y-90631000D01*
X71218285Y-85962823D02*
X75886462Y-90631000D01*
X75886462Y-90631000D02*
X77470000Y-90631000D01*
D45*
X62547500Y-101346000D02*
X62547500Y-102592500D01*
X62547500Y-102592500D02*
X61722000Y-103418000D01*
X64880500Y-97980500D02*
X65341500Y-97980500D01*
X65341500Y-97980500D02*
X66294000Y-97028000D01*
D48*
X130810000Y-123190000D02*
X132194201Y-121805799D01*
X134734201Y-121805799D02*
X137160000Y-119380000D01*
X132194201Y-121805799D02*
X134734201Y-121805799D01*
D45*
X136179800Y-93726000D02*
X135226600Y-92772800D01*
D48*
X132334000Y-94430315D02*
X132334000Y-95039180D01*
D45*
X133600890Y-92772800D02*
X132334000Y-94039690D01*
X132334000Y-94039690D02*
X132334000Y-95039180D01*
X135226600Y-92772800D02*
X133600890Y-92772800D01*
D48*
X133927315Y-92837000D02*
X132334000Y-94430315D01*
D45*
X137033000Y-93726000D02*
X136179800Y-93726000D01*
D48*
X134493000Y-92837000D02*
X133927315Y-92837000D01*
D47*
X134810500Y-108521500D02*
X135852601Y-107479399D01*
X135852601Y-107479399D02*
X135852601Y-102959601D01*
X135852601Y-102959601D02*
X134810500Y-101917500D01*
D45*
X137033000Y-93726000D02*
X137033000Y-91313000D01*
X51013000Y-109572000D02*
X52571200Y-109572000D01*
X52571200Y-109572000D02*
X53276500Y-108866700D01*
X53276500Y-108866700D02*
X53276500Y-108013500D01*
X53276500Y-105727500D02*
X53276500Y-103525000D01*
X53276500Y-103525000D02*
X53360000Y-103441500D01*
X53276500Y-108013500D02*
X53276500Y-105727500D01*
X51418500Y-96647000D02*
X51318500Y-96647000D01*
X51318500Y-96647000D02*
X50465300Y-95793800D01*
X50465300Y-95793800D02*
X50465300Y-91330200D01*
X50465300Y-91330200D02*
X53276500Y-88519000D01*
X53891500Y-100965000D02*
X53891500Y-102910000D01*
X53891500Y-102910000D02*
X53360000Y-103441500D01*
X53891500Y-100965000D02*
X55816500Y-100965000D01*
X55816500Y-100965000D02*
X56197500Y-101346000D01*
X51418500Y-98742500D02*
X51544000Y-98742500D01*
X51544000Y-98742500D02*
X53766500Y-100965000D01*
X53766500Y-100965000D02*
X53891500Y-100965000D01*
X51418500Y-96647000D02*
X51418500Y-98742500D01*
X55860000Y-103441500D02*
X55583802Y-103441500D01*
X55583802Y-103441500D02*
X54673500Y-102531198D01*
X51391500Y-100965000D02*
X51391500Y-101580000D01*
X51391500Y-101580000D02*
X50609500Y-102362000D01*
X49063000Y-115472000D02*
X49713000Y-115472000D01*
X50165000Y-119253000D02*
X50165000Y-117131864D01*
X50165000Y-117131864D02*
X49713000Y-116679864D01*
X49713000Y-116679864D02*
X49713000Y-115472000D01*
X56426500Y-94523000D02*
X54200500Y-94523000D01*
X54200500Y-94523000D02*
X54165500Y-94488000D01*
X57492344Y-96584825D02*
X57492344Y-94785644D01*
X57492344Y-94785644D02*
X57229700Y-94523000D01*
X57229700Y-94523000D02*
X56426500Y-94523000D01*
X56197500Y-97536000D02*
X56541169Y-97536000D01*
X56541169Y-97536000D02*
X57492344Y-96584825D01*
D47*
X45085000Y-120299500D02*
X49118500Y-120299500D01*
X49118500Y-120299500D02*
X50165000Y-119253000D01*
D45*
X90551009Y-102204179D02*
X90551009Y-88928531D01*
X90410599Y-103168231D02*
X90805009Y-102773821D01*
X90410599Y-109669939D02*
X90410599Y-103168231D01*
X99060000Y-119380000D02*
X99060000Y-118319340D01*
X99060000Y-118319340D02*
X90410599Y-109669939D01*
X90805009Y-102458179D02*
X90551009Y-102204179D01*
X90805009Y-102773821D02*
X90805009Y-102458179D01*
X89541720Y-85512198D02*
X85852000Y-85512198D01*
X90551009Y-88928531D02*
X89921401Y-88298923D01*
X89921401Y-88298923D02*
X89921401Y-85891879D01*
X89921401Y-85891879D02*
X89541720Y-85512198D01*
X119021684Y-115674802D02*
X120904000Y-115674802D01*
X115329401Y-119367085D02*
X119021684Y-115674802D01*
X114413102Y-120790412D02*
X115329401Y-119874113D01*
X109849208Y-120790412D02*
X114413102Y-120790412D01*
X115329401Y-119874113D02*
X115329401Y-119367085D01*
X106934000Y-122902980D02*
X107736640Y-122902980D01*
X107736640Y-122902980D02*
X109849208Y-120790412D01*
X113270599Y-117869401D02*
X115570000Y-115570000D01*
X113270599Y-119393401D02*
X113270599Y-117869401D01*
X106465939Y-120409401D02*
X112254599Y-120409401D01*
X104775000Y-122902980D02*
X104775000Y-122100340D01*
X112254599Y-120409401D02*
X113270599Y-119393401D01*
X104775000Y-122100340D02*
X106465939Y-120409401D01*
X127160020Y-84836000D02*
X129333000Y-84836000D01*
X129333000Y-82550000D02*
X127160020Y-82550000D01*
X129333000Y-87122000D02*
X127160020Y-87122000D01*
X120650000Y-85852000D02*
X117856000Y-85852000D01*
X117856000Y-85852000D02*
X116586000Y-87122000D01*
X125061980Y-87122000D02*
X123967061Y-87122000D01*
X123967061Y-87122000D02*
X123962706Y-87126355D01*
X123995413Y-91800973D02*
X124955007Y-91800973D01*
X124955007Y-91800973D02*
X125061980Y-91694000D01*
X127160020Y-91694000D02*
X129333000Y-91694000D01*
X129333000Y-89408000D02*
X127160020Y-89408000D01*
X124005292Y-89408000D02*
X125061980Y-89408000D01*
X75692000Y-102418454D02*
X75692000Y-102362000D01*
X74492441Y-103618013D02*
X75692000Y-102418454D01*
X74492441Y-108030927D02*
X74492441Y-103618013D01*
X81534000Y-115072486D02*
X74492441Y-108030927D01*
X81534000Y-115824000D02*
X81534000Y-115072486D01*
D47*
X113922602Y-84139026D02*
X108143506Y-84139026D01*
X116332000Y-81729628D02*
X113922602Y-84139026D01*
X89662000Y-94488000D02*
X89154000Y-93980000D01*
X89154000Y-93980000D02*
X81788000Y-93980000D01*
X42418000Y-81066640D02*
X46250860Y-81066640D01*
X46250860Y-81066640D02*
X46672500Y-80645000D01*
X46672500Y-80645000D02*
X46672500Y-79795370D01*
X46672500Y-79795370D02*
X47042071Y-79425799D01*
X47042071Y-79425799D02*
X51948081Y-79425799D01*
X51948081Y-79425799D02*
X53798899Y-81276617D01*
X53798899Y-81276617D02*
X53798899Y-86691899D01*
X53798899Y-86691899D02*
X56705500Y-89598500D01*
X46631860Y-80685640D02*
X46672500Y-80645000D01*
X46672500Y-85643720D02*
X48214280Y-85643720D01*
X48214280Y-85643720D02*
X50546000Y-83312000D01*
X42418000Y-86065360D02*
X42418000Y-90130000D01*
X42418000Y-90130000D02*
X42712000Y-90424000D01*
X42712000Y-120450000D02*
X44144601Y-121882601D01*
X44144601Y-121882601D02*
X51980399Y-121882601D01*
X51980399Y-121882601D02*
X54610000Y-119253000D01*
X42712000Y-86041860D02*
X42354500Y-85684360D01*
D45*
X52067460Y-94488000D02*
X52067460Y-95290640D01*
X52067460Y-95290640D02*
X53423820Y-96647000D01*
X53423820Y-96647000D02*
X54118500Y-96647000D01*
D47*
X77597000Y-83217000D02*
X77597000Y-81487000D01*
X77597000Y-81487000D02*
X80130000Y-78954000D01*
D46*
X80010000Y-90631000D02*
X80010000Y-89076200D01*
X80010000Y-89076200D02*
X78150800Y-87217000D01*
X78150800Y-87217000D02*
X77597000Y-87217000D01*
X81280000Y-90631000D02*
X81280000Y-87344000D01*
X81280000Y-87344000D02*
X81153000Y-87217000D01*
D47*
X81153000Y-83217000D02*
X81153000Y-80431000D01*
X81153000Y-80431000D02*
X82630000Y-78954000D01*
X84709000Y-83217000D02*
X84709000Y-79375000D01*
X84709000Y-79375000D02*
X85130000Y-78954000D01*
D46*
X85090000Y-90631000D02*
X85090000Y-87598000D01*
X85090000Y-87598000D02*
X84709000Y-87217000D01*
X86360000Y-90631000D02*
X86360000Y-88872000D01*
X86360000Y-88872000D02*
X88015000Y-87217000D01*
X88015000Y-87217000D02*
X88265000Y-87217000D01*
D47*
X88265000Y-83217000D02*
X88265000Y-79589000D01*
X88265000Y-79589000D02*
X87630000Y-78954000D01*
X91821000Y-83217000D02*
X91821000Y-79455000D01*
X91821000Y-79455000D02*
X92322000Y-78954000D01*
D46*
X93720424Y-90631000D02*
X93720424Y-88866424D01*
X93720424Y-88866424D02*
X92071000Y-87217000D01*
X92071000Y-87217000D02*
X91821000Y-87217000D01*
X94990424Y-90631000D02*
X94990424Y-87603576D01*
X94990424Y-87603576D02*
X95377000Y-87217000D01*
D47*
X95377000Y-83217000D02*
X95377000Y-79509000D01*
X95377000Y-79509000D02*
X94822000Y-78954000D01*
X98933000Y-83217000D02*
X98933000Y-80565000D01*
X98933000Y-80565000D02*
X97322000Y-78954000D01*
D46*
X98800424Y-90631000D02*
X98800424Y-87349576D01*
X98800424Y-87349576D02*
X98933000Y-87217000D01*
X100070424Y-90631000D02*
X100070424Y-89076200D01*
X101929624Y-87217000D02*
X102489000Y-87217000D01*
X100070424Y-89076200D02*
X101929624Y-87217000D01*
D47*
X102489000Y-83217000D02*
X102489000Y-81621000D01*
X102489000Y-81621000D02*
X99822000Y-78954000D01*
X91180424Y-100631000D02*
X91180424Y-90631000D01*
X107912601Y-103624290D02*
X107912601Y-104588565D01*
X107912601Y-104588565D02*
X113947435Y-110623399D01*
X122116899Y-110623399D02*
X123634500Y-112141000D01*
X105239252Y-100631000D02*
X106546602Y-101938350D01*
X113947435Y-110623399D02*
X122116899Y-110623399D01*
X106546602Y-102258291D02*
X107912601Y-103624290D01*
X106546602Y-101938350D02*
X106546602Y-102258291D01*
X102610424Y-100631000D02*
X105239252Y-100631000D01*
X133350000Y-84836000D02*
X132033000Y-84836000D01*
X105792203Y-80386601D02*
X110581399Y-80386601D01*
X104348601Y-81830203D02*
X105792203Y-80386601D01*
X104348601Y-88892823D02*
X104348601Y-81830203D01*
X110581399Y-80386601D02*
X112014000Y-78954000D01*
X102610424Y-90631000D02*
X104348601Y-88892823D01*
X116058351Y-80386601D02*
X121788601Y-80386601D01*
X114625750Y-78954000D02*
X116058351Y-80386601D01*
X121788601Y-80386601D02*
X122428000Y-81026000D01*
X112014000Y-78954000D02*
X114625750Y-78954000D01*
X92450424Y-90631000D02*
X91180424Y-90631000D01*
X97530424Y-90631000D02*
X96260424Y-90631000D01*
X96260424Y-90631000D02*
X96260423Y-92490601D01*
X96260423Y-92490601D02*
X92450424Y-92490600D01*
X92450424Y-92490600D02*
X92450424Y-90631000D01*
X97530424Y-90631000D02*
X97530425Y-92490601D01*
X97530425Y-92490601D02*
X101340424Y-92490600D01*
X101340424Y-92490600D02*
X101340424Y-90631000D01*
X102610424Y-90631000D02*
X101340424Y-90631000D01*
X102610424Y-100631000D02*
X102610424Y-90631000D01*
X113456210Y-82939224D02*
X115409492Y-80985942D01*
X109434340Y-82939224D02*
X113456210Y-82939224D01*
X108799329Y-82304213D02*
X109434340Y-82939224D01*
X105796896Y-82200393D02*
X105900716Y-82304213D01*
X105900716Y-82304213D02*
X108799329Y-82304213D01*
X105231211Y-82200393D02*
X105796896Y-82200393D01*
D45*
X111506000Y-93912562D02*
X109652986Y-95765576D01*
X111506000Y-89009731D02*
X111506000Y-93912562D01*
X118472001Y-82043730D02*
X111506000Y-89009731D01*
X118472001Y-81679999D02*
X118472001Y-82043730D01*
X118472001Y-81679999D02*
X118472001Y-82582560D01*
X118872000Y-81280000D02*
X118472001Y-81679999D01*
X118472001Y-82582560D02*
X118872000Y-81280000D01*
X113677292Y-87377269D02*
X115003046Y-87377269D01*
X120592315Y-81788000D02*
X121158000Y-81788000D01*
X115003046Y-87377269D02*
X120592315Y-81788000D01*
X112522000Y-88532561D02*
X113677292Y-87377269D01*
X112522000Y-94996000D02*
X112522000Y-88532561D01*
X118618000Y-94234000D02*
X119017999Y-94633999D01*
X119017999Y-97935999D02*
X120904000Y-99822000D01*
X119017999Y-94633999D02*
X119017999Y-97935999D01*
X124246000Y-78954000D02*
X124246000Y-81748000D01*
X124246000Y-81748000D02*
X123698000Y-82296000D01*
D47*
X109021673Y-81412990D02*
X108184061Y-81412990D01*
X109760496Y-82151813D02*
X109021673Y-81412990D01*
X112956437Y-82151813D02*
X109760496Y-82151813D01*
X114329211Y-80779039D02*
X112956437Y-82151813D01*
X114329211Y-80101576D02*
X114329211Y-80779039D01*
D45*
X131801167Y-103110599D02*
X133590599Y-103110599D01*
X131003599Y-82317677D02*
X131003599Y-102313031D01*
X126746000Y-78954000D02*
X127695999Y-79903999D01*
X131003599Y-102313031D02*
X131801167Y-103110599D01*
X133590599Y-103110599D02*
X134620000Y-104140000D01*
X128589921Y-79903999D02*
X131003599Y-82317677D01*
X127695999Y-79903999D02*
X128589921Y-79903999D01*
X64332441Y-124009741D02*
X64332441Y-107962431D01*
X65786000Y-125463300D02*
X64332441Y-124009741D01*
X64332441Y-107962431D02*
X68091642Y-104203230D01*
X65786000Y-126682500D02*
X65786000Y-125463300D01*
D49*
X68091642Y-104203230D02*
X68091642Y-108060250D01*
X68091642Y-108060250D02*
X70231000Y-110199608D01*
X70231000Y-110199608D02*
X70231000Y-114427000D01*
D45*
X64698879Y-127977901D02*
X63951430Y-127230452D01*
X68326000Y-126834900D02*
X67182999Y-127977901D01*
X68326000Y-126682500D02*
X68326000Y-126834900D01*
X67182999Y-127977901D02*
X64698879Y-127977901D01*
X63951430Y-105803442D02*
X65551642Y-104203230D01*
X63951430Y-127230452D02*
X63951430Y-105803442D01*
X113045025Y-126174489D02*
X115421668Y-123797846D01*
X95077067Y-122173989D02*
X99077567Y-126174489D01*
X91282181Y-122173989D02*
X95077067Y-122173989D01*
X87281681Y-126174489D02*
X91282181Y-122173989D01*
X73953854Y-122936000D02*
X77090687Y-119799167D01*
X81762590Y-126174489D02*
X87281681Y-126174489D01*
X115421668Y-123797846D02*
X115421668Y-123375844D01*
X81762590Y-124022531D02*
X81762590Y-126174489D01*
X77539226Y-119799167D02*
X81762590Y-124022531D01*
X70866000Y-122936000D02*
X73953854Y-122936000D01*
X77090687Y-119799167D02*
X77539226Y-119799167D01*
X99077567Y-126174489D02*
X113045025Y-126174489D01*
X68091642Y-119443230D02*
X70866000Y-122217588D01*
X70866000Y-122217588D02*
X70866000Y-122936000D01*
X91440000Y-122555000D02*
X87439500Y-126555500D01*
X87439500Y-126555500D02*
X74054968Y-126555500D01*
X94919248Y-122555000D02*
X91440000Y-122555000D01*
X113202844Y-126555500D02*
X98919748Y-126555500D01*
X98919748Y-126555500D02*
X94919248Y-122555000D01*
X113202844Y-126555500D02*
X116840000Y-122918344D01*
X116840000Y-122918344D02*
X116840000Y-119380000D01*
X69557890Y-125387090D02*
X72886558Y-125387090D01*
X68326000Y-122936000D02*
X68326000Y-124155200D01*
X68326000Y-124155200D02*
X69557890Y-125387090D01*
X72886558Y-125387090D02*
X74054968Y-126555500D01*
X68326000Y-122936000D02*
X68326000Y-122783600D01*
X68326000Y-122783600D02*
X65551642Y-120009242D01*
X65551642Y-120009242D02*
X65551642Y-119443230D01*
X77206277Y-105146277D02*
X91440000Y-119380000D01*
X77206277Y-102984029D02*
X77206277Y-105146277D01*
X76018114Y-101682598D02*
X76371402Y-102035886D01*
X66230229Y-102984029D02*
X74587595Y-102984029D01*
X76371402Y-102035886D02*
X76371402Y-102149154D01*
X75365886Y-101682598D02*
X76018114Y-101682598D01*
X75012598Y-102559026D02*
X75012598Y-102035886D01*
X63798401Y-100552201D02*
X66230229Y-102984029D01*
X74587595Y-102984029D02*
X75012598Y-102559026D01*
X62865000Y-100076000D02*
X63341201Y-100552201D01*
X62547500Y-100076000D02*
X62865000Y-100076000D01*
X63341201Y-100552201D02*
X63798401Y-100552201D01*
X76371402Y-102149154D02*
X77206277Y-102984029D01*
X75012598Y-102035886D02*
X75365886Y-101682598D01*
X90410599Y-120409401D02*
X91440000Y-119380000D01*
X85598000Y-123190000D02*
X85598000Y-123037600D01*
X85598000Y-123037600D02*
X88226199Y-120409401D01*
X88226199Y-120409401D02*
X90410599Y-120409401D01*
X63509921Y-98993721D02*
X71158166Y-98993721D01*
X71158166Y-98993721D02*
X74333188Y-102168743D01*
X63322200Y-98806000D02*
X63509921Y-98993721D01*
X62547500Y-98806000D02*
X63322200Y-98806000D01*
X87839340Y-119380000D02*
X88900000Y-119380000D01*
X86809939Y-120409401D02*
X87839340Y-119380000D01*
X83058000Y-123037600D02*
X85686199Y-120409401D01*
X83058000Y-123190000D02*
X83058000Y-123037600D01*
X85686199Y-120409401D02*
X86809939Y-120409401D01*
X88150001Y-118212533D02*
X76391052Y-106453584D01*
X88150001Y-118630001D02*
X88150001Y-118212533D01*
X88900000Y-119380000D02*
X88150001Y-118630001D01*
X134806855Y-94765628D02*
X134327889Y-94286662D01*
X138062401Y-94599521D02*
X137896294Y-94765628D01*
X138062401Y-88634001D02*
X138062401Y-94599521D01*
X135128000Y-85852000D02*
X135280400Y-85852000D01*
X135280400Y-85852000D02*
X138062401Y-88634001D01*
X137896294Y-94765628D02*
X134806855Y-94765628D01*
X130048000Y-98044000D02*
X130048000Y-95758000D01*
X130048000Y-95758000D02*
X130302000Y-95504000D01*
D47*
X50546000Y-80772000D02*
X50698400Y-80772000D01*
X50698400Y-80772000D02*
X52044610Y-82118210D01*
X52044610Y-86639390D02*
X49085500Y-89598500D01*
X52044610Y-82118210D02*
X52044610Y-86639390D01*
D45*
X45212000Y-110450000D02*
X46161999Y-111399999D01*
X46161999Y-111399999D02*
X48813201Y-111399999D01*
X48813201Y-111399999D02*
X49713000Y-110500200D01*
X49713000Y-110500200D02*
X49713000Y-109572000D01*
X49063000Y-109572000D02*
X49063000Y-96775000D01*
X49063000Y-96775000D02*
X45212000Y-92924000D01*
X117049588Y-90251822D02*
X119925410Y-87376000D01*
X113665000Y-100457000D02*
X117049588Y-97072412D01*
X117049588Y-97072412D02*
X117049588Y-90251822D01*
X128949401Y-95611901D02*
X128333500Y-94996000D01*
X125970975Y-101472999D02*
X128466573Y-98977401D01*
X128596113Y-98977401D02*
X128949401Y-98624113D01*
X113665000Y-100457000D02*
X114680999Y-101472999D01*
X128949401Y-98624113D02*
X128949401Y-95611901D01*
X114680999Y-101472999D02*
X125970975Y-101472999D01*
X128466573Y-98977401D02*
X128596113Y-98977401D01*
X89929401Y-99327401D02*
X85768043Y-95166043D01*
X85768043Y-95166043D02*
X74361139Y-95166043D01*
X74361139Y-95166043D02*
X73976231Y-95550951D01*
X73976231Y-95550951D02*
X71728329Y-95550951D01*
X71728329Y-95550951D02*
X71628000Y-95450622D01*
X71628000Y-95450622D02*
X71628000Y-88646000D01*
X89929401Y-108190599D02*
X89929401Y-99327401D01*
X86106000Y-112014000D02*
X89929401Y-108190599D01*
X113482285Y-85067101D02*
X114183749Y-85067101D01*
X106426000Y-89408000D02*
X109141386Y-89408000D01*
X109141386Y-89408000D02*
X113482285Y-85067101D01*
X107511824Y-101538543D02*
X105147109Y-99173828D01*
X110730599Y-103110599D02*
X108763939Y-103110599D01*
X105147109Y-99173828D02*
X105147109Y-90187783D01*
X105147109Y-90187783D02*
X105926890Y-89408000D01*
X111760000Y-104140000D02*
X110730599Y-103110599D01*
X107511824Y-101858483D02*
X107511824Y-101538543D01*
X108763939Y-103110599D02*
X107511824Y-101858483D01*
X105926890Y-89408000D02*
X106426000Y-89408000D01*
X92950599Y-118350599D02*
X93980000Y-119380000D01*
X77710599Y-104634113D02*
X91427085Y-118350599D01*
X76752413Y-101991335D02*
X77710599Y-102949521D01*
X76752413Y-101274883D02*
X76752413Y-101991335D01*
X77710599Y-102949521D02*
X77710599Y-104634113D01*
X72852280Y-97374750D02*
X76752413Y-101274883D01*
X91427085Y-118350599D02*
X92950599Y-118350599D01*
X72852280Y-96771500D02*
X72852280Y-97374750D01*
X67580500Y-97980500D02*
X72246530Y-97980500D01*
X72246530Y-97980500D02*
X72852280Y-97374750D01*
X67580500Y-95821500D02*
X69850000Y-95821500D01*
D46*
X81280000Y-102616000D02*
X81280000Y-100631000D01*
X86360000Y-102616000D02*
X86360000Y-100631000D01*
X81280000Y-104140000D02*
X80010000Y-102870000D01*
X80010000Y-102870000D02*
X80010000Y-100631000D01*
X82550000Y-102870000D02*
X82550000Y-100631000D01*
X83820000Y-104140000D02*
X82550000Y-102870000D01*
X86360000Y-104140000D02*
X85090000Y-102870000D01*
X85090000Y-102870000D02*
X85090000Y-100631000D01*
X88900000Y-104140000D02*
X88900000Y-102826000D01*
X88900000Y-102826000D02*
X87630000Y-101556000D01*
X87630000Y-101556000D02*
X87630000Y-100631000D01*
D45*
X94932500Y-102679500D02*
X94932500Y-100688924D01*
X94932500Y-100688924D02*
X94990424Y-100631000D01*
X99822000Y-102616000D02*
X99822000Y-100879424D01*
X99822000Y-100879424D02*
X100070424Y-100631000D01*
D46*
X93726000Y-100636576D02*
X93720424Y-100631000D01*
X91440000Y-104140000D02*
X92189999Y-103390001D01*
X92189999Y-103390001D02*
X92189999Y-103086425D01*
X92189999Y-103086425D02*
X93720424Y-101556000D01*
X93720424Y-101556000D02*
X93720424Y-100631000D01*
X96260424Y-102432274D02*
X96260424Y-100631000D01*
X94552698Y-104140000D02*
X96260424Y-102432274D01*
X93980000Y-104140000D02*
X94552698Y-104140000D01*
X96520000Y-104140000D02*
X97269999Y-103390001D01*
X97269999Y-103390001D02*
X97269999Y-103086425D01*
X97269999Y-103086425D02*
X98800424Y-101556000D01*
X98800424Y-101556000D02*
X98800424Y-100631000D01*
X101340424Y-102185800D02*
X101340424Y-100631000D01*
X100136223Y-103390001D02*
X101340424Y-102185800D01*
X99809999Y-103390001D02*
X100136223Y-103390001D01*
X99060000Y-104140000D02*
X99809999Y-103390001D01*
D45*
X137160000Y-100076000D02*
X137160000Y-98933000D01*
X137160000Y-98933000D02*
X137033000Y-98806000D01*
X137033000Y-96426000D02*
X137033000Y-98806000D01*
X128270000Y-111252000D02*
X128270000Y-112522000D01*
X128270000Y-112522000D02*
X126238000Y-114554000D01*
X108470001Y-103390001D02*
X109220000Y-104140000D01*
X105147109Y-85686901D02*
X105147109Y-89648953D01*
X104766098Y-99331647D02*
X107130813Y-101696362D01*
X107130813Y-102016303D02*
X108470001Y-103355491D01*
X107130813Y-101696362D02*
X107130813Y-102016303D01*
X105147109Y-89648953D02*
X104766098Y-90029964D01*
X105926890Y-84907120D02*
X105147109Y-85686901D01*
X106426000Y-84907120D02*
X105926890Y-84907120D01*
X108470001Y-103355491D02*
X108470001Y-103390001D01*
X104766098Y-90029964D02*
X104766098Y-99331647D01*
X64880500Y-95821500D02*
X62855000Y-95821500D01*
X62855000Y-95821500D02*
X62826500Y-95793000D01*
X54118500Y-98742500D02*
X54218500Y-98742500D01*
X56276500Y-95793000D02*
X56426500Y-95793000D01*
X54218500Y-98742500D02*
X55346599Y-97614401D01*
X55346599Y-97614401D02*
X55346599Y-96722901D01*
X55346599Y-96722901D02*
X56276500Y-95793000D01*
X51013000Y-115472000D02*
X51013000Y-114543800D01*
X54947099Y-106656901D02*
X55876500Y-105727500D01*
X51013000Y-114543800D02*
X54947099Y-110609701D01*
X54947099Y-110609701D02*
X54947099Y-106656901D01*
X55876500Y-105727500D02*
X55976500Y-105727500D01*
X56476899Y-100812599D02*
X56992521Y-100812599D01*
X56992521Y-100812599D02*
X57048401Y-100868479D01*
X56197500Y-100076000D02*
X56197500Y-100533200D01*
X56197500Y-100533200D02*
X56476899Y-100812599D01*
X57048401Y-100868479D02*
X57048401Y-104755599D01*
X57048401Y-104755599D02*
X56076500Y-105727500D01*
X56076500Y-105727500D02*
X55976500Y-105727500D01*
X56515000Y-100076000D02*
X56197500Y-100076000D01*
X50363000Y-115472000D02*
X50363000Y-116400200D01*
X50363000Y-116400200D02*
X50439201Y-116476401D01*
X50439201Y-116476401D02*
X51461521Y-116476401D01*
X51461521Y-116476401D02*
X55976500Y-111961422D01*
X55976500Y-111961422D02*
X55976500Y-108013500D01*
X56515000Y-98806000D02*
X56197500Y-98806000D01*
X57429412Y-99720412D02*
X56515000Y-98806000D01*
X57429412Y-106660588D02*
X57429412Y-99720412D01*
X56076500Y-108013500D02*
X57429412Y-106660588D01*
X55976500Y-108013500D02*
X56076500Y-108013500D01*
D49*
X73171642Y-104203230D02*
X69723000Y-107651872D01*
X69723000Y-107651872D02*
X69723000Y-108648500D01*
D45*
X83070001Y-115836001D02*
X75711642Y-108477642D01*
X75711642Y-108477642D02*
X75711642Y-104203230D01*
X83820000Y-119380000D02*
X83070001Y-118630001D01*
X83070001Y-118630001D02*
X83070001Y-115836001D01*
X109079575Y-102348577D02*
X115048577Y-102348577D01*
X115048577Y-102348577D02*
X116840000Y-104140000D01*
X108902500Y-102171502D02*
X109079575Y-102348577D01*
X108902500Y-97384870D02*
X108902500Y-102171502D01*
X106426000Y-95407480D02*
X106925110Y-95407480D01*
X106925110Y-95407480D02*
X108902500Y-97384870D01*
X112889588Y-102729588D02*
X114300000Y-104140000D01*
X108921758Y-102729588D02*
X112889588Y-102729588D01*
X107892835Y-99076495D02*
X107892835Y-101700665D01*
X106426000Y-97609660D02*
X107892835Y-99076495D01*
X107892835Y-101700665D02*
X108921758Y-102729588D01*
X106426000Y-96906080D02*
X106426000Y-97609660D01*
X122428000Y-96906080D02*
X124581920Y-96906080D01*
X124581920Y-96906080D02*
X124714000Y-96774000D01*
X121928890Y-93906340D02*
X120750939Y-95084291D01*
X120750939Y-96365407D02*
X120166490Y-96949856D01*
X122428000Y-93906340D02*
X121928890Y-93906340D01*
X120750939Y-95084291D02*
X120750939Y-96365407D01*
X98044000Y-122008000D02*
X98044000Y-120904000D01*
X98044000Y-120904000D02*
X96520000Y-119380000D01*
D47*
X112532789Y-81269211D02*
X110184146Y-81269211D01*
X113030000Y-80772000D02*
X112532789Y-81269211D01*
D49*
G36*
X133445169Y-104923515D02*
X133834436Y-105313461D01*
X134343298Y-105524759D01*
X134894285Y-105525240D01*
X134912801Y-105517589D01*
X134912801Y-107090121D01*
X134453984Y-107548938D01*
X134224985Y-107643558D01*
X133933581Y-107934454D01*
X133775680Y-108314723D01*
X133775321Y-108726471D01*
X133932558Y-109107015D01*
X134223454Y-109398419D01*
X134603723Y-109556320D01*
X135015471Y-109556679D01*
X135396015Y-109399442D01*
X135687419Y-109108546D01*
X135783201Y-108877877D01*
X136517140Y-108143938D01*
X136720863Y-107839045D01*
X136792401Y-107479399D01*
X136792401Y-105487015D01*
X136883298Y-105524759D01*
X137434285Y-105525240D01*
X137745000Y-105396856D01*
X137745000Y-112660231D01*
X137366777Y-112503180D01*
X136955029Y-112502821D01*
X136574485Y-112660058D01*
X136283081Y-112950954D01*
X136125180Y-113331223D01*
X136124821Y-113742971D01*
X136282058Y-114123515D01*
X136572954Y-114414919D01*
X136953223Y-114572820D01*
X137364971Y-114573179D01*
X137745000Y-114416155D01*
X137745000Y-118123258D01*
X137436702Y-117995241D01*
X136885715Y-117994760D01*
X136376485Y-118205169D01*
X135986539Y-118594436D01*
X135890024Y-118826870D01*
X135794831Y-118596485D01*
X135405564Y-118206539D01*
X134896702Y-117995241D01*
X134345715Y-117994760D01*
X133836485Y-118205169D01*
X133446539Y-118594436D01*
X133350024Y-118826870D01*
X133254831Y-118596485D01*
X132865564Y-118206539D01*
X132356702Y-117995241D01*
X132024029Y-117994951D01*
X131474539Y-117445461D01*
X131169646Y-117241738D01*
X130810000Y-117170200D01*
X125103278Y-117170200D01*
X122692049Y-114758971D01*
X125202821Y-114758971D01*
X125360058Y-115139515D01*
X125650954Y-115430919D01*
X126031223Y-115588820D01*
X126442971Y-115589179D01*
X126823515Y-115431942D01*
X127114919Y-115141046D01*
X127272820Y-114760777D01*
X127272994Y-114560716D01*
X128790855Y-113042855D01*
X128950530Y-112803885D01*
X129006600Y-112522000D01*
X129006600Y-111979120D01*
X129146919Y-111839046D01*
X129304820Y-111458777D01*
X129305179Y-111047029D01*
X129147942Y-110666485D01*
X128857046Y-110375081D01*
X128476777Y-110217180D01*
X128065029Y-110216821D01*
X127684485Y-110374058D01*
X127393081Y-110664954D01*
X127235180Y-111045223D01*
X127234821Y-111456971D01*
X127392058Y-111837515D01*
X127533400Y-111979104D01*
X127533400Y-112216890D01*
X126231296Y-113518994D01*
X126033029Y-113518821D01*
X125652485Y-113676058D01*
X125361081Y-113966954D01*
X125203180Y-114347223D01*
X125202821Y-114758971D01*
X122692049Y-114758971D01*
X119082562Y-111149484D01*
X118987942Y-110920485D01*
X118697046Y-110629081D01*
X118316777Y-110471180D01*
X117905029Y-110470821D01*
X117524485Y-110628058D01*
X117233081Y-110918954D01*
X117075180Y-111299223D01*
X117074821Y-111710971D01*
X117232058Y-112091515D01*
X117522954Y-112382919D01*
X117753623Y-112478701D01*
X120195026Y-114920104D01*
X120176896Y-114938202D01*
X119021684Y-114938202D01*
X118739799Y-114994272D01*
X118582463Y-115099401D01*
X118500829Y-115153947D01*
X115266742Y-118388034D01*
X115085564Y-118206539D01*
X114576702Y-117995241D01*
X114186809Y-117994901D01*
X115576704Y-116605006D01*
X115774971Y-116605179D01*
X116155515Y-116447942D01*
X116446919Y-116157046D01*
X116604820Y-115776777D01*
X116605179Y-115365029D01*
X116447942Y-114984485D01*
X116157046Y-114693081D01*
X115776777Y-114535180D01*
X115365029Y-114534821D01*
X114984485Y-114692058D01*
X114693081Y-114982954D01*
X114535180Y-115363223D01*
X114535006Y-115563284D01*
X112749744Y-117348546D01*
X112590069Y-117587516D01*
X112533999Y-117869401D01*
X112533999Y-118201737D01*
X112036702Y-117995241D01*
X111485715Y-117994760D01*
X110976485Y-118205169D01*
X110586539Y-118594436D01*
X110490024Y-118826870D01*
X110394831Y-118596485D01*
X110005564Y-118206539D01*
X109496702Y-117995241D01*
X108945715Y-117994760D01*
X108436485Y-118205169D01*
X108046539Y-118594436D01*
X107950024Y-118826870D01*
X107854831Y-118596485D01*
X107465564Y-118206539D01*
X106956702Y-117995241D01*
X106405715Y-117994760D01*
X105896485Y-118205169D01*
X105506539Y-118594436D01*
X105410024Y-118826870D01*
X105314831Y-118596485D01*
X104925564Y-118206539D01*
X104416702Y-117995241D01*
X103865715Y-117994760D01*
X103356485Y-118205169D01*
X102966539Y-118594436D01*
X102870024Y-118826870D01*
X102774831Y-118596485D01*
X102385564Y-118206539D01*
X101876702Y-117995241D01*
X101325715Y-117994760D01*
X100816485Y-118205169D01*
X100426539Y-118594436D01*
X100330024Y-118826870D01*
X100234831Y-118596485D01*
X99845564Y-118206539D01*
X99767734Y-118174221D01*
X99740530Y-118037455D01*
X99580855Y-117798485D01*
X96350841Y-114568471D01*
X102914321Y-114568471D01*
X103071558Y-114949015D01*
X103362454Y-115240419D01*
X103742723Y-115398320D01*
X104154471Y-115398679D01*
X104535015Y-115241442D01*
X104826419Y-114950546D01*
X104936359Y-114685779D01*
X108937129Y-114685779D01*
X109094366Y-115066323D01*
X109385262Y-115357727D01*
X109765531Y-115515628D01*
X110177279Y-115515987D01*
X110557823Y-115358750D01*
X110849227Y-115067854D01*
X111007128Y-114687585D01*
X111007487Y-114275837D01*
X110850250Y-113895293D01*
X110559354Y-113603889D01*
X110179085Y-113445988D01*
X109767337Y-113445629D01*
X109386793Y-113602866D01*
X109095389Y-113893762D01*
X108937488Y-114274031D01*
X108937129Y-114685779D01*
X104936359Y-114685779D01*
X104984320Y-114570277D01*
X104984679Y-114158529D01*
X104827442Y-113777985D01*
X104536546Y-113486581D01*
X104156277Y-113328680D01*
X103744529Y-113328321D01*
X103363985Y-113485558D01*
X103072581Y-113776454D01*
X102914680Y-114156723D01*
X102914321Y-114568471D01*
X96350841Y-114568471D01*
X91969341Y-110186971D01*
X104120821Y-110186971D01*
X104278058Y-110567515D01*
X104568954Y-110858919D01*
X104949223Y-111016820D01*
X105360971Y-111017179D01*
X105741515Y-110859942D01*
X106032919Y-110569046D01*
X106190820Y-110188777D01*
X106190994Y-109988716D01*
X106731110Y-109448600D01*
X108492880Y-109448600D01*
X108632954Y-109588919D01*
X109013223Y-109746820D01*
X109424971Y-109747179D01*
X109805515Y-109589942D01*
X110096919Y-109299046D01*
X110254820Y-108918777D01*
X110254821Y-108916971D01*
X121900821Y-108916971D01*
X122058058Y-109297515D01*
X122348954Y-109588919D01*
X122729223Y-109746820D01*
X123140971Y-109747179D01*
X123521515Y-109589942D01*
X123812919Y-109299046D01*
X123970820Y-108918777D01*
X123971179Y-108507029D01*
X123813942Y-108126485D01*
X123523046Y-107835081D01*
X123142777Y-107677180D01*
X122731029Y-107676821D01*
X122350485Y-107834058D01*
X122059081Y-108124954D01*
X121901180Y-108505223D01*
X121900821Y-108916971D01*
X110254821Y-108916971D01*
X110255179Y-108507029D01*
X110097942Y-108126485D01*
X109807046Y-107835081D01*
X109426777Y-107677180D01*
X109015029Y-107676821D01*
X108634485Y-107834058D01*
X108492896Y-107975400D01*
X106426000Y-107975400D01*
X106144115Y-108031470D01*
X105905145Y-108191145D01*
X105149296Y-108946994D01*
X104951029Y-108946821D01*
X104570485Y-109104058D01*
X104279081Y-109394954D01*
X104121180Y-109775223D01*
X104120821Y-110186971D01*
X91969341Y-110186971D01*
X91147199Y-109364829D01*
X91147199Y-108916971D01*
X102025321Y-108916971D01*
X102182558Y-109297515D01*
X102473454Y-109588919D01*
X102853723Y-109746820D01*
X103265471Y-109747179D01*
X103646015Y-109589942D01*
X103937419Y-109299046D01*
X104095320Y-108918777D01*
X104095679Y-108507029D01*
X103938442Y-108126485D01*
X103647546Y-107835081D01*
X103267277Y-107677180D01*
X102855529Y-107676821D01*
X102474985Y-107834058D01*
X102183581Y-108124954D01*
X102025680Y-108505223D01*
X102025321Y-108916971D01*
X91147199Y-108916971D01*
X91147199Y-105518074D01*
X91163298Y-105524759D01*
X91714285Y-105525240D01*
X92223515Y-105314831D01*
X92613461Y-104925564D01*
X92709976Y-104693130D01*
X92805169Y-104923515D01*
X93194436Y-105313461D01*
X93703298Y-105524759D01*
X94254285Y-105525240D01*
X94763515Y-105314831D01*
X95153461Y-104925564D01*
X95249976Y-104693130D01*
X95345169Y-104923515D01*
X95734436Y-105313461D01*
X96243298Y-105524759D01*
X96794285Y-105525240D01*
X97303515Y-105314831D01*
X97693461Y-104925564D01*
X97789976Y-104693130D01*
X97885169Y-104923515D01*
X98274436Y-105313461D01*
X98783298Y-105524759D01*
X99334285Y-105525240D01*
X99843515Y-105314831D01*
X100233461Y-104925564D01*
X100329976Y-104693130D01*
X100425169Y-104923515D01*
X100814436Y-105313461D01*
X101323298Y-105524759D01*
X101874285Y-105525240D01*
X102383515Y-105314831D01*
X102773461Y-104925564D01*
X102869976Y-104693130D01*
X102965169Y-104923515D01*
X103354436Y-105313461D01*
X103863298Y-105524759D01*
X104414285Y-105525240D01*
X104923515Y-105314831D01*
X105313461Y-104925564D01*
X105409976Y-104693130D01*
X105505169Y-104923515D01*
X105894436Y-105313461D01*
X106403298Y-105524759D01*
X106954285Y-105525240D01*
X107463515Y-105314831D01*
X107853461Y-104925564D01*
X107949976Y-104693130D01*
X108045169Y-104923515D01*
X108434436Y-105313461D01*
X108943298Y-105524759D01*
X109494285Y-105525240D01*
X110003515Y-105314831D01*
X110393461Y-104925564D01*
X110489976Y-104693130D01*
X110585169Y-104923515D01*
X110974436Y-105313461D01*
X111483298Y-105524759D01*
X112034285Y-105525240D01*
X112543515Y-105314831D01*
X112933461Y-104925564D01*
X113029976Y-104693130D01*
X113125169Y-104923515D01*
X113514436Y-105313461D01*
X114023298Y-105524759D01*
X114574285Y-105525240D01*
X115083515Y-105314831D01*
X115473461Y-104925564D01*
X115569976Y-104693130D01*
X115665169Y-104923515D01*
X116054436Y-105313461D01*
X116563298Y-105524759D01*
X117114285Y-105525240D01*
X117623515Y-105314831D01*
X118013461Y-104925564D01*
X118109976Y-104693130D01*
X118205169Y-104923515D01*
X118594436Y-105313461D01*
X119103298Y-105524759D01*
X119654285Y-105525240D01*
X120163515Y-105314831D01*
X120553461Y-104925564D01*
X120649976Y-104693130D01*
X120745169Y-104923515D01*
X121134436Y-105313461D01*
X121643298Y-105524759D01*
X122194285Y-105525240D01*
X122703515Y-105314831D01*
X123093461Y-104925564D01*
X123189976Y-104693130D01*
X123285169Y-104923515D01*
X123674436Y-105313461D01*
X124183298Y-105524759D01*
X124734285Y-105525240D01*
X125243515Y-105314831D01*
X125633461Y-104925564D01*
X125729976Y-104693130D01*
X125825169Y-104923515D01*
X126214436Y-105313461D01*
X126723298Y-105524759D01*
X127274285Y-105525240D01*
X127783515Y-105314831D01*
X128173461Y-104925564D01*
X128269976Y-104693130D01*
X128365169Y-104923515D01*
X128754436Y-105313461D01*
X129263298Y-105524759D01*
X129814285Y-105525240D01*
X130323515Y-105314831D01*
X130713461Y-104925564D01*
X130809976Y-104693130D01*
X130905169Y-104923515D01*
X131294436Y-105313461D01*
X131803298Y-105524759D01*
X132354285Y-105525240D01*
X132863515Y-105314831D01*
X133253461Y-104925564D01*
X133349976Y-104693130D01*
X133445169Y-104923515D01*
X133445169Y-104923515D01*
G37*
X133445169Y-104923515D02*
X133834436Y-105313461D01*
X134343298Y-105524759D01*
X134894285Y-105525240D01*
X134912801Y-105517589D01*
X134912801Y-107090121D01*
X134453984Y-107548938D01*
X134224985Y-107643558D01*
X133933581Y-107934454D01*
X133775680Y-108314723D01*
X133775321Y-108726471D01*
X133932558Y-109107015D01*
X134223454Y-109398419D01*
X134603723Y-109556320D01*
X135015471Y-109556679D01*
X135396015Y-109399442D01*
X135687419Y-109108546D01*
X135783201Y-108877877D01*
X136517140Y-108143938D01*
X136720863Y-107839045D01*
X136792401Y-107479399D01*
X136792401Y-105487015D01*
X136883298Y-105524759D01*
X137434285Y-105525240D01*
X137745000Y-105396856D01*
X137745000Y-112660231D01*
X137366777Y-112503180D01*
X136955029Y-112502821D01*
X136574485Y-112660058D01*
X136283081Y-112950954D01*
X136125180Y-113331223D01*
X136124821Y-113742971D01*
X136282058Y-114123515D01*
X136572954Y-114414919D01*
X136953223Y-114572820D01*
X137364971Y-114573179D01*
X137745000Y-114416155D01*
X137745000Y-118123258D01*
X137436702Y-117995241D01*
X136885715Y-117994760D01*
X136376485Y-118205169D01*
X135986539Y-118594436D01*
X135890024Y-118826870D01*
X135794831Y-118596485D01*
X135405564Y-118206539D01*
X134896702Y-117995241D01*
X134345715Y-117994760D01*
X133836485Y-118205169D01*
X133446539Y-118594436D01*
X133350024Y-118826870D01*
X133254831Y-118596485D01*
X132865564Y-118206539D01*
X132356702Y-117995241D01*
X132024029Y-117994951D01*
X131474539Y-117445461D01*
X131169646Y-117241738D01*
X130810000Y-117170200D01*
X125103278Y-117170200D01*
X122692049Y-114758971D01*
X125202821Y-114758971D01*
X125360058Y-115139515D01*
X125650954Y-115430919D01*
X126031223Y-115588820D01*
X126442971Y-115589179D01*
X126823515Y-115431942D01*
X127114919Y-115141046D01*
X127272820Y-114760777D01*
X127272994Y-114560716D01*
X128790855Y-113042855D01*
X128950530Y-112803885D01*
X129006600Y-112522000D01*
X129006600Y-111979120D01*
X129146919Y-111839046D01*
X129304820Y-111458777D01*
X129305179Y-111047029D01*
X129147942Y-110666485D01*
X128857046Y-110375081D01*
X128476777Y-110217180D01*
X128065029Y-110216821D01*
X127684485Y-110374058D01*
X127393081Y-110664954D01*
X127235180Y-111045223D01*
X127234821Y-111456971D01*
X127392058Y-111837515D01*
X127533400Y-111979104D01*
X127533400Y-112216890D01*
X126231296Y-113518994D01*
X126033029Y-113518821D01*
X125652485Y-113676058D01*
X125361081Y-113966954D01*
X125203180Y-114347223D01*
X125202821Y-114758971D01*
X122692049Y-114758971D01*
X119082562Y-111149484D01*
X118987942Y-110920485D01*
X118697046Y-110629081D01*
X118316777Y-110471180D01*
X117905029Y-110470821D01*
X117524485Y-110628058D01*
X117233081Y-110918954D01*
X117075180Y-111299223D01*
X117074821Y-111710971D01*
X117232058Y-112091515D01*
X117522954Y-112382919D01*
X117753623Y-112478701D01*
X120195026Y-114920104D01*
X120176896Y-114938202D01*
X119021684Y-114938202D01*
X118739799Y-114994272D01*
X118582463Y-115099401D01*
X118500829Y-115153947D01*
X115266742Y-118388034D01*
X115085564Y-118206539D01*
X114576702Y-117995241D01*
X114186809Y-117994901D01*
X115576704Y-116605006D01*
X115774971Y-116605179D01*
X116155515Y-116447942D01*
X116446919Y-116157046D01*
X116604820Y-115776777D01*
X116605179Y-115365029D01*
X116447942Y-114984485D01*
X116157046Y-114693081D01*
X115776777Y-114535180D01*
X115365029Y-114534821D01*
X114984485Y-114692058D01*
X114693081Y-114982954D01*
X114535180Y-115363223D01*
X114535006Y-115563284D01*
X112749744Y-117348546D01*
X112590069Y-117587516D01*
X112533999Y-117869401D01*
X112533999Y-118201737D01*
X112036702Y-117995241D01*
X111485715Y-117994760D01*
X110976485Y-118205169D01*
X110586539Y-118594436D01*
X110490024Y-118826870D01*
X110394831Y-118596485D01*
X110005564Y-118206539D01*
X109496702Y-117995241D01*
X108945715Y-117994760D01*
X108436485Y-118205169D01*
X108046539Y-118594436D01*
X107950024Y-118826870D01*
X107854831Y-118596485D01*
X107465564Y-118206539D01*
X106956702Y-117995241D01*
X106405715Y-117994760D01*
X105896485Y-118205169D01*
X105506539Y-118594436D01*
X105410024Y-118826870D01*
X105314831Y-118596485D01*
X104925564Y-118206539D01*
X104416702Y-117995241D01*
X103865715Y-117994760D01*
X103356485Y-118205169D01*
X102966539Y-118594436D01*
X102870024Y-118826870D01*
X102774831Y-118596485D01*
X102385564Y-118206539D01*
X101876702Y-117995241D01*
X101325715Y-117994760D01*
X100816485Y-118205169D01*
X100426539Y-118594436D01*
X100330024Y-118826870D01*
X100234831Y-118596485D01*
X99845564Y-118206539D01*
X99767734Y-118174221D01*
X99740530Y-118037455D01*
X99580855Y-117798485D01*
X96350841Y-114568471D01*
X102914321Y-114568471D01*
X103071558Y-114949015D01*
X103362454Y-115240419D01*
X103742723Y-115398320D01*
X104154471Y-115398679D01*
X104535015Y-115241442D01*
X104826419Y-114950546D01*
X104936359Y-114685779D01*
X108937129Y-114685779D01*
X109094366Y-115066323D01*
X109385262Y-115357727D01*
X109765531Y-115515628D01*
X110177279Y-115515987D01*
X110557823Y-115358750D01*
X110849227Y-115067854D01*
X111007128Y-114687585D01*
X111007487Y-114275837D01*
X110850250Y-113895293D01*
X110559354Y-113603889D01*
X110179085Y-113445988D01*
X109767337Y-113445629D01*
X109386793Y-113602866D01*
X109095389Y-113893762D01*
X108937488Y-114274031D01*
X108937129Y-114685779D01*
X104936359Y-114685779D01*
X104984320Y-114570277D01*
X104984679Y-114158529D01*
X104827442Y-113777985D01*
X104536546Y-113486581D01*
X104156277Y-113328680D01*
X103744529Y-113328321D01*
X103363985Y-113485558D01*
X103072581Y-113776454D01*
X102914680Y-114156723D01*
X102914321Y-114568471D01*
X96350841Y-114568471D01*
X91969341Y-110186971D01*
X104120821Y-110186971D01*
X104278058Y-110567515D01*
X104568954Y-110858919D01*
X104949223Y-111016820D01*
X105360971Y-111017179D01*
X105741515Y-110859942D01*
X106032919Y-110569046D01*
X106190820Y-110188777D01*
X106190994Y-109988716D01*
X106731110Y-109448600D01*
X108492880Y-109448600D01*
X108632954Y-109588919D01*
X109013223Y-109746820D01*
X109424971Y-109747179D01*
X109805515Y-109589942D01*
X110096919Y-109299046D01*
X110254820Y-108918777D01*
X110254821Y-108916971D01*
X121900821Y-108916971D01*
X122058058Y-109297515D01*
X122348954Y-109588919D01*
X122729223Y-109746820D01*
X123140971Y-109747179D01*
X123521515Y-109589942D01*
X123812919Y-109299046D01*
X123970820Y-108918777D01*
X123971179Y-108507029D01*
X123813942Y-108126485D01*
X123523046Y-107835081D01*
X123142777Y-107677180D01*
X122731029Y-107676821D01*
X122350485Y-107834058D01*
X122059081Y-108124954D01*
X121901180Y-108505223D01*
X121900821Y-108916971D01*
X110254821Y-108916971D01*
X110255179Y-108507029D01*
X110097942Y-108126485D01*
X109807046Y-107835081D01*
X109426777Y-107677180D01*
X109015029Y-107676821D01*
X108634485Y-107834058D01*
X108492896Y-107975400D01*
X106426000Y-107975400D01*
X106144115Y-108031470D01*
X105905145Y-108191145D01*
X105149296Y-108946994D01*
X104951029Y-108946821D01*
X104570485Y-109104058D01*
X104279081Y-109394954D01*
X104121180Y-109775223D01*
X104120821Y-110186971D01*
X91969341Y-110186971D01*
X91147199Y-109364829D01*
X91147199Y-108916971D01*
X102025321Y-108916971D01*
X102182558Y-109297515D01*
X102473454Y-109588919D01*
X102853723Y-109746820D01*
X103265471Y-109747179D01*
X103646015Y-109589942D01*
X103937419Y-109299046D01*
X104095320Y-108918777D01*
X104095679Y-108507029D01*
X103938442Y-108126485D01*
X103647546Y-107835081D01*
X103267277Y-107677180D01*
X102855529Y-107676821D01*
X102474985Y-107834058D01*
X102183581Y-108124954D01*
X102025680Y-108505223D01*
X102025321Y-108916971D01*
X91147199Y-108916971D01*
X91147199Y-105518074D01*
X91163298Y-105524759D01*
X91714285Y-105525240D01*
X92223515Y-105314831D01*
X92613461Y-104925564D01*
X92709976Y-104693130D01*
X92805169Y-104923515D01*
X93194436Y-105313461D01*
X93703298Y-105524759D01*
X94254285Y-105525240D01*
X94763515Y-105314831D01*
X95153461Y-104925564D01*
X95249976Y-104693130D01*
X95345169Y-104923515D01*
X95734436Y-105313461D01*
X96243298Y-105524759D01*
X96794285Y-105525240D01*
X97303515Y-105314831D01*
X97693461Y-104925564D01*
X97789976Y-104693130D01*
X97885169Y-104923515D01*
X98274436Y-105313461D01*
X98783298Y-105524759D01*
X99334285Y-105525240D01*
X99843515Y-105314831D01*
X100233461Y-104925564D01*
X100329976Y-104693130D01*
X100425169Y-104923515D01*
X100814436Y-105313461D01*
X101323298Y-105524759D01*
X101874285Y-105525240D01*
X102383515Y-105314831D01*
X102773461Y-104925564D01*
X102869976Y-104693130D01*
X102965169Y-104923515D01*
X103354436Y-105313461D01*
X103863298Y-105524759D01*
X104414285Y-105525240D01*
X104923515Y-105314831D01*
X105313461Y-104925564D01*
X105409976Y-104693130D01*
X105505169Y-104923515D01*
X105894436Y-105313461D01*
X106403298Y-105524759D01*
X106954285Y-105525240D01*
X107463515Y-105314831D01*
X107853461Y-104925564D01*
X107949976Y-104693130D01*
X108045169Y-104923515D01*
X108434436Y-105313461D01*
X108943298Y-105524759D01*
X109494285Y-105525240D01*
X110003515Y-105314831D01*
X110393461Y-104925564D01*
X110489976Y-104693130D01*
X110585169Y-104923515D01*
X110974436Y-105313461D01*
X111483298Y-105524759D01*
X112034285Y-105525240D01*
X112543515Y-105314831D01*
X112933461Y-104925564D01*
X113029976Y-104693130D01*
X113125169Y-104923515D01*
X113514436Y-105313461D01*
X114023298Y-105524759D01*
X114574285Y-105525240D01*
X115083515Y-105314831D01*
X115473461Y-104925564D01*
X115569976Y-104693130D01*
X115665169Y-104923515D01*
X116054436Y-105313461D01*
X116563298Y-105524759D01*
X117114285Y-105525240D01*
X117623515Y-105314831D01*
X118013461Y-104925564D01*
X118109976Y-104693130D01*
X118205169Y-104923515D01*
X118594436Y-105313461D01*
X119103298Y-105524759D01*
X119654285Y-105525240D01*
X120163515Y-105314831D01*
X120553461Y-104925564D01*
X120649976Y-104693130D01*
X120745169Y-104923515D01*
X121134436Y-105313461D01*
X121643298Y-105524759D01*
X122194285Y-105525240D01*
X122703515Y-105314831D01*
X123093461Y-104925564D01*
X123189976Y-104693130D01*
X123285169Y-104923515D01*
X123674436Y-105313461D01*
X124183298Y-105524759D01*
X124734285Y-105525240D01*
X125243515Y-105314831D01*
X125633461Y-104925564D01*
X125729976Y-104693130D01*
X125825169Y-104923515D01*
X126214436Y-105313461D01*
X126723298Y-105524759D01*
X127274285Y-105525240D01*
X127783515Y-105314831D01*
X128173461Y-104925564D01*
X128269976Y-104693130D01*
X128365169Y-104923515D01*
X128754436Y-105313461D01*
X129263298Y-105524759D01*
X129814285Y-105525240D01*
X130323515Y-105314831D01*
X130713461Y-104925564D01*
X130809976Y-104693130D01*
X130905169Y-104923515D01*
X131294436Y-105313461D01*
X131803298Y-105524759D01*
X132354285Y-105525240D01*
X132863515Y-105314831D01*
X133253461Y-104925564D01*
X133349976Y-104693130D01*
X133445169Y-104923515D01*
G36*
X104644165Y-83077312D02*
X104779070Y-83133329D01*
X104779070Y-83908900D01*
X104823348Y-84144217D01*
X104830136Y-84154766D01*
X104830079Y-84154850D01*
X104779070Y-84406740D01*
X104779070Y-85013230D01*
X104626254Y-85166046D01*
X104466579Y-85405016D01*
X104410509Y-85686901D01*
X104410509Y-89343843D01*
X104245243Y-89509109D01*
X104085568Y-89748079D01*
X104029498Y-90029964D01*
X104029498Y-99331647D01*
X104085568Y-99613532D01*
X104245243Y-99852502D01*
X105719789Y-101327048D01*
X105459029Y-101326821D01*
X105078485Y-101484058D01*
X104936896Y-101625400D01*
X103570424Y-101625400D01*
X103570424Y-100916750D01*
X103411674Y-100758000D01*
X102737424Y-100758000D01*
X102737424Y-100778000D01*
X102483424Y-100778000D01*
X102483424Y-100758000D01*
X102463424Y-100758000D01*
X102463424Y-100504000D01*
X102483424Y-100504000D01*
X102483424Y-98904750D01*
X102737424Y-98904750D01*
X102737424Y-100504000D01*
X103411674Y-100504000D01*
X103570424Y-100345250D01*
X103570424Y-99254690D01*
X103473751Y-99021301D01*
X103295122Y-98842673D01*
X103061733Y-98746000D01*
X102896174Y-98746000D01*
X102737424Y-98904750D01*
X102483424Y-98904750D01*
X102324674Y-98746000D01*
X102159115Y-98746000D01*
X101973432Y-98822913D01*
X101917314Y-98784569D01*
X101665424Y-98733560D01*
X101015424Y-98733560D01*
X100780107Y-98777838D01*
X100706646Y-98825109D01*
X100647314Y-98784569D01*
X100395424Y-98733560D01*
X99745424Y-98733560D01*
X99510107Y-98777838D01*
X99436646Y-98825109D01*
X99377314Y-98784569D01*
X99125424Y-98733560D01*
X98570842Y-98733560D01*
X98571179Y-98347029D01*
X98413942Y-97966485D01*
X98123046Y-97675081D01*
X97742777Y-97517180D01*
X97331029Y-97516821D01*
X96950485Y-97674058D01*
X96659081Y-97964954D01*
X96535156Y-98263399D01*
X92475825Y-98263399D01*
X92174500Y-98323336D01*
X91919049Y-98494023D01*
X91893648Y-98519424D01*
X91722961Y-98774875D01*
X91721323Y-98783109D01*
X91631733Y-98746000D01*
X91466174Y-98746000D01*
X91307426Y-98904748D01*
X91307426Y-98746000D01*
X91287609Y-98746000D01*
X91287609Y-92516000D01*
X91307426Y-92516000D01*
X91307426Y-92357252D01*
X91466174Y-92516000D01*
X91631733Y-92516000D01*
X91815424Y-92439913D01*
X91999115Y-92516000D01*
X92164674Y-92516000D01*
X92323424Y-92357250D01*
X92323424Y-90758000D01*
X91307424Y-90758000D01*
X91307424Y-90778000D01*
X91287609Y-90778000D01*
X91287609Y-90484000D01*
X91307424Y-90484000D01*
X91307424Y-90504000D01*
X92323424Y-90504000D01*
X92323424Y-90484000D01*
X92577424Y-90484000D01*
X92577424Y-90504000D01*
X92597424Y-90504000D01*
X92597424Y-90758000D01*
X92577424Y-90758000D01*
X92577424Y-92357250D01*
X92736174Y-92516000D01*
X92901733Y-92516000D01*
X93087416Y-92439087D01*
X93143534Y-92477431D01*
X93395424Y-92528440D01*
X94045424Y-92528440D01*
X94280741Y-92484162D01*
X94354202Y-92436891D01*
X94413534Y-92477431D01*
X94665424Y-92528440D01*
X95315424Y-92528440D01*
X95550741Y-92484162D01*
X95621824Y-92438421D01*
X95809115Y-92516000D01*
X95974674Y-92516000D01*
X96133424Y-92357250D01*
X96133424Y-90758000D01*
X96387424Y-90758000D01*
X96387424Y-92357250D01*
X96546174Y-92516000D01*
X96711733Y-92516000D01*
X96895424Y-92439913D01*
X97079115Y-92516000D01*
X97244674Y-92516000D01*
X97403424Y-92357250D01*
X97403424Y-90758000D01*
X96387424Y-90758000D01*
X96133424Y-90758000D01*
X96113424Y-90758000D01*
X96113424Y-90504000D01*
X96133424Y-90504000D01*
X96133424Y-90484000D01*
X96387424Y-90484000D01*
X96387424Y-90504000D01*
X97403424Y-90504000D01*
X97403424Y-90484000D01*
X97657424Y-90484000D01*
X97657424Y-90504000D01*
X97677424Y-90504000D01*
X97677424Y-90758000D01*
X97657424Y-90758000D01*
X97657424Y-92357250D01*
X97816174Y-92516000D01*
X97981733Y-92516000D01*
X98167416Y-92439087D01*
X98223534Y-92477431D01*
X98475424Y-92528440D01*
X99125424Y-92528440D01*
X99360741Y-92484162D01*
X99434202Y-92436891D01*
X99493534Y-92477431D01*
X99745424Y-92528440D01*
X100395424Y-92528440D01*
X100630741Y-92484162D01*
X100701824Y-92438421D01*
X100889115Y-92516000D01*
X101054674Y-92516000D01*
X101213424Y-92357250D01*
X101213424Y-90758000D01*
X101467424Y-90758000D01*
X101467424Y-92357250D01*
X101626174Y-92516000D01*
X101791733Y-92516000D01*
X101975424Y-92439913D01*
X102159115Y-92516000D01*
X102324674Y-92516000D01*
X102483424Y-92357250D01*
X102483424Y-90758000D01*
X102737424Y-90758000D01*
X102737424Y-92357250D01*
X102896174Y-92516000D01*
X103061733Y-92516000D01*
X103295122Y-92419327D01*
X103473751Y-92240699D01*
X103570424Y-92007310D01*
X103570424Y-90916750D01*
X103411674Y-90758000D01*
X102737424Y-90758000D01*
X102483424Y-90758000D01*
X101467424Y-90758000D01*
X101213424Y-90758000D01*
X101193424Y-90758000D01*
X101193424Y-90504000D01*
X101213424Y-90504000D01*
X101213424Y-90484000D01*
X101467424Y-90484000D01*
X101467424Y-90504000D01*
X102483424Y-90504000D01*
X102483424Y-90484000D01*
X102737424Y-90484000D01*
X102737424Y-90504000D01*
X103411674Y-90504000D01*
X103570424Y-90345250D01*
X103570424Y-89254690D01*
X103473751Y-89021301D01*
X103316889Y-88864440D01*
X103739000Y-88864440D01*
X103974317Y-88820162D01*
X104190441Y-88681090D01*
X104335431Y-88468890D01*
X104386440Y-88217000D01*
X104386440Y-86217000D01*
X104342162Y-85981683D01*
X104203090Y-85765559D01*
X103990890Y-85620569D01*
X103739000Y-85569560D01*
X101239000Y-85569560D01*
X101003683Y-85613838D01*
X100787559Y-85752910D01*
X100711026Y-85864919D01*
X100647090Y-85765559D01*
X100434890Y-85620569D01*
X100183000Y-85569560D01*
X97683000Y-85569560D01*
X97447683Y-85613838D01*
X97231559Y-85752910D01*
X97155026Y-85864919D01*
X97091090Y-85765559D01*
X96878890Y-85620569D01*
X96627000Y-85569560D01*
X94127000Y-85569560D01*
X93891683Y-85613838D01*
X93675559Y-85752910D01*
X93599026Y-85864919D01*
X93535090Y-85765559D01*
X93322890Y-85620569D01*
X93071000Y-85569560D01*
X90574914Y-85569560D01*
X90442256Y-85371024D01*
X90062575Y-84991343D01*
X89823605Y-84831668D01*
X89753963Y-84817816D01*
X89966441Y-84681090D01*
X90042974Y-84569081D01*
X90106910Y-84668441D01*
X90319110Y-84813431D01*
X90571000Y-84864440D01*
X93071000Y-84864440D01*
X93306317Y-84820162D01*
X93522441Y-84681090D01*
X93598974Y-84569081D01*
X93662910Y-84668441D01*
X93875110Y-84813431D01*
X94127000Y-84864440D01*
X96627000Y-84864440D01*
X96862317Y-84820162D01*
X97078441Y-84681090D01*
X97154974Y-84569081D01*
X97218910Y-84668441D01*
X97431110Y-84813431D01*
X97683000Y-84864440D01*
X100183000Y-84864440D01*
X100418317Y-84820162D01*
X100634441Y-84681090D01*
X100710974Y-84569081D01*
X100774910Y-84668441D01*
X100987110Y-84813431D01*
X101239000Y-84864440D01*
X103739000Y-84864440D01*
X103974317Y-84820162D01*
X104190441Y-84681090D01*
X104335431Y-84468890D01*
X104386440Y-84217000D01*
X104386440Y-82819137D01*
X104644165Y-83077312D01*
X104644165Y-83077312D01*
G37*
X104644165Y-83077312D02*
X104779070Y-83133329D01*
X104779070Y-83908900D01*
X104823348Y-84144217D01*
X104830136Y-84154766D01*
X104830079Y-84154850D01*
X104779070Y-84406740D01*
X104779070Y-85013230D01*
X104626254Y-85166046D01*
X104466579Y-85405016D01*
X104410509Y-85686901D01*
X104410509Y-89343843D01*
X104245243Y-89509109D01*
X104085568Y-89748079D01*
X104029498Y-90029964D01*
X104029498Y-99331647D01*
X104085568Y-99613532D01*
X104245243Y-99852502D01*
X105719789Y-101327048D01*
X105459029Y-101326821D01*
X105078485Y-101484058D01*
X104936896Y-101625400D01*
X103570424Y-101625400D01*
X103570424Y-100916750D01*
X103411674Y-100758000D01*
X102737424Y-100758000D01*
X102737424Y-100778000D01*
X102483424Y-100778000D01*
X102483424Y-100758000D01*
X102463424Y-100758000D01*
X102463424Y-100504000D01*
X102483424Y-100504000D01*
X102483424Y-98904750D01*
X102737424Y-98904750D01*
X102737424Y-100504000D01*
X103411674Y-100504000D01*
X103570424Y-100345250D01*
X103570424Y-99254690D01*
X103473751Y-99021301D01*
X103295122Y-98842673D01*
X103061733Y-98746000D01*
X102896174Y-98746000D01*
X102737424Y-98904750D01*
X102483424Y-98904750D01*
X102324674Y-98746000D01*
X102159115Y-98746000D01*
X101973432Y-98822913D01*
X101917314Y-98784569D01*
X101665424Y-98733560D01*
X101015424Y-98733560D01*
X100780107Y-98777838D01*
X100706646Y-98825109D01*
X100647314Y-98784569D01*
X100395424Y-98733560D01*
X99745424Y-98733560D01*
X99510107Y-98777838D01*
X99436646Y-98825109D01*
X99377314Y-98784569D01*
X99125424Y-98733560D01*
X98570842Y-98733560D01*
X98571179Y-98347029D01*
X98413942Y-97966485D01*
X98123046Y-97675081D01*
X97742777Y-97517180D01*
X97331029Y-97516821D01*
X96950485Y-97674058D01*
X96659081Y-97964954D01*
X96535156Y-98263399D01*
X92475825Y-98263399D01*
X92174500Y-98323336D01*
X91919049Y-98494023D01*
X91893648Y-98519424D01*
X91722961Y-98774875D01*
X91721323Y-98783109D01*
X91631733Y-98746000D01*
X91466174Y-98746000D01*
X91307426Y-98904748D01*
X91307426Y-98746000D01*
X91287609Y-98746000D01*
X91287609Y-92516000D01*
X91307426Y-92516000D01*
X91307426Y-92357252D01*
X91466174Y-92516000D01*
X91631733Y-92516000D01*
X91815424Y-92439913D01*
X91999115Y-92516000D01*
X92164674Y-92516000D01*
X92323424Y-92357250D01*
X92323424Y-90758000D01*
X91307424Y-90758000D01*
X91307424Y-90778000D01*
X91287609Y-90778000D01*
X91287609Y-90484000D01*
X91307424Y-90484000D01*
X91307424Y-90504000D01*
X92323424Y-90504000D01*
X92323424Y-90484000D01*
X92577424Y-90484000D01*
X92577424Y-90504000D01*
X92597424Y-90504000D01*
X92597424Y-90758000D01*
X92577424Y-90758000D01*
X92577424Y-92357250D01*
X92736174Y-92516000D01*
X92901733Y-92516000D01*
X93087416Y-92439087D01*
X93143534Y-92477431D01*
X93395424Y-92528440D01*
X94045424Y-92528440D01*
X94280741Y-92484162D01*
X94354202Y-92436891D01*
X94413534Y-92477431D01*
X94665424Y-92528440D01*
X95315424Y-92528440D01*
X95550741Y-92484162D01*
X95621824Y-92438421D01*
X95809115Y-92516000D01*
X95974674Y-92516000D01*
X96133424Y-92357250D01*
X96133424Y-90758000D01*
X96387424Y-90758000D01*
X96387424Y-92357250D01*
X96546174Y-92516000D01*
X96711733Y-92516000D01*
X96895424Y-92439913D01*
X97079115Y-92516000D01*
X97244674Y-92516000D01*
X97403424Y-92357250D01*
X97403424Y-90758000D01*
X96387424Y-90758000D01*
X96133424Y-90758000D01*
X96113424Y-90758000D01*
X96113424Y-90504000D01*
X96133424Y-90504000D01*
X96133424Y-90484000D01*
X96387424Y-90484000D01*
X96387424Y-90504000D01*
X97403424Y-90504000D01*
X97403424Y-90484000D01*
X97657424Y-90484000D01*
X97657424Y-90504000D01*
X97677424Y-90504000D01*
X97677424Y-90758000D01*
X97657424Y-90758000D01*
X97657424Y-92357250D01*
X97816174Y-92516000D01*
X97981733Y-92516000D01*
X98167416Y-92439087D01*
X98223534Y-92477431D01*
X98475424Y-92528440D01*
X99125424Y-92528440D01*
X99360741Y-92484162D01*
X99434202Y-92436891D01*
X99493534Y-92477431D01*
X99745424Y-92528440D01*
X100395424Y-92528440D01*
X100630741Y-92484162D01*
X100701824Y-92438421D01*
X100889115Y-92516000D01*
X101054674Y-92516000D01*
X101213424Y-92357250D01*
X101213424Y-90758000D01*
X101467424Y-90758000D01*
X101467424Y-92357250D01*
X101626174Y-92516000D01*
X101791733Y-92516000D01*
X101975424Y-92439913D01*
X102159115Y-92516000D01*
X102324674Y-92516000D01*
X102483424Y-92357250D01*
X102483424Y-90758000D01*
X102737424Y-90758000D01*
X102737424Y-92357250D01*
X102896174Y-92516000D01*
X103061733Y-92516000D01*
X103295122Y-92419327D01*
X103473751Y-92240699D01*
X103570424Y-92007310D01*
X103570424Y-90916750D01*
X103411674Y-90758000D01*
X102737424Y-90758000D01*
X102483424Y-90758000D01*
X101467424Y-90758000D01*
X101213424Y-90758000D01*
X101193424Y-90758000D01*
X101193424Y-90504000D01*
X101213424Y-90504000D01*
X101213424Y-90484000D01*
X101467424Y-90484000D01*
X101467424Y-90504000D01*
X102483424Y-90504000D01*
X102483424Y-90484000D01*
X102737424Y-90484000D01*
X102737424Y-90504000D01*
X103411674Y-90504000D01*
X103570424Y-90345250D01*
X103570424Y-89254690D01*
X103473751Y-89021301D01*
X103316889Y-88864440D01*
X103739000Y-88864440D01*
X103974317Y-88820162D01*
X104190441Y-88681090D01*
X104335431Y-88468890D01*
X104386440Y-88217000D01*
X104386440Y-86217000D01*
X104342162Y-85981683D01*
X104203090Y-85765559D01*
X103990890Y-85620569D01*
X103739000Y-85569560D01*
X101239000Y-85569560D01*
X101003683Y-85613838D01*
X100787559Y-85752910D01*
X100711026Y-85864919D01*
X100647090Y-85765559D01*
X100434890Y-85620569D01*
X100183000Y-85569560D01*
X97683000Y-85569560D01*
X97447683Y-85613838D01*
X97231559Y-85752910D01*
X97155026Y-85864919D01*
X97091090Y-85765559D01*
X96878890Y-85620569D01*
X96627000Y-85569560D01*
X94127000Y-85569560D01*
X93891683Y-85613838D01*
X93675559Y-85752910D01*
X93599026Y-85864919D01*
X93535090Y-85765559D01*
X93322890Y-85620569D01*
X93071000Y-85569560D01*
X90574914Y-85569560D01*
X90442256Y-85371024D01*
X90062575Y-84991343D01*
X89823605Y-84831668D01*
X89753963Y-84817816D01*
X89966441Y-84681090D01*
X90042974Y-84569081D01*
X90106910Y-84668441D01*
X90319110Y-84813431D01*
X90571000Y-84864440D01*
X93071000Y-84864440D01*
X93306317Y-84820162D01*
X93522441Y-84681090D01*
X93598974Y-84569081D01*
X93662910Y-84668441D01*
X93875110Y-84813431D01*
X94127000Y-84864440D01*
X96627000Y-84864440D01*
X96862317Y-84820162D01*
X97078441Y-84681090D01*
X97154974Y-84569081D01*
X97218910Y-84668441D01*
X97431110Y-84813431D01*
X97683000Y-84864440D01*
X100183000Y-84864440D01*
X100418317Y-84820162D01*
X100634441Y-84681090D01*
X100710974Y-84569081D01*
X100774910Y-84668441D01*
X100987110Y-84813431D01*
X101239000Y-84864440D01*
X103739000Y-84864440D01*
X103974317Y-84820162D01*
X104190441Y-84681090D01*
X104335431Y-84468890D01*
X104386440Y-84217000D01*
X104386440Y-82819137D01*
X104644165Y-83077312D01*
G36*
X137745000Y-87274890D02*
X136730176Y-86260066D01*
X136811345Y-85852000D01*
X136697271Y-85278511D01*
X136372415Y-84792330D01*
X136358087Y-84782757D01*
X136379317Y-84778762D01*
X136595441Y-84639690D01*
X136740431Y-84427490D01*
X136791440Y-84175600D01*
X136791440Y-82448400D01*
X136747162Y-82213083D01*
X136608090Y-81996959D01*
X136395890Y-81851969D01*
X136144000Y-81800960D01*
X134112000Y-81800960D01*
X133876683Y-81845238D01*
X133660559Y-81984310D01*
X133515569Y-82196510D01*
X133464560Y-82448400D01*
X133464560Y-84175600D01*
X133508838Y-84410917D01*
X133647910Y-84627041D01*
X133860110Y-84772031D01*
X133901439Y-84780400D01*
X133883585Y-84792330D01*
X133558729Y-85278511D01*
X133444655Y-85852000D01*
X133558729Y-86425489D01*
X133883585Y-86911670D01*
X134198366Y-87122000D01*
X133883585Y-87332330D01*
X133558729Y-87818511D01*
X133444655Y-88392000D01*
X133558729Y-88965489D01*
X133796400Y-89321189D01*
X133796400Y-90040560D01*
X133783000Y-90040560D01*
X133547683Y-90084838D01*
X133406624Y-90175607D01*
X133430440Y-90058000D01*
X133430440Y-88758000D01*
X133386162Y-88522683D01*
X133247090Y-88306559D01*
X133187841Y-88266076D01*
X133234441Y-88236090D01*
X133379431Y-88023890D01*
X133430440Y-87772000D01*
X133430440Y-86472000D01*
X133386162Y-86236683D01*
X133247090Y-86020559D01*
X133187311Y-85979714D01*
X133321327Y-85845699D01*
X133418000Y-85612310D01*
X133418000Y-85121750D01*
X133259250Y-84963000D01*
X132160000Y-84963000D01*
X132160000Y-84983000D01*
X131906000Y-84983000D01*
X131906000Y-84963000D01*
X131886000Y-84963000D01*
X131886000Y-84709000D01*
X131906000Y-84709000D01*
X131906000Y-84689000D01*
X132160000Y-84689000D01*
X132160000Y-84709000D01*
X133259250Y-84709000D01*
X133418000Y-84550250D01*
X133418000Y-84059690D01*
X133321327Y-83826301D01*
X133188608Y-83693583D01*
X133234441Y-83664090D01*
X133379431Y-83451890D01*
X133430440Y-83200000D01*
X133430440Y-81900000D01*
X133386162Y-81664683D01*
X133247090Y-81448559D01*
X133238002Y-81442349D01*
X133350317Y-81395942D01*
X133641721Y-81105046D01*
X133799622Y-80724777D01*
X133799981Y-80313029D01*
X133642744Y-79932485D01*
X133351848Y-79641081D01*
X132971579Y-79483180D01*
X132559831Y-79482821D01*
X132179287Y-79640058D01*
X131887883Y-79930954D01*
X131729982Y-80311223D01*
X131729808Y-80511284D01*
X131512145Y-80728947D01*
X131352470Y-80967917D01*
X131296400Y-81249802D01*
X131296400Y-81252560D01*
X131283000Y-81252560D01*
X131047683Y-81296838D01*
X131033559Y-81305927D01*
X129110776Y-79383144D01*
X128871806Y-79223469D01*
X128589921Y-79167399D01*
X128330814Y-79167399D01*
X128331275Y-78640107D01*
X128090481Y-78057343D01*
X127997728Y-77964428D01*
X128147441Y-77868090D01*
X128292431Y-77655890D01*
X128343440Y-77404000D01*
X128343440Y-75987815D01*
X133119630Y-75987815D01*
X133443980Y-76772800D01*
X134044041Y-77373909D01*
X134828459Y-77699628D01*
X135677815Y-77700370D01*
X136462800Y-77376020D01*
X137063909Y-76775959D01*
X137389628Y-75991541D01*
X137390370Y-75142185D01*
X137066020Y-74357200D01*
X136465959Y-73756091D01*
X135681541Y-73430372D01*
X134832185Y-73429630D01*
X134047200Y-73753980D01*
X133446091Y-74354041D01*
X133120372Y-75138459D01*
X133119630Y-75987815D01*
X128343440Y-75987815D01*
X128343440Y-75504000D01*
X128299162Y-75268683D01*
X128160090Y-75052559D01*
X127947890Y-74907569D01*
X127696000Y-74856560D01*
X125796000Y-74856560D01*
X125560683Y-74900838D01*
X125344559Y-75039910D01*
X125234600Y-75200840D01*
X125145003Y-75111086D01*
X124562659Y-74869276D01*
X124281215Y-74869030D01*
X124281223Y-74859519D01*
X124086005Y-74387057D01*
X123724845Y-74025265D01*
X123252724Y-73829223D01*
X122741519Y-73828777D01*
X122269057Y-74023995D01*
X121907265Y-74385155D01*
X121711223Y-74857276D01*
X121711213Y-74868969D01*
X121432107Y-74868725D01*
X120849343Y-75109519D01*
X120495774Y-75462471D01*
X120145003Y-75111086D01*
X119562659Y-74869276D01*
X118932107Y-74868725D01*
X118349343Y-75109519D01*
X117995774Y-75462471D01*
X117645003Y-75111086D01*
X117062659Y-74869276D01*
X116432107Y-74868725D01*
X115849343Y-75109519D01*
X115403086Y-75554997D01*
X115161276Y-76137341D01*
X115160725Y-76767893D01*
X115401519Y-77350657D01*
X115754471Y-77704226D01*
X115403086Y-78054997D01*
X115161276Y-78637341D01*
X115160725Y-79267893D01*
X115401519Y-79850657D01*
X115501709Y-79951022D01*
X115364343Y-79950902D01*
X115364390Y-79896605D01*
X115207153Y-79516061D01*
X114916257Y-79224657D01*
X114535988Y-79066756D01*
X114124240Y-79066397D01*
X113743696Y-79223634D01*
X113522465Y-79444479D01*
X113610188Y-79206602D01*
X113585352Y-78576539D01*
X113392019Y-78109792D01*
X113137069Y-78019631D01*
X113323698Y-77942327D01*
X113502327Y-77763699D01*
X113599000Y-77530310D01*
X113599000Y-76739750D01*
X113440250Y-76581000D01*
X112141000Y-76581000D01*
X112141000Y-76601000D01*
X111887000Y-76601000D01*
X111887000Y-76581000D01*
X111867000Y-76581000D01*
X111867000Y-76327000D01*
X111887000Y-76327000D01*
X111887000Y-75027750D01*
X112141000Y-75027750D01*
X112141000Y-76327000D01*
X113440250Y-76327000D01*
X113599000Y-76168250D01*
X113599000Y-75377690D01*
X113502327Y-75144301D01*
X113323698Y-74965673D01*
X113090309Y-74869000D01*
X112299750Y-74869000D01*
X112141000Y-75027750D01*
X111887000Y-75027750D01*
X111728250Y-74869000D01*
X110937691Y-74869000D01*
X110704302Y-74965673D01*
X110525673Y-75144301D01*
X110502355Y-75200595D01*
X110413003Y-75111086D01*
X109830659Y-74869276D01*
X109549215Y-74869030D01*
X109549223Y-74859519D01*
X109354005Y-74387057D01*
X108992845Y-74025265D01*
X108520724Y-73829223D01*
X108009519Y-73828777D01*
X107537057Y-74023995D01*
X107175265Y-74385155D01*
X106979223Y-74857276D01*
X106979213Y-74868969D01*
X106700107Y-74868725D01*
X106117343Y-75109519D01*
X105763774Y-75462471D01*
X105413003Y-75111086D01*
X104830659Y-74869276D01*
X104200107Y-74868725D01*
X103617343Y-75109519D01*
X103171086Y-75554997D01*
X102929276Y-76137341D01*
X102928725Y-76767893D01*
X103169519Y-77350657D01*
X103522471Y-77704226D01*
X103171086Y-78054997D01*
X102929276Y-78637341D01*
X102928725Y-79267893D01*
X103169519Y-79850657D01*
X103614997Y-80296914D01*
X104197341Y-80538724D01*
X104827893Y-80539275D01*
X105410657Y-80298481D01*
X105764226Y-79945529D01*
X106114997Y-80296914D01*
X106697341Y-80538724D01*
X107327893Y-80539275D01*
X107910657Y-80298481D01*
X108264226Y-79945529D01*
X108614997Y-80296914D01*
X109055926Y-80480003D01*
X109021673Y-80473190D01*
X108619672Y-80473190D01*
X108390838Y-80378170D01*
X107979090Y-80377811D01*
X107598546Y-80535048D01*
X107307142Y-80825944D01*
X107149241Y-81206213D01*
X107149103Y-81364413D01*
X106204855Y-81364413D01*
X106156542Y-81332131D01*
X105796896Y-81260593D01*
X105666822Y-81260593D01*
X105437988Y-81165573D01*
X105026240Y-81165214D01*
X104645696Y-81322451D01*
X104354292Y-81613347D01*
X104256575Y-81848677D01*
X104203090Y-81765559D01*
X103990890Y-81620569D01*
X103739000Y-81569560D01*
X103418568Y-81569560D01*
X103357262Y-81261354D01*
X103153539Y-80956461D01*
X101406777Y-79209699D01*
X101407275Y-78640107D01*
X101166481Y-78057343D01*
X101073728Y-77964428D01*
X101223441Y-77868090D01*
X101368431Y-77655890D01*
X101419440Y-77404000D01*
X101419440Y-75504000D01*
X101375162Y-75268683D01*
X101236090Y-75052559D01*
X101023890Y-74907569D01*
X100772000Y-74856560D01*
X98872000Y-74856560D01*
X98636683Y-74900838D01*
X98420559Y-75039910D01*
X98310600Y-75200840D01*
X98221003Y-75111086D01*
X97638659Y-74869276D01*
X97357215Y-74869030D01*
X97357223Y-74859519D01*
X97162005Y-74387057D01*
X96800845Y-74025265D01*
X96328724Y-73829223D01*
X95817519Y-73828777D01*
X95345057Y-74023995D01*
X94983265Y-74385155D01*
X94787223Y-74857276D01*
X94787213Y-74868969D01*
X94508107Y-74868725D01*
X93925343Y-75109519D01*
X93571774Y-75462471D01*
X93221003Y-75111086D01*
X92638659Y-74869276D01*
X92008107Y-74868725D01*
X91425343Y-75109519D01*
X90979086Y-75554997D01*
X90737276Y-76137341D01*
X90736725Y-76767893D01*
X90977519Y-77350657D01*
X91330471Y-77704226D01*
X90979086Y-78054997D01*
X90737276Y-78637341D01*
X90736725Y-79267893D01*
X90881200Y-79617548D01*
X90881200Y-81569560D01*
X90571000Y-81569560D01*
X90335683Y-81613838D01*
X90119559Y-81752910D01*
X90043026Y-81864919D01*
X89979090Y-81765559D01*
X89766890Y-81620569D01*
X89515000Y-81569560D01*
X89204800Y-81569560D01*
X89204800Y-79589000D01*
X89165201Y-79389923D01*
X89214724Y-79270659D01*
X89215275Y-78640107D01*
X88974481Y-78057343D01*
X88881728Y-77964428D01*
X89031441Y-77868090D01*
X89176431Y-77655890D01*
X89227440Y-77404000D01*
X89227440Y-75504000D01*
X89183162Y-75268683D01*
X89044090Y-75052559D01*
X88831890Y-74907569D01*
X88580000Y-74856560D01*
X86680000Y-74856560D01*
X86444683Y-74900838D01*
X86228559Y-75039910D01*
X86118600Y-75200840D01*
X86029003Y-75111086D01*
X85446659Y-74869276D01*
X85165215Y-74869030D01*
X85165223Y-74859519D01*
X84970005Y-74387057D01*
X84608845Y-74025265D01*
X84136724Y-73829223D01*
X83625519Y-73828777D01*
X83153057Y-74023995D01*
X82791265Y-74385155D01*
X82595223Y-74857276D01*
X82595213Y-74868969D01*
X82316107Y-74868725D01*
X81733343Y-75109519D01*
X81379774Y-75462471D01*
X81029003Y-75111086D01*
X80446659Y-74869276D01*
X79816107Y-74868725D01*
X79233343Y-75109519D01*
X78787086Y-75554997D01*
X78545276Y-76137341D01*
X78544725Y-76767893D01*
X78785519Y-77350657D01*
X79138471Y-77704226D01*
X78787086Y-78054997D01*
X78545276Y-78637341D01*
X78544775Y-79210147D01*
X76932461Y-80822461D01*
X76728738Y-81127354D01*
X76657200Y-81487000D01*
X76657200Y-81569560D01*
X76362663Y-81569560D01*
X76315942Y-81456485D01*
X76025046Y-81165081D01*
X75644777Y-81007180D01*
X75233029Y-81006821D01*
X74852485Y-81164058D01*
X74561081Y-81454954D01*
X74403180Y-81835223D01*
X74402821Y-82246971D01*
X74560058Y-82627515D01*
X74850954Y-82918919D01*
X75231223Y-83076820D01*
X75642971Y-83077179D01*
X75699560Y-83053797D01*
X75699560Y-84217000D01*
X75743838Y-84452317D01*
X75882910Y-84668441D01*
X76095110Y-84813431D01*
X76347000Y-84864440D01*
X78847000Y-84864440D01*
X79082317Y-84820162D01*
X79298441Y-84681090D01*
X79374974Y-84569081D01*
X79438910Y-84668441D01*
X79651110Y-84813431D01*
X79903000Y-84864440D01*
X82403000Y-84864440D01*
X82638317Y-84820162D01*
X82854441Y-84681090D01*
X82930974Y-84569081D01*
X82994910Y-84668441D01*
X83207110Y-84813431D01*
X83459000Y-84864440D01*
X85035899Y-84864440D01*
X84975081Y-84925152D01*
X84817180Y-85305421D01*
X84816950Y-85569560D01*
X83459000Y-85569560D01*
X83223683Y-85613838D01*
X83007559Y-85752910D01*
X82931026Y-85864919D01*
X82867090Y-85765559D01*
X82654890Y-85620569D01*
X82403000Y-85569560D01*
X79903000Y-85569560D01*
X79667683Y-85613838D01*
X79451559Y-85752910D01*
X79375026Y-85864919D01*
X79311090Y-85765559D01*
X79098890Y-85620569D01*
X78847000Y-85569560D01*
X76347000Y-85569560D01*
X76111683Y-85613838D01*
X75895559Y-85752910D01*
X75750569Y-85965110D01*
X75699560Y-86217000D01*
X75699560Y-88217000D01*
X75743838Y-88452317D01*
X75882910Y-88668441D01*
X76095110Y-88813431D01*
X76347000Y-88864440D01*
X76775100Y-88864440D01*
X76693559Y-88916910D01*
X76548569Y-89129110D01*
X76497560Y-89381000D01*
X76497560Y-89691200D01*
X76275740Y-89691200D01*
X73241611Y-86657071D01*
X73352784Y-86389338D01*
X73353525Y-85540034D01*
X73029195Y-84755096D01*
X72429171Y-84154023D01*
X71644800Y-83828324D01*
X70795496Y-83827583D01*
X70010558Y-84151913D01*
X69409485Y-84751937D01*
X69212544Y-85226223D01*
X65757433Y-85226223D01*
X63346242Y-82815032D01*
X63613491Y-82815265D01*
X64177871Y-82582068D01*
X64506089Y-82254423D01*
X69212709Y-82254423D01*
X69407375Y-82725550D01*
X70007399Y-83326623D01*
X70791770Y-83652322D01*
X71641074Y-83653063D01*
X72426012Y-83328733D01*
X73027085Y-82728709D01*
X73352784Y-81944338D01*
X73353525Y-81095034D01*
X73029195Y-80310096D01*
X72429171Y-79709023D01*
X71644800Y-79383324D01*
X70795496Y-79382583D01*
X70010558Y-79706913D01*
X69409485Y-80306937D01*
X69212544Y-80781223D01*
X64764281Y-80781223D01*
X64611568Y-80411629D01*
X64180143Y-79979449D01*
X63616170Y-79745267D01*
X63005509Y-79744735D01*
X62441129Y-79977932D01*
X62357000Y-80061914D01*
X62357000Y-73075000D01*
X137745000Y-73075000D01*
X137745000Y-87274890D01*
X137745000Y-87274890D01*
G37*
X137745000Y-87274890D02*
X136730176Y-86260066D01*
X136811345Y-85852000D01*
X136697271Y-85278511D01*
X136372415Y-84792330D01*
X136358087Y-84782757D01*
X136379317Y-84778762D01*
X136595441Y-84639690D01*
X136740431Y-84427490D01*
X136791440Y-84175600D01*
X136791440Y-82448400D01*
X136747162Y-82213083D01*
X136608090Y-81996959D01*
X136395890Y-81851969D01*
X136144000Y-81800960D01*
X134112000Y-81800960D01*
X133876683Y-81845238D01*
X133660559Y-81984310D01*
X133515569Y-82196510D01*
X133464560Y-82448400D01*
X133464560Y-84175600D01*
X133508838Y-84410917D01*
X133647910Y-84627041D01*
X133860110Y-84772031D01*
X133901439Y-84780400D01*
X133883585Y-84792330D01*
X133558729Y-85278511D01*
X133444655Y-85852000D01*
X133558729Y-86425489D01*
X133883585Y-86911670D01*
X134198366Y-87122000D01*
X133883585Y-87332330D01*
X133558729Y-87818511D01*
X133444655Y-88392000D01*
X133558729Y-88965489D01*
X133796400Y-89321189D01*
X133796400Y-90040560D01*
X133783000Y-90040560D01*
X133547683Y-90084838D01*
X133406624Y-90175607D01*
X133430440Y-90058000D01*
X133430440Y-88758000D01*
X133386162Y-88522683D01*
X133247090Y-88306559D01*
X133187841Y-88266076D01*
X133234441Y-88236090D01*
X133379431Y-88023890D01*
X133430440Y-87772000D01*
X133430440Y-86472000D01*
X133386162Y-86236683D01*
X133247090Y-86020559D01*
X133187311Y-85979714D01*
X133321327Y-85845699D01*
X133418000Y-85612310D01*
X133418000Y-85121750D01*
X133259250Y-84963000D01*
X132160000Y-84963000D01*
X132160000Y-84983000D01*
X131906000Y-84983000D01*
X131906000Y-84963000D01*
X131886000Y-84963000D01*
X131886000Y-84709000D01*
X131906000Y-84709000D01*
X131906000Y-84689000D01*
X132160000Y-84689000D01*
X132160000Y-84709000D01*
X133259250Y-84709000D01*
X133418000Y-84550250D01*
X133418000Y-84059690D01*
X133321327Y-83826301D01*
X133188608Y-83693583D01*
X133234441Y-83664090D01*
X133379431Y-83451890D01*
X133430440Y-83200000D01*
X133430440Y-81900000D01*
X133386162Y-81664683D01*
X133247090Y-81448559D01*
X133238002Y-81442349D01*
X133350317Y-81395942D01*
X133641721Y-81105046D01*
X133799622Y-80724777D01*
X133799981Y-80313029D01*
X133642744Y-79932485D01*
X133351848Y-79641081D01*
X132971579Y-79483180D01*
X132559831Y-79482821D01*
X132179287Y-79640058D01*
X131887883Y-79930954D01*
X131729982Y-80311223D01*
X131729808Y-80511284D01*
X131512145Y-80728947D01*
X131352470Y-80967917D01*
X131296400Y-81249802D01*
X131296400Y-81252560D01*
X131283000Y-81252560D01*
X131047683Y-81296838D01*
X131033559Y-81305927D01*
X129110776Y-79383144D01*
X128871806Y-79223469D01*
X128589921Y-79167399D01*
X128330814Y-79167399D01*
X128331275Y-78640107D01*
X128090481Y-78057343D01*
X127997728Y-77964428D01*
X128147441Y-77868090D01*
X128292431Y-77655890D01*
X128343440Y-77404000D01*
X128343440Y-75987815D01*
X133119630Y-75987815D01*
X133443980Y-76772800D01*
X134044041Y-77373909D01*
X134828459Y-77699628D01*
X135677815Y-77700370D01*
X136462800Y-77376020D01*
X137063909Y-76775959D01*
X137389628Y-75991541D01*
X137390370Y-75142185D01*
X137066020Y-74357200D01*
X136465959Y-73756091D01*
X135681541Y-73430372D01*
X134832185Y-73429630D01*
X134047200Y-73753980D01*
X133446091Y-74354041D01*
X133120372Y-75138459D01*
X133119630Y-75987815D01*
X128343440Y-75987815D01*
X128343440Y-75504000D01*
X128299162Y-75268683D01*
X128160090Y-75052559D01*
X127947890Y-74907569D01*
X127696000Y-74856560D01*
X125796000Y-74856560D01*
X125560683Y-74900838D01*
X125344559Y-75039910D01*
X125234600Y-75200840D01*
X125145003Y-75111086D01*
X124562659Y-74869276D01*
X124281215Y-74869030D01*
X124281223Y-74859519D01*
X124086005Y-74387057D01*
X123724845Y-74025265D01*
X123252724Y-73829223D01*
X122741519Y-73828777D01*
X122269057Y-74023995D01*
X121907265Y-74385155D01*
X121711223Y-74857276D01*
X121711213Y-74868969D01*
X121432107Y-74868725D01*
X120849343Y-75109519D01*
X120495774Y-75462471D01*
X120145003Y-75111086D01*
X119562659Y-74869276D01*
X118932107Y-74868725D01*
X118349343Y-75109519D01*
X117995774Y-75462471D01*
X117645003Y-75111086D01*
X117062659Y-74869276D01*
X116432107Y-74868725D01*
X115849343Y-75109519D01*
X115403086Y-75554997D01*
X115161276Y-76137341D01*
X115160725Y-76767893D01*
X115401519Y-77350657D01*
X115754471Y-77704226D01*
X115403086Y-78054997D01*
X115161276Y-78637341D01*
X115160725Y-79267893D01*
X115401519Y-79850657D01*
X115501709Y-79951022D01*
X115364343Y-79950902D01*
X115364390Y-79896605D01*
X115207153Y-79516061D01*
X114916257Y-79224657D01*
X114535988Y-79066756D01*
X114124240Y-79066397D01*
X113743696Y-79223634D01*
X113522465Y-79444479D01*
X113610188Y-79206602D01*
X113585352Y-78576539D01*
X113392019Y-78109792D01*
X113137069Y-78019631D01*
X113323698Y-77942327D01*
X113502327Y-77763699D01*
X113599000Y-77530310D01*
X113599000Y-76739750D01*
X113440250Y-76581000D01*
X112141000Y-76581000D01*
X112141000Y-76601000D01*
X111887000Y-76601000D01*
X111887000Y-76581000D01*
X111867000Y-76581000D01*
X111867000Y-76327000D01*
X111887000Y-76327000D01*
X111887000Y-75027750D01*
X112141000Y-75027750D01*
X112141000Y-76327000D01*
X113440250Y-76327000D01*
X113599000Y-76168250D01*
X113599000Y-75377690D01*
X113502327Y-75144301D01*
X113323698Y-74965673D01*
X113090309Y-74869000D01*
X112299750Y-74869000D01*
X112141000Y-75027750D01*
X111887000Y-75027750D01*
X111728250Y-74869000D01*
X110937691Y-74869000D01*
X110704302Y-74965673D01*
X110525673Y-75144301D01*
X110502355Y-75200595D01*
X110413003Y-75111086D01*
X109830659Y-74869276D01*
X109549215Y-74869030D01*
X109549223Y-74859519D01*
X109354005Y-74387057D01*
X108992845Y-74025265D01*
X108520724Y-73829223D01*
X108009519Y-73828777D01*
X107537057Y-74023995D01*
X107175265Y-74385155D01*
X106979223Y-74857276D01*
X106979213Y-74868969D01*
X106700107Y-74868725D01*
X106117343Y-75109519D01*
X105763774Y-75462471D01*
X105413003Y-75111086D01*
X104830659Y-74869276D01*
X104200107Y-74868725D01*
X103617343Y-75109519D01*
X103171086Y-75554997D01*
X102929276Y-76137341D01*
X102928725Y-76767893D01*
X103169519Y-77350657D01*
X103522471Y-77704226D01*
X103171086Y-78054997D01*
X102929276Y-78637341D01*
X102928725Y-79267893D01*
X103169519Y-79850657D01*
X103614997Y-80296914D01*
X104197341Y-80538724D01*
X104827893Y-80539275D01*
X105410657Y-80298481D01*
X105764226Y-79945529D01*
X106114997Y-80296914D01*
X106697341Y-80538724D01*
X107327893Y-80539275D01*
X107910657Y-80298481D01*
X108264226Y-79945529D01*
X108614997Y-80296914D01*
X109055926Y-80480003D01*
X109021673Y-80473190D01*
X108619672Y-80473190D01*
X108390838Y-80378170D01*
X107979090Y-80377811D01*
X107598546Y-80535048D01*
X107307142Y-80825944D01*
X107149241Y-81206213D01*
X107149103Y-81364413D01*
X106204855Y-81364413D01*
X106156542Y-81332131D01*
X105796896Y-81260593D01*
X105666822Y-81260593D01*
X105437988Y-81165573D01*
X105026240Y-81165214D01*
X104645696Y-81322451D01*
X104354292Y-81613347D01*
X104256575Y-81848677D01*
X104203090Y-81765559D01*
X103990890Y-81620569D01*
X103739000Y-81569560D01*
X103418568Y-81569560D01*
X103357262Y-81261354D01*
X103153539Y-80956461D01*
X101406777Y-79209699D01*
X101407275Y-78640107D01*
X101166481Y-78057343D01*
X101073728Y-77964428D01*
X101223441Y-77868090D01*
X101368431Y-77655890D01*
X101419440Y-77404000D01*
X101419440Y-75504000D01*
X101375162Y-75268683D01*
X101236090Y-75052559D01*
X101023890Y-74907569D01*
X100772000Y-74856560D01*
X98872000Y-74856560D01*
X98636683Y-74900838D01*
X98420559Y-75039910D01*
X98310600Y-75200840D01*
X98221003Y-75111086D01*
X97638659Y-74869276D01*
X97357215Y-74869030D01*
X97357223Y-74859519D01*
X97162005Y-74387057D01*
X96800845Y-74025265D01*
X96328724Y-73829223D01*
X95817519Y-73828777D01*
X95345057Y-74023995D01*
X94983265Y-74385155D01*
X94787223Y-74857276D01*
X94787213Y-74868969D01*
X94508107Y-74868725D01*
X93925343Y-75109519D01*
X93571774Y-75462471D01*
X93221003Y-75111086D01*
X92638659Y-74869276D01*
X92008107Y-74868725D01*
X91425343Y-75109519D01*
X90979086Y-75554997D01*
X90737276Y-76137341D01*
X90736725Y-76767893D01*
X90977519Y-77350657D01*
X91330471Y-77704226D01*
X90979086Y-78054997D01*
X90737276Y-78637341D01*
X90736725Y-79267893D01*
X90881200Y-79617548D01*
X90881200Y-81569560D01*
X90571000Y-81569560D01*
X90335683Y-81613838D01*
X90119559Y-81752910D01*
X90043026Y-81864919D01*
X89979090Y-81765559D01*
X89766890Y-81620569D01*
X89515000Y-81569560D01*
X89204800Y-81569560D01*
X89204800Y-79589000D01*
X89165201Y-79389923D01*
X89214724Y-79270659D01*
X89215275Y-78640107D01*
X88974481Y-78057343D01*
X88881728Y-77964428D01*
X89031441Y-77868090D01*
X89176431Y-77655890D01*
X89227440Y-77404000D01*
X89227440Y-75504000D01*
X89183162Y-75268683D01*
X89044090Y-75052559D01*
X88831890Y-74907569D01*
X88580000Y-74856560D01*
X86680000Y-74856560D01*
X86444683Y-74900838D01*
X86228559Y-75039910D01*
X86118600Y-75200840D01*
X86029003Y-75111086D01*
X85446659Y-74869276D01*
X85165215Y-74869030D01*
X85165223Y-74859519D01*
X84970005Y-74387057D01*
X84608845Y-74025265D01*
X84136724Y-73829223D01*
X83625519Y-73828777D01*
X83153057Y-74023995D01*
X82791265Y-74385155D01*
X82595223Y-74857276D01*
X82595213Y-74868969D01*
X82316107Y-74868725D01*
X81733343Y-75109519D01*
X81379774Y-75462471D01*
X81029003Y-75111086D01*
X80446659Y-74869276D01*
X79816107Y-74868725D01*
X79233343Y-75109519D01*
X78787086Y-75554997D01*
X78545276Y-76137341D01*
X78544725Y-76767893D01*
X78785519Y-77350657D01*
X79138471Y-77704226D01*
X78787086Y-78054997D01*
X78545276Y-78637341D01*
X78544775Y-79210147D01*
X76932461Y-80822461D01*
X76728738Y-81127354D01*
X76657200Y-81487000D01*
X76657200Y-81569560D01*
X76362663Y-81569560D01*
X76315942Y-81456485D01*
X76025046Y-81165081D01*
X75644777Y-81007180D01*
X75233029Y-81006821D01*
X74852485Y-81164058D01*
X74561081Y-81454954D01*
X74403180Y-81835223D01*
X74402821Y-82246971D01*
X74560058Y-82627515D01*
X74850954Y-82918919D01*
X75231223Y-83076820D01*
X75642971Y-83077179D01*
X75699560Y-83053797D01*
X75699560Y-84217000D01*
X75743838Y-84452317D01*
X75882910Y-84668441D01*
X76095110Y-84813431D01*
X76347000Y-84864440D01*
X78847000Y-84864440D01*
X79082317Y-84820162D01*
X79298441Y-84681090D01*
X79374974Y-84569081D01*
X79438910Y-84668441D01*
X79651110Y-84813431D01*
X79903000Y-84864440D01*
X82403000Y-84864440D01*
X82638317Y-84820162D01*
X82854441Y-84681090D01*
X82930974Y-84569081D01*
X82994910Y-84668441D01*
X83207110Y-84813431D01*
X83459000Y-84864440D01*
X85035899Y-84864440D01*
X84975081Y-84925152D01*
X84817180Y-85305421D01*
X84816950Y-85569560D01*
X83459000Y-85569560D01*
X83223683Y-85613838D01*
X83007559Y-85752910D01*
X82931026Y-85864919D01*
X82867090Y-85765559D01*
X82654890Y-85620569D01*
X82403000Y-85569560D01*
X79903000Y-85569560D01*
X79667683Y-85613838D01*
X79451559Y-85752910D01*
X79375026Y-85864919D01*
X79311090Y-85765559D01*
X79098890Y-85620569D01*
X78847000Y-85569560D01*
X76347000Y-85569560D01*
X76111683Y-85613838D01*
X75895559Y-85752910D01*
X75750569Y-85965110D01*
X75699560Y-86217000D01*
X75699560Y-88217000D01*
X75743838Y-88452317D01*
X75882910Y-88668441D01*
X76095110Y-88813431D01*
X76347000Y-88864440D01*
X76775100Y-88864440D01*
X76693559Y-88916910D01*
X76548569Y-89129110D01*
X76497560Y-89381000D01*
X76497560Y-89691200D01*
X76275740Y-89691200D01*
X73241611Y-86657071D01*
X73352784Y-86389338D01*
X73353525Y-85540034D01*
X73029195Y-84755096D01*
X72429171Y-84154023D01*
X71644800Y-83828324D01*
X70795496Y-83827583D01*
X70010558Y-84151913D01*
X69409485Y-84751937D01*
X69212544Y-85226223D01*
X65757433Y-85226223D01*
X63346242Y-82815032D01*
X63613491Y-82815265D01*
X64177871Y-82582068D01*
X64506089Y-82254423D01*
X69212709Y-82254423D01*
X69407375Y-82725550D01*
X70007399Y-83326623D01*
X70791770Y-83652322D01*
X71641074Y-83653063D01*
X72426012Y-83328733D01*
X73027085Y-82728709D01*
X73352784Y-81944338D01*
X73353525Y-81095034D01*
X73029195Y-80310096D01*
X72429171Y-79709023D01*
X71644800Y-79383324D01*
X70795496Y-79382583D01*
X70010558Y-79706913D01*
X69409485Y-80306937D01*
X69212544Y-80781223D01*
X64764281Y-80781223D01*
X64611568Y-80411629D01*
X64180143Y-79979449D01*
X63616170Y-79745267D01*
X63005509Y-79744735D01*
X62441129Y-79977932D01*
X62357000Y-80061914D01*
X62357000Y-73075000D01*
X137745000Y-73075000D01*
X137745000Y-87274890D01*
G36*
X123346997Y-80296914D02*
X123509400Y-80364350D01*
X123509400Y-81260835D01*
X123493029Y-81260821D01*
X123112485Y-81418058D01*
X122821081Y-81708954D01*
X122663180Y-82089223D01*
X122663030Y-82260700D01*
X122082399Y-82260700D01*
X122192820Y-81994777D01*
X122193179Y-81583029D01*
X122035942Y-81202485D01*
X121745046Y-80911081D01*
X121364777Y-80753180D01*
X120953029Y-80752821D01*
X120572485Y-80910058D01*
X120390728Y-81091498D01*
X120310430Y-81107470D01*
X120071460Y-81267145D01*
X119906868Y-81431737D01*
X119907179Y-81075029D01*
X119749942Y-80694485D01*
X119584750Y-80529004D01*
X120142657Y-80298481D01*
X120496226Y-79945529D01*
X120846997Y-80296914D01*
X121429341Y-80538724D01*
X122059893Y-80539275D01*
X122642657Y-80298481D01*
X122996226Y-79945529D01*
X123346997Y-80296914D01*
X123346997Y-80296914D01*
G37*
X123346997Y-80296914D02*
X123509400Y-80364350D01*
X123509400Y-81260835D01*
X123493029Y-81260821D01*
X123112485Y-81418058D01*
X122821081Y-81708954D01*
X122663180Y-82089223D01*
X122663030Y-82260700D01*
X122082399Y-82260700D01*
X122192820Y-81994777D01*
X122193179Y-81583029D01*
X122035942Y-81202485D01*
X121745046Y-80911081D01*
X121364777Y-80753180D01*
X120953029Y-80752821D01*
X120572485Y-80910058D01*
X120390728Y-81091498D01*
X120310430Y-81107470D01*
X120071460Y-81267145D01*
X119906868Y-81431737D01*
X119907179Y-81075029D01*
X119749942Y-80694485D01*
X119584750Y-80529004D01*
X120142657Y-80298481D01*
X120496226Y-79945529D01*
X120846997Y-80296914D01*
X121429341Y-80538724D01*
X122059893Y-80539275D01*
X122642657Y-80298481D01*
X122996226Y-79945529D01*
X123346997Y-80296914D01*
G36*
X112207748Y-78939858D02*
X112193605Y-78954000D01*
X112207748Y-78968143D01*
X112028143Y-79147748D01*
X112014000Y-79133605D01*
X111077255Y-80070350D01*
X111168870Y-80329411D01*
X110619757Y-80329411D01*
X110450202Y-80259006D01*
X110839652Y-79870235D01*
X110897650Y-79890745D01*
X111834395Y-78954000D01*
X111820253Y-78939858D01*
X111999858Y-78760253D01*
X112014000Y-78774395D01*
X112028143Y-78760253D01*
X112207748Y-78939858D01*
X112207748Y-78939858D01*
G37*
X112207748Y-78939858D02*
X112193605Y-78954000D01*
X112207748Y-78968143D01*
X112028143Y-79147748D01*
X112014000Y-79133605D01*
X111077255Y-80070350D01*
X111168870Y-80329411D01*
X110619757Y-80329411D01*
X110450202Y-80259006D01*
X110839652Y-79870235D01*
X110897650Y-79890745D01*
X111834395Y-78954000D01*
X111820253Y-78939858D01*
X111999858Y-78760253D01*
X112014000Y-78774395D01*
X112028143Y-78760253D01*
X112207748Y-78939858D01*
M02*
