G04 #@! TF.FileFunction,Soldermask,Top*
%FSLAX46Y46*%
G04 Gerber Fmt 4.6, Leading zero omitted, Abs format (unit mm)*
G04 Created by KiCad (PCBNEW 4.0.6) date 06/03/17 00:39:33*
%MOMM*%
%LPD*%
G01*
G04 APERTURE LIST*
%ADD10C,0.100000*%
%ADD11C,1.800000*%
%ADD12R,1.500000X1.300000*%
%ADD13C,3.401060*%
%ADD14R,1.998980X1.000760*%
%ADD15O,2.032000X2.032000*%
%ADD16R,2.032000X2.032000*%
%ADD17C,1.500000*%
%ADD18R,1.198880X1.198880*%
%ADD19C,1.600000*%
%ADD20R,2.999740X1.600200*%
%ADD21R,1.600200X3.599180*%
%ADD22R,1.500000X1.250000*%
%ADD23R,1.250000X1.500000*%
%ADD24R,0.450000X0.590000*%
%ADD25R,2.500000X2.000000*%
%ADD26O,1.727200X2.032000*%
%ADD27R,1.727200X2.032000*%
%ADD28O,2.032000X1.727200*%
%ADD29R,2.032000X1.727200*%
%ADD30R,1.800860X0.800100*%
%ADD31R,1.300000X1.500000*%
%ADD32R,0.650000X2.500000*%
%ADD33C,1.879600*%
%ADD34R,1.051560X1.000760*%
%ADD35R,1.000760X1.000760*%
%ADD36R,2.199640X1.099820*%
%ADD37R,1.143000X0.508000*%
%ADD38R,1.200000X0.900000*%
%ADD39C,1.900000*%
%ADD40R,0.450000X1.450000*%
%ADD41R,1.800860X3.500120*%
%ADD42C,2.999740*%
%ADD43R,1.900000X1.900000*%
%ADD44C,1.300000*%
G04 APERTURE END LIST*
D10*
D11*
X55689500Y-81280000D03*
X58229500Y-81280000D03*
X60769500Y-81280000D03*
X63309500Y-81280000D03*
D12*
X55976500Y-105727500D03*
X53276500Y-105727500D03*
D13*
X114627660Y-89357200D03*
D14*
X122428000Y-84907120D03*
X122428000Y-86408260D03*
X122428000Y-87906860D03*
X122428000Y-89408000D03*
X122428000Y-90906600D03*
X122428000Y-92407740D03*
X122428000Y-93906340D03*
X122428000Y-95407480D03*
X122428000Y-96906080D03*
X122428000Y-83408520D03*
X106426000Y-96906080D03*
X106426000Y-95407480D03*
X106426000Y-93906340D03*
X106426000Y-92407740D03*
X106426000Y-90906600D03*
X106426000Y-89408000D03*
X106426000Y-87906860D03*
X106426000Y-86408260D03*
X106426000Y-84907120D03*
X106426000Y-83408520D03*
D15*
X113665000Y-100457000D03*
D16*
X111125000Y-100457000D03*
D17*
X78740000Y-104140000D03*
X78740000Y-119380000D03*
X81280000Y-104140000D03*
X81280000Y-119380000D03*
X83820000Y-104140000D03*
X83820000Y-119380000D03*
X86360000Y-104140000D03*
X86360000Y-119380000D03*
X88900000Y-104140000D03*
X88900000Y-119380000D03*
X91440000Y-104140000D03*
X91440000Y-119380000D03*
X93980000Y-104140000D03*
X93980000Y-119380000D03*
X96520000Y-104140000D03*
X96520000Y-119380000D03*
X99060000Y-104140000D03*
X99060000Y-119380000D03*
X101600000Y-104140000D03*
X101600000Y-119380000D03*
X104140000Y-104140000D03*
X104140000Y-119380000D03*
X106680000Y-104140000D03*
X106680000Y-119380000D03*
X109220000Y-104140000D03*
X109220000Y-119380000D03*
X111760000Y-104140000D03*
X111760000Y-119380000D03*
X114300000Y-104140000D03*
X114300000Y-119380000D03*
X116840000Y-104140000D03*
X116840000Y-119380000D03*
X119380000Y-104140000D03*
X119380000Y-119380000D03*
X121920000Y-104140000D03*
X121920000Y-119380000D03*
X124460000Y-104140000D03*
X124460000Y-119380000D03*
X127000000Y-104140000D03*
X127000000Y-119380000D03*
X129540000Y-104140000D03*
X129540000Y-119380000D03*
X132080000Y-104140000D03*
X132080000Y-119380000D03*
X134620000Y-104140000D03*
X134620000Y-119380000D03*
X137160000Y-104140000D03*
X137160000Y-119380000D03*
D18*
X125061980Y-91694000D03*
X127160020Y-91694000D03*
D19*
X130810000Y-123190000D03*
X133350000Y-123190000D03*
X135890000Y-123190000D03*
D20*
X79161640Y-124460000D03*
X74762360Y-124460000D03*
D21*
X132334000Y-100540820D03*
X132334000Y-95039180D03*
D22*
X134533000Y-91313000D03*
X137033000Y-91313000D03*
D23*
X61722000Y-105918000D03*
X61722000Y-103418000D03*
D22*
X55860000Y-103441500D03*
X53360000Y-103441500D03*
X51391500Y-100965000D03*
X53891500Y-100965000D03*
D24*
X98044000Y-124118000D03*
X98044000Y-122008000D03*
D18*
X106934000Y-125001020D03*
X106934000Y-122902980D03*
X104775000Y-125001020D03*
X104775000Y-122902980D03*
X125061980Y-84836000D03*
X127160020Y-84836000D03*
X125061980Y-82550000D03*
X127160020Y-82550000D03*
X125061980Y-87122000D03*
X127160020Y-87122000D03*
X125061980Y-89408000D03*
X127160020Y-89408000D03*
X54165500Y-94488000D03*
X52067460Y-94488000D03*
D25*
X77597000Y-87217000D03*
X77597000Y-83217000D03*
X81153000Y-87217000D03*
X81153000Y-83217000D03*
X84709000Y-87217000D03*
X84709000Y-83217000D03*
X88265000Y-87217000D03*
X88265000Y-83217000D03*
X91821000Y-87217000D03*
X91821000Y-83217000D03*
X95377000Y-87217000D03*
X95377000Y-83217000D03*
X98933000Y-87217000D03*
X98933000Y-83217000D03*
X102489000Y-87217000D03*
X102489000Y-83217000D03*
D26*
X70866000Y-126682500D03*
X68326000Y-126682500D03*
D27*
X65786000Y-126682500D03*
D26*
X65786000Y-122936000D03*
X68326000Y-122936000D03*
D27*
X70866000Y-122936000D03*
D26*
X88138000Y-123190000D03*
X85598000Y-123190000D03*
D27*
X83058000Y-123190000D03*
D28*
X135128000Y-88392000D03*
X135128000Y-85852000D03*
D29*
X135128000Y-83312000D03*
D28*
X50546000Y-85852000D03*
X50546000Y-83312000D03*
D29*
X50546000Y-80772000D03*
D30*
X69850000Y-95821500D03*
X72852280Y-94871500D03*
X72852280Y-96771500D03*
D31*
X137033000Y-96426000D03*
X137033000Y-93726000D03*
X137033000Y-101506000D03*
X137033000Y-98806000D03*
D12*
X129333000Y-84836000D03*
X132033000Y-84836000D03*
X129333000Y-82550000D03*
X132033000Y-82550000D03*
X129333000Y-87122000D03*
X132033000Y-87122000D03*
X129333000Y-91694000D03*
X132033000Y-91694000D03*
X129333000Y-89408000D03*
X132033000Y-89408000D03*
X64880500Y-97980500D03*
X67580500Y-97980500D03*
X64880500Y-95821500D03*
X67580500Y-95821500D03*
X54118500Y-98742500D03*
X51418500Y-98742500D03*
X55976500Y-108013500D03*
X53276500Y-108013500D03*
X54118500Y-96647000D03*
X51418500Y-96647000D03*
D32*
X88900000Y-90631000D03*
X87630000Y-90631000D03*
X86360000Y-90631000D03*
X85090000Y-90631000D03*
X83820000Y-90631000D03*
X82550000Y-90631000D03*
X81280000Y-90631000D03*
X80010000Y-90631000D03*
X78740000Y-90631000D03*
X77470000Y-90631000D03*
X88900000Y-100631000D03*
X87630000Y-100631000D03*
X86360000Y-100631000D03*
X85090000Y-100631000D03*
X83820000Y-100631000D03*
X82550000Y-100631000D03*
X81280000Y-100631000D03*
X80010000Y-100631000D03*
X78740000Y-100631000D03*
X77470000Y-100631000D03*
X102610424Y-90631000D03*
X101340424Y-90631000D03*
X100070424Y-90631000D03*
X98800424Y-90631000D03*
X97530424Y-90631000D03*
X96260424Y-90631000D03*
X94990424Y-90631000D03*
X93720424Y-90631000D03*
X92450424Y-90631000D03*
X91180424Y-90631000D03*
X102610424Y-100631000D03*
X101340424Y-100631000D03*
X100070424Y-100631000D03*
X98800424Y-100631000D03*
X97530424Y-100631000D03*
X96260424Y-100631000D03*
X94990424Y-100631000D03*
X93720424Y-100631000D03*
X92450424Y-100631000D03*
X91180424Y-100631000D03*
D33*
X65551642Y-104203230D03*
X68091642Y-104203230D03*
X70631642Y-104203230D03*
X73171642Y-104203230D03*
X75711642Y-104203230D03*
X65551642Y-119443230D03*
X68091642Y-119443230D03*
X70631642Y-119443230D03*
X73171642Y-119443230D03*
X75711642Y-119443230D03*
D34*
X124714000Y-96774000D03*
D35*
X127716280Y-96774000D03*
D36*
X126215140Y-98224340D03*
X126215140Y-95323660D03*
D37*
X62547500Y-101346000D03*
X62547500Y-100076000D03*
X62547500Y-98806000D03*
X62547500Y-97536000D03*
X56197500Y-97536000D03*
X56197500Y-98806000D03*
X56197500Y-100076000D03*
X56197500Y-101346000D03*
D38*
X56426500Y-94523000D03*
X56426500Y-95793000D03*
X62826500Y-95793000D03*
X62826500Y-94523000D03*
D39*
X56705500Y-89598500D03*
X49085500Y-89598500D03*
X64325500Y-89598500D03*
X66865500Y-89598500D03*
D40*
X51013000Y-115472000D03*
X50363000Y-115472000D03*
X49713000Y-115472000D03*
X49063000Y-115472000D03*
X49063000Y-109572000D03*
X49713000Y-109572000D03*
X50363000Y-109572000D03*
X51013000Y-109572000D03*
D41*
X46672500Y-85643720D03*
X46672500Y-80645000D03*
X42418000Y-81066640D03*
X42418000Y-86065360D03*
D42*
X71218285Y-85962823D03*
X71218285Y-81517823D03*
X54610000Y-119253000D03*
X50165000Y-119253000D03*
D19*
X119253000Y-123190000D03*
X121793000Y-123190000D03*
X124333000Y-123190000D03*
D43*
X87630000Y-76454000D03*
D39*
X85130000Y-76454000D03*
X82630000Y-76454000D03*
X80130000Y-76454000D03*
X87630000Y-78954000D03*
X85130000Y-78954000D03*
X82630000Y-78954000D03*
X80130000Y-78954000D03*
D44*
X83880000Y-75114000D03*
D43*
X99822000Y-76454000D03*
D39*
X97322000Y-76454000D03*
X94822000Y-76454000D03*
X92322000Y-76454000D03*
X99822000Y-78954000D03*
X97322000Y-78954000D03*
X94822000Y-78954000D03*
X92322000Y-78954000D03*
D44*
X96072000Y-75114000D03*
D43*
X112014000Y-76454000D03*
D39*
X109514000Y-76454000D03*
X107014000Y-76454000D03*
X104514000Y-76454000D03*
X112014000Y-78954000D03*
X109514000Y-78954000D03*
X107014000Y-78954000D03*
X104514000Y-78954000D03*
D44*
X108264000Y-75114000D03*
D43*
X126746000Y-76454000D03*
D39*
X124246000Y-76454000D03*
X121746000Y-76454000D03*
X119246000Y-76454000D03*
X116746000Y-76454000D03*
X126746000Y-78954000D03*
X124246000Y-78954000D03*
X121746000Y-78954000D03*
X119246000Y-78954000D03*
X116746000Y-78954000D03*
D44*
X122996000Y-75114000D03*
D43*
X111399000Y-123501000D03*
D39*
X113899000Y-123501000D03*
D44*
X112649000Y-124841000D03*
D43*
X42712000Y-107950000D03*
D39*
X42712000Y-110450000D03*
X42712000Y-112950000D03*
X42712000Y-115450000D03*
X42712000Y-117950000D03*
X42712000Y-120450000D03*
X45212000Y-107950000D03*
X45212000Y-110450000D03*
X45212000Y-112950000D03*
X45212000Y-115450000D03*
X45212000Y-117950000D03*
X45212000Y-120450000D03*
D44*
X41372000Y-114200000D03*
D43*
X42712000Y-90424000D03*
D39*
X42712000Y-92924000D03*
X42712000Y-95424000D03*
X42712000Y-97924000D03*
X42712000Y-100424000D03*
X42712000Y-102924000D03*
X45212000Y-90424000D03*
X45212000Y-92924000D03*
X45212000Y-95424000D03*
X45212000Y-97924000D03*
X45212000Y-100424000D03*
X45212000Y-102924000D03*
D44*
X41372000Y-96674000D03*
M02*
